<?xml version="1.0" encoding="utf-8"?>
<!DOCTYPE svg PUBLIC "-//W3C//DTD SVG 1.1//EN" "http://www.w3.org/Graphics/SVG/1.1/DTD/svg11.dtd">
<svg
  version="1.1"
  id="Layer_1"
  xmlns="http://www.w3.org/2000/svg"
  xmlns:xlink="http://www.w3.org/1999/xlink"
  x="0cm"
  y="0cm"
	width="30cm"
  height="30cm"
  xml:space="preserve">

<!-- COLUMNS -->
  <line fill="none" stroke="#000000" x1="0cm" y1="0cm" x2="0cm" y2="30cm" />
  <line fill="none" stroke="#000000" x1="2cm" y1="0cm" x2="2cm" y2="30cm" />
  <line fill="none" stroke="#000000" x1="4cm" y1="0cm" x2="4cm" y2="30cm" />
  <line fill="none" stroke="#000000" x1="6cm" y1="0cm" x2="6cm" y2="30cm" />
  <line fill="none" stroke="#000000" x1="8cm" y1="0cm" x2="8cm" y2="30cm" />
  <line fill="none" stroke="#000000" x1="10cm" y1="0cm" x2="10cm" y2="30cm" />
  <line fill="none" stroke="#000000" x1="12cm" y1="0cm" x2="12cm" y2="30cm" />
  <line fill="none" stroke="#000000" x1="14cm" y1="0cm" x2="14cm" y2="30cm" />
  <line fill="none" stroke="#000000" x1="16cm" y1="0cm" x2="16cm" y2="30cm" />
  <line fill="none" stroke="#000000" x1="18cm" y1="0cm" x2="18cm" y2="30cm" />
  <line fill="none" stroke="#000000" x1="20cm" y1="0cm" x2="20cm" y2="30cm" />
  <line fill="none" stroke="#000000" x1="22cm" y1="0cm" x2="22cm" y2="30cm" />
  <line fill="none" stroke="#000000" x1="24cm" y1="0cm" x2="24cm" y2="30cm" />
  <line fill="none" stroke="#000000" x1="26cm" y1="0cm" x2="26cm" y2="30cm" />
  <line fill="none" stroke="#000000" x1="28cm" y1="0cm" x2="28cm" y2="30cm" />
  <line fill="none" stroke="#000000" x1="30cm" y1="0cm" x2="30cm" y2="30cm" />


<!-- ROWS -->
  <line fill="none" stroke="#000000" x1="0cm" y1="0cm" x2="30cm" y2="0cm" />
  <line fill="none" stroke="#000000" x1="0cm" y1="2cm" x2="30cm" y2="2cm" />
  <line fill="none" stroke="#000000" x1="0cm" y1="4cm" x2="30cm" y2="4cm" />
  <line fill="none" stroke="#000000" x1="0cm" y1="6cm" x2="30cm" y2="6cm" />
  <line fill="none" stroke="#000000" x1="0cm" y1="8cm" x2="30cm" y2="8cm" />
  <line fill="none" stroke="#000000" x1="0cm" y1="10cm" x2="30cm" y2="10cm" />
  <line fill="none" stroke="#000000" x1="0cm" y1="12cm" x2="30cm" y2="12cm" />
  <line fill="none" stroke="#000000" x1="0cm" y1="14cm" x2="30cm" y2="14cm" />
  <line fill="none" stroke="#000000" x1="0cm" y1="16cm" x2="30cm" y2="16cm" />
  <line fill="none" stroke="#000000" x1="0cm" y1="18cm" x2="30cm" y2="18cm" />
  <line fill="none" stroke="#000000" x1="0cm" y1="20cm" x2="30cm" y2="20cm" />
  <line fill="none" stroke="#000000" x1="0cm" y1="22cm" x2="30cm" y2="22cm" />
  <line fill="none" stroke="#000000" x1="0cm" y1="24cm" x2="30cm" y2="24cm" />
  <line fill="none" stroke="#000000" x1="0cm" y1="26cm" x2="30cm" y2="26cm" />
  <line fill="none" stroke="#000000" x1="0cm" y1="28cm" x2="30cm" y2="28cm" />
  <line fill="none" stroke="#000000" x1="0cm" y1="30cm" x2="30cm" y2="30cm" />


</svg>
