<?xml version="1.0" encoding="UTF-8"?>
<!-- Created with Inkscape (http://www.inkscape.org/) -->
<svg width="891.54" height="376.16" version="1.1" viewBox="0 0 235.89 99.527" xmlns="http://www.w3.org/2000/svg">
 <g transform="translate(-37.166 -79.264)">
  <g transform="matrix(.84121 0 0 .84121 28.97 43.898)">
   <path class="st0" d="m105.9 66.3-37.2-22.1c-2.2-1.3-4.7-2-7.2-2s-5 0.7-7.2 2l-37.2 22.1c-4.4 2.6-7.2 7.5-7.2 12.8v44.2c0 5.3 2.7 10.1 7.2 12.8l37.2 22.1c2.2 1.3 4.7 2 7.2 2s5-0.7 7.2-2l37.2-22.1c4.4-2.6 7.2-7.5 7.2-12.8v-44.3c0-5.2-2.7-10.1-7.2-12.7zm-50.3 89.5-37.2-22.1c-3.6-2.2-5.9-6.2-5.9-10.5v-44.2c0-4.3 2.3-8.4 5.9-10.5l37.2-22.1c1.8-1.1 3.8-1.6 5.9-1.6s4.1 0.6 5.9 1.6l37.2 22.1c3.1 1.8 5.1 5 5.7 8.5-1.2-2.6-4-3.4-7.3-1.5l-35.1 21.8c-4.4 2.6-7.6 5.4-7.6 10.7v43.4c0 3.2 1.3 5.2 3.2 5.8-0.6 0.1-1.3 0.2-2 0.2-2 0.1-4.1-0.5-5.9-1.6z"/>
   <path class="st1" d="m96.2 127.5-9.3 5.5c-0.2 0.1-0.4 0.3-0.4 0.6v2.4c0 0.3 0.2 0.4 0.4 0.3l9.4-5.7c0.2-0.1 0.3-0.4 0.3-0.7v-2.1c0-0.3-0.2-0.4-0.4-0.3z"/>
   <path class="st2" d="m76.4 107.1c0.3-0.2 0.5 0 0.6 0.4v3.2c1.3-0.5 2.5-0.7 3.6-0.4 0.2 0.1 0.3 0.4 0.2 0.7l-0.7 2.8-0.3 0.6c-0.1 0.1-0.1 0.1-0.2 0.1s-0.2 0.1-0.3 0c-0.5-0.1-1.6-0.4-3.4 0.6-1.9 1-2.6 2.6-2.5 3.8 0 1.5 0.8 1.9 3.3 1.9 3.4 0.1 4.9 1.6 5 5 0 3.4-1.8 7.1-4.6 9.3l0.1 3.2c0 0.4-0.2 0.8-0.5 1l-1.9 1.1c-0.3 0.2-0.5 0-0.6-0.4v-3.1c-1.6 0.7-3.2 0.8-4.3 0.4-0.2-0.1-0.3-0.4-0.2-0.7l0.7-2.9c0.1-0.2 0.2-0.5 0.3-0.6s0.1-0.1 0.2-0.1c0.1-0.1 0.2-0.1 0.3 0 1.1 0.4 2.6 0.2 3.9-0.5 1.8-0.9 2.9-2.7 2.9-4.5 0-1.6-0.9-2.3-3-2.3-2.7 0-5.2-0.5-5.3-4.5 0-3.3 1.7-6.7 4.4-8.8v-3.2c0-0.4 0.2-0.8 0.5-1z"/>
   <path class="st0" d="m161.2 102.8c-0.9-1.1-2-2.1-3.3-2.9-0.2-0.1-0.3-0.2-0.5-0.3 1-0.7 1.9-1.5 2.7-2.4 0.8-1 1.5-2.1 2-3.3s0.7-2.6 0.8-4c0-2.5-0.5-4.7-1.6-6.6-1.1-1.8-2.5-3.4-4.3-4.5-1.7-1.1-3.7-2-5.9-2.5-2.1-0.5-4.3-0.8-6.5-0.8h-14.9c-1 0-1.9 0.8-1.9 1.8v47.6c0 1 0.8 1.8 1.9 1.8h16.1c2.3 0 4.6-0.4 6.8-1 2.2-0.7 4.2-1.7 5.9-2.9 1.7-1.3 3.2-2.9 4.2-4.9 1.1-2 1.6-4.2 1.5-6.7 0-1.6-0.3-3.1-0.8-4.5-0.5-1.5-1.2-2.7-2.2-3.9zm-9.1-10.4c-0.4 0.7-1 1.3-1.7 1.8s-1.6 0.9-2.5 1.2c-1 0.3-2 0.4-3 0.5h-7v-11.6h6.8c1.1 0 2.2 0.2 3.2 0.4s1.8 0.6 2.5 1.1c0.7 0.4 1.2 1 1.6 1.7s0.6 1.5 0.6 2.5c0.1 0.9-0.1 1.7-0.5 2.4zm-14.1 12.1h8.2c1.2 0 2.2 0.2 3.2 0.6 0.9 0.3 1.8 0.8 2.4 1.3 0.7 0.6 1.2 1.2 1.6 2.1 0.4 0.8 0.6 1.8 0.5 2.9 0 1-0.2 2-0.6 2.8s-1 1.5-1.7 2.1-1.6 1-2.6 1.4c-1 0.3-2.1 0.5-3.2 0.5h-7.8z"/>
   <path class="st0" d="m192.2 76.8c-0.2-0.7-1-1.2-1.8-1.2h-5.3c-0.8 0-1.5 0.5-1.8 1.2l-16.2 47.6c-0.2 0.5-0.1 1.1 0.3 1.6s0.9 0.7 1.5 0.7h6.4c0.8 0 1.6-0.5 1.8-1.3l3.6-11.1h13.9l3.6 11.1c0.2 0.8 1 1.3 1.8 1.3h6.3c0.6 0 1.2-0.3 1.5-0.7 0.4-0.5 0.5-1.1 0.3-1.6zm-0.4 28.7h-8.2l4.1-12.8z"/>
   <path class="st0" d="m246.3 104.7c-0.9-1.1-1.9-2.1-3-2.9s-2.3-1.6-3.5-2.2-2.5-1.2-3.9-1.7c-1.3-0.5-2.6-0.9-3.9-1.3-1.1-0.3-2.3-0.7-3.5-1.1-1.1-0.4-2.2-0.9-3.2-1.5-0.9-0.5-1.6-1.2-2.2-1.9-0.5-0.7-0.7-1.5-0.8-2.4 0-1 0.2-1.8 0.6-2.5s1-1.3 1.6-1.8c0.7-0.5 1.6-0.9 2.5-1.2 2.2-0.6 4.6-0.5 6.4 0.1 1 0.4 1.8 0.9 2.5 1.5s1.3 1.4 1.7 2.3c0.4 1 0.8 2 0.9 3.2 0.1 0.9 0.9 1.6 1.9 1.6h6.5c0.5 0 1-0.2 1.3-0.5 0.4-0.3 0.5-0.8 0.5-1.3-0.1-2.4-0.6-4.7-1.7-6.7s-2.5-3.7-4.2-5.1-3.7-2.5-5.9-3.2c-4.2-1.4-8.9-1.5-13.4-0.2-2.2 0.6-4.1 1.6-5.8 2.8-1.7 1.3-3.2 2.8-4.2 4.6-1.1 1.9-1.7 4-1.7 6.4s0.6 4.5 1.7 6.3c1.1 1.7 2.5 3.2 4.1 4.4s3.4 2.2 5.4 3c1.9 0.8 3.7 1.5 5.6 2 1.2 0.4 2.4 0.8 3.7 1.2 1.2 0.4 2.3 0.9 3.2 1.5s1.6 1.2 2.2 2c0.5 0.7 0.7 1.6 0.7 2.7 0 1-0.2 1.8-0.6 2.5-0.5 0.7-1 1.3-1.8 1.8s-1.6 0.9-2.6 1.1c-2.4 0.6-4.9 0.5-6.9-0.1-1.1-0.3-2-0.8-2.9-1.5-0.8-0.6-1.5-1.4-2-2.4-0.5-0.9-0.9-2.1-1.1-3.3-0.1-0.9-0.9-1.6-1.9-1.6h-6.5c-0.5 0-1 0.2-1.4 0.5s-0.5 0.8-0.5 1.3c0.1 2.6 0.7 4.9 1.9 6.9s2.7 3.7 4.6 5.1c1.8 1.4 4 2.4 6.3 3.1s4.7 1.1 7.1 1.1c2.2 0 4.3-0.3 6.5-0.9s4.2-1.5 5.9-2.6c1.8-1.2 3.3-2.7 4.4-4.5 1.2-1.9 1.8-4.1 1.8-6.5 0-1.6-0.2-3.1-0.7-4.5-0.1-1.3-0.8-2.5-1.7-3.6z"/>
   <path class="st0" d="m288.1 75.5h-6c-1 0-1.9 0.8-1.9 1.8v18.7h-16.8v-18.7c0-1-0.8-1.8-1.9-1.8h-6c-1 0-1.9 0.8-1.9 1.8v47.6c0 1 0.8 1.8 1.9 1.8h6c1 0 1.9-0.8 1.9-1.8v-20.2h16.8v20.2c0 1 0.8 1.8 1.9 1.8h6c1 0 1.9-0.8 1.9-1.8v-47.6c-0.1-1-0.9-1.8-1.9-1.8z"/>
   <path class="st0" d="m133.6 135h-2.3v6.1h-1.2v-6.1h-2.3v-1h5.8z"/>
   <path class="st0" d="m140.6 141.1h-1.2v-3.1h-2.5v3.1h-1.2v-7.1h1.2v3h2.5v-3h1.2z"/>
   <path class="st0" d="m147.6 137.9h-3.1v2.2h3.6v0.9h-4.8v-7h4.8v1h-3.5v2h3.1v0.9z"/>
   <path class="st0" d="m158.2 141.1v-7.1h2.4c0.4 0 0.7 0 1 0.1s0.6 0.2 0.8 0.3c0.2 0.2 0.4 0.4 0.5 0.6s0.2 0.5 0.2 0.9c0 0.3-0.1 0.6-0.3 0.9-0.2 0.2-0.5 0.4-0.8 0.6 0.2 0.1 0.4 0.1 0.6 0.2s0.3 0.2 0.4 0.4c0.1 0.1 0.2 0.3 0.3 0.5s0.1 0.4 0.1 0.6c0 0.3-0.1 0.6-0.2 0.9s-0.3 0.5-0.5 0.6c-0.2 0.2-0.5 0.3-0.8 0.4s-0.7 0.1-1 0.1zm1.2-4.1h1.2c0.2 0 0.4 0 0.5-0.1 0.2 0 0.3-0.1 0.4-0.2l0.3-0.3c0.1-0.1 0.1-0.3 0.1-0.4 0-0.2 0-0.3-0.1-0.5l-0.3-0.3c-0.1-0.1-0.3-0.1-0.4-0.2-0.2 0-0.3-0.1-0.5-0.1h-1.2zm0 0.9v2.2h1.3c0.2 0 0.4 0 0.5-0.1 0.2-0.1 0.3-0.1 0.4-0.2l0.3-0.3c0.1-0.1 0.1-0.3 0.1-0.5s0-0.3-0.1-0.5c-0.1-0.1-0.1-0.3-0.2-0.4s-0.2-0.2-0.4-0.2c-0.2-0.1-0.3-0.1-0.5-0.1h-1.4z"/>
   <path class="st0" d="m170.7 138c0 0.4-0.1 0.8-0.2 1.2s-0.3 0.7-0.5 1-0.5 0.5-0.8 0.7-0.7 0.3-1.2 0.3c-0.4 0-0.8-0.1-1.2-0.3-0.3-0.2-0.6-0.4-0.8-0.7s-0.4-0.6-0.5-1-0.2-0.8-0.2-1.2v-0.9c0-0.3 0-0.5 0.1-0.8 0-0.3 0.1-0.5 0.2-0.7s0.2-0.5 0.4-0.6c0.1-0.2 0.3-0.4 0.5-0.5s0.4-0.3 0.7-0.3c0.2-0.1 0.5-0.1 0.8-0.1 0.4 0 0.8 0.1 1.2 0.3 0.3 0.2 0.6 0.4 0.8 0.7s0.4 0.6 0.5 1 0.2 0.8 0.2 1.2zm-1.2-0.9c0-0.3 0-0.5-0.1-0.8 0-0.3-0.1-0.5-0.2-0.7s-0.3-0.4-0.4-0.5c-0.2-0.1-0.4-0.2-0.7-0.2s-0.5 0.1-0.7 0.2-0.3 0.3-0.4 0.5-0.2 0.4-0.2 0.7-0.1 0.5-0.1 0.8v0.9c0 0.3 0 0.5 0.1 0.8 0 0.3 0.1 0.5 0.2 0.7s0.3 0.4 0.4 0.5c0.2 0.1 0.4 0.2 0.7 0.2s0.5-0.1 0.7-0.2 0.3-0.3 0.4-0.5 0.2-0.4 0.2-0.7 0.1-0.5 0.1-0.8z"/>
   <path class="st0" d="m177.9 134v4.7c0 0.4-0.1 0.7-0.2 1s-0.3 0.6-0.5 0.8-0.5 0.4-0.8 0.5-0.6 0.2-1 0.2-0.7-0.1-1-0.2-0.6-0.3-0.8-0.5-0.4-0.5-0.5-0.8-0.2-0.6-0.2-1v-4.7h1.2v4.7c0 0.2 0 0.4 0.1 0.6s0.1 0.3 0.2 0.5c0.1 0.1 0.2 0.2 0.4 0.3s0.3 0.1 0.5 0.1 0.4 0 0.5-0.1c0.2-0.1 0.3-0.2 0.4-0.3s0.2-0.3 0.2-0.5c0.1-0.2 0.1-0.4 0.1-0.6v-4.7z"/>
   <path class="st0" d="m183.1 138.3h-1.2v2.8h-1.2v-7.1h2.3c0.4 0 0.7 0 1.1 0.1 0.3 0.1 0.6 0.2 0.8 0.4s0.4 0.4 0.5 0.7 0.2 0.6 0.2 0.9c0 0.2 0 0.5-0.1 0.7s-0.2 0.4-0.3 0.5c-0.1 0.2-0.3 0.3-0.4 0.4-0.2 0.1-0.3 0.2-0.5 0.3l1.6 3v0.1h-1.3zm-1.3-0.9h1.1c0.2 0 0.4 0 0.6-0.1s0.3-0.1 0.4-0.2 0.2-0.2 0.3-0.4c0.1-0.1 0.1-0.3 0.1-0.5s0-0.4-0.1-0.5c-0.1-0.2-0.2-0.3-0.3-0.4s-0.3-0.2-0.4-0.2c-0.2-0.1-0.4-0.1-0.6-0.1h-1.1z"/>
   <path class="st0" d="m192.9 141.1h-1.2l-2.4-4.9v4.9h-1.3v-7.1h1.2l2.4 4.8v-4.8h1.2v7.1z"/>
   <path class="st0" d="m199.9 137.9h-3.1v2.2h3.6v0.9h-4.8v-7h4.8v1h-3.5v2h3.1v0.9z"/>
   <path class="st0" d="m207.6 138.5h-4.1v-0.9h4.1z"/>
   <path class="st0" d="m214 139.4h-2.3l-0.5 1.6h-1.3l2.4-7.1h1.1l2.4 7.1h-1.3zm-2-0.9h1.7l-0.8-2.8z"/>
   <path class="st0" d="m222.9 140.2-0.4 0.4-0.6 0.3c-0.2 0.1-0.4 0.2-0.7 0.2-0.2 0-0.5 0.1-0.8 0.1-0.4 0-0.8-0.1-1.2-0.2-0.3-0.2-0.6-0.4-0.9-0.7-0.2-0.3-0.4-0.6-0.5-1s-0.2-0.8-0.2-1.3v-0.9c0-0.4 0.1-0.9 0.2-1.3s0.3-0.7 0.5-1 0.5-0.5 0.8-0.7 0.7-0.3 1.1-0.3 0.7 0.1 1 0.2 0.6 0.2 0.8 0.4 0.4 0.4 0.5 0.7 0.2 0.6 0.2 0.9h-1.2c0-0.2-0.1-0.4-0.1-0.5-0.1-0.2-0.2-0.3-0.3-0.4s-0.2-0.2-0.4-0.2-0.3-0.1-0.5-0.1c-0.3 0-0.5 0.1-0.7 0.2s-0.3 0.3-0.5 0.5c-0.1 0.2-0.2 0.4-0.3 0.7s-0.1 0.6-0.1 0.8v0.9c0 0.3 0 0.6 0.1 0.8 0.1 0.3 0.2 0.5 0.3 0.7s0.3 0.4 0.5 0.5 0.4 0.2 0.7 0.2h0.4c0.1 0 0.2 0 0.3-0.1 0.1 0 0.2-0.1 0.3-0.1 0.1-0.1 0.2-0.1 0.2-0.2v-1.4h-1.3v-0.9h2.5z"/>
   <path class="st0" d="m229 139.4h-2.3l-0.5 1.6h-1.3l2.4-7.1h1.1l2.4 7.1h-1.3zm-2-0.9h1.7l-0.8-2.8z"/>
   <path class="st0" d="m233 134h4.4v1h-1.6v5.1h1.6v1h-4.4v-1h1.6v-5.1h-1.6z"/>
   <path class="st0" d="m245.1 141.1h-1.2l-2.4-4.9v4.9h-1.2v-7.1h1.2l2.4 4.8v-4.8h1.2z"/>
   <path class="st0" d="m259.1 139.3c0-0.2 0-0.3-0.1-0.4l-0.3-0.3c-0.1-0.1-0.3-0.2-0.5-0.3s-0.4-0.1-0.6-0.2c-0.3-0.1-0.6-0.2-0.9-0.3s-0.5-0.3-0.8-0.4c-0.2-0.2-0.4-0.4-0.5-0.6s-0.2-0.5-0.2-0.8 0.1-0.6 0.2-0.8 0.3-0.4 0.6-0.6c0.2-0.2 0.5-0.3 0.8-0.4s0.6-0.1 1-0.1 0.7 0.1 1 0.2 0.6 0.3 0.8 0.4c0.2 0.2 0.4 0.4 0.6 0.7 0.1 0.3 0.2 0.6 0.2 0.9h-1.2c0-0.2-0.1-0.3-0.1-0.5-0.1-0.1-0.2-0.3-0.3-0.4s-0.3-0.2-0.4-0.2c-0.2-0.1-0.4-0.1-0.6-0.1s-0.4 0-0.5 0.1c-0.2 0-0.3 0.1-0.4 0.2l-0.3 0.3c-0.1 0.1-0.1 0.3-0.1 0.4 0 0.2 0 0.3 0.1 0.4l0.3 0.3c0.1 0.1 0.3 0.2 0.5 0.2 0.2 0.1 0.4 0.1 0.6 0.2 0.3 0.1 0.6 0.2 0.9 0.3s0.5 0.3 0.7 0.5 0.4 0.4 0.5 0.6 0.2 0.5 0.2 0.8-0.1 0.6-0.2 0.8-0.3 0.4-0.6 0.6c-0.2 0.2-0.5 0.3-0.8 0.4s-0.6 0.1-1 0.1c-0.2 0-0.5 0-0.7-0.1-0.2 0-0.4-0.1-0.6-0.2l-0.6-0.3c-0.2-0.1-0.3-0.3-0.5-0.4-0.1-0.2-0.2-0.3-0.3-0.5s-0.1-0.4-0.1-0.7h1.2c0 0.2 0.1 0.4 0.1 0.6 0.1 0.2 0.2 0.3 0.3 0.4s0.3 0.2 0.5 0.2c0.2 0.1 0.4 0.1 0.6 0.1s0.4 0 0.5-0.1c0.2 0 0.3-0.1 0.4-0.2l0.3-0.3c0.2-0.2 0.3-0.4 0.3-0.5z"/>
   <path class="st0" d="m267.5 141.1h-1.2v-3.1h-2.5v3.1h-1.2v-7.1h1.2v3h2.5v-3h1.2z"/>
   <path class="st0" d="m274.5 137.9h-3.1v2.2h3.6v0.9h-4.8v-7h4.8v1h-3.5v2h3.1v0.9z"/>
   <path class="st0" d="m278.9 140.1h3.5v0.9h-4.8v-7h1.2v6.1z"/>
   <path class="st0" d="m286.4 140.1h3.5v0.9h-4.8v-7h1.2v6.1z"/>
  </g>
 </g>
 <style type="text/css">.st0{fill:#FFFFFF;}
	.st1{fill:#4DA925;}
	.st2{fill:#2A3238;}</style>
</svg>
