<svg xmlns="http://www.w3.org/2000/svg" id="canvas" viewBox="231.003 295.119 978.282 151.060"><path d="M 235.38,378.74 C 236.34 378.49, 237.28 377.90, 238.82 376.32 C 240.36 374.75, 241.18 373.63, 243.08 370.86 C 244.99 368.08, 246.04 366.17, 248.34 362.44 C 250.64 358.72, 252.01 356.55, 254.60 352.24 C 257.18 347.93, 258.62 345.45, 261.24 340.89 C 263.86 336.34, 265.32 333.80, 267.69 329.44 C 270.06 325.08, 271.28 322.80, 273.09 319.09 C 274.90 315.38, 276.03 313.66, 276.74 310.89 C 277.46 308.11, 277.35 306.69, 276.67 305.20 C 275.99 303.72, 275.04 303.03, 273.34 303.46 C 271.63 303.89, 270.29 304.58, 268.16 307.36 C 266.02 310.14, 264.98 312.30, 262.66 317.38 C 260.34 322.46, 258.89 325.67, 256.56 332.75 C 254.22 339.82, 252.85 344.21, 250.98 352.73 C 249.10 361.25, 248.19 366.29, 247.18 375.34 C 246.16 384.39, 245.83 389.48, 245.91 397.97 C 245.99 406.46, 246.35 410.89, 247.57 417.79 C 248.80 424.70, 249.76 427.82, 252.04 432.49 C 254.32 437.15, 255.79 439.04, 258.96 441.12 C 262.13 443.20, 264.34 443.53, 267.89 442.88 C 271.43 442.24, 273.49 440.85, 276.69 437.90 C 279.89 434.95, 281.52 432.62, 283.90 428.13 C 286.29 423.65, 287.38 420.63, 288.63 415.48 C 289.88 410.33, 290.20 407.24, 290.14 402.38 C 290.08 397.51, 289.64 394.99, 288.35 391.16 C 287.05 387.32, 285.89 385.58, 283.68 383.21 C 281.46 380.84, 279.77 380.13, 277.28 379.29 C 274.79 378.46, 273.13 378.55, 271.22 379.03 C 269.30 379.51, 268.25 380.43, 267.72 381.71 C 267.19 382.98, 267.34 384.24, 268.57 385.40 C 269.80 386.56, 271.11 387.32, 273.86 387.50 C 276.61 387.69, 278.52 387.14, 282.29 386.33 C 286.06 385.51, 288.38 384.74, 292.71 383.44 C 297.03 382.14, 299.57 381.19, 303.92 379.84 C 308.27 378.50, 310.68 377.59, 314.45 376.73 C 318.22 375.86, 320.08 375.45, 322.79 375.52 C 325.49 375.59, 326.41 375.68, 327.97 377.07 C 329.54 378.46, 329.95 379.48, 330.60 382.48 C 331.25 385.47, 331.36 387.63, 331.23 392.04 C 331.10 396.45, 330.69 399.49, 329.94 404.52 C 329.19 409.56, 328.52 412.73, 327.49 417.21 C 326.47 421.69, 325.38 424.04, 324.81 426.93 C 324.25 429.81, 324.38 431.12, 324.66 431.65 C 324.93 432.19, 325.64 431.74, 326.19 429.60 C 326.74 427.46, 326.76 425.20, 327.40 420.96 C 328.04 416.72, 328.39 413.51, 329.38 408.41 C 330.38 403.31, 331.01 400.13, 332.38 395.48 C 333.75 390.82, 334.62 388.43, 336.23 385.12 C 337.83 381.81, 338.74 380.65, 340.41 378.93 C 342.07 377.22, 342.70 376.91, 344.56 376.53 C 346.42 376.15, 347.35 376.59, 349.70 377.03 C 352.04 377.48, 353.41 378.11, 356.27 378.76 C 359.14 379.40, 360.86 379.86, 364.02 380.26 C 367.19 380.66, 368.98 380.88, 372.10 380.74 C 375.22 380.60, 376.94 380.38, 379.63 379.55 C 382.32 378.73, 383.73 378.02, 385.55 376.61 C 387.36 375.20, 388.20 374.12, 388.71 372.50 C 389.21 370.88, 389.03 369.60, 388.07 368.52 C 387.11 367.43, 385.92 366.80, 383.90 367.07 C 381.87 367.34, 380.21 367.80, 377.94 369.88 C 375.66 371.97, 374.52 373.83, 372.53 377.50 C 370.54 381.17, 369.40 383.61, 368.00 388.23 C 366.59 392.86, 365.93 395.75, 365.51 400.62 C 365.09 405.49, 365.13 408.31, 365.89 412.58 C 366.65 416.86, 367.34 419.10, 369.32 422.00 C 371.29 424.89, 372.89 426.10, 375.76 427.04 C 378.64 427.99, 380.68 427.94, 383.69 426.73 C 386.70 425.53, 388.34 424.08, 390.83 421.02 C 393.31 417.95, 394.49 415.73, 396.12 411.41 C 397.74 407.09, 398.38 404.27, 398.94 399.42 C 399.50 394.56, 399.44 391.69, 398.91 387.15 C 398.37 382.60, 397.68 380.24, 396.25 376.70 C 394.83 373.16, 393.71 371.51, 391.80 369.45 C 389.88 367.40, 388.38 366.85, 386.69 366.43 C 384.99 366.01, 383.91 366.55, 383.32 367.35 C 382.73 368.15, 382.66 369.32, 383.73 370.44 C 384.79 371.56, 386.01 372.50, 388.65 372.95 C 391.29 373.40, 393.26 373.13, 396.94 372.68 C 400.62 372.24, 402.88 371.63, 407.05 370.72 C 411.22 369.81, 413.68 369.06, 417.79 368.12 C 421.90 367.17, 424.20 366.51, 427.60 366.00 C 430.99 365.48, 432.56 365.19, 434.76 365.55 C 436.97 365.91, 437.56 366.09, 438.62 367.80 C 439.69 369.51, 439.85 370.79, 440.08 374.09 C 440.31 377.38, 440.17 379.79, 439.77 384.27 C 439.38 388.74, 438.83 391.74, 438.11 396.47 C 437.38 401.21, 436.64 404.01, 436.15 407.95 C 435.67 411.88, 435.24 413.85, 435.68 416.15 C 436.13 418.45, 436.89 419.33, 438.39 419.44 C 439.89 419.55, 441.25 419.01, 443.18 416.71 C 445.11 414.41, 445.93 411.97, 448.05 407.94 C 450.17 403.91, 451.44 400.98, 453.80 396.55 C 456.17 392.12, 457.60 389.39, 459.87 385.77 C 462.14 382.15, 463.63 380.45, 465.15 378.45 C 466.66 376.45, 466.88 375.69, 467.45 375.78 C 468.02 375.87, 467.72 376.68, 467.99 378.91 C 468.26 381.15, 468.46 383.11, 468.78 386.95 C 469.10 390.79, 469.18 393.59, 469.58 398.11 C 469.98 402.62, 470.04 405.43, 470.77 409.52 C 471.50 413.60, 471.66 415.92, 473.22 418.53 C 474.78 421.14, 476.15 422.25, 478.58 422.56 C 481.01 422.88, 482.65 422.49, 485.37 420.10 C 488.09 417.72, 489.36 415.56, 492.20 410.65 C 495.03 405.74, 496.59 402.46, 499.54 395.55 C 502.49 388.64, 504.09 384.34, 506.93 376.11 C 509.78 367.88, 511.24 362.95, 513.77 354.40 C 516.30 345.85, 517.51 341.12, 519.57 333.36 C 521.64 325.59, 522.57 321.62, 524.09 315.59 C 525.62 309.56, 526.56 306.65, 527.19 303.21 C 527.83 299.77, 527.55 298.57, 527.26 298.40 C 526.98 298.22, 526.17 299.07, 525.78 302.33 C 525.40 305.59, 525.56 308.42, 525.33 314.70 C 525.11 320.98, 524.92 325.37, 524.65 333.73 C 524.38 342.10, 524.19 347.31, 524.00 356.52 C 523.80 365.73, 523.67 371.03, 523.66 379.80 C 523.64 388.57, 523.67 393.24, 523.93 400.38 C 524.18 407.51, 524.25 410.86, 524.92 415.47 C 525.59 420.08, 526.28 421.93, 527.26 423.43 C 528.24 424.94, 529.33 423.18, 529.83 422.99 C 530.33 422.81, 529.97 422.57, 529.75 422.51 C 529.53 422.45, 529.24 424.17, 528.72 422.70 C 528.21 421.23, 527.78 419.63, 527.17 415.15 C 526.56 410.67, 526.06 407.37, 525.67 400.30 C 525.27 393.23, 525.23 388.54, 525.21 379.80 C 525.19 371.05, 525.32 365.76, 525.59 356.56 C 525.86 347.36, 526.12 342.16, 526.56 333.81 C 527.01 325.47, 527.37 321.10, 527.80 314.82 C 528.23 308.55, 528.85 305.79, 528.72 302.45 C 528.59 299.10, 527.95 298.09, 527.15 298.12 C 526.35 298.16, 525.73 299.22, 524.74 302.62 C 523.75 306.03, 523.55 309.08, 522.20 315.15 C 520.86 321.21, 519.99 325.18, 518.01 332.95 C 516.02 340.71, 514.80 345.44, 512.27 353.96 C 509.74 362.48, 508.27 367.39, 505.35 375.55 C 502.43 383.71, 500.77 387.99, 497.69 394.74 C 494.62 401.49, 492.87 404.71, 489.97 409.31 C 487.06 413.90, 485.39 415.56, 483.17 417.71 C 480.96 419.87, 480.25 420.25, 478.89 420.09 C 477.53 419.93, 477.32 419.13, 476.38 416.89 C 475.44 414.66, 474.84 412.73, 474.19 408.92 C 473.54 405.11, 473.42 402.29, 473.13 397.83 C 472.84 393.37, 473.04 390.60, 472.72 386.63 C 472.40 382.66, 472.50 380.49, 471.52 377.98 C 470.53 375.47, 469.58 374.46, 467.79 374.08 C 466.00 373.70, 464.69 374.09, 462.56 376.09 C 460.43 378.09, 459.46 380.30, 457.15 384.09 C 454.84 387.87, 453.46 390.61, 451.00 395.02 C 448.54 399.44, 447.07 402.29, 444.83 406.16 C 442.60 410.03, 441.13 411.98, 439.81 414.37 C 438.49 416.77, 438.45 417.81, 438.23 418.14 C 438.00 418.47, 438.42 417.98, 438.69 416.03 C 438.96 414.07, 439.06 412.20, 439.56 408.38 C 440.07 404.56, 440.51 401.70, 441.21 396.94 C 441.90 392.18, 442.55 389.21, 443.04 384.58 C 443.53 379.95, 443.98 377.52, 443.64 373.80 C 443.30 370.08, 442.97 368.30, 441.33 365.98 C 439.69 363.66, 438.31 362.88, 435.46 362.19 C 432.61 361.50, 430.76 362.01, 427.08 362.54 C 423.40 363.08, 421.20 363.93, 417.05 364.87 C 412.91 365.80, 410.47 366.54, 406.38 367.22 C 402.28 367.89, 400.02 368.14, 396.59 368.25 C 393.17 368.36, 391.54 367.86, 389.23 367.75 C 386.93 367.65, 386.10 367.63, 385.05 367.72 C 384.00 367.81, 383.89 367.93, 383.98 368.22 C 384.06 368.51, 384.49 368.42, 385.49 369.17 C 386.49 369.93, 387.44 370.24, 388.98 372.00 C 390.53 373.77, 391.82 374.88, 393.22 377.99 C 394.61 381.09, 395.40 383.30, 395.96 387.51 C 396.52 391.73, 396.57 394.52, 396.01 399.07 C 395.45 403.62, 394.74 406.32, 393.16 410.27 C 391.58 414.21, 390.30 416.18, 388.11 418.78 C 385.93 421.39, 384.51 422.28, 382.25 423.30 C 379.98 424.31, 378.82 424.49, 376.79 423.86 C 374.75 423.23, 373.65 422.50, 372.06 420.14 C 370.48 417.77, 369.59 415.89, 368.86 412.04 C 368.14 408.19, 368.00 405.45, 368.43 400.88 C 368.86 396.32, 369.52 393.49, 371.00 389.21 C 372.48 384.92, 373.74 382.60, 375.82 379.47 C 377.90 376.34, 379.54 375.33, 381.39 373.56 C 383.23 371.79, 384.01 371.33, 385.04 370.62 C 386.07 369.91, 386.35 369.92, 386.52 370.02 C 386.70 370.11, 386.58 370.43, 385.92 371.08 C 385.27 371.72, 384.76 372.40, 383.26 373.26 C 381.75 374.11, 380.68 374.71, 378.41 375.33 C 376.14 375.95, 374.67 376.23, 371.91 376.34 C 369.15 376.45, 367.54 376.29, 364.61 375.88 C 361.67 375.46, 360.12 374.85, 357.24 374.25 C 354.36 373.66, 352.91 373.10, 350.20 372.92 C 347.50 372.74, 346.18 372.62, 343.74 373.36 C 341.30 374.09, 340.06 374.49, 338.00 376.59 C 335.95 378.68, 335.15 380.20, 333.47 383.82 C 331.80 387.43, 331.07 389.87, 329.63 394.66 C 328.18 399.44, 327.43 402.60, 326.26 407.75 C 325.08 412.90, 324.41 416.07, 323.75 420.41 C 323.10 424.74, 322.68 427.06, 322.98 429.42 C 323.28 431.78, 324.19 432.51, 325.25 432.21 C 326.31 431.90, 327.25 430.77, 328.30 427.90 C 329.35 425.03, 329.59 422.44, 330.50 417.85 C 331.41 413.27, 332.08 410.10, 332.86 404.96 C 333.63 399.82, 334.17 396.82, 334.40 392.17 C 334.62 387.51, 334.82 385.19, 333.96 381.69 C 333.10 378.19, 332.30 376.59, 330.10 374.66 C 327.89 372.74, 326.22 372.28, 322.95 372.07 C 319.67 371.86, 317.70 372.65, 313.72 373.62 C 309.73 374.58, 307.40 375.57, 303.02 376.88 C 298.64 378.19, 296.11 379.12, 291.82 380.18 C 287.53 381.25, 285.15 381.71, 281.57 382.19 C 277.99 382.66, 276.25 382.43, 273.91 382.56 C 271.57 382.70, 270.78 382.80, 269.89 382.86 C 268.99 382.92, 269.05 382.92, 269.42 382.86 C 269.79 382.80, 270.41 382.57, 271.75 382.56 C 273.09 382.56, 274.23 382.20, 276.10 382.82 C 277.98 383.44, 279.25 383.80, 281.13 385.67 C 283.02 387.54, 284.27 388.81, 285.52 392.16 C 286.77 395.51, 287.31 397.89, 287.41 402.42 C 287.50 406.96, 287.21 409.97, 286.01 414.84 C 284.81 419.71, 283.68 422.61, 281.41 426.79 C 279.14 430.97, 277.49 433.07, 274.67 435.73 C 271.85 438.39, 270.19 439.42, 267.32 440.08 C 264.45 440.74, 263.00 440.73, 260.31 439.03 C 257.63 437.32, 256.09 435.88, 253.88 431.57 C 251.67 427.26, 250.55 424.20, 249.27 417.48 C 247.98 410.76, 247.58 406.35, 247.46 397.95 C 247.35 389.56, 247.67 384.48, 248.70 375.51 C 249.72 366.54, 250.65 361.52, 252.60 353.10 C 254.56 344.68, 255.97 340.31, 258.48 333.41 C 260.99 326.52, 262.60 323.37, 265.16 318.62 C 267.72 313.87, 269.43 312.28, 271.27 309.65 C 273.12 307.03, 273.72 306.32, 274.40 305.50 C 275.09 304.68, 274.95 304.71, 274.70 305.57 C 274.45 306.42, 274.01 307.34, 273.14 309.79 C 272.27 312.24, 271.90 314.15, 270.34 317.83 C 268.78 321.51, 267.61 323.84, 265.33 328.19 C 263.06 332.54, 261.61 335.07, 258.97 339.58 C 256.34 344.09, 254.87 346.54, 252.18 350.73 C 249.48 354.93, 248.01 357.02, 245.49 360.55 C 242.98 364.09, 241.55 365.72, 239.60 368.39 C 237.65 371.07, 236.85 372.08, 235.74 373.92 C 234.62 375.75, 234.08 376.61, 234.01 377.57 C 233.94 378.53, 234.42 378.99, 235.38 378.74" style="stroke: black; fill: black;"/><path d="M 503.25,376.23 C 503.79 376.87, 504.31 377.39, 506.21 377.80 C 508.11 378.21, 509.46 378.45, 512.77 378.30 C 516.07 378.15, 518.30 377.81, 522.74 377.07 C 527.17 376.32, 529.96 375.78, 534.96 374.59 C 539.96 373.41, 542.83 372.57, 547.75 371.14 C 552.66 369.71, 555.31 368.77, 559.53 367.44 C 563.74 366.10, 566.02 365.62, 568.81 364.45 C 571.59 363.27, 572.68 362.29, 573.45 361.56 C 574.22 360.83, 573.79 360.24, 572.66 360.79 C 571.54 361.34, 570.09 361.94, 567.82 364.33 C 565.55 366.72, 563.96 368.75, 561.32 372.73 C 558.68 376.72, 556.89 379.44, 554.60 384.23 C 552.31 389.03, 551.02 391.96, 549.87 396.71 C 548.72 401.47, 548.37 404.08, 548.85 407.99 C 549.33 411.90, 550.10 413.95, 552.27 416.25 C 554.45 418.54, 556.41 419.33, 559.72 419.45 C 563.02 419.56, 565.20 418.80, 568.82 416.83 C 572.44 414.86, 574.55 413.20, 577.81 409.59 C 581.07 405.99, 582.80 403.44, 585.14 398.79 C 587.47 394.14, 588.52 391.23, 589.47 386.34 C 590.43 381.46, 590.55 378.67, 589.91 374.35 C 589.28 370.03, 588.37 367.82, 586.30 364.73 C 584.24 361.65, 582.48 360.30, 579.60 358.93 C 576.73 357.56, 574.61 357.53, 571.93 357.88 C 569.24 358.23, 567.65 359.10, 566.18 360.68 C 564.72 362.25, 564.20 363.79, 564.59 365.75 C 564.99 367.72, 565.86 369.19, 568.15 370.51 C 570.44 371.82, 572.33 372.23, 576.04 372.32 C 579.75 372.41, 582.10 371.97, 586.70 370.96 C 591.30 369.95, 594.02 369.07, 599.04 367.26 C 604.05 365.45, 606.86 364.12, 611.79 361.91 C 616.71 359.71, 619.35 358.27, 623.65 356.25 C 627.96 354.24, 630.16 353.24, 633.32 351.85 C 636.48 350.45, 637.80 349.85, 639.46 349.29 C 641.12 348.73, 641.35 348.50, 641.63 349.06 C 641.91 349.62, 641.37 350.20, 640.88 352.10 C 640.38 354.00, 639.86 355.42, 639.15 358.54 C 638.45 361.66, 638.05 363.77, 637.34 367.69 C 636.63 371.62, 636.15 373.95, 635.59 378.16 C 635.03 382.36, 634.76 384.67, 634.54 388.70 C 634.31 392.73, 634.32 394.80, 634.48 398.32 C 634.64 401.84, 634.82 403.60, 635.33 406.30 C 635.83 408.99, 636.31 410.15, 637.00 411.81 C 637.69 413.47, 638.15 414.08, 638.78 414.60 C 639.42 415.13, 639.90 414.96, 640.19 414.44 C 640.48 413.92, 640.62 413.22, 640.25 411.99 C 639.88 410.75, 639.39 409.86, 638.33 408.28 C 637.27 406.69, 636.30 405.75, 634.96 404.05 C 633.62 402.34, 632.91 401.35, 631.62 399.75 C 630.33 398.16, 629.49 396.63, 628.49 396.06 C 627.50 395.50, 626.84 395.72, 626.66 396.91 C 626.48 398.10, 626.85 399.93, 627.58 401.99 C 628.32 404.05, 629.15 405.24, 630.34 407.22 C 631.53 409.20, 632.24 410.39, 633.53 411.91 C 634.83 413.42, 635.59 414.11, 636.80 414.81 C 638.00 415.50, 638.74 415.55, 639.56 415.38 C 640.38 415.21, 640.70 414.88, 640.89 413.96 C 641.08 413.03, 640.82 412.45, 640.51 410.76 C 640.20 409.08, 639.83 408.07, 639.34 405.53 C 638.84 403.00, 638.35 401.42, 638.05 398.08 C 637.74 394.75, 637.65 392.75, 637.82 388.86 C 637.99 384.97, 638.26 382.71, 638.91 378.64 C 639.55 374.57, 640.11 372.31, 641.06 368.49 C 642.00 364.68, 642.90 362.78, 643.64 359.57 C 644.39 356.37, 644.87 354.83, 644.78 352.47 C 644.69 350.11, 644.36 348.98, 643.19 347.77 C 642.01 346.56, 641.13 346.20, 638.89 346.42 C 636.65 346.64, 635.27 347.39, 631.99 348.86 C 628.70 350.34, 626.71 351.66, 622.46 353.80 C 618.21 355.94, 615.60 357.38, 610.73 359.56 C 605.87 361.73, 603.07 363.03, 598.14 364.68 C 593.21 366.33, 590.48 367.08, 586.09 367.80 C 581.70 368.52, 579.44 368.45, 576.20 368.27 C 572.96 368.08, 571.67 367.51, 569.90 366.87 C 568.13 366.22, 567.64 365.80, 567.34 365.05 C 567.04 364.30, 567.40 363.78, 568.40 363.12 C 569.40 362.46, 570.42 361.88, 572.34 361.74 C 574.27 361.59, 575.76 361.42, 578.03 362.39 C 580.29 363.36, 581.85 364.09, 583.67 366.57 C 585.48 369.05, 586.45 370.94, 587.08 374.79 C 587.71 378.64, 587.69 381.28, 586.81 385.83 C 585.93 390.38, 584.92 393.20, 582.68 397.54 C 580.44 401.89, 578.69 404.28, 575.60 407.55 C 572.51 410.83, 570.41 412.22, 567.24 413.91 C 564.08 415.60, 562.30 415.97, 559.77 415.99 C 557.25 416.02, 556.20 415.70, 554.61 414.03 C 553.03 412.35, 552.25 410.95, 551.85 407.62 C 551.45 404.30, 551.54 401.80, 552.62 397.38 C 553.69 392.96, 554.90 390.05, 557.23 385.53 C 559.56 381.02, 561.49 378.49, 564.26 374.82 C 567.04 371.15, 569.09 369.74, 571.12 367.20 C 573.15 364.65, 574.03 363.57, 574.41 362.09 C 574.80 360.61, 574.43 360.03, 573.04 359.80 C 571.65 359.57, 570.37 359.95, 567.48 360.92 C 564.58 361.89, 562.66 363.13, 558.57 364.65 C 554.47 366.17, 551.83 367.10, 546.98 368.53 C 542.14 369.95, 539.27 370.75, 534.34 371.77 C 529.40 372.78, 526.63 373.20, 522.28 373.60 C 517.94 374.00, 515.77 373.69, 512.60 373.78 C 509.43 373.87, 508.27 373.89, 506.45 374.06 C 504.64 374.23, 504.16 374.20, 503.52 374.63 C 502.88 375.07, 502.71 375.60, 503.25 376.23" style="stroke: black; fill: black;"/><path d="M 686.08,363.90 C 686.04 363.28, 685.83 362.81, 685.04 362.32 C 684.24 361.83, 683.58 361.43, 682.10 361.46 C 680.62 361.50, 679.56 361.55, 677.65 362.50 C 675.73 363.46, 674.47 364.06, 672.52 366.24 C 670.56 368.41, 669.55 370.03, 667.89 373.39 C 666.23 376.75, 665.34 378.92, 664.21 383.05 C 663.09 387.18, 662.56 389.79, 662.25 394.04 C 661.94 398.30, 661.90 400.76, 662.66 404.32 C 663.42 407.88, 664.14 409.77, 666.05 411.83 C 667.96 413.90, 669.54 414.64, 672.21 414.66 C 674.87 414.68, 676.63 414.07, 679.38 411.94 C 682.13 409.81, 683.45 407.92, 685.97 404.02 C 688.48 400.12, 689.79 397.41, 691.96 392.45 C 694.14 387.50, 695.23 384.29, 696.85 379.26 C 698.46 374.23, 699.34 371.14, 700.06 367.30 C 700.77 363.46, 700.75 361.51, 700.44 360.05 C 700.12 358.58, 699.15 358.65, 698.47 359.98 C 697.79 361.31, 697.22 363.10, 697.06 366.72 C 696.89 370.34, 697.11 373.38, 697.65 378.09 C 698.19 382.80, 698.66 385.83, 699.75 390.27 C 700.83 394.70, 701.36 397.09, 703.08 400.28 C 704.81 403.48, 705.95 404.94, 708.38 406.25 C 710.82 407.55, 712.52 407.77, 715.26 406.82 C 718.00 405.87, 719.46 404.53, 722.07 401.51 C 724.68 398.49, 725.95 396.11, 728.32 391.72 C 730.69 387.33, 731.92 384.04, 733.90 379.56 C 735.88 375.08, 737.13 372.29, 738.23 369.32 C 739.32 366.34, 739.29 365.04, 739.36 364.68 C 739.44 364.31, 738.73 365.08, 738.60 367.49 C 738.46 369.91, 738.48 372.46, 738.71 376.76 C 738.93 381.05, 739.00 384.32, 739.71 388.98 C 740.41 393.64, 740.87 396.31, 742.25 400.06 C 743.64 403.81, 744.43 405.63, 746.63 407.74 C 748.83 409.84, 750.44 410.54, 753.25 410.57 C 756.06 410.60, 757.80 409.96, 760.69 407.89 C 763.57 405.81, 764.97 403.89, 767.68 400.20 C 770.38 396.50, 771.80 393.87, 774.21 389.42 C 776.61 384.97, 777.95 381.88, 779.72 377.95 C 781.49 374.02, 782.37 371.85, 783.04 369.78 C 783.70 367.72, 783.20 367.10, 783.04 367.63 C 782.87 368.16, 782.24 369.47, 782.19 372.44 C 782.15 375.42, 782.37 378.15, 782.83 382.50 C 783.29 386.85, 783.61 389.84, 784.51 394.18 C 785.40 398.52, 785.83 400.93, 787.31 404.22 C 788.78 407.51, 789.71 409.07, 791.90 410.63 C 794.09 412.19, 795.64 412.58, 798.23 412.03 C 800.83 411.48, 802.32 410.47, 804.87 407.86 C 807.41 405.26, 808.58 403.10, 810.95 399.01 C 813.33 394.93, 814.55 392.10, 816.74 387.43 C 818.93 382.76, 820.05 379.82, 821.90 375.66 C 823.75 371.50, 824.93 369.21, 825.98 366.63 C 827.04 364.04, 826.96 362.96, 827.17 362.73 C 827.38 362.51, 826.93 363.31, 827.02 365.50 C 827.12 367.68, 827.31 369.70, 827.63 373.64 C 827.95 377.58, 828.19 380.55, 828.60 385.18 C 829.01 389.82, 829.21 392.73, 829.68 396.82 C 830.16 400.90, 830.11 403.08, 831.00 405.60 C 831.88 408.13, 832.77 409.11, 834.12 409.45 C 835.46 409.80, 836.54 409.33, 837.72 407.31 C 838.90 405.29, 839.21 403.24, 840.03 399.36 C 840.84 395.48, 841.07 392.59, 841.79 387.92 C 842.52 383.25, 842.86 380.33, 843.63 376.00 C 844.40 371.68, 844.95 369.44, 845.65 366.28 C 846.35 363.12, 846.60 361.89, 847.13 360.23 C 847.65 358.57, 847.67 358.29, 848.27 357.99 C 848.88 357.69, 849.09 358.15, 850.14 358.73 C 851.20 359.30, 851.84 360.06, 853.55 360.86 C 855.25 361.66, 856.42 362.21, 858.66 362.73 C 860.91 363.25, 862.28 363.48, 864.76 363.48 C 867.23 363.47, 868.64 363.29, 871.03 362.70 C 873.43 362.10, 874.82 361.61, 876.71 360.51 C 878.61 359.41, 879.69 358.32, 880.53 357.19 C 881.37 356.06, 881.24 354.95, 880.92 354.87 C 880.60 354.80, 879.73 355.01, 878.93 356.82 C 878.13 358.62, 877.70 360.28, 876.94 363.91 C 876.18 367.54, 875.71 370.27, 875.15 374.96 C 874.59 379.65, 874.21 382.61, 874.15 387.36 C 874.09 392.12, 874.13 394.71, 874.85 398.73 C 875.57 402.75, 876.03 404.80, 877.75 407.46 C 879.47 410.11, 880.86 411.17, 883.46 412.00 C 886.05 412.83, 887.83 412.86, 890.71 411.61 C 893.59 410.36, 895.09 408.87, 897.87 405.75 C 900.65 402.64, 902.08 400.36, 904.61 396.02 C 907.15 391.68, 908.45 388.76, 910.56 384.04 C 912.67 379.31, 913.85 376.28, 915.15 372.39 C 916.45 368.51, 916.96 366.45, 917.08 364.62 C 917.19 362.78, 916.39 362.37, 915.72 363.22 C 915.06 364.06, 914.21 365.58, 913.75 368.85 C 913.29 372.12, 913.26 375.00, 913.42 379.56 C 913.59 384.12, 913.78 387.16, 914.58 391.66 C 915.37 396.15, 915.80 398.59, 917.39 402.01 C 918.99 405.44, 920.02 407.07, 922.54 408.78 C 925.06 410.49, 926.86 410.99, 929.99 410.57 C 933.12 410.15, 934.89 409.10, 938.20 406.66 C 941.52 404.23, 943.26 402.32, 946.56 398.38 C 949.86 394.43, 951.62 391.72, 954.72 386.94 C 957.82 382.16, 959.36 379.12, 962.06 374.49 C 964.75 369.86, 966.06 367.33, 968.19 363.76 C 970.31 360.20, 971.45 358.69, 972.68 356.68 C 973.91 354.66, 973.95 353.96, 974.35 353.68 C 974.74 353.40, 974.46 353.83, 974.66 355.28 C 974.86 356.72, 974.75 358.10, 975.35 360.91 C 975.96 363.72, 976.73 365.62, 977.69 369.34 C 978.65 373.06, 979.28 375.39, 980.17 379.52 C 981.06 383.65, 981.57 386.05, 982.13 390.00 C 982.70 393.95, 982.94 396.02, 983.00 399.28 C 983.05 402.54, 982.87 404.02, 982.40 406.31 C 981.92 408.61, 981.56 409.50, 980.62 410.74 C 979.68 411.98, 979.00 412.27, 977.71 412.51 C 976.41 412.76, 975.57 412.53, 974.15 411.96 C 972.73 411.38, 971.85 410.82, 970.62 409.63 C 969.39 408.44, 968.69 407.67, 968.00 406.01 C 967.31 404.35, 966.98 403.35, 967.17 401.33 C 967.35 399.32, 967.70 398.24, 968.92 395.93 C 970.13 393.61, 970.97 392.23, 973.26 389.76 C 975.55 387.29, 977.13 385.89, 980.35 383.57 C 983.58 381.24, 985.62 380.03, 989.39 378.11 C 993.17 376.19, 995.37 375.25, 999.22 373.97 C 1003.06 372.69, 1005.19 372.16, 1008.64 371.72 C 1012.08 371.27, 1013.81 371.32, 1016.44 371.76 C 1019.07 372.20, 1020.16 372.54, 1021.78 373.90 C 1023.41 375.26, 1023.83 376.23, 1024.57 378.57 C 1025.32 380.91, 1025.51 382.47, 1025.51 385.61 C 1025.51 388.76, 1025.22 390.85, 1024.59 394.27 C 1023.95 397.69, 1023.14 399.78, 1022.34 402.71 C 1021.53 405.64, 1020.93 407.20, 1020.57 408.94 C 1020.21 410.68, 1020.33 411.41, 1020.54 411.39 C 1020.74 411.37, 1021.22 410.78, 1021.59 408.84 C 1021.97 406.89, 1022.01 405.04, 1022.40 401.65 C 1022.78 398.25, 1022.89 395.73, 1023.52 391.86 C 1024.15 388.00, 1024.62 385.63, 1025.56 382.33 C 1026.50 379.03, 1027.18 377.47, 1028.22 375.37 C 1029.26 373.26, 1029.59 372.55, 1030.76 371.82 C 1031.92 371.10, 1032.42 371.32, 1034.03 371.74 C 1035.65 372.17, 1036.52 372.98, 1038.84 373.96 C 1041.15 374.94, 1042.61 375.72, 1045.60 376.63 C 1048.59 377.53, 1050.39 378.08, 1053.80 378.47 C 1057.22 378.86, 1059.17 379.00, 1062.69 378.57 C 1066.20 378.15, 1068.13 377.70, 1071.39 376.33 C 1074.65 374.97, 1076.36 373.91, 1079.01 371.75 C 1081.66 369.59, 1083.01 368.19, 1084.65 365.54 C 1086.29 362.88, 1086.91 361.14, 1087.22 358.45 C 1087.53 355.77, 1087.29 354.13, 1086.20 352.12 C 1085.11 350.12, 1083.97 349.10, 1081.75 348.44 C 1079.54 347.78, 1077.78 347.68, 1075.12 348.84 C 1072.47 350.00, 1070.88 351.30, 1068.46 354.23 C 1066.05 357.17, 1064.79 359.30, 1063.06 363.53 C 1061.32 367.77, 1060.50 370.47, 1059.80 375.39 C 1059.10 380.32, 1058.96 383.27, 1059.57 388.18 C 1060.18 393.09, 1060.85 395.82, 1062.85 399.94 C 1064.84 404.06, 1066.31 406.10, 1069.55 408.76 C 1072.79 411.42, 1074.94 412.44, 1079.04 413.23 C 1083.14 414.03, 1085.57 413.93, 1090.04 412.75 C 1094.51 411.56, 1096.92 410.33, 1101.39 407.31 C 1105.87 404.28, 1108.22 402.10, 1112.42 397.63 C 1116.61 393.16, 1118.76 390.29, 1122.38 384.94 C 1126.00 379.59, 1127.72 376.37, 1130.53 370.88 C 1133.35 365.39, 1134.52 362.35, 1136.44 357.48 C 1138.35 352.62, 1139.09 350.24, 1140.11 346.55 C 1141.14 342.85, 1141.52 341.26, 1141.57 338.99 C 1141.61 336.72, 1141.11 335.85, 1140.35 335.20 C 1139.58 334.56, 1138.67 334.60, 1137.73 335.74 C 1136.78 336.88, 1135.92 338.00, 1135.63 340.90 C 1135.34 343.80, 1135.82 345.83, 1136.30 350.24 C 1136.77 354.66, 1137.11 357.43, 1138.00 362.98 C 1138.88 368.53, 1139.44 371.85, 1140.71 378.00 C 1141.98 384.14, 1142.77 387.63, 1144.33 393.68 C 1145.89 399.74, 1146.85 402.95, 1148.50 408.26 C 1150.16 413.58, 1151.08 416.24, 1152.62 420.27 C 1154.17 424.30, 1154.72 426.22, 1156.24 428.42 C 1157.75 430.61, 1159.12 431.37, 1160.20 431.26 C 1161.28 431.14, 1161.60 428.58, 1161.63 427.83 C 1161.66 427.08, 1160.63 427.03, 1160.34 427.51 C 1160.06 427.98, 1160.48 430.35, 1160.22 430.21 C 1159.96 430.07, 1160.05 429.00, 1159.04 426.80 C 1158.04 424.61, 1156.85 423.07, 1155.18 419.22 C 1153.51 415.37, 1152.45 412.77, 1150.70 407.55 C 1148.95 402.34, 1147.99 399.14, 1146.44 393.14 C 1144.89 387.14, 1144.11 383.66, 1142.96 377.55 C 1141.80 371.45, 1141.27 368.12, 1140.66 362.62 C 1140.05 357.11, 1139.92 354.33, 1139.91 350.04 C 1139.90 345.76, 1140.55 343.91, 1140.60 341.19 C 1140.64 338.48, 1140.40 337.58, 1140.13 336.47 C 1139.87 335.35, 1139.63 335.18, 1139.28 335.62 C 1138.94 336.06, 1138.81 336.62, 1138.40 338.65 C 1138.00 340.69, 1138.09 342.22, 1137.25 345.82 C 1136.42 349.41, 1135.93 351.83, 1134.21 356.64 C 1132.48 361.46, 1131.33 364.48, 1128.61 369.90 C 1125.89 375.32, 1124.18 378.50, 1120.61 383.74 C 1117.05 388.97, 1114.90 391.77, 1110.78 396.07 C 1106.66 400.37, 1104.30 402.43, 1100.01 405.23 C 1095.73 408.04, 1093.44 409.07, 1089.36 410.11 C 1085.27 411.15, 1083.19 411.14, 1079.59 410.43 C 1075.99 409.72, 1074.21 408.90, 1071.36 406.56 C 1068.51 404.22, 1067.15 402.48, 1065.34 398.73 C 1063.53 394.99, 1062.84 392.43, 1062.30 387.85 C 1061.77 383.27, 1061.90 380.43, 1062.66 375.83 C 1063.41 371.23, 1064.30 368.65, 1066.06 364.84 C 1067.83 361.04, 1069.28 359.23, 1071.47 356.80 C 1073.65 354.37, 1075.07 353.72, 1076.97 352.70 C 1078.87 351.68, 1079.72 351.53, 1080.96 351.71 C 1082.20 351.89, 1082.69 352.37, 1083.15 353.59 C 1083.60 354.81, 1083.67 355.88, 1083.25 357.82 C 1082.82 359.76, 1082.37 361.11, 1081.02 363.29 C 1079.66 365.47, 1078.70 366.81, 1076.48 368.72 C 1074.26 370.63, 1072.76 371.61, 1069.91 372.82 C 1067.07 374.02, 1065.37 374.42, 1062.26 374.73 C 1059.15 375.04, 1057.42 374.87, 1054.37 374.37 C 1051.33 373.86, 1049.81 373.17, 1047.03 372.20 C 1044.25 371.24, 1042.98 370.34, 1040.47 369.54 C 1037.96 368.74, 1036.73 368.25, 1034.49 368.19 C 1032.24 368.12, 1031.18 368.16, 1029.25 369.22 C 1027.33 370.28, 1026.33 371.08, 1024.86 373.49 C 1023.38 375.90, 1022.94 377.72, 1021.87 381.24 C 1020.81 384.77, 1020.35 387.14, 1019.52 391.12 C 1018.70 395.10, 1018.10 397.58, 1017.74 401.15 C 1017.38 404.71, 1017.22 406.72, 1017.72 408.95 C 1018.22 411.19, 1019.05 412.04, 1020.24 412.33 C 1021.43 412.63, 1022.40 412.09, 1023.67 410.42 C 1024.94 408.74, 1025.60 407.05, 1026.57 403.96 C 1027.54 400.87, 1027.94 398.63, 1028.53 394.95 C 1029.12 391.28, 1029.55 389.14, 1029.52 385.60 C 1029.49 382.05, 1029.48 380.12, 1028.38 377.23 C 1027.29 374.34, 1026.31 372.96, 1024.04 371.14 C 1021.78 369.32, 1020.23 368.67, 1017.05 368.13 C 1013.88 367.58, 1011.94 367.83, 1008.17 368.41 C 1004.40 368.98, 1002.25 369.62, 998.22 371.00 C 994.18 372.38, 991.94 373.34, 987.98 375.29 C 984.02 377.25, 981.90 378.43, 978.41 380.79 C 974.92 383.15, 973.20 384.49, 970.53 387.10 C 967.86 389.71, 966.59 391.07, 965.06 393.84 C 963.53 396.62, 963.11 398.20, 962.88 400.96 C 962.65 403.72, 962.98 405.25, 963.90 407.64 C 964.83 410.03, 965.71 411.27, 967.50 412.93 C 969.29 414.59, 970.64 415.35, 972.85 415.95 C 975.07 416.55, 976.50 416.55, 978.58 415.94 C 980.66 415.33, 981.75 414.64, 983.25 412.88 C 984.76 411.13, 985.44 409.89, 986.10 407.15 C 986.76 404.41, 986.69 402.71, 986.55 399.18 C 986.41 395.65, 986.02 393.59, 985.41 389.52 C 984.81 385.46, 984.29 383.07, 983.53 378.86 C 982.78 374.65, 982.33 372.31, 981.65 368.48 C 980.96 364.65, 980.95 362.61, 980.11 359.70 C 979.27 356.80, 978.66 355.47, 977.43 353.95 C 976.20 352.43, 975.47 351.95, 973.98 352.11 C 972.49 352.27, 971.64 352.71, 969.98 354.74 C 968.31 356.78, 967.67 358.61, 965.64 362.30 C 963.61 366.00, 962.44 368.57, 959.82 373.21 C 957.20 377.85, 955.64 380.86, 952.55 385.52 C 949.47 390.18, 947.64 392.81, 944.38 396.51 C 941.13 400.21, 939.26 401.89, 936.28 404.01 C 933.30 406.12, 931.83 406.67, 929.46 407.08 C 927.09 407.50, 926.22 407.36, 924.42 406.07 C 922.61 404.78, 921.74 403.63, 920.44 400.64 C 919.14 397.65, 918.53 395.35, 917.92 391.12 C 917.30 386.89, 917.36 383.89, 917.36 379.49 C 917.36 375.09, 917.97 372.37, 917.92 369.12 C 917.87 365.87, 917.77 364.29, 917.13 363.23 C 916.48 362.17, 915.74 362.21, 914.70 363.82 C 913.67 365.44, 913.32 367.48, 911.96 371.29 C 910.59 375.09, 909.88 378.23, 907.89 382.87 C 905.90 387.51, 904.53 390.36, 902.02 394.47 C 899.51 398.58, 897.92 400.70, 895.34 403.43 C 892.75 406.16, 891.28 407.01, 889.09 408.14 C 886.90 409.27, 886.05 409.57, 884.38 409.06 C 882.72 408.55, 882.04 407.77, 880.76 405.59 C 879.48 403.41, 878.68 401.78, 877.98 398.15 C 877.28 394.52, 877.12 391.96, 877.25 387.42 C 877.38 382.89, 877.83 379.98, 878.62 375.47 C 879.42 370.96, 880.38 368.42, 881.23 364.87 C 882.07 361.32, 882.75 359.84, 882.85 357.70 C 882.94 355.57, 882.59 354.90, 881.71 354.19 C 880.84 353.47, 879.92 353.72, 878.47 354.13 C 877.02 354.55, 876.18 355.46, 874.47 356.27 C 872.75 357.08, 871.84 357.71, 869.91 358.20 C 867.99 358.68, 866.85 358.78, 864.84 358.69 C 862.83 358.61, 861.79 358.27, 859.87 357.78 C 857.96 357.28, 857.04 356.72, 855.25 356.23 C 853.47 355.75, 852.55 355.39, 850.93 355.34 C 849.32 355.29, 848.53 355.25, 847.20 355.98 C 845.87 356.71, 845.28 357.09, 844.27 358.99 C 843.26 360.90, 842.91 362.19, 842.14 365.48 C 841.38 368.77, 841.20 371.07, 840.44 375.44 C 839.67 379.81, 839.21 382.71, 838.33 387.33 C 837.45 391.95, 836.81 394.78, 836.05 398.54 C 835.30 402.30, 834.84 404.17, 834.55 406.14 C 834.26 408.11, 834.61 408.66, 834.60 408.39 C 834.60 408.11, 834.82 407.16, 834.54 404.76 C 834.25 402.37, 833.65 400.38, 833.18 396.40 C 832.70 392.43, 832.48 389.52, 832.16 384.90 C 831.84 380.28, 831.92 377.34, 831.56 373.31 C 831.20 369.28, 831.27 367.11, 830.35 364.76 C 829.44 362.40, 828.49 361.46, 826.97 361.51 C 825.46 361.56, 824.38 362.42, 822.79 365.00 C 821.21 367.59, 820.80 370.21, 819.06 374.44 C 817.31 378.68, 816.25 381.59, 814.07 386.17 C 811.89 390.75, 810.54 393.51, 808.16 397.34 C 805.78 401.17, 804.33 402.98, 802.19 405.32 C 800.04 407.66, 799.11 408.44, 797.44 409.02 C 795.76 409.60, 795.19 409.44, 793.81 408.20 C 792.44 406.96, 791.74 405.77, 790.58 402.83 C 789.42 399.89, 788.76 397.64, 788.00 393.50 C 787.24 389.36, 787.13 386.41, 786.78 382.13 C 786.44 377.85, 786.83 375.13, 786.27 372.09 C 785.70 369.04, 785.13 367.65, 783.95 366.91 C 782.76 366.16, 781.81 366.43, 780.35 368.36 C 778.89 370.29, 778.42 372.64, 776.65 376.56 C 774.88 380.48, 773.81 383.62, 771.49 387.96 C 769.17 392.30, 767.65 394.83, 765.05 398.24 C 762.46 401.65, 760.89 403.15, 758.53 404.99 C 756.16 406.83, 755.12 407.36, 753.22 407.43 C 751.33 407.50, 750.60 407.06, 749.04 405.35 C 747.48 403.65, 746.57 402.30, 745.41 398.93 C 744.25 395.55, 743.81 392.96, 743.23 388.49 C 742.65 384.01, 742.77 380.82, 742.52 376.55 C 742.27 372.27, 742.68 369.68, 741.98 367.11 C 741.28 364.54, 740.42 363.56, 739.02 363.71 C 737.63 363.85, 736.62 364.92, 735.00 367.84 C 733.39 370.75, 732.85 373.81, 730.95 378.28 C 729.06 382.76, 727.83 386.01, 725.52 390.20 C 723.22 394.39, 721.73 396.55, 719.43 399.25 C 717.14 401.95, 715.96 402.85, 714.05 403.72 C 712.14 404.60, 711.48 404.62, 709.89 403.62 C 708.30 402.62, 707.48 401.54, 706.09 398.72 C 704.71 395.91, 703.88 393.72, 702.96 389.52 C 702.05 385.32, 701.85 382.29, 701.51 377.73 C 701.16 373.16, 701.44 370.23, 701.24 366.70 C 701.04 363.17, 701.05 361.47, 700.50 360.08 C 699.95 358.69, 699.26 358.44, 698.51 359.75 C 697.76 361.05, 697.61 362.87, 696.75 366.61 C 695.88 370.35, 695.65 373.50, 694.18 378.43 C 692.70 383.37, 691.56 386.54, 689.39 391.30 C 687.21 396.06, 685.75 398.68, 683.29 402.23 C 680.82 405.77, 679.28 407.17, 677.05 409.03 C 674.82 410.89, 673.82 411.41, 672.13 411.54 C 670.44 411.67, 669.79 411.26, 668.60 409.67 C 667.42 408.09, 666.78 406.67, 666.19 403.60 C 665.60 400.52, 665.36 398.20, 665.65 394.29 C 665.93 390.38, 666.45 387.83, 667.62 384.04 C 668.80 380.25, 669.80 378.22, 671.52 375.35 C 673.24 372.48, 674.54 371.40, 676.21 369.69 C 677.89 367.98, 678.64 367.53, 679.91 366.81 C 681.18 366.10, 681.73 366.29, 682.56 366.10 C 683.40 365.90, 683.55 365.98, 684.09 365.85 C 684.62 365.72, 684.84 365.84, 685.24 365.45 C 685.64 365.06, 686.12 364.53, 686.08 363.90" style="stroke: black; fill: black;"/><path d="M 1122.74,399.80 C 1123.13 400.32, 1123.30 400.69, 1124.85 400.98 C 1126.39 401.28, 1127.39 401.80, 1130.45 401.28 C 1133.51 400.75, 1135.59 399.99, 1140.15 398.35 C 1144.72 396.71, 1147.75 395.57, 1153.29 393.08 C 1158.83 390.59, 1162.14 388.96, 1167.86 385.90 C 1173.58 382.83, 1176.74 380.93, 1181.89 377.75 C 1187.05 374.57, 1189.65 372.70, 1193.64 369.99 C 1197.62 367.28, 1199.43 366.16, 1201.82 364.19 C 1204.22 362.22, 1204.74 361.41, 1205.61 360.13 C 1206.49 358.84, 1206.28 358.39, 1206.22 357.76 C 1206.16 357.14, 1205.58 357.05, 1205.33 356.99 C 1205.08 356.93, 1205.00 357.35, 1204.97 357.46 C 1204.95 357.57, 1205.44 357.35, 1205.20 357.54 C 1204.96 357.73, 1204.87 357.58, 1203.77 358.40 C 1202.68 359.23, 1202.05 359.74, 1199.73 361.64 C 1197.41 363.55, 1195.97 365.08, 1192.16 367.93 C 1188.36 370.77, 1185.78 372.66, 1180.72 375.86 C 1175.65 379.07, 1172.50 380.96, 1166.82 383.93 C 1161.13 386.91, 1157.82 388.49, 1152.29 390.74 C 1146.76 392.99, 1143.70 394.02, 1139.17 395.20 C 1134.65 396.38, 1132.54 396.15, 1129.67 396.63 C 1126.79 397.11, 1126.14 397.26, 1124.79 397.61 C 1123.43 397.95, 1123.31 397.92, 1122.90 398.36 C 1122.49 398.80, 1122.35 399.27, 1122.74 399.80" style="stroke: black; fill: black;"/></svg>