<?xml version="1.0" encoding="utf-8"?>
<!-- Generator: Adobe Illustrator 19.0.0, SVG Export Plug-In . SVG Version: 6.00 Build 0)  -->
<svg version="1.0" id="Layer_1" xmlns="http://www.w3.org/2000/svg" xmlns:xlink="http://www.w3.org/1999/xlink" x="0px" y="0px"
	 viewBox="0 0 453.5 269.3" style="enable-background:new 0 0 453.5 269.3;" xml:space="preserve">
<style type="text/css">
	.st0{fill:#030D05;}
	.st1{fill:#081D0D;}
	.st2{fill:#07140A;}
	.st3{fill:#050D06;}
	.st4{fill:#051409;}
	.st5{fill:#01480E;}
	.st6{fill:#0A100C;}
	.st7{fill:#131313;}
	.st8{fill:#063710;}
	.st9{fill:#006B15;}
	.st10{fill:#0C0C0C;}
	.st11{fill:#017918;}
	.st12{fill:#070707;}
	.st13{fill:#112A16;}
	.st14{fill:#041407;}
	.st15{fill:#13391B;}
	.st16{fill:#174A21;}
	.st17{fill:#081B0C;}
	.st18{fill:#101211;}
	.st19{fill:#021806;}
	.st20{fill:#213D27;}
	.st21{fill:#1F2F22;}
	.st22{fill:#0C1D0F;}
	.st23{fill:#0C4A19;}
	.st24{fill:#2C2C2C;}
	.st25{fill:#172319;}
	.st26{fill:#2F3B32;}
	.st27{fill:#27402C;}
	.st28{fill:#314C36;}
	.st29{fill:#828282;}
	.st30{fill:#202020;}
	.st31{fill:#344B39;}
	.st32{fill:#262626;}
	.st33{fill:#131814;}
	.st34{fill:#28472E;}
	.st35{fill:#146623;}
	.st36{fill:#232323;}
	.st37{fill:#4F5550;}
	.st38{fill:#3E443F;}
	.st39{fill:#6C6C6C;}
	.st40{fill:#59635D;}
	.st41{fill:#006713;}
	.st42{fill:#474747;}
	.st43{fill:#C1C1C1;}
	.st44{fill:#00D62D;}
	.st45{fill:#00CD2B;}
	.st46{fill:#00CF2C;}
	.st47{fill:#088F24;}
	.st48{fill:#004E0F;}
	.st49{fill:#C708B4;}
	.st50{fill:#8C3088;}
	.st51{fill:#007215;}
	.st52{fill:#005510;}
	.st53{fill:#006B14;}
	.st54{fill:#01B125;}
	.st55{fill:#00A922;}
	.st56{fill:#01A622;}
	.st57{fill:#017417;}
	.st58{fill:#C707B4;}
	.st59{fill:#77136E;}
	.st60{fill:#98AF9C;}
	.st61{fill:#002C09;}
	.st62{fill:#00C629;}
	.st63{fill:#00A722;}
	.st64{fill:#01A221;}
	.st65{fill:#C20DB0;}
	.st66{fill:#B90CA8;}
	.st67{fill:#127B27;}
	.st68{fill:#00DA2E;}
	.st69{fill:#01831A;}
	.st70{fill:#01951E;}
	.st71{fill:#01B726;}
	.st72{fill:#D600C0;}
	.st73{fill:#6A1964;}
	.st74{fill:#006E16;}
	.st75{fill:#87197E;}
	.st76{fill:#035813;}
	.st77{fill:#01BE28;}
	.st78{fill:#00B125;}
	.st79{fill:#007A1A;}
	.st80{fill:#CE05B9;}
	.st81{fill:#734475;}
	.st82{fill:#01B626;}
	.st83{fill:#D303BD;}
	.st84{fill:#07A428;}
	.st85{fill:#01AC23;}
	.st86{fill:#017B18;}
	.st87{fill:#019E20;}
	.st88{fill:#CD07B9;}
	.st89{fill:#019A20;}
	.st90{fill:#6B6B6B;}
	.st91{fill:#120F13;}
	.st92{fill:#CA08B6;}
	.st93{fill:#001003;}
	.st94{fill:#0C8925;}
	.st95{fill:#05190A;}
	.st96{fill:#00A421;}
	.st97{fill:#0E1210;}
	.st98{fill:#0A0A0B;}
	.st99{fill:#002607;}
	.st100{fill:#005311;}
	.st101{fill:#007B1A;}
	.st102{fill:#0D070D;}
	.st103{fill:#120C12;}
	.st104{fill:#0E1A12;}
	.st105{fill:#003A0C;}
	.st106{fill:#9B0C8D;}
	.st107{fill:#D303BE;}
	.st108{fill:#A60E98;}
	.st109{fill:#D002BA;}
	.st110{fill:#930986;}
	.st111{fill:#6B0360;}
	.st112{fill:#AE029D;}
	.st113{fill:#CF00B9;}
	.st114{fill:#CD02B8;}
	.st115{fill:#CD04B9;}
	.st116{fill:#CF02B9;}
</style>
<g>
	<path class="st0" d="M122.4,184.7c-6-2-12-4.6-18.1-6c-6.5-1.5-13.3-2.4-20-3c-9.4-0.8-18.8-0.3-28.1-1.7
		c-4.9-0.7-9.5-4.1-14.2-6.3c-3.7-2.4-7.2-2.8-10,1.3c-1.2,1.9-2.4,3.7-3.6,5.6c-0.6-0.4-1.1-0.8-1.7-1.2
		c-3.2-16-9.1-30.4-24.6-40.1c10.2-1,17.3,2.9,24.2,7.3c6.6,4.2,13.3,7.9,21.8,6.1c0.5,3,0.3,4.9-1.6,6.9c-2.2,2.3-1.9,5.2,0.8,7.4
		c3.9,3,7.9,6,13.1,5.8c8.8-0.3,17.8,0.1,26.3-1.7c12.5-2.5,24,0.2,35.7,3.6c7.7,2.2,15.7,3.6,23.6,5.3c1.4-0.5,1.6,0.3,1.6,1.4
		c-2.8,2.4-6.5,0.9-9.6,1.9c-7.7,0.3-14.7-2.6-21.8-5c-2.7-0.9-5.7-2.7-7.7,1.5c2.9,4.8,8.9,3.9,12.6,6.9c0.4,0.3,0.8,0.7,1.2,1.1
		c0.3,0.4,0.6,0.9,0.7,1.4C122.9,183.8,122.7,184.3,122.4,184.7z"/>
	<path class="st0" d="M129.2,83.4c-5,3.2-11.7,3.1-15.8,8.2c-3.3,4-6.7,7.9-10.5,12.4c0-3.4,0-6.4,0-9.2c-1.6,1.3-3.3,2.8-5,4.3
		c-0.4-0.2-0.7-0.4-1.1-0.6c1.6-3.4,3.2-6.9,4.9-10.3c2-3.8,4.9-7.3,5.9-11.3c1.5-5.4,1,3.6,1.9-1.5c10.3-10.3,21-22.3,33-32.7
		c17.2-14.9,36.5-26.5,58.7-32.5c7.4-2,14.9-4.8,22.4-5.1c12.6-0.5,25.3-2.3,37.9,1.5c-0.5,3-2.5,2.8-4.7,3.1
		c-6.5,0.9-13,1.5-19.3,3.2c-8.1,2.2-14.9,6.6-18,15c-1.7,0.1-1.7-1.1-1.8-2.2c0.2-2.7,3-4.4,2.8-7.6c-6-2.2-10.5,4.3-16.6,3.4
		c0.3-4.9,4.6-4.9,7.3-6.6c2.7-1.6,7-0.5,8.6-6.1c-47.1,10-81.1,37.4-108.9,74c-2.3,3.1-2,7.3-3.5,8.9c4-7.3,11.7-10.6,21.5-9.8
		c0.3,0.3,0.4,0.6,0.4,0.9C129.4,83.3,129.3,83.4,129.2,83.4z"/>
	<path class="st1" d="M129.2,83.4c0-0.4,0-0.7,0-1.1c-0.1-2.5,1.8-1.3,2.9-1.6c0.8,0.2,1.8-0.5,2.6,0.6c-0.7-1.1-1.7-0.4-2.4-0.6
		c-4.1-0.4-7.7,2.7-12,1.9c-0.1-3.8,3-3.2,5-4.1c-1.5,0-3.1,0.4-3.1-1.9c1-1.8,2.6-2.2,4.4-2.4c1.2-0.1,2.4-0.1,3.6,0
		c0.9,0.1,1.7,0.3,2.6,0.5c4,2.2,8.9,1.9,12.9,4.2c2.9,2.5,3,4.6-0.9,6.2c-2.3,0.9-4.3,2.3-5.6,4.5c-2.6,4-4.1,8.3-4.5,13.1
		c-0.5,2.2-0.9,4.4-0.2,7.2c6.6-8,15.5-9.8,25-9.7c2.6,0,5.3,0.3,7.9-0.4c0.5-0.3,1-0.5,1.5-0.7c5.1-3.2,9.2-0.6,13.2,2.3
		c3,4.3,4.2,8.7,0.5,13.2c-0.4,0.4-0.8,0.8-1.3,1.1c-0.2,0.2-0.4,0.3-0.7,0.5c-5.2,2.8-5.2,2.8-14.7-0.4c-1.5,0.6-1.4,2.1-1.7,3.3
		c-0.3,1.1-0.6,2.2-0.4,4.2c3.3-2.2,6.6-3.8,10.2-4.3c1.7-0.2,3.9-1,3.6,2.1c-0.8,1.1-2.6,0.9-3,2.4c-0.3,0.2-0.5,0.6-0.9,0.7
		c-5.2,1.1-9.4,3.5-11.4,9c-2.9-4.4-4.1-8-3.4-14.2c0.6-4.9,2.4-9.7,3.8-15.1c-5.9,0.4-12-0.5-18.2,1.7c-6.5,2.4-8.5,8.3-12,13.5
		c-1-6.4-2.7-12.5-1.4-19.1c1.2-6.6,4.1-12.2,9.3-17.9C135.8,82.9,132.5,83.1,129.2,83.4z"/>
	<path class="st0" d="M218.7,30.3c0.8,0.3,1.8,1.1,2.4,0.8c11.9-4.6,24.1-5.1,36.6-3.5c3.3,0.4,6.8,0.7,10.1,0.3
		c6.2-0.7,11.1,2.4,17,4.6c-5.9,1.7-11,3.2-16.2,4.7c-0.5,0.3-1.4,0.3-1.4-0.1c-0.2-5.9-4.5-5.4-8.3-5.2c-11,0.4-22.1-1.3-32.9,1.4
		c-2.8,0.7-6.1,0.7-7.2,4.3c-4.1,7.7-1.5,16.2-3,24.3c-1.4,7.2-1.3,14.5-0.5,21.7c-0.4,4.3,0.4,8.5,2.1,12.4c1.1,2.6,1,4.7-2,5.9
		c-0.9,0.2-1.6-0.2-2.3-0.7c-0.7-0.5-1.3-1.2-1.8-1.9c-5.7-10.5-4.7-21.9-4.1-33.2c0.5-8.8,1.7-17.6,3.1-26.3
		c0.7-4.3,1.8-8.1,6.6-9.5C217.6,30.1,218.1,30.1,218.7,30.3z"/>
	<path class="st2" d="M311.7,147c2-1.3,4.1-2.6,6-4c9.8-7,20.1-13.6,29.3-21.3c5.3-4.5,8.9-10.9,13.2-16.5c3.5-3.9,3.6-0.1,4.6,2
		c0.4,0.6,0.7,1.5,1.4,1.2c0.9-0.3,0.3-1.2,0.1-1.8c-2.6-4.4-2.5-4.8,1-5c0.2-0.2,0.3-0.2,0.5,0c1.8-0.5,2.5,0.9,3.4,1.9
		c2.9,8.6,0.2,12-8.7,10.6c-2.1-0.3-3.1,0.6-4.2,2c-3,3.6-6.5,6.8-9.8,10.1c-2.6,1.8-5,3.9-7.5,5.8c-1.3,1-3.3,1.9-1.7,3.9
		c1.5,1.9,3,0.2,4.3-0.7c0.8-0.5,1.5-1.1,2.3-1.5c2.5-0.8,4.9-2.2,7.5,0c-0.3,2.8-3.2,2-4.5,3.4l0,0c-0.7,0.5-1.8,0.3-2.3,1.2l0.1,0
		c-0.5,0.2-0.9,0.7-1.4,0.9c-8.6,6.9-17.3,13.7-25.9,20.7c-2.8,2.3-5.2,5.3-7.7,8c-0.5-0.2-0.8-0.6-0.9-1.1c-0.4-1,2-2.7-0.9-3
		c-1.3-2.9,0.4-5,2.6-6c6.3-2.7,9.7-8.4,15.1-12.2c-2.3-3.7-4.3-1.7-6.4-0.7c-4.4,2.4-7.9,6.4-13.1,7.5c-0.3-0.1-0.5-0.1-0.8-0.2
		c-0.2-0.2-0.4-0.3-0.7-0.5C306.8,148.3,310.2,148.7,311.7,147z"/>
	<path class="st3" d="M218.9,230.7c-5.8-4.3-11.6-8.6-17.3-13.1c-2.2-1.8-4.3-1.4-6.5-0.3c-1.2,0.5-1.4-0.2-1.3-1.1
		c0.9-0.6,1.8-1.3,2.7-1.9c-11.5-12.5-25.9-19.7-42.3-23.5c0-1.5,1.2-1.7,2.2-2c6.9-0.4,12.9,2.2,18.8,5.3c3.8,2,7.6,4.2,11.3,6.4
		c1.4,0.8,2.6,2.4,4.7,0.6c1.4-1.2,3.3,0.5,4.3,1.8c4,5.4,8.6,6,14,2.1c0.8-0.3,1.6-0.4,2.4-0.5c0.9-0.1,1.7-0.1,2.6-0.1
		c3.7-0.2,6.9,0.9,9.1,4.1c1.4,2.1,2.3,4.4,3.2,6.8c0.3,0.8,0.5,1.6,0.7,2.4c0.1,0.8,0,1.7-0.3,2.4c-0.9,2.1-2.4,3.8-5.1,5
		c10,4.5,20.2,5.5,30.6,5.4c0.9,0.1,1.7,0.3,2.5,0.7c0.8,0.6,1.3,1.2,0.6,2.2c-5.3,2.1-10.7,1.6-16,0.7c-3.4-0.6-6.7-0.7-10,0.1
		c-3.2-0.1-6.1-0.8-8.4-3.2C220.9,228.1,219.6,231.9,218.9,230.7z"/>
	<path class="st2" d="M256,233c-0.4-0.4-0.8-0.7-1.2-1.1c-0.3-0.5-0.2-1,0.2-1.5c0.6-0.4,1.3-0.8,2.1-0.9
		c17-2.5,26.2-14.2,32.9-28.4c2.3-4.9,4.7-9.8,7-14.7c4.8-4.8,6.3-11.7,10.4-16.9c1.1-1.2,2-2.7,4.1-2.1l0.3,0.3
		c-5.5,10.3-11.1,20.5-17,31.4c3.3,1.4,6,2.5,8.7,3.6c0.3,0.5,0.3,0.9-0.1,1.3c-2.7-0.8-5.3-1.6-8.4-2.6
		c-4.1,6.1-8.3,12.4-12.2,18.3c7.6,5.3,15.2,10.9,23.1,16c2.4,1.5,5.8,1.2,8.5,2.4c2.3,1,4.2,3,6.3,4.5c-0.4,0.6-0.7,1.1-1.1,1.7
		c-3.1-1.8-6.1-3.6-9.7-5.6c0.2,3.1,0.4,5.5,0.6,8c-0.5,0.2-1.1,0.3-1.6,0.5c-0.6-1.3-1.1-2.7-1.8-3.8c-0.8-1.3-1.8-2.9-3-3.4
		c-0.6-0.2-2.3,1.5-3.1,2.6c-1,1.3-1.5,2.9-2.3,4.5c-2.9-4-2.9-4,4.2-10.4c-7.3-5.1-14.5-10.1-21.3-14.8c-5.2,3.4-9.7,6.2-14.2,9.1
		C263.6,231.7,260.3,234.9,256,233z"/>
	<path class="st4" d="M261.9,140.1c-0.5,1.5-0.9,3.1-1.4,4.7c1.9,1.4,3.8,2.9,5.8,4.4c0.4,1-0.2,1.5-1,1.9c-1.7,0.5-3.3-0.1-4.9-0.7
		c-3.6-1.2-6.9-4.2-10.9-0.7c-1,0.8-2.4-0.4-3.6-1.1c2.1,2.3,4.9,1.5,7.5,1.6c7.9,0.4,12,6.5,9.5,13.9c-4.1,6-10.2,6.5-18,1.5
		c-0.8-1.2-0.6-2.9-1.8-4c-0.3-0.7-0.3-1.5-0.2-2.3c2.5-4.8,1.2-8-3.7-10.2c-3.2-1.4-4.8-4.5-6.7-7.3c-1-1.6-2.2-3.2-1.9-5.2
		c4.3-2.6,6.4,1.5,8.9,3.3c3.4,2.4,6.7,4.1,10.9,3.3c1.3-5.5,1.8-5.9,7-3.8C259,140,260.5,139.4,261.9,140.1z"/>
	<path class="st5" d="M217.6,37.2c-0.2-1.8,0.2-3,2.3-3.7c8.9-3.3,18.1-3.6,27.4-3c4.4,0.3,8.8-0.3,13.2-0.1
		c2.9,0.1,5.7,0.8,8.5,1.2c0.2,2.4-3.8,3.7-0.5,5.6c-1.2,0.8-2.3,1.6-3.5,2.4c-1.1-0.1-1.7,0.8-2.4,1.3c-0.5,0.1-1,0.1-1.4-0.2
		c-0.7-0.7-1.4-1.5-0.6-2.6c0.6-0.4,1.1-0.8,1.8-1.2c-1.1,0.5-1.8,1.5-2.9,1.9c-9.1-2.9-17.7-0.2-26.4,1.9c-2.2,0.5-4.3,1.3-6.6,1.4
		c-1.2,0.1-2.4-0.2-2.6-1.6c-0.2-1.4,0.8-2,1.9-2.5C222.9,39.5,220.1,39.8,217.6,37.2z"/>
	<path class="st6" d="M185.8,159.4c3-6,9-8.1,14.4-10.7c4-1.9,8.2-3.7,12.4-5.1c2.6-0.9,5.4-1,8.7-1.5c-1.8-2.1-3.4-4-5.1-6
		c-0.6-2-4.3-2.1-3.2-5.2c5.5-0.2,8.4,3.2,11,7.4c3.4,5.5,5.9,11.3,7.3,17.6c0.3,1.2,0.4,2.2-0.8,2.9c-4,1.9-8.1,0.7-12.2,0.8
		c-0.8-0.6-1.5-1.3-2.1-2.1c-0.6-1.4,0.3-2.2,1.2-3.1c0.5-0.4,1-0.9,1.5-1.4c0.4-0.5,0.8-1.1,1.2-1.6c0.4-0.5,0.7-1,1-1.5
		c0.1-0.3,0.3-0.7,0.4-1.1c0.1-0.6-0.1-1.1-0.5-1.5c-0.4-0.3-0.7-0.5-1.1-0.7c-7.4-2.3-12.2,3.8-18.9,4.8c1.8,6.1,2.9,11.4-2.5,15.4
		c-0.8,0.4-1.6,0.6-2.4,0.6c-4.1,0.2-7.5-1.2-9.7-4.8C185.6,161.7,185.3,160.6,185.8,159.4z"/>
	<path class="st7" d="M303.5,203.9c0-0.4,0.1-0.9,0.1-1.3c10.8,1.2,21.2,4.4,31.5,7.8c2.9,0.9,5.2,0.6,7.7-1.5
		c1.9-1.6,4.6-2.2,6.8-3.5c1.7-1,3.3-2.2,5-3.4c3.3-2.5,4.9-1.9,7,3.2c-3-1.3-5.7-2.3-7.2,1.5c-0.2,0.4-2.1,0-3.2,0.3
		c-2.5,0.8-5,1.7-8.6,3c2,1.5,2.8,2.1,3.7,2.7c3.5-5.4,5.3-5.3,8.3,1c-1.2-0.5-2.4-1.1-3.9-1.8c-0.3,1.1-0.6,2.2-1,3.8
		c-2.5-0.5-5-1-8.1-1.6c1.2,2.4,2.7,4.5,3.4,6.9c0.6,2.2,0.3,4.6,0.5,7.3c-1.8,0.1-3.9,0.2-4.2-3.3c-0.3-3.9-1-7.9-1.5-11.2
		c-6.8-2.1-12.7-4.2-18.8-5.9c-3.8-1-7.7-1.3-11.5-2.1C307.4,205.3,305.5,204.5,303.5,203.9z"/>
	<path class="st2" d="M392.7,137c-3.3-1.2-7-1.8-9.7-3.7c-7-5-14.1-3-21.4-1.5c-0.7,0.2-1.4,0.4-2.1,0.6c-1.1,0.6-2.1,0.7-2.8-0.6
		c1.5-3.1,4.4-3.2,7.2-3.6c0.2,0,0.4,0.2,0.5,0.1c0.5-0.5-0.2-0.4-0.3-0.7c-0.7-1.1-1.5-2-2.3-3c-2.2-3.3-2.3-6.5,0.9-9
		c2.8-2.2,10.9-1.6,13.2,0.7c1.1,1.1,1.8,2.4,2.3,3.9c0.5,1.7,0.1,3.4-0.4,5.1c-0.1,1-0.3,1.9,1,2.3c4,1.2,7.4,3.8,11.3,5.3
		c1.7,0.9,3.7,1.4,4.6,3.4C394.2,137,393.7,137.5,392.7,137z"/>
	<path class="st8" d="M264.9,150.5c0.4-0.4,0.9-0.9,1.3-1.3c6,1.5,12,2.7,17.8,4.7c4.3,1.5,8,0.9,12-0.8c5.2-2.2,10.4-4.1,15.7-6.2
		c-1.6,1.5-3.1,3-4.7,4.6c-0.3,0.3-0.6,0.4-0.7,0.5c0.1,0,0.4-0.2,0.7-0.5c0.4,0,0.9,0.1,1.3,0.1c1.3,4.1-0.7,6.6-6.6,8.3
		c-8.9,1-17.3-2.3-26-3C271.5,156.6,266.8,155.6,264.9,150.5z"/>
	<path class="st9" d="M261.9,140.1c-1.2,0.8-2.4,1.6-3.9,2.5c-1.2-1.5-2.2-2.8-3.4-4.3c-2.5,1.5-4.5,2.9-0.7,6.2
		c-6.1,0.4-11,1-15.2-3.6c-1.8-2-5.1-2.7-7.7-4c-1.7,0-2.7-0.7-2.1-2.6c2.6-1.8,5.4-0.4,8.1-0.4c6.5,0,13.2,2.4,19.6-1
		c0.5-0.1,1-0.1,1.5,0.1c1.1,0.6,1.7,1.7,2.4,2.7c0.3,0.3,0.5,0.7,0.7,1.1c0.4,0.5,0.6,1.1,1.2,1.5
		C262.2,138.8,262.1,139.5,261.9,140.1z"/>
	<path class="st10" d="M274.3,262.7c-0.7,0.2-1.8,0.7-2.2,0.4c-1-0.9-1.7-2.1-2.8-3.6c-1.4,2-2.5,3.5-3.5,5
		c-2.6,1.4-2.6-1.1-3.2-2.3c-1.1-2.1-2.4-3.7-5.1-3.1c-1.9,1.6-0.7,4.5-2.7,5.9c-3.2,0.6-3.9-1.7-4.3-4c-0.5-2.9,1-5.7,3.5-6.5
		c6.9-2,5-6.1,3.3-10.5c-1.2-3-2.1-6.1-1.6-9.4c1.4-1.4,2.6-2,2.8,0.8c1.5,5.2,2.9,10.4,4.7,15.5c0.5,1.4,2.3,3,3.8,3.4
		c3.3,0.9,5.8,2.4,7.4,5.4C274.9,260.8,274.8,261.8,274.3,262.7z"/>
	<path class="st11" d="M176.8,121.1c-0.4-0.4-1-1.2-1.2-1.1c-4.4,1.7-8.8,3.5-13.8,5.4c0.7-4,1.4-8.1,2.3-13
		c5.7,3.5,10.4,7.3,16.2,3c4.1-0.2,8.4-0.8,10.3,4.2c-2.3,2.2-4.6-1.5-6.9,0.1c-0.5,0.6-1.4,0.6-2,0.9c1-0.3,2-0.9,2.9-1.3
		c1.8,0.6,4.1,0.4,5.1,2.9c-2.2,2.5-4.1,1-6.1-0.3c-2.3,0.2-4.5,0.3-6.8,0.5C176.3,122,176.3,121.6,176.8,121.1z"/>
	<path class="st12" d="M162.9,239.6c-0.3,0-0.6,0.2-0.8,0.4c-0.5,0.2-0.9,0.7-1.5,0.7c-0.8,0.3-1.7,0.6-2.9,1c0.9-3.3,3-4.7,5.7-5.7
		c4.5-1.7,8.8-3.6,13.2-5.3c1.2-0.6,1.3,0,1.2,1c-0.5,0.6-1,1.1-1.7,1.9c5,3.3,7.1,7.9,6.1,14.1c-0.8-0.4-1.5-0.7-2.3-1
		c-2.8-1.2-3.7-4.3-6-6.3c-1.7,1.6-2.9,4.7-6.3,2.9l0,0c-1.2-1.1-0.1-2.5-0.4-3.8C165.8,239.7,164.3,239.4,162.9,239.6z"/>
	<path class="st13" d="M183.5,119.7c2.3,0,4.6,0,6.9,0c4.6,1.2,1.7,3.4,0.7,5.3c-3.9,4.4-4,9.6-3,14.8c2.1-2.1,3.1-6.5,7.9-5.5
		c1.2,3.3-2.8,3.7-3.3,6c-2.2,2.9-4.3,5.7-6.5,8.6c-0.4-0.2-0.9-0.4-1.3-0.6c-1.3-8.1-4-16.1-0.9-24.4c0.2-0.6-0.2-1.3-0.3-2
		c1.7,0.1,3.4,0.2,5.1,0.4c0.1-0.2,0.1-0.5,0.2-0.7c-1.8-0.6-3.6-1.1-5.4-1.7L183.5,119.7z"/>
	<path class="st14" d="M436.3,135.5c0.3-0.1,0.6-0.1,0.9,0c0.3,0.2,0.4,0.5,0.3,0.7c-0.1,0.2-0.2,0.4-0.3,0.4
		c-3.5,0-3.4,3.8-5.4,5.2c-0.4-0.3-0.8-0.6-1-1.1c-1.9-2.6-3.7-0.3-5.5,0.2c-3,0.9-6,2.8-8.5-0.9c-0.3-0.5-0.8-1-1.4-0.8
		c-5.9,2.4-9.8-1.5-14.1-4.3c-1.2-0.8-2.8-1-3.9-2.2c-1.1-1.3-1.4-2.9-1.5-4.6c0.1-0.6,0.3-1,0.7-1.5c0.4-0.4,0.9-0.6,1.4-0.7
		c3.6,1,6.4,3.7,9.9,5c2.2,0.8,4.2,3,7.1,0.8c1.3-1,3,0.3,3.7,1.7c2.1,4.2,5,3.4,8.4,1.9c2.2-1,4.1-2.6,6.7-2.8
		C435.6,132.8,435.2,135,436.3,135.5z"/>
	<path class="st15" d="M185.8,159.4c0.4,0.8,0.8,1.5,1.2,2.3c-1.3,3.5-5.1,5.4-6.1,9.1c-2.1,3.7-5.5,5.5-9.4,6.4
		c-4.4,1-8.6,2.3-13,3.1c-1.4-0.5-1.6-1.5-1.2-2.7c4.4-4.3,10.5-3,15.7-4.9c0.8,0.1-0.2-0.8,0.1-0.1c0.1,0.2-0.1,0.3-0.4,0.3
		c-5.9,1-11.8,1.7-17.5,3.4c-2.6,0.8-5.5,1.5-7.8-1c-0.4-0.4-0.9-0.7-1.3-1.1c6.9-1.1,13.7-2.5,20.6-3.3c5-0.5,9.5-1.7,13.2-5.4
		C181.7,163.3,183.8,161.4,185.8,159.4z"/>
	<path class="st10" d="M244.5,261.5c-0.3,3-1.5,3.7-3.7,1.4c-1.2-1.3-2.1-2.9-3.4-4.8c-1.5,2.6-0.6,6.6-4.8,6.5
		c-0.1-0.3-0.3-0.7-0.4-1c-1.1-1.5-1.1-3.5-2-5.1c-2.1-0.3-4,0.1-5.9,0.5c-0.9-0.1-1.7-0.2-2.6-0.3c-0.2-0.4-0.3-0.8-0.5-1.3
		c3.2-1.7,6.5-3.3,9.9-5.1c-0.7-1.3-1.5-2.9-2.3-4.5c-0.3-0.3-0.4-0.6-0.3-0.9c0.1-0.3,0.2-0.5,0.3-0.5
		C234.4,251.2,242.3,253.3,244.5,261.5z"/>
	<path class="st16" d="M258.5,235.6c-0.8-0.1-1.6-0.2-2.4-0.3c-1,1.5-2.7,2.1-4.4,2.3c-5.8,0.9-11.7,0.3-17.5-0.3
		c-2.3-0.2-4.8-1.3-5.6-4.1c3.5-1.5,7-1.3,10.8-0.7c5.4,0.8,11,0.3,16.6,0.4c3.8-0.7,7.6-1.4,11.4-2.1
		C264.4,232.4,261.5,234,258.5,235.6z"/>
	<path class="st17" d="M244.5,111.6c0.3,0.4,0.6,0.8,0.8,1.2c-0.4,0.5-0.8,0.7-1.4,0.8c-4.8-2-5.7-6.8-6.9-10.9
		c-1.9-6.5-2.1-13.3-2.5-20c-0.2-2.8,1.7-4.8,4-6.2c1.7,1,1.2,2.4,0.7,3.8c0.2,10.3,0.6,20.6,4.8,30.3
		C244,111,244.1,111.4,244.5,111.6z"/>
	<path class="st18" d="M418,103.9c3,1.9,6,3.9,9,5.8c0.5,1.1,0.6,2.3,0.8,3.5c0.1,0.5,0,1,0,1.5c-0.8,2.8-2.5,4.5-5.4,4.8
		c-0.5,0-1-0.1-1.5-0.2c-1.5-0.4-3.1-0.5-4.6-0.9c-5.7-4.5-5.4-8,1-13.2C417.4,104.6,417.7,104.2,418,103.9z"/>
	<path class="st19" d="M395.4,96.6c1.6,0.4,1.7,4.5,4.6,1.8c1.1-0.2,1.5,0.5,1.7,1.4c0.3,0.9,0.3,1.8,0.2,2.7
		c-0.3,2.1,0.1,4.1,0.3,6.2c0.2,2.3,0.1,4.8-2.9,5.3c-2.8,0.5-4.7-1-5.8-3.5c-1.3-3.1-0.6-6.3-0.2-9.4c0.2-0.6,0.4-1.2,0.8-1.7l0,0
		C395.2,98.7,394.4,97.2,395.4,96.6z"/>
	<path class="st20" d="M192.7,140.3c1.1-2,2.2-3.9,3.3-5.9c3-5.9,12.7-7.7,16.9-3.2c1.1,1.6,2.2,3.3,3.3,4.9
		c-3.7,0.2-6.6-3.7-10-2.7c-3.9,1.1-7.4,3.6-11.1,5.6C194.3,139.4,193.5,139.9,192.7,140.3z"/>
	<path class="st21" d="M431.6,140.2c0.1,0.6,0.2,1.1,0.2,1.7c-4.2,6-10.3,7.3-16.7,5.7c-8.1-2-15.7-5.5-22.4-10.6
		c0.5-0.4,1-0.8,1.5-1.2c2.4-0.9,3.9,0.9,5.5,1.9c3.8,2.4,7.9,4.2,12.2,5.6c5.9,1.9,11.7,2.8,16.7-2.3
		C429.3,140.2,430.3,139.7,431.6,140.2z"/>
	<path class="st22" d="M261.6,40.5c0.5,0,0.9,0,1.4,0c0.4-0.4,0.8-0.4,1.1,0.1c-1,2.4-1.1,5.7-5.2,5c-0.5-0.1-1.2,0.7-1.7,1.2
		c-4.9,5.1-9.8,10.2-15,15.7c1.5,0.5,2.4,0.8,3.3,1.1c-1.5,1-2.9,1.9-4.3,2.9c-1.3,0.4-2.1-0.3-2.5-1.4c0.8-3.8,3-6.8,5.6-9.5
		c4.1-4.3,8.4-8.5,12.7-12.7C258.2,41.6,259.4,40,261.6,40.5z"/>
	<path class="st23" d="M356.9,131.3c0.8,0.4,1.6,0.7,2.5,1.1c-3.5,1.5-6.9,3-10.4,4.5c1.2-1,2.4-2.1,4.3-3.7
		c-3.1,0.5-5.4,0.9-7.7,1.4c2.5-3.5,4.6-7.3,8.9-8.9c2.8-1.6,5.8-1.5,8.9-1.2c0.5,1.1,0.9,2.1,1.4,3.2c-3.4,2-8,0.6-10.4,3.5
		C354.8,130.3,355.7,130.2,356.9,131.3z"/>
	<path class="st24" d="M437.2,136.7c0-0.4,0-0.7,0-1.1c4.9-0.6,9.6,1.6,14.6,1.1c-1.8,0.9-3.7,1.9-5.5,2.8c1.2,2,2.4,3.9,3.9,6.4
		c-3.2-0.1-5.3-2.3-5.8-4.6C443.3,137.2,440.6,136.7,437.2,136.7z"/>
	<path class="st25" d="M156.6,189.9c-0.8,0.3-1.6,0.6-2.4,0.9c-4.9-0.7-9.9-1.4-14.8-2.2c-1.2-0.7-2.1-1.4-0.6-2.7
		c3.2-1.4,6.6-0.7,9.9-0.8c0.6,0,1.2,0,1.8,0.1c0.9,0.1,1.8,0.3,2.6,0.5C154.9,186.7,157.5,186.8,156.6,189.9z"/>
	<path class="st26" d="M370.5,104c-0.9-0.8-1.8-1.7-2.6-2.5c2.4-0.3,4.8-0.6,7.1-1.1c0.5-0.1,0.7-1.3,1-2.1c0.5-0.5,1.1-0.5,1.7-0.2
		c2.9,2.1,5.7,1.3,8.5-0.2c0.6-0.3,1.5,0.1,2.3,0.1c0.5,0.7,0.9,1.4,0.9,2.3c-0.1,1.1-0.4,2.2-1.6,2.6c-1.7,0.7-0.2-2.7-2.2-1.7
		c-1.4,0.5-2.9,0.8-4.3,1.2c-0.8,0.2-1.5,0.4-2.3,0.4C376.3,102.9,373.6,105,370.5,104z"/>
	<path class="st27" d="M427.3,114.4c-0.1-0.5-0.2-1-0.2-1.4c0.4-0.3,0.8-0.5,1.3-0.6c0.5,0.1,0.9,0.3,1.3,0.6
		c3.6,4.3,7.2,8.6,6.3,14.9c-0.6,1.5-0.6,3,0.1,4.4c0.1,1.1,0.2,2.2,0.4,3.3c-0.8-0.7-1.7-1.5-2.5-2.2c-2.2-3-1.9-6.7-2.6-10
		C430.4,119.9,429.1,117.2,427.3,114.4z"/>
	<path class="st28" d="M239.1,65.4c0.7,0.4,1.4,0.7,2.1,1.1c0.3,0.4,1,0.9,0.9,1.3c-0.9,4.2-1.9,8.3-2.9,12.5
		c-0.4-1.2-0.8-2.3-1.3-3.5C234.2,73.3,234.6,69.7,239.1,65.4z"/>
	<path class="st29" d="M253.7,123.3c5.4,2.7,7.5,7.9,10.1,12.9c0,0.1-0.5,0.4-0.7,0.7c-0.8,0.8-1.7,0.6-2.7,0.3l-0.1-0.2
		c-0.6-1.3-1.3-2.4-2.1-3.5l0,0c-1.1-1.1-2.4-2.1-3.3-3.5C254,127.8,251.8,126,253.7,123.3z"/>
	<path class="st30" d="M177.8,231.7c-0.4-0.3-0.8-0.7-1.2-1c5.7-4.8,11.5-9.6,17.2-14.5c0.4,0.4,0.9,0.7,1.3,1.1
		C189.4,222.1,183.6,226.9,177.8,231.7z"/>
	<path class="st31" d="M138.3,186.6c0.4,0.7,0.7,1.4,1.1,2c-5.7-1.3-11.4-2.7-17-4c0.1-0.5,0.1-1.1,0.2-1.6
		C128.4,181.7,133.5,183.5,138.3,186.6z"/>
	<path class="st32" d="M229,246.2c-0.1,0.6-0.1,1.1-0.2,1.7c-3.3-5.7-6.6-11.4-9.9-17.1c0.7-0.3,1.4-0.6,2.1-0.9
		C224.1,235.1,228.8,239.6,229,246.2z"/>
	<path class="st33" d="M253.7,123.3c0.9,2.2,1.7,4.5,2.6,6.7c-1.2,0.7-2.1,0.1-3-0.6c-2.3-3.8-5.1-7.3-7.8-10.9
		c-1.2-1.6-2.9-3.1-1.8-5.5c0.5-0.1,1.1-0.1,1.6-0.2c2.5,3,5.1,6,7.6,9C253,122.5,253.4,122.8,253.7,123.3L253.7,123.3z"/>
	<path class="st34" d="M401,101.6c0-0.7,0-1.4,0-2.1c0.4-0.5,0.8-0.6,1.2-0.1c5.3,1.5,10.5,3,15.8,4.5c0.1,0.4,0.1,0.8,0.2,1.2
		C412,106.5,406.6,103.7,401,101.6z"/>
	<path class="st26" d="M363.7,107.1c-0.3-1-0.6-1.9-1-3.1c-0.8,0.3-1.6,0.7-2.4,1c0.9-4.1,3.3-5.3,7.1-3.6c-4.8,2.3,0.5,3.2,0.6,4.7
		C366.7,107.3,365.4,108.3,363.7,107.1z"/>
	<path class="st35" d="M31.9,169c2.7-6.3,4.5-6.5,10-1.3C38.4,166.4,35.2,167.6,31.9,169z"/>
	<path class="st36" d="M274.3,262.7c0-0.9,0-1.9,0.1-2.8c1.8-0.7,2.8-3.8,5.5-1.9c0.3,1.1-0.1,1.6-1.2,1.4
		C277.1,260.5,275.7,261.6,274.3,262.7z"/>
	<path class="st37" d="M388.6,100.6c0-0.8,0-1.7,0-2.5c1.8,0.4,3.7,0.8,5.5,1.2c0.1,0.4,0.2,0.8,0.3,1.2
		C392.5,102.3,390.6,102.1,388.6,100.6z"/>
	<path class="st38" d="M218.7,30.3c-0.4,0-0.8,0-1.2,0c-0.2-0.2-0.4-0.3-0.5-0.5c-0.4-0.7-0.5-1.4-0.4-2.1c0.2-1,0.5-2,1.8-1.8
		c0.4,0.7,0.8,1.4,1.2,2.1C219.3,28.8,219,29.6,218.7,30.3z"/>
	<path class="st39" d="M402.2,99.4c-0.4,0-0.8,0.1-1.2,0.1c-0.3-0.4-0.7-0.7-1-1.1c0.8-0.8,1.7-1.6,2.5-2.3c0.3,0.2,0.5,0.4,0.8,0.6
		C402.9,97.5,402.6,98.5,402.2,99.4z"/>
	<path class="st40" d="M427.9,113l-0.4,0l-0.4,0c0-1.1-0.1-2.2-0.1-3.3c0.7,0.8,1.5,1.5,2.2,2.3C428.9,112.5,428.4,112.8,427.9,113z
		"/>
	<path class="st37" d="M395.4,96.6c-0.4,0.9-0.9,1.9-1.3,2.8c-0.3-1.2-0.6-2.4-1.1-4.1C394,95.8,394.7,96.2,395.4,96.6z"/>
	<path class="st14" d="M436,132.2c0-1.5,0-2.9-0.1-4.4C435.9,129.3,436,130.8,436,132.2z"/>
	<path class="st13" d="M176.8,121.1c0,0.5,0,0.9,0.1,1.4c-0.7,0.4-1.5,0.8-2.2,1.2C175.4,122.8,176.1,121.9,176.8,121.1z"/>
	<path class="st4" d="M260.5,137.1c0.9-0.1,1.8-0.2,2.7-0.3c-0.2,0.5-0.5,0.9-0.7,1.4C261.8,137.8,261.1,137.4,260.5,137.1z"/>
	<path class="st24" d="M377.8,98.1c-0.6,0.1-1.2,0.1-1.7,0.2c-0.2-0.6-0.5-1.3-0.7-1.9C376.1,97,377,97.5,377.8,98.1z"/>
	<path class="st0" d="M264.1,40.6c-0.4-0.1-0.7-0.1-1.1-0.1c0.7-0.3,1.5-0.6,2.2-0.9C264.8,39.9,264.5,40.2,264.1,40.6z"/>
	<path class="st23" d="M346.7,138.1c0.8-0.4,1.5-0.8,2.3-1.2C348.2,137.3,347.5,137.7,346.7,138.1z"/>
	<path class="st29" d="M253.7,123.3c-0.3-0.5-0.5-0.9-0.8-1.4C253.2,122.3,253.4,122.8,253.7,123.3z"/>
	<path class="st18" d="M427.9,113c0.4-0.3,0.9-0.7,1.3-1c0.3,0.3,0.4,0.6,0.5,1C429.1,112.9,428.5,113,427.9,113z"/>
	<path class="st41" d="M244.5,111.6c-0.2-0.3-0.3-0.6-0.5-1C244.1,111,244.3,111.3,244.5,111.6z"/>
	<path class="st42" d="M248.7,58.5c-0.1-0.1-0.2-0.1-0.4-0.2c0.1-0.2,0.3-0.4,0.4-0.6c0.1,0.1,0.3,0.3,0.3,0.4
		C249.1,58.2,248.8,58.3,248.7,58.5z"/>
	<path class="st23" d="M345.4,139c0.5-0.3,0.9-0.6,1.4-0.9C346.3,138.3,345.9,138.7,345.4,139z"/>
	<path class="st43" d="M160.6,240.7c0.5-0.2,1-0.5,1.5-0.7C161.6,240.3,161.1,240.5,160.6,240.7z"/>
	<path class="st44" d="M138.3,186.6c-5.3-1.2-10.5-2.4-15.8-3.5l0,0.1c-0.4-0.3-0.8-0.7-1.2-1c-5.1-2.2-10.3-4.4-15.8-6.8
		c1.4-2.4,2.5-4.4,3.6-6.4c9.4,2.6,18.7,5.1,28.1,7.7c3.3-0.4,6.5,0.8,9.8,0.9c0.5,0.1,1,0.4,1.5,0.7c0.8,0.8,1.1,1.8,1.2,2.9
		c0.1,0.5,0.1,1,0.1,1.5c0.1,0.7,0.1,1.4,0.3,2.1c0,0.2,0.1,0.5,0.1,0.7c0,0.5-0.2,0.9-0.6,1.2C145.8,186.6,142.1,186.6,138.3,186.6
		z"/>
	<path class="st45" d="M90.7,167.3c0.4,2.4,0.7,4.3,1.1,6.5c-11-0.6-22.5-0.7-33.7-2.2c-7.4-1-13.7-5.5-18.8-11.6
		c0.8,0.4,1.8,0.6,2.4,1.2c9.5,8.3,20.8,9.4,32.7,7.9C79.9,168.5,85.3,167.9,90.7,167.3z"/>
	<path class="st46" d="M23.9,148.2c-1.1-2-2.3-3.9-3.3-5.6c7.1,3.3,14.1,6.6,21.2,9.9c-0.9,2.9-5,3.7-5.4,7.1
		c-4.8,1.3-6.3-2.3-7.7-5.5C27.5,151.6,26.7,149.1,23.9,148.2z"/>
	<path class="st47" d="M147.5,178.6c-3.4-0.6-6.9-1.3-10.3-1.9c3.3-0.5,6.7-1.1,10-1.6c3.4-0.5,6.9-0.9,10.3-1.4
		c3.5-0.5,7-1,10.4-1.6c3-0.5,6.1-1.2,9.6-1.2c-2,1.1-4,2.6-6.1,3.2c-4.6,1.4-9.3,2.4-14,3.6C154.2,179.1,150.8,178.4,147.5,178.6z"
		/>
	<path class="st48" d="M23.9,148.2c0.1-0.5,0.3-1,0.7-2.9c2,3.2,3.5,5.5,4.8,7.9c1.6,2.9,3,6.1,6.9,6.5c-1.6,1.7-3.2,3.5-5.1,5.6
		c-4-3.5-3.3-8.5-5.1-12.4C26.2,150.8,24.8,149.5,23.9,148.2L23.9,148.2z"/>
	<path class="st49" d="M97.5,165.6c3.3,1.1,6.1,2,9,2.9c-0.6,3.4-2,5.5-4.6,5.1C98.5,173,97.6,170,97.5,165.6z"/>
	<path class="st50" d="M97.8,174.2c-5.6-3.3-5.6-3.3-2.4-7.1C96.2,169.4,96.8,171.3,97.8,174.2z"/>
	<path class="st46" d="M23.8,148.1c1.5,1.2,4.4,1.7,2.3,4.7C25.3,151.2,24.6,149.7,23.8,148.1z"/>
	<path class="st31" d="M121.3,182.2c0.4,0.3,0.8,0.7,1.2,1C122.1,182.8,121.7,182.5,121.3,182.2z"/>
	<path class="st51" d="M218.4,25.9c-0.3,0.8-0.7,1.5-1,2.3c-0.5,0.8-0.8,1.5,0.2,2.2l0-0.1c-0.3,0.8-0.7,2.4-1,2.4
		c-3.9-0.2-4.2,3.2-4.5,5.3c-1.7,14.8-4.4,29.6-3.5,44.6c0.3,5.9,1.7,11.6,4.5,16.8c0.4,0.4,0.8,0.8,1.1,1.2
		c0.4,0.4,0.8,0.9,1.1,1.3c9,8.3,18.1,16.5,26.9,24.9c2.7,2.5,1.8,5.7-1.8,6c-3.7,0.3-7.4,1.4-11.2,1.2c-1.3,0.3-2.5-0.7-3.9-0.3
		c-1.6,1.4-0.1,4.1-2,5.4c-2.4-3.9-6-6.3-10.2-7.9c-6.2-1.8-12-1.3-16.9,3.2c-4.7,1.5-6.9,5.2-8.2,9.9c-1.3-7.1-3.9-14.1,2.6-19.9
		c3.5,3.6,7.4,4.3,12,2.4c3-1.3,6.4-1.3,9.6-2c0-2.5-2.5-3-2.9-4.8c0-0.3-0.1-0.5-0.1-0.8c0.1-0.3,0.1-0.5,0.2-0.8
		c3.6-6.1,2-9.6-4.9-10.7c-1.4-0.2-3-0.2-4.2-1.2c-1.8-3.4-2.5-7.1-3.6-10.6c-1.8-5.6-3.7-11-7.6-15.5c-0.1-1.4,0.9-1.9,2-2.3
		c2-0.8,4.8,0.5,6-2.9c1.3-4,2.8-7.8,1.3-12c-0.8-2.3-1.8-4.5-3.1-6.8c-3.9,3.7-6.8,1.3-9.7-1.4c-0.2-0.5-0.3-1-0.2-1.5
		c0.1-0.5,0.3-0.9,0.6-1.3c0.1-0.2,0.3-0.4,0.4-0.5c0.3-0.3,0.5-0.7,0.8-1c0.1-0.2,0.2-0.3,0.3-0.5c0.4-0.8,0.3-1.6,0.4-2.4
		c0.4-1.2,1.3-1.9,2.5-2.3c2.9-1.7,5.6-3.6,7.6-6.4c0.2-0.5,0.5-0.7,1-0.3c-0.4-0.4-0.7-0.3-0.9,0.2c-1.3,1.2-1.8,3.8-4.5,2.6
		c-2.6-8.3-2.6-8.3-9.6-3.1c-2.5,1.9-5.1,3.8-7.6,5.7c-0.4,0.3-0.8,0.7-1.1,1c-0.3,0.4-0.7,0.7-1.1,1.1c-4,2.8-6.4,7.8-11.9,8.6
		c-0.5-0.1-1-0.4-1.4-0.8c3.1-5.9,8.8-9.4,13.4-13.9c2-1.9,4.3-3.6,6.4-5.7c-3.2,0.3-6.1,1.5-8.9,2.9c-7.2,3.7-13.5,8.8-19.4,14.4
		c-1.4,1.3-2.3,2.9-2.8,4.8c-1.4,2.4-4,4-5.2,6.7c-4.8-0.1-7,3.7-9.9,6.4c-1.7,1.5-3,3.3-4.6,4.9c-0.8,0.7-2,0.4-2.8,1
		c-1.5,0.4-3,0.8-4.5,1.3c-3.3,3.5-7.8,5-12,6.9c-0.1,0-0.3-0.2-0.5-0.3c-0.2-0.2-0.2-0.6,0-1c4.9-9.5,12.3-16.9,20-24
		c8.8-8.1,17.6-16.5,27.2-23.5c15-10.9,31.4-19.7,49.5-24.5c4.6-1.2,9.4-1.9,14.5-2.8c-0.3,2.4-0.5,4.4-0.6,6.3
		c-8,1.7-13.4,4.1-16.2,7.4c3.9-1.6,7.2-3.1,10.6-4.5c1.4-0.5,2.9-1.1,4.3-1.1c3.2-0.1,4.5,1.9,3,4.7
		C221.2,22.3,219.7,24,218.4,25.9z"/>
	<path class="st52" d="M110,82.5c4.2-1.9,8.3-3.8,12.5-5.7c1.1,0.2,2.3,0.5,3.4,0.5c1.3,0,2.6-0.2,3.9-0.2c0.1,0.4,0.2,0.8,0.2,1.1
		c-3.2,1-6.3,1.9-9.5,2.9c0.1,0.3,0.2,0.5,0.2,0.8c3.9-0.6,7.9-1.1,11.8-1.7c0.6,0.5,0.6,0.9-0.2,1.1c-1.1,0.4-2.1,0.7-3.2,1.1
		c-3.9-0.3-7.2,3.5-11.4,1.6c-0.5-0.2-1.9,1-2.6,1.8c-3.2,3.3-6.4,6.8-9.8,10.4C105.7,91.2,107.3,86.7,110,82.5z"/>
	<path class="st53" d="M225.8,14.4c1.7-4.3,3.8-6.8,8.3-6.8c2.9,0,5.7-0.7,8.6-1.1c0.1,0.5,0.3,1,0.4,1.5
		C237.5,10,232,12.1,225.8,14.4z"/>
	<path class="st44" d="M162.2,54.1c3.8-3,7.6-6,11.4-9c0.2-0.5,0.6-0.8,1-1.1l0,0c6.5-0.3,7.9,0.7,10.5,7.9c0.1,0.5,0.1,1,0.1,1.6
		c-0.1,0.7-0.3,1.5-0.7,2.2c-0.4,0.6-0.9,1.2-1.4,1.7c-0.5,0.6-0.9,1.1-1.4,1.7c-2.7,3.1-5.2,6.2-4.2,10.9c0.5,2.5-1.9,4.3-2.8,6.4
		c-0.5,0.6-0.8,1.3-1.2,1.9c0.5-0.6,0.7-1.3,1.2-1.8c1-1.1,1.3-2.7,3-3.7c3.8,0.9,6.5,3.5,8.9,6.7c1,6.6-0.6,13.1-1,19.6
		c-0.9,1.7-2,3.2-4.3,2.7c-4-1.6-7.9-4.5-12.4-1.3c-7.9-2.6-16.2-3.5-24.2-5.5c-3-0.7-7.1-0.9-6.5-5.9c1.7-4,5.1-5.5,9.6-6.3
		c-1.2-1.1-1.9-1.8-2.6-2.4c0.9-1.6-0.5-2.7-1-4c-0.5-1.9-0.7-3.7,0.8-5.3c0.5-0.3,1-0.3,1.6-0.2c0.5,0.1,1,0.3,1.5,0.6
		c4.9,2.4,9.2,2.1,13.2-2.1c3.7-3.8,3.1-7.6,0.8-11.7C161.6,56.5,160.8,55.3,162.2,54.1z"/>
	<path class="st54" d="M181.2,101.7c1.1-0.8,2.1-1.6,3.2-2.4c1.7,1.2,1.6,2.6,1.1,3.3c0.9-6.8-1.2-15,2-22.5c0.5-0.3,1.1-0.3,1.6,0
		c3.6,1.7,5.5,4.6,6.5,8.4c1.5,5.9,3.2,11.7,4.8,17.6c-0.1,1-0.7,1.8-1.5,2.3c-2.8,1.9-4,4.4-2.7,7.7c1.4,3.6,4.8,3.9,7.9,4.2
		c1.8,0.2,3.6-0.9,5.5-0.5c1.8,1.6,3.6,3.1,5.4,4.7c-0.2,0.4-0.4,0.8-0.6,1.3c-3.2,0.6-6.4,1.1-9.5,1.8c-2,0.4-4,0.9-5.9,1.5
		c-4.6,1.3-6.6,0.3-8.7-4.7c0.7-1.6,3.3-3.1,0-4.6c-2.4-1.1-4.8-2.3-7.2-3.3c-0.9-0.4-2-0.7-2.9-1l0,0c0.3-0.4,0.6-0.8,1.1-1
		C185.4,110.1,182.6,105.9,181.2,101.7z"/>
	<path class="st55" d="M138.2,89.1c0.9,3.7,4.2,3.9,7,4.6c6.9,1.6,13.8,3,20.7,4.6c1.1,0.3,2,1.4,3,2.2l0.1,0.2
		c-10.1-1.3-19.8-0.1-29.5,3.1c-1.9,0.6-4.1,0.8-5.7-0.9C133.2,97.6,134.9,93.1,138.2,89.1z"/>
	<path class="st56" d="M146.1,71.1c-0.3,1.8-0.7,3.6-1,5.5c-4.3,1.2-8.3-1.3-12.6-0.9c-0.7-0.1-1.4-0.1-2.1-0.2
		c-0.5-0.3-1.1-0.3-1.2-1c3.8-4.6,7.6-9.2,11.7-14.2c1.4,1.5,2.1,2.2,2.8,3C145.8,65.5,146.8,68.1,146.1,71.1z"/>
	<path class="st57" d="M133.7,102.8c5.2-0.9,10.7-1.3,15.7-2.9c6.8-2.2,13.1-1.5,19.5,0.8c-3.1,0.3-6.2,0.6-9.3,1
		c-5.3,0.8-11,0.8-15.9,2.7c-3.8,1.5-6.8,5.4-10,8.1C132.9,109.9,131.5,106.4,133.7,102.8z"/>
	<path class="st58" d="M180.1,110.2c-0.7,1.1-1.4,2.9-2.7,3.5c-0.8,0.4-2.5-0.9-3.7-1.7c-0.7-0.5-1.2-1.4-1.8-2.2
		c-1.8-2.7-0.6-4.8,1.5-6.3c2.9-2.1,4,0.7,5.2,2.4C179.4,106.9,179.5,108.4,180.1,110.2z"/>
	<path class="st52" d="M132.6,75.7c4.4-2.6,8.5-0.5,12.6,0.9c4.1,1.2,1.3,2.5,0.1,3.7c-2.6-0.8-5.2-1.5-7.7-2.4
		C135.8,77.3,134.2,76.4,132.6,75.7z"/>
	<path class="st59" d="M168.2,108.7c0.2-1.1,0.4-2.2,0.6-3.3c0.3,0,0.6,0.1,0.9,0.1c0,1.2,0,2.4,0,3.5
		C169.2,108.9,168.7,108.8,168.2,108.7z"/>
	<path class="st60" d="M132.4,81.3c0.1-0.4,0.1-0.7,0.2-1.1c1,0,2,0,3,0c0,0.3,0,0.5,0,0.8C134.5,81.1,133.4,81.2,132.4,81.3z"/>
	<path class="st52" d="M129.2,74.5c0.4,0.3,0.8,0.7,1.2,1c-1.2,0-2.4,0-3.5,0C127.7,75.2,128.5,74.8,129.2,74.5z"/>
	<path class="st11" d="M181.4,114.3c-0.4,0.3-0.7,0.7-1.1,1C180.7,115,181,114.7,181.4,114.3z"/>
	<path class="st41" d="M243.7,113c1.8,2.8,3.7,5.6,5.5,8.4c1.6,2.5,3.2,5,4.8,7.5c-0.1,3.2-2.4,5.2-4.9,5.1c-4-0.2-3.8-4.4-5.1-7.2
		c0-0.5,0-1,0.1-1.5c-2.9-5-5.7-10.1-11.7-12.2c-1.3-0.5-2.4-1.3-2.5-2.8c-0.2-2.1-1.4-3.5-2.8-4.7c-6.6-5.6-11.9-12-12.9-21
		c-0.4-3-1.1-5.9-1-8.9c0.1-5.2,0.8-10.4,1.1-15.7c0.2-3.8-0.2-7.6,0.4-11.3c0.6-3.9,2-7.8,3.1-11.6c3,0.1,6.1,2,9-0.8
		c0.5-0.5,2.6,0.6,4,0.9c0,0.4,0,0.8,0.1,1.2c-1.9,0.5-3.9,1.1-5.8,1.6c0,0.4,0.1,0.7,0.1,1.1c1.9-0.3,3.9-0.6,5.8-1
		c5.6-1.3,11.2-2.8,16.8-4c4.6-1,8.9,0.6,13.1,2.1l0,0c0.3,0.7,0.7,1.5,1,2.2c-8.1,7.8-17.1,14.8-22.5,25c-1.3,3.7-3.8,7.3-1.2,11.4
		c0,0.2,0,0.4,0,0.6c-2.4,8.4-1.8,10.3-0.2,22C238.4,104.6,240.7,108.9,243.7,113z"/>
	<path class="st61" d="M214.1,84.7c0.5,0.7,1.5,1.4,1.6,2.2c1.2,8.8,8.1,13.5,13.7,19.2c1.1,1.1,4,1.6,1.4,4.1c0,0,1.3,2,1.6,1.9
		c4.3-1.8,5.1,2.6,7.1,4.3c2.4,2,4.2,4.7,6.3,7.2c1.3,1.5,0.3,1.8-1,1.9c-0.5-0.5-1-1.1-1.6-1.5c-0.6-0.3-1.1-0.8-1.7-1.1
		c0.6,0.4,1.1,0.8,1.7,1.1c0.6,0.4,1.1,1,1.6,1.5c1.1,2.6,2.1,5.2,3.5,8.5c2.1-1.9,3.9-3.5,5.7-5.1c0.8,0.4,1.6,0.7,2.3,1.1
		c0.7,1.2,1.4,2.3,2.1,3.5c-3.5,2.5-7.1,3.2-11.6,2.3c-5.8-1.2-11.9-0.9-17.8-1.2c-0.3-0.2-0.4-0.5-0.3-0.7c0.1-0.2,0.2-0.3,0.3-0.3
		c4.8-0.9,9.5-1.9,15.1-3c-9-8.4-17-15.7-24.9-23.3c-1.6-1.5-2.6-3.5-3.9-5.3c0.6-0.9,1.1-1.7,1.2-1.8
		C215.6,94.6,214.9,89.6,214.1,84.7z"/>
	<path class="st61" d="M214.1,100.6c-0.4-0.4-0.7-0.8-1.1-1.2C213.4,99.8,213.7,100.2,214.1,100.6z"/>
	<path class="st62" d="M388.6,100.6c1.9,0,3.9,0,5.8-0.1c-0.1,2.5-0.3,5-0.1,7.5c0.2,3.6,2,5.6,6.7,4.5c-0.2-1.7-0.5-3.5-0.4-5.2
		c0-1.9,0.4-3.8,0.5-5.8c5.7,1.2,11.5,2.4,17.2,3.5c-0.4,0.6-0.8,1.3-1.3,1.8c-4.9,4.2-4.9,6.6,0,10.9c1.4,0.8,3.2-0.2,4.5,0.8l0,0
		c1.8,1.7,3.8,3.4,2.8,6.2c-1.1,3.1-3.9,3.2-6.5,3.4c-7.3,0.6-14.2-1.5-21.2-2.8c-4.4-0.8-8.8-1.8-13.4-1.8c-2.4,0-4.4-0.8-5.9-2.7
		c-3.3-6.2-3.4-6.2-10.3-5.6c-5.7,0.5-7.1,4.1-3.5,9.1c-2.9,0.7-5.8,1.5-8.8,2.2c-2.6,1-5.2,1.5-7.2-1.3c4.3-4.6,8.7-9.2,13.1-14
		c0.1,0,0.5-0.1,0.7,0.1c2.3,1.5,4.4,3.7,7.5,1.5c3.5-2.5,2.6-5.7,1.7-9c2.9-0.8,5.7-1.5,8.6-2.3c4.4,2,5.3,6.8,8.3,10.7
		c1.7-3.7-3.4-6.7,0.1-9.6C387.9,102.1,388.3,101.3,388.6,100.6z"/>
	<path class="st63" d="M302.5,159.5c2.2-2.5,6.5-3.3,5.9-7.8c5.7-3.7,11.3-7.3,16.9-10.9c1.6,1.3,3.1,2.5,4.8,3.8
		c-4.3,4.4-8.8,9.1-13.5,13.6c-0.7,0.7-2.9,0-3.4,0.7c-1.2,1.5-1.8,3.4-2.7,5.2c0,0.2-0.1,0.5-0.1,0.7c-0.3,0.9-0.8,1.7-1.3,2.5
		c-0.3,0.4-0.6,0.8-0.9,1.1c-0.7,0.7-1.6,1.2-2.5,1.8c-10.3,8.3-17.7,18.8-23.8,30.4c-2.4,4.5-4.9,9-8.4,12.6
		c-5.2,5.3-11.2,9.5-19.4,7c-0.4-0.4-0.6-0.8-0.7-1.4c0-0.8,0.1-1.6,0.1-2.3c0.3-1.7-0.8-3.6,0.4-5.2c9.3-2.5,14.5-9.5,18.6-17.6
		c1.2-2.3,2.2-4.8,3.7-7c2.2-3.3,3.2-6.4,0.1-9.6c-0.7-0.7-0.6-1.7-0.1-2.7c1.7-1,2.8,0.4,4,1c2.3,1.1,4.8,1.6,6.8-0.2
		c2.3-2,2.3-4.5,0.7-7.1c-0.3-0.5-0.3-1.1-0.2-1.6c0.3-0.4,0.7-0.8,1.2-1c5-0.3,9.2-2.6,13.1-5.7C302,159.6,302.2,159.5,302.5,159.5
		z"/>
	<path class="st64" d="M347.4,125.4c2.4,0.4,4.8,0.8,7.2,1.3c-3,2.6-6.1,5.3-9.1,7.9c-1.8,1.6-3.5,3.2-5.6,5
		c-1.5-2.2-2.7-3.8-4.1-5.9C340,130.8,343.7,128.1,347.4,125.4z"/>
	<path class="st65" d="M335.3,139c-1.5,0.8-3.1,1.6-4.6,2.5c-0.4-0.9-0.9-1.8-1.3-2.7c1.6-0.7,3.2-1.4,4.8-2.1
		C334.5,137.4,334.9,138.2,335.3,139z"/>
	<path class="st66" d="M363.7,107.1c1.4-0.3,2.9-0.6,4.3-0.9c0.1,1.5,2.4,3.6-0.6,4.4C364.8,111.3,363.1,110.2,363.7,107.1z"/>
	<path class="st67" d="M311.5,167.4c-1.1,0.8-2.2,1.6-3.3,2.4c-0.2-0.2-0.3-0.3-0.5-0.5c-0.2-0.7-0.1-1.4,0.5-2l-0.1,0.1
		c0.9-1.1,1.5-2.3,2.3-3.5l0,0.1c0.9-1,1.8-2,2.7-3.1c0.3,0.1,0.5,0.3,0.8,0.4C313.1,163.4,312.3,165.4,311.5,167.4z"/>
	<path class="st68" d="M276.5,174.2c1.1,1.9,2.2,3.8,3.9,6.8c-1.2,2.4-2.8,6-4.7,9.2c-3.4,5.8-5.8,12.3-11.1,16.8
		c-3.1,2.6-6.3,4.8-10.6,4.5c-3.8-0.5-7.6-2.5-11.2,0.5c-7,2.1-13.6,0.7-19.9-2.5c-2.1-3-5.2-3.8-8.7-3.8c-0.8-0.4-1.6-0.4-2.4,0.1
		c-0.7,0.1-1.5,0.1-2.2,0.2c-10-7-22.7-7.3-33.1-13.3c-4.1-2.4-9.1-3.4-14.1-3.6c-2.2-0.1-4.5-0.6-6.2-2.3c-1.4-3,2.7-4.2,2.3-6.9
		c3.4-1.2,6.7-2.6,10.2-3.4c4.6-1.1,8.9-2.6,11.6-6.8c2.4-3.6,6.2-3.4,9.8-3.3c2,0.1,3.9,1,5.9-0.1c0.7-0.1,1.4-0.1,2.1-0.2
		c7.8-2.8,13.7-7.6,17.2-15.3c1.2-2.7,3-5.5,6.9-4l0,0c0.4,0.8,0.6,1.6-0.1,2.4c-0.1,0.4-0.3,0.8-0.4,1.1c-0.1,0.4-0.4,0.8-0.8,1.1
		c-0.4,0.8-0.9,1.5-1.3,2.3c-0.2,0.4-0.5,0.7-0.9,0.9c-0.7,0.7-1.4,1.5-2.1,2.2c0.4,1,1.5,0.7,2.1,1.4c4,3.3,4.1-2.1,6.6-2.8
		c-0.1,1.2-0.2,2.4-0.2,3.5c2.3,2.9,2.7-4,5.1-0.9c0.5,0.7,1.1,1.4,1.1,2.5c1-1.2,1.8-2.2,3.3-2.1c0.5,0,1,0.1,1.5,0.3
		c2.2,1.1,4.4,2.1,6.7,3.1c0.8,0.5,1.7,1.1,1.9,2.2c3.3,2.7,7.1,3.7,11.3,3.4c3-0.2,5.4-1.3,6-4.7c8.1-5,16.5-2.1,16.9,5.8
		C278.2,170.6,278,172.7,276.5,174.2z"/>
	<path class="st69" d="M253.8,218.5c1.7,0.3,3.4,1.1,5,1c10.3-1.1,16-8.4,20.2-16.7c5.4-10.8,12.5-20.3,20.4-29.3
		c1.8-2,4.4-3.3,6.7-4.9c0.6,0.7,0.6,1.5,0.4,2.4c-3.8,4.7-5.3,10.6-8.5,15.6c-4,8.4-7,17.4-12.1,25c-7.2,10.7-16.5,19.4-30.8,19.3
		c-0.7,0.6-1.6,0.3-2.3,0.8c-12.1,1-23.5-2-33.9-6.1c2.5-2,5.1-4.2,7.8-6.3c1.9-0.3,3.6,0.5,5.4,0.7c4.4,0.6,8.2,0.2,9.2-5.2
		c0.3-0.2,0.9-0.3,1-0.1C244.9,219.6,249.4,219.1,253.8,218.5z"/>
	<path class="st70" d="M156.3,185.5c1.9,0.7,3.8,1.9,5.7,2c8.7,0.4,16.4,3.4,23.7,7.9c1.5,0.9,3.5,1,5.3,1.4
		c6.9,1.6,14,2.9,18.6,9.1c-2.1,1.5-4.3,2.9-7.1,4.9c-3.5-3-7.1-6.1-11.6-9.8c0.6,1.5,0.8,2.3,1.6,4.4c-6.3-3.5-11.6-6.6-17-9.6
		c-5.9-3.2-12-6-18.9-6c-1.1-1.1-2.2-2.1-3.3-3.2C153.7,185.1,154.6,184.4,156.3,185.5z"/>
	<path class="st71" d="M241.6,214.8c0,1.5,0,2.9,0,5c-4.8,3.1-9.9,2.9-15.1-0.4c0-0.7,0-1.3,0-2c-0.3-0.5-0.5-0.9-0.8-1.3
		c-0.9-2.2-1.9-4.4-2.8-6.6c2.9,0.4,5.8,1,8.7,1.1c3.9,0.1,7.9-0.1,11.9-0.3C244.7,212.6,242.8,213.6,241.6,214.8z"/>
	<path class="st72" d="M219.8,220.5c-2.3-0.3-4.6-0.7-6.8-1c-0.9-1-2-1.7-2.6-2.9c-1-2.3-1-4.3,0.9-6.2c2-1.9,3.7-1,5.6,0.1
		c2.6,1.5,4.5,3.4,4.6,6.6c0.1,1.2-0.1,2.2-1,3.1C220.3,220.2,220.1,220.4,219.8,220.5z"/>
	<path class="st73" d="M220.8,218.1c0.2-5-3.9-6.2-7.1-8.3c-3.2,1.8-4.1,4-1.5,7.1c0.5,0.6,0.6,1.6,0.8,2.5c-2.8,0-4.9-0.5-5.4-4.1
		c-0.6-4,1-5.7,4.5-6.7c5.8-1.6,9.9,2.3,10,9.7c0,0-0.4,0.3-0.4,0.3C221.1,218.8,220.9,218.6,220.8,218.1z"/>
	<path class="st74" d="M203.9,217c-3.9-3.1-7.8-6.1-12.6-9.9C197.8,208.5,201.1,212.5,203.9,217z"/>
	<path class="st75" d="M222.1,218.4c0.7,0.1,1.4,0.3,3.3,0.7c-2.4,1.8-4,3-6.5,5c0.6-2.1,0.8-2.8,1-3.5l-0.1,0.1
		C220.6,219.9,221.3,219.1,222.1,218.4L222.1,218.4z"/>
	<path class="st16" d="M252.6,231.8c0.8-0.3,1.5-0.5,2.3-0.8c0,0.3-0.1,0.6-0.1,1C254.1,231.8,253.4,231.8,252.6,231.8z"/>
	<path class="st70" d="M211.8,205.7c0.8,0,1.6,0,2.4-0.1C213.4,205.7,212.6,205.7,211.8,205.7z"/>
	<path class="st69" d="M225.7,216c0.3,0.4,0.5,0.9,0.8,1.3C226.2,216.9,225.9,216.5,225.7,216z"/>
	<path class="st76" d="M297.9,186.6c1.3-6,2.9-11.8,8-15.8c0.6-0.6,0.8-1.7,2-1.1l0.3,0.1C304.7,175.3,303.5,182.3,297.9,186.6z"/>
	<path class="st77" d="M277.5,168.3c-0.4-5.9-4.2-7.9-9.6-5.2c-0.6,0.3-1.5-0.2-2.2-0.2c-1.3-0.1-2.6-0.1-3.9-0.1
		c0.4-1.1,0.8-2.1,1.3-3.4c-0.5-0.7-1.4-1.7-1.8-2.9c-1.5-3.9-4.6-5.1-8.5-5.1c-6-0.1-6-0.2-11.5-5.8c3.3,1.3,5.6,2.3,8.2,3.3
		c1.1-3.2,3.4-3.3,6.1-2.1c3.1,1.3,6.2,2.5,9.3,3.7c4.8,4.3,10.5,5.6,16.7,5.6c0.2,0,0.4,0,0.6,0c6.6,1.9,13.6,2,20.3,3.4l0,0
		c-4,3.5-8.5,5.8-13.8,6.9c-0.3,0-0.6-0.1-0.8-0.1C284.3,166.4,281.2,168.9,277.5,168.3z"/>
	<path class="st78" d="M235.7,159.5c-4.1-1-2.1,2.8-4.2,4.4c-0.5-1.9-0.9-3.9-1.4-5.8c-0.6-7-3.7-13-6.9-19
		c-0.1-2.2-0.2-4.4-0.4-6.7c2.6-3,4.1,0.5,6.1,1.1c-0.1,0.3-0.1,0.7,0,1.1c0.7,0.8,1.4,1.6,2.1,2.4c0.8,1.5,1.6,2.9,2.5,4.4
		c-0.6,2.3-0.6,2.3-3.2,1c4.6,3.3,8.6,7.3,12,11.9c1.3,1.7,2.6,3.2,1.4,5.4c0,0.7,0,1.5,0,2.2c-0.1,0.7-0.7,0.8-1.2,1.1
		C240.2,161.7,237.9,160.6,235.7,159.5l0.1-0.1L235.7,159.5z"/>
	<path class="st79" d="M243.7,159.5c-0.4-1.2-0.6-2.5-1.3-3.4c-1-1.5-2.3-2.8-3.6-4.1c-2.5-2.5-4.9-5.5-7.9-7.3
		c-1.9-1.2-2.8-1.7-1.9-3.8c0.1-0.3-0.4-0.9-0.6-1.3c0.4-0.4,0.8-0.7,1.2-1.1c0.9,1.7,1.8,3.3,3.1,5.6c0.5-1.8,0.7-2.3,0.8-2.9
		c2.8,5.7,9,7.5,13.4,11.6C245.7,155.2,244.7,157.4,243.7,159.5z"/>
	<path class="st80" d="M250.8,155.7c4.9,1.2,6.9,3.3,6.2,5.9c-0.7,2.7-3.3,4.2-5.6,2.9C246.3,161.9,250.9,158.8,250.8,155.7z"/>
	<path class="st79" d="M242.5,162.8c0.4-0.4,0.8-0.7,1.2-1.1c2.5,0,1.2,1.4,0.8,2.4C243.8,163.7,243.2,163.2,242.5,162.8z"/>
	<path class="st81" d="M257.6,155.9c-0.5-0.4-1-0.9-1.4-1.3c0.1-0.2,0.3-0.4,0.4-0.6c0.6,0.3,1.2,0.6,1.8,0.9
		C258.1,155.2,257.9,155.6,257.6,155.9z"/>
	<path class="st0" d="M260.6,38.3c1.5-1.5,3-3,4.4-4.5c0.4,0.5,0.7,1,1.1,1.4C264.3,36.2,262.4,37.2,260.6,38.3L260.6,38.3z"/>
	<path class="st82" d="M222.2,146.9c-3.8,0.3-5.2,3.1-6.5,6.1c-2.3,5.3-6.1,9.3-11.2,11.9c-1.9,0.9-4.2,0.9-6.4,1.4
		c4.2-6.2,4.3-8.2-0.1-14.1c6.6-2.5,12-7.4,19.4-7.3C219.1,144.8,220.6,146.1,222.2,146.9z"/>
	<path class="st83" d="M189,157.7c2.2-1.3,4.4-2.6,6.6-3.8c3.3,4.8,3.5,7.1,1.1,8.6C193.8,164.2,191.6,163,189,157.7z"/>
	<path class="st84" d="M196,166.3c-4,0.7-8.1,1.4-12.1,2.2c-1.2,0.2-2.4,0.8-3.6,1.1c2.2-2.7,4.4-5.3,6.7-8
		C188.9,165.4,192.3,166.1,196,166.3z"/>
	<path class="st82" d="M222.1,149.3c0-0.8,0.1-1.6,0.1-2.4C222.2,147.7,222.1,148.5,222.1,149.3z"/>
	<path class="st82" d="M218.6,158.3c-0.7-0.5-1.4-0.9-2.1-1.4C217.2,157.4,217.9,157.9,218.6,158.3z"/>
	<path class="st82" d="M220.9,151.5c0.3-0.4,0.5-0.7,0.8-1.1C221.4,150.7,221.2,151.1,220.9,151.5z"/>
	<path class="st82" d="M218.7,154.7c0.3-0.3,0.6-0.6,0.9-0.9C219.3,154.1,219,154.4,218.7,154.7z"/>
	<path class="st85" d="M377.3,120.9c7.5,1.1,15,2.3,22.5,3.4c6,0.9,12.1,1.8,18.2,2.2c6.1,0.3,6.5-0.8,3.7-6.3
		c-0.2-0.5-0.2-1.1-0.2-1.7c2-1.4,3.9-2.8,5.9-4.2c1.7,1.8,4.4,3.3,5,5.4c1.1,4.4,1.1,9,1.5,13.5c-3.5,1.8-6.8,3.7-10.5,5.2
		c-1,0.4-3-0.6-3.9-1.5c-1.3-1.4-2-3.3-3.4-5.6c-1.7,2.1-2.8,3.5-4.2,5.2c-0.9-1.5-1.7-2.8-2.6-4.4c-1.2,0.3-2.4,0.6-3,0.7
		c-3.1-2.3-5.9-4.2-8.6-6.2c-0.5,0.3-0.9,0.7-1.3,1.1l0,0c-7.1,1.5-13.9,1.6-20.4-2.3C376.5,124,376.9,122.4,377.3,120.9z"/>
	<path class="st86" d="M431.6,140.2c-6.2,7.1-13.7,7.4-21.6,3.8c-5.4-2.5-10.5-5.5-15.7-8.2c-1.5-0.7-3.1-1.4-4.6-2.1
		c1.7-4.2,2.7-4.3,8.1-1.4c2.8,0.9,5.9,1.1,7.4,4.4c0.2,0.5,2.3,0.1,4.1,0.1c0.5,0.7,1.5,2,3.1,4c1.3-1.8,2.2-3.2,3.6-5.1
		c1.1,1.9,2,3.7,3.3,6.1c4.2-1.6,8.5-3.2,13.5-5.1C432.2,138.3,431.9,139.3,431.6,140.2z"/>
	<path class="st87" d="M397.7,132.3c-1.4-0.1-3,0-4.3-0.5c-2.2-0.9-3,0.3-3.8,1.9c-4.4-1.8-8.8-3.4-13.1-5.4
		c-0.4-0.2-0.2-1.8-0.3-2.8c6.8,0.8,13.6,1.5,20.4,2.3C396.9,129.2,397.3,130.8,397.7,132.3z"/>
	<path class="st88" d="M375,122.2c-2.9,1.6-4.5,3.2-6,3c-1.2-0.1-3.3-2.4-3.2-3.5c0.1-1.3,2.2-3.4,3.4-3.4
		C370.8,118.4,372.3,120.2,375,122.2z"/>
	<path class="st89" d="M356.9,131.3c-1.2,0.2-2.4,0.4-4.1,0.7c3-5.2,7.8-3.8,12-4.3c0.7,0.1,1.5,0.2,3,0.3
		C363.7,129.2,360.3,130.2,356.9,131.3z"/>
	<path class="st2" d="M307,151.5c-1.1,0.8-2.2,1.7-3.3,2.5c-0.2-0.4-0.5-0.8-0.7-1.2C304.4,152.4,305.7,152,307,151.5L307,151.5z"/>
	<path class="st4" d="M258.3,133.4c0.7,1.2,1.4,2.3,2.1,3.5C259.7,135.7,259,134.5,258.3,133.4z"/>
	<path class="st13" d="M183.6,119.9c-0.8,0.4-1.6,0.7-2.4,1.1c-0.1-0.3-0.2-0.5-0.3-0.8c0.9-0.1,1.7-0.3,2.6-0.4L183.6,119.9z"/>
	<path class="st90" d="M249.2,264.9c-0.3,0.4-0.6,0.8-1,1.2c-0.2-0.2-0.5-0.5-0.7-0.7C248.1,265.2,248.6,265.1,249.2,264.9z"/>
	<path class="st87" d="M396.5,127.8c0.4-0.4,0.9-0.7,1.3-1.1C397.3,127,396.9,127.4,396.5,127.8z"/>
	<path class="st91" d="M156.3,185.5c-1,0.4-2.1,0.8-3.1,1.2c-0.7,0-1.5-0.1-2.2-0.1c-0.5-0.3-1-0.6-1.3-1.2l-0.1-0.1
		c-0.7-0.6-0.5-1.6-1-2.2c0-0.4,0-0.8,0-1.1c0.6-1.2,0.7-2.3-0.1-3.4c-0.3-0.1-0.6-0.1-1-0.1c3.2-1.3,6.5-2.4,10-0.9
		c0.3,0.7,0.7,1.4,1,2.1c0.4,1,0.8,2.1,1.1,3C158.4,183.8,157.3,184.7,156.3,185.5z"/>
	<path class="st92" d="M424.9,113.3c-3.8,2.5-7.5,2.8-8.1,0.6c-0.4-1.4,0.5-4.2,1.5-4.6C421.4,108,423.3,110.2,424.9,113.3z"/>
	<path class="st85" d="M421.5,118.6c-1.5-0.3-3-0.5-4.5-0.8C418.4,118.1,419.9,118.3,421.5,118.6z"/>
	<path class="st47" d="M149.7,185.5c0.4,0.4,0.9,0.8,1.3,1.2c-0.5,0-0.9,0-1.4-0.1C149.6,186.2,149.6,185.9,149.7,185.5z"/>
	<path class="st93" d="M387.6,102.8c0.6,2,1.2,4.1,1.9,6.1c0.5,1.7,2.3,3.6,0,4.9c-2.6,1.5-5.2-0.8-5.2-2.5c0-4.4-3.8-6.2-5.1-9.5
		c0.9,0,1.7,0,2.6,0c1.9,1,3.5,1.2,4.6-1.1C386.7,101.3,387.2,102.1,387.6,102.8z"/>
	<path class="st94" d="M386.3,100.6c-0.1,1.6-0.3,3.3-0.5,6.3c-1.8-2.3-3-3.7-4.1-5.2C383.3,101.4,384.8,101,386.3,100.6z"/>
	<path class="st0" d="M217.6,30.4c-0.5-0.3-1.1-0.5-1.6-0.8c0.5-0.5,1-0.9,1.4-1.4C217.5,28.9,217.5,29.6,217.6,30.4z"/>
	<path class="st47" d="M148.5,178.7c0,1.1,0.1,2.3,0.1,3.4C148.6,181,148.5,179.8,148.5,178.7z"/>
	<path class="st47" d="M148.6,183.2c0.3,0.7,0.7,1.5,1,2.2C149.3,184.7,148.9,184,148.6,183.2z"/>
	<path class="st95" d="M189.2,80.1c-0.3,0.1-0.7,0.1-1,0.1c-1.3,0.6-1.7-0.7-2.5-1.1c-2.6-1.8-5.3-3.7-8-5.6
		c-0.9,0.9-2.1,2.1-3.2,3.2l0.1,0c1-3.3,2.3-6.2,1.3-10c-1.1-4.1,3.3-6.3,5.4-9.3c0.4-0.3,0.8-0.6,1.2-1c0.4-0.4,0.8-0.7,1.1-1.1
		c0.4-0.3,0.7-0.7,0.9-1.2c0.1-0.4,0.2-0.7,0.2-1.1c0.4-0.3,0.8-0.3,1.2,0c2.1,1.7,4.2,3.5,6.3,5.2c0.3-0.3,0.6-0.7,0.9-1
		c-0.4-0.6-0.8-1.2-1.4-2.2c1.3-0.5,2.6-1,3.8-1.4c8.3,14.7,4.5,17.8,1.1,24.8C193.6,79.1,191.4,79.6,189.2,80.1z"/>
	<path class="st96" d="M148.5,56.5c0.8-1.8,1.2-4,2.5-5.3c7.7-7.5,16-14.3,26.4-17.7c2-0.7,4.2-0.8,6.6-0.3
		c-7.7,7-15.4,13.9-23.2,20.9c-2.3,2.3-5.3,0.3-7.8,1.2c-0.7,0.2-1.3,0.5-2,0.8C150.3,56.5,149.4,57,148.5,56.5z"/>
	<path class="st96" d="M185.8,52.9c-0.4,0-0.8,0-1.2,0c-2-4.5-4.3-8.7-10.1-8.9c4.1-3.2,8.1-6.4,12.2-9.5c3.5-2.7,5.6-2,6.7,2.2
		c0.4,1.6,0.3,3.3,0.4,5c0.1,2.5-1.9,3.3-3.6,4.4c-0.7,0.8-1.4,1.6-2.1,2.4c0.6,0.8,0.5,1.5-0.1,2.2l0.1-0.1
		c-0.4,0.4-0.8,0.8-1.2,1.2l0.1-0.1C186.6,52.2,186.2,52.6,185.8,52.9L185.8,52.9z"/>
	<path class="st97" d="M151.8,54.1c3,0,6,0,9,0c0.4,0,0.9,0,1.3,0.1c1,2.1,2.5,4.1,3,6.4c0.9,4.2,0.1,8.1-3.6,11
		c-3.7,2.9-7.5,4.1-11.9,2c-0.8-0.4-1.6-0.9-2.4-1.3c-0.2-0.4-0.5-0.8-1-1.1l0,0c-0.8-2.6-1.6-5.2-2.5-7.9c-0.4-3.7,2.7-4.9,4.8-6.8
		c0.7-0.5,1.5-0.9,2.2-1.4C151.1,54.8,151.5,54.5,151.8,54.1z"/>
	<path class="st98" d="M209.8,119.9c-2.9,2-6,2.6-9.4,1.3c-2.9-1-5.2-2.1-5.9-5.7c-0.6-3.5,0.8-5.7,3.2-7.6c0.9-0.7,1.9-1.2,2.8-1.7
		c3.4,0.5,7.1-0.9,10,2.4c3.6,4,3.6,6.4-0.9,10.2c-1.1-1-0.8-2.4-0.9-3.6c-0.1-2.8-2.1-4.7-4.2-5.2c-2.5-0.6-5.2,0.5-5.8,3.8
		c-0.1,1.5,0,3,2,3.1c0.5,0,1,0.1,1.5,0.2c1.2,0.2,2.5,0.3,3.7,0.3c1.4,0,2.7,0.3,3.7,1.3C209.7,119.1,209.7,119.5,209.8,119.9z"/>
	<path class="st99" d="M209.1,26.5c-2.6,3-5.2,5.9-8.5,9.6C201.8,30.8,205.1,28.3,209.1,26.5z"/>
	<path class="st95" d="M190.3,46.2c1.2-1.5,2.4-2.9,3.6-4.4c1.5-1.2,3-2.3,4.4-3.5c0,0,0,0,0,0C196.8,42.1,194.5,45.1,190.3,46.2z"
		/>
	<path class="st95" d="M188,50.8c0-0.7,0.1-1.5,0.1-2.2C188.1,49.3,188.1,50,188,50.8z"/>
	<path class="st95" d="M185.8,53c0.4-0.4,0.8-0.8,1.2-1.2C186.6,52.2,186.2,52.6,185.8,53z"/>
	<path class="st95" d="M186.9,51.9c0.4-0.4,0.8-0.8,1.2-1.2C187.7,51.1,187.3,51.5,186.9,51.9z"/>
	<path class="st96" d="M174.6,44c-0.3,0.4-0.7,0.7-1,1.1C173.9,44.8,174.2,44.4,174.6,44z"/>
	<path class="st95" d="M198.3,38.3c0.2-0.2,0.4-0.4,0.6-0.6c0,0.1,0,0.3-0.1,0.4C198.6,38.2,198.5,38.2,198.3,38.3
		C198.3,38.3,198.3,38.3,198.3,38.3z"/>
	<path class="st100" d="M185.7,79.1c0.8,0.4,1.7,0.8,2.5,1.1c-2.2,6-1.6,12.2-1.4,18.3c0.1,1.9-0.2,3.8-0.4,5.7c-0.5,0-0.9,0-1.4,0
		c-0.2-1.7-0.4-3.3-0.6-5C184.9,92.6,185.3,85.9,185.7,79.1z"/>
	<path class="st101" d="M174.5,76.7c-0.6,1.8-1.2,3.6-1.8,5.4c-0.6-0.3-1.1-0.5-1.7-0.8C172.2,79.8,173.4,78.3,174.5,76.7
		L174.5,76.7z"/>
	<path class="st96" d="M184.4,54.1c-0.3,0.4-0.6,0.8-0.9,1.2C183.9,54.9,184.2,54.5,184.4,54.1z"/>
	<path class="st96" d="M182.4,56.4c-0.4,0.3-0.8,0.7-1.2,1C181.6,57.1,182,56.7,182.4,56.4z"/>
	<path class="st56" d="M146.2,71.2c0.3,0.4,0.6,0.7,1,1.1C146.8,71.9,146.5,71.5,146.2,71.2z"/>
	<path class="st41" d="M243.6,124.3c-1.8-1.1-3.6-2.2-5.4-3.2c0.3-0.4,0.6-0.8,1-1.3C240.6,121.3,242.1,122.8,243.6,124.3
		L243.6,124.3z"/>
	<path class="st41" d="M243.6,124.4c0.4,0.4,0.8,0.8,1.1,1.1l0,0C244.4,125.1,244,124.7,243.6,124.4L243.6,124.4z"/>
	<path class="st102" d="M277.5,168.3c3.3-1.2,6.2-4.9,10.4-2.1c1,1.4,2,2.7,3,4.1c-2.3,8.8-6.9,10.1-14.4,3.9
		C276.8,172.2,277.2,170.3,277.5,168.3z"/>
	<path class="st103" d="M241.6,214.8c0.6-1.5,1.2-3,1.8-4.4c4-3.7,7.3-1.6,10.6,1.1c0.3,1.9,0.6,3.8,0.9,5.7c-0.4,0.4-0.7,0.8-1,1.2
		l-0.1,0.1C247.7,222.5,244.9,221.6,241.6,214.8z"/>
	<path class="st8" d="M288.7,166.3c4.6-2.3,9.2-4.6,13.8-6.9C299.5,164.9,294.5,166.4,288.7,166.3z"/>
	<path class="st2" d="M310.4,163.9c-0.8,1.2-1.5,2.3-2.3,3.5C308.9,166.3,309.6,165.1,310.4,163.9z"/>
	<path class="st2" d="M307.9,169.6c-0.7,0.4-1.3,0.8-2,1.1c0-0.7,0.1-1.4,0.1-2.2c0.7-0.4,1.4-0.9,2.1-1.3
		C308.1,168.1,308,168.9,307.9,169.6z"/>
	<path class="st69" d="M253.9,218.4c0.3-0.4,0.7-0.8,1-1.2C254.6,217.6,254.2,218,253.9,218.4z"/>
	<path class="st104" d="M225.4,185.5c-4.4,1-8.6,3.3-13.4,1.2c-4.7-2-6.5-5-5.8-10.7c0.5-4.9,3.4-7.8,8.2-8.5c7.5-1,13.8,3.6,13,10
		c-0.3,2.2-2,4.2-3,6.4C224.4,184.3,225.1,185,225.4,185.5L225.4,185.5z"/>
	<path class="st104" d="M226.6,184.4c0.1-0.6,0.1-1.2,0.2-1.8c0.2,0.1,0.5,0.2,0.7,0.3C227.2,183.4,226.9,183.8,226.6,184.4
		L226.6,184.4z"/>
	<path class="st104" d="M226.6,184.3c-0.4,0.4-0.8,0.8-1.1,1.2c0,0,0.1,0.1,0.1,0.1C225.9,185.2,226.3,184.8,226.6,184.3
		C226.6,184.4,226.6,184.3,226.6,184.3z"/>
	<path class="st3" d="M222.1,218.3c-0.8,0.8-1.6,1.5-2.4,2.3c0.4-0.8,0.7-1.6,1.1-2.5C221.3,218.2,221.7,218.3,222.1,218.3z"/>
	<path class="st68" d="M235.7,159.5c-0.2-0.5-0.4-1-0.8-2.2c1.5,0.6,2.5,1.1,3.5,1.5c0,0.2-0.1,0.5-0.1,0.7
		C237.4,159.4,236.5,159.4,235.7,159.5L235.7,159.5z"/>
	<path class="st105" d="M428.7,126c-0.5-0.8-0.9-1.3-1.3-1.8c0.4-0.2,0.9-0.7,1.2-0.6c0.4,0.1,0.9,0.6,1.1,1.1
		C429.8,124.9,429.3,125.4,428.7,126z"/>
	<path class="st106" d="M155.2,178.1c-0.4,2.9-0.6,4.5-0.8,6.1C151.1,183,151.1,183,155.2,178.1z"/>
	<path class="st107" d="M188.1,74.4c-7-1.7-9.5-6.1-6.6-11.4c1.9-3.5,3.1-3.8,9-2.3C194.5,66.1,190.4,70.1,188.1,74.4z"/>
	<path class="st108" d="M188.1,74.4c0.8-2.6,1.7-5.2,2.2-7.9c0.4-1.9,0.2-3.8,0.2-5.8c5.1,1.7,7.1,5.6,6.2,10.5
		c-0.3,1.9-2.5,3.8-4.3,5.1C190.6,77.5,188.9,76.6,188.1,74.4z"/>
	<path class="st51" d="M151.8,54.1c-0.4,0.3-0.8,0.6-1.2,0.9C151.1,54.7,151.4,54.4,151.8,54.1z"/>
	<path class="st109" d="M151.9,58.8c3.5-1.2,7.9-0.3,9.5,2.3c1.4,2.3,2,4.9,0.2,7.4c-1.5,2-6.4,3.3-8.8,2.3
		c-3.2-1.4-5.2-4.5-4.7-7.6C148.7,61.2,150.2,60,151.9,58.8z"/>
	<path class="st110" d="M151.9,58.8c-1.3,1.5-2.6,3-3.9,4.5c-0.5-0.1-1.4-0.3-1.4-0.4C146.6,60,148.4,58.6,151.9,58.8z"/>
	<path class="st111" d="M197.5,114.3c-0.7-3,0.8-4.8,3.3-5.6c2-0.6,3.8-0.1,6.2,1.1c5,2.6,2.5,5.8,2.6,8.9l0,0
		c-1.6-0.1-3.2-0.2-4.7-0.2c-0.4-2.6-2-1.2-3.2-0.9c-0.4,0-0.8,0-1.2,0c-0.2-0.1-0.5-0.2-0.7-0.3c-0.4-0.4-0.6-0.8-0.7-1.3
		c0.2-0.5,0.5-1,1.3-1.2C199.4,114.2,198.3,115,197.5,114.3z"/>
	<path class="st112" d="M197.5,114.3c1.9-0.8,3.8-1.5,5.8-2.3c0.3,0.4,0.6,0.7,0.9,1.1c-1.5,1.1-3,2.3-4.6,3.4
		c0.3,0.4,0.7,0.7,1,1.1l-0.1-0.1c-0.7,0.2-1.4,0.4-2.1,0.6C198.1,116.9,197.8,115.6,197.5,114.3z"/>
	<path class="st113" d="M201.7,117.5c1.2-1.5,2.5-2.9,3.7-4.4c0.3,0.2,0.6,0.3,0.9,0.5c-0.5,1.6-1,3.2-1.4,4.8
		C203.8,118.1,202.8,117.8,201.7,117.5z"/>
	<path class="st114" d="M285,168.7c0.6,1.9,1.1,3.4,1.8,5.3c-1.5,1.1-2.8,3.3-5,1.3c-1.3-1.1-2.8-3.1-2.6-4.5
		C279.6,168.1,282.2,168.1,285,168.7z"/>
	<path class="st115" d="M249.3,210.5c1,2,2.2,3.9,3,6c0.1,0.2-2.5,2.1-3.4,1.8c-1.6-0.5-3.7-1.8-4-3.2c-0.3-1.3,1.3-3.1,2.1-4.7
		C247.8,210.5,248.6,210.5,249.3,210.5z"/>
	<path class="st116" d="M208.9,177c1.6-5.3,3.9-7.3,8-7.3c3.7,0,6.5,2.9,7.7,6.8c1,3.2-0.7,4.7-2.8,5.9
		C218.5,184.6,214.1,182.7,208.9,177z"/>
	<path class="st98" d="M200.6,117.6c-0.3-0.4-0.7-0.7-1-1.1C199.9,116.9,200.2,117.3,200.6,117.6z"/>
</g>
</svg>
