<?xml version="1.0" encoding="UTF-8"?>
<svg width="1871.5" height="589.12" version="1.1" viewBox="0 0 495.17 155.87" xmlns="http://www.w3.org/2000/svg" xmlns:cc="http://creativecommons.org/ns#" xmlns:dc="http://purl.org/dc/elements/1.1/" xmlns:rdf="http://www.w3.org/1999/02/22-rdf-syntax-ns#">
 <title>1920x1080</title>
 <metadata>
  <rdf:RDF>
   <cc:Work rdf:about="">
    <dc:format>image/svg+xml</dc:format>
    <dc:type rdf:resource="http://purl.org/dc/dcmitype/StillImage"/>
    <dc:title>1920x1080</dc:title>
    <cc:license rdf:resource="http://artlibre.org/licence/lal"/>
    <dc:publisher>
     <cc:Agent>
      <dc:title>brontosaurusrex</dc:title>
     </cc:Agent>
    </dc:publisher>
   </cc:Work>
   <cc:License rdf:about="http://artlibre.org/licence/lal">
    <cc:permits rdf:resource="http://creativecommons.org/ns#Reproduction"/>
    <cc:permits rdf:resource="http://creativecommons.org/ns#Distribution"/>
    <cc:permits rdf:resource="http://creativecommons.org/ns#DerivativeWorks"/>
    <cc:requires rdf:resource="http://creativecommons.org/ns#ShareAlike"/>
    <cc:requires rdf:resource="http://creativecommons.org/ns#Notice"/>
    <cc:requires rdf:resource="http://creativecommons.org/ns#Attribution"/>
   </cc:License>
  </rdf:RDF>
 </metadata>
 <g transform="translate(-6.4148 -76.39)">
  <g fill="#a7c8d2" stroke-width=".81412" aria-label="COOLVETICA Kjulvetika">
   <path d="m44.79 156.92c0 8.2845-3.5952 12.192-10.629 12.192-7.3466 0-10.473-4.2204-10.473-12.192v-54.865c0-8.1282 3.5952-12.505 10.473-12.505 7.034 0 10.629 4.533 10.629 12.661v12.349h13.286v-12.349c0-17.194-8.5971-25.791-24.385-25.791-15.631 0-23.916 8.5971-23.916 25.948v53.458c0 16.882 8.2845 26.26 24.385 26.26 15.631 0 23.916-8.5971 23.916-25.948v-17.351h-13.286z"/>
   <path d="m115.13 103.46c0-16.882-8.9097-27.042-24.541-27.042-15.631 0-24.697 9.8476-24.697 26.729v52.677c0 16.882 8.7534 26.26 24.853 26.26 15.631 0 24.385-8.5971 24.385-25.948zm-13.755 53.458c0 8.2845-3.9078 12.192-10.785 12.192-7.034 0-10.785-4.2204-10.785-12.349v-54.709c0-8.1282 3.9078-12.505 10.629-12.505 7.034 0 10.942 4.533 10.942 12.661z"/>
   <path d="m171.71 103.46c0-16.882-8.9097-27.042-24.541-27.042s-24.697 9.8476-24.697 26.729v52.677c0 16.882 8.7534 26.26 24.853 26.26 15.631 0 24.385-8.5971 24.385-25.948zm-13.755 53.458c0 8.2845-3.9078 12.192-10.785 12.192-7.034 0-10.785-4.2204-10.785-12.349v-54.709c0-8.1282 3.9078-12.505 10.629-12.505 7.034 0 10.942 4.533 10.942 12.661z"/>
   <path d="m219.39 181.14v-12.818h-25.635v-90.973h-14.068v103.79z"/>
   <path d="m248.62 181.14 17.507-103.79h-13.599l-12.974 81.907h-0.62524l-13.13-81.907h-13.912l17.663 103.79z"/>
   <path d="m311.14 181.14v-12.661h-25.01v-35.326h21.727v-12.818h-21.727v-30.324h23.759v-12.661h-37.515v103.79z"/>
   <path d="m348.03 181.14v-91.129h17.663v-12.661h-48.925v12.661h17.351v91.129z"/>
   <path d="m386.8 181.14v-103.79h-14.068v103.79z"/>
   <path d="m430.25 156.92c0 8.2845-3.5952 12.192-10.629 12.192-7.3466 0-10.473-4.2204-10.473-12.192v-54.865c0-8.1282 3.5952-12.505 10.473-12.505 7.034 0 10.629 4.533 10.629 12.661v12.349h13.286v-12.349c0-17.194-8.5971-25.791-24.385-25.791-15.631 0-23.916 8.5971-23.916 25.948v53.458c0 16.882 8.2845 26.26 24.385 26.26 15.631 0 23.916-8.5971 23.916-25.948v-17.351h-13.286z"/>
   <path d="m501.37 181.14-17.663-103.79h-18.914l-17.663 103.79h13.599l3.7515-24.385h19.07l4.0641 24.385zm-27.667-81.907h0.62524l7.3466 45.486h-15.318z"/>
   <path d="m19.668 223-4.9152-15.895 4.9548-10.425h-3.6071l-5.7079 11.812h-0.15855v-11.812h-3.6071v26.32h3.6071v-7.6502l1.9026-3.726h0.15855l3.7657 11.376z"/>
   <path d="m13.682 226.29c0 4.0035 1.863 5.9458 5.9061 5.9458 4.0035 0 6.0251-1.9423 6.0251-5.9458v-22.316h-3.4089v22.316c0 1.9423-0.87205 2.854-2.6558 2.854-1.7837 0-2.6161-0.91169-2.6161-2.854v-2.2198h-3.2504zm11.931-24.655v-4.281h-3.4089v4.281z"/>
   <path d="m27.912 203.97v13.279c0 3.8846 1.1892 5.9854 4.4395 5.9854 2.1008 0 3.3296-0.8324 4.2017-2.9729h0.15855l0.07928 2.735h3.2107v-19.026h-3.4089v13.16c-0.47566 2.299-1.0702 3.0918-2.7747 3.0918-1.7045 0-2.4576-0.79277-2.4576-2.9332v-13.319z"/>
   <path d="m45.71 223v-26.637h-3.4089v26.637z"/>
   <path d="m55.897 223 4.0431-19.026h-3.29l-2.8143 14.706h-0.15855l-2.9332-14.706h-3.4485l4.2017 19.026z"/>
   <path d="m72.783 216.42h-3.3693v0.95133c0 1.9026-0.87205 2.854-2.6558 2.854-1.7045 0-2.5765-0.95133-2.5765-2.854v-2.9729h8.6016v-4.717c0-4.0035-1.9423-5.9458-5.9854-5.9458s-5.9458 1.9423-5.9458 5.9458v7.6106c0 4.0431 1.9026 5.9458 5.9061 5.9458 4.0828 0 6.0251-1.9819 6.0251-5.9458zm-3.3693-4.5584h-5.2323v-2.2594c0-1.9026 0.87205-2.854 2.6161-2.854 1.7837 0 2.6161 0.95132 2.6161 2.854z"/>
   <path d="m83.406 217.29c0 1.9423-0.63422 2.854-2.3387 2.854-1.7837 0-2.6161-0.91168-2.6161-2.854v-10.266h7.8881v-3.0522h-7.8881v-5.2719h-3.3693v18.59c0 4.0035 1.863 5.9458 5.9458 5.9458 4.0035 0 5.3116-1.9423 5.3116-5.9458v-5.153h-2.9332z"/>
   <path d="m92.087 223v-19.026h-3.4089v19.026zm0-21.365v-4.281h-3.4089v4.281z"/>
   <path d="m107.03 223-4.7566-11.495 4.8359-7.5313h-3.726l-5.4305 8.0863h-0.15855v-15.697h-3.4089v26.637h3.4089v-5.5098l1.9026-2.6558h0.11892l3.6071 8.1655z"/>
   <path d="m116.46 217.96c-0.59457 1.5063-1.5063 2.2594-3.0918 2.2594-1.4666 0-2.2594-0.63422-2.2594-2.0216v-1.7044c0-1.4666 0.39638-2.2198 2.6161-2.8936 1.4666-0.43603 1.9423-0.47566 2.735-1.0702zm3.3693 5.0341v-14.825c0-3.0125-1.9423-4.4395-5.6683-4.4395-3.8449 0-6.1043 1.5459-6.1043 4.717v1.6252h3.2107v-1.2288c0-1.427 0.91169-2.1405 2.6954-2.1405 1.6648 0 2.4576 0.63422 2.4576 1.9423v0.79277c0 1.2684-1.863 1.5855-3.6071 2.1008-3.726 1.0702-5.0737 2.2198-5.0737 5.5494v1.9026c0 2.5765 1.1892 4.2413 4.162 4.2413 2.4972 0 3.6864-1.1892 4.5188-2.6558h0.15855l0.11892 2.418z"/>
  </g>
 </g>
</svg>
