<?xml version="1.0" encoding="UTF-8" standalone="no"?>
<svg
   xmlns:dc="http://purl.org/dc/elements/1.1/"
   xmlns:cc="http://creativecommons.org/ns#"
   xmlns:rdf="http://www.w3.org/1999/02/22-rdf-syntax-ns#"
   xmlns:svg="http://www.w3.org/2000/svg"
   xmlns="http://www.w3.org/2000/svg"
   xmlns:sodipodi="http://sodipodi.sourceforge.net/DTD/sodipodi-0.dtd"
   xmlns:inkscape="http://www.inkscape.org/namespaces/inkscape"
   width="1871.51"
   height="589.12164"
   viewBox="0 0 495.17036 155.87177"
   version="1.1"
   id="svg8"
   inkscape:version="1.0.2 (e86c870879, 2021-01-15)"
   sodipodi:docname="coolvetica.svg">
  <title
     id="title4490">1920x1080</title>
  <defs
     id="defs2" />
  <sodipodi:namedview
     id="base"
     pagecolor="#636363"
     bordercolor="#666666"
     borderopacity="1.0"
     inkscape:pageopacity="0"
     inkscape:pageshadow="2"
     inkscape:zoom="0.35"
     inkscape:cx="1020.8722"
     inkscape:cy="208.54753"
     inkscape:document-units="px"
     inkscape:current-layer="layer1"
     showgrid="false"
     inkscape:showpageshadow="false"
     inkscape:pagecheckerboard="true"
     units="px"
     inkscape:window-width="1908"
     inkscape:window-height="1087"
     inkscape:window-x="6"
     inkscape:window-y="42"
     inkscape:window-maximized="1"
     showguides="true"
     inkscape:guide-bbox="true"
     guidecolor="#05157e"
     guideopacity="0.13333333"
     inkscape:document-rotation="0"
     fit-margin-top="0.1"
     fit-margin-right="0.8"
     fit-margin-left="0.8"
     fit-margin-bottom="0.1">
    <sodipodi:guide
       position="18.98518,-64.738697"
       orientation="1,0"
       id="guide4483"
       inkscape:locked="false"
       inkscape:label=""
       inkscape:color="rgb(4,102,16)" />
    <sodipodi:guide
       position="476.18518,-64.738697"
       orientation="1,0"
       id="guide4485"
       inkscape:locked="false"
       inkscape:label=""
       inkscape:color="rgb(3,73,12)" />
    <sodipodi:guide
       position="504.23102,-50.451197"
       orientation="0,1"
       id="guide4487"
       inkscape:locked="false"
       inkscape:label="1920x1080, HDTV 10% title safe"
       inkscape:color="rgb(3,73,12)" />
    <sodipodi:guide
       position="-6.4148199,206.72381"
       orientation="0,1"
       id="guide4489"
       inkscape:locked="false"
       inkscape:label=""
       inkscape:color="rgb(3,73,12)" />
  </sodipodi:namedview>
  <metadata
     id="metadata5">
    <rdf:RDF>
      <cc:Work
         rdf:about="">
        <dc:format>image/svg+xml</dc:format>
        <dc:type
           rdf:resource="http://purl.org/dc/dcmitype/StillImage" />
        <dc:title>1920x1080</dc:title>
        <cc:license
           rdf:resource="http://artlibre.org/licence/lal" />
        <dc:publisher>
          <cc:Agent>
            <dc:title>brontosaurusrex</dc:title>
          </cc:Agent>
        </dc:publisher>
      </cc:Work>
      <cc:License
         rdf:about="http://artlibre.org/licence/lal">
        <cc:permits
           rdf:resource="http://creativecommons.org/ns#Reproduction" />
        <cc:permits
           rdf:resource="http://creativecommons.org/ns#Distribution" />
        <cc:permits
           rdf:resource="http://creativecommons.org/ns#DerivativeWorks" />
        <cc:requires
           rdf:resource="http://creativecommons.org/ns#ShareAlike" />
        <cc:requires
           rdf:resource="http://creativecommons.org/ns#Notice" />
        <cc:requires
           rdf:resource="http://creativecommons.org/ns#Attribution" />
      </cc:License>
    </rdf:RDF>
  </metadata>
  <g
     inkscape:label="Layer 1"
     inkscape:groupmode="layer"
     id="layer1"
     transform="translate(-6.41482,-76.389517)">
    <g
       aria-label="COOLVETICA
Kjulvetika"
       id="text837"
       style="font-style:normal;font-weight:normal;font-size:156.311px;line-height:0;font-family:sans-serif;fill:#a7c8d2;fill-opacity:1;stroke:none;stroke-width:0.814117">
      <path
         d="m 44.790309,156.91614 c 0,8.28449 -3.595153,12.19226 -10.629148,12.19226 -7.346617,0 -10.472837,-4.2204 -10.472837,-12.19226 v -54.86516 c 0,-8.128172 3.595153,-12.504881 10.472837,-12.504881 7.033995,0 10.629148,4.53302 10.629148,12.661191 v 12.34857 h 13.286436 v -12.34857 c 0,-17.19421 -8.597105,-25.791315 -24.384517,-25.791315 -15.6311,0 -23.9155836,8.597105 -23.9155836,25.947625 v 53.45837 c 0,16.88158 8.2844836,26.26024 24.3845166,26.26024 15.631101,0 23.915584,-8.5971 23.915584,-25.94762 V 138.78407 H 44.790309 Z"
         style="font-style:normal;font-variant:normal;font-weight:normal;font-stretch:condensed;font-size:156.311px;line-height:0.55;font-family:Coolvetica;-inkscape-font-specification:'Coolvetica Condensed';fill:#a7c8d2;fill-opacity:1;stroke-width:0.814117"
         id="path841" />
      <path
         d="m 115.1301,103.45778 c 0,-16.88159 -8.90973,-27.041805 -24.540827,-27.041805 -15.6311,0 -24.697139,9.847593 -24.697139,26.729185 v 52.67681 c 0,16.88158 8.753417,26.26024 24.85345,26.26024 15.631096,0 24.384516,-8.5971 24.384516,-25.94762 z m -13.75537,53.45836 c 0,8.28449 -3.907773,12.19226 -10.785457,12.19226 -7.033995,0 -10.785459,-4.2204 -10.785459,-12.34857 v -54.70885 c 0,-8.128172 3.907775,-12.504881 10.629148,-12.504881 7.033995,0 10.941768,4.53302 10.941768,12.661191 z"
         style="font-style:normal;font-variant:normal;font-weight:normal;font-stretch:condensed;font-size:156.311px;line-height:0.55;font-family:Coolvetica;-inkscape-font-specification:'Coolvetica Condensed';fill:#a7c8d2;fill-opacity:1;stroke-width:0.814117"
         id="path843" />
      <path
         d="m 171.71461,103.45778 c 0,-16.88159 -8.90973,-27.041805 -24.54083,-27.041805 -15.6311,0 -24.69714,9.847593 -24.69714,26.729185 v 52.67681 c 0,16.88158 8.75342,26.26024 24.85345,26.26024 15.6311,0 24.38452,-8.5971 24.38452,-25.94762 z m -13.75537,53.45836 c 0,8.28449 -3.90778,12.19226 -10.78546,12.19226 -7.034,0 -10.78546,-4.2204 -10.78546,-12.34857 v -54.70885 c 0,-8.128172 3.90778,-12.504881 10.62915,-12.504881 7.03399,0 10.94177,4.53302 10.94177,12.661191 z"
         style="font-style:normal;font-variant:normal;font-weight:normal;font-stretch:condensed;font-size:156.311px;line-height:0.55;font-family:Coolvetica;-inkscape-font-specification:'Coolvetica Condensed';fill:#a7c8d2;fill-opacity:1;stroke-width:0.814117"
         id="path845" />
      <path
         d="m 219.38938,181.14435 v -12.8175 h -25.635 V 77.353841 H 179.68639 V 181.14435 Z"
         style="font-style:normal;font-variant:normal;font-weight:normal;font-stretch:condensed;font-size:156.311px;line-height:0.55;font-family:Coolvetica;-inkscape-font-specification:'Coolvetica Condensed';fill:#a7c8d2;fill-opacity:1;stroke-width:0.814117"
         id="path847" />
      <path
         d="M 248.61935,181.14435 266.12618,77.353841 h -13.59905 l -12.97382,81.906969 h -0.62524 L 225.79794,77.353841 h -13.91168 l 17.66315,103.790509 z"
         style="font-style:normal;font-variant:normal;font-weight:normal;font-stretch:condensed;font-size:156.311px;line-height:0.55;font-family:Coolvetica;-inkscape-font-specification:'Coolvetica Condensed';fill:#a7c8d2;fill-opacity:1;stroke-width:0.814117"
         id="path849" />
      <path
         d="m 311.1437,181.14435 v -12.66119 h -25.00976 v -35.32629 h 21.72723 v -12.8175 H 286.13394 V 90.015032 h 23.75927 V 77.353841 H 272.37857 V 181.14435 Z"
         style="font-style:normal;font-variant:normal;font-weight:normal;font-stretch:condensed;font-size:156.311px;line-height:0.55;font-family:Coolvetica;-inkscape-font-specification:'Coolvetica Condensed';fill:#a7c8d2;fill-opacity:1;stroke-width:0.814117"
         id="path851" />
      <path
         d="M 348.03308,181.14435 V 90.015032 h 17.66314 V 77.353841 h -48.92534 v 12.661191 h 17.35052 v 91.129318 z"
         style="font-style:normal;font-variant:normal;font-weight:normal;font-stretch:condensed;font-size:156.311px;line-height:0.55;font-family:Coolvetica;-inkscape-font-specification:'Coolvetica Condensed';fill:#a7c8d2;fill-opacity:1;stroke-width:0.814117"
         id="path853" />
      <path
         d="M 386.79797,181.14435 V 77.353841 H 372.72998 V 181.14435 Z"
         style="font-style:normal;font-variant:normal;font-weight:normal;font-stretch:condensed;font-size:156.311px;line-height:0.55;font-family:Coolvetica;-inkscape-font-specification:'Coolvetica Condensed';fill:#a7c8d2;fill-opacity:1;stroke-width:0.814117"
         id="path855" />
      <path
         d="m 430.25228,156.91614 c 0,8.28449 -3.59515,12.19226 -10.62914,12.19226 -7.34662,0 -10.47284,-4.2204 -10.47284,-12.19226 v -54.86516 c 0,-8.128172 3.59515,-12.504881 10.47284,-12.504881 7.03399,0 10.62914,4.53302 10.62914,12.661191 v 12.34857 h 13.28644 v -12.34857 c 0,-17.19421 -8.59711,-25.791315 -24.38452,-25.791315 -15.6311,0 -23.91558,8.597105 -23.91558,25.947625 v 53.45837 c 0,16.88158 8.28448,26.26024 24.38452,26.26024 15.6311,0 23.91558,-8.5971 23.91558,-25.94762 v -17.35052 h -13.28644 z"
         style="font-style:normal;font-variant:normal;font-weight:normal;font-stretch:condensed;font-size:156.311px;line-height:0.55;font-family:Coolvetica;-inkscape-font-specification:'Coolvetica Condensed';fill:#a7c8d2;fill-opacity:1;stroke-width:0.814117"
         id="path857" />
      <path
         d="M 501.37353,181.14435 483.71038,77.353841 H 464.79675 L 447.13361,181.14435 h 13.59906 l 3.75146,-24.38452 h 19.06994 l 4.06409,24.38452 z M 473.70648,99.237382 h 0.62524 l 7.34662,45.486498 h -15.31848 z"
         style="font-style:normal;font-variant:normal;font-weight:normal;font-stretch:condensed;font-size:156.311px;line-height:0.55;font-family:Coolvetica;-inkscape-font-specification:'Coolvetica Condensed';fill:#a7c8d2;fill-opacity:1;stroke-width:0.814117"
         id="path859" />
      <path
         d="m 19.667553,222.99906 -4.915174,-15.89504 4.954813,-10.42492 h -3.607104 l -5.707944,11.81227 H 10.23359 V 196.6791 H 6.6264867 v 26.31996 H 10.23359 v -7.65023 l 1.902648,-3.72602 h 0.158554 l 3.765658,11.37625 z"
         style="font-style:normal;font-variant:normal;font-weight:normal;font-stretch:condensed;font-size:39.6385px;line-height:0.55;font-family:Coolvetica;-inkscape-font-specification:'Coolvetica Condensed';fill:#a7c8d2;fill-opacity:1;stroke-width:0.814117"
         id="path861" />
      <path
         d="m 13.682066,226.28906 c 0,4.00349 1.863009,5.94577 5.906136,5.94577 4.003489,0 6.025052,-1.94228 6.025052,-5.94577 v -22.31648 h -3.408911 v 22.31648 c 0,1.94228 -0.872047,2.85397 -2.655779,2.85397 -1.783733,0 -2.616141,-0.91169 -2.616141,-2.85397 v -2.21976 h -3.250357 z m 11.931188,-24.65515 v -4.28096 h -3.408911 v 4.28096 z"
         style="font-style:normal;font-variant:normal;font-weight:normal;font-stretch:condensed;font-size:39.6385px;line-height:0.55;font-family:Coolvetica;-inkscape-font-specification:'Coolvetica Condensed';fill:#a7c8d2;fill-opacity:1;stroke-width:0.814117"
         id="path863" />
      <path
         d="m 27.91228,203.97258 v 13.2789 c 0,3.88457 1.189155,5.98541 4.439512,5.98541 2.100841,0 3.329634,-0.8324 4.201681,-2.97288 h 0.158554 l 0.07928,2.73505 h 3.210719 v -19.02648 h -3.408911 v 13.15998 c -0.475662,2.29904 -1.07024,3.09181 -2.774695,3.09181 -1.704456,0 -2.457587,-0.79277 -2.457587,-2.93325 v -13.31854 z"
         style="font-style:normal;font-variant:normal;font-weight:normal;font-stretch:condensed;font-size:39.6385px;line-height:0.55;font-family:Coolvetica;-inkscape-font-specification:'Coolvetica Condensed';fill:#a7c8d2;fill-opacity:1;stroke-width:0.814117"
         id="path865" />
      <path
         d="m 45.709928,222.99906 v -26.63707 h -3.408911 v 26.63707 z"
         style="font-style:normal;font-variant:normal;font-weight:normal;font-stretch:condensed;font-size:39.6385px;line-height:0.55;font-family:Coolvetica;-inkscape-font-specification:'Coolvetica Condensed';fill:#a7c8d2;fill-opacity:1;stroke-width:0.814117"
         id="path867" />
      <path
         d="m 55.896983,222.99906 4.043127,-19.02648 h -3.289995 l -2.814334,14.70589 h -0.158554 l -2.933249,-14.70589 h -3.448549 l 4.201681,19.02648 z"
         style="font-style:normal;font-variant:normal;font-weight:normal;font-stretch:condensed;font-size:39.6385px;line-height:0.55;font-family:Coolvetica;-inkscape-font-specification:'Coolvetica Condensed';fill:#a7c8d2;fill-opacity:1;stroke-width:0.814117"
         id="path869" />
      <path
         d="m 72.782964,216.41907 h -3.369273 v 0.95133 c 0,1.90264 -0.872047,2.85397 -2.655779,2.85397 -1.704456,0 -2.576503,-0.95133 -2.576503,-2.85397 v -2.97289 h 8.601555 v -4.71698 c 0,-4.00349 -1.942287,-5.94578 -5.985414,-5.94578 -4.043127,0 -5.945775,1.94229 -5.945775,5.94578 v 7.61059 c 0,4.04313 1.902648,5.94577 5.906137,5.94577 4.082765,0 6.025052,-1.98192 6.025052,-5.94577 z m -3.369273,-4.55843 h -5.232282 v -2.25939 c 0,-1.90265 0.872047,-2.85397 2.616141,-2.85397 1.783733,0 2.616141,0.95132 2.616141,2.85397 z"
         style="font-style:normal;font-variant:normal;font-weight:normal;font-stretch:condensed;font-size:39.6385px;line-height:0.55;font-family:Coolvetica;-inkscape-font-specification:'Coolvetica Condensed';fill:#a7c8d2;fill-opacity:1;stroke-width:0.814117"
         id="path871" />
      <path
         d="m 83.406054,217.29112 c 0,1.94229 -0.634216,2.85397 -2.338671,2.85397 -1.783733,0 -2.616141,-0.91168 -2.616141,-2.85397 v -10.26637 h 7.888061 v -3.05217 h -7.888061 v -5.27192 h -3.369273 v 18.59046 c 0,4.00349 1.86301,5.94577 5.945775,5.94577 4.003489,0 5.311559,-1.94228 5.311559,-5.94577 v -5.15301 h -2.933249 z"
         style="font-style:normal;font-variant:normal;font-weight:normal;font-stretch:condensed;font-size:39.6385px;line-height:0.55;font-family:Coolvetica;-inkscape-font-specification:'Coolvetica Condensed';fill:#a7c8d2;fill-opacity:1;stroke-width:0.814117"
         id="path873" />
      <path
         d="m 92.08682,222.99906 v -19.02648 h -3.408911 v 19.02648 z m 0,-21.36515 v -4.28096 h -3.408911 v 4.28096 z"
         style="font-style:normal;font-variant:normal;font-weight:normal;font-stretch:condensed;font-size:39.6385px;line-height:0.55;font-family:Coolvetica;-inkscape-font-specification:'Coolvetica Condensed';fill:#a7c8d2;fill-opacity:1;stroke-width:0.814117"
         id="path875" />
      <path
         d="m 107.0305,222.99906 -4.75662,-11.49516 4.8359,-7.53132 h -3.72602 l -5.430478,8.08626 h -0.158554 v -15.69685 h -3.408911 v 26.63707 h 3.408911 v -5.50975 l 1.902648,-2.65578 h 0.118916 l 3.607108,8.16553 z"
         style="font-style:normal;font-variant:normal;font-weight:normal;font-stretch:condensed;font-size:39.6385px;line-height:0.55;font-family:Coolvetica;-inkscape-font-specification:'Coolvetica Condensed';fill:#a7c8d2;fill-opacity:1;stroke-width:0.814117"
         id="path877" />
      <path
         d="m 116.46438,217.96497 c -0.59457,1.50627 -1.50626,2.2594 -3.0918,2.2594 -1.46662,0 -2.25939,-0.63422 -2.25939,-2.02157 v -1.70445 c 0,-1.46663 0.39638,-2.21976 2.61614,-2.89361 1.46662,-0.43603 1.94228,-0.47566 2.73505,-1.07024 z m 3.36928,5.03409 v -14.8248 c 0,-3.01252 -1.94229,-4.43951 -5.66831,-4.43951 -3.84493,0 -6.10433,1.5459 -6.10433,4.71698 v 1.62518 h 3.21072 v -1.22879 c 0,-1.42699 0.91169,-2.14048 2.69542,-2.14048 1.66482,0 2.45759,0.63422 2.45759,1.94229 v 0.79277 c 0,1.26843 -1.86301,1.58554 -3.60711,2.10084 -3.72602,1.07024 -5.07373,2.21975 -5.07373,5.54939 v 1.90264 c 0,2.57651 1.18916,4.24132 4.16205,4.24132 2.49722,0 3.68638,-1.18915 4.51879,-2.65578 h 0.15855 l 0.11892,2.41795 z"
         style="font-style:normal;font-variant:normal;font-weight:normal;font-stretch:condensed;font-size:39.6385px;line-height:0.55;font-family:Coolvetica;-inkscape-font-specification:'Coolvetica Condensed';fill:#a7c8d2;fill-opacity:1;stroke-width:0.814117"
         id="path879" />
    </g>
  </g>
</svg>
