<?xml version="1.0" encoding="UTF-8" standalone="no"?>
<svg
   id="canvas"
   viewBox="280.86 416.142 433.31636 242.15918"
   version="1.1"
   sodipodi:docname="debianAIhand.svg"
   width="433.31635"
   height="242.15918"
   inkscape:version="1.2 (dc2aedaf03, 2022-05-15)"
   xmlns:inkscape="http://www.inkscape.org/namespaces/inkscape"
   xmlns:sodipodi="http://sodipodi.sourceforge.net/DTD/sodipodi-0.dtd"
   xmlns="http://www.w3.org/2000/svg"
   xmlns:svg="http://www.w3.org/2000/svg">
  <defs
     id="defs31" />
  <sodipodi:namedview
     id="namedview29"
     pagecolor="#ffffff"
     bordercolor="#666666"
     borderopacity="1.0"
     inkscape:showpageshadow="false"
     inkscape:pageopacity="0.0"
     inkscape:pagecheckerboard="0"
     inkscape:deskcolor="#d1d1d1"
     showgrid="false"
     shape-rendering="auto"
     inkscape:zoom="1.2277456"
     inkscape:cx="605.98872"
     inkscape:cy="40.317798"
     inkscape:window-width="2880"
     inkscape:window-height="1586"
     inkscape:window-x="2869"
     inkscape:window-y="-11"
     inkscape:window-maximized="1"
     inkscape:current-layer="canvas" />
  <path
     d="m 311.19941,421.30488 c -0.24,0.21 -0.3,0.42 -0.53,1.11 -0.23,0.7 -0.3,1.06 -0.62,2.38 -0.32,1.31 -0.48,2.18 -0.99,4.19 -0.51,2 -0.81,3.26 -1.56,5.84 -0.74,2.57 -1.21,4.08 -2.18,7.04 -0.96,2.96 -1.55,4.64 -2.65,7.76 -1.09,3.12 -1.71,4.8 -2.81,7.84 -1.1,3.04 -1.72,4.6 -2.69,7.35 -0.97,2.75 -1.41,4.14 -2.16,6.4 -0.75,2.26 -1.09,3.31 -1.57,4.89 -0.48,1.58 -0.66,2.25 -0.84,3.01 -0.18,0.77 -0.12,0.94 -0.06,0.8 0.06,-0.14 0.21,-0.46 0.37,-1.48 0.16,-1.01 0.23,-1.79 0.43,-3.59 0.19,-1.81 0.26,-3.03 0.55,-5.43 0.29,-2.4 0.45,-3.85 0.9,-6.59 0.44,-2.75 0.68,-4.27 1.31,-7.13 0.62,-2.86 1.02,-4.33 1.82,-7.18 0.79,-2.84 1.24,-4.32 2.17,-7.04 0.93,-2.73 1.44,-4.13 2.47,-6.58 1.04,-2.45 1.58,-3.62 2.71,-5.69 1.12,-2.07 1.72,-3.04 2.92,-4.66 1.21,-1.61 1.83,-2.35 3.09,-3.43 1.25,-1.09 1.89,-1.49 3.19,-1.99 1.31,-0.49 1.93,-0.59 3.31,-0.49 1.38,0.09 2.09,0.31 3.58,0.97 1.49,0.66 2.34,1.15 3.87,2.33 1.52,1.18 2.36,1.94 3.76,3.56 1.4,1.62 2.14,2.56 3.21,4.54 1.08,1.98 1.58,3.08 2.15,5.35 0.56,2.28 0.73,3.51 0.69,6.03 -0.04,2.52 -0.22,3.89 -0.9,6.58 -0.69,2.69 -1.19,4.11 -2.53,6.87 -1.34,2.77 -2.21,4.23 -4.17,6.95 -1.95,2.72 -3.13,4.1 -5.62,6.65 -2.49,2.55 -3.97,3.83 -6.82,6.11 -2.85,2.28 -4.44,3.38 -7.44,5.29 -3,1.9 -4.67,2.8 -7.56,4.22 -2.9,1.41 -4.42,2 -6.91,2.87 -2.49,0.88 -3.73,1.19 -5.56,1.5 -1.83,0.31 -2.63,0.31 -3.6,0.06 -0.98,-0.26 -1.2,-0.57 -1.27,-1.35 -0.07,-0.78 0.12,-1.33 0.93,-2.57 0.8,-1.24 1.45,-2.07 3.1,-3.63 1.64,-1.57 2.72,-2.49 5.13,-4.2 2.42,-1.71 3.92,-2.67 6.94,-4.36 3.02,-1.69 4.77,-2.54 8.16,-4.1 3.39,-1.56 5.25,-2.27 8.8,-3.71 3.56,-1.43 5.47,-2.11 8.99,-3.45 3.52,-1.34 5.34,-2.01 8.64,-3.24 3.29,-1.22 4.98,-1.74 7.85,-2.88 2.87,-1.13 4.28,-1.69 6.51,-2.79 2.22,-1.09 3.22,-1.69 4.63,-2.69 1.4,-0.99 1.9,-1.46 2.4,-2.28 0.49,-0.82 0.44,-1.26 0.08,-1.81 -0.36,-0.56 -0.85,-0.87 -1.87,-0.98 -1.02,-0.11 -1.78,-0.05 -3.24,0.42 -1.47,0.46 -2.36,0.86 -4.08,1.9 -1.72,1.04 -2.77,1.77 -4.52,3.31 -1.75,1.54 -2.73,2.54 -4.24,4.4 -1.5,1.85 -2.28,2.95 -3.28,4.86 -0.99,1.92 -1.4,2.98 -1.69,4.7 -0.29,1.73 -0.24,2.6 0.24,3.92 0.49,1.32 0.97,1.94 2.19,2.68 1.21,0.74 2.08,0.97 3.88,1.02 1.8,0.04 2.93,-0.1 5.12,-0.79 2.19,-0.7 3.46,-1.3 5.84,-2.7 2.38,-1.4 3.62,-2.34 6.08,-4.29 2.46,-1.95 3.79,-3.11 6.22,-5.45 2.43,-2.35 3.69,-3.66 5.94,-6.28 2.25,-2.61 3.35,-4.08 5.33,-6.78 1.98,-2.71 2.97,-4.12 4.58,-6.74 1.61,-2.62 2.34,-3.95 3.48,-6.36 1.14,-2.4 1.58,-3.6 2.23,-5.66 0.65,-2.06 0.9,-3.03 1.03,-4.65 0.13,-1.62 0.07,-2.42 -0.39,-3.46 -0.45,-1.05 -0.91,-1.56 -1.88,-1.79 -0.97,-0.23 -1.64,-0.1 -2.96,0.65 -1.31,0.75 -2.08,1.43 -3.61,3.12 -1.52,1.69 -2.4,2.86 -4.01,5.34 -1.6,2.47 -2.48,4.08 -4.01,7.02 -1.53,2.95 -2.34,4.6 -3.65,7.7 -1.3,3.09 -1.98,4.82 -2.89,7.77 -0.92,2.95 -1.31,4.47 -1.69,6.96 -0.38,2.5 -0.41,3.64 -0.22,5.5 0.19,1.86 0.48,2.66 1.16,3.82 0.69,1.16 1.19,1.55 2.25,1.98 1.06,0.43 1.8,0.45 3.05,0.18 1.25,-0.27 1.95,-0.62 3.2,-1.55 1.24,-0.93 1.88,-1.67 3.03,-3.09 1.16,-1.43 1.76,-2.37 2.74,-4.02 0.99,-1.64 1.46,-2.68 2.19,-4.23 0.74,-1.55 1.07,-2.38 1.49,-3.51 0.42,-1.14 0.49,-1.59 0.61,-2.16 0.13,-0.57 0.02,-0.67 0.02,-0.68 0,-0.02 -0.15,0.23 -0.01,0.62 0.14,0.39 0.21,0.82 0.73,1.32 0.51,0.5 0.96,0.8 1.85,1.17 0.88,0.38 1.46,0.57 2.58,0.72 1.12,0.15 1.75,0.12 3.01,0.03 1.25,-0.08 1.97,-0.19 3.28,-0.46 1.3,-0.27 2.06,-0.49 3.24,-0.88 1.18,-0.38 1.87,-0.7 2.67,-1.03 0.8,-0.32 1.09,-0.59 1.34,-0.58 0.24,0.02 0.11,0.09 -0.13,0.65 -0.23,0.57 -0.57,1.09 -1.04,2.18 -0.46,1.09 -0.79,1.9 -1.26,3.27 -0.47,1.36 -0.73,2.19 -1.07,3.54 -0.33,1.36 -0.56,2.09 -0.6,3.23 -0.05,1.14 0,1.73 0.37,2.47 0.36,0.73 0.66,0.96 1.46,1.19 0.8,0.23 1.46,0.43 2.53,-0.04 1.06,-0.47 2.39,-1.61 2.79,-2.32 0.4,-0.71 -0.04,-1.28 -0.8,-1.24 -0.77,0.05 -2.15,0.98 -3.02,1.47 -0.88,0.49 -1.02,0.87 -1.38,0.98 -0.36,0.11 -0.4,0.02 -0.42,-0.43 -0.03,-0.46 0.05,-0.9 0.28,-1.84 0.22,-0.94 0.42,-1.62 0.85,-2.86 0.43,-1.24 0.81,-2 1.3,-3.34 0.49,-1.35 0.86,-2.14 1.15,-3.37 0.29,-1.23 0.43,-1.9 0.31,-2.78 -0.12,-0.88 -0.31,-1.24 -0.92,-1.63 -0.61,-0.38 -1.14,-0.38 -2.14,-0.29 -1,0.09 -1.68,0.42 -2.87,0.74 -1.19,0.32 -1.86,0.58 -3.07,0.84 -1.22,0.26 -1.89,0.37 -3,0.45 -1.11,0.08 -1.65,0.11 -2.56,-0.04 -0.91,-0.14 -1.31,-0.39 -1.99,-0.69 -0.69,-0.3 -0.93,-0.53 -1.44,-0.81 -0.51,-0.29 -0.67,-0.45 -1.1,-0.6 -0.44,-0.16 -0.67,-0.29 -1.08,-0.19 -0.4,0.11 -0.52,0.17 -0.93,0.7 -0.42,0.53 -0.57,0.91 -1.14,1.96 -0.58,1.05 -0.94,1.84 -1.73,3.31 -0.79,1.47 -1.26,2.47 -2.22,4.03 -0.96,1.57 -1.54,2.46 -2.57,3.8 -1.03,1.33 -1.59,2 -2.59,2.88 -1,0.88 -1.49,1.17 -2.39,1.51 -0.91,0.34 -1.41,0.42 -2.14,0.18 -0.73,-0.24 -1.07,-0.45 -1.52,-1.38 -0.46,-0.94 -0.7,-1.62 -0.77,-3.3 -0.07,-1.67 0,-2.73 0.41,-5.09 0.41,-2.36 0.76,-3.85 1.64,-6.72 0.88,-2.87 1.49,-4.6 2.78,-7.62 1.29,-3.02 2.1,-4.66 3.68,-7.49 1.59,-2.84 2.61,-4.32 4.23,-6.68 1.61,-2.36 2.49,-3.46 3.84,-5.12 1.36,-1.65 1.99,-2.3 2.93,-3.14 0.94,-0.83 1.25,-1.04 1.78,-1.02 0.52,0.02 0.67,0.33 0.85,1.13 0.17,0.81 0.22,1.45 0,2.88 -0.22,1.43 -0.42,2.35 -1.09,4.29 -0.66,1.94 -1.11,3.09 -2.22,5.42 -1.11,2.33 -1.78,3.65 -3.33,6.23 -1.55,2.59 -2.49,4.01 -4.42,6.68 -1.93,2.67 -3.02,4.12 -5.24,6.68 -2.23,2.56 -3.47,3.84 -5.88,6.1 -2.42,2.26 -3.77,3.37 -6.2,5.19 -2.44,1.83 -3.7,2.65 -5.98,3.95 -2.29,1.3 -3.46,1.86 -5.45,2.55 -1.98,0.69 -2.95,0.82 -4.47,0.91 -1.53,0.09 -2.2,0.01 -3.14,-0.45 -0.94,-0.46 -1.26,-0.84 -1.56,-1.83 -0.3,-0.99 -0.29,-1.67 0.07,-3.12 0.36,-1.44 0.75,-2.39 1.74,-4.1 0.99,-1.71 1.75,-2.75 3.2,-4.45 1.46,-1.71 2.4,-2.65 4.06,-4.07 1.66,-1.43 2.67,-2.08 4.25,-3.04 1.58,-0.97 2.41,-1.24 3.66,-1.77 1.25,-0.54 1.81,-0.68 2.57,-0.89 0.76,-0.22 1.06,-0.29 1.23,-0.19 0.17,0.1 0.19,0.21 -0.37,0.68 -0.56,0.46 -1.03,0.83 -2.42,1.64 -1.4,0.81 -2.37,1.38 -4.55,2.43 -2.18,1.05 -3.54,1.65 -6.36,2.82 -2.83,1.16 -4.49,1.75 -7.76,3.02 -3.28,1.26 -5.09,1.95 -8.62,3.31 -3.52,1.35 -5.43,2.03 -9.01,3.45 -3.58,1.43 -5.44,2.13 -8.89,3.66 -3.45,1.53 -5.22,2.36 -8.35,3.99 -3.12,1.64 -4.72,2.48 -7.28,4.18 -2.55,1.7 -3.77,2.59 -5.5,4.33 -1.73,1.73 -2.42,2.74 -3.15,4.33 -0.73,1.6 -0.79,2.46 -0.49,3.64 0.3,1.19 0.75,1.74 1.99,2.28 1.25,0.54 2.2,0.6 4.23,0.41 2.04,-0.2 3.35,-0.49 5.95,-1.39 2.59,-0.91 4.1,-1.63 7.04,-3.13 2.94,-1.5 4.62,-2.44 7.66,-4.4 3.04,-1.95 4.64,-3.08 7.55,-5.4 2.91,-2.32 4.42,-3.6 6.99,-6.19 2.56,-2.6 3.79,-4 5.84,-6.78 2.05,-2.78 2.98,-4.26 4.42,-7.12 1.45,-2.86 2.04,-4.34 2.8,-7.18 0.75,-2.84 0.93,-4.32 0.97,-7.03 0.05,-2.7 -0.15,-4.05 -0.75,-6.51 -0.61,-2.47 -1.13,-3.68 -2.26,-5.83 -1.14,-2.15 -1.91,-3.18 -3.41,-4.94 -1.5,-1.76 -2.39,-2.59 -4.08,-3.85 -1.69,-1.27 -2.65,-1.78 -4.37,-2.46 -1.72,-0.67 -2.59,-0.86 -4.23,-0.91 -1.64,-0.05 -2.42,0.09 -3.96,0.66 -1.54,0.57 -2.3,1.03 -3.72,2.21 -1.42,1.17 -2.1,1.97 -3.4,3.67 -1.3,1.7 -1.92,2.7 -3.11,4.84 -1.19,2.13 -1.78,3.32 -2.85,5.83 -1.07,2.51 -1.56,3.95 -2.5,6.72 -0.94,2.77 -1.37,4.26 -2.19,7.14 -0.82,2.87 -1.23,4.36 -1.92,7.24 -0.7,2.89 -1.04,4.42 -1.56,7.19 -0.53,2.77 -0.75,4.23 -1.08,6.67 -0.34,2.45 -0.52,3.68 -0.59,5.56 -0.07,1.88 -0.01,2.72 0.24,3.84 0.26,1.11 0.56,1.52 1.03,1.73 0.48,0.22 0.8,0.08 1.35,-0.64 0.55,-0.71 0.78,-1.38 1.41,-2.95 0.62,-1.56 0.94,-2.61 1.72,-4.86 0.78,-2.25 1.22,-3.62 2.18,-6.37 0.95,-2.75 1.5,-4.34 2.58,-7.38 1.09,-3.04 1.71,-4.71 2.84,-7.83 1.14,-3.11 1.76,-4.77 2.83,-7.72 1.06,-2.95 1.67,-4.42 2.5,-7.02 0.83,-2.59 1.15,-3.88 1.64,-5.94 0.5,-2.06 0.67,-2.97 0.85,-4.36 0.17,-1.38 0.08,-1.81 0.03,-2.57 -0.05,-0.76 -0.09,-0.97 -0.29,-1.23 -0.2,-0.26 -0.45,-0.28 -0.69,-0.07"
     style="fill:#000000;stroke:#000000"
     id="path2" />
  <path
     d="m 410.15941,430.02488 c 0.3,-0.07 0.48,-0.26 0.52,-0.49 0.05,-0.22 -0.07,-0.44 -0.3,-0.62 -0.23,-0.18 -0.55,-0.33 -0.85,-0.28 -0.31,0.04 -0.6,0.23 -0.67,0.48 -0.07,0.25 0.07,0.59 0.33,0.77 0.27,0.19 0.68,0.21 0.97,0.14"
     style="fill:#000000;stroke:#000000"
     id="path4" />
  <path
     d="m 420.83941,446.34488 c 0.3,-0.14 0.47,-0.41 0.71,-0.85 0.24,-0.45 0.42,-0.76 0.48,-1.38 0.05,-0.61 0.07,-1.11 -0.2,-1.68 -0.28,-0.58 -0.58,-0.94 -1.19,-1.19 -0.61,-0.25 -0.97,-0.32 -1.86,-0.05 -0.89,0.26 -1.43,0.49 -2.57,1.36 -1.15,0.86 -1.86,1.56 -3.16,2.96 -1.3,1.4 -2.1,2.31 -3.36,4.02 -1.26,1.7 -1.95,2.76 -2.94,4.51 -0.98,1.74 -1.47,2.7 -1.98,4.21 -0.51,1.52 -0.63,2.27 -0.56,3.36 0.08,1.1 0.29,1.56 0.94,2.1 0.66,0.55 1.22,0.73 2.35,0.62 1.12,-0.11 1.89,-0.36 3.3,-1.17 1.41,-0.81 2.17,-1.52 3.73,-2.87 1.55,-1.36 2.44,-2.26 4.04,-3.92 1.6,-1.66 2.51,-2.68 3.97,-4.38 1.47,-1.71 2.26,-2.69 3.37,-4.16 1.11,-1.48 1.68,-2.27 2.19,-3.22 0.51,-0.95 0.56,-1.35 0.36,-1.53 -0.2,-0.17 -0.64,-0.03 -1.34,0.65 -0.69,0.68 -1.3,1.36 -2.13,2.76 -0.83,1.39 -1.34,2.51 -2,4.23 -0.65,1.71 -0.96,2.76 -1.26,4.35 -0.29,1.6 -0.43,2.39 -0.22,3.62 0.2,1.24 0.47,1.84 1.23,2.58 0.77,0.73 1.35,1.01 2.57,1.11 1.23,0.1 2,-0.07 3.57,-0.6 1.56,-0.52 2.48,-0.99 4.26,-2.01 1.79,-1.03 2.8,-1.76 4.67,-3.11 1.87,-1.35 2.92,-2.25 4.69,-3.63 1.78,-1.39 2.74,-2.14 4.18,-3.28 1.45,-1.15 2.19,-1.76 3.04,-2.43 0.84,-0.66 1.05,-0.89 1.17,-0.9 0.12,0 -0.13,0.24 -0.58,0.87 -0.45,0.63 -0.88,1.19 -1.65,2.29 -0.77,1.1 -1.34,1.9 -2.2,3.21 -0.87,1.32 -1.5,2.15 -2.13,3.36 -0.64,1.21 -0.94,1.88 -1.04,2.71 -0.1,0.83 -0.01,1.23 0.54,1.45 0.55,0.22 1.09,0.14 2.2,-0.33 1.12,-0.47 1.88,-1.01 3.38,-2.04 1.5,-1.02 2.38,-1.84 4.11,-3.08 1.73,-1.25 2.76,-2.03 4.54,-3.14 1.77,-1.1 2.78,-1.66 4.35,-2.4 1.58,-0.73 2.37,-0.97 3.52,-1.29 1.14,-0.31 1.58,-0.37 2.21,-0.27 0.62,0.09 0.73,0.24 0.9,0.73 0.17,0.5 0.04,0.9 -0.04,1.74 -0.09,0.84 -0.26,1.41 -0.4,2.48 -0.15,1.07 -0.31,1.74 -0.32,2.87 0,1.12 0,1.79 0.28,2.76 0.27,0.98 0.46,1.44 1.09,2.11 0.63,0.67 1.02,0.97 2.06,1.25 1.04,0.27 1.79,0.32 3.13,0.13 1.34,-0.19 2.24,-0.52 3.59,-1.08 1.36,-0.57 2.14,-1.06 3.17,-1.74 1.03,-0.68 1.65,-1.2 1.98,-1.67 0.33,-0.46 0.21,-0.66 -0.35,-0.66 -0.56,0 -1.31,0.28 -2.45,0.65 -1.13,0.38 -1.94,0.75 -3.21,1.22 -1.28,0.47 -2.04,0.84 -3.15,1.14 -1.12,0.29 -1.68,0.38 -2.41,0.34 -0.74,-0.04 -0.95,-0.14 -1.29,-0.54 -0.34,-0.41 -0.35,-0.73 -0.41,-1.49 -0.07,-0.76 0,-1.31 0.1,-2.32 0.09,-1.01 0.29,-1.63 0.39,-2.73 0.09,-1.09 0.21,-1.74 0.09,-2.75 -0.12,-1.02 -0.22,-1.6 -0.71,-2.32 -0.49,-0.73 -0.83,-1.04 -1.75,-1.32 -0.92,-0.29 -1.47,-0.31 -2.83,-0.11 -1.35,0.2 -2.22,0.42 -3.95,1.11 -1.73,0.68 -2.79,1.24 -4.69,2.31 -1.9,1.07 -2.99,1.82 -4.79,3.04 -1.8,1.21 -2.79,1.93 -4.21,3.03 -1.43,1.1 -2.12,1.7 -2.93,2.46 -0.82,0.75 -1.06,1.12 -1.17,1.32 -0.12,0.19 0.13,0.11 0.59,-0.36 0.46,-0.48 0.9,-0.99 1.72,-2.02 0.82,-1.03 1.48,-1.82 2.38,-3.14 0.91,-1.31 1.52,-2.14 2.14,-3.43 0.63,-1.29 0.89,-2.05 0.98,-3.02 0.09,-0.97 0.02,-1.49 -0.52,-1.84 -0.53,-0.34 -1.03,-0.32 -2.16,0.13 -1.13,0.45 -1.92,1.05 -3.48,2.11 -1.55,1.06 -2.5,1.85 -4.29,3.19 -1.8,1.34 -2.85,2.22 -4.69,3.52 -1.84,1.3 -2.83,1.99 -4.51,2.99 -1.68,1 -2.54,1.42 -3.88,2 -1.34,0.59 -1.92,0.83 -2.82,0.92 -0.9,0.1 -1.22,0.01 -1.67,-0.43 -0.46,-0.44 -0.61,-0.83 -0.6,-1.78 0.01,-0.95 0.2,-1.61 0.65,-2.99 0.45,-1.38 0.91,-2.31 1.62,-3.9 0.71,-1.58 1.29,-2.6 1.92,-4.03 0.62,-1.44 0.96,-2.21 1.2,-3.14 0.24,-0.92 0.3,-1.33 0.01,-1.49 -0.29,-0.16 -0.65,0 -1.46,0.71 -0.82,0.71 -1.42,1.48 -2.62,2.85 -1.21,1.38 -1.94,2.37 -3.42,4.02 -1.47,1.65 -2.38,2.62 -3.97,4.22 -1.58,1.6 -2.5,2.45 -3.97,3.76 -1.47,1.3 -2.2,1.93 -3.37,2.77 -1.18,0.84 -1.72,1.11 -2.49,1.43 -0.78,0.31 -1.05,0.37 -1.37,0.15 -0.31,-0.23 -0.34,-0.46 -0.2,-1.26 0.14,-0.8 0.3,-1.43 0.89,-2.74 0.59,-1.31 1.07,-2.21 2.08,-3.81 1.01,-1.6 1.71,-2.61 2.96,-4.2 1.25,-1.6 2.06,-2.45 3.29,-3.77 1.23,-1.32 1.92,-1.97 2.86,-2.84 0.95,-0.87 1.34,-1.13 1.86,-1.51 0.52,-0.39 0.62,-0.42 0.74,-0.42 0.11,0 -0.06,0.11 -0.17,0.4 -0.1,0.29 -0.28,0.58 -0.36,1.05 -0.09,0.47 -0.1,0.83 -0.05,1.3 0.06,0.47 0.1,0.81 0.33,1.05 0.23,0.24 0.52,0.3 0.83,0.17"
     style="fill:#000000;stroke:#000000"
     id="path6" />
  <path
     d="m 498.99941,466.31488 c -0.29,0.35 -0.54,0.78 -0.68,1.74 -0.14,0.96 -0.28,2.42 -0.03,3.07 0.25,0.64 0.88,0.75 1.3,0.17 0.42,-0.57 0.76,-2.05 0.8,-3.05 0.04,-0.99 -0.34,-1.53 -0.62,-1.92 -0.28,-0.38 -0.48,-0.36 -0.77,-0.01"
     style="fill:#000000;stroke:#000000"
     id="path8" />
  <path
     d="m 332.44941,490.47488 c -0.2,0.2 -0.18,0.32 -0.37,0.99 -0.19,0.67 -0.26,1.05 -0.58,2.35 -0.33,1.3 -0.42,2.16 -1.04,4.14 -0.62,1.98 -1.11,3.18 -2.07,5.76 -0.96,2.58 -1.51,4.26 -2.74,7.15 -1.23,2.9 -2.03,4.49 -3.4,7.33 -1.37,2.84 -2.23,4.37 -3.45,6.88 -1.22,2.51 -1.78,3.78 -2.66,5.67 -0.88,1.89 -1.27,2.65 -1.74,3.77 -0.47,1.12 -0.48,1.37 -0.61,1.83 -0.14,0.47 -0.08,0.36 -0.07,0.48 0.02,0.12 0.03,0.15 0.16,0.13 0.14,-0.02 0.16,0.11 0.51,-0.24 0.36,-0.36 0.6,-0.5 1.26,-1.54 0.67,-1.03 1.09,-1.79 2.07,-3.64 0.98,-1.85 1.6,-3.09 2.84,-5.59 1.24,-2.51 1.98,-4.09 3.36,-6.95 1.38,-2.85 2.2,-4.45 3.52,-7.34 1.32,-2.89 2.04,-4.51 3.09,-7.11 1.04,-2.61 1.52,-3.85 2.14,-5.92 0.62,-2.07 0.77,-3 0.95,-4.42 0.18,-1.41 0.07,-1.89 -0.04,-2.65 -0.1,-0.75 -0.25,-0.9 -0.47,-1.12 -0.23,-0.21 -0.45,-0.17 -0.66,0.04"
     style="fill:#000000;stroke:#000000"
     id="path10" />
  <path
     d="m 311.48941,490.01488 c 0.22,0.08 0.18,-0.01 0.69,-0.07 0.52,-0.07 0.8,-0.1 1.89,-0.25 1.09,-0.16 1.79,-0.27 3.56,-0.52 1.77,-0.24 2.95,-0.38 5.29,-0.71 2.33,-0.32 3.69,-0.5 6.4,-0.91 2.71,-0.4 4.26,-0.68 7.14,-1.11 2.88,-0.42 4.41,-0.59 7.25,-1.01 2.84,-0.41 4.28,-0.62 6.94,-1.07 2.67,-0.45 3.98,-0.68 6.4,-1.18 2.42,-0.5 3.6,-0.75 5.72,-1.32 2.12,-0.57 3.16,-0.87 4.89,-1.52 1.74,-0.65 2.58,-1.06 3.8,-1.73 1.22,-0.68 1.71,-0.99 2.29,-1.65 0.59,-0.67 0.75,-1.1 0.64,-1.67 -0.12,-0.57 -0.43,-1.01 -1.2,-1.18 -0.77,-0.17 -1.45,-0.15 -2.67,0.32 -1.22,0.48 -1.93,0.92 -3.44,2.05 -1.51,1.13 -2.36,1.85 -4.09,3.61 -1.73,1.76 -2.71,2.84 -4.56,5.19 -1.86,2.35 -2.83,3.81 -4.72,6.55 -1.88,2.74 -2.87,4.27 -4.7,7.15 -1.82,2.87 -2.76,4.42 -4.42,7.22 -1.67,2.8 -2.59,4.29 -3.92,6.79 -1.33,2.5 -1.92,3.78 -2.73,5.73 -0.8,1.95 -1.08,2.81 -1.3,4.02 -0.21,1.21 -0.18,1.58 0.25,2.04 0.43,0.47 0.91,0.56 1.9,0.29 0.99,-0.26 1.66,-0.69 3.06,-1.63 1.4,-0.94 2.24,-1.77 3.93,-3.07 1.69,-1.29 2.78,-2.16 4.5,-3.41 1.72,-1.25 2.68,-1.95 4.1,-2.83 1.42,-0.89 2.11,-1.25 2.98,-1.58 0.86,-0.33 1.11,-0.34 1.35,-0.08 0.23,0.25 0.02,0.55 -0.18,1.35 -0.2,0.79 -0.52,1.45 -0.83,2.61 -0.31,1.17 -0.56,1.96 -0.7,3.2 -0.14,1.24 -0.22,1.93 0,3.02 0.21,1.08 0.38,1.68 1.07,2.39 0.69,0.71 1.2,1.01 2.36,1.18 1.17,0.16 1.87,0.08 3.48,-0.36 1.62,-0.45 2.64,-0.83 4.59,-1.86 1.95,-1.02 3.1,-1.79 5.18,-3.25 2.08,-1.47 3.27,-2.43 5.23,-4.08 1.96,-1.66 3.01,-2.63 4.58,-4.21 1.57,-1.58 2.33,-2.39 3.28,-3.68 0.95,-1.3 1.32,-1.91 1.48,-2.8 0.17,-0.89 -0.05,-1.3 -0.66,-1.66 -0.6,-0.36 -1.23,-0.48 -2.36,-0.15 -1.14,0.34 -1.93,0.76 -3.3,1.82 -1.38,1.06 -2.23,1.93 -3.55,3.5 -1.33,1.56 -2.09,2.55 -3.08,4.31 -0.99,1.77 -1.49,2.8 -1.87,4.51 -0.39,1.7 -0.46,2.64 -0.06,4.03 0.39,1.39 0.83,2 2.03,2.93 1.2,0.94 2.11,1.35 3.97,1.75 1.85,0.4 3.23,0.37 5.3,0.25 2.07,-0.12 3.33,-0.42 5.06,-0.84 1.74,-0.42 2.91,-0.87 3.6,-1.27 0.69,-0.41 0.63,-0.64 -0.15,-0.76 -0.77,-0.12 -2.01,0.06 -3.73,0.17 -1.73,0.12 -2.95,0.31 -4.9,0.39 -1.94,0.09 -3.19,0.23 -4.84,0.04 -1.65,-0.2 -2.42,-0.41 -3.41,-1.01 -0.98,-0.61 -1.28,-0.97 -1.5,-2.02 -0.23,-1.04 -0.08,-1.77 0.38,-3.18 0.47,-1.42 0.95,-2.34 1.95,-3.89 0.99,-1.55 1.76,-2.45 3.03,-3.86 1.27,-1.41 2.14,-2.16 3.3,-3.21 1.16,-1.06 1.74,-1.51 2.51,-2.07 0.77,-0.55 1.09,-0.69 1.35,-0.72 0.25,-0.03 0.31,0.03 -0.07,0.56 -0.37,0.53 -0.77,1 -1.79,2.09 -1.03,1.08 -1.76,1.88 -3.34,3.35 -1.58,1.46 -2.63,2.4 -4.57,3.98 -1.95,1.57 -3.13,2.49 -5.16,3.89 -2.02,1.39 -3.14,2.1 -4.96,3.1 -1.82,0.99 -2.77,1.36 -4.15,1.88 -1.38,0.52 -1.91,0.67 -2.75,0.72 -0.84,0.04 -1.08,-0.08 -1.44,-0.5 -0.36,-0.43 -0.38,-0.82 -0.36,-1.64 0.02,-0.82 0.22,-1.36 0.47,-2.47 0.26,-1.11 0.6,-1.86 0.79,-3.09 0.19,-1.22 0.31,-2.01 0.18,-3.03 -0.13,-1.03 -0.22,-1.55 -0.84,-2.09 -0.62,-0.54 -1.1,-0.72 -2.27,-0.6 -1.18,0.13 -2,0.45 -3.61,1.23 -1.61,0.78 -2.62,1.47 -4.45,2.67 -1.84,1.19 -3.02,2 -4.74,3.3 -1.71,1.31 -2.6,2.13 -3.83,3.22 -1.22,1.09 -1.66,1.65 -2.28,2.22 -0.62,0.57 -0.77,0.76 -0.83,0.61 -0.05,-0.14 0.12,-0.33 0.57,-1.33 0.44,-1.01 0.76,-1.83 1.65,-3.68 0.89,-1.84 1.5,-3.08 2.81,-5.55 1.3,-2.48 2.09,-4.02 3.71,-6.82 1.62,-2.8 2.55,-4.34 4.38,-7.17 1.82,-2.84 2.83,-4.36 4.75,-7.02 1.91,-2.66 2.97,-4.05 4.84,-6.3 1.87,-2.24 2.83,-3.27 4.51,-4.93 1.68,-1.66 2.53,-2.3 3.9,-3.37 1.38,-1.06 2.03,-1.38 2.99,-1.95 0.95,-0.57 1.34,-0.7 1.79,-0.9 0.45,-0.19 0.52,-0.19 0.46,-0.08 -0.07,0.1 -0.19,0.27 -0.79,0.62 -0.59,0.35 -1.03,0.61 -2.2,1.14 -1.17,0.54 -1.97,0.94 -3.65,1.54 -1.68,0.6 -2.67,0.92 -4.74,1.46 -2.07,0.55 -3.23,0.79 -5.62,1.27 -2.39,0.48 -3.69,0.69 -6.33,1.12 -2.65,0.43 -4.08,0.63 -6.92,1.03 -2.83,0.39 -4.37,0.56 -7.25,0.94 -2.88,0.38 -4.45,0.59 -7.16,0.94 -2.71,0.35 -4.05,0.52 -6.4,0.81 -2.34,0.29 -3.52,0.36 -5.33,0.63 -1.8,0.28 -2.56,0.39 -3.7,0.74 -1.14,0.35 -1.51,0.64 -2.01,1.03 -0.5,0.39 -0.47,0.65 -0.48,0.93 -0.02,0.28 0.18,0.39 0.39,0.47"
     style="fill:#000000;stroke:#000000"
     id="path12" />
  <path
     d="m 448.34941,487.91488 c -0.28,0.01 -0.47,-0.02 -0.93,0.44 -0.46,0.46 -0.73,0.74 -1.36,1.86 -0.64,1.12 -0.95,1.89 -1.81,3.75 -0.87,1.86 -1.44,3.09 -2.52,5.55 -1.09,2.45 -1.75,4 -2.92,6.73 -1.16,2.73 -1.89,4.21 -2.92,6.92 -1.02,2.7 -1.57,4.15 -2.19,6.61 -0.63,2.46 -0.85,3.71 -0.94,5.67 -0.1,1.97 -0.03,2.83 0.46,4.13 0.49,1.3 0.93,1.82 2,2.38 1.06,0.55 1.8,0.64 3.32,0.39 1.53,-0.24 2.44,-0.57 4.29,-1.64 1.86,-1.06 2.95,-1.87 4.98,-3.69 2.04,-1.81 3.08,-3.07 5.2,-5.4 2.12,-2.32 3.29,-3.65 5.42,-6.23 2.13,-2.58 3.28,-4.06 5.24,-6.66 1.96,-2.6 2.99,-4 4.56,-6.34 1.58,-2.34 2.28,-3.45 3.33,-5.35 1.05,-1.89 1.53,-2.89 1.95,-4.13 0.41,-1.23 0.4,-1.78 0.14,-2.04 -0.27,-0.27 -0.74,-0.11 -1.47,0.7 -0.73,0.8 -1.26,1.6 -2.18,3.33 -0.93,1.73 -1.47,3 -2.43,5.33 -0.96,2.33 -1.5,3.81 -2.38,6.33 -0.89,2.53 -1.35,3.91 -2.04,6.28 -0.68,2.37 -1.02,3.55 -1.39,5.57 -0.36,2.02 -0.51,2.99 -0.44,4.55 0.06,1.55 0.26,2.21 0.79,3.21 0.52,1 0.89,1.39 1.84,1.78 0.95,0.39 1.62,0.45 2.9,0.17 1.29,-0.28 2.04,-0.68 3.53,-1.57 1.49,-0.9 2.27,-1.55 3.92,-2.9 1.66,-1.36 2.61,-2.25 4.34,-3.87 1.72,-1.62 2.67,-2.64 4.29,-4.24 1.62,-1.6 2.48,-2.46 3.81,-3.76 1.33,-1.31 1.99,-1.91 2.86,-2.79 0.86,-0.87 1.21,-1.27 1.49,-1.59 0.27,-0.31 0.13,-0.31 -0.11,0.02 -0.24,0.34 -0.56,0.73 -1.09,1.65 -0.53,0.93 -0.88,1.64 -1.54,2.99 -0.67,1.34 -1.09,2.26 -1.78,3.75 -0.68,1.48 -1.09,2.34 -1.63,3.67 -0.53,1.34 -0.85,2 -1.03,3 -0.18,1 -0.16,1.46 0.14,1.99 0.31,0.53 0.63,0.69 1.39,0.65 0.76,-0.04 1.31,-0.2 2.42,-0.83 1.11,-0.64 1.77,-1.28 3.13,-2.35 1.37,-1.08 2.16,-1.81 3.69,-3.02 1.53,-1.22 2.51,-1.98 3.98,-3.05 1.47,-1.07 2.27,-1.61 3.38,-2.31 1.1,-0.69 1.62,-0.96 2.16,-1.15 0.53,-0.19 0.54,-0.16 0.5,0.21 -0.04,0.37 -0.35,0.79 -0.68,1.64 -0.34,0.85 -0.63,1.49 -0.99,2.61 -0.36,1.11 -0.58,1.85 -0.8,2.98 -0.21,1.13 -0.33,1.73 -0.28,2.66 0.06,0.93 0.14,1.36 0.57,1.98 0.42,0.62 0.72,0.93 1.56,1.12 0.84,0.19 1.46,0.2 2.65,-0.15 1.19,-0.36 1.87,-0.76 3.31,-1.6 1.44,-0.85 2.26,-1.48 3.88,-2.64 1.61,-1.17 2.53,-1.89 4.18,-3.17 1.66,-1.29 2.62,-2.05 4.1,-3.26 1.47,-1.21 2.3,-1.91 3.29,-2.8 0.99,-0.89 1.35,-1.3 1.67,-1.63 0.31,-0.34 0.22,-0.36 -0.1,-0.02 -0.32,0.33 -0.8,0.74 -1.49,1.69 -0.69,0.95 -1.27,1.76 -1.98,3.08 -0.71,1.32 -1.1,2.21 -1.55,3.52 -0.45,1.31 -0.66,1.97 -0.69,3.02 -0.04,1.05 0.06,1.53 0.52,2.24 0.46,0.71 0.84,1.03 1.76,1.33 0.91,0.3 1.5,0.35 2.82,0.17 1.31,-0.18 2.13,-0.42 3.76,-1.05 1.64,-0.63 2.61,-1.15 4.41,-2.1 1.8,-0.96 2.78,-1.59 4.58,-2.68 1.8,-1.1 2.79,-1.76 4.42,-2.8 1.64,-1.05 2.49,-1.59 3.75,-2.43 1.26,-0.84 1.88,-1.32 2.56,-1.78 0.68,-0.47 0.79,-0.62 0.83,-0.55 0.04,0.07 -0.22,0.29 -0.62,0.89 -0.39,0.61 -0.8,1.1 -1.37,2.14 -0.57,1.05 -0.98,1.82 -1.48,3.07 -0.5,1.26 -0.75,2.02 -1.04,3.22 -0.29,1.19 -0.46,1.77 -0.42,2.75 0.04,0.97 0.14,1.44 0.62,2.11 0.48,0.67 0.91,0.99 1.78,1.23 0.88,0.23 1.46,0.22 2.59,-0.03 1.13,-0.25 1.8,-0.55 3.07,-1.23 1.27,-0.67 2.01,-1.14 3.28,-2.15 1.27,-1 1.92,-1.7 3.07,-2.88 1.15,-1.17 1.77,-1.84 2.68,-2.99 0.9,-1.16 1.36,-1.86 1.85,-2.8 0.5,-0.94 0.58,-1.42 0.63,-1.89 0.05,-0.48 -0.18,-0.59 -0.4,-0.49 -0.21,0.11 -0.56,0.38 -0.67,1 -0.11,0.62 -0.17,1.24 0.14,2.11 0.3,0.87 0.64,1.42 1.38,2.23 0.74,0.81 1.23,1.24 2.33,1.81 1.09,0.58 1.73,0.82 3.15,1.06 1.41,0.25 2.23,0.32 3.9,0.18 1.68,-0.13 2.68,-0.33 4.46,-0.86 1.79,-0.52 2.76,-0.97 4.46,-1.78 1.7,-0.81 2.6,-1.32 4.05,-2.28 1.45,-0.97 2.19,-1.53 3.21,-2.54 1.02,-1.01 1.45,-1.57 1.9,-2.52 0.44,-0.95 0.51,-1.45 0.33,-2.23 -0.19,-0.78 -0.48,-1.24 -1.25,-1.67 -0.78,-0.43 -1.44,-0.6 -2.64,-0.48 -1.2,0.11 -1.97,0.37 -3.36,1.07 -1.4,0.69 -2.23,1.24 -3.62,2.39 -1.38,1.15 -2.16,1.93 -3.32,3.36 -1.15,1.43 -1.73,2.3 -2.46,3.8 -0.72,1.5 -1.03,2.3 -1.17,3.72 -0.14,1.41 -0.07,2.17 0.48,3.34 0.54,1.17 1.03,1.77 2.23,2.5 1.21,0.73 2.06,0.98 3.79,1.17 1.73,0.18 2.81,0.09 4.87,-0.25 2.06,-0.35 3.2,-0.7 5.45,-1.48 2.24,-0.79 3.5,-1.38 5.78,-2.46 2.27,-1.07 3.52,-1.73 5.58,-2.92 2.05,-1.19 3.16,-1.94 4.68,-3.01 1.52,-1.06 2.23,-1.66 2.93,-2.32 0.7,-0.65 0.73,-0.87 0.58,-0.96 -0.15,-0.08 -0.63,0.06 -1.35,0.53 -0.71,0.47 -1.4,0.93 -2.23,1.82 -0.84,0.9 -1.4,1.65 -1.96,2.65 -0.56,1 -0.76,1.6 -0.85,2.35 -0.09,0.75 0.02,1.06 0.4,1.4 0.39,0.34 0.74,0.44 1.52,0.29 0.79,-0.15 1.34,-0.42 2.41,-1.03 1.07,-0.61 1.7,-1.13 2.93,-2.03 1.23,-0.9 1.92,-1.53 3.24,-2.48 1.31,-0.96 2.06,-1.5 3.33,-2.3 1.27,-0.79 1.92,-1.15 3.02,-1.66 1.11,-0.51 1.58,-0.69 2.5,-0.88 0.91,-0.19 1.33,-0.15 2.1,-0.09 0.77,0.05 1.05,0.27 1.76,0.36 0.71,0.1 1.38,0.26 1.79,0.12 0.41,-0.13 0.52,-0.48 0.23,-0.81 -0.28,-0.34 -0.91,-0.6 -1.64,-0.86 -0.74,-0.26 -1.11,-0.36 -2.02,-0.42 -0.91,-0.07 -1.45,-0.1 -2.53,0.08 -1.08,0.19 -1.64,0.36 -2.88,0.84 -1.25,0.49 -1.97,0.82 -3.35,1.58 -1.39,0.76 -2.18,1.31 -3.57,2.23 -1.38,0.92 -2.12,1.48 -3.36,2.35 -1.25,0.87 -1.93,1.27 -2.86,1.98 -0.93,0.71 -1.35,1.11 -1.81,1.56 -0.46,0.46 -0.51,0.65 -0.49,0.73 0.02,0.07 0.16,0.02 0.59,-0.35 0.43,-0.37 0.84,-0.73 1.56,-1.52 0.71,-0.78 1.32,-1.42 2.01,-2.4 0.68,-0.97 1.08,-1.66 1.42,-2.48 0.35,-0.82 0.53,-1.28 0.3,-1.62 -0.23,-0.34 -0.5,-0.42 -1.45,-0.08 -0.96,0.35 -1.72,0.86 -3.31,1.79 -1.6,0.92 -2.64,1.71 -4.66,2.85 -2.03,1.13 -3.25,1.77 -5.46,2.81 -2.21,1.03 -3.45,1.6 -5.59,2.35 -2.14,0.76 -3.21,1.06 -5.1,1.41 -1.9,0.35 -2.86,0.41 -4.36,0.35 -1.5,-0.06 -2.17,-0.19 -3.12,-0.66 -0.96,-0.46 -1.3,-0.83 -1.67,-1.66 -0.38,-0.83 -0.42,-1.38 -0.21,-2.49 0.2,-1.11 0.5,-1.78 1.23,-3.05 0.72,-1.28 1.28,-2.07 2.38,-3.33 1.1,-1.27 1.84,-1.97 3.11,-3 1.26,-1.02 2.04,-1.48 3.23,-2.13 1.18,-0.65 1.79,-0.86 2.68,-1.11 0.89,-0.26 1.27,-0.25 1.76,-0.17 0.48,0.09 0.63,0.22 0.66,0.59 0.03,0.37 -0.04,0.64 -0.51,1.28 -0.47,0.64 -0.86,1.09 -1.84,1.92 -0.97,0.83 -1.66,1.36 -3.04,2.22 -1.38,0.85 -2.25,1.33 -3.86,2.07 -1.61,0.74 -2.53,1.14 -4.18,1.63 -1.64,0.48 -2.55,0.66 -4.04,0.81 -1.49,0.15 -2.21,0.11 -3.4,-0.07 -1.19,-0.18 -1.72,-0.37 -2.55,-0.82 -0.84,-0.46 -1.15,-0.82 -1.63,-1.45 -0.47,-0.64 -0.47,-1.08 -0.74,-1.73 -0.27,-0.65 -0.34,-1.03 -0.61,-1.51 -0.27,-0.48 -0.42,-0.73 -0.74,-0.89 -0.33,-0.16 -0.45,-0.21 -0.88,0.09 -0.42,0.31 -0.62,0.66 -1.25,1.45 -0.63,0.79 -1,1.45 -1.9,2.51 -0.9,1.06 -1.49,1.7 -2.6,2.79 -1.1,1.08 -1.74,1.72 -2.93,2.64 -1.18,0.92 -1.88,1.31 -2.99,1.94 -1.11,0.63 -1.7,0.89 -2.57,1.23 -0.87,0.33 -1.23,0.44 -1.77,0.44 -0.55,0 -0.76,-0.09 -0.97,-0.43 -0.21,-0.35 -0.23,-0.6 -0.09,-1.3 0.13,-0.71 0.35,-1.21 0.76,-2.23 0.41,-1.02 0.75,-1.69 1.3,-2.87 0.56,-1.18 1.02,-1.88 1.46,-3.03 0.43,-1.14 0.65,-1.79 0.7,-2.68 0.05,-0.9 0,-1.4 -0.45,-1.81 -0.45,-0.41 -0.85,-0.48 -1.81,-0.25 -0.96,0.24 -1.63,0.68 -2.99,1.43 -1.37,0.75 -2.18,1.33 -3.84,2.33 -1.66,1 -2.65,1.64 -4.45,2.68 -1.79,1.04 -2.78,1.63 -4.53,2.53 -1.74,0.91 -2.7,1.36 -4.21,1.99 -1.5,0.63 -2.23,0.86 -3.32,1.16 -1.08,0.3 -1.48,0.37 -2.11,0.34 -0.63,-0.03 -0.83,-0.12 -1.04,-0.49 -0.2,-0.37 -0.22,-0.63 0.01,-1.38 0.23,-0.75 0.52,-1.28 1.12,-2.38 0.61,-1.1 1.2,-1.84 1.91,-3.13 0.7,-1.29 1.19,-2.15 1.6,-3.32 0.41,-1.17 0.56,-1.84 0.44,-2.54 -0.13,-0.71 -0.38,-0.97 -1.09,-0.97 -0.71,0.01 -1.27,0.27 -2.47,0.99 -1.2,0.73 -1.99,1.46 -3.51,2.62 -1.53,1.15 -2.47,1.92 -4.13,3.17 -1.66,1.24 -2.58,1.94 -4.17,3.06 -1.59,1.12 -2.44,1.69 -3.76,2.53 -1.32,0.83 -1.92,1.19 -2.84,1.65 -0.93,0.45 -1.31,0.56 -1.8,0.63 -0.49,0.07 -0.55,0.02 -0.66,-0.29 -0.11,-0.31 -0.05,-0.58 0.11,-1.28 0.16,-0.7 0.35,-1.21 0.69,-2.22 0.34,-1.02 0.69,-1.69 1.01,-2.84 0.31,-1.15 0.51,-1.85 0.57,-2.9 0.06,-1.05 0.09,-1.67 -0.27,-2.34 -0.37,-0.67 -0.66,-0.95 -1.55,-1.03 -0.89,-0.07 -1.57,0.09 -2.91,0.65 -1.33,0.57 -2.17,1.14 -3.75,2.16 -1.59,1.03 -2.59,1.79 -4.18,2.97 -1.6,1.18 -2.47,1.87 -3.81,2.96 -1.33,1.09 -1.99,1.7 -2.87,2.49 -0.88,0.79 -1.17,1.11 -1.54,1.46 -0.36,0.34 -0.35,0.46 -0.27,0.27 0.08,-0.2 0.27,-0.48 0.68,-1.26 0.41,-0.78 0.72,-1.42 1.36,-2.65 0.64,-1.23 1.07,-2.07 1.84,-3.51 0.76,-1.44 1.34,-2.29 1.97,-3.69 0.64,-1.41 0.95,-2.2 1.2,-3.33 0.26,-1.14 0.29,-1.72 0.08,-2.36 -0.21,-0.64 -0.46,-0.89 -1.13,-0.83 -0.67,0.06 -1.17,0.37 -2.24,1.12 -1.07,0.75 -1.69,1.38 -3.1,2.64 -1.42,1.26 -2.31,2.09 -3.97,3.65 -1.66,1.56 -2.62,2.56 -4.33,4.14 -1.72,1.58 -2.67,2.45 -4.25,3.77 -1.58,1.32 -2.34,1.92 -3.65,2.81 -1.31,0.9 -1.93,1.27 -2.9,1.67 -0.97,0.4 -1.36,0.49 -1.96,0.33 -0.61,-0.16 -0.79,-0.38 -1.08,-1.14 -0.29,-0.76 -0.42,-1.3 -0.38,-2.67 0.05,-1.36 0.2,-2.27 0.62,-4.17 0.43,-1.9 0.78,-3.06 1.52,-5.34 0.74,-2.29 1.24,-3.65 2.2,-6.1 0.95,-2.45 1.6,-3.86 2.58,-6.15 0.98,-2.28 1.58,-3.5 2.3,-5.28 0.72,-1.79 1.02,-2.65 1.28,-3.65 0.26,-1 0.28,-1.37 0.04,-1.36 -0.23,0.01 -0.53,0.36 -1.21,1.41 -0.69,1.06 -1.1,2.04 -2.22,3.85 -1.12,1.8 -1.82,2.87 -3.37,5.18 -1.55,2.3 -2.48,3.77 -4.4,6.35 -1.91,2.59 -3.05,4.05 -5.19,6.57 -2.13,2.53 -3.33,3.82 -5.48,6.04 -2.14,2.22 -3.27,3.35 -5.24,5.07 -1.98,1.73 -2.98,2.49 -4.62,3.55 -1.63,1.07 -2.37,1.41 -3.57,1.79 -1.2,0.39 -1.68,0.45 -2.41,0.14 -0.73,-0.3 -0.98,-0.62 -1.24,-1.67 -0.26,-1.05 -0.27,-1.8 -0.06,-3.58 0.2,-1.78 0.42,-2.98 1.08,-5.32 0.67,-2.34 1.19,-3.75 2.23,-6.38 1.04,-2.64 1.75,-4.11 2.97,-6.79 1.22,-2.68 2,-4.18 3.14,-6.61 1.13,-2.43 1.71,-3.67 2.54,-5.54 0.82,-1.87 1.14,-2.64 1.59,-3.81 0.45,-1.17 0.48,-1.47 0.64,-2.04 0.16,-0.56 0.22,-0.53 0.16,-0.77 -0.05,-0.24 -0.17,-0.41 -0.45,-0.41"
     style="fill:#000000;stroke:#000000"
     id="path14" />
  <path
     d="m 649.65941,513.12488 c 0.09,-0.3 0.12,-0.64 -0.19,-1.12 -0.32,-0.48 -0.59,-0.89 -1.41,-1.28 -0.81,-0.4 -1.42,-0.62 -2.66,-0.69 -1.25,-0.07 -2.06,0.03 -3.57,0.32 -1.51,0.29 -2.42,0.58 -3.97,1.14 -1.56,0.56 -2.5,0.91 -3.82,1.65 -1.33,0.75 -2.02,1.25 -2.81,2.09 -0.8,0.83 -1.04,1.27 -1.18,2.09 -0.14,0.83 -0.03,1.28 0.48,2.03 0.51,0.75 1.01,1.14 2.07,1.73 1.05,0.58 1.87,0.79 3.21,1.18 1.34,0.39 2.15,0.48 3.48,0.77 1.34,0.28 2.1,0.47 3.2,0.67 1.1,0.21 1.69,0.24 2.29,0.35 0.61,0.11 0.78,0.08 0.73,0.2 -0.05,0.13 -0.24,0.17 -0.97,0.43 -0.72,0.27 -1.36,0.45 -2.68,0.91 -1.31,0.46 -2.25,0.82 -3.91,1.39 -1.65,0.56 -2.71,0.89 -4.36,1.42 -1.65,0.53 -2.6,0.81 -3.9,1.22 -1.3,0.41 -1.81,0.55 -2.6,0.82 -0.78,0.28 -0.97,0.42 -1.31,0.55 -0.33,0.13 -0.26,0.03 -0.36,0.1 -0.09,0.08 -0.18,0.12 -0.11,0.26 0.08,0.15 0.08,0.35 0.49,0.46 0.42,0.11 0.73,0.17 1.6,0.1 0.87,-0.07 1.4,-0.17 2.77,-0.45 1.36,-0.27 2.32,-0.49 4.03,-0.92 1.71,-0.44 2.8,-0.71 4.51,-1.26 1.72,-0.55 2.7,-0.86 4.06,-1.5 1.35,-0.64 2,-1 2.71,-1.7 0.71,-0.7 0.87,-1.13 0.85,-1.8 -0.01,-0.66 -0.26,-1 -0.93,-1.51 -0.67,-0.5 -1.29,-0.62 -2.41,-1 -1.12,-0.37 -1.88,-0.52 -3.19,-0.86 -1.31,-0.35 -2.08,-0.53 -3.35,-0.88 -1.27,-0.35 -2.02,-0.56 -3,-0.88 -0.98,-0.32 -1.44,-0.42 -1.9,-0.74 -0.46,-0.31 -0.55,-0.44 -0.4,-0.82 0.16,-0.38 0.4,-0.58 1.17,-1.09 0.77,-0.52 1.42,-0.92 2.67,-1.5 1.25,-0.58 2.14,-0.91 3.6,-1.39 1.45,-0.49 2.34,-0.75 3.68,-1.02 1.35,-0.27 2.04,-0.33 3.05,-0.33 1.01,0 1.39,0.18 2,0.35 0.6,0.17 0.69,0.32 1.03,0.5 0.33,0.17 0.38,0.38 0.64,0.38 0.26,0.01 0.57,-0.07 0.67,-0.37"
     style="fill:#000000;stroke:#000000"
     id="path16" />
  <path
     d="m 667.30941,516.35488 c -0.03,-0.31 -0.17,-0.56 -0.58,-0.9 -0.42,-0.34 -0.73,-0.61 -1.49,-0.8 -0.76,-0.19 -1.31,-0.26 -2.31,-0.15 -1,0.11 -1.54,0.24 -2.69,0.7 -1.15,0.46 -1.83,0.8 -3.07,1.59 -1.23,0.79 -1.97,1.31 -3.12,2.36 -1.15,1.05 -1.79,1.72 -2.64,2.89 -0.86,1.17 -1.27,1.86 -1.62,2.96 -0.35,1.09 -0.4,1.67 -0.14,2.51 0.27,0.83 0.62,1.24 1.46,1.65 0.83,0.41 1.44,0.51 2.72,0.4 1.29,-0.11 2.11,-0.33 3.68,-0.93 1.58,-0.61 2.52,-1.11 4.19,-2.08 1.68,-0.97 2.74,-1.72 4.19,-2.78 1.45,-1.06 2.22,-1.73 3.08,-2.52 0.86,-0.79 1.12,-1.17 1.23,-1.42 0.11,-0.26 -0.17,-0.23 -0.67,0.15 -0.5,0.38 -1.22,0.84 -1.84,1.75 -0.63,0.91 -1.08,1.71 -1.27,2.8 -0.2,1.09 -0.13,1.8 0.29,2.63 0.41,0.83 0.77,1.25 1.78,1.52 1.01,0.27 1.71,0.23 3.26,-0.18 1.54,-0.4 2.44,-0.79 4.45,-1.84 2,-1.05 3.2,-1.77 5.56,-3.42 2.37,-1.66 3.68,-2.77 6.26,-4.86 2.57,-2.1 3.99,-3.29 6.62,-5.61 2.64,-2.31 4.13,-3.61 6.55,-5.97 2.42,-2.35 3.62,-3.6 5.55,-5.8 1.94,-2.2 2.82,-3.3 4.12,-5.19 1.3,-1.89 1.86,-2.82 2.39,-4.28 0.52,-1.45 0.55,-2.08 0.24,-2.98 -0.31,-0.89 -0.73,-1.29 -1.8,-1.49 -1.07,-0.19 -1.86,-0.15 -3.56,0.51 -1.7,0.66 -2.83,1.26 -4.93,2.79 -2.11,1.54 -3.3,2.62 -5.58,4.88 -2.29,2.26 -3.64,3.71 -5.84,6.42 -2.21,2.72 -3.44,4.33 -5.19,7.17 -1.75,2.83 -2.58,4.39 -3.55,7.03 -0.98,2.63 -1.27,3.99 -1.32,6.14 -0.06,2.16 0.18,3.12 1.06,4.63 0.88,1.52 1.61,2.12 3.33,2.95 1.73,0.83 2.93,1.07 5.28,1.19 2.36,0.12 4.05,-0.17 6.51,-0.6 2.45,-0.43 3.85,-0.92 5.78,-1.56 1.93,-0.64 3.14,-1.17 3.88,-1.64 0.74,-0.46 0.67,-0.68 -0.2,-0.69 -0.86,-0.02 -2.14,0.27 -4.11,0.6 -1.97,0.32 -3.36,0.67 -5.72,1.03 -2.37,0.36 -3.94,0.72 -6.1,0.76 -2.15,0.03 -3.19,-0.03 -4.68,-0.58 -1.49,-0.55 -2.08,-0.95 -2.78,-2.15 -0.69,-1.2 -0.85,-1.97 -0.69,-3.85 0.16,-1.89 0.52,-3.11 1.48,-5.58 0.96,-2.47 1.64,-4.03 3.32,-6.77 1.67,-2.75 2.88,-4.34 5.06,-6.95 2.19,-2.61 3.58,-3.98 5.87,-6.1 2.28,-2.11 3.55,-3 5.55,-4.46 1.99,-1.46 3.01,-2.04 4.42,-2.83 1.42,-0.79 1.94,-1.01 2.66,-1.13 0.72,-0.12 0.89,-0.02 0.94,0.51 0.05,0.54 -0.05,0.97 -0.68,2.17 -0.62,1.2 -1.16,2.08 -2.46,3.85 -1.31,1.77 -2.18,2.84 -4.07,5 -1.88,2.16 -2.99,3.46 -5.35,5.8 -2.37,2.34 -3.85,3.64 -6.48,5.9 -2.63,2.27 -4.06,3.45 -6.66,5.43 -2.6,1.99 -4,2.94 -6.35,4.49 -2.35,1.55 -3.52,2.23 -5.4,3.26 -1.88,1.03 -2.72,1.39 -4.01,1.91 -1.29,0.52 -1.8,0.66 -2.43,0.69 -0.64,0.04 -0.74,-0.13 -0.74,-0.53 0,-0.41 0.35,-0.74 0.74,-1.5 0.39,-0.76 0.82,-1.36 1.21,-2.31 0.39,-0.94 0.7,-1.68 0.74,-2.42 0.05,-0.73 -0.01,-1.09 -0.53,-1.24 -0.53,-0.14 -1.02,-0.01 -2.11,0.51 -1.1,0.53 -1.88,1.18 -3.38,2.13 -1.49,0.95 -2.49,1.69 -4.09,2.61 -1.59,0.93 -2.47,1.39 -3.87,2 -1.41,0.62 -2.13,0.81 -3.14,1.08 -1.02,0.27 -1.42,0.34 -1.96,0.26 -0.53,-0.07 -0.68,-0.2 -0.72,-0.64 -0.04,-0.45 0.08,-0.79 0.52,-1.57 0.43,-0.79 0.83,-1.39 1.65,-2.36 0.83,-0.98 1.42,-1.59 2.49,-2.53 1.06,-0.93 1.75,-1.41 2.86,-2.14 1.11,-0.72 1.72,-1.07 2.68,-1.48 0.96,-0.41 1.37,-0.48 2.13,-0.57 0.75,-0.09 1.09,0.04 1.65,0.12 0.57,0.08 0.75,0.21 1.17,0.27 0.41,0.06 0.63,0.17 0.9,0.05 0.26,-0.13 0.46,-0.36 0.42,-0.67"
     style="fill:#000000;stroke:#000000"
     id="path18" />
  <path
     d="m 331.2599,557.77343 c 0.01,-0.33 -0.08,-0.68 -0.5,-1.08 -0.41,-0.4 -0.78,-0.69 -1.58,-0.91 -0.79,-0.22 -1.3,-0.34 -2.39,-0.18 -1.09,0.17 -1.7,0.34 -3.07,1.01 -1.37,0.67 -2.24,1.18 -3.77,2.33 -1.53,1.15 -2.46,1.95 -3.86,3.42 -1.41,1.48 -2.13,2.39 -3.16,3.96 -1.03,1.56 -1.56,2.45 -2,3.87 -0.45,1.42 -0.49,2.14 -0.22,3.22 0.28,1.08 0.67,1.59 1.61,2.18 0.94,0.59 1.68,0.77 3.11,0.76 1.43,0 2.36,-0.21 4.05,-0.78 1.69,-0.57 2.69,-1.05 4.4,-2.07 1.71,-1.02 2.61,-1.73 4.15,-3.05 1.53,-1.32 2.35,-2.11 3.52,-3.55 1.17,-1.44 1.71,-2.26 2.32,-3.65 0.61,-1.4 0.77,-2.16 0.72,-3.31 -0.05,-1.15 -0.35,-1.7 -0.98,-2.43 -0.64,-0.74 -1.25,-1 -2.19,-1.26 -0.94,-0.26 -1.61,-0.26 -2.52,-0.06 -0.9,0.21 -1.47,0.51 -2,1.1 -0.54,0.58 -0.75,1.11 -0.69,1.84 0.06,0.72 0.27,1.21 0.99,1.78 0.71,0.57 1.31,0.84 2.6,1.06 1.28,0.23 2.11,0.2 3.82,0.07 1.71,-0.14 2.71,-0.33 4.73,-0.75 2.02,-0.42 3.24,-0.73 5.38,-1.35 2.13,-0.62 3.29,-1.07 5.3,-1.74 2,-0.67 3.03,-1.06 4.72,-1.61 1.7,-0.55 2.59,-0.8 3.77,-1.13 1.18,-0.32 1.64,-0.54 2.15,-0.5 0.5,0.04 0.52,0.1 0.37,0.7 -0.14,0.6 -0.41,1.06 -1.09,2.31 -0.68,1.25 -1.16,2.1 -2.31,3.96 -1.15,1.85 -1.91,2.98 -3.43,5.3 -1.53,2.33 -2.43,3.72 -4.22,6.34 -1.79,2.62 -2.83,4.07 -4.73,6.76 -1.9,2.69 -2.98,4.22 -4.78,6.69 -1.8,2.47 -2.76,3.69 -4.22,5.64 -1.45,1.96 -2.19,2.9 -3.07,4.14 -0.89,1.23 -1.16,1.72 -1.36,2.05 -0.19,0.32 -0.02,0.24 0.38,-0.44 0.4,-0.68 0.74,-1.37 1.6,-2.96 0.85,-1.6 1.43,-2.77 2.67,-5.01 1.23,-2.23 1.92,-3.65 3.5,-6.18 1.58,-2.54 2.53,-3.93 4.39,-6.47 1.85,-2.55 2.9,-3.9 4.88,-6.24 1.98,-2.34 3.09,-3.5 5.02,-5.48 1.94,-1.97 2.9,-2.9 4.66,-4.41 1.76,-1.51 2.6,-2.13 4.14,-3.15 1.53,-1.02 2.29,-1.41 3.55,-1.95 1.26,-0.54 1.8,-0.65 2.74,-0.75 0.95,-0.09 1.34,0.03 2,0.29 0.67,0.26 0.86,0.51 1.31,1.02 0.46,0.51 0.64,0.89 0.97,1.55 0.33,0.65 0.46,1.05 0.67,1.73 0.21,0.69 0.3,1.05 0.39,1.68 0.09,0.64 0.12,0.95 0.07,1.48 -0.05,0.53 -0.11,0.78 -0.33,1.17 -0.22,0.39 -0.39,0.52 -0.76,0.79 -0.37,0.27 -0.6,0.36 -1.09,0.56 -0.49,0.2 -0.81,0.19 -1.38,0.43 -0.57,0.23 -0.95,0.36 -1.48,0.73 -0.52,0.38 -0.78,0.64 -1.14,1.15 -0.35,0.51 -0.55,0.77 -0.63,1.39 -0.07,0.62 -0.08,1.09 0.26,1.71 0.34,0.61 0.67,0.97 1.43,1.38 0.77,0.42 1.26,0.56 2.38,0.7 1.12,0.13 1.8,0.11 3.22,-0.04 1.43,-0.15 2.25,-0.29 3.9,-0.73 1.65,-0.44 2.59,-0.77 4.36,-1.48 1.77,-0.71 2.74,-1.16 4.48,-2.08 1.73,-0.92 2.63,-1.47 4.2,-2.53 1.56,-1.05 2.36,-1.66 3.63,-2.75 1.27,-1.08 1.86,-1.64 2.72,-2.68 0.86,-1.04 1.18,-1.58 1.58,-2.53 0.4,-0.94 0.48,-1.41 0.41,-2.18 -0.07,-0.77 -0.26,-1.16 -0.76,-1.67 -0.5,-0.5 -0.9,-0.73 -1.74,-0.86 -0.84,-0.12 -1.39,-0.1 -2.45,0.24 -1.05,0.34 -1.71,0.66 -2.82,1.47 -1.1,0.82 -1.75,1.43 -2.72,2.59 -0.97,1.16 -1.46,1.88 -2.13,3.21 -0.66,1.33 -0.99,2.12 -1.2,3.45 -0.21,1.33 -0.21,2.05 0.16,3.19 0.36,1.14 0.74,1.72 1.66,2.52 0.92,0.8 1.57,1.14 2.94,1.48 1.36,0.34 2.21,0.36 3.88,0.23 1.67,-0.14 2.62,-0.36 4.48,-0.9 1.87,-0.54 2.93,-0.96 4.85,-1.79 1.92,-0.84 2.97,-1.39 4.77,-2.39 1.79,-0.99 2.68,-1.6 4.2,-2.59 1.53,-0.99 2.27,-1.51 3.42,-2.35 1.15,-0.83 1.73,-1.3 2.34,-1.81 0.61,-0.52 0.73,-0.76 0.71,-0.76 -0.02,-0.01 -0.33,0.17 -0.81,0.71 -0.47,0.55 -0.89,1.04 -1.56,2.01 -0.67,0.97 -1.13,1.74 -1.77,2.83 -0.64,1.09 -1.05,1.73 -1.43,2.62 -0.39,0.9 -0.53,1.31 -0.5,1.85 0.02,0.53 0.18,0.73 0.62,0.83 0.45,0.1 0.88,0.04 1.61,-0.32 0.73,-0.37 1.14,-0.76 2.06,-1.5 0.92,-0.75 1.43,-1.29 2.53,-2.21 1.1,-0.93 1.78,-1.49 2.98,-2.41 1.19,-0.93 1.8,-1.44 2.97,-2.21 1.18,-0.76 1.79,-1.08 2.89,-1.62 1.09,-0.55 1.62,-0.77 2.6,-1.11 0.98,-0.33 1.4,-0.43 2.31,-0.58 0.9,-0.15 1.29,-0.14 2.22,-0.18 0.92,-0.05 1.36,-0.01 2.4,-0.04 1.04,-0.02 1.6,0 2.78,-0.07 1.18,-0.07 1.82,-0.11 3.1,-0.27 1.27,-0.16 2.01,-0.28 3.28,-0.54 1.27,-0.25 1.96,-0.42 3.05,-0.73 1.09,-0.32 1.61,-0.47 2.4,-0.85 0.78,-0.38 1.23,-0.62 1.52,-1.07 0.3,-0.45 0.27,-0.83 -0.05,-1.2 -0.32,-0.36 -0.68,-0.57 -1.54,-0.63 -0.86,-0.06 -1.47,-0.02 -2.74,0.33 -1.28,0.36 -2.13,0.69 -3.65,1.45 -1.52,0.75 -2.43,1.3 -3.96,2.33 -1.53,1.02 -2.37,1.65 -3.69,2.78 -1.31,1.14 -2,1.76 -2.87,2.89 -0.87,1.14 -1.23,1.81 -1.47,2.78 -0.25,0.98 -0.17,1.47 0.25,2.1 0.41,0.63 0.85,0.88 1.81,1.05 0.96,0.17 1.66,0.12 2.97,-0.2 1.3,-0.32 2.08,-0.72 3.57,-1.41 1.49,-0.69 2.32,-1.18 3.87,-2.05 1.55,-0.86 2.53,-1.43 3.86,-2.28 1.34,-0.86 2.02,-1.41 2.8,-1.99 0.78,-0.57 0.98,-0.82 1.09,-0.91 0.1,-0.09 -0.17,-0.01 -0.58,0.47 -0.42,0.48 -0.95,0.98 -1.52,1.94 -0.57,0.96 -1.05,1.71 -1.34,2.86 -0.29,1.15 -0.37,1.95 -0.11,2.9 0.26,0.95 0.56,1.42 1.39,1.84 0.84,0.41 1.44,0.51 2.78,0.22 1.33,-0.28 2.15,-0.62 3.9,-1.63 1.75,-1.02 2.76,-1.8 4.85,-3.46 2.09,-1.66 3.3,-2.73 5.6,-4.85 2.3,-2.11 3.52,-3.39 5.88,-5.73 2.36,-2.33 3.65,-3.67 5.92,-5.96 2.28,-2.29 3.54,-3.47 5.45,-5.49 1.91,-2.03 2.81,-3.08 4.08,-4.64 1.27,-1.55 1.82,-2.33 2.26,-3.14 0.43,-0.81 0.34,-1.07 -0.09,-0.9 -0.44,0.17 -1,0.55 -2.09,1.73 -1.08,1.19 -1.91,2.18 -3.33,4.19 -1.43,2.01 -2.3,3.47 -3.8,5.89 -1.51,2.41 -2.35,3.84 -3.74,6.18 -1.38,2.34 -2.12,3.55 -3.21,5.52 -1.09,1.97 -1.59,2.92 -2.24,4.31 -0.64,1.38 -0.84,1.92 -0.98,2.61 -0.14,0.69 -0.02,0.8 0.28,0.84 0.29,0.04 0.71,-0.14 1.2,-0.63 0.5,-0.5 0.9,-1 1.27,-1.84 0.36,-0.84 0.46,-1.54 0.54,-2.36 0.08,-0.82 0.03,-1.27 -0.15,-1.73 -0.18,-0.47 -0.43,-0.63 -0.74,-0.59 -0.31,0.05 -0.68,0.28 -0.81,0.82 -0.13,0.54 -0.17,1.11 0.16,1.89 0.33,0.78 0.66,1.32 1.48,2.03 0.82,0.71 1.37,1.06 2.62,1.51 1.25,0.44 2.03,0.65 3.64,0.71 1.62,0.06 2.58,-0.05 4.44,-0.41 1.86,-0.35 2.92,-0.67 4.86,-1.37 1.93,-0.69 2.97,-1.19 4.83,-2.1 1.87,-0.9 2.88,-1.46 4.49,-2.42 1.6,-0.95 2.49,-1.53 3.53,-2.36 1.04,-0.82 1.4,-1.31 1.66,-1.75 0.26,-0.45 0.11,-0.62 -0.36,-0.48 -0.48,0.14 -1.08,0.38 -2.01,1.15 -0.93,0.78 -1.67,1.49 -2.62,2.71 -0.95,1.22 -1.4,2.09 -2.11,3.4 -0.72,1.3 -1.13,2 -1.47,3.13 -0.35,1.13 -0.43,1.67 -0.26,2.52 0.18,0.85 0.45,1.28 1.15,1.73 0.71,0.45 1.25,0.55 2.39,0.52 1.14,-0.04 1.85,-0.2 3.33,-0.71 1.47,-0.51 2.32,-0.96 4.03,-1.84 1.7,-0.89 2.68,-1.53 4.49,-2.6 1.8,-1.08 2.81,-1.7 4.55,-2.78 1.73,-1.08 2.65,-1.7 4.13,-2.62 1.48,-0.93 2.22,-1.38 3.27,-2.01 1.05,-0.62 1.52,-0.89 1.98,-1.14 0.45,-0.24 0.42,-0.29 0.29,-0.08 -0.14,0.2 -0.46,0.47 -0.99,1.11 -0.52,0.63 -0.91,1.11 -1.62,2.06 -0.7,0.94 -1.18,1.63 -1.89,2.66 -0.7,1.03 -1.2,1.61 -1.63,2.5 -0.43,0.9 -0.62,1.4 -0.53,1.98 0.08,0.57 0.28,0.84 0.97,0.9 0.69,0.07 1.24,-0.08 2.47,-0.59 1.24,-0.51 2.07,-1.04 3.72,-1.96 1.65,-0.92 2.67,-1.63 4.52,-2.63 1.86,-1 2.95,-1.56 4.76,-2.36 1.82,-0.8 2.84,-1.19 4.32,-1.63 1.47,-0.45 2.14,-0.58 3.06,-0.6 0.91,-0.02 1.19,0.11 1.51,0.51 0.33,0.39 0.26,0.74 0.11,1.45 -0.14,0.72 -0.45,1.2 -0.82,2.12 -0.37,0.92 -0.74,1.51 -1,2.5 -0.27,0.99 -0.42,1.61 -0.33,2.46 0.1,0.85 0.23,1.3 0.79,1.81 0.56,0.5 0.96,0.69 2,0.71 1.03,0.03 1.76,-0.12 3.17,-0.6 1.42,-0.49 2.21,-0.95 3.9,-1.82 1.68,-0.88 2.67,-1.48 4.54,-2.55 1.87,-1.07 2.99,-1.72 4.8,-2.79 1.81,-1.08 2.77,-1.64 4.24,-2.57 1.48,-0.93 2.32,-1.37 3.14,-2.07 0.83,-0.7 1.02,-1.05 0.98,-1.43 -0.04,-0.37 -0.4,-0.54 -1.18,-0.46 -0.77,0.09 -1.49,0.28 -2.71,0.89 -1.22,0.61 -2.06,1.18 -3.39,2.17 -1.32,0.99 -2.11,1.69 -3.22,2.77 -1.11,1.08 -1.66,1.66 -2.32,2.62 -0.67,0.96 -0.93,1.45 -0.99,2.19 -0.06,0.74 0.13,1.12 0.69,1.51 0.55,0.38 1.05,0.5 2.08,0.42 1.04,-0.08 1.73,-0.28 3.11,-0.83 1.38,-0.54 2.24,-1 3.79,-1.88 1.56,-0.88 2.48,-1.5 4,-2.51 1.51,-1 2.43,-1.64 3.58,-2.51 1.16,-0.86 1.65,-1.37 2.19,-1.8 0.55,-0.42 0.61,-0.59 0.53,-0.34 -0.08,0.26 -0.36,0.59 -0.94,1.62 -0.58,1.02 -1.07,1.82 -1.98,3.51 -0.91,1.7 -1.45,2.83 -2.57,4.96 -1.13,2.13 -1.77,3.36 -3.06,5.68 -1.29,2.33 -1.99,3.59 -3.39,5.94 -1.41,2.35 -2.17,3.6 -3.63,5.8 -1.45,2.21 -2.22,3.3 -3.64,5.21 -1.42,1.91 -2.1,2.85 -3.47,4.33 -1.36,1.49 -2.08,2.12 -3.35,3.11 -1.26,0.98 -1.92,1.31 -2.98,1.81 -1.05,0.51 -1.58,0.64 -2.29,0.71 -0.71,0.07 -0.97,0.01 -1.24,-0.33 -0.28,-0.35 -0.28,-0.62 -0.14,-1.37 0.14,-0.75 0.25,-1.26 0.85,-2.38 0.6,-1.12 1.01,-1.82 2.16,-3.22 1.15,-1.39 1.93,-2.22 3.59,-3.75 1.66,-1.53 2.63,-2.37 4.71,-3.91 2.07,-1.54 3.29,-2.32 5.67,-3.78 2.37,-1.45 3.75,-2.17 6.2,-3.49 2.45,-1.32 3.72,-1.97 6.05,-3.1 2.33,-1.12 3.52,-1.63 5.62,-2.53 2.11,-0.9 3.25,-1.3 4.92,-1.97 1.66,-0.67 2.36,-0.92 3.43,-1.38 1.06,-0.46 1.36,-0.62 1.89,-0.92 0.53,-0.3 0.63,-0.4 0.75,-0.59 0.13,-0.19 0.08,-0.3 -0.13,-0.36 -0.21,-0.06 -0.33,-0.04 -0.93,0.05 -0.6,0.09 -0.95,0.08 -2.08,0.39 -1.13,0.31 -1.85,0.53 -3.57,1.14 -1.71,0.61 -2.86,1.02 -5,1.91 -2.15,0.89 -3.35,1.41 -5.72,2.53 -2.38,1.12 -3.67,1.75 -6.16,3.06 -2.5,1.32 -3.9,2.04 -6.34,3.51 -2.43,1.47 -3.69,2.27 -5.85,3.84 -2.15,1.57 -3.17,2.41 -4.92,4 -1.76,1.6 -2.61,2.43 -3.84,3.97 -1.23,1.53 -1.72,2.34 -2.31,3.72 -0.58,1.37 -0.68,2.09 -0.63,3.17 0.05,1.09 0.27,1.63 0.88,2.27 0.61,0.63 1.14,0.85 2.15,0.91 1.02,0.06 1.67,-0.1 2.94,-0.61 1.26,-0.51 1.97,-0.9 3.36,-1.93 1.4,-1.04 2.18,-1.71 3.63,-3.25 1.46,-1.53 2.17,-2.49 3.65,-4.42 1.48,-1.94 2.27,-3.04 3.77,-5.25 1.5,-2.22 2.29,-3.49 3.74,-5.84 1.44,-2.36 2.16,-3.63 3.5,-5.95 1.34,-2.32 2.03,-3.52 3.22,-5.64 1.18,-2.12 1.84,-3.18 2.69,-4.96 0.86,-1.78 1.29,-2.65 1.58,-3.94 0.3,-1.29 0.27,-1.88 -0.08,-2.5 -0.36,-0.61 -0.77,-0.7 -1.68,-0.57 -0.9,0.13 -1.53,0.52 -2.84,1.23 -1.31,0.7 -2.18,1.38 -3.7,2.31 -1.53,0.94 -2.42,1.54 -3.93,2.37 -1.5,0.82 -2.34,1.18 -3.58,1.77 -1.24,0.58 -1.82,0.82 -2.59,1.16 -0.78,0.34 -1.04,0.48 -1.3,0.52 -0.27,0.04 -0.28,0.01 -0.02,-0.32 0.26,-0.34 0.56,-0.65 1.31,-1.34 0.74,-0.7 1.27,-1.23 2.41,-2.13 1.14,-0.89 2,-1.43 3.29,-2.34 1.29,-0.91 2.12,-1.41 3.15,-2.2 1.03,-0.79 1.53,-1.23 2.01,-1.76 0.48,-0.53 0.6,-0.76 0.37,-0.88 -0.23,-0.12 -0.55,-0.1 -1.53,0.29 -0.98,0.39 -1.82,0.84 -3.35,1.66 -1.53,0.82 -2.48,1.41 -4.31,2.44 -1.83,1.02 -2.97,1.65 -4.83,2.68 -1.87,1.03 -2.88,1.61 -4.51,2.46 -1.63,0.85 -2.4,1.24 -3.65,1.79 -1.24,0.55 -1.83,0.74 -2.56,0.97 -0.73,0.23 -0.89,0.3 -1.09,0.16 -0.19,-0.15 -0.07,-0.33 0.11,-0.88 0.18,-0.55 0.43,-0.99 0.79,-1.87 0.35,-0.88 0.71,-1.47 0.99,-2.52 0.28,-1.05 0.49,-1.74 0.39,-2.74 -0.09,-1.01 -0.23,-1.59 -0.86,-2.28 -0.63,-0.69 -1.1,-0.97 -2.28,-1.15 -1.18,-0.19 -1.96,-0.11 -3.62,0.23 -1.66,0.34 -2.73,0.73 -4.67,1.47 -1.93,0.75 -3.06,1.3 -5.01,2.25 -1.95,0.94 -3.07,1.53 -4.72,2.47 -1.65,0.95 -2.48,1.5 -3.53,2.25 -1.05,0.75 -1.4,1.13 -1.72,1.5 -0.32,0.37 -0.18,0.49 0.12,0.35 0.3,-0.14 0.72,-0.4 1.38,-1.05 0.66,-0.66 1.14,-1.25 1.93,-2.23 0.79,-0.98 1.37,-1.63 2.03,-2.69 0.66,-1.06 0.98,-1.68 1.25,-2.61 0.27,-0.93 0.33,-1.48 0.1,-2.06 -0.24,-0.59 -0.51,-0.83 -1.28,-0.87 -0.77,-0.05 -1.36,0.14 -2.57,0.65 -1.22,0.51 -1.96,1.01 -3.5,1.89 -1.54,0.88 -2.44,1.48 -4.2,2.52 -1.76,1.03 -2.78,1.63 -4.58,2.65 -1.8,1.03 -2.79,1.63 -4.43,2.48 -1.65,0.86 -2.46,1.24 -3.78,1.79 -1.31,0.54 -1.91,0.7 -2.79,0.93 -0.87,0.23 -1.18,0.33 -1.58,0.22 -0.41,-0.11 -0.49,-0.27 -0.45,-0.76 0.04,-0.5 0.17,-0.86 0.64,-1.72 0.47,-0.87 0.9,-1.5 1.72,-2.6 0.81,-1.11 1.44,-1.78 2.35,-2.94 0.91,-1.16 1.56,-1.86 2.2,-2.87 0.63,-1 0.92,-1.58 0.97,-2.16 0.05,-0.58 -0.12,-0.78 -0.72,-0.74 -0.6,0.04 -1.1,0.32 -2.26,0.94 -1.16,0.62 -1.96,1.26 -3.54,2.15 -1.58,0.89 -2.56,1.45 -4.36,2.31 -1.81,0.86 -2.81,1.33 -4.65,1.98 -1.84,0.65 -2.85,0.92 -4.55,1.26 -1.71,0.33 -2.57,0.43 -3.98,0.41 -1.4,-0.03 -2.05,-0.21 -3.03,-0.54 -0.98,-0.34 -1.34,-0.62 -1.87,-1.14 -0.53,-0.53 -0.49,-0.95 -0.78,-1.47 -0.28,-0.52 -0.38,-0.81 -0.63,-1.14 -0.26,-0.34 -0.37,-0.47 -0.66,-0.53 -0.28,-0.05 -0.41,-0.07 -0.75,0.25 -0.35,0.32 -0.64,0.65 -0.97,1.36 -0.34,0.7 -0.54,1.34 -0.72,2.18 -0.18,0.83 -0.19,1.37 -0.19,2.01 0,0.64 -0.02,1.01 0.18,1.19 0.19,0.19 0.32,0.24 0.79,-0.27 0.46,-0.51 0.74,-1 1.53,-2.29 0.79,-1.28 1.26,-2.24 2.41,-4.14 1.16,-1.9 1.91,-3.09 3.37,-5.37 1.45,-2.27 2.33,-3.67 3.9,-6.01 1.57,-2.35 2.6,-3.66 3.96,-5.71 1.35,-2.04 2.06,-3.09 2.81,-4.51 0.75,-1.43 0.97,-2.07 0.93,-2.6 -0.03,-0.53 -0.32,-0.57 -1.11,-0.05 -0.78,0.52 -1.43,1.22 -2.83,2.65 -1.4,1.43 -2.26,2.48 -4.16,4.49 -1.89,2.02 -3.06,3.28 -5.3,5.58 -2.24,2.3 -3.53,3.64 -5.9,5.93 -2.38,2.29 -3.63,3.51 -5.96,5.53 -2.32,2.01 -3.62,2.95 -5.68,4.53 -2.05,1.58 -3.04,2.33 -4.61,3.36 -1.58,1.03 -2.26,1.36 -3.27,1.79 -1.01,0.44 -1.37,0.48 -1.8,0.38 -0.42,-0.09 -0.45,-0.29 -0.33,-0.85 0.12,-0.55 0.49,-1.03 0.93,-1.94 0.44,-0.91 0.89,-1.58 1.26,-2.62 0.37,-1.03 0.59,-1.76 0.59,-2.57 0.01,-0.8 -0.05,-1.18 -0.56,-1.46 -0.51,-0.29 -0.96,-0.3 -1.99,0.02 -1.04,0.32 -1.76,0.83 -3.17,1.58 -1.4,0.75 -2.33,1.35 -3.86,2.18 -1.52,0.82 -2.35,1.28 -3.75,1.94 -1.4,0.67 -2.14,0.96 -3.25,1.38 -1.11,0.42 -1.63,0.59 -2.29,0.73 -0.67,0.14 -0.89,0.19 -1.04,-0.02 -0.15,-0.21 -0.09,-0.42 0.28,-1.05 0.36,-0.63 0.69,-1.17 1.56,-2.09 0.86,-0.92 1.49,-1.51 2.76,-2.51 1.27,-1 2.12,-1.58 3.59,-2.5 1.47,-0.91 2.35,-1.4 3.78,-2.07 1.42,-0.67 2.22,-0.87 3.34,-1.28 1.13,-0.4 1.61,-0.49 2.27,-0.76 0.66,-0.26 0.88,-0.38 1.04,-0.56 0.15,-0.19 0.09,-0.34 -0.28,-0.35 -0.37,-0.02 -0.79,0.07 -1.56,0.25 -0.77,0.19 -1.24,0.42 -2.28,0.67 -1.05,0.25 -1.72,0.36 -2.94,0.58 -1.22,0.22 -1.94,0.35 -3.17,0.52 -1.22,0.17 -1.83,0.22 -2.97,0.32 -1.13,0.1 -1.68,0.11 -2.72,0.18 -1.03,0.08 -1.47,0.1 -2.44,0.19 -0.96,0.09 -1.39,0.09 -2.38,0.26 -0.99,0.17 -1.48,0.26 -2.56,0.6 -1.08,0.34 -1.65,0.55 -2.85,1.09 -1.19,0.54 -1.87,0.86 -3.14,1.61 -1.27,0.75 -1.94,1.25 -3.21,2.15 -1.27,0.89 -1.99,1.43 -3.16,2.33 -1.16,0.89 -1.79,1.35 -2.67,2.15 -0.88,0.8 -1.25,1.23 -1.71,1.84 -0.46,0.62 -0.58,0.94 -0.6,1.23 -0.02,0.28 0.13,0.39 0.5,0.2 0.37,-0.19 0.69,-0.45 1.33,-1.15 0.64,-0.71 1.13,-1.31 1.86,-2.37 0.73,-1.06 1.26,-1.83 1.79,-2.95 0.54,-1.12 0.76,-1.78 0.87,-2.65 0.1,-0.87 0.08,-1.33 -0.32,-1.69 -0.41,-0.36 -0.83,-0.37 -1.71,-0.09 -0.88,0.28 -1.47,0.76 -2.7,1.51 -1.22,0.75 -1.91,1.32 -3.43,2.25 -1.51,0.94 -2.39,1.5 -4.14,2.44 -1.76,0.93 -2.79,1.44 -4.64,2.22 -1.84,0.79 -2.87,1.18 -4.6,1.7 -1.74,0.52 -2.62,0.72 -4.09,0.9 -1.48,0.17 -2.18,0.17 -3.29,-0.02 -1.12,-0.19 -1.6,-0.4 -2.29,-0.92 -0.69,-0.52 -0.95,-0.88 -1.17,-1.7 -0.21,-0.82 -0.16,-1.34 0.1,-2.39 0.26,-1.04 0.58,-1.72 1.22,-2.84 0.64,-1.12 1.1,-1.76 1.98,-2.75 0.87,-0.99 1.48,-1.5 2.4,-2.21 0.93,-0.71 1.46,-0.96 2.23,-1.33 0.78,-0.36 1.12,-0.42 1.64,-0.5 0.52,-0.07 0.69,-0.05 0.94,0.13 0.25,0.17 0.34,0.31 0.31,0.75 -0.04,0.45 -0.09,0.77 -0.49,1.48 -0.4,0.71 -0.68,1.17 -1.5,2.06 -0.82,0.88 -1.39,1.39 -2.62,2.37 -1.22,0.99 -2,1.57 -3.51,2.55 -1.52,0.98 -2.39,1.5 -4.06,2.36 -1.67,0.86 -2.62,1.27 -4.31,1.93 -1.69,0.66 -2.59,0.96 -4.13,1.36 -1.54,0.41 -2.32,0.51 -3.59,0.66 -1.28,0.16 -1.89,0.15 -2.8,0.11 -0.91,-0.05 -1.25,-0.15 -1.77,-0.33 -0.52,-0.17 -0.65,-0.32 -0.84,-0.54 -0.19,-0.22 -0.18,-0.34 -0.11,-0.56 0.07,-0.22 0.2,-0.3 0.46,-0.54 0.27,-0.24 0.46,-0.42 0.86,-0.66 0.39,-0.24 0.62,-0.33 1.13,-0.54 0.52,-0.21 0.86,-0.22 1.43,-0.5 0.57,-0.28 0.92,-0.46 1.44,-0.91 0.51,-0.45 0.79,-0.72 1.13,-1.34 0.35,-0.62 0.47,-1.02 0.58,-1.76 0.12,-0.74 0.08,-1.14 0.01,-1.93 -0.07,-0.79 -0.12,-1.21 -0.37,-2.03 -0.24,-0.82 -0.4,-1.31 -0.86,-2.09 -0.47,-0.78 -0.78,-1.2 -1.47,-1.81 -0.68,-0.6 -1.04,-0.89 -1.96,-1.22 -0.91,-0.32 -1.45,-0.47 -2.62,-0.4 -1.17,0.07 -1.82,0.2 -3.24,0.75 -1.42,0.56 -2.22,0.97 -3.87,2.01 -1.65,1.05 -2.52,1.69 -4.36,3.22 -1.85,1.53 -2.88,2.43 -4.86,4.45 -1.98,2.01 -3.04,3.25 -5.05,5.64 -2,2.39 -3.05,3.75 -4.98,6.3 -1.92,2.55 -2.93,3.92 -4.64,6.44 -1.71,2.51 -2.62,3.83 -3.91,6.12 -1.3,2.28 -1.91,3.51 -2.56,5.3 -0.64,1.78 -0.73,2.67 -0.67,3.63 0.06,0.97 0.32,1.27 0.97,1.19 0.65,-0.07 1.14,-0.45 2.28,-1.57 1.13,-1.11 1.87,-2.06 3.39,-4 1.52,-1.94 2.42,-3.21 4.21,-5.7 1.79,-2.49 2.83,-4.06 4.75,-6.74 1.91,-2.69 2.96,-4.13 4.83,-6.7 1.87,-2.57 2.91,-3.86 4.52,-6.17 1.61,-2.31 2.4,-3.43 3.54,-5.37 1.15,-1.95 1.66,-2.85 2.19,-4.34 0.52,-1.5 0.62,-2.17 0.46,-3.13 -0.17,-0.97 -0.47,-1.32 -1.28,-1.68 -0.8,-0.37 -1.41,-0.3 -2.76,-0.14 -1.36,0.16 -2.24,0.44 -4,0.93 -1.76,0.49 -2.79,0.88 -4.8,1.5 -2.02,0.62 -3.17,1.03 -5.27,1.6 -2.1,0.57 -3.29,0.86 -5.23,1.25 -1.95,0.39 -2.92,0.54 -4.49,0.69 -1.57,0.16 -2.29,0.13 -3.37,0.07 -1.08,-0.06 -1.49,-0.2 -2.02,-0.36 -0.53,-0.17 -0.6,-0.29 -0.62,-0.48 -0.01,-0.2 0.15,-0.31 0.53,-0.49 0.38,-0.18 0.75,-0.3 1.37,-0.41 0.63,-0.12 1.11,-0.24 1.77,-0.18 0.65,0.07 1.11,0.09 1.52,0.48 0.41,0.4 0.6,0.69 0.54,1.5 -0.06,0.81 -0.24,1.41 -0.85,2.55 -0.62,1.14 -1.12,1.88 -2.24,3.15 -1.12,1.28 -1.91,2.03 -3.37,3.23 -1.45,1.2 -2.32,1.85 -3.9,2.77 -1.59,0.93 -2.54,1.31 -4.03,1.87 -1.5,0.56 -2.29,0.77 -3.45,0.95 -1.16,0.17 -1.68,0.18 -2.34,-0.08 -0.66,-0.26 -0.88,-0.5 -0.97,-1.22 -0.08,-0.71 0.02,-1.22 0.54,-2.36 0.52,-1.13 1.04,-1.93 2.07,-3.31 1.03,-1.37 1.72,-2.23 3.07,-3.57 1.35,-1.34 2.27,-2.05 3.67,-3.13 1.41,-1.07 2.22,-1.6 3.38,-2.25 1.16,-0.65 1.61,-0.82 2.41,-0.99 0.8,-0.16 1.04,0.04 1.58,0.15 0.54,0.12 0.72,0.31 1.12,0.44 0.4,0.13 0.6,0.29 0.89,0.22 0.28,-0.07 0.53,-0.25 0.54,-0.58"
     style="fill:#000000;stroke:#000000"
     id="path20" />
  <path
     d="m 365.15405,604.98599 c 0.37,-0.13 0.67,-0.47 1.02,-1 0.34,-0.54 0.6,-0.91 0.71,-1.66 0.12,-0.75 0.15,-1.36 -0.12,-2.08 -0.27,-0.72 -0.53,-1.02 -1.22,-1.5 -0.69,-0.48 -1.1,-0.75 -2.22,-0.91 -1.11,-0.16 -1.89,-0.14 -3.34,0.11 -1.46,0.25 -2.35,0.55 -3.94,1.15 -1.58,0.61 -2.54,1.03 -4.01,1.89 -1.47,0.85 -2.24,1.39 -3.34,2.41 -1.11,1.01 -1.61,1.56 -2.18,2.66 -0.56,1.09 -0.74,1.7 -0.64,2.81 0.09,1.11 0.37,1.73 1.11,2.74 0.75,1.02 1.35,1.52 2.62,2.35 1.26,0.82 2.16,1.16 3.72,1.77 1.55,0.61 2.54,0.81 4.07,1.28 1.52,0.48 2.35,0.71 3.55,1.08 1.19,0.37 1.77,0.54 2.4,0.78 0.63,0.24 0.83,0.25 0.76,0.42 -0.08,0.18 -0.35,0.2 -1.14,0.46 -0.8,0.26 -1.44,0.45 -2.84,0.85 -1.4,0.4 -2.37,0.69 -4.14,1.15 -1.77,0.45 -2.92,0.71 -4.72,1.13 -1.8,0.42 -2.76,0.62 -4.27,0.97 -1.51,0.35 -2.64,0.46 -3.28,0.76 -0.64,0.31 -0.64,0.57 0.06,0.76 0.71,0.19 1.87,0.27 3.45,0.2 1.58,-0.06 2.6,-0.24 4.47,-0.54 1.86,-0.29 3.03,-0.51 4.87,-0.95 1.84,-0.45 2.87,-0.7 4.32,-1.27 1.45,-0.58 2.12,-0.93 2.93,-1.6 0.81,-0.68 1.06,-1.09 1.12,-1.79 0.06,-0.69 -0.17,-1.06 -0.83,-1.69 -0.66,-0.62 -1.27,-0.89 -2.47,-1.44 -1.21,-0.54 -2.07,-0.78 -3.57,-1.31 -1.51,-0.52 -2.47,-0.75 -3.95,-1.31 -1.48,-0.56 -2.29,-0.86 -3.44,-1.49 -1.16,-0.63 -1.68,-0.99 -2.35,-1.68 -0.67,-0.69 -0.92,-1.04 -1.01,-1.77 -0.09,-0.73 0.06,-1.1 0.58,-1.88 0.52,-0.77 0.99,-1.21 2.02,-2.01 1.04,-0.8 1.77,-1.27 3.15,-2 1.38,-0.72 2.31,-1.08 3.78,-1.61 1.47,-0.53 2.31,-0.76 3.58,-1.05 1.27,-0.28 1.9,-0.34 2.76,-0.36 0.87,-0.02 1.16,0.09 1.55,0.26 0.39,0.17 0.38,0.23 0.39,0.59 0.01,0.36 -0.21,0.71 -0.35,1.23 -0.14,0.52 -0.28,0.84 -0.36,1.39 -0.08,0.54 -0.2,1 -0.06,1.34 0.15,0.34 0.44,0.49 0.8,0.36"
     style="fill:#000000;stroke:#000000"
     id="path22" />
  <path
     d="m 374.34405,606.42599 c -0.29,0.2 -0.4,0.49 -0.68,1.16 -0.29,0.66 -0.49,1.12 -0.75,2.16 -0.26,1.04 -0.49,1.79 -0.56,3.03 -0.06,1.25 -0.07,2.05 0.25,3.21 0.33,1.17 0.61,1.78 1.39,2.61 0.77,0.83 1.3,1.19 2.48,1.53 1.18,0.34 1.87,0.41 3.41,0.17 1.54,-0.23 2.48,-0.52 4.3,-1.34 1.82,-0.81 2.88,-1.49 4.81,-2.74 1.93,-1.25 2.97,-2.08 4.83,-3.51 1.87,-1.44 2.95,-2.31 4.5,-3.66 1.56,-1.35 2.36,-2.16 3.29,-3.1 0.93,-0.94 1.22,-1.39 1.37,-1.61 0.15,-0.21 -0.05,-0.17 -0.61,0.54 -0.55,0.7 -1.12,1.32 -2.16,2.99 -1.05,1.67 -1.75,2.9 -3.08,5.35 -1.33,2.45 -2.02,3.99 -3.57,6.9 -1.55,2.91 -2.5,4.57 -4.19,7.65 -1.7,3.08 -2.64,4.78 -4.29,7.76 -1.65,2.99 -2.49,4.51 -3.97,7.17 -1.48,2.65 -2.2,3.98 -3.42,6.11 -1.21,2.14 -1.77,3.08 -2.66,4.56 -0.88,1.47 -1.27,2.05 -1.74,2.83 -0.48,0.79 -0.57,1.03 -0.62,1.1 -0.05,0.08 0.08,-0.05 0.37,-0.7 0.29,-0.66 0.48,-1.22 1.08,-2.57 0.59,-1.35 0.88,-2.26 1.9,-4.18 1.02,-1.92 1.62,-3.05 3.2,-5.4 1.57,-2.36 2.56,-3.79 4.69,-6.37 2.14,-2.59 3.39,-3.95 5.98,-6.57 2.59,-2.62 4.09,-4.04 6.99,-6.55 2.9,-2.5 4.54,-3.79 7.51,-5.99 2.97,-2.19 4.55,-3.21 7.35,-4.98 2.8,-1.77 4.26,-2.54 6.66,-3.87 2.41,-1.33 3.57,-1.93 5.37,-2.78 1.8,-0.86 2.58,-1.11 3.63,-1.49 1.05,-0.37 1.34,-0.43 1.62,-0.37 0.28,0.06 0.14,0.16 -0.22,0.67 -0.36,0.51 -0.8,0.92 -1.58,1.88 -0.78,0.96 -1.29,1.64 -2.31,2.91 -1.01,1.28 -1.63,2.09 -2.75,3.45 -1.13,1.36 -1.78,2.1 -2.88,3.35 -1.11,1.26 -1.69,1.88 -2.65,2.92 -0.97,1.04 -1.42,1.5 -2.18,2.28 -0.76,0.77 -1.14,1.03 -1.63,1.59 -0.49,0.57 -0.7,0.79 -0.81,1.24 -0.11,0.44 0.01,0.67 0.24,0.97 0.23,0.31 0.48,0.44 0.93,0.55 0.46,0.1 0.71,0.1 1.35,-0.01 0.64,-0.12 1.01,-0.23 1.87,-0.58 0.86,-0.34 1.34,-0.55 2.43,-1.13 1.09,-0.58 1.71,-0.9 3.02,-1.76 1.32,-0.87 2.04,-1.39 3.56,-2.57 1.52,-1.18 2.34,-1.85 4.04,-3.32 1.7,-1.48 2.61,-2.31 4.45,-4.04 1.84,-1.72 2.81,-2.67 4.74,-4.58 1.93,-1.92 2.96,-2.96 4.9,-4.98 1.93,-2.02 2.91,-3.1 4.78,-5.14 1.87,-2.04 2.85,-3.11 4.57,-5.05 1.73,-1.94 2.59,-2.95 4.06,-4.64 1.48,-1.69 2.23,-2.49 3.31,-3.82 1.09,-1.34 1.64,-2.05 2.1,-2.86 0.46,-0.8 0.49,-1.16 0.21,-1.16 -0.28,0 -0.71,0.2 -1.6,1.14 -0.9,0.94 -1.57,1.75 -2.89,3.55 -1.31,1.8 -2.16,3.1 -3.68,5.45 -1.53,2.35 -2.36,3.79 -3.92,6.31 -1.56,2.51 -2.43,3.84 -3.88,6.27 -1.46,2.44 -2.19,3.7 -3.42,5.9 -1.22,2.19 -1.78,3.29 -2.71,5.09 -0.93,1.79 -1.38,2.57 -1.95,3.87 -0.56,1.29 -0.73,1.82 -0.86,2.61 -0.13,0.79 0.1,1.06 0.23,1.33 0.12,0.27 0.26,0.23 0.41,0.02 0.15,-0.2 0.02,-0.38 0.35,-1.03 0.33,-0.66 0.63,-1.03 1.31,-2.22 0.68,-1.19 1.11,-1.99 2.08,-3.74 0.97,-1.75 1.54,-2.84 2.79,-5 1.25,-2.16 1.98,-3.41 3.45,-5.81 1.47,-2.4 2.3,-3.74 3.92,-6.19 1.62,-2.46 2.6,-3.79 4.19,-6.08 1.58,-2.29 2.52,-3.51 3.73,-5.38 1.2,-1.87 1.75,-2.77 2.3,-3.97 0.54,-1.21 0.6,-1.7 0.41,-2.06 -0.19,-0.36 -0.59,-0.29 -1.38,0.26 -0.79,0.55 -1.37,1.25 -2.55,2.51 -1.18,1.25 -1.86,2.1 -3.35,3.78 -1.49,1.67 -2.36,2.66 -4.1,4.58 -1.73,1.92 -2.71,2.99 -4.58,5.01 -1.87,2.02 -2.84,3.08 -4.77,5.08 -1.94,2 -2.97,3.03 -4.89,4.92 -1.92,1.89 -2.89,2.83 -4.72,4.53 -1.82,1.69 -2.73,2.51 -4.41,3.95 -1.67,1.44 -2.48,2.1 -3.96,3.24 -1.48,1.14 -2.18,1.64 -3.43,2.46 -1.26,0.82 -1.83,1.12 -2.85,1.65 -1.02,0.53 -1.46,0.7 -2.24,1 -0.77,0.3 -1.11,0.31 -1.64,0.51 -0.53,0.2 -0.72,0.3 -0.99,0.51 -0.27,0.2 -0.33,0.4 -0.36,0.52 -0.02,0.12 -0.01,0.21 0.24,0.1 0.25,-0.12 0.47,-0.24 1.02,-0.67 0.56,-0.43 0.95,-0.73 1.77,-1.47 0.81,-0.74 1.3,-1.21 2.32,-2.23 1.03,-1.01 1.63,-1.62 2.8,-2.84 1.18,-1.23 1.86,-1.95 3.06,-3.28 1.2,-1.34 1.91,-2.09 2.96,-3.4 1.04,-1.32 1.61,-2.01 2.26,-3.19 0.65,-1.18 0.92,-1.84 0.98,-2.72 0.06,-0.89 -0.07,-1.3 -0.66,-1.69 -0.59,-0.39 -1.03,-0.47 -2.28,-0.28 -1.26,0.2 -2.08,0.46 -3.99,1.25 -1.91,0.8 -3.13,1.36 -5.57,2.74 -2.44,1.37 -3.84,2.27 -6.64,4.12 -2.81,1.85 -4.38,2.88 -7.38,5.12 -2.99,2.24 -4.65,3.54 -7.59,6.06 -2.94,2.53 -4.46,3.94 -7.12,6.56 -2.67,2.62 -3.96,3.96 -6.22,6.53 -2.27,2.56 -3.4,3.92 -5.12,6.29 -1.71,2.37 -2.37,3.54 -3.45,5.55 -1.08,2.01 -1.49,2.97 -1.95,4.5 -0.46,1.54 -0.49,2.28 -0.37,3.18 0.12,0.9 0.44,1.22 0.96,1.33 0.52,0.11 0.87,-0.07 1.62,-0.78 0.75,-0.7 1.16,-1.29 2.15,-2.75 1,-1.46 1.59,-2.4 2.83,-4.54 1.25,-2.14 1.95,-3.49 3.41,-6.17 1.45,-2.67 2.23,-4.23 3.87,-7.22 1.64,-2.99 2.57,-4.68 4.31,-7.73 1.74,-3.06 2.7,-4.71 4.38,-7.54 1.68,-2.84 2.64,-4.23 4.03,-6.65 1.4,-2.42 2.09,-3.64 2.95,-5.45 0.86,-1.81 1.2,-2.58 1.35,-3.6 0.14,-1.02 -0.02,-1.38 -0.61,-1.52 -0.59,-0.14 -1.16,0.1 -2.34,0.82 -1.18,0.73 -1.97,1.54 -3.58,2.81 -1.61,1.27 -2.64,2.15 -4.49,3.53 -1.84,1.38 -2.88,2.18 -4.73,3.38 -1.86,1.2 -2.88,1.81 -4.53,2.62 -1.66,0.8 -2.47,1.1 -3.75,1.4 -1.27,0.31 -1.77,0.31 -2.63,0.13 -0.87,-0.17 -1.2,-0.42 -1.68,-1 -0.48,-0.58 -0.61,-1.01 -0.71,-1.92 -0.1,-0.9 0.05,-1.53 0.2,-2.61 0.14,-1.08 0.37,-1.78 0.51,-2.8 0.13,-1.01 0.18,-1.55 0.16,-2.28 -0.02,-0.73 -0.07,-1.07 -0.27,-1.36 -0.21,-0.3 -0.46,-0.33 -0.75,-0.12"
     style="fill:#000000;stroke:#000000"
     id="path24" />
  <path
     d="m 433.58405,618.23599 c -0.06,-0.01 -0.23,0.37 -0.12,0.61 0.1,0.24 0.18,0.47 0.64,0.6 0.46,0.14 0.69,0.11 1.66,0.05 0.96,-0.05 1.68,-0.08 3.16,-0.32 1.48,-0.24 2.39,-0.44 4.24,-0.86 1.84,-0.41 2.85,-0.66 4.99,-1.2 2.14,-0.53 3.36,-0.81 5.69,-1.46 2.34,-0.66 3.64,-1.03 5.98,-1.8 2.34,-0.76 3.58,-1.2 5.73,-2.02 2.14,-0.83 3.25,-1.24 4.99,-2.09 1.75,-0.86 2.57,-1.3 3.73,-2.19 1.16,-0.9 1.64,-1.44 2.07,-2.29 0.42,-0.86 0.42,-1.38 0.06,-1.99 -0.35,-0.61 -0.81,-0.92 -1.85,-1.05 -1.04,-0.12 -1.83,-0.05 -3.33,0.42 -1.5,0.48 -2.47,0.94 -4.18,1.97 -1.71,1.04 -2.74,1.81 -4.37,3.22 -1.63,1.41 -2.51,2.28 -3.78,3.86 -1.27,1.58 -1.93,2.49 -2.55,4.06 -0.62,1.56 -0.75,2.45 -0.54,3.78 0.21,1.33 0.59,1.99 1.57,2.87 0.98,0.87 1.73,1.22 3.33,1.51 1.61,0.28 2.67,0.23 4.69,-0.09 2.01,-0.32 3.19,-0.7 5.38,-1.53 2.19,-0.83 3.38,-1.44 5.57,-2.61 2.19,-1.18 3.34,-1.94 5.39,-3.26 2.04,-1.33 3.12,-2.12 4.83,-3.37 1.71,-1.25 2.61,-1.94 3.74,-2.88 1.12,-0.95 1.57,-1.43 1.88,-1.85 0.32,-0.42 0.15,-0.5 -0.29,-0.24 -0.44,0.25 -1,0.61 -1.91,1.5 -0.91,0.89 -1.61,1.63 -2.64,2.95 -1.03,1.33 -1.69,2.31 -2.52,3.67 -0.82,1.35 -1.23,2.04 -1.61,3.11 -0.38,1.08 -0.52,1.6 -0.29,2.27 0.23,0.67 0.54,1 1.45,1.09 0.9,0.09 1.65,-0.09 3.08,-0.65 1.43,-0.56 2.3,-1.13 4.05,-2.14 1.76,-1.02 2.8,-1.77 4.73,-2.93 1.94,-1.16 3.09,-1.84 4.96,-2.87 1.87,-1.03 2.9,-1.59 4.38,-2.28 1.49,-0.69 2.19,-0.93 3.06,-1.18 0.86,-0.25 1.09,-0.27 1.27,-0.09 0.19,0.18 0.01,0.39 -0.36,0.99 -0.37,0.6 -0.82,1.07 -1.48,2.01 -0.66,0.94 -1.2,1.61 -1.81,2.69 -0.62,1.08 -1,1.77 -1.26,2.7 -0.26,0.92 -0.3,1.38 -0.06,1.93 0.25,0.54 0.47,0.75 1.28,0.78 0.81,0.04 1.46,-0.09 2.78,-0.61 1.33,-0.53 2.18,-1.08 3.84,-2 1.65,-0.92 2.63,-1.59 4.43,-2.62 1.81,-1.04 2.9,-1.65 4.6,-2.54 1.71,-0.89 2.67,-1.37 3.94,-1.9 1.27,-0.54 1.84,-0.72 2.41,-0.78 0.57,-0.07 0.58,-0.01 0.46,0.45 -0.12,0.46 -0.5,0.88 -1.07,1.82 -0.57,0.95 -1.12,1.66 -1.76,2.91 -0.65,1.25 -1.13,2.13 -1.45,3.36 -0.32,1.23 -0.44,1.91 -0.13,2.8 0.3,0.89 0.66,1.29 1.66,1.64 1,0.36 1.73,0.37 3.33,0.14 1.61,-0.23 2.67,-0.56 4.69,-1.29 2.03,-0.73 3.4,-1.38 5.43,-2.34 2.03,-0.97 3.16,-1.58 4.7,-2.49 1.55,-0.92 2.49,-1.53 3.03,-2.07 0.55,-0.54 0.45,-0.73 -0.3,-0.63 -0.76,0.1 -1.79,0.51 -3.47,1.12 -1.68,0.6 -2.86,1.08 -4.91,1.9 -2.05,0.82 -3.42,1.46 -5.34,2.21 -1.92,0.76 -2.9,1.14 -4.27,1.56 -1.38,0.43 -1.93,0.58 -2.61,0.58 -0.68,0 -0.81,-0.1 -0.79,-0.57 0.03,-0.47 0.38,-0.84 0.92,-1.79 0.55,-0.95 1.16,-1.72 1.79,-2.97 0.64,-1.25 1.05,-2.09 1.37,-3.28 0.32,-1.2 0.46,-1.87 0.24,-2.7 -0.23,-0.83 -0.48,-1.18 -1.38,-1.44 -0.9,-0.26 -1.63,-0.23 -3.12,0.14 -1.48,0.37 -2.49,0.89 -4.3,1.72 -1.81,0.83 -2.9,1.46 -4.76,2.44 -1.86,0.98 -2.91,1.54 -4.55,2.46 -1.64,0.91 -2.5,1.41 -3.64,2.11 -1.15,0.71 -1.62,1.05 -2.09,1.41 -0.47,0.35 -0.4,0.49 -0.25,0.37 0.16,-0.12 0.49,-0.33 1.03,-0.98 0.54,-0.64 0.99,-1.23 1.67,-2.24 0.69,-1.01 1.23,-1.7 1.77,-2.82 0.53,-1.11 0.82,-1.82 0.9,-2.77 0.08,-0.95 0,-1.45 -0.51,-1.99 -0.52,-0.53 -0.93,-0.71 -2.06,-0.69 -1.13,0.02 -1.93,0.21 -3.58,0.8 -1.64,0.59 -2.7,1.16 -4.66,2.14 -1.95,0.99 -3.13,1.67 -5.11,2.78 -1.98,1.12 -3.09,1.79 -4.81,2.8 -1.72,1.01 -2.57,1.54 -3.79,2.26 -1.22,0.73 -1.74,1.08 -2.29,1.37 -0.55,0.28 -0.57,0.32 -0.46,0.06 0.1,-0.26 0.39,-0.58 0.98,-1.37 0.6,-0.79 1.02,-1.4 1.98,-2.58 0.96,-1.18 1.8,-2 2.81,-3.32 1,-1.32 1.59,-2.15 2.22,-3.3 0.64,-1.14 0.91,-1.77 0.93,-2.44 0.02,-0.66 -0.15,-0.93 -0.82,-0.88 -0.68,0.05 -1.29,0.37 -2.57,1.14 -1.29,0.78 -2.13,1.52 -3.85,2.72 -1.73,1.19 -2.78,1.98 -4.79,3.26 -2.01,1.28 -3.14,2.02 -5.27,3.13 -2.12,1.12 -3.28,1.67 -5.35,2.44 -2.07,0.78 -3.18,1.09 -5,1.45 -1.81,0.36 -2.73,0.44 -4.07,0.35 -1.35,-0.09 -1.9,-0.25 -2.64,-0.8 -0.74,-0.54 -1,-0.95 -1.07,-1.91 -0.07,-0.96 0.07,-1.63 0.71,-2.9 0.64,-1.28 1.27,-2.08 2.5,-3.47 1.23,-1.38 2.1,-2.19 3.66,-3.46 1.56,-1.28 2.58,-1.95 4.16,-2.9 1.58,-0.95 2.48,-1.32 3.75,-1.88 1.27,-0.56 1.87,-0.72 2.61,-0.93 0.74,-0.2 0.96,-0.25 1.1,-0.1 0.13,0.14 0.05,0.34 -0.43,0.83 -0.49,0.49 -0.88,0.93 -1.98,1.63 -1.11,0.71 -1.86,1.13 -3.55,1.89 -1.69,0.76 -2.79,1.15 -4.9,1.92 -2.11,0.76 -3.35,1.19 -5.66,1.92 -2.31,0.72 -3.6,1.09 -5.91,1.72 -2.31,0.62 -3.53,0.92 -5.64,1.42 -2.12,0.5 -3.13,0.73 -4.95,1.08 -1.81,0.35 -2.69,0.45 -4.14,0.66 -1.45,0.21 -2.14,0.22 -3.08,0.39 -0.94,0.18 -1.21,0.24 -1.61,0.49 -0.4,0.24 -0.38,0.49 -0.4,0.73 -0.02,0.24 0.29,0.5 0.31,0.46 0.02,-0.03 -0.13,-0.62 -0.2,-0.63"
     style="fill:#000000;stroke:#000000"
     id="path26" />
</svg>
