<?xml version="1.0" encoding="UTF-8"?>
<!-- Created with Inkscape (http://www.inkscape.org/) -->
<svg id="SVGRoot" width="1920px" height="1080px" version="1.1" viewBox="0 0 1920 1080" xml:space="preserve" xmlns="http://www.w3.org/2000/svg"><g fill="#263238"><rect x="-2.9618" y="-1.9236" width="1926.6" height="1084" fill="#152530" stroke-width="4.623"/></g><g fill="#e0e0e0"><g transform="matrix(1.4601 0 0 1.4601 -248.2 -128.65)" opacity=".92308"><path d="m745.21 406.37c-0.27668 0.24209-0.34585 0.48419-0.611 1.2796-0.26515 0.80698-0.34584 1.222-0.71475 2.7437-0.3689 1.5102-0.55335 2.5132-1.1413 4.8303-0.58794 2.3056-0.93379 3.7582-1.7984 6.7325-0.85309 2.9628-1.3949 4.7035-2.5132 8.1159-1.1067 3.4124-1.7869 5.3491-3.055 8.9459-1.2566 3.5968-1.9713 5.5336-3.2394 9.0381s-1.9828 5.303-3.1011 8.4732-1.6255 4.7727-2.4901 7.3781c-0.86461 2.6054-1.2566 3.8158-1.8099 5.6373-0.55335 1.8214-0.76086 2.5938-0.96837 3.47-0.2075 0.88767-0.13834 1.0836-0.0692 0.92226 0.0692-0.1614 0.2421-0.5303 0.42655-1.7062 0.18445-1.1644 0.26515-2.0636 0.49571-4.1386 0.21904-2.0866 0.29974-3.493 0.63405-6.2598 0.33432-2.7668 0.51877-4.4384 1.0375-7.5971 0.50724-3.1703 0.78392-4.9226 1.5102-8.2196 0.71475-3.2971 1.1759-4.9917 2.0981-8.2773 0.91072-3.274 1.4295-4.9802 2.5016-8.1159 1.0721-3.1472 1.6601-4.7612 2.8475-7.5856 1.1989-2.8244 1.8215-4.1732 3.1242-6.5596 1.2912-2.3863 1.9828-3.5046 3.3662-5.3722 1.3949-1.856 2.1097-2.7091 3.5622-3.9542 1.441-1.2566 2.1788-1.7177 3.6775-2.2941 1.5102-0.56488 2.2249-0.68017 3.8158-0.56488 1.5909 0.10375 2.4094 0.35737 4.1271 1.1182 1.7177 0.76087 2.6976 1.3258 4.4614 2.6861 1.7523 1.3603 2.7207 2.2365 4.3346 4.104 1.614 1.8676 2.467 2.9512 3.7006 5.2338 1.245 2.2826 1.8215 3.5507 2.4786 6.1676 0.64558 2.6284 0.84156 4.0464 0.79545 6.9515-0.0461 2.9051-0.25362 4.4845-1.0375 7.5856-0.79545 3.1011-1.3719 4.7381-2.9166 7.9199-1.5448 3.1933-2.5477 4.8764-4.8073 8.0121-2.248 3.1357-3.6083 4.7266-6.4788 7.6663-2.8705 2.9397-4.5767 4.4153-7.8622 7.0437-3.2855 2.6284-5.1185 3.8965-8.577 6.0984-3.4585 2.1904-5.3837 3.2279-8.7153 4.8649-3.3432 1.6255-5.0955 2.3056-7.966 3.3086-2.8705 1.0145-4.3 1.3719-6.4097 1.7292-2.1097 0.35738-3.0319 0.35738-4.1502 0.0692-1.1298-0.29973-1.3834-0.6571-1.4641-1.5563-0.0807-0.8992 0.13834-1.5332 1.0721-2.9628 0.92226-1.4295 1.6716-2.3863 3.5738-4.1847 1.8906-1.8099 3.1357-2.8705 5.914-4.8418 2.7898-1.9713 4.5191-3.078 8.0006-5.0263 3.4815-1.9483 5.499-2.9282 9.407-4.7266 3.9081-1.7984 6.0523-2.6169 10.145-4.277 4.104-1.6485 6.3059-2.4325 10.364-3.9772s6.1561-2.3172 9.9604-3.7351c3.7928-1.4064 5.741-2.0059 9.0496-3.3201 3.3086-1.3027 4.9341-1.9483 7.5049-3.2164 2.5593-1.2566 3.7121-1.9483 5.3376-3.1011 1.614-1.1413 2.1904-1.6831 2.7668-2.6284 0.56488-0.94531 0.50724-1.4526 0.0922-2.0866-0.41502-0.64558-0.9799-1.003-2.1558-1.1298s-2.052-0.0576-3.7351 0.48419c-1.6946 0.53029-2.7207 0.99142-4.7035 2.1904-1.9828 1.1989-3.1933 2.0405-5.2108 3.8158-2.0174 1.7753-3.1472 2.9282-4.888 5.0724-1.7292 2.1327-2.6284 3.4008-3.7812 5.6027-1.1413 2.2134-1.614 3.4354-1.9483 5.4183-0.33432 1.9944-0.27668 2.9973 0.27668 4.5191 0.56488 1.5217 1.1182 2.2365 2.5247 3.0896 1.3949 0.85309 2.3979 1.1182 4.473 1.1759 2.0751 0.0461 3.3778-0.11528 5.9024-0.91073 2.5247-0.80697 3.9888-1.4987 6.7325-3.1126 2.7437-1.614 4.1732-2.6976 7.0092-4.9456s4.3692-3.5853 7.1706-6.2829c2.8014-2.7091 4.2539-4.2193 6.8478-7.2397 2.5938-3.0089 3.862-4.7035 6.1445-7.8161 2.2826-3.1242 3.4239-4.7496 5.2799-7.77 1.856-3.0204 2.6976-4.5536 4.0118-7.332 1.3142-2.7668 1.8214-4.1502 2.5708-6.525 0.74933-2.3748 1.0375-3.493 1.1874-5.3606 0.14986-1.8676 0.0807-2.7898-0.44961-3.9888-0.51877-1.2105-1.0491-1.7984-2.1673-2.0636-1.1182-0.26515-1.8906-0.11529-3.4124 0.74933-1.5102 0.86462-2.3979 1.6485-4.1617 3.5968-1.7523 1.9483-2.7668 3.2971-4.6228 6.1561-1.8445 2.8475-2.859 4.7035-4.6228 8.0928-1.7638 3.4008-2.6976 5.303-4.2078 8.8767-1.4987 3.5622-2.2826 5.5566-3.3316 8.9574-1.0606 3.4008-1.5102 5.1531-1.9483 8.0236-0.43808 2.8821-0.47266 4.1963-0.25362 6.3405 0.21903 2.1442 0.55335 3.0665 1.3373 4.4038 0.79545 1.3373 1.3719 1.7869 2.5938 2.2826s2.0751 0.51877 3.5161 0.20751c1.441-0.31126 2.248-0.71475 3.689-1.7869 1.4295-1.0721 2.1673-1.9252 3.493-3.5622 1.3373-1.6485 2.029-2.7322 3.1587-4.6343 1.1413-1.8906 1.6831-3.0896 2.5247-4.8764 0.85308-1.7869 1.2335-2.7437 1.7177-4.0464 0.48419-1.3142 0.56488-1.833 0.70322-2.4901 0.14987-0.65711 0.0231-0.7724 0.0231-0.78392 0-0.0231-0.17293 0.26515-0.0115 0.71475 0.16139 0.4496 0.24209 0.94531 0.84156 1.5217 0.58794 0.57641 1.1067 0.92226 2.1327 1.3488 1.0145 0.43807 1.6831 0.65711 2.9743 0.83003 1.2912 0.17293 2.0174 0.13834 3.47 0.0346 1.441-0.0922 2.2711-0.21904 3.7813-0.5303 1.4987-0.31126 2.3748-0.56488 3.7351-1.0145 1.3603-0.43807 2.1558-0.80698 3.078-1.1874 0.92225-0.3689 1.2566-0.68016 1.5448-0.66864 0.27667 0.0231 0.12681 0.10376-0.14987 0.74934-0.26515 0.65711-0.65711 1.2566-1.1989 2.5132-0.5303 1.2566-0.91073 2.1904-1.4526 3.7697-0.54183 1.5678-0.84156 2.5247-1.2335 4.081-0.38043 1.5678-0.64558 2.4094-0.69169 3.7236-0.0576 1.3142 0 1.9944 0.42654 2.8475 0.41502 0.84156 0.76086 1.1067 1.6831 1.3719s1.6831 0.49571 2.9166-0.0461c1.222-0.54183 2.7552-1.856 3.2164-2.6746 0.46113-0.8185-0.0461-1.4756-0.92225-1.4295-0.88768 0.0576-2.4786 1.1298-3.4815 1.6946-1.0145 0.56488-1.1759 1.003-1.5909 1.1298s-0.46113 0.0231-0.48418-0.49571c-0.0346-0.5303 0.0576-1.0375 0.32279-2.1212 0.25362-1.0836 0.48418-1.8676 0.97989-3.2971 0.49572-1.4295 0.93379-2.3056 1.4987-3.8504 0.56488-1.5563 0.99143-2.467 1.3258-3.885s0.49571-2.1904 0.35737-3.2048-0.35737-1.4295-1.0606-1.8791c-0.70323-0.43807-1.3142-0.43807-2.467-0.33432s-1.9367 0.48419-3.3086 0.85309-2.1442 0.66864-3.5392 0.96837c-1.4064 0.29973-2.1788 0.42654-3.4585 0.51877-1.2796 0.0922-1.9022 0.12681-2.9512-0.0461-1.0491-0.1614-1.5102-0.4496-2.2941-0.79545-0.79545-0.34585-1.0721-0.611-1.6601-0.93379-0.58794-0.33431-0.77239-0.51877-1.2681-0.69169-0.50724-0.18445-0.77239-0.33432-1.245-0.21904-0.46113 0.12681-0.59947 0.19598-1.0721 0.80698-0.48418 0.611-0.65711 1.0491-1.3142 2.2595-0.66864 1.2105-1.0837 2.1212-1.9944 3.8158s-1.4526 2.8475-2.5593 4.6459c-1.1067 1.8099-1.7754 2.8359-2.9628 4.3807-1.1874 1.5332-1.833 2.3056-2.9858 3.3201-1.1528 1.0145-1.7177 1.3488-2.7552 1.7408-1.0491 0.39196-1.6255 0.48419-2.467 0.20751s-1.2335-0.51877-1.7523-1.5909c-0.5303-1.0837-0.80698-1.8676-0.88768-3.8043-0.0807-1.9252 0-3.1472 0.47266-5.8679s0.87615-4.4384 1.8906-7.747 1.7177-5.303 3.2048-8.7845 2.4209-5.3722 4.2424-8.6346c1.833-3.274 3.0089-4.9802 4.8764-7.7008 1.856-2.7207 2.8705-3.9888 4.4268-5.9024 1.5678-1.9022 2.2941-2.6515 3.3778-3.6199 1.0836-0.95684 1.441-1.1989 2.052-1.1759 0.59947 0.0231 0.77239 0.38043 0.9799 1.3027 0.19598 0.93379 0.25362 1.6716 0 3.3201-0.25362 1.6485-0.48419 2.7091-1.2566 4.9456-0.76086 2.2365-1.2796 3.5622-2.5593 6.2483-1.2796 2.6861-2.052 4.2078-3.8389 7.1821-1.7869 2.9858-2.8705 4.6228-5.0955 7.7008s-3.4815 4.7496-6.0408 7.7008c-2.5708 2.9512-4.0003 4.4268-6.7786 7.0322-2.7898 2.6054-4.3461 3.885-7.1475 5.9832-2.8129 2.1097-4.2654 3.055-6.8939 4.5536-2.64 1.4987-3.9888 2.1442-6.2829 2.9397-2.2826 0.79545-3.4008 0.94531-5.1531 1.0491-1.7638 0.10375-2.5362 0.0115-3.6199-0.51877-1.0836-0.5303-1.4526-0.96837-1.7984-2.1097-0.34585-1.1413-0.33432-1.9252 0.0807-3.5968 0.41502-1.6601 0.86462-2.7552 2.0059-4.7266 1.1413-1.9713 2.0174-3.1703 3.689-5.1301 1.6831-1.9713 2.7668-3.055 4.6805-4.692 1.9137-1.6485 3.078-2.3979 4.8995-3.5046 1.8215-1.1182 2.7783-1.4295 4.2193-2.0405 1.441-0.62253 2.0866-0.78392 2.9628-1.026 0.87615-0.25362 1.222-0.33431 1.418-0.21903s0.21904 0.24209-0.42654 0.78392c-0.64558 0.5303-1.1874 0.95684-2.7898 1.8906-1.614 0.93378-2.7322 1.5909-5.2453 2.8014-2.5132 1.2105-4.081 1.9022-7.3319 3.251-3.2625 1.3373-5.1762 2.0174-8.9459 3.4815-3.7813 1.4526-5.8679 2.248-9.9373 3.8158-4.0579 1.5563-6.2598 2.3402-10.387 3.9772-4.1271 1.6485-6.2714 2.4555-10.249 4.2193-3.9772 1.7638-6.0177 2.7207-9.6261 4.5998-3.5968 1.8906-5.4413 2.859-8.3925 4.8188-2.9397 1.9598-4.3461 2.9858-6.3405 4.9917-1.9944 1.9944-2.7898 3.1587-3.6314 4.9917-0.84156 1.8445-0.91073 2.8359-0.56488 4.1963 0.34584 1.3718 0.86461 2.0059 2.2941 2.6284 1.441 0.62252 2.5362 0.69169 4.8764 0.47266 2.3518-0.23057 3.862-0.56489 6.8593-1.6024 2.9858-1.0491 4.7266-1.8791 8.1159-3.6083 3.3893-1.7292 5.326-2.8129 8.8306-5.0724 3.5046-2.248 5.3491-3.5507 8.7038-6.2252 3.3547-2.6746 5.0955-4.1502 8.0582-7.136 2.9512-2.9973 4.3692-4.6113 6.7325-7.8161 2.3633-3.2048 3.4354-4.911 5.0955-8.2081 1.6716-3.2971 2.3518-5.0032 3.2279-8.2773 0.86462-3.274 1.0721-4.9802 1.1182-8.1043 0.0576-3.1126-0.17292-4.6689-0.86462-7.5049-0.70322-2.8475-1.3027-4.2424-2.6054-6.721-1.3142-2.4786-2.2019-3.666-3.9311-5.6949-1.7292-2.029-2.7552-2.9858-4.7035-4.4384-1.9483-1.4641-3.055-2.052-5.0378-2.8359-1.9829-0.7724-2.9858-0.99143-4.8764-1.0491-1.8906-0.0576-2.7898 0.10375-4.5652 0.76086-1.7754 0.65711-2.6515 1.1874-4.2885 2.5477-1.637 1.3488-2.4209 2.2711-3.9196 4.2308-1.4987 1.9598-2.2134 3.1126-3.5853 5.5797-1.3719 2.4555-2.052 3.8274-3.2855 6.721s-1.7984 4.5536-2.8821 7.747c-1.0836 3.1933-1.5794 4.911-2.5247 8.2312-0.94531 3.3086-1.418 5.0263-2.2134 8.3464-0.80698 3.3317-1.1989 5.0955-1.7984 8.2888-0.61099 3.1933-0.86461 4.8764-1.245 7.6893-0.39196 2.8244-0.59947 4.2424-0.68017 6.4097-0.0807 2.1673-0.0115 3.1357 0.27668 4.4268 0.29973 1.2796 0.64558 1.7523 1.1874 1.9944 0.55335 0.25362 0.92225 0.0922 1.5563-0.73781 0.63405-0.8185 0.8992-1.5909 1.6255-3.4008 0.71475-1.7984 1.0837-3.0089 1.9829-5.6027s1.4064-4.1732 2.5132-7.3435c1.0952-3.1703 1.7292-5.0032 2.9743-8.5078 1.2566-3.5046 1.9713-5.4298 3.274-9.0266 1.3142-3.5853 2.029-5.499 3.2625-8.8998 1.222-3.4008 1.9252-5.0955 2.882-8.0928 0.95685-2.9858 1.3258-4.473 1.8906-6.8478 0.57641-2.3748 0.77239-3.4239 0.9799-5.0263 0.19598-1.5909 0.0922-2.0866 0.0346-2.9628-0.0576-0.87615-0.10375-1.1182-0.33431-1.418-0.23057-0.29974-0.51877-0.32279-0.79545-0.0807" opacity=".80193" style="mix-blend-mode:normal"/><path d="m859.29 416.42c0.34585-0.0807 0.55336-0.29974 0.59947-0.56489 0.0576-0.25362-0.0807-0.50724-0.34584-0.71475-0.26515-0.2075-0.63406-0.38043-0.9799-0.32279-0.35738 0.0461-0.6917 0.26515-0.77239 0.55336-0.0807 0.2882 0.0807 0.68016 0.38043 0.88767 0.31126 0.21904 0.78392 0.24209 1.1182 0.1614" opacity=".80193" style="mix-blend-mode:normal"/><path d="m871.6 435.24c0.34585-0.1614 0.54183-0.47266 0.8185-0.9799 0.27668-0.51877 0.48419-0.87614 0.55336-1.5909 0.0576-0.70323 0.0807-1.2796-0.23057-1.9367-0.32279-0.66864-0.66863-1.0837-1.3718-1.3719-0.70322-0.28821-1.1182-0.36891-2.1442-0.0576-1.026 0.29973-1.6485 0.56488-2.9628 1.5678-1.3258 0.99143-2.1442 1.7984-3.6429 3.4124s-2.4209 2.663-3.8735 4.6343c-1.4526 1.9598-2.248 3.1818-3.3893 5.1992-1.1298 2.0059-1.6946 3.1126-2.2826 4.8534-0.58793 1.7523-0.72627 2.6169-0.64558 3.8735 0.0922 1.2681 0.33432 1.7984 1.0837 2.4209 0.76086 0.63406 1.4064 0.84156 2.7091 0.71475 1.2912-0.12681 2.1788-0.41501 3.8043-1.3488 1.6255-0.93378 2.5016-1.7523 4.3-3.3086 1.7869-1.5678 2.8129-2.6054 4.6574-4.5191 1.8445-1.9137 2.8936-3.0896 4.5767-5.0494 1.6946-1.9713 2.6054-3.1011 3.885-4.7957 1.2796-1.7062 1.9367-2.6169 2.5247-3.7121s0.64558-1.5563 0.41501-1.7638c-0.23056-0.19598-0.7378-0.0346-1.5448 0.74933-0.79545 0.78392-1.4987 1.5678-2.4555 3.1818-0.95684 1.6024-1.5448 2.8936-2.3056 4.8764-0.74934 1.9713-1.1067 3.1818-1.4526 5.0148-0.33432 1.8445-0.49571 2.7552-0.25362 4.1732 0.23057 1.4295 0.54183 2.1212 1.418 2.9743 0.88768 0.84156 1.5563 1.1644 2.9628 1.2796 1.418 0.11528 2.3056-0.0807 4.1156-0.69169 1.7984-0.59947 2.859-1.1413 4.911-2.3172 2.0636-1.1874 3.2279-2.029 5.3837-3.5853 2.1558-1.5563 3.3662-2.5938 5.4067-4.1847 2.052-1.6024 3.1587-2.467 4.8188-3.7813 1.6716-1.3257 2.5247-2.029 3.5046-2.8014 0.96837-0.76086 1.2105-1.026 1.3488-1.0375 0.13833 0-0.14987 0.27668-0.66864 1.003s-1.0145 1.3719-1.9022 2.64c-0.88767 1.2681-1.5448 2.1904-2.5362 3.7006-1.003 1.5217-1.7292 2.4786-2.4555 3.8735-0.73781 1.3949-1.0837 2.1673-1.1989 3.1242s-0.0115 1.418 0.62252 1.6716c0.63406 0.25362 1.2566 0.16139 2.5362-0.38043 1.2912-0.54183 2.1673-1.1644 3.8965-2.3518 1.7292-1.1759 2.7437-2.1212 4.7381-3.5507 1.9944-1.441 3.1818-2.3402 5.2338-3.6199 2.0405-1.2681 3.2048-1.9137 5.0148-2.7668 1.8215-0.84156 2.7322-1.1182 4.0579-1.4871 1.3142-0.35738 1.8214-0.42655 2.5477-0.31126 0.71475 0.10375 0.84156 0.27667 1.0375 0.84156 0.19598 0.57641 0.0461 1.0375-0.0461 2.0059-0.10376 0.96837-0.29973 1.6255-0.46113 2.859-0.17292 1.2335-0.35737 2.0059-0.3689 3.3086 0 1.2912 0 2.0636 0.32279 3.1818 0.31126 1.1298 0.5303 1.6601 1.2566 2.4324 0.72628 0.77239 1.1759 1.1182 2.3748 1.441 1.1989 0.31126 2.0636 0.3689 3.6083 0.14987 1.5448-0.21904 2.5823-0.59947 4.1386-1.245 1.5678-0.65711 2.467-1.222 3.6544-2.0059 1.1874-0.78392 1.9022-1.3834 2.2826-1.9252 0.38043-0.5303 0.24209-0.76086-0.40349-0.76086s-1.5102 0.32279-2.8244 0.74933c-1.3027 0.43807-2.2365 0.86462-3.7006 1.4064-1.4756 0.54183-2.3518 0.96837-3.6314 1.3142-1.2912 0.33432-1.9367 0.43807-2.7783 0.39196-0.85309-0.0461-1.0952-0.1614-1.4871-0.62252-0.39196-0.47266-0.40349-0.84156-0.47265-1.7177-0.0807-0.87614 0-1.5102 0.11528-2.6746 0.10375-1.1644 0.33432-1.8791 0.4496-3.1472 0.10375-1.2566 0.24209-2.0059 0.10375-3.1703-0.13834-1.1759-0.25362-1.8445-0.8185-2.6746-0.56488-0.84156-0.95684-1.1989-2.0174-1.5217-1.0606-0.33432-1.6946-0.35738-3.2625-0.12681-1.5563 0.23056-2.5593 0.48418-4.5536 1.2796-1.9944 0.78392-3.2164 1.4295-5.4067 2.663-2.1904 1.2335-3.4469 2.0981-5.522 3.5046-2.0751 1.3949-3.2164 2.2249-4.8534 3.493-1.6485 1.2681-2.444 1.9598-3.3778 2.8359-0.94531 0.86462-1.222 1.2912-1.3488 1.5217-0.13834 0.21904 0.14987 0.12681 0.68016-0.41501 0.5303-0.55336 1.0375-1.1413 1.9829-2.3287 0.94531-1.1874 1.7062-2.0981 2.7437-3.6199 1.0491-1.5102 1.7523-2.467 2.467-3.9542 0.72628-1.4871 1.026-2.3633 1.1298-3.4815 0.10375-1.1182 0.0231-1.7177-0.59947-2.1212-0.611-0.39196-1.1874-0.36891-2.4901 0.14986-1.3027 0.51877-2.2134 1.2105-4.0118 2.4325-1.7869 1.222-2.882 2.1327-4.9456 3.6775-2.0751 1.5448-3.2855 2.5593-5.4067 4.0579-2.1212 1.4987-3.2625 2.2941-5.1992 3.4469s-2.9282 1.637-4.473 2.3056c-1.5448 0.68017-2.2134 0.95684-3.251 1.0606-1.0375 0.11528-1.4064 0.0115-1.9252-0.49572-0.5303-0.50724-0.70322-0.95684-0.69169-2.052 0.0115-1.0952 0.23056-1.856 0.74933-3.4469 0.51877-1.5909 1.0491-2.663 1.8676-4.496 0.81851-1.8215 1.4871-2.9973 2.2134-4.6459 0.71475-1.6601 1.1067-2.5477 1.3834-3.6199 0.27667-1.0606 0.34584-1.5333 0.0115-1.7177-0.33431-0.18445-0.74933 0-1.6831 0.81851-0.94532 0.8185-1.637 1.7062-3.0204 3.2855-1.3949 1.5909-2.2365 2.7322-3.9426 4.6343-1.6946 1.9022-2.7437 3.0204-4.5767 4.8649-1.8215 1.8445-2.8821 2.8244-4.5767 4.3346-1.6946 1.4987-2.5362 2.225-3.885 3.1933-1.3603 0.96837-1.9829 1.2796-2.8705 1.6485-0.8992 0.35738-1.2105 0.42654-1.5794 0.17292-0.35737-0.26515-0.39195-0.53029-0.23056-1.4526 0.1614-0.92226 0.34585-1.6485 1.026-3.1587 0.68017-1.5102 1.2335-2.5477 2.3979-4.3922 1.1644-1.8445 1.9713-3.0089 3.4124-4.8419 1.441-1.8445 2.3748-2.8244 3.7928-4.3461 1.418-1.5217 2.2134-2.2711 3.2971-3.274 1.0952-1.003 1.5448-1.3027 2.1442-1.7408 0.59946-0.4496 0.71475-0.48418 0.85308-0.48418 0.12681 0-0.0692 0.12681-0.19598 0.46112-0.11528 0.33432-0.32279 0.66864-0.41501 1.2105-0.10376 0.54182-0.11528 0.95684-0.0576 1.4987 0.0692 0.54182 0.11528 0.93378 0.38043 1.2105s0.59947 0.34585 0.95684 0.19598" opacity=".80193" style="mix-blend-mode:normal"/></g><path d="m991.41 567.7c-0.19618 0.23678-0.3653 0.52766-0.46001 1.1771-0.0947 0.64943-0.18942 1.6371-0.0203 2.0768 0.16912 0.43295 0.59531 0.50736 0.87943 0.115 0.28413-0.3856 0.51413-1.3868 0.54119-2.0633 0.0271-0.66972-0.23-1.035-0.41942-1.2988-0.18941-0.25706-0.32471-0.24354-0.52089-7e-3" opacity=".74024" style="mix-blend-mode:normal"/><path d="m857.54 565.98c-0.13529 0.13531-0.12177 0.21648-0.2503 0.66973-0.12853 0.45324-0.17589 0.71031-0.39236 1.5897-0.22324 0.87943-0.28412 1.4612-0.70354 2.8006-0.41942 1.3394-0.7509 2.1512-1.4003 3.8966-0.64942 1.7453-1.0215 2.8818-1.8536 4.8369-0.83208 1.9618-1.3733 3.0374-2.3 4.9586-0.92678 1.9212-1.5086 2.9562-2.3339 4.6542-0.82531 1.698-1.2042 2.5571-1.7994 3.8357-0.59531 1.2786-0.85914 1.7927-1.1771 2.5504s-0.32471 0.92678-0.41265 1.238c-0.0947 0.31795-0.0541 0.24353-0.0474 0.32471 0.0136 0.0812 0.0203 0.10147 0.10824 0.0879 0.0947-0.0136 0.10824 0.0744 0.34501-0.16236 0.24354-0.24353 0.40589-0.33824 0.85237-1.0418 0.45325-0.69678 0.73737-1.2109 1.4003-2.4624 0.66295-1.2515 1.0824-2.0903 1.9212-3.7816 0.83884-1.698 1.3394-2.7668 2.273-4.7016 0.93356-1.928 1.4883-3.0104 2.3812-4.9654 0.89296-1.955 1.38-3.051 2.0903-4.8098 0.70355-1.7656 1.0283-2.6045 1.4477-4.0048s0.5209-2.0294 0.64266-2.9901c0.12177-0.95385 0.0474-1.2786-0.0271-1.7927-0.0676-0.50736-0.16912-0.60884-0.31795-0.75766-0.15559-0.14206-0.30442-0.11501-0.44648 0.0271" opacity=".74024" style="mix-blend-mode:normal"/><path d="m843.36 565.67c0.14883 0.0541 0.12177-7e-3 0.46677-0.0474 0.35178-0.0473 0.54119-0.0676 1.2786-0.16912 0.73736-0.10824 1.2109-0.18265 2.4083-0.35177 1.1974-0.16236 1.9956-0.25707 3.5786-0.48031 1.5762-0.21647 2.4962-0.33824 4.3295-0.6156 1.8333-0.27059 2.8818-0.46001 4.8301-0.7509 1.9483-0.28412 2.9833-0.39912 4.9045-0.68325 1.9212-0.27735 2.8954-0.41942 4.6948-0.72384 1.8062-0.30442 2.6924-0.46001 4.3295-0.79825 1.6371-0.33824 2.4354-0.50736 3.8695-0.89296 1.4341-0.3856 2.1377-0.58854 3.308-1.0283 1.1771-0.43971 1.7453-0.71707 2.5706-1.1703 0.82531-0.46001 1.1568-0.66972 1.5492-1.1162 0.39913-0.45324 0.50737-0.74413 0.43295-1.1297-0.0812-0.3856-0.29088-0.68325-0.81178-0.79825-0.52089-0.115-0.9809-0.10147-1.8062 0.21647-0.82531 0.32472-1.3056 0.62237-2.3271 1.3868-1.0215 0.76443-1.5965 1.2515-2.7668 2.4421s-1.8333 1.9212-3.0848 3.511c-1.2583 1.5897-1.9144 2.5774-3.193 4.431-1.2718 1.8536-1.9415 2.8886-3.1795 4.8369-1.2312 1.9415-1.8671 2.9901-2.9901 4.8842-1.1297 1.8942-1.7521 2.9021-2.6518 4.5933-0.89973 1.6912-1.2988 2.5571-1.8468 3.8763-0.54118 1.3191-0.7306 1.9009-0.87942 2.7195-0.14207 0.81855-0.12177 1.0688 0.16912 1.38 0.29088 0.31795 0.6156 0.37883 1.2853 0.19618 0.66972-0.17589 1.123-0.46678 2.07-1.1027 0.94707-0.6359 1.5153-1.1974 2.6586-2.0768 1.1433-0.87267 1.8806-1.4612 3.0442-2.3068 1.1636-0.8456 1.813-1.3192 2.7736-1.9144 0.96061-0.60207 1.4274-0.84561 2.0159-1.0688 0.58178-0.22324 0.7509-0.23 0.91325-0.0541 0.1556 0.16912 0.0136 0.37207-0.12177 0.91325-0.13529 0.53443-0.35176 0.98091-0.56148 1.7656-0.2097 0.79149-0.37883 1.3259-0.47353 2.1648-0.0947 0.83884-0.14883 1.3056 0 2.043 0.14206 0.73061 0.25706 1.1365 0.72384 1.6168 0.46677 0.48031 0.81177 0.68325 1.5965 0.79825 0.79149 0.10824 1.265 0.0541 2.3542-0.24353 1.0959-0.30442 1.7859-0.56148 3.1051-1.2583 1.3191-0.69002 2.0971-1.2109 3.5042-2.1986 1.4071-0.99444 2.2121-1.6439 3.538-2.7601 1.3259-1.123 2.0362-1.7792 3.0983-2.848 1.0621-1.0688 1.5762-1.6168 2.2189-2.4895 0.64266-0.87943 0.89296-1.2921 1.0012-1.8942 0.115-0.60207-0.0338-0.87943-0.44648-1.123-0.40589-0.24354-0.83208-0.32472-1.5965-0.10148-0.7712 0.23001-1.3056 0.51413-2.2324 1.2312-0.93355 0.71707-1.5086 1.3056-2.4015 2.3677-0.89973 1.0553-1.4138 1.725-2.0836 2.9156-0.66973 1.1974-1.008 1.8942-1.265 3.0509-0.26383 1.15-0.31119 1.7859-0.0406 2.7262 0.26383 0.94032 0.56148 1.353 1.3733 1.9821 0.81178 0.6359 1.4274 0.91326 2.6856 1.1838 1.2515 0.27059 2.185 0.2503 3.5854 0.16912 1.4003-0.0812 2.2527-0.28412 3.423-0.56824 1.1771-0.28413 1.9686-0.58855 2.4353-0.85914 0.46678-0.27736 0.42619-0.43295-0.10147-0.51413-0.52089-0.0812-1.3597 0.0406-2.5233 0.115-1.1703 0.0812-1.9956 0.20971-3.3148 0.26383-1.3124 0.0609-2.158 0.15559-3.2742 0.027-1.1162-0.13529-1.6371-0.27736-2.3068-0.68325-0.66295-0.41265-0.8659-0.65619-1.0147-1.3665-0.15559-0.70354-0.0541-1.1974 0.25706-2.1512 0.31794-0.96061 0.64266-1.583 1.3192-2.6315 0.66971-1.0486 1.1906-1.6574 2.0498-2.6112 0.85913-0.95384 1.4477-1.4612 2.2324-2.1715 0.78472-0.71707 1.1771-1.0215 1.698-1.4003 0.5209-0.37207 0.73737-0.46678 0.91326-0.48707 0.16912-0.0203 0.20971 0.0203-0.0474 0.37883-0.2503 0.35854-0.5209 0.67649-1.2109 1.4139-0.69678 0.7306-1.1906 1.2718-2.2595 2.2662-1.0688 0.98767-1.7792 1.6236-3.0915 2.6924-1.3192 1.0621-2.1174 1.6844-3.4907 2.6315-1.3665 0.94031-2.1242 1.4206-3.3554 2.0971-1.2312 0.66973-1.8739 0.92002-2.8074 1.2718-0.93355 0.35177-1.2921 0.45324-1.8603 0.48706-0.56825 0.0271-0.73061-0.0541-0.97415-0.33824-0.24353-0.29088-0.25706-0.55471-0.24353-1.1094 0.0136-0.55472 0.14883-0.92003 0.31795-1.6709 0.17589-0.7509 0.40589-1.2583 0.53442-2.0903 0.12853-0.82531 0.20971-1.3597 0.12177-2.0498-0.0879-0.69678-0.14883-1.0486-0.56825-1.4138-0.41942-0.36531-0.74413-0.48708-1.5356-0.4059-0.79825 0.0879-1.353 0.30442-2.4421 0.83208s-1.7724 0.99443-3.0104 1.8062c-1.2447 0.80502-2.043 1.353-3.2065 2.2324-1.1568 0.8862-1.7589 1.4409-2.5909 2.1783-0.82531 0.73737-1.123 1.1162-1.5424 1.5018-0.41942 0.38559-0.5209 0.51412-0.56149 0.41265-0.0338-0.0947 0.0812-0.22324 0.3856-0.89972 0.29765-0.68325 0.51413-1.238 1.1162-2.4895 0.60207-1.2447 1.0147-2.0836 1.9009-3.7545 0.87944-1.6777 1.4139-2.7195 2.5098-4.6136 1.0959-1.8942 1.725-2.936 2.963-4.8504 1.2312-1.9212 1.9144-2.9495 3.2133-4.7489 1.2921-1.7995 2.0092-2.7398 3.2742-4.2619 1.265-1.5153 1.9144-2.2121 3.051-3.3351 1.1365-1.123 1.7115-1.5559 2.6383-2.2798 0.93355-0.71707 1.3733-0.93355 2.0227-1.3191 0.64266-0.3856 0.90649-0.47355 1.2109-0.60884 0.30442-0.12854 0.35177-0.12854 0.31118-0.0541-0.0473 0.0676-0.12853 0.18265-0.53442 0.41943-0.39912 0.23677-0.69678 0.41265-1.4883 0.77119-0.79149 0.3653-1.3327 0.6359-2.4692 1.0418-1.1365 0.40589-1.8062 0.62236-3.2065 0.98766-1.4003 0.37207-2.185 0.53443-3.8018 0.85914-1.6168 0.32471-2.4962 0.46677-4.2822 0.75767-1.7927 0.29088-2.76 0.42618-4.6813 0.69677-1.9145 0.26383-2.9562 0.37883-4.9045 0.6359-1.9483 0.25707-3.0104 0.39913-4.8436 0.6359-1.8333 0.23677-2.7398 0.35177-4.3295 0.54795-1.583 0.19618-2.3812 0.24353-3.6057 0.42618-1.2177 0.18942-1.7318 0.26383-2.503 0.5006-0.77119 0.23678-1.0215 0.43296-1.3597 0.69679s-0.31795 0.43971-0.32471 0.62913c-0.0136 0.18941 0.12176 0.26382 0.26383 0.31795" opacity=".74024" style="mix-blend-mode:normal"/><path d="m935.94 564.24c-0.18941 7e-3 -0.31795-0.0136-0.62913 0.29766-0.31118 0.31118-0.49384 0.5006-0.92002 1.2583-0.43295 0.75766-0.64266 1.2786-1.2244 2.5368-0.58854 1.2583-0.97413 2.0903-1.7047 3.7545-0.73737 1.6574-1.1838 2.7059-1.9753 4.5528-0.78472 1.8468-1.2786 2.848-1.9753 4.6813-0.69002 1.8265-1.0621 2.8074-1.4815 4.4716-0.42618 1.6642-0.57501 2.5098-0.63589 3.8357-0.0677 1.3327-0.0203 1.9145 0.31118 2.7939s0.62913 1.2312 1.353 1.61c0.71707 0.37207 1.2177 0.43296 2.2459 0.26383 1.035-0.16235 1.6506-0.38559 2.9021-1.1094 1.2583-0.71708 1.9956-1.265 3.3689-2.4962 1.38-1.2244 2.0836-2.0768 3.5177-3.653 1.4342-1.5694 2.2256-2.4692 3.6666-4.2145s2.2189-2.7465 3.5448-4.5054c1.3259-1.7589 2.0227-2.7059 3.0848-4.2889 1.0688-1.583 1.5424-2.3339 2.2527-3.6192 0.71032-1.2786 1.035-1.955 1.3192-2.7939 0.27736-0.83208 0.27059-1.2042 0.0947-1.38-0.18265-0.18266-0.5006-0.0744-0.99444 0.47354-0.49383 0.54119-0.85236 1.0824-1.4747 2.2527-0.62913 1.1703-0.99444 2.0295-1.6439 3.6057-0.64943 1.5762-1.0147 2.5774-1.61 4.2822-0.60207 1.7115-0.91325 2.6451-1.38 4.2483-0.46001 1.6033-0.69001 2.4015-0.94031 3.768-0.24354 1.3665-0.34501 2.0227-0.29765 3.078 0.0406 1.0486 0.17588 1.495 0.53442 2.1715 0.35177 0.67649 0.60207 0.94032 1.2447 1.2042s1.0959 0.30442 1.9618 0.115c0.87266-0.18941 1.38-0.46001 2.388-1.0621 1.008-0.60883 1.5356-1.0486 2.6518-1.9618 1.123-0.92001 1.7656-1.5221 2.936-2.618 1.1636-1.0959 1.8062-1.7859 2.9021-2.8683 1.0959-1.0824 1.6777-1.6642 2.5774-2.5436 0.89972-0.88619 1.3462-1.2921 1.9348-1.8874 0.58177-0.58854 0.81854-0.85914 1.008-1.0756 0.18265-0.20972 0.0879-0.20972-0.0744 0.0135-0.16236 0.23001-0.37884 0.49384-0.73737 1.1162-0.35854 0.62914-0.59531 1.1094-1.0418 2.0227-0.45324 0.90649-0.73737 1.5289-1.2041 2.5368-0.46001 1.0012-0.73737 1.583-1.1027 2.4827-0.35854 0.90649-0.57502 1.353-0.69678 2.0295-0.12177 0.67648-0.10824 0.98767 0.0947 1.3462 0.2097 0.35853 0.42618 0.46677 0.94031 0.43971 0.51413-0.027 0.8862-0.1353 1.6371-0.56148 0.7509-0.43296 1.1974-0.8659 2.1174-1.5897 0.92679-0.73061 1.4612-1.2244 2.4962-2.043 1.035-0.82531 1.698-1.3394 2.6924-2.0633 0.99444-0.72384 1.5356-1.0891 2.2865-1.5627 0.74413-0.46678 1.0959-0.64943 1.4612-0.77796 0.35854-0.12853 0.36531-0.10823 0.33825 0.14206-0.0271 0.2503-0.23677 0.53443-0.46001 1.1094-0.23001 0.57502-0.42619 1.008-0.66972 1.7656-0.24354 0.75089-0.39236 1.2515-0.54118 2.0159-0.14207 0.76443-0.22324 1.1703-0.18942 1.7995 0.0406 0.62912 0.0947 0.92001 0.38559 1.3394 0.28412 0.41942 0.48707 0.62914 1.0553 0.75766 0.56825 0.12854 0.98767 0.13531 1.7927-0.10147 0.80502-0.24353 1.265-0.51412 2.2392-1.0824 0.97414-0.57501 1.5289-1.0012 2.6248-1.7859 1.0892-0.79149 1.7115-1.2786 2.8277-2.1445 1.123-0.87267 1.7724-1.3868 2.7736-2.2053 0.99444-0.81855 1.5559-1.2921 2.2256-1.8942 0.66971-0.60207 0.91325-0.87943 1.1297-1.1027 0.20972-0.23001 0.14883-0.24353-0.0676-0.0136-0.21648 0.22324-0.54119 0.5006-1.008 1.1433-0.46678 0.64266-0.85914 1.1906-1.3394 2.0836-0.4803 0.89295-0.74413 1.495-1.0486 2.3812-0.30441 0.88619-0.44648 1.3327-0.46677 2.043-0.0271 0.7103 0.0406 1.035 0.35177 1.5153 0.31118 0.48031 0.56825 0.69678 1.1906 0.89973 0.61561 0.20294 1.0147 0.23677 1.9077 0.115 0.8862-0.12176 1.4409-0.28412 2.5436-0.71031 1.1094-0.42619 1.7656-0.77795 2.9833-1.4206 1.2177-0.64942 1.8806-1.0756 3.0983-1.813 1.2177-0.74413 1.8874-1.1906 2.9901-1.8942 1.1094-0.7103 1.6844-1.0756 2.5368-1.6439s1.2718-0.89296 1.7318-1.2041c0.46-0.31794 0.5344-0.41942 0.5615-0.37207 0.027 0.0474-0.1488 0.19619-0.4194 0.60208-0.2639 0.41265-0.5412 0.74413-0.9268 1.4477-0.3856 0.71031-0.6629 1.2312-1.0012 2.0768-0.3383 0.85238-0.5074 1.3665-0.7036 2.1783-0.1961 0.80502-0.3111 1.1974-0.2841 1.8603 0.027 0.65619 0.095 0.97414 0.4195 1.4274 0.3246 0.45325 0.6156 0.66973 1.2041 0.83208 0.5953 0.15559 0.9876 0.14883 1.7521-0.0203 0.7644-0.16913 1.2177-0.37207 2.0768-0.83208 0.8592-0.45325 1.3598-0.7712 2.2188-1.4544 0.8592-0.67648 1.2989-1.15 2.0769-1.9483 0.7779-0.79149 1.1974-1.2447 1.813-2.0227 0.6088-0.78473 0.92-1.2583 1.2515-1.8942 0.3382-0.6359 0.3923-0.96061 0.4262-1.2786 0.034-0.32471-0.1218-0.39912-0.2707-0.33148-0.142 0.0744-0.3788 0.25707-0.4532 0.67649-0.074 0.41942-0.115 0.83884 0.095 1.4274 0.203 0.58854 0.4329 0.96061 0.9335 1.5086 0.5006 0.54794 0.8321 0.83884 1.5763 1.2244 0.7374 0.39235 1.1703 0.55471 2.1309 0.71707 0.9539 0.16912 1.5086 0.21647 2.6383 0.12177 1.1365-0.0879 1.813-0.22325 3.0171-0.58178 1.2109-0.35178 1.8671-0.65619 3.0172-1.2041 1.15-0.54796 1.7588-0.89297 2.7397-1.5424 0.9809-0.6562 1.4815-1.035 2.1716-1.7183 0.6899-0.68325 0.9808-1.0621 1.2852-1.7047 0.2977-0.64266 0.3451-0.9809 0.2233-1.5086-0.1286-0.52766-0.3247-0.83884-0.8456-1.1297-0.5277-0.29089-0.9741-0.40589-1.7859-0.32472-0.8118 0.0744-1.3327 0.25031-2.273 0.72384-0.9471 0.46678-1.5086 0.83885-2.4489 1.6168-0.9335 0.77795-1.4612 1.3056-2.2459 2.273-0.778 0.96737-1.1704 1.5559-1.6642 2.5706-0.4871 1.0147-0.6967 1.5559-0.7915 2.5165-0.095 0.95384-0.048 1.468 0.3247 2.2594 0.3653 0.7915 0.6968 1.1974 1.5086 1.6912 0.8185 0.49383 1.3935 0.66295 2.5639 0.79149 1.1703 0.12177 1.9009 0.0609 3.2944-0.16913 1.3936-0.23676 2.1648-0.47353 3.6869-1.0012 1.5153-0.53443 2.3677-0.93356 3.9101-1.6642 1.5356-0.72384 2.3812-1.1703 3.7748-1.9753 1.3868-0.80502 2.1377-1.3124 3.1659-2.0362 1.0283-0.71707 1.5086-1.123 1.9822-1.5694 0.4734-0.43972 0.4938-0.58854 0.3923-0.64942-0.1015-0.0541-0.4262 0.0406-0.9133 0.35853-0.4803 0.31795-0.9471 0.62913-1.5085 1.2312-0.5683 0.60883-0.9471 1.1162-1.3259 1.7927-0.3789 0.67649-0.5142 1.0824-0.575 1.5897-0.061 0.50736 0.014 0.71708 0.2705 0.94708 0.2639 0.23001 0.5007 0.29765 1.0283 0.19618 0.5344-0.10147 0.9065-0.28412 1.6303-0.69678 0.7239-0.41265 1.1501-0.76443 1.9821-1.3733 0.8321-0.60883 1.2989-1.035 2.1918-1.6777 0.8862-0.64943 1.3936-1.0147 2.2527-1.5559 0.8592-0.53442 1.2989-0.77795 2.043-1.123 0.7509-0.34501 1.0689-0.46678 1.6913-0.5953 0.6155-0.12854 0.8997-0.10148 1.4206-0.0609 0.5209 0.0338 0.7103 0.18265 1.1906 0.24354 0.4803 0.0676 0.9335 0.17588 1.2109 0.0812 0.2774-0.0879 0.3518-0.32472 0.1556-0.54796-0.1894-0.23001-0.6156-0.40589-1.1095-0.58178-0.5006-0.17588-0.7509-0.24353-1.3665-0.28412-0.6155-0.0474-0.9809-0.0676-1.7115 0.0541-0.7306 0.12853-1.1094 0.24353-1.9482 0.56825-0.8457 0.33148-1.3327 0.55472-2.2663 1.0688-0.9403 0.51413-1.4747 0.8862-2.4151 1.5086-0.9335 0.62236-1.4341 1.0012-2.2729 1.5897-0.8456 0.58854-1.3056 0.85913-1.9348 1.3394-0.6291 0.48031-0.9132 0.75091-1.2244 1.0553-0.3112 0.31118-0.345 0.43971-0.3315 0.49383 0.014 0.0474 0.1082 0.0136 0.3992-0.23677 0.2908-0.2503 0.5682-0.49383 1.0553-1.0283 0.4803-0.52766 0.8929-0.96061 1.3597-1.6236 0.46-0.65619 0.7306-1.123 0.9606-1.6777 0.2368-0.55471 0.3585-0.8659 0.203-1.0959-0.1557-0.23001-0.3383-0.28413-0.981-0.0541-0.6494 0.23678-1.1635 0.58178-2.2391 1.2109-1.0824 0.62237-1.7859 1.1568-3.1524 1.928-1.3733 0.76442-2.1986 1.1974-3.6936 1.9009-1.4951 0.69678-2.3339 1.0824-3.7816 1.5897-1.4477 0.51413-2.1715 0.71708-3.4501 0.95384-1.2853 0.23677-1.9347 0.27736-2.9495 0.23677-1.0147-0.0406-1.4679-0.12852-2.1106-0.44647-0.6494-0.31119-0.8794-0.56149-1.1297-1.123-0.2571-0.56149-0.2842-0.93355-0.1421-1.6844 0.1353-0.7509 0.3382-1.2041 0.8321-2.0633 0.4871-0.8659 0.8659-1.4003 1.61-2.2527 0.7442-0.85914 1.2448-1.3327 2.1039-2.0295 0.8523-0.69002 1.38-1.0012 2.185-1.4409 0.7983-0.43972 1.2109-0.58178 1.8131-0.7509 0.602-0.17589 0.859-0.16913 1.1905-0.115 0.3248 0.0609 0.4262 0.14882 0.4465 0.39912 0.021 0.2503-0.027 0.43295-0.345 0.86591-0.3179 0.43294-0.5818 0.73736-1.2447 1.2988-0.6562 0.56149-1.123 0.92002-2.0565 1.5018-0.9336 0.57502-1.5221 0.89973-2.6113 1.4003-1.0891 0.5006-1.7115 0.77119-2.8277 1.1027-1.1094 0.32471-1.725 0.44648-2.733 0.54795-1.0079 0.10147-1.495 0.0744-2.3-0.0474-0.8051-0.12177-1.1636-0.2503-1.7251-0.55472-0.5682-0.31118-0.7779-0.55471-1.1026-0.9809-0.318-0.43295-0.318-0.73061-0.5006-1.1703-0.1827-0.43971-0.23-0.69678-0.4127-1.0215-0.1827-0.32472-0.2841-0.49384-0.5006-0.60207-0.2232-0.10824-0.3044-0.14207-0.5953 0.0609-0.2841 0.20971-0.4194 0.44648-0.8456 0.9809s-0.6765 0.9809-1.2853 1.698c-0.6089 0.71708-1.008 1.15-1.7589 1.8874-0.7441 0.73061-1.1771 1.1636-1.9821 1.7859-0.7982 0.62236-1.2718 0.88619-2.0227 1.3124-0.7509 0.42619-1.15 0.60208-1.7386 0.83208-0.5885 0.22324-0.832 0.29765-1.1973 0.29765-0.3721 0-0.5142-0.0609-0.6562-0.29088-0.1421-0.23677-0.1556-0.40589-0.061-0.87943 0.088-0.48031 0.2367-0.81855 0.5141-1.5086 0.2774-0.69001 0.5074-1.1433 0.8795-1.9415 0.3788-0.79825 0.69-1.2718 0.9876-2.0498 0.2909-0.77119 0.4397-1.2109 0.4736-1.813 0.034-0.60883 0-0.94708-0.3044-1.2244-0.3045-0.27736-0.5751-0.32471-1.2245-0.16912-0.6494 0.16236-1.1026 0.46001-2.0227 0.96738-0.9267 0.50736-1.4747 0.89972-2.5977 1.5762-1.123 0.67648-1.7927 1.1094-3.0103 1.813-1.2109 0.70354-1.8807 1.1027-3.0645 1.7115-1.1771 0.6156-1.8265 0.92002-2.848 1.3462-1.0147 0.42619-1.5086 0.58178-2.2459 0.78473-0.73061 0.20294-1.0012 0.25029-1.4274 0.23-0.42619-0.0203-0.56149-0.0812-0.70355-0.33148-0.1353-0.2503-0.14883-0.42618 7e-3 -0.93355 0.15559-0.50736 0.35177-0.8659 0.75766-1.61 0.41265-0.74413 0.81178-1.2447 1.2921-2.1174 0.47354-0.87267 0.80502-1.4544 1.0824-2.2459 0.27735-0.79148 0.37883-1.2447 0.29765-1.7183-0.088-0.48031-0.25707-0.6562-0.73737-0.6562-0.48031 7e-3 -0.85914 0.18265-1.6709 0.66972-0.81178 0.49384-1.3462 0.98767-2.3745 1.7724-1.035 0.77796-1.6709 1.2988-2.7939 2.1445-1.123 0.83885-1.7453 1.3124-2.8209 2.07-1.0756 0.75767-1.6506 1.1433-2.5436 1.7115-0.89297 0.56149-1.2989 0.80502-1.9212 1.1162-0.62912 0.30441-0.88619 0.37883-1.2177 0.42618-0.33148 0.0474-0.37206 0.0136-0.44648-0.19618-0.0744-0.20971-0.0338-0.39236 0.0744-0.8659 0.10823-0.47354 0.23677-0.81855 0.46677-1.5018 0.23001-0.69002 0.46678-1.1433 0.68325-1.9212 0.20971-0.77797 0.34501-1.2515 0.3856-1.9618 0.0406-0.71031 0.0609-1.1297-0.18266-1.583-0.25029-0.45324-0.44648-0.64266-1.0486-0.69678-0.60207-0.0474-1.0621 0.0609-1.9686 0.43972-0.89973 0.38559-1.468 0.77119-2.5368 1.4612-1.0756 0.69677-1.7521 1.2109-2.8277 2.0092-1.0824 0.79825-1.6709 1.265-2.5774 2.0024-0.89972 0.73737-1.3462 1.15-1.9415 1.6844s-0.79149 0.7509-1.0418 0.98767c-0.24353 0.23-0.23677 0.31118-0.18265 0.18265 0.0541-0.1353 0.18265-0.32471 0.46001-0.85237s0.48707-0.96061 0.92002-1.7927 0.72384-1.4003 1.2447-2.3745c0.51412-0.97414 0.90649-1.5492 1.3327-2.4962 0.43295-0.95384 0.64266-1.4883 0.81178-2.2527 0.17589-0.77119 0.19618-1.1636 0.0541-1.5965-0.14207-0.43295-0.31119-0.60207-0.76443-0.56148-0.45325 0.0406-0.79149 0.25029-1.5153 0.75766s-1.1433 0.93355-2.0971 1.7859c-0.96061 0.85237-1.5627 1.4139-2.6856 2.4692-1.123 1.0553-1.7724 1.7318-2.9292 2.8006-1.1636 1.0688-1.8062 1.6574-2.8751 2.5504-1.0688 0.89296-1.583 1.2988-2.4692 1.9009-0.8862 0.60884-1.3056 0.85914-1.9618 1.1297-0.65618 0.2706-0.92001 0.33148-1.3259 0.22324-0.41265-0.10823-0.53442-0.25706-0.7306-0.77119s-0.28412-0.87943-0.25707-1.8062c0.0338-0.92002 0.13531-1.5356 0.41943-2.8209 0.29089-1.2853 0.52765-2.07 1.0282-3.6124 0.5006-1.5492 0.83885-2.4692 1.4883-4.1266 0.64266-1.6574 1.0824-2.6112 1.7453-4.1604 0.66296-1.5424 1.0688-2.3677 1.5559-3.5718 0.48707-1.2109 0.69002-1.7927 0.8659-2.4692 0.17588-0.67648 0.18942-0.92678 0.0271-0.92002-0.15558 7e-3 -0.35853 0.24354-0.81854 0.95385-0.46678 0.71707-0.74413 1.38-1.5018 2.6045-0.75767 1.2177-1.2312 1.9415-2.2798 3.5042-1.0486 1.5559-1.6777 2.5504-2.9765 4.2957-1.2921 1.7521-2.0633 2.7398-3.511 4.4445-1.4409 1.7115-2.2527 2.5842-3.7071 4.086-1.4477 1.5018-2.2121 2.2662-3.5448 3.4298-1.3394 1.1703-2.0159 1.6844-3.1254 2.4015-1.1027 0.72384-1.6033 0.95385-2.4151 1.2109-0.81178 0.26383-1.1365 0.30442-1.6303 0.0947-0.49383-0.20294-0.66295-0.41942-0.83883-1.1297-0.17589-0.71031-0.18266-1.2177-0.0406-2.4218 0.1353-1.2041 0.28412-2.0159 0.7306-3.5989 0.45324-1.583 0.80502-2.5368 1.5086-4.316 0.70354-1.7859 1.1838-2.7804 2.0092-4.5933 0.82531-1.813 1.353-2.8277 2.1242-4.4716 0.76443-1.6439 1.1568-2.4827 1.7183-3.7477 0.55472-1.265 0.77119-1.7859 1.0756-2.5774 0.30442-0.79149 0.32472-0.99444 0.43296-1.38 0.10823-0.37883 0.14882-0.35854 0.10823-0.52089-0.0338-0.16236-0.115-0.27736-0.30442-0.27736" opacity=".74024" style="mix-blend-mode:normal"/><path d="m1072.1 581.3c0.061-0.20295 0.081-0.43295-0.1285-0.75766-0.2165-0.32472-0.3992-0.60207-0.9539-0.8659-0.548-0.2706-0.9606-0.41943-1.7994-0.46678-0.8456-0.0474-1.3936 0.0203-2.4151 0.21647-1.0215 0.19618-1.6371 0.39237-2.6857 0.7712-1.0553 0.37883-1.6911 0.6156-2.5841 1.1162-0.8997 0.50736-1.3665 0.8456-1.9009 1.4138-0.5412 0.56148-0.7036 0.85914-0.7983 1.4139-0.095 0.56148-0.021 0.8659 0.3247 1.3733 0.345 0.50736 0.6833 0.77119 1.4004 1.1703 0.7102 0.39236 1.265 0.53442 2.1714 0.79825 0.9065 0.26383 1.4545 0.32471 2.3543 0.5209 0.9064 0.18941 1.4206 0.31795 2.1647 0.45324 0.7441 0.14207 1.1433 0.16236 1.5492 0.23677 0.4126 0.0744 0.5276 0.0541 0.4938 0.1353-0.034 0.0879-0.1624 0.115-0.6562 0.29089-0.4871 0.18265-0.9201 0.30442-1.813 0.6156-0.8862 0.31118-1.5221 0.55472-2.645 0.94031-1.1163 0.37884-1.8333 0.60208-2.9495 0.96062-1.1162 0.35853-1.7589 0.54795-2.6383 0.82531-0.8795 0.27735-1.2244 0.37206-1.7589 0.55471-0.5277 0.18942-0.6562 0.28413-0.8862 0.37207-0.2232 0.0879-0.1759 0.0203-0.2435 0.0677-0.061 0.0541-0.1218 0.0812-0.074 0.17588 0.054 0.10148 0.054 0.23678 0.3315 0.31119 0.2841 0.0744 0.4938 0.115 1.0823 0.0676 0.5886-0.0474 0.9471-0.11501 1.8739-0.30442 0.92-0.18265 1.5695-0.33148 2.7262-0.62237 1.1568-0.29765 1.8942-0.4803 3.051-0.85237 1.1635-0.37207 1.8265-0.58178 2.7465-1.0147 0.9133-0.43295 1.353-0.67649 1.8333-1.15 0.4803-0.47354 0.5885-0.76443 0.575-1.2177-0.01-0.44648-0.1759-0.67648-0.6291-1.0215-0.4533-0.33824-0.8727-0.41942-1.6304-0.67648-0.7577-0.25031-1.2718-0.35178-2.158-0.58178-0.8862-0.23677-1.4071-0.35854-2.2662-0.59531s-1.3665-0.37883-2.0294-0.59531c-0.663-0.21647-0.9742-0.28412-1.2854-0.50059-0.3112-0.20972-0.372-0.29766-0.2705-0.55472 0.1082-0.25707 0.2705-0.39236 0.7914-0.73737 0.5209-0.35177 0.9606-0.62237 1.8062-1.0147 0.8457-0.39236 1.4477-0.6156 2.4354-0.94031 0.9809-0.33148 1.583-0.50737 2.4895-0.69002 0.9132-0.18265 1.38-0.22324 2.0633-0.22324 0.6832 0 0.9403 0.12177 1.3529 0.23677 0.4059 0.115 0.4668 0.21647 0.6968 0.33824 0.2233 0.11501 0.2571 0.25707 0.4329 0.25707 0.1759 7e-3 0.3856-0.0474 0.4533-0.2503" opacity=".74024" style="mix-blend-mode:normal"/><path d="m1084.1 583.48c-0.021-0.2097-0.115-0.37883-0.3923-0.60883-0.2841-0.23001-0.4939-0.41266-1.008-0.54119s-0.8862-0.17589-1.5626-0.10147c-0.6766 0.0744-1.0419 0.16235-1.8198 0.47354-0.778 0.31118-1.238 0.54119-2.0768 1.0756-0.8321 0.53442-1.3327 0.88619-2.1106 1.5965-0.778 0.71032-1.2109 1.1636-1.7859 1.955-0.5819 0.79148-0.8592 1.2583-1.096 2.0024-0.2367 0.73737-0.2705 1.1297-0.095 1.698 0.1827 0.56149 0.4194 0.83884 0.9877 1.1162 0.5615 0.27736 0.9741 0.34501 1.84 0.2706 0.8727-0.0744 1.4274-0.22324 2.4895-0.62914 1.0688-0.41265 1.7047-0.7509 2.8345-1.4071 1.1364-0.65619 1.8535-1.1636 2.8344-1.8806 0.9809-0.71708 1.5018-1.1703 2.0836-1.7048 0.5818-0.53442 0.7577-0.79148 0.8321-0.96061 0.074-0.17588-0.115-0.15559-0.4532 0.10148-0.3383 0.25706-0.8253 0.56825-1.2448 1.1838-0.4262 0.61561-0.7306 1.1568-0.8591 1.8942-0.1353 0.73736-0.088 1.2177 0.1961 1.7792 0.2774 0.56148 0.521 0.84561 1.2042 1.0283 0.6833 0.18265 1.1568 0.15559 2.2054-0.12177 1.0417-0.27059 1.6505-0.53442 3.0103-1.2447 1.353-0.71031 2.1647-1.1974 3.7613-2.3136 1.6032-1.123 2.4894-1.8739 4.2348-3.2877 1.7385-1.4206 2.6991-2.2256 4.4783-3.7951 1.7859-1.5627 2.7939-2.4421 4.431-4.0386 1.6371-1.5897 2.4488-2.4353 3.7545-3.9236 1.3124-1.4883 1.9076-2.2324 2.7871-3.511 0.8794-1.2786 1.2583-1.9077 1.6168-2.8954 0.3517-0.9809 0.372-1.4071 0.1623-2.0159-0.2096-0.60207-0.4938-0.87267-1.2176-1.008-0.7239-0.12853-1.2583-0.10147-2.4083 0.34501-1.1501 0.44648-1.9145 0.85237-3.3351 1.8874-1.4274 1.0418-2.2324 1.7724-3.7748 3.3012-1.5491 1.5289-2.4624 2.5098-3.9506 4.343-1.4951 1.84-2.3271 2.9292-3.511 4.8504-1.1839 1.9145-1.7453 2.9698-2.4015 4.7557-0.663 1.7792-0.8592 2.6992-0.893 4.1536-0.041 1.4612 0.1218 2.1106 0.7171 3.1321 0.5953 1.0283 1.0891 1.4342 2.2527 1.9956 1.1703 0.56148 1.982 0.72383 3.5718 0.80501 1.5965 0.0812 2.7398-0.115 4.4039-0.40589 1.6574-0.29089 2.6045-0.62237 3.9101-1.0553 1.3056-0.43296 2.1242-0.79149 2.6248-1.1094 0.5006-0.31119 0.4532-0.46001-0.1353-0.46678-0.5818-0.0136-1.4477 0.18266-2.7804 0.4059-1.3326 0.21647-2.2729 0.45324-3.8695 0.69677-1.6032 0.24354-2.6653 0.48707-4.1265 0.51414-1.4545 0.0203-2.158-0.0203-3.166-0.39237-1.0079-0.37206-1.4071-0.64266-1.8806-1.4544-0.4668-0.81178-0.575-1.3327-0.4668-2.6045 0.1082-1.2786 0.3518-2.1039 1.0012-3.7748 0.6495-1.6709 1.1095-2.7262 2.2459-4.5798 1.1298-1.8603 1.9483-2.936 3.4231-4.7016 1.4815-1.7656 2.4218-2.6924 3.9709-4.1266 1.5424-1.4274 2.4016-2.0295 3.7545-3.0171 1.3463-0.98767 2.0362-1.38 2.9901-1.9144 0.9606-0.53442 1.3124-0.68325 1.7994-0.76443 0.4871-0.0812 0.6021-0.0136 0.636 0.34501 0.034 0.3653-0.034 0.65619-0.46 1.468-0.4195 0.81179-0.7848 1.4071-1.6642 2.6045-0.8862 1.1974-1.4747 1.9212-2.7533 3.3824-1.2718 1.4612-2.0227 2.3406-3.6192 3.9236-1.6033 1.583-2.6045 2.4624-4.3837 3.9913-1.7791 1.5356-2.7465 2.3339-4.5053 3.6733-1.7589 1.3462-2.706 1.9889-4.2957 3.0374-1.5898 1.0486-2.3812 1.5086-3.653 2.2053-1.2718 0.69677-1.8401 0.94031-2.7127 1.2921-0.8727 0.35177-1.2177 0.44647-1.6439 0.46677-0.433 0.027-0.5006-0.0879-0.5006-0.35854 0-0.27736 0.2368-0.5006 0.5006-1.0147 0.2638-0.51414 0.5547-0.92003 0.8185-1.5627 0.2639-0.63589 0.4736-1.1365 0.5006-1.6371 0.034-0.49383-0.01-0.73737-0.3585-0.83884-0.3585-0.0947-0.69-7e-3 -1.4274 0.34501-0.7441 0.35853-1.2717 0.79825-2.2865 1.4409-1.008 0.64266-1.6844 1.1433-2.7668 1.7656-1.0756 0.62913-1.671 0.94031-2.618 1.353-0.9539 0.41942-1.4409 0.54795-2.1242 0.7306-0.69 0.18265-0.9606 0.23001-1.3259 0.17589-0.3585-0.0474-0.46-0.1353-0.487-0.43296-0.027-0.30442 0.054-0.53442 0.3517-1.0621 0.2909-0.53442 0.5615-0.94031 1.1162-1.5965 0.5615-0.66296 0.9606-1.0756 1.6845-1.7115 0.717-0.62913 1.1838-0.95384 1.9347-1.4477 0.7509-0.48707 1.1635-0.72384 1.813-1.0012 0.6494-0.27736 0.9268-0.32471 1.4409-0.38559 0.5074-0.0609 0.7374 0.0271 1.1162 0.0812 0.3856 0.0541 0.5074 0.14206 0.7915 0.18265 0.2774 0.0406 0.4262 0.115 0.6088 0.0338 0.1759-0.0879 0.3112-0.24354 0.2841-0.45325" opacity=".74024" style="mix-blend-mode:normal"/><path d="m856.74 611.5c7e-3 -0.22324-0.0541-0.46001-0.33825-0.73061-0.27736-0.27059-0.52765-0.46677-1.0688-0.6156-0.53443-0.14883-0.87943-0.23001-1.6168-0.12177-0.73737 0.115-1.15 0.23001-2.0768 0.68325-0.92679 0.45325-1.5153 0.79825-2.5504 1.5762-1.035 0.77795-1.6642 1.3191-2.6112 2.3136-0.95384 1.0012-1.4409 1.6168-2.1377 2.6789-0.69678 1.0553-1.0553 1.6574-1.353 2.618-0.30442 0.96061-0.33148 1.4477-0.14883 2.1783 0.18942 0.7306 0.45325 1.0756 1.0891 1.4747 0.6359 0.39913 1.1365 0.52089 2.1039 0.51413 0.96737 0 1.5965-0.14206 2.7398-0.52765 1.1433-0.3856 1.8198-0.71032 2.9765-1.4003 1.1568-0.69001 1.7656-1.1703 2.8074-2.0633 1.035-0.89296 1.5897-1.4274 2.3812-2.4015 0.79149-0.97414 1.1568-1.5289 1.5694-2.4692 0.41266-0.94708 0.5209-1.4612 0.48707-2.2392-0.0338-0.77796-0.23677-1.15-0.66295-1.6439-0.43296-0.5006-0.84561-0.67649-1.4815-0.85237-0.63589-0.17589-1.0891-0.17589-1.7047-0.0406-0.60884 0.14206-0.99443 0.34501-1.353 0.74413-0.3653 0.39237-0.50736 0.75091-0.46677 1.2447 0.0406 0.48707 0.18265 0.81855 0.66971 1.2041 0.48031 0.3856 0.8862 0.56825 1.7589 0.71708 0.8659 0.15559 1.4274 0.13529 2.5842 0.0474 1.1568-0.0947 1.8333-0.22324 3.1998-0.50736s2.1918-0.49384 3.6395-0.91326c1.4409-0.41942 2.2256-0.72384 3.5854-1.1771 1.353-0.45325 2.0498-0.71708 3.193-1.0891 1.15-0.37207 1.7521-0.54119 2.5504-0.76443 0.79825-0.21647 1.1094-0.3653 1.4544-0.33824 0.33825 0.027 0.35177 0.0676 0.2503 0.47353-0.0947 0.4059-0.27736 0.71708-0.73737 1.5627-0.46 0.8456-0.78472 1.4206-1.5627 2.6789-0.77796 1.2515-1.2921 2.0159-2.3203 3.5854-1.035 1.5762-1.6439 2.5165-2.8548 4.2889s-1.9145 2.7533-3.1998 4.573c-1.2853 1.8197-2.0159 2.8548-3.2336 4.5257-1.2177 1.6709-1.8671 2.4962-2.8548 3.8154-0.98091 1.3259-1.4815 1.9618-2.0768 2.8006-0.60208 0.83207-0.78473 1.1636-0.92002 1.3868-0.12853 0.21648-0.0136 0.16236 0.25706-0.29765 0.2706-0.46001 0.5006-0.92678 1.0824-2.0024 0.57501-1.0824 0.96737-1.8739 1.8062-3.3892 0.83207-1.5086 1.2988-2.4692 2.3677-4.1807 1.0688-1.7183 1.7115-2.6586 2.9698-4.3769 1.2515-1.725 1.9618-2.6383 3.3012-4.2213 1.3394-1.583 2.0903-2.3677 3.396-3.7071 1.3124-1.3327 1.9618-1.9618 3.1524-2.9833 1.1906-1.0215 1.7589-1.4409 2.8006-2.1309 1.035-0.69001 1.5492-0.95384 2.4015-1.3192 0.85237-0.3653 1.2177-0.43971 1.8536-0.50736 0.64266-0.0609 0.90649 0.0203 1.353 0.19618 0.45324 0.17589 0.58178 0.345 0.8862 0.69001 0.31118 0.34501 0.43294 0.60207 0.65619 1.0486 0.22324 0.43971 0.31118 0.71031 0.45324 1.1703 0.14206 0.46677 0.20294 0.7103 0.26383 1.1365 0.0609 0.43295 0.0812 0.64266 0.0474 1.0012s-0.0744 0.52766-0.22324 0.79149c-0.14883 0.26383-0.26383 0.35177-0.51413 0.53442s-0.40589 0.24353-0.73737 0.37883-0.54795 0.12853-0.93355 0.29089c-0.38559 0.15559-0.64266 0.24354-1.0012 0.49383-0.35177 0.25707-0.52765 0.43296-0.77119 0.77797-0.23677 0.345-0.37207 0.52089-0.42618 0.94031-0.0474 0.41942-0.0541 0.73736 0.17588 1.1568 0.23001 0.41265 0.45325 0.65619 0.96738 0.93355 0.52089 0.28412 0.85237 0.37883 1.61 0.47354 0.75766 0.0879 1.2177 0.0744 2.1783-0.0271 0.96737-0.10147 1.5221-0.19618 2.6383-0.49383 1.1162-0.29765 1.7521-0.52089 2.9495-1.0012 1.1974-0.4803 1.8536-0.78472 3.0307-1.4071 1.1703-0.62236 1.7792-0.99443 2.8412-1.7115 1.0553-0.71031 1.5965-1.123 2.4556-1.8603 0.85914-0.7306 1.2583-1.1094 1.84-1.813 0.58177-0.70354 0.79825-1.0688 1.0688-1.7115 0.2706-0.6359 0.32471-0.95385 0.27736-1.4747-0.0474-0.52089-0.17589-0.78472-0.51413-1.1297-0.33824-0.33824-0.60884-0.49383-1.1771-0.58178-0.56825-0.0812-0.94032-0.0676-1.6574 0.16236-0.71031 0.23001-1.1568 0.44648-1.9077 0.99444-0.74414 0.55471-1.1838 0.96737-1.84 1.7521-0.65619 0.78473-0.98767 1.2718-1.4409 2.1715-0.44647 0.89973-0.66971 1.4342-0.81177 2.3339-0.14207 0.89973-0.14207 1.3868 0.10823 2.158 0.24353 0.7712 0.5006 1.1636 1.123 1.7047 0.62236 0.54119 1.0621 0.7712 1.9889 1.0012 0.92003 0.23001 1.495 0.24353 2.6248 0.1556 1.1297-0.0947 1.7724-0.24354 3.0306-0.60884 1.265-0.36531 1.9821-0.64943 3.281-1.2109 1.2988-0.56825 2.0092-0.94032 3.2268-1.6168 1.2109-0.66972 1.813-1.0824 2.8412-1.7521 1.035-0.66972 1.5356-1.0215 2.3136-1.5897 0.77795-0.56148 1.1703-0.87943 1.583-1.2244 0.41266-0.35178 0.49384-0.51414 0.4803-0.51414-0.0136-7e-3 -0.22324 0.11501-0.54795 0.48031-0.31795 0.37207-0.60207 0.70354-1.0553 1.3597-0.45324 0.65618-0.76442 1.1771-1.1974 1.9144-0.43296 0.73737-0.71031 1.1703-0.96738 1.7724-0.26383 0.60883-0.35853 0.88619-0.33824 1.2515 0.0136 0.35853 0.12177 0.49383 0.41942 0.56148 0.30442 0.0677 0.59531 0.0271 1.0891-0.21648 0.49384-0.2503 0.77119-0.51412 1.3936-1.0147 0.62237-0.50736 0.96737-0.87267 1.7115-1.495 0.74413-0.62914 1.2041-1.008 2.0159-1.6303 0.80502-0.62913 1.2177-0.97413 2.0092-1.495 0.79825-0.51413 1.2109-0.7306 1.955-1.0959 0.73737-0.37207 1.0959-0.5209 1.7589-0.7509 0.66296-0.22324 0.94708-0.29089 1.5627-0.39236 0.60884-0.10147 0.87267-0.0947 1.5018-0.12177 0.62237-0.0338 0.92002-7e-3 1.6236-0.027 0.70354-0.0136 1.0824 0 1.8806-0.0474s1.2312-0.0744 2.0971-0.18265c0.85913-0.10824 1.3597-0.18941 2.2189-0.3653 0.85914-0.16912 1.3259-0.28412 2.0633-0.49384 0.73737-0.21647 1.0891-0.31794 1.6236-0.57501 0.52766-0.25706 0.83208-0.41942 1.0283-0.72384 0.20295-0.30441 0.18265-0.56148-0.0338-0.81178-0.21647-0.24354-0.46001-0.3856-1.0418-0.42619-0.58177-0.0406-0.99443-0.0136-1.8536 0.22324-0.8659 0.24354-1.4409 0.46678-2.4692 0.98091-1.0283 0.50736-1.6439 0.87943-2.6789 1.5762-1.035 0.69001-1.6033 1.1162-2.4962 1.8806-0.8862 0.77119-1.353 1.1906-1.9415 1.955-0.58855 0.7712-0.83208 1.2244-0.99444 1.8806-0.16912 0.66295-0.115 0.99443 0.16912 1.4206 0.27736 0.42619 0.57501 0.5953 1.2244 0.71031 0.64943 0.115 1.123 0.0812 2.0092-0.1353 0.87943-0.21647 1.4071-0.48707 2.4151-0.95384 1.008-0.46678 1.5694-0.79826 2.618-1.3868 1.0486-0.58177 1.7115-0.96737 2.6112-1.5424 0.90649-0.58177 1.3665-0.95384 1.8942-1.3462 0.52765-0.3856 0.66295-0.55472 0.73737-0.6156 0.0676-0.0609-0.11501-7e-3 -0.39237 0.31794-0.28412 0.32472-0.64266 0.66296-1.0282 1.3124-0.3856 0.64942-0.71031 1.1568-0.90649 1.9348-0.19619 0.77795-0.2503 1.3191-0.0744 1.9618 0.17589 0.64266 0.37883 0.96061 0.94032 1.2447 0.56824 0.27736 0.97413 0.34501 1.8806 0.14883 0.89972-0.18941 1.4544-0.41942 2.6383-1.1027 1.1838-0.69001 1.8671-1.2177 3.281-2.3406 1.4138-1.123 2.2324-1.8468 3.7883-3.281 1.5559-1.4274 2.3812-2.2933 3.9777-3.8763 1.5965-1.5762 2.4692-2.4827 4.0048-4.0318 1.5424-1.5492 2.3948-2.3474 3.6868-3.7139 1.2921-1.3733 1.9009-2.0836 2.7601-3.1389 0.85913-1.0486 1.2312-1.5762 1.5288-2.1242 0.2909-0.54795 0.23001-0.72383-0.0609-0.60883-0.29765 0.115-0.67648 0.37207-1.4138 1.1703-0.7306 0.80501-1.2921 1.4747-2.2527 2.8345-0.96737 1.3597-1.5559 2.3474-2.5706 3.9845-1.0215 1.6303-1.5897 2.5977-2.5301 4.1807-0.93354 1.583-1.4341 2.4015-2.1715 3.7342-0.73736 1.3327-1.0756 1.9753-1.5153 2.9156-0.43295 0.93355-0.56825 1.2988-0.66295 1.7656-0.0947 0.46677-0.0136 0.54118 0.18941 0.56824 0.19618 0.0271 0.4803-0.0947 0.81178-0.42618 0.33824-0.33825 0.60884-0.67649 0.85914-1.2447 0.24353-0.56824 0.31118-1.0418 0.3653-1.5965 0.0541-0.55472 0.0203-0.85914-0.10147-1.1703-0.12177-0.31794-0.29089-0.42619-0.5006-0.39912-0.20971 0.0338-0.46001 0.18941-0.54796 0.55471-0.0879 0.3653-0.115 0.7509 0.10824 1.2786 0.22325 0.52766 0.44648 0.89296 1.0012 1.3733 0.55472 0.48031 0.92679 0.71708 1.7724 1.0215 0.84561 0.29765 1.3733 0.43971 2.4624 0.4803 1.0959 0.0406 1.7453-0.0338 3.0036-0.27736 1.2583-0.23677 1.9753-0.45324 3.2877-0.92678 1.3056-0.46677 2.0092-0.80502 3.2674-1.4206 1.265-0.60884 1.9483-0.98767 3.0374-1.6371 1.0824-0.64267 1.6844-1.035 2.388-1.5965 0.70354-0.55472 0.94708-0.8862 1.123-1.1838 0.17589-0.30442 0.0744-0.41942-0.24353-0.32471-0.32472 0.0947-0.73061 0.25706-1.3597 0.77795-0.62913 0.52766-1.1297 1.008-1.7724 1.8333s-0.94708 1.4139-1.4274 2.3c-0.48707 0.87943-0.76443 1.353-0.99444 2.1174-0.23677 0.76443-0.29088 1.1297-0.17588 1.7047 0.12176 0.57502 0.30442 0.8659 0.77795 1.1703 0.48031 0.30442 0.84561 0.37207 1.6168 0.35178 0.7712-0.0271 1.2515-0.1353 2.2527-0.48031 0.99443-0.34501 1.5694-0.64943 2.7262-1.2447 1.15-0.60207 1.813-1.035 3.0374-1.7589 1.2177-0.7306 1.9009-1.15 3.078-1.8806 1.1703-0.73061 1.7927-1.15 2.7939-1.7724 1.0012-0.62914 1.5018-0.93356 2.2121-1.3597 0.71031-0.41942 1.0283-0.60207 1.3394-0.77119 0.30442-0.16236 0.28413-0.19618 0.19619-0.0541-0.0947 0.1353-0.31119 0.31795-0.66972 0.7509-0.35178 0.42619-0.61561 0.7509-1.0959 1.3936-0.47354 0.63589-0.79826 1.1027-1.2786 1.7994-0.47354 0.69678-0.81178 1.0892-1.1027 1.6912-0.29089 0.60884-0.41942 0.94708-0.35853 1.3394 0.0541 0.38559 0.18941 0.56824 0.65618 0.60883 0.46678 0.0474 0.83884-0.0541 1.6709-0.39912 0.83884-0.34501 1.4003-0.70355 2.5165-1.3259 1.1162-0.62237 1.8062-1.1027 3.0577-1.7792 1.2583-0.67648 1.9957-1.0553 3.2201-1.5965 1.2312-0.54119 1.9212-0.80502 2.9224-1.1027 0.99433-0.30442 1.4476-0.39237 2.07-0.4059 0.6156-0.0136 0.805 0.0744 1.0215 0.34501 0.2232 0.26383 0.1758 0.5006 0.074 0.98091-0.095 0.48707-0.3045 0.81178-0.5547 1.4341-0.2504 0.62237-0.5006 1.0215-0.6766 1.6912-0.1826 0.66972-0.284 1.0891-0.2232 1.6642 0.068 0.57501 0.1556 0.87943 0.5344 1.2244 0.3789 0.33824 0.6494 0.46677 1.353 0.4803 0.6968 0.0203 1.1906-0.0812 2.1445-0.40589 0.9606-0.33148 1.495-0.64266 2.6382-1.2312 1.1366-0.59531 1.8063-1.0012 3.0713-1.725s2.0227-1.1636 3.2471-1.8874c1.2245-0.73061 1.8739-1.1094 2.8683-1.7386 1.0012-0.62913 1.5695-0.92678 2.1242-1.4003 0.5615-0.47353 0.69-0.7103 0.663-0.96737-0.027-0.25029-0.2707-0.3653-0.7983-0.31118-0.5209 0.0609-1.008 0.18941-1.8333 0.60207-0.8253 0.41265-1.3935 0.79825-2.2933 1.468-0.8929 0.66971-1.4273 1.1432-2.1783 1.8739-0.7509 0.7306-1.1229 1.123-1.5694 1.7724-0.4532 0.64942-0.6291 0.9809-0.6697 1.4815-0.041 0.5006 0.088 0.75767 0.4668 1.0215 0.372 0.25706 0.7103 0.33824 1.407 0.28412 0.7036-0.0541 1.1704-0.18942 2.1039-0.56148 0.9336-0.3653 1.5153-0.67649 2.5639-1.2718 1.0553-0.5953 1.6777-1.0147 2.706-1.698 1.0214-0.67648 1.6438-1.1094 2.4218-1.698 0.7847-0.58178 1.1161-0.92679 1.4815-1.2177 0.372-0.28412 0.4126-0.39912 0.3585-0.23-0.054 0.17588-0.2436 0.39912-0.6359 1.0959-0.3923 0.69002-0.7238 1.2312-1.3395 2.3745-0.6156 1.15-0.9809 1.9144-1.7385 3.3554-0.7644 1.4409-1.1974 2.273-2.0701 3.8424-0.8726 1.5762-1.3462 2.4286-2.2932 4.0183-0.9539 1.5897-1.468 2.4354-2.4557 3.9236-0.9809 1.495-1.5018 2.2324-2.4624 3.5245-0.9606 1.2921-1.4206 1.928-2.3474 2.9292-0.92 1.008-1.4071 1.4342-2.2662 2.1039-0.8524 0.66296-1.2989 0.8862-2.0159 1.2244-0.7104 0.34501-1.0689 0.43296-1.5492 0.48031-0.4803 0.0473-0.6562 7e-3 -0.8389-0.22324-0.1894-0.23677-0.1894-0.41942-0.095-0.92678 0.095-0.50737 0.1692-0.85238 0.575-1.61 0.4059-0.75766 0.6833-1.2312 1.4613-2.1783 0.7779-0.94032 1.3056-1.5018 2.4286-2.5368 1.1229-1.035 1.7791-1.6033 3.1862-2.6451 1.4003-1.0418 2.2256-1.5694 3.8357-2.5571 1.6032-0.9809 2.5368-1.468 4.1942-2.3609s2.5165-1.3327 4.0927-2.0971c1.5762-0.75766 2.3813-1.1027 3.8019-1.7115 1.4273-0.60884 2.1986-0.87943 3.3283-1.3327 1.1229-0.45324 1.5965-0.62236 2.3203-0.93354 0.7171-0.31119 0.9201-0.41942 1.2786-0.62237s0.4262-0.2706 0.5073-0.39913c0.088-0.12853 0.054-0.20294-0.088-0.24353-0.1421-0.0406-0.2232-0.0271-0.6291 0.0338s-0.6427 0.0541-1.4071 0.26383c-0.7645 0.20971-1.2515 0.35854-2.415 0.77119-1.1569 0.41266-1.9348 0.69002-3.3825 1.2921-1.4544 0.60207-2.2662 0.95384-3.8695 1.7115-1.61 0.75766-2.4827 1.1838-4.1672 2.07-1.6911 0.89296-2.6382 1.38-4.2889 2.3745-1.6438 0.99442-2.4962 1.5356-3.9574 2.5977-1.4544 1.0621-2.1444 1.6303-3.3283 2.7059-1.1906 1.0824-1.7656 1.6439-2.5977 2.6856-0.8321 1.035-1.1635 1.583-1.5627 2.5165-0.3923 0.92678-0.46 1.4139-0.4262 2.1444 0.034 0.73738 0.1827 1.1027 0.5953 1.5356 0.4127 0.42619 0.7712 0.57501 1.4545 0.6156 0.69 0.0406 1.1297-0.0677 1.9889-0.41265 0.8523-0.34501 1.3326-0.60884 2.2729-1.3056 0.9471-0.70355 1.4748-1.1568 2.4557-2.1986 0.9876-1.035 1.4679-1.6844 2.4692-2.9901 1.0012-1.3124 1.5356-2.0565 2.5503-3.5516 1.0147-1.5018 1.5492-2.3609 2.5301-3.9507 0.9741-1.5965 1.4612-2.4556 2.3677-4.0251 0.9064-1.5694 1.3732-2.3812 2.1782-3.8154 0.7983-1.4342 1.2447-2.1512 1.8198-3.3554 0.5818-1.2041 0.8727-1.7927 1.0688-2.6654 0.2029-0.87267 0.1826-1.2718-0.054-1.6912-0.2435-0.41266-0.5209-0.47354-1.1365-0.3856-0.6088 0.0879-1.035 0.35178-1.9212 0.83208-0.8862 0.47354-1.4747 0.93355-2.503 1.5627-1.035 0.63589-1.6371 1.0418-2.6586 1.6033-1.0147 0.55472-1.5829 0.79825-2.4218 1.1974-0.8388 0.39236-1.2312 0.55472-1.7521 0.78472-0.5276 0.23001-0.7036 0.32471-0.8794 0.35177-0.1827 0.0271-0.1894 7e-3 -0.013-0.21647 0.1759-0.23001 0.3788-0.43971 0.8862-0.90649 0.5006-0.47354 0.8591-0.83208 1.6303-1.4409 0.7713-0.60208 1.353-0.96738 2.2257-1.583s1.4341-0.95384 2.1309-1.4883c0.6968-0.53442 1.035-0.83207 1.3597-1.1906s0.4059-0.51413 0.2503-0.59531c-0.1555-0.0812-0.372-0.0676-1.035 0.19618-0.663 0.26383-1.2312 0.56825-2.2662 1.123-1.0351 0.55471-1.6777 0.95384-2.9157 1.6506-1.238 0.69001-2.0091 1.1162-3.2674 1.813-1.265 0.69678-1.9483 1.0891-3.051 1.6642-1.1026 0.57501-1.6235 0.83884-2.4691 1.2109-0.8389 0.37207-1.238 0.5006-1.7318 0.6562-0.4938 0.15559-0.6021 0.20294-0.7374 0.10823-0.1285-0.10147-0.048-0.22324 0.074-0.5953 0.1218-0.37207 0.2909-0.66973 0.5345-1.265 0.2367-0.59531 0.4803-0.99444 0.6697-1.7047 0.1894-0.71031 0.3315-1.1771 0.2638-1.8536-0.061-0.68325-0.1556-1.0756-0.5818-1.5424-0.4261-0.46677-0.7441-0.65619-1.5424-0.77796-0.7982-0.12853-1.3259-0.0744-2.4488 0.15559-1.123 0.23001-1.8468 0.49384-3.1592 0.99443-1.3056 0.50737-2.07 0.87943-3.3892 1.5221-1.3192 0.6359-2.0768 1.035-3.193 1.6709-1.1162 0.64266-1.6777 1.0147-2.388 1.5221-0.7103 0.50736-0.94708 0.76443-1.1636 1.0147s-0.12177 0.33147 0.0812 0.23676c0.20294-0.0947 0.48707-0.27059 0.93355-0.7103 0.44648-0.44648 0.77119-0.84561 1.3056-1.5086 0.53442-0.66296 0.92678-1.1027 1.3733-1.8198s0.66295-1.1365 0.8456-1.7656c0.18265-0.62913 0.22324-1.0012 0.0676-1.3936-0.16235-0.39913-0.345-0.56148-0.8659-0.58854-0.52089-0.0338-0.92001 0.0947-1.7386 0.43972-0.82532 0.34501-1.3259 0.68325-2.3677 1.2786-1.0418 0.59531-1.6506 1.0012-2.8412 1.7047-1.1906 0.69679-1.8806 1.1027-3.0983 1.7927-1.2177 0.69678-1.8874 1.1027-2.9968 1.6777-1.1162 0.58178-1.6642 0.83884-2.5571 1.2109-0.88619 0.3653-1.2921 0.47354-1.8874 0.62913-0.58855 0.1556-0.79825 0.22324-1.0688 0.14883-0.27736-0.0744-0.33147-0.18265-0.30442-0.51413 0.0271-0.33824 0.11501-0.58178 0.43296-1.1636 0.31794-0.58854 0.60883-1.0147 1.1636-1.7589 0.54795-0.7509 0.97414-1.2042 1.5897-1.9889s1.0553-1.2583 1.4883-1.9415c0.42618-0.67649 0.62237-1.0688 0.65619-1.4612 0.0338-0.39236-0.0812-0.52766-0.48707-0.5006-0.40589 0.0271-0.74414 0.21647-1.5289 0.63589-0.78472 0.41943-1.3259 0.85238-2.3948 1.4544-1.0688 0.60207-1.7318 0.9809-2.9495 1.5627-1.2244 0.58178-1.9009 0.89972-3.1457 1.3394-1.2447 0.43972-1.928 0.62237-3.078 0.85237-1.1568 0.22324-1.7386 0.29089-2.6924 0.27736-0.94708-0.0203-1.3868-0.14206-2.0498-0.3653-0.66295-0.23-0.90649-0.41942-1.265-0.77119-0.35854-0.35854-0.33149-0.64266-0.52766-0.99444-0.18942-0.35177-0.25707-0.54795-0.42619-0.77119-0.17588-0.23001-0.2503-0.31795-0.44648-0.35854-0.18941-0.0338-0.27736-0.0474-0.50736 0.16912-0.23677 0.21648-0.43296 0.43972-0.6562 0.92002-0.23 0.47355-0.3653 0.90649-0.48706 1.4747-0.12177 0.56148-0.12853 0.92679-0.12853 1.3597 0 0.43296-0.0136 0.68325 0.12176 0.80502 0.12853 0.12854 0.21648 0.16236 0.53442-0.18265 0.31119-0.345 0.5006-0.67648 1.035-1.5492 0.53442-0.8659 0.85237-1.5153 1.6303-2.8006 0.78472-1.2853 1.2921-2.0903 2.2798-3.6327 0.98091-1.5356 1.5762-2.4827 2.6383-4.0657 1.0621-1.5897 1.7589-2.4759 2.6789-3.8627 0.91325-1.38 1.3936-2.0903 1.9009-3.0509 0.50736-0.96738 0.65619-1.4003 0.62913-1.7589-0.0203-0.35854-0.21647-0.3856-0.7509-0.0338-0.52766 0.35178-0.96737 0.82531-1.9144 1.7927-0.94708 0.96737-1.5289 1.6777-2.8142 3.0374-1.2786 1.3665-2.07 2.2189-3.5854 3.7748-1.5153 1.5559-2.388 2.4624-3.9913 4.0116-1.61 1.5492-2.4556 2.3745-4.0319 3.741-1.5694 1.3597-2.4489 1.9956-3.8424 3.0645-1.3868 1.0688-2.0565 1.5762-3.1186 2.273-1.0688 0.69678-1.5289 0.92002-2.2121 1.2109-0.68325 0.29766-0.92678 0.32471-1.2177 0.25707-0.28412-0.0609-0.30442-0.19618-0.22324-0.57502 0.0812-0.37206 0.33148-0.69678 0.62913-1.3124 0.29766-0.6156 0.60208-1.0688 0.85237-1.7724 0.2503-0.69678 0.39913-1.1906 0.39913-1.7386 7e-3 -0.54119-0.0338-0.79825-0.37883-0.98766-0.34501-0.19619-0.64942-0.20295-1.3462 0.0136-0.70354 0.21648-1.1906 0.56149-2.1445 1.0688-0.94708 0.50736-1.5762 0.91325-2.6112 1.4747-1.0283 0.55473-1.5897 0.86591-2.5368 1.3124-0.94708 0.45324-1.4477 0.64943-2.1986 0.93355-0.7509 0.28412-1.1027 0.39913-1.5492 0.49383-0.45325 0.0947-0.60208 0.12854-0.70355-0.0135-0.10147-0.14206-0.0609-0.28412 0.18941-0.71031 0.24354-0.42618 0.46678-0.79149 1.0553-1.4138 0.58178-0.62237 1.008-1.0215 1.8671-1.698 0.85914-0.67649 1.4342-1.0688 2.4286-1.6912 0.99444-0.6156 1.5897-0.94708 2.5571-1.4003 0.96061-0.45324 1.5018-0.58854 2.2595-0.8659 0.76442-0.27059 1.0891-0.33148 1.5356-0.51413 0.44648-0.17588 0.5953-0.25706 0.70354-0.37883 0.10148-0.12853 0.0609-0.23-0.18941-0.23677-0.2503-0.0136-0.53442 0.0474-1.0553 0.16912-0.52089 0.12854-0.83884 0.28412-1.5424 0.45325-0.71031 0.16912-1.1636 0.24354-1.9889 0.39236-0.82531 0.14883-1.3124 0.23677-2.1445 0.35177-0.82531 0.115-1.238 0.14883-2.0092 0.21648-0.76443 0.0676-1.1365 0.0744-1.84 0.12176-0.69678 0.0541-0.99444 0.0677-1.6506 0.12854-0.64943 0.0609-0.94032 0.0609-1.61 0.17588-0.66972 0.115-1.0012 0.17589-1.7318 0.4059-0.73061 0.23-1.1162 0.37206-1.928 0.73736-0.80501 0.36531-1.265 0.58178-2.1242 1.0892-0.85913 0.50736-1.3124 0.8456-2.1715 1.4544-0.85914 0.60207-1.3462 0.96737-2.1377 1.5762-0.78472 0.60207-1.2109 0.91325-1.8062 1.4544-0.5953 0.54119-0.8456 0.83208-1.1568 1.2447-0.31119 0.41942-0.39237 0.63589-0.40589 0.83207-0.0136 0.18942 0.0879 0.26383 0.33824 0.1353 0.2503-0.12853 0.46677-0.30442 0.89972-0.77796 0.43295-0.48031 0.76443-0.8862 1.2583-1.6033 0.49383-0.71707 0.85236-1.238 1.2109-1.9956 0.3653-0.75767 0.51413-1.2042 0.58854-1.7927 0.0677-0.58854 0.0541-0.89973-0.21647-1.1433-0.27736-0.24353-0.56148-0.2503-1.1568-0.0609-0.59531 0.18941-0.99443 0.51413-1.8265 1.0215-0.82531 0.50736-1.2921 0.89296-2.3203 1.5221-1.0215 0.6359-1.6168 1.0147-2.8006 1.6506-1.1906 0.62913-1.8874 0.97413-3.1389 1.5018-1.2447 0.53443-1.9415 0.79826-3.1118 1.15-1.1771 0.35177-1.7724 0.48707-2.7668 0.60884-1.0012 0.115-1.4747 0.115-2.2256-0.0136-0.75766-0.12853-1.0824-0.27059-1.5492-0.62236-0.46677-0.35178-0.64266-0.59531-0.79149-1.15-0.14206-0.55471-0.10824-0.90649 0.0676-1.6168 0.17589-0.70354 0.39236-1.1636 0.82531-1.9212 0.43296-0.75766 0.74414-1.1906 1.3394-1.8603 0.58854-0.66972 1.0012-1.0147 1.6236-1.495 0.62913-0.48031 0.98767-0.64943 1.5086-0.89973 0.52766-0.24353 0.75766-0.28412 1.1094-0.33824 0.35177-0.0474 0.46677-0.0338 0.63589 0.0879 0.16913 0.11501 0.23001 0.20971 0.20972 0.50737-0.0271 0.30442-0.0609 0.52089-0.33149 1.0012-0.27059 0.48031-0.46 0.79149-1.0147 1.3936-0.55472 0.5953-0.94032 0.94031-1.7724 1.6033-0.82531 0.66973-1.353 1.0621-2.3745 1.725-1.0283 0.66295-1.6168 1.0147-2.7465 1.5965-1.1297 0.58177-1.7724 0.85913-2.9156 1.3056-1.1433 0.44649-1.7521 0.64943-2.7939 0.92002-1.0418 0.27736-1.5694 0.34501-2.4286 0.44648-0.8659 0.10824-1.2786 0.10148-1.8942 0.0744-0.61561-0.0338-0.84561-0.10147-1.1974-0.22324-0.35177-0.115-0.43972-0.21647-0.56825-0.3653-0.12853-0.14882-0.12177-0.23-0.0744-0.37883 0.0474-0.14882 0.1353-0.20294 0.31119-0.3653 0.18265-0.16235 0.31118-0.28412 0.58178-0.44648 0.26383-0.16235 0.41942-0.22324 0.76443-0.3653 0.35177-0.14206 0.58177-0.14883 0.96737-0.33824 0.3856-0.18942 0.62237-0.31119 0.97414-0.61561 0.34501-0.30441 0.53442-0.48706 0.76443-0.90649 0.23677-0.41942 0.31794-0.69001 0.39236-1.1906 0.0812-0.5006 0.0541-0.77119 7e-3 -1.3056-0.0474-0.53443-0.0812-0.81856-0.2503-1.3733-0.16236-0.55472-0.2706-0.8862-0.58178-1.4139-0.31795-0.52765-0.52766-0.81178-0.99444-1.2244-0.46001-0.40589-0.70354-0.60207-1.3259-0.82531-0.6156-0.21647-0.9809-0.31795-1.7724-0.27059-0.79148 0.0473-1.2312 0.1353-2.1918 0.50736-0.96061 0.37884-1.5018 0.6562-2.618 1.3597-1.1162 0.71031-1.7047 1.1433-2.9495 2.1783-1.2515 1.035-1.9483 1.6439-3.2877 3.0104-1.3394 1.3597-2.0565 2.1986-3.4162 3.8154-1.353 1.6168-2.0633 2.5368-3.3689 4.2619-1.2988 1.725-1.9821 2.6518-3.1389 4.3566-1.1568 1.698-1.7724 2.5909-2.6451 4.1401-0.87943 1.5424-1.2921 2.3745-1.7318 3.5854-0.43295 1.2042-0.49384 1.8062-0.45325 2.4556 0.0406 0.65619 0.21648 0.85914 0.6562 0.80502 0.43971-0.0474 0.77119-0.30442 1.5424-1.0621 0.76443-0.7509 1.265-1.3936 2.2933-2.7059 1.0283-1.3124 1.6371-2.1715 2.848-3.856 1.2109-1.6844 1.9145-2.7465 3.2133-4.5595 1.2921-1.8198 2.0024-2.7939 3.2674-4.5324 1.265-1.7386 1.9686-2.6112 3.0577-4.1739s1.6236-2.3204 2.3948-3.6327c0.77796-1.3192 1.123-1.928 1.4815-2.9359 0.35176-1.0147 0.41942-1.468 0.31117-2.1174-0.11499-0.65619-0.31794-0.89297-0.8659-1.1365-0.54118-0.2503-0.95384-0.20294-1.8671-0.0947-0.92001 0.10824-1.5153 0.29765-2.7059 0.62913-1.1906 0.33148-1.8874 0.59531-3.2471 1.0147-1.3665 0.41942-2.1444 0.69678-3.5651 1.0824-1.4206 0.38559-2.2256 0.58178-3.538 0.8456-1.3192 0.26383-1.9753 0.3653-3.0374 0.46678-1.0621 0.10824-1.5492 0.0879-2.2798 0.0474-0.7306-0.0406-1.008-0.1353-1.3665-0.24353-0.35853-0.11501-0.40589-0.19619-0.41941-0.32472-7e-3 -0.13529 0.10147-0.20971 0.35853-0.33148 0.25707-0.12177 0.50737-0.20294 0.92679-0.27736 0.42618-0.0812 0.7509-0.16235 1.1974-0.12176 0.43971 0.0474 0.75089 0.0609 1.0282 0.32471 0.27736 0.2706 0.40589 0.46678 0.3653 1.0147-0.0406 0.54795-0.16235 0.95384-0.575 1.725-0.41942 0.77119-0.75767 1.2718-1.5153 2.1309-0.75766 0.8659-1.2921 1.3733-2.2798 2.185-0.9809 0.81178-1.5694 1.2515-2.6383 1.8739-1.0756 0.62913-1.7183 0.88619-2.7262 1.265-1.0147 0.37883-1.5492 0.5209-2.3339 0.64267-0.78472 0.115-1.1365 0.12176-1.583-0.0541-0.44647-0.17588-0.5953-0.33824-0.65619-0.82531-0.0541-0.48031 0.0136-0.82531 0.36531-1.5965 0.35177-0.76443 0.70354-1.3056 1.4003-2.2392 0.69678-0.92679 1.1636-1.5086 2.0768-2.4151 0.91325-0.90648 1.5356-1.3868 2.4827-2.1174 0.95385-0.72384 1.5018-1.0824 2.2865-1.5221 0.78472-0.43972 1.0891-0.55472 1.6303-0.66972 0.54119-0.10824 0.70354 0.0271 1.0688 0.10147 0.36531 0.0812 0.48708 0.20971 0.75767 0.29765 0.27059 0.088 0.40589 0.19618 0.60207 0.14883 0.18942-0.0474 0.35854-0.16912 0.3653-0.39236" opacity=".74024" style="mix-blend-mode:normal"/><path d="m879.66 643.44c0.2503-0.0879 0.45324-0.31795 0.69001-0.67649 0.23001-0.3653 0.4059-0.6156 0.48031-1.123 0.0812-0.50737 0.10147-0.92003-0.0812-1.4071-0.18265-0.48707-0.35854-0.69002-0.82531-1.0147-0.46678-0.32472-0.74414-0.50737-1.5018-0.6156-0.7509-0.10824-1.2786-0.0947-2.2595 0.0744-0.98767 0.16912-1.5897 0.37207-2.6654 0.77796-1.0688 0.41266-1.7183 0.69678-2.7127 1.2786-0.99443 0.57501-1.5153 0.94031-2.2595 1.6303-0.75089 0.68325-1.0891 1.0553-1.4747 1.7995-0.37884 0.73736-0.5006 1.15-0.43296 1.9009 0.0609 0.7509 0.2503 1.1703 0.7509 1.8536 0.50737 0.69002 0.91326 1.0283 1.7724 1.5897 0.85236 0.55472 1.4612 0.78472 2.5165 1.1974 1.0486 0.41265 1.7183 0.54795 2.7533 0.8659 1.0283 0.32471 1.5897 0.4803 2.4015 0.7306 0.80502 0.2503 1.1974 0.36531 1.6236 0.52766 0.42618 0.16236 0.56148 0.16912 0.51413 0.28413-0.0541 0.12176-0.23677 0.13529-0.7712 0.31118-0.54118 0.17588-0.97413 0.30442-1.9212 0.57501s-1.6033 0.46677-2.8006 0.77796c-1.1974 0.30442-1.9753 0.4803-3.193 0.76443-1.2177 0.28412-1.8671 0.41942-2.8886 0.65619-1.0215 0.23677-1.7859 0.31118-2.2189 0.51413-0.43294 0.20971-0.43294 0.38559 0.0406 0.51413 0.48031 0.12853 1.265 0.18265 2.3339 0.13529 1.0688-0.0406 1.7589-0.16236 3.0239-0.3653 1.2583-0.19618 2.0498-0.345 3.2945-0.64266 1.2447-0.30442 1.9415-0.47354 2.9224-0.85914 0.9809-0.39236 1.4341-0.62913 1.9821-1.0824 0.54796-0.46001 0.71708-0.73737 0.75767-1.2109 0.0406-0.46678-0.11501-0.71708-0.56148-1.1433-0.44648-0.41942-0.85914-0.60207-1.6709-0.97414-0.81855-0.3653-1.4003-0.52766-2.415-0.88619-1.0215-0.35178-1.6709-0.50737-2.6721-0.8862s-1.5492-0.58178-2.3271-1.008c-0.78472-0.42619-1.1365-0.66973-1.5897-1.1365-0.45325-0.46677-0.62237-0.70354-0.68325-1.1974-0.0609-0.49383 0.0406-0.74413 0.39236-1.2718 0.35177-0.5209 0.66972-0.81855 1.3665-1.3597 0.70354-0.54118 1.1974-0.85913 2.1309-1.353 0.93355-0.48707 1.5627-0.7306 2.5571-1.0891 0.99444-0.35854 1.5627-0.51413 2.4218-0.71031 0.85914-0.18942 1.2853-0.23001 1.8671-0.24353 0.58854-0.0136 0.78472 0.0609 1.0486 0.17588 0.26383 0.11501 0.25707 0.1556 0.26383 0.39913 7e-3 0.24353-0.14206 0.4803-0.23677 0.83208-0.0947 0.35177-0.18942 0.56825-0.24353 0.94031-0.0541 0.3653-0.1353 0.67649-0.0406 0.90649 0.10147 0.23001 0.29765 0.33148 0.54119 0.24354" opacity=".74024" style="mix-blend-mode:normal"/><path d="m885.88 644.42c-0.19618 0.13529-0.27059 0.33147-0.46001 0.78472-0.19618 0.44648-0.33148 0.75766-0.50737 1.4612-0.17588 0.70354-0.33147 1.2109-0.37883 2.0498-0.0406 0.84561-0.0474 1.3868 0.16913 2.1715 0.22324 0.79148 0.41265 1.2041 0.94031 1.7656 0.52089 0.56148 0.87943 0.80502 1.6777 1.035 0.79826 0.23001 1.265 0.27736 2.3068 0.11501 1.0418-0.1556 1.6777-0.35178 2.9089-0.90649 1.2312-0.54796 1.9483-1.008 3.2539-1.8536 1.3056-0.84561 2.0092-1.4071 3.2674-2.3745 1.265-0.97413 1.9956-1.5627 3.0442-2.4759 1.0553-0.91325 1.5965-1.4612 2.2256-2.0971s0.82531-0.94031 0.92678-1.0891c0.10148-0.14206-0.0338-0.115-0.41265 0.36531-0.37207 0.47353-0.75766 0.89295-1.4612 2.0227-0.71031 1.1297-1.1838 1.9618-2.0836 3.6192-0.89973 1.6574-1.3665 2.6992-2.4151 4.6678-1.0486 1.9686-1.6912 3.0915-2.8345 5.1751-1.15 2.0836-1.7859 3.2336-2.9021 5.2495-1.1162 2.0227-1.6844 3.051-2.6856 4.8504-1.0012 1.7927-1.4883 2.6924-2.3136 4.1333-0.81854 1.4477-1.1974 2.0836-1.7994 3.0848-0.5953 0.99443-0.85913 1.3868-1.1771 1.9144-0.32471 0.53443-0.3856 0.69679-0.41942 0.74414-0.0338 0.0541 0.0541-0.0339 0.2503-0.47354 0.19618-0.44648 0.32471-0.82531 0.7306-1.7386 0.39913-0.91325 0.59531-1.5288 1.2853-2.8277 0.69002-1.2988 1.0959-2.0633 2.1648-3.653 1.0621-1.5965 1.7318-2.5639 3.1727-4.3092 1.4477-1.7521 2.2933-2.6721 4.0454-4.4445 1.7521-1.7724 2.7668-2.733 4.7286-4.431 1.9618-1.6912 3.0712-2.5639 5.0804-4.0522 2.0092-1.4815 3.078-2.1715 4.9722-3.3689 1.8942-1.1974 2.8818-1.7183 4.5054-2.618 1.6303-0.89972 2.4151-1.3056 3.6327-1.8806 1.2177-0.58178 1.7453-0.7509 2.4556-1.008 0.71031-0.2503 0.90649-0.29089 1.0959-0.2503 0.18942 0.0406 0.0947 0.10824-0.14883 0.45325s-0.54119 0.62237-1.0688 1.2718c-0.52766 0.64943-0.87267 1.1094-1.5627 1.9686-0.68325 0.8659-1.1027 1.4138-1.8603 2.3339-0.76442 0.92002-1.2041 1.4206-1.9483 2.2662-0.7509 0.85237-1.1433 1.2718-1.7927 1.9753-0.65619 0.70355-0.96061 1.0147-1.4747 1.5424-0.51413 0.52089-0.77119 0.69677-1.1027 1.0756-0.33148 0.38559-0.47354 0.53442-0.54796 0.83884-0.0744 0.29766 7e-3 0.45324 0.16236 0.65619 0.15559 0.20971 0.32472 0.29765 0.62914 0.37207 0.31118 0.0676 0.4803 0.0676 0.91325-7e-3 0.43295-0.0812 0.68325-0.15559 1.265-0.39236 0.58178-0.23001 0.90649-0.37207 1.6439-0.76443 0.73736-0.39236 1.1568-0.60884 2.043-1.1906 0.89296-0.58853 1.38-0.94031 2.4083-1.7386 1.0282-0.79825 1.583-1.2515 2.733-2.2459 1.15-1.0012 1.7656-1.5627 3.0104-2.733 1.2447-1.1636 1.9009-1.8062 3.2065-3.0983 1.3056-1.2989 2.0024-2.0024 3.3148-3.3689 1.3056-1.3665 1.9686-2.0971 3.2336-3.4771 1.265-1.38 1.928-2.1039 3.0915-3.4162 1.1703-1.3124 1.7521-1.9956 2.7465-3.1389 1.0012-1.1433 1.5086-1.6844 2.2392-2.5842 0.73737-0.90649 1.1094-1.3868 1.4206-1.9348 0.31118-0.54119 0.33147-0.78472 0.14206-0.78472-0.18942 0-0.4803 0.1353-1.0824 0.77119-0.60883 0.6359-1.0621 1.1838-1.955 2.4015-0.88619 1.2177-1.4612 2.0971-2.4895 3.6868-1.035 1.5897-1.5965 2.5639-2.6518 4.2686-1.0553 1.698-1.6439 2.5977-2.6248 4.2416-0.98767 1.6506-1.4815 2.503-2.3136 3.9913-0.82531 1.4815-1.2041 2.2256-1.8333 3.4433-0.62913 1.2109-0.93355 1.7386-1.3192 2.618-0.37883 0.87267-0.49383 1.2312-0.58178 1.7656-0.0879 0.53442 0.0676 0.71708 0.15559 0.89973 0.0812 0.18265 0.17589 0.15559 0.27736 0.0136 0.10148-0.13529 0.0136-0.25706 0.23678-0.69677 0.22324-0.44649 0.42618-0.69679 0.88619-1.5018 0.46001-0.80502 0.7509-1.3462 1.4071-2.5301s1.0418-1.9212 1.8874-3.3824c0.8456-1.4612 1.3394-2.3068 2.3339-3.9304 0.99443-1.6236 1.5559-2.5301 2.6518-4.1874 1.0959-1.6642 1.7589-2.5639 2.8345-4.113 1.0688-1.5492 1.7048-2.3745 2.5233-3.6395 0.81179-1.265 1.1838-1.8739 1.5559-2.6856 0.3653-0.81855 0.40589-1.15 0.27736-1.3936-0.12854-0.24354-0.39913-0.19618-0.93355 0.17588-0.53443 0.37207-0.92679 0.84561-1.725 1.698-0.79825 0.84561-1.2583 1.4206-2.2662 2.5571-1.008 1.1297-1.5965 1.7994-2.7736 3.0983-1.1703 1.2988-1.8333 2.0227-3.0983 3.3892s-1.9212 2.0836-3.2268 3.4365c-1.3124 1.353-2.0092 2.0498-3.308 3.3283-1.2988 1.2786-1.955 1.9144-3.193 3.0645-1.2312 1.1433-1.8468 1.698-2.9833 2.6721-1.1297 0.97414-1.6777 1.4206-2.6789 2.1918-1.0012 0.77119-1.4748 1.1094-2.3204 1.6642-0.85237 0.55472-1.238 0.75766-1.928 1.1162-0.69001 0.35854-0.98767 0.47354-1.5153 0.67649-0.5209 0.20294-0.7509 0.20971-1.1094 0.34501-0.35854 0.13529-0.48708 0.20294-0.66973 0.345-0.18265 0.1353-0.22324 0.2706-0.24353 0.35177-0.0136 0.0812-7e-3 0.14207 0.16235 0.0677 0.16913-0.0812 0.31795-0.16236 0.69002-0.45325 0.37883-0.29089 0.64266-0.49383 1.1974-0.99443 0.54795-0.5006 0.87943-0.81855 1.5694-1.5086 0.69678-0.68325 1.1027-1.0959 1.8942-1.9212 0.79825-0.83207 1.2583-1.3191 2.07-2.2189 0.81178-0.9065 1.2921-1.4139 2.0024-2.3001 0.70355-0.89295 1.0891-1.3597 1.5289-2.158 0.43971-0.79826 0.62236-1.2447 0.66295-1.84 0.0406-0.60207-0.0474-0.87942-0.44648-1.1432-0.39912-0.26384-0.69677-0.31795-1.5424-0.18942-0.85237 0.1353-1.4071 0.31118-2.6992 0.8456-1.2921 0.54119-2.1174 0.92003-3.768 1.8536-1.6506 0.92679-2.5977 1.5356-4.4919 2.7871-1.9009 1.2515-2.963 1.9483-4.9925 3.4636-2.0227 1.5153-3.1457 2.3948-5.1345 4.0995-1.9889 1.7115-3.0171 2.6654-4.8166 4.4377-1.8062 1.7724-2.6789 2.6789-4.2077 4.4174-1.5356 1.7318-2.3 2.6518-3.4636 4.2551-1.1568 1.6033-1.6033 2.3948-2.3339 3.7545-0.7306 1.3597-1.008 2.0092-1.3192 3.0442-0.31117 1.0418-0.33147 1.5424-0.25029 2.1512 0.0812 0.60883 0.29765 0.82531 0.64942 0.89972 0.35178 0.0744 0.58854-0.0474 1.0959-0.52766 0.50736-0.47354 0.78472-0.87266 1.4544-1.8603 0.67649-0.98767 1.0756-1.6236 1.9144-3.0712 0.84561-1.4477 1.3192-2.3609 2.3068-4.1739 0.98091-1.8062 1.5086-2.8615 2.618-4.8842 1.1094-2.0227 1.7386-3.1659 2.9156-5.2292 1.1771-2.07 1.8265-3.1862 2.963-5.1007 1.1365-1.9212 1.7859-2.8615 2.7262-4.4986 0.94708-1.6371 1.4139-2.4624 1.9956-3.6868 0.58178-1.2244 0.81178-1.7453 0.91326-2.4353 0.0947-0.69002-0.0136-0.93355-0.41266-1.0283-0.39912-0.0947-0.78472 0.0676-1.583 0.55472-0.79826 0.49383-1.3327 1.0418-2.4218 1.9009-1.0892 0.85914-1.7859 1.4544-3.0374 2.388-1.2447 0.93354-1.9483 1.4747-3.1998 2.2865-1.2583 0.81178-1.9483 1.2244-3.0645 1.7724-1.123 0.54119-1.6709 0.74413-2.5368 0.94708-0.85914 0.2097-1.1974 0.2097-1.7792 0.0879-0.58854-0.115-0.81178-0.28413-1.1365-0.67649-0.32471-0.39236-0.41265-0.68325-0.4803-1.2988-0.0677-0.60883 0.0338-1.035 0.1353-1.7656 0.0947-0.7306 0.2503-1.2041 0.345-1.8942 0.0879-0.68325 0.12177-1.0486 0.10824-1.5424-0.0136-0.49383-0.0474-0.72384-0.18265-0.92002-0.14206-0.20295-0.31118-0.22324-0.50736-0.0812" opacity=".74024" style="mix-blend-mode:normal"/><path d="m925.96 652.4c-0.0406-7e-3 -0.15559 0.2503-0.0812 0.41265 0.0677 0.16236 0.12177 0.31795 0.43296 0.40589 0.31118 0.0947 0.46677 0.0744 1.123 0.0338 0.64943-0.0338 1.1365-0.0541 2.1377-0.21647 1.0012-0.16236 1.6168-0.29765 2.8683-0.58178 1.2447-0.27736 1.928-0.44648 3.3757-0.81178 1.4477-0.35854 2.273-0.54795 3.8492-0.98767 1.583-0.44648 2.4624-0.69678 4.0454-1.2177 1.583-0.51413 2.4218-0.81179 3.8763-1.3665 1.4477-0.56149 2.1986-0.83884 3.3757-1.4139 1.1838-0.58178 1.7386-0.87943 2.5233-1.4815 0.78472-0.60884 1.1094-0.97414 1.4003-1.5492 0.28413-0.58178 0.28413-0.93355 0.0406-1.3462-0.23677-0.41265-0.54796-0.62236-1.2515-0.71031-0.70355-0.0812-1.238-0.0338-2.2527 0.28413-1.0147 0.32471-1.6709 0.6359-2.8277 1.3327-1.1568 0.70355-1.8536 1.2244-2.9562 2.1783-1.1027 0.95384-1.698 1.5424-2.5571 2.6112-0.85913 1.0688-1.3056 1.6844-1.725 2.7465-0.41942 1.0553-0.50736 1.6574-0.3653 2.5571 0.14206 0.89973 0.39913 1.3462 1.0621 1.9415 0.66296 0.58855 1.1703 0.82532 2.2527 1.0215 1.0891 0.18941 1.8062 0.15559 3.1727-0.0609 1.3597-0.21648 2.158-0.47355 3.6395-1.035 1.4815-0.56148 2.2865-0.97414 3.768-1.7656 1.4815-0.79826 2.2595-1.3124 3.6463-2.2053 1.38-0.89973 2.1106-1.4342 3.2674-2.2798s1.7656-1.3124 2.53-1.9483c0.75767-0.64266 1.0621-0.96737 1.2718-1.2515 0.21647-0.28412 0.10147-0.33824-0.19618-0.16236-0.29766 0.16913-0.67649 0.41267-1.2921 1.0147s-1.0891 1.1027-1.7859 1.9956c-0.69678 0.89972-1.1433 1.5627-1.7047 2.4827-0.55472 0.91325-0.83208 1.38-1.0891 2.1039-0.25707 0.73061-0.35178 1.0824-0.19619 1.5356 0.1556 0.45324 0.3653 0.67648 0.98091 0.73736 0.60883 0.0609 1.1162-0.0609 2.0836-0.43971 0.96738-0.37883 1.5559-0.76443 2.7398-1.4477 1.1906-0.69001 1.8942-1.1974 3.1998-1.9821 1.3124-0.78472 2.0903-1.2447 3.3554-1.9415 1.265-0.69678 1.9618-1.0756 2.963-1.5424 1.008-0.46678 1.4815-0.62913 2.0701-0.79825 0.58171-0.16912 0.7373-0.18265 0.85907-0.0609 0.12853 0.12177 7e-3 0.26383-0.24353 0.66972-0.2503 0.40588-0.55472 0.72384-1.0012 1.3597-0.44648 0.6359-0.81179 1.0892-1.2244 1.8197-0.41942 0.73061-0.67649 1.1974-0.85237 1.8265-0.17589 0.62236-0.20295 0.93355-0.0406 1.3056 0.16912 0.3653 0.31795 0.50737 0.8659 0.52766 0.54796 0.0271 0.98767-0.0609 1.8806-0.41265 0.89973-0.35854 1.4747-0.73061 2.5977-1.353 1.1162-0.62237 1.7792-1.0756 2.9968-1.7724 1.2244-0.70354 1.9618-1.1162 3.1118-1.7183 1.1568-0.60207 1.8062-0.92678 2.6654-1.2853 0.85913-0.3653 1.2448-0.48707 1.6303-0.52766 0.3856-0.0474 0.39236-7e-3 0.31118 0.30442-0.0812 0.31118-0.33824 0.59531-0.72384 1.2312-0.38559 0.64266-0.75766 1.123-1.1906 1.9686-0.43972 0.8456-0.76443 1.4409-0.98091 2.273-0.21647 0.83207-0.29765 1.2921-0.0879 1.8942 0.20295 0.60207 0.44648 0.87267 1.123 1.1094 0.67648 0.24353 1.1703 0.2503 2.2527 0.0947 1.0892-0.15559 1.8062-0.37884 3.1727-0.87267 1.3733-0.49383 2.3-0.93355 3.6733-1.583 1.3732-0.6562 2.1377-1.0688 3.1794-1.6844 1.0485-0.62237 1.6845-1.035 2.0498-1.4003 0.3721-0.3653 0.3044-0.49383-0.203-0.42618-0.5141 0.0677-1.2108 0.345-2.3474 0.75766-1.1365 0.40589-1.9346 0.7306-3.3215 1.2853-1.3867 0.55472-2.3135 0.98767-3.6124 1.495-1.2988 0.51414-1.9618 0.7712-2.8886 1.0553-0.93349 0.29088-1.3056 0.39235-1.7656 0.39235s-0.54795-0.0676-0.53442-0.38559c0.0203-0.31795 0.25706-0.56825 0.62236-1.2109 0.37207-0.64266 0.78479-1.1636 1.2109-2.0092 0.43301-0.84561 0.7103-1.4139 0.92685-2.2189 0.2164-0.81179 0.31118-1.265 0.16229-1.8265-0.1556-0.56148-0.32472-0.79826-0.93356-0.97415-0.60876-0.17588-1.1026-0.15558-2.1106 0.0947-1.0012 0.25029-1.6844 0.60207-2.9089 1.1636-1.2244 0.56149-1.9618 0.98767-3.2201 1.6506-1.2582 0.66296-1.9686 1.0418-3.078 1.6642-1.1094 0.6156-1.6912 0.95384-2.4624 1.4274-0.77796 0.48031-1.0959 0.71031-1.4138 0.95384-0.31795 0.23678-0.2706 0.33149-0.16912 0.25031 0.10823-0.0812 0.33147-0.22324 0.69678-0.66296 0.3653-0.43295 0.66972-0.83208 1.1297-1.5153 0.46677-0.68325 0.83207-1.15 1.1974-1.9077 0.35854-0.75089 0.55472-1.2312 0.60884-1.8739 0.0541-0.64266 0-0.9809-0.345-1.3462-0.35178-0.35853-0.62914-0.4803-1.3936-0.46677-0.76443 0.0136-1.3056 0.14206-2.4218 0.54119-1.1094 0.39913-1.8265 0.78472-3.1524 1.4477-1.3191 0.66971-2.1174 1.1297-3.4568 1.8806-1.3394 0.75767-2.0903 1.2109-3.2539 1.8942-1.1636 0.68325-1.7386 1.0418-2.5639 1.5288-0.82531 0.49383-1.1771 0.7306-1.5492 0.92679-0.37207 0.18941-0.3856 0.21647-0.31119 0.0406 0.0677-0.17589 0.26383-0.39236 0.66296-0.92678 0.40589-0.53443 0.69001-0.94708 1.3394-1.7453 0.64942-0.79825 1.2177-1.353 1.9009-2.2459 0.67649-0.89296 1.0756-1.4544 1.5018-2.2324 0.43295-0.77119 0.6156-1.1974 0.62913-1.6506 0.0136-0.44648-0.10147-0.62913-0.55472-0.59531-0.46001 0.0338-0.87266 0.2503-1.7386 0.7712-0.87267 0.52765-1.4409 1.0282-2.6045 1.84-1.1703 0.80501-1.8806 1.3394-3.2404 2.2053-1.3597 0.86591-2.1242 1.3665-3.5651 2.1174-1.4341 0.75766-2.2189 1.1297-3.6192 1.6506-1.4003 0.52766-2.1512 0.73737-3.3824 0.9809-1.2244 0.24354-1.8468 0.29766-2.7533 0.23677-0.91326-0.0609-1.2853-0.16912-1.7859-0.54119-0.5006-0.3653-0.67649-0.64266-0.72384-1.2921-0.0473-0.64942 0.0474-1.1027 0.4803-1.9618 0.43295-0.8659 0.85914-1.4071 1.6912-2.3474 0.83208-0.93355 1.4206-1.4815 2.4759-2.3406 1.0553-0.86591 1.7453-1.3192 2.8142-1.9618s1.6777-0.89296 2.5368-1.2718c0.85914-0.37883 1.265-0.48707 1.7656-0.62913 0.50059-0.1353 0.64943-0.16912 0.74413-0.0676 0.0879 0.0947 0.0338 0.23-0.29089 0.56148-0.33148 0.33148-0.59531 0.62913-1.3394 1.1027-0.7509 0.48031-1.2583 0.76443-2.4015 1.2786s-1.8874 0.77796-3.3148 1.2988c-1.4274 0.51413-2.2662 0.80502-3.8289 1.2988-1.5627 0.48707-2.4353 0.73737-3.998 1.1636-1.5627 0.41942-2.388 0.62236-3.8154 0.96061-1.4342 0.33824-2.1174 0.49383-3.3486 0.7306-1.2244 0.23677-1.8198 0.30442-2.8006 0.44648-0.9809 0.14207-1.4477 0.14883-2.0836 0.26383-0.63589 0.12177-0.81854 0.16236-1.0891 0.33148-0.2706 0.16235-0.25707 0.33148-0.2706 0.49384-0.0136 0.16235 0.19618 0.33824 0.20971 0.31117 0.0136-0.0203-0.0879-0.41942-0.1353-0.42618" opacity=".74024" style="mix-blend-mode:normal"/></g></svg>
