<?xml version="1.0" encoding="UTF-8" standalone="no"?>
<svg
   xmlns:dc="http://purl.org/dc/elements/1.1/"
   xmlns:cc="http://creativecommons.org/ns#"
   xmlns:rdf="http://www.w3.org/1999/02/22-rdf-syntax-ns#"
   xmlns:svg="http://www.w3.org/2000/svg"
   xmlns="http://www.w3.org/2000/svg"
   id="svg8"
   version="1.1"
   viewBox="0 0 508.00001 285.75001"
   height="1080"
   width="1920">
  <title
     id="title4490">1920x1080</title>
  <defs
     id="defs2" />
  <metadata
     id="metadata5">
    <rdf:RDF>
      <cc:Work
         rdf:about="">
        <dc:format>image/svg+xml</dc:format>
        <dc:type
           rdf:resource="http://purl.org/dc/dcmitype/StillImage" />
        <dc:title>1920x1080</dc:title>
        <cc:license
           rdf:resource="http://artlibre.org/licence/lal" />
        <dc:publisher>
          <cc:Agent>
            <dc:title>brontosaurusrex</dc:title>
          </cc:Agent>
        </dc:publisher>
      </cc:Work>
      <cc:License
         rdf:about="http://artlibre.org/licence/lal">
        <cc:permits
           rdf:resource="http://creativecommons.org/ns#Reproduction" />
        <cc:permits
           rdf:resource="http://creativecommons.org/ns#Distribution" />
        <cc:permits
           rdf:resource="http://creativecommons.org/ns#DerivativeWorks" />
        <cc:requires
           rdf:resource="http://creativecommons.org/ns#ShareAlike" />
        <cc:requires
           rdf:resource="http://creativecommons.org/ns#Notice" />
        <cc:requires
           rdf:resource="http://creativecommons.org/ns#Attribution" />
      </cc:License>
    </rdf:RDF>
  </metadata>
  <g
     transform="translate(0,-11.249979)"
     id="layer1">
    <path
       id="path4498"
       d="m 169.94454,86.413095 v 58.329255 58.32978 l 72.53563,0.26716 72.53614,0.26717 -6.64714,5.13871 c -3.65578,2.8261 -6.81129,5.25608 -7.01249,5.40018 -0.20107,0.14426 0.90931,1.93407 2.46755,3.97702 1.55823,2.04294 3.25867,3.7145 3.77858,3.7145 1.83974,0 31.31482,-24.1608 30.43328,-24.94628 -0.49231,-0.43868 -7.54941,-6.01175 -15.68224,-12.38425 l -14.7867,-11.58638 -3.21996,3.88452 -3.21996,3.884 2.44223,2.08359 c 1.34307,1.14592 4.52356,3.82048 7.06831,5.94331 l 4.6271,3.85971 -62.24271,0.0465 c -34.23357,0.0257 -62.24323,-0.15683 -62.24323,-0.40566 0,-0.64653 48.62206,-39.13249 49.43884,-39.13249 0.37289,0 3.44603,1.87963 6.82904,4.177 l 6.15105,4.17701 35.97403,-23.44922 c 19.78556,-12.89688 36.2116,-23.4487 36.50217,-23.4487 0.29088,0 0.52865,10.54758 0.52865,23.43888 v 23.43837 h 5.20898 5.20847 V 123.9152 86.413095 h -83.33755 z m 10.27896,10.416937 h 72.98986 72.98935 v 2.442229 c 0,2.065529 -5.62113,6.083269 -36.43861,26.043369 -20.04121,12.98042 -36.56562,23.5735 -36.72075,23.5381 -0.1552,-0.0344 -16.45491,-10.57671 -36.22157,-23.42751 -29.91488,-19.44839 -35.99415,-23.80331 -36.26859,-25.980326 z m 0.13849,17.642848 2.43189,1.33532 c 7.03565,3.86342 47.52234,30.61317 47.30461,31.25443 -0.14016,0.41302 -11.20075,9.43732 -24.57886,20.05355 -13.37806,10.61624 -24.51107,19.30218 -24.74061,19.30218 -0.22927,0 -0.41703,-16.18803 -0.41703,-35.973 z m 81.4586,79.11559 h 1.66398 c 1.6247,0 2.19263,0.81899 2.19263,2.58899 0,0.81895 -0.14501,1.47929 -0.55449,1.88877 -0.0396,0.0396 -0.0663,0.0658 -0.10593,0.10542 0.38303,0.40945 0.56844,0.95128 0.56844,1.63814 v 2.20555 c 0,0.26419 -0.21177,0.47594 -0.47594,0.47594 h -0.36949 c -0.26418,0 -0.47594,-0.21175 -0.47594,-0.47594 v -2.20555 c 0,-0.66044 -0.36976,-1.03042 -1.01699,-1.03042 h -0.59428 v 3.23597 c 0,0.26419 -0.21153,0.47594 -0.46251,0.47594 h -0.36948 c -0.26418,0 -0.47594,-0.21175 -0.47594,-0.47594 v -7.95145 c 0,-0.26418 0.21176,-0.47542 0.47594,-0.47542 z m 17.51728,0 h 1.66398 c 1.6247,0 2.19263,0.81899 2.19263,2.58899 0,0.81895 -0.14501,1.47929 -0.55449,1.88877 l -0.10594,0.10542 c 0.38306,0.40944 0.56844,0.95128 0.56844,1.63814 v 2.20555 c 0,0.26419 -0.21176,0.47594 -0.47594,0.47594 h -0.36948 c -0.26418,0 -0.47594,-0.21175 -0.47594,-0.47594 v -2.20555 c 0,-0.66044 -0.36976,-1.03042 -1.017,-1.03042 h -0.59427 v 3.23597 c 0,0.26419 -0.21154,0.47594 -0.46251,0.47594 h -0.36948 c -0.26419,0 -0.47543,-0.21175 -0.47543,-0.47594 v -7.95145 c 0,-0.26418 0.21124,-0.47542 0.47543,-0.47542 z m 16.61397,0 h 1.6645 c 1.6247,0 2.19263,0.81899 2.19263,2.58899 0,0.81895 -0.14501,1.47929 -0.55449,1.88877 l -0.10594,0.10542 c 0.38306,0.40947 0.56793,0.95128 0.56793,1.63814 v 2.20555 c 0,0.26419 -0.21125,0.47594 -0.47543,0.47594 h -0.37 c -0.26418,0 -0.47542,-0.21175 -0.47542,-0.47594 v -2.20555 c 0,-0.66044 -0.36976,-1.03042 -1.01699,-1.03042 h -0.59428 v 3.23597 c 0,0.26419 -0.21154,0.47594 -0.46251,0.47594 h -0.37 c -0.26418,0 -0.47542,-0.21175 -0.47542,-0.47594 v -7.95145 c 0,-0.26418 0.21124,-0.47542 0.47542,-0.47542 z m 15.22646,0 h 1.6645 c 1.62469,0 2.19263,0.81899 2.19263,2.58899 0,0.81895 -0.14553,1.47929 -0.55501,1.88877 -0.0396,0.0396 -0.0658,0.0658 -0.10541,0.10542 0.38305,0.40947 0.56792,0.95128 0.56792,1.63814 v 2.20555 c 0,0.26419 -0.21125,0.47594 -0.47542,0.47594 h -0.37001 c -0.26418,0 -0.47542,-0.21175 -0.47542,-0.47594 v -2.20555 c 0,-0.66044 -0.36976,-1.03042 -1.01699,-1.03042 h -0.59428 v 3.23597 c 0,0.26419 -0.21154,0.47594 -0.46251,0.47594 h -0.37 c -0.26418,0 -0.47542,-0.21175 -0.47542,-0.47594 v -7.95145 c 0,-0.26418 0.21124,-0.47542 0.47542,-0.47542 z m -59.277,0.0129 h 1.3472 c 1.58507,0 2.32492,0.89819 2.32492,2.61534 v 3.67213 c 0,1.71716 -0.73985,2.61535 -2.32492,2.61535 h -1.3472 c -0.26418,0 -0.47543,-0.21125 -0.47543,-0.47543 v -7.95197 c 0,-0.26418 0.21125,-0.47542 0.47543,-0.47542 z m 5.22293,0 h 2.85358 c 0.26417,0 0.47542,0.21124 0.47542,0.47542 v 0.35709 c 0,0.26417 -0.21125,0.47542 -0.47542,0.47542 h -2.02107 v 2.48305 h 1.66398 c 0.26419,0 0.47594,0.21125 0.47594,0.47543 v 0.35708 c 0,0.26418 -0.21175,0.47542 -0.47594,0.47542 h -1.66398 v 2.49649 h 2.02107 c 0.26417,0 0.47542,0.21125 0.47542,0.47542 v 0.35657 c 0,0.26418 -0.21125,0.47543 -0.47542,0.47543 h -2.85358 c -0.26417,0 -0.47542,-0.21125 -0.47542,-0.47543 v -7.95197 c 0,-0.26418 0.21125,-0.47542 0.47542,-0.47542 z m 12.67933,0 h 2.85306 c 0.26416,0 0.47542,0.21124 0.47542,0.47542 v 0.35709 c 0,0.26417 -0.21126,0.47542 -0.47542,0.47542 h -2.00763 v 2.48305 h 1.4795 c 0.26417,0 0.47542,0.21125 0.47542,0.47543 v 0.35708 c 0,0.26418 -0.21125,0.47542 -0.47542,0.47542 h -1.4795 v 3.32848 c 0,0.26418 -0.22446,0.47543 -0.47542,0.47543 h -0.37001 c -0.26417,0 -0.47542,-0.21125 -0.47542,-0.47543 v -7.95197 c 0,-0.26418 0.21125,-0.47542 0.47542,-0.47542 z m 5.84564,0 c 1.45298,0 2.16628,0.89854 2.16628,2.57607 v 3.73776 c 0,1.0435 -0.2773,1.65137 -0.68678,2.06085 -0.4359,0.42269 -0.99077,0.52814 -1.4795,0.52814 -0.47552,0 -1.03016,-0.10545 -1.46606,-0.52814 -0.40947,-0.40948 -0.70021,-1.01735 -0.70021,-2.06085 v -3.73776 c 0,-1.66432 0.7265,-2.57607 2.16627,-2.57607 z m 8.87233,0 h 0.38292 c 0.22455,0 0.43582,0.17181 0.47543,0.39636 l 0.60771,4.00234 0.68678,-4.01526 c 0.0396,-0.21134 0.25116,-0.38344 0.4625,-0.38344 h 0.29043 c 0.21134,0 0.42289,0.1721 0.4625,0.38344 l 0.67334,3.9889 0.5948,-3.97598 c 0.0264,-0.22455 0.25087,-0.39636 0.47542,-0.39636 h 0.38292 c 0.2906,0 0.51503,0.25097 0.47543,0.54157 l -1.26814,7.96489 c -0.0396,0.21134 -0.25088,0.39634 -0.47543,0.39636 h -0.30385 c -0.21135,0 -0.42238,-0.17158 -0.46199,-0.38293 l -0.70022,-4.21369 -0.71313,4.21369 c -0.0396,0.21135 -0.25116,0.38292 -0.4625,0.38293 h -0.29043 c -0.22455,0 -0.42289,-0.18502 -0.4625,-0.39636 l -1.29449,-7.96489 c -0.0396,-0.2906 0.15871,-0.54157 0.4625,-0.54157 z m 7.84862,0 h 0.29093 c 0.19814,0 0.42239,0.17187 0.46199,0.37 l 1.82315,7.95197 c 0.066,0.30381 -0.14549,0.58085 -0.46251,0.58085 h -0.38292 c -0.19813,0 -0.40967,-0.17136 -0.4625,-0.36949 l -0.44907,-2.06086 h -1.34721 l -0.4625,2.06086 c -0.0528,0.19813 -0.26385,0.36948 -0.46199,0.36949 h -0.38292 c -0.31701,0 -0.52855,-0.26413 -0.46251,-0.56793 l 0.63407,-2.80034 1.202,-5.16455 c 0.0528,-0.19813 0.26385,-0.37 0.46199,-0.37 z m 8.85785,0 h 1.34772 c 1.58507,0 2.32441,0.89819 2.32441,2.61534 v 3.67213 c 0,1.71716 -0.73934,2.61535 -2.32441,2.61535 H 301.228 c -0.26418,0 -0.47542,-0.21125 -0.47542,-0.47543 v -7.95197 c 0,-0.26418 0.21124,-0.47542 0.47542,-0.47542 z m 5.22346,0 h 2.85305 c 0.26418,0 0.47543,0.21124 0.47543,0.47542 v 0.35709 c 0,0.26417 -0.21125,0.47542 -0.47543,0.47542 h -2.02106 v 2.48305 h 1.6645 c 0.26417,0 0.47542,0.21125 0.47542,0.47543 v 0.35708 c 0,0.26418 -0.21125,0.47542 -0.47542,0.47542 h -1.6645 v 2.49649 h 2.02106 c 0.26418,0 0.47543,0.21125 0.47543,0.47542 v 0.35657 c 0,0.26418 -0.21125,0.47543 -0.47543,0.47543 h -2.85305 c -0.26418,0 -0.47543,-0.21125 -0.47543,-0.47543 v -7.95197 c 0,-0.26418 0.21125,-0.47542 0.47543,-0.47542 z m -53.71817,1.30793 v 6.28747 h 0.51521 c 0.70007,0 0.99064,-0.42293 0.99064,-1.30793 v -3.67212 c 0,-0.885 -0.29057,-1.30741 -0.99064,-1.30741 z m 9.91929,0 v 2.53576 h 0.59428 c 0.7397,0 1.12293,-0.36941 1.12293,-1.26762 0,-0.89821 -0.19835,-1.26814 -0.88522,-1.26814 z m 12.99662,0 c -0.58119,0 -0.84542,0.40956 -0.84542,1.26814 v 3.73776 c 0,0.87179 0.27744,1.28157 0.84542,1.28157 0.55477,0 0.84543,-0.38337 0.84543,-1.28157 v -3.73776 c 0,-0.885 -0.27744,-1.26814 -0.84543,-1.26814 z m 4.52066,0 v 2.53576 h 0.59427 c 0.73971,0 1.12293,-0.36941 1.12293,-1.26762 0,-0.89821 -0.19835,-1.26814 -0.88521,-1.26814 z m 16.61449,0 v 2.53576 h 0.59428 c 0.73969,0 1.12293,-0.36941 1.12293,-1.26762 0,-0.89821 -0.19836,-1.26814 -0.88522,-1.26814 z m 5.27616,0 v 6.28747 h 0.51521 c 0.70008,0 0.99064,-0.42293 0.99064,-1.30793 v -3.67212 c 0,-0.885 -0.29056,-1.30741 -0.99064,-1.30741 z m 9.9503,0 v 2.53576 h 0.59428 c 0.7397,0 1.12241,-0.36941 1.12241,-1.26762 0,-0.89821 -0.19784,-1.26814 -0.8847,-1.26814 z m -19.49494,1.74356 -0.37,2.11357 h 0.73949 c -0.1453,-0.63403 -0.11851,-0.99081 -0.36949,-2.11357 z"
       style="fill:#ccff00;stroke-width:1.04172134" />
    <g
       transform="matrix(0.39845188,0,0,0.39845188,192.67639,112.32954)"
       id="text4516"
       style="font-style:normal;font-weight:normal;font-size:33.15061188px;line-height:4.31648588px;font-family:sans-serif;letter-spacing:0px;word-spacing:0px;fill:#ccff00;fill-opacity:1;stroke:none;stroke-width:0.17265947px;stroke-linecap:butt;stroke-linejoin:miter;stroke-opacity:1"
       aria-label="der forwardeer" />
  </g>
</svg>
