<?xml version="1.0" encoding="UTF-8" standalone="no"?>
<svg
   xmlns:dc="http://purl.org/dc/elements/1.1/"
   xmlns:cc="http://creativecommons.org/ns#"
   xmlns:rdf="http://www.w3.org/1999/02/22-rdf-syntax-ns#"
   xmlns:svg="http://www.w3.org/2000/svg"
   xmlns="http://www.w3.org/2000/svg"
   id="svg8"
   version="1.1"
   viewBox="0 0 508.00001 285.75001"
   height="1080"
   width="1920">
  <title
     id="title4490">1920x1080</title>
  <defs
     id="defs2" />
  <metadata
     id="metadata5">
    <rdf:RDF>
      <cc:Work
         rdf:about="">
        <dc:format>image/svg+xml</dc:format>
        <dc:type
           rdf:resource="http://purl.org/dc/dcmitype/StillImage" />
        <dc:title>1920x1080</dc:title>
        <cc:license
           rdf:resource="http://artlibre.org/licence/lal" />
        <dc:publisher>
          <cc:Agent>
            <dc:title>brontosaurusrex</dc:title>
          </cc:Agent>
        </dc:publisher>
      </cc:Work>
      <cc:License
         rdf:about="http://artlibre.org/licence/lal">
        <cc:permits
           rdf:resource="http://creativecommons.org/ns#Reproduction" />
        <cc:permits
           rdf:resource="http://creativecommons.org/ns#Distribution" />
        <cc:permits
           rdf:resource="http://creativecommons.org/ns#DerivativeWorks" />
        <cc:requires
           rdf:resource="http://creativecommons.org/ns#ShareAlike" />
        <cc:requires
           rdf:resource="http://creativecommons.org/ns#Notice" />
        <cc:requires
           rdf:resource="http://creativecommons.org/ns#Attribution" />
      </cc:License>
    </rdf:RDF>
  </metadata>
  <g
     transform="translate(0,-11.249979)"
     id="layer1">
    <path
       id="path4498"
       d="m 326.32512,213.64645 c -1.55824,-2.04295 -2.66861,-3.83249 -2.46754,-3.97675 0.2012,-0.1441 3.35672,-2.5745 7.0125,-5.4006 l 6.64684,-5.13834 -72.53573,-0.26733 -72.53569,-0.26734 V 140.26642 81.937102 h 83.33771 83.33768 v 37.501968 37.502 h -5.20858 -5.20862 v -23.43875 c 0,-12.89131 -0.23781,-23.43874 -0.52869,-23.43874 -0.29057,0 -16.71686,10.55201 -36.50242,23.4489 l -35.97378,23.44887 -6.15099,-4.17703 c -3.38301,-2.29737 -6.45605,-4.17703 -6.82894,-4.17703 -0.81678,0 -49.43897,38.48631 -49.43897,39.13284 0,0.24883 28.0093,0.43152 62.24287,0.40577 l 62.24283,-0.0469 -4.62678,-3.85965 c -2.54474,-2.12283 -5.72569,-4.79722 -7.06876,-5.94314 l -2.44198,-2.08342 3.2199,-3.8843 3.21989,-3.8843 14.78692,11.5864 c 8.13283,6.3725 15.18981,11.94531 15.68212,12.38399 0.88154,0.78548 -28.59363,24.94619 -30.43337,24.94619 -0.51991,0 -2.22019,-1.6715 -3.77842,-3.71444 z m -98.30449,-51.00634 c 13.37811,-10.61623 24.43853,-19.64012 24.57869,-20.05314 0.21773,-0.64125 -40.26908,-27.39109 -47.30472,-31.25451 l -2.4319,-1.33542 v 35.97267 c 0,19.78497 0.1878,35.97267 0.41707,35.97267 0.22954,0 11.3628,-8.686 24.74086,-19.30227 z m 84.24454,-41.80049 c 30.81748,-19.9601 36.43852,-23.977516 36.43852,-26.043043 v -2.44226 H 275.714 202.72431 l 0.32954,2.61545 c 0.27443,2.177017 6.35415,6.532143 36.26903,25.980533 19.76666,12.8508 36.06634,23.39322 36.22154,23.42759 0.15513,0.0354 16.67946,-10.55785 36.72067,-23.53827 z"
       style="fill:#ccff00;stroke-width:1.04172134" />
    <g
       id="text4516"
       style="font-style:normal;font-weight:normal;font-size:33.15061188px;line-height:4.31648588px;font-family:sans-serif;letter-spacing:0px;word-spacing:0px;fill:#ccff00;fill-opacity:1;stroke:none;stroke-width:0.17265947px;stroke-linecap:butt;stroke-linejoin:miter;stroke-opacity:1"
       aria-label="der forwardeer">
      <path
         id="path4546"
         style="font-style:normal;font-variant:normal;font-weight:900;font-stretch:normal;font-family:'Ostrich Sans';-inkscape-font-specification:'Ostrich Sans Heavy';fill:#ccff00;stroke-width:0.17265947px"
         d="m 152.01851,226.31287 c 3.97807,0 5.8345,-2.25425 5.8345,-6.56382 v -9.21588 c 0,-4.30957 -1.85643,-6.56382 -5.8345,-6.56382 h -3.38137 c -0.66301,0 -1.19342,0.53041 -1.19342,1.19343 v 19.95666 c 0,0.66302 0.53041,1.19343 1.19342,1.19343 z m 0,-19.06161 c 1.75698,0 2.48629,1.06082 2.48629,3.28191 v 9.21588 c 0,2.22109 -0.72931,3.28191 -2.48629,3.28191 h -1.29288 v -15.7797 z" />
      <path
         id="path4548"
         style="font-style:normal;font-variant:normal;font-weight:900;font-stretch:normal;font-family:'Ostrich Sans';-inkscape-font-specification:'Ostrich Sans Heavy';fill:#ccff00;stroke-width:0.17265947px"
         d="m 161.74614,203.96935 c -0.66301,0 -1.19342,0.53041 -1.19342,1.19343 v 19.95666 c 0,0.66302 0.53041,1.19343 1.19342,1.19343 h 7.16053 c 0.66301,0 1.19342,-0.53041 1.19342,-1.19343 v -0.89506 c 0,-0.66301 -0.53041,-1.19342 -1.19342,-1.19342 h -5.07204 v -6.26547 h 4.17697 c 0.66302,0 1.19343,-0.53041 1.19343,-1.19342 V 214.677 c 0,-0.66301 -0.53041,-1.19342 -1.19343,-1.19342 h -4.17697 v -6.23232 h 5.07204 c 0.66301,0 1.19342,-0.53041 1.19342,-1.19342 v -0.89506 c 0,-0.66302 -0.53041,-1.19343 -1.19342,-1.19343 z" />
      <path
         id="path4550"
         style="font-style:normal;font-variant:normal;font-weight:900;font-stretch:normal;font-family:'Ostrich Sans';-inkscape-font-specification:'Ostrich Sans Heavy';fill:#ccff00;stroke-width:0.17265947px"
         d="m 182.97962,219.55014 c 0,-1.72383 -0.46411,-3.08301 -1.42547,-4.11067 0.0995,-0.0995 0.16575,-0.16576 0.2652,-0.26521 1.02767,-1.02767 1.39233,-2.6852 1.39233,-4.74054 0,-4.44218 -1.42548,-6.49752 -5.50301,-6.49752 h -4.17697 c -0.66301,0 -1.19342,0.53041 -1.19342,1.19343 v 19.95666 c 0,0.66302 0.53041,1.19343 1.19342,1.19343 h 0.92821 c 0.62987,0 1.16028,-0.53041 1.16028,-1.19343 v -8.1219 h 1.49177 c 1.62438,0 2.5526,0.92822 2.5526,2.58575 v 5.53615 c 0,0.66302 0.53041,1.19343 1.19342,1.19343 h 0.92822 c 0.66301,0 1.19342,-0.53041 1.19342,-1.19343 z m -7.35943,-12.29888 h 2.08848 c 1.72384,0 2.2211,0.92822 2.2211,3.18246 0,2.25424 -0.96137,3.18246 -2.81781,3.18246 h -1.49177 z" />
      <path
         id="path4552"
         style="font-style:normal;font-variant:normal;font-weight:900;font-stretch:normal;font-family:'Ostrich Sans';-inkscape-font-specification:'Ostrich Sans Heavy';fill:#ccff00;stroke-width:0.17265947px"
         d="m 193.5671,203.96935 c -0.66301,0 -1.19342,0.53041 -1.19342,1.19343 v 19.95666 c 0,0.66302 0.53041,1.19343 1.19342,1.19343 h 0.92822 c 0.62986,0 1.19342,-0.53041 1.19342,-1.19343 v -8.35395 h 3.71287 c 0.66301,0 1.19342,-0.53041 1.19342,-1.19342 V 214.677 c 0,-0.66301 -0.53041,-1.19342 -1.19342,-1.19342 h -3.71287 v -6.23232 h 5.03889 c 0.66301,0 1.19342,-0.53041 1.19342,-1.19342 v -0.89506 c 0,-0.66302 -0.53041,-1.19343 -1.19342,-1.19343 z" />
      <path
         id="path4554"
         style="font-style:normal;font-variant:normal;font-weight:900;font-stretch:normal;font-family:'Ostrich Sans';-inkscape-font-specification:'Ostrich Sans Heavy';fill:#ccff00;stroke-width:0.17265947px"
         d="m 202.8011,219.81535 c 0,2.61889 0.72931,4.14382 1.75698,5.17149 1.09397,1.06082 2.4863,1.32603 3.67972,1.32603 1.22657,0 2.6189,-0.26521 3.71287,-1.32603 1.02767,-1.02767 1.72383,-2.5526 1.72383,-5.17149 v -9.38163 c 0,-4.21012 -1.79013,-6.46437 -5.4367,-6.46437 -3.61342,0 -5.4367,2.2874 -5.4367,6.46437 z m 3.31506,-9.38163 c 0,-2.15479 0.66301,-3.18246 2.12164,-3.18246 1.42548,0 2.12164,0.96137 2.12164,3.18246 v 9.38163 c 0,2.25424 -0.72932,3.21561 -2.12164,3.21561 -1.42548,0 -2.12164,-1.02767 -2.12164,-3.21561 z" />
      <path
         id="path4556"
         style="font-style:normal;font-variant:normal;font-weight:900;font-stretch:normal;font-family:'Ostrich Sans';-inkscape-font-specification:'Ostrich Sans Heavy';fill:#ccff00;stroke-width:0.17265947px"
         d="m 226.94303,219.55014 c 0,-1.72383 -0.46411,-3.08301 -1.42548,-4.11067 0.0995,-0.0995 0.16576,-0.16576 0.26521,-0.26521 1.02767,-1.02767 1.39232,-2.6852 1.39232,-4.74054 0,-4.44218 -1.42547,-6.49752 -5.503,-6.49752 h -4.17697 c -0.66302,0 -1.19343,0.53041 -1.19343,1.19343 v 19.95666 c 0,0.66302 0.53041,1.19343 1.19343,1.19343 h 0.92821 c 0.62986,0 1.16027,-0.53041 1.16027,-1.19343 v -8.1219 h 1.49178 c 1.62438,0 2.5526,0.92822 2.5526,2.58575 v 5.53615 c 0,0.66302 0.53041,1.19343 1.19342,1.19343 h 0.92822 c 0.66301,0 1.19342,-0.53041 1.19342,-1.19343 z m -7.35944,-12.29888 h 2.08849 c 1.72383,0 2.22109,0.92822 2.22109,3.18246 0,2.25424 -0.96136,3.18246 -2.8178,3.18246 h -1.49178 z" />
      <path
         id="path4558"
         style="font-style:normal;font-variant:normal;font-weight:900;font-stretch:normal;font-family:'Ostrich Sans';-inkscape-font-specification:'Ostrich Sans Heavy';fill:#ccff00;stroke-width:0.17265947px"
         d="m 238.95806,204.93072 c -0.0994,-0.53041 -0.62986,-0.96137 -1.16027,-0.96137 h -0.72932 c -0.53041,0 -1.06082,0.43096 -1.16027,0.96137 l -1.72383,10.07779 -1.52493,-10.04464 c -0.0994,-0.56356 -0.62986,-0.99452 -1.19342,-0.99452 h -0.96137 c -0.76246,0 -1.25972,0.62987 -1.16027,1.35918 l 3.24876,19.98982 c 0.0994,0.53041 0.59671,0.99452 1.16027,0.99452 h 0.72932 c 0.53041,0 1.06081,-0.43096 1.16027,-0.96137 l 1.79013,-10.57505 1.75698,10.57505 c 0.0994,0.53041 0.62986,0.96137 1.16027,0.96137 h 0.76247 c 0.56356,0 1.09397,-0.46411 1.19342,-0.99452 l 3.18246,-19.98982 c 0.0994,-0.72931 -0.46411,-1.35918 -1.19342,-1.35918 h -0.96137 c -0.56356,0 -1.12712,0.43096 -1.19342,0.99452 l -1.49178,9.97834 z" />
      <path
         id="path4560"
         style="font-style:normal;font-variant:normal;font-weight:900;font-stretch:normal;font-family:'Ostrich Sans';-inkscape-font-specification:'Ostrich Sans Heavy';fill:#ccff00;stroke-width:0.17265947px"
         d="m 253.38583,225.38465 c 0.1326,0.49726 0.66301,0.92822 1.16027,0.92822 h 0.96136 c 0.79562,0 1.32603,-0.69617 1.16028,-1.45863 l -4.57479,-19.95667 c -0.0994,-0.49726 -0.66301,-0.92822 -1.16027,-0.92822 h -0.72931 c -0.49726,0 -1.02767,0.43096 -1.16027,0.92822 l -3.01671,12.96189 -1.59123,7.02793 c -0.16575,0.76246 0.36466,1.42548 1.16027,1.42548 h 0.96137 c 0.49726,0 1.02767,-0.43096 1.16027,-0.92822 l 1.16027,-5.1715 h 3.38136 z m -2.81781,-13.7575 c 0.62987,2.8178 0.56356,3.71286 0.92822,5.30409 h -1.85643 z" />
      <path
         id="path4562"
         style="font-style:normal;font-variant:normal;font-weight:900;font-stretch:normal;font-family:'Ostrich Sans';-inkscape-font-specification:'Ostrich Sans Heavy';fill:#ccff00;stroke-width:0.17265947px"
         d="m 268.64028,219.55014 c 0,-1.72383 -0.46411,-3.08301 -1.42548,-4.11067 0.0995,-0.0995 0.16576,-0.16576 0.26521,-0.26521 1.02767,-1.02767 1.39232,-2.6852 1.39232,-4.74054 0,-4.44218 -1.42547,-6.49752 -5.503,-6.49752 h -4.17697 c -0.66302,0 -1.19343,0.53041 -1.19343,1.19343 v 19.95666 c 0,0.66302 0.53041,1.19343 1.19343,1.19343 h 0.92821 c 0.62986,0 1.16027,-0.53041 1.16027,-1.19343 v -8.1219 h 1.49178 c 1.62438,0 2.5526,0.92822 2.5526,2.58575 v 5.53615 c 0,0.66302 0.53041,1.19343 1.19342,1.19343 h 0.92822 c 0.66301,0 1.19342,-0.53041 1.19342,-1.19343 z m -7.35944,-12.29888 h 2.08849 c 1.72383,0 2.22109,0.92822 2.22109,3.18246 0,2.25424 -0.96136,3.18246 -2.8178,3.18246 h -1.49178 z" />
      <path
         id="path4564"
         style="font-style:normal;font-variant:normal;font-weight:900;font-stretch:normal;font-family:'Ostrich Sans';-inkscape-font-specification:'Ostrich Sans Heavy';fill:#ccff00;stroke-width:0.17265947px"
         d="m 275.81532,226.31287 c 3.97807,0 5.83451,-2.25425 5.83451,-6.56382 v -9.21588 c 0,-4.30957 -1.85644,-6.56382 -5.83451,-6.56382 h -3.38136 c -0.66302,0 -1.19343,0.53041 -1.19343,1.19343 v 19.95666 c 0,0.66302 0.53041,1.19343 1.19343,1.19343 z m 0,-19.06161 c 1.75698,0 2.48629,1.06082 2.48629,3.28191 v 9.21588 c 0,2.22109 -0.72931,3.28191 -2.48629,3.28191 h -1.29287 v -15.7797 z" />
      <path
         id="path4566"
         style="font-style:normal;font-variant:normal;font-weight:900;font-stretch:normal;font-family:'Ostrich Sans';-inkscape-font-specification:'Ostrich Sans Heavy';fill:#ccff00;stroke-width:0.17265947px"
         d="m 285.54296,203.96935 c -0.66302,0 -1.19343,0.53041 -1.19343,1.19343 v 19.95666 c 0,0.66302 0.53041,1.19343 1.19343,1.19343 h 7.16053 c 0.66301,0 1.19342,-0.53041 1.19342,-1.19343 v -0.89506 c 0,-0.66301 -0.53041,-1.19342 -1.19342,-1.19342 h -5.07205 v -6.26547 h 4.17698 c 0.66301,0 1.19342,-0.53041 1.19342,-1.19342 V 214.677 c 0,-0.66301 -0.53041,-1.19342 -1.19342,-1.19342 h -4.17698 v -6.23232 h 5.07205 c 0.66301,0 1.19342,-0.53041 1.19342,-1.19342 v -0.89506 c 0,-0.66302 -0.53041,-1.19343 -1.19342,-1.19343 z" />
      <path
         id="path4570"
         style="font-style:normal;font-variant:normal;font-weight:900;font-stretch:normal;font-family:'Ostrich Sans';-inkscape-font-specification:'Ostrich Sans Heavy';fill:#ccff00;stroke-width:0.17265947px"
         d="m 306.85402,219.55014 c 0,-1.72383 -0.46411,-3.08301 -1.42547,-4.11067 0.0995,-0.0995 0.16575,-0.16576 0.2652,-0.26521 1.02767,-1.02767 1.39233,-2.6852 1.39233,-4.74054 0,-4.44218 -1.42548,-6.49752 -5.503,-6.49752 h -4.17698 c -0.66301,0 -1.19342,0.53041 -1.19342,1.19343 v 19.95666 c 0,0.66302 0.53041,1.19343 1.19342,1.19343 h 0.92822 c 0.62986,0 1.16027,-0.53041 1.16027,-1.19343 v -8.1219 h 1.49177 c 1.62438,0 2.5526,0.92822 2.5526,2.58575 v 5.53615 c 0,0.66302 0.53041,1.19343 1.19342,1.19343 h 0.92822 c 0.66301,0 1.19342,-0.53041 1.19342,-1.19343 z m -7.35943,-12.29888 h 2.08849 c 1.72383,0 2.22109,0.92822 2.22109,3.18246 0,2.25424 -0.96137,3.18246 -2.81781,3.18246 h -1.49177 z" />
    </g>
  </g>
</svg>
