<svg version="1.1" xmlns="http://www.w3.org/2000/svg" viewBox="0 0 1102.3556080404544 354.2525835677982" width="1102.3556080404544" height="354.2525835677982">
  <!-- svg-source:excalidraw -->
  
  <defs>
    <style>
      @font-face {
        font-family: "Virgil";
        src: url("https://excalidraw.com/Virgil.woff2");
      }
      @font-face {
        font-family: "Cascadia";
        src: url("https://excalidraw.com/Cascadia.woff2");
      }
    </style>
  </defs>
  <g stroke-linecap="round" transform="translate(763.3556080404544 10) rotate(0 164.5 166.5)"><path d="M0.64 -0.05 C102.78 -1.89, 202.78 -4.28, 331.43 -0.54 M1.07 1.21 C101.14 -2.42, 200.46 -1.8, 328.84 0.39 M326.87 -0.59 C331.95 114.49, 332.91 233.17, 329.52 334.35 M327.79 0.88 C325.87 83.99, 323.85 167.27, 328.87 333.25 M327.15 334.2 C217.14 336.37, 110.66 336.59, -1.69 333.66 M328.13 332.83 C220.86 331.77, 114.86 331.96, -0.3 334.14 M0.85 334.65 C-6.21 220.58, -4.78 108.55, -2.53 0.08 M-0.38 332.88 C-2.71 201.71, -0.54 71, 1.2 0.22" stroke="#000000" stroke-width="4" fill="none"></path></g><g stroke-linecap="round" transform="translate(403.35560804045434 10) rotate(0 161.5 164.5)"><path d="M73.87 27.83 C85.35 17.43, 103.12 12.78, 118.22 8.01 C133.33 3.24, 148.66 -0.95, 164.49 -0.8 C180.32 -0.64, 197.3 3.31, 213.2 8.93 C229.09 14.54, 246.7 22.66, 259.88 32.89 C273.06 43.12, 283.02 56.55, 292.3 70.3 C301.57 84.05, 310.73 99.61, 315.53 115.37 C320.33 131.13, 321.04 148.46, 321.09 164.85 C321.13 181.24, 320.2 198.04, 315.81 213.69 C311.41 229.34, 304.4 245.29, 294.7 258.76 C285 272.22, 271.1 284.19, 257.63 294.5 C244.15 304.81, 229.04 314.77, 213.85 320.63 C198.66 326.49, 182.64 329.36, 166.46 329.66 C150.28 329.96, 132.41 327.48, 116.76 322.42 C101.11 317.37, 85.94 308.46, 72.56 299.33 C59.19 290.19, 46.87 280.1, 36.5 267.61 C26.14 255.12, 16.54 240.39, 10.39 224.37 C4.25 208.36, 0.41 188.48, -0.35 171.52 C-1.12 154.57, 1.88 138.26, 5.8 122.64 C9.73 107.01, 14.87 91.84, 23.2 77.77 C31.52 63.71, 46.42 47.01, 55.74 38.27 C65.06 29.53, 74.52 27.8, 79.12 25.35 C83.71 22.9, 81.94 21.36, 83.31 23.58 M31.74 65.57 C38.73 51.6, 52.36 41.6, 65.96 31.89 C79.55 22.18, 97.25 13.07, 113.31 7.33 C129.37 1.59, 145.96 -3.01, 162.31 -2.53 C178.66 -2.06, 195.74 4.3, 211.39 10.19 C227.04 16.07, 243.28 22.95, 256.21 32.76 C269.13 42.56, 279.05 56.02, 288.96 69.01 C298.87 81.99, 309.61 95.04, 315.68 110.67 C321.74 126.31, 324.79 146.37, 325.37 162.83 C325.94 179.28, 323.84 193.74, 319.14 209.4 C314.43 225.06, 306.42 242.78, 297.12 256.76 C287.82 270.75, 276.47 282.6, 263.32 293.29 C250.18 303.97, 233.89 315.36, 218.28 320.88 C202.66 326.41, 186.23 325.72, 169.62 326.44 C153.01 327.16, 134.13 329.28, 118.62 325.2 C103.11 321.12, 89.8 310.81, 76.57 301.96 C63.34 293.12, 50.44 284.34, 39.24 272.14 C28.04 259.94, 15.71 244.24, 9.37 228.74 C3.02 213.25, 2.23 195.96, 1.17 179.17 C0.12 162.38, -0.81 144.92, 3.02 127.98 C6.85 111.04, 19.63 88.17, 24.17 77.55 C28.72 66.93, 28.15 66.45, 30.29 64.28 C32.43 62.1, 34.45 62.5, 37 64.52" stroke="#000000" stroke-width="4" fill="none"></path></g><g stroke-linecap="round"><g transform="translate(15.355608040454285 332) rotate(0 95.26351638160645 -156.7657296255231)"><path d="M1.46 2.65 C33.04 -50.18, 159.57 -263.54, 191.73 -316.18 M-1.2 1.62 C29.78 -50.81, 156.82 -259.51, 189.34 -312.65" stroke="#000000" stroke-width="4" fill="none"></path></g></g><g stroke-linecap="round"><g transform="translate(213.35560804045434 14) rotate(0 99.68224836193025 163.8809026166797)"><path d="M2.05 -2.49 C35.24 53.01, 166.77 274.79, 199.64 330.25 M-0.27 2.33 C32.46 57.32, 164.32 272.52, 197.21 326.46" stroke="#000000" stroke-width="4" fill="none"></path></g></g><g stroke-linecap="round"><g transform="translate(11.355608040454342 338) rotate(0 206.3504195649406 2.5389814065857763)"><path d="M-1.36 0.76 C159.01 2.75, 315.33 6.27, 413.88 4.03 M0.6 0.08 C155.06 4.57, 308.03 6.38, 414.06 3.84" stroke="#000000" stroke-width="4" fill="none"></path></g></g><g transform="translate(315.35560804045434 296) rotate(0 30 22.5)"><text x="0" y="32" font-family="Virgil, Segoe UI Emoji" font-size="36px" fill="#000000" text-anchor="start" style="white-space: pre;" direction="ltr">abc</text></g></svg>