<?xml version="1.0" encoding="UTF-8" standalone="no"?>
<!-- Created with Inkscape (http://www.inkscape.org/) -->

<svg
   xmlns:dc="http://purl.org/dc/elements/1.1/"
   xmlns:cc="http://creativecommons.org/ns#"
   xmlns:rdf="http://www.w3.org/1999/02/22-rdf-syntax-ns#"
   xmlns:svg="http://www.w3.org/2000/svg"
   xmlns="http://www.w3.org/2000/svg"
   xmlns:sodipodi="http://sodipodi.sourceforge.net/DTD/sodipodi-0.dtd"
   xmlns:inkscape="http://www.inkscape.org/namespaces/inkscape"
   width="297mm"
   height="210mm"
   viewBox="0 0 297 210"
   version="1.1"
   id="SVGRoot"
   inkscape:version="0.92.1 r15371"
   sodipodi:docname="mobinger2.svg">
  <sodipodi:namedview
     id="base"
     pagecolor="#ffffff"
     bordercolor="#666666"
     borderopacity="1.0"
     inkscape:pageopacity="0.0"
     inkscape:pageshadow="2"
     inkscape:zoom="1.4"
     inkscape:cx="613.03742"
     inkscape:cy="365.9415"
     inkscape:document-units="mm"
     inkscape:current-layer="layer1"
     showgrid="false"
     inkscape:window-width="1908"
     inkscape:window-height="1083"
     inkscape:window-x="6"
     inkscape:window-y="46"
     inkscape:window-maximized="1"
     inkscape:pagecheckerboard="true" />
  <defs
     id="defs4845" />
  <metadata
     id="metadata4848">
    <rdf:RDF>
      <cc:Work
         rdf:about="">
        <dc:format>image/svg+xml</dc:format>
        <dc:type
           rdf:resource="http://purl.org/dc/dcmitype/StillImage" />
        <dc:title></dc:title>
      </cc:Work>
    </rdf:RDF>
  </metadata>
  <g
     id="layer1"
     inkscape:groupmode="layer"
     inkscape:label="Layer 1">
    <path
       inkscape:connector-curvature="0"
       style="opacity:1;fill:#040404;stroke-width:0.59785891"
       d="m 149.80534,13.814192 c 1.51259,-0.03593 3.02517,-0.0068 4.53178,-0.161337 0.11354,0.263054 0.32881,0.795145 0.43642,1.064181 -0.23316,0.143543 -0.71144,0.424476 -0.9446,0.567968 1.12397,-0.01186 2.46915,0.6696 3.42572,-0.203264 l -1.91912,0.263054 c -0.018,-0.573951 -0.03,-1.141918 -0.0478,-1.715852 1.29138,0.382617 2.98332,-0.328826 4.05348,0.6696 2.52894,1.135936 5.85901,-1.273445 7.80804,1.177779 0.96853,0.245124 2.16424,-0.191317 2.96538,0.556003 1.23159,0.04779 2.09849,0.932666 3.06702,1.584332 1.08211,0.544052 2.40338,0.131528 3.44367,0.795152 2.11641,1.261484 4.44209,2.116422 6.86342,2.54688 3.20451,1.949019 5.30299,5.135607 8.07706,7.592808 2.75015,2.224034 5.6737,4.460027 7.16235,7.778144 1.55443,0.615795 2.55286,2.086527 3.8263,3.114845 2.792,3.634982 7.04876,6.247625 8.61515,10.737545 0.91473,2.487094 2.05066,4.932338 2.46916,7.568896 2.92352,6.217732 4.40023,12.997452 6.90526,19.406502 0.48427,2.36752 0.26904,4.81874 0.44841,7.22811 -1.01638,1.77564 -0.62776,3.85021 -0.59188,5.79325 -0.37665,0.89081 -0.94462,1.79358 -0.59787,2.80396 -1.65607,0.46633 -1.10604,2.81592 -1.25549,4.17904 -0.44841,2.01478 -0.55602,4.095332 -1.07615,6.104142 -0.24512,0.0897 -0.73537,0.26903 -0.9805,0.35871 -0.005,1.14191 0,2.27784 0,3.41377 l -1.12995,0.0179 c 0.13744,-1.02233 0.26903,-2.04467 0.32883,-3.06701 -0.29893,1.26746 -0.53209,2.55884 -0.55004,3.86815 -0.60383,0.34675 -1.38104,0.45437 -1.88326,-0.13153 0.82506,-1.75771 1.44682,-3.60509 2.04468,-5.4465 0.76526,-2.22403 0.32284,-4.633402 0.93267,-6.887332 0.4723,-1.34518 1.48866,-2.49905 1.54845,-3.96978 0.31686,-3.1567 1.19572,-6.46884 -0.0239,-9.53585 0.83103,-1.955 -0.018,-4.07142 -0.24512,-6.06229 -1.41694,-6.026415 -3.55726,-11.86152 -5.03996,-17.87598 -3.09691,-7.0368 -7.34768,-13.589332 -12.7344,-19.095614 -2.21208,-2.134356 -3.96977,-4.711128 -6.28947,-6.73787 -2.99528,-1.94304 -5.60792,-4.430134 -7.95153,-7.102563 -3.36595,-2.600686 -7.50911,-3.81434 -11.46694,-5.177457 -4.75297,-1.919128 -9.63747,-4.657325 -14.94646,-3.700741 -3.62302,-0.406546 -7.2042,1.129947 -10.80332,0.197282 -3.40779,-0.179352 -6.70797,0.968537 -10.08588,1.24355 -2.45122,0.280995 -4.94429,2.469159 -7.35365,1.112018 0.6397,-0.304908 1.91911,-0.914724 2.55884,-1.219632 -1.18975,0.310887 -2.27786,0.902768 -3.40781,1.381054 0.26904,0.304909 0.556,0.591881 0.87288,0.860917 -2.97136,0.747323 -5.90685,1.841406 -8.49559,3.497475 -3.5453,1.387033 -7.37757,2.403393 -10.29513,4.986143 -3.65291,3.18061 -7.41344,6.558512 -9.44019,11.042454 -0.3886,1.040274 -1.41692,2.612644 0.0239,3.26431 -0.89081,-1.070168 0.45437,-1.709877 1.07614,-2.361544 0.91473,-0.544051 0.6696,0.825047 0.54406,1.243547 -0.24512,1.171805 -0.39458,2.355565 -0.56199,3.539326 0.40655,-0.388609 1.21962,-1.159847 1.62617,-1.548456 -0.20326,1.237568 -0.41849,2.481115 -0.62774,3.724662 1.32724,-1.082125 2.97135,-1.428883 4.62743,-1.596284 2.16424,0.795153 4.77688,1.141911 6.15795,3.210503 -2.01479,-0.657646 -3.99371,-1.464755 -6.05632,-1.978914 -0.90278,0.245122 -1.74575,0.920703 -2.72624,0.699495 -1.20767,0.185338 -2.25393,0.789174 -3.14474,1.614219 0.3109,-1.112016 0.52613,-2.24197 0.65765,-3.383881 -0.23914,0.25708 -0.7234,0.771239 -0.96256,1.034297 -0.59785,-0.269037 -1.18973,-0.532096 -1.78759,-0.789175 0.43644,-0.902766 0.837,-1.823469 1.2256,-2.750151 -1.82346,1.123975 -2.821895,3.156696 -3.174635,5.213331 0.25111,-0.310888 0.753305,-0.926682 1.004415,-1.237568 0.30491,0.203271 0.59786,0.412522 0.89081,0.63373 -0.68754,1.267461 -0.90874,2.690365 -0.98049,4.113269 l 0.58589,-0.05979 c 0.0239,-0.424479 0.0717,-1.273438 0.0897,-1.697918 0.26903,0.215229 0.8071,0.645688 1.07018,0.860917 -0.0239,0.424479 -0.0658,1.267459 -0.0896,1.69194 1.07614,-0.01203 2.15827,-0.02989 3.23442,-0.04783 -0.74734,-1.02234 -1.60228,-1.201697 -2.56482,-0.538074 0.10168,-0.340779 0.31087,-1.022339 0.41252,-1.363118 0.29892,-0.02391 0.89678,-0.07772 1.20169,-0.107614 1.09408,2.265885 4.41819,2.391435 5.02201,4.944294 -1.20767,-0.789175 -2.28382,-1.799557 -3.5991,-2.409372 -1.60824,-0.113597 -3.44367,0.478286 -4.67526,-0.920703 -0.49024,1.016359 -1.05223,2.140337 -2.289805,2.337631 1.03429,-1.739772 0.63971,-3.634986 0.87287,-5.518241 -0.84896,0.920703 -1.72184,1.823471 -2.79798,2.475136 0.67558,0.155439 1.35714,0.29295 2.04467,0.406544 -0.77721,0.872875 -1.73976,1.237568 -2.87569,1.082125 -0.95657,1.35116 -2.46318,2.319691 -3.2105,3.802383 -0.281,3.007231 -1.458773,5.870973 -3.246378,8.298283 1.375077,1.285393 0.41851,3.437685 -1.064182,4.161098 0.358704,-0.890812 1.183761,-1.674009 0.860917,-2.726237 -1.26148,1.05821 -2.188169,2.439265 -3.318122,3.623026 -0.394581,0.06575 -1.177778,0.197292 -1.572377,0.263054 0.394599,0.496225 0.783197,0.992449 1.177796,1.488669 l 0.980479,-1.14789 c -0.02983,0.789174 -0.08372,2.361545 -0.107615,3.150715 -0.771232,-0.6696 -1.393007,-2.48111 -2.564803,-1.26746 -0.08372,0.31686 -0.251107,0.95059 -0.340791,1.26746 0.352739,-0.14946 1.046251,-0.45437 1.393007,-0.60384 0.107615,0.82504 0.21523,1.65009 0.376651,2.46916 -0.101683,0.53209 -0.203264,1.07017 -0.304896,1.60824 l 0.854934,0.0717 c -0.09558,0.49622 -0.281001,1.48867 -0.376651,1.98489 l 0.364686,-0.006 c 0.227194,-1.32725 0.472318,-2.79201 1.620202,-3.65292 -1.094076,2.51698 0.65167,5.00407 0.04779,7.51508 -0.340774,-0.0717 -1.010374,-0.22718 -1.345183,-0.29893 0.05372,-0.18533 0.161507,-0.54405 0.221212,-0.72938 -0.681565,0.0538 -1.410955,0.14349 -1.996853,-0.28698 l 0.394599,1.0343 c -0.281002,-0.0179 -0.854952,-0.0598 -1.141918,-0.0837 0.890811,0.53807 1.333217,1.41692 1.249532,2.4572 -0.08372,1.30333 1.584324,1.18376 2.445241,1.2555 -0.286983,1.10604 -1.028321,2.18219 -0.502213,3.37791 -0.400563,0.0359 -0.795144,0.006 -1.177778,-0.1136 -0.119647,0.65765 -0.239142,1.32127 -0.358721,1.99087 0.878864,-0.63373 1.847395,-1.18376 2.983331,-0.99244 1.387025,-0.75928 3.132771,-0.62775 4.418164,0.26903 -0.795148,0.17339 -1.596272,0.32883 -2.397416,0.46036 -0.573933,3.14473 -0.430458,6.31339 0.197299,9.434212 0.07169,-0.50818 0.125579,-1.02234 0.167438,-1.530522 4.077409,2.014792 7.305849,5.488342 9.643474,9.338562 1.33322,1.35116 3.52139,1.58432 5.32692,1.39899 0.67559,-0.72341 1.22561,-1.54248 1.88924,-2.26589 0.48427,-0.837 0.62774,-1.79956 0.74134,-2.74417 l 0.68755,-0.0478 c 0.0119,0.46036 0.0478,1.38106 0.0657,1.84141 0.0778,-0.7533 0.13744,-1.50062 0.16151,-2.24795 l -1.10604,0.52014 c 0.69949,-1.50063 0.81905,-2.94147 -0.68157,-3.94587 l 1.6202,0.19131 c -0.0419,-0.76526 -1.44681,-1.793572 -1.31528,-0.23914 l -1.76966,-0.26907 c 0.281,-0.34078 0.55004,-0.69351 0.80711,-1.05223 -0.51416,-0.388612 -1.03431,-0.771242 -1.56041,-1.147892 0.25707,0.25708 0.78319,0.76526 1.04026,1.02234 -0.70546,0.448392 -1.36909,0.980492 -1.58432,1.835422 -0.0119,-0.40654 -0.03,-1.21963 -0.0359,-1.62617 -0.31686,0.0658 -0.94462,0.19131 -1.2555,0.2511 0,-0.28099 0,-0.837002 0,-1.118002 l -1.02832,0.0239 c 0.0598,-0.43046 0.19132,-1.30333 0.25709,-1.73379 -0.30491,0.87885 -0.42447,2.07457 -1.67401,1.75771 -0.81309,-0.79515 -1.309305,-1.84739 -1.387025,-2.98332 l -0.7832,-0.1136 c 0.31686,0.84897 0.60981,1.70988 0.87885,2.58275 -1.15985,-1.64411 -3.05505,-2.39143 -4.44808,-3.78444 0.98648,-0.78319 1.12399,-1.96098 0.8669,-3.1268 -0.27502,0.80113 -0.45437,1.63215 -0.54405,2.48111 h -0.4723 c 0.19131,-1.87727 -0.43645,-3.629 -1.02234,-5.37475 -0.52015,-0.63971 -1.5365,-1.16582 -1.1718,-2.13435 0.43046,-1.66803 -0.26307,-3.21051 -0.8669,-4.72309 -0.269034,0.38263 -0.59786,0.68753 -0.986476,0.90874 -1.626167,-1.97293 0.257089,-4.99212 -1.829448,-6.61232 -0.837004,-0.77123 -1.106041,-1.91315 -1.470727,-2.94744 0.567968,0.52612 1.100058,1.09408 1.739763,1.53649 0.597863,-2.12837 1.339217,-4.316527 3.090948,-5.787261 0.13744,-1.279421 1.10006,-2.2061 1.55443,-3.365946 l 0.49024,0.01793 c -0.2511,1.094081 -0.88484,2.020765 -1.51258,2.935489 0.42447,-0.0059 1.27941,-0.01793 1.70388,-0.02389 -1.31528,0.789174 -2.34957,1.901192 -3.324083,3.055063 0.125579,0.197292 0.376655,0.597856 0.502195,0.79515 -1.428884,1.745745 0.119648,4.005655 0.807108,5.751405 0.281,0.0837 0.83701,0.25708 1.11801,0.34675 -0.37067,0.24513 -1.11203,0.72939 -1.47671,0.97451 0.5859,-0.0179 1.75173,-0.0478 2.33762,-0.0657 0.74134,0.71743 1.49464,1.69194 2.61265,1.73977 2.41535,-0.0299 4.824715,-0.1136 7.234095,-0.28697 4.47795,-0.1973 7.74227,4.24479 12.20828,3.86216 -0.94462,-4.05946 0.84895,-8.83635 -1.89523,-12.393613 0.29894,-0.02991 0.8968,-0.08968 1.19574,-0.119579 -0.43046,-1.291375 -0.95061,-2.546878 -1.47672,-3.796401 -1.18974,0.860917 -2.60666,-0.550031 -2.09849,-1.823471 0.51417,0.406546 0.90276,0.920702 1.15985,1.536499 0.84297,0.02991 1.66804,0.149458 2.22404,0.860917 0.28697,-1.685961 0.39458,-3.587154 1.59629,-4.914399 1.12995,-1.267463 1.28539,-3.019191 1.71585,-4.58558 0.96853,2.971361 -1.24953,5.595959 -1.97294,8.334154 -0.10762,2.319691 -0.0658,4.681233 0.66363,6.905273 -0.84897,2.26588 0.14355,4.64536 -0.19131,6.97701 -0.26306,1.27942 0.50818,2.54688 1.47072,3.33008 2.09251,0.72938 4.41819,-0.37068 6.41504,0.68753 -1.20768,0.38861 -2.39144,0.83102 -3.55727,1.32725 -0.0119,-1.3691 -0.10761,-1.33921 -0.281,0.0897 -1.12995,-0.2212 -2.21804,-0.59188 -3.2344,-1.12397 -0.23318,0.0957 -0.68755,0.29295 -0.91473,0.38861 -0.0418,0.44839 -0.12557,1.3392 -0.16743,1.78162 0.20924,1.6202 2.12239,2.12837 2.63655,3.63498 -0.55602,-0.32882 -1.10005,-0.6696 -1.63216,-1.01636 -1.1718,0.31686 -2.34359,0.67558 -3.35997,1.35714 -0.32285,0.89081 -0.71145,1.7577 -0.93266,2.68439 -0.018,1.36312 1.08812,2.32566 1.399,3.58715 -0.41254,-0.10163 -1.24356,-0.31687 -1.65607,-0.42448 0.62176,2.582752 1.08211,5.398672 3.4078,7.060712 -1.27943,0.34676 -3.22845,0.0897 -3.59315,1.75771 -0.81906,1.11799 -0.0598,2.26588 0.3109,3.38388 0.46633,0.34676 0.93863,0.69351 1.41094,1.04027 0.0119,-1.87129 -0.14354,-3.73064 -0.29296,-5.58998 l 0.76528,0.0359 c 0.0837,2.78602 0.50219,5.54813 0.71144,8.32817 0.26904,1.99686 -0.28697,4.05948 0.55004,5.97261 2.18817,0.3647 4.04153,-0.68753 5.32094,-2.38545 0.11354,-1.18376 0.18533,-2.36154 0.14947,-3.5453 -0.40654,-1.0343 0.89081,-1.09409 1.45878,-1.4528 0.68755,-2.24795 1.43487,-4.54373 2.83984,-6.46286 l 0.95059,-0.0359 c -0.0837,0.28697 -0.24513,0.85494 -0.32883,1.14191 0.23318,-0.14349 0.69949,-0.43644 0.93267,-0.57993 0.0958,0.86092 0.0958,1.71586 -0.005,2.56482 -0.71745,0.81309 -1.59629,1.51856 -1.99686,2.57079 -0.51416,0.23915 -1.02832,0.47231 -1.54248,0.71743 0.41253,-0.12554 1.23757,-0.37067 1.6501,-0.49622 0.0359,0.5022 0.11354,1.51258 0.14947,2.01479 0.80113,-0.37665 1.59031,-0.78918 2.40937,-1.118 0.9506,-0.46633 2.35557,0.13751 2.89962,-0.99843 -1.04028,-0.17936 -2.08653,-0.32284 -3.10887,-0.57394 1.08213,-0.34078 2.2061,-0.45437 3.3241,-0.60982 0.21523,-0.86091 0.50818,-1.7039 0.89678,-2.50502 -0.31686,-0.14948 -0.94462,-0.44242 -1.26148,-0.59188 0.38263,-0.16741 1.15387,-0.50819 1.5365,-0.67559 -0.0778,-0.47828 -0.23914,-1.43486 -0.31686,-1.90716 -0.96255,-0.9506 -2.20012,-1.39302 -3.52737,-1.4827 -0.23914,0.24513 -0.72341,0.72341 -0.96255,0.96256 -0.18533,-1.12398 -0.34676,-2.25393 -0.28698,-3.39584 0.86091,0.46633 1.7039,0.94461 2.55287,1.4229 1.90717,-0.7533 3.60509,0.21523 5.02201,1.44084 -0.0537,-0.49622 -0.16151,-1.48867 -0.21523,-1.97891 0.61579,0.91472 1.30334,1.76966 2.02675,2.60069 1.94901,0.32882 3.55724,1.7577 5.38669,2.511 2.27187,1.955 4.93832,3.35399 7.35965,5.09376 l 0.10762,-0.37665 c -0.30492,-0.31687 -0.90278,-0.95658 -1.20169,-1.27942 2.69036,1.60226 5.97261,2.28382 8.98582,1.18376 1.04625,-0.37067 1.50062,-1.42888 1.97292,-2.33763 0.83102,0.91473 1.56041,-0.37067 2.27187,-0.78319 1.01636,-1.02832 2.43328,-1.40497 3.84423,-1.38703 -0.005,-1.72782 2.27187,-0.70548 3.30616,-1.3691 1.32127,1.71585 1.93108,3.77847 1.87727,5.93674 -0.0956,0.22718 -0.28098,0.67558 -0.37665,0.89679 -0.40655,-1.73977 -1.47073,-3.18062 -2.47513,-4.61548 -2.00282,-0.0957 -3.70074,1.16583 -5.57802,1.67999 -1.84739,2.26588 -3.85021,4.68722 -6.64819,5.79325 -3.07898,0.21523 -6.40307,-0.89679 -8.5195,-3.20452 -2.0925,-2.27785 -5.36876,-2.42133 -8.17273,-3.18659 -1.66204,-0.47829 -3.32408,0.30491 -4.98615,0.4185 -0.78916,1.09408 -1.71585,2.1224 -1.83541,3.54531 -2.06262,0.6696 -4.28067,1.02831 -6.0324,2.39741 -0.78918,0.66362 -1.78162,0.51416 -2.71428,0.41252 -0.47231,1.21964 -0.40654,2.56483 -0.80114,3.80836 -1.18376,2.03871 -2.40936,4.48395 -5.09973,4.58558 2.30773,1.55443 4.96224,2.28382 7.68248,2.63058 -1.96098,-0.52611 -0.25707,-1.51855 0.71744,-2.05066 0.31088,0.54405 0.57992,1.11202 0.83102,1.68597 0.93266,-1.1479 2.17621,0.31686 3.2942,0.40057 -0.67557,-0.66364 -1.56638,-0.92071 -2.46916,-1.08213 -0.81905,-0.11355 -0.11354,-1.02832 -0.12558,-1.49464 -0.37066,0 -1.02832,0.29891 -1.07016,-0.29297 0.35274,-2.27185 -0.70548,-4.44806 -0.36469,-6.70796 0.81308,2.10446 1.15387,4.37034 1.91912,6.46882 1.29736,1.35117 3.31812,1.72183 4.96822,2.53493 0.10168,0.23914 0.29893,0.71146 0.40056,0.9506 -0.56797,-0.03 -1.7039,-0.0837 -2.26589,-0.10762 0.89082,0.35274 1.81152,0.62178 2.72625,0.90874 0.67558,-0.53209 1.47671,-0.17338 2.13434,0.18534 -0.0837,0.26305 -0.25109,0.78918 -0.33479,1.04625 -2.61265,0.57395 -5.27312,0.84299 -7.95153,0.70548 -0.92668,0.17338 -1.41692,-0.17339 -1.47073,-1.05224 -0.0419,0.2272 -0.12558,0.68157 -0.17339,0.90875 -2.15229,-0.52611 -4.36435,-0.80711 -6.48677,-1.44682 0.17339,0.24512 0.51416,0.72939 0.68755,0.97451 -1.6501,-0.6696 -3.41377,-0.56198 -5.14757,-0.53807 0.51416,-0.31686 1.0343,-0.62776 1.56041,-0.92071 l -1.43485,0.72939 -0.018,-2.00283 c -0.18535,0.75928 -0.3109,1.52455 -0.2272,2.3197 -1.23757,-0.79515 -2.52895,-1.48866 -3.88011,-2.06261 -2.23001,-2.19415 -4.4421,-4.43611 -6.82156,-6.48079 0.7533,1.94305 2.64254,3.09093 3.67084,4.86657 -2.35556,-1.16583 -3.95783,-3.44367 -4.97418,-5.80521 -1.39301,-2.76212 -3.36595,-5.14159 -5.237245,-7.58085 2.959405,1.18376 4.525795,4.08935 6.779725,6.15795 1.36311,1.77564 3.14473,3.13875 4.80079,4.63339 1.24954,1.17182 3.14476,1.22562 4.3584,2.46319 1.12399,-0.33481 2.21807,-0.75928 3.33009,-1.1479 -1.57836,-1.16581 -3.0192,-2.74417 -3.32411,-4.75297 -0.56199,-1.72782 0.3647,-3.45562 0.65765,-5.14158 -1.85336,-0.99245 -2.91158,-2.80994 -3.62304,-4.71712 -0.21522,0.34677 -0.6397,1.04028 -0.85493,1.39302 -0.19728,-0.6696 -0.33479,-1.35714 -0.46632,-2.0387 -1.60227,0.63971 -1.2615,2.48709 -2.18817,3.62302 -1.75771,0.54406 -3.70075,0.46036 -5.27311,-0.55601 -0.018,0.35872 -0.0658,1.07017 -0.0837,1.42889 -1.22562,-1.69194 -2.917565,-2.98332 -4.615485,-4.15512 -0.98048,0.17935 -0.95059,1.5365 -1.10006,2.30176 0.40655,1.94902 1.18974,3.82629 2.34361,5.44649 0.723415,1.05822 1.996855,1.88326 1.685955,3.35997 l 0.6995,-0.17935 c -0.57992,0.74133 -1.817485,1.69194 0.17937,2.43327 -0.41253,0.0478 -0.83102,0.0537 -1.24355,0.0837 -0.17935,0.80115 0.14354,1.67999 0.0956,2.50503 0.13151,-0.007 0.40655,-0.018 0.53807,-0.0239 -0.005,-0.56199 -0.0119,-1.68596 -0.018,-2.24794 0.31686,0.23315 0.94462,0.69949 1.2555,0.93265 0,1.15387 1.25551,3.43172 -0.77722,3.46758 l 0.0478,-1.3392 c -1.48865,0.50818 0.0478,3.13875 -1.15984,3.37193 -0.992455,-2.2898 -1.674005,-4.68722 -2.325675,-7.07267 -0.57395,2.60666 0.24513,5.12962 1.34519,7.46725 0.23316,0.17339 0.711445,0.50818 0.950585,0.68156 0.23916,0.57394 0.55004,1.10006 0.93267,1.59031 -0.0957,-0.40654 -0.281,-1.22562 -0.37067,-1.63815 0.71743,-1.09407 -0.14947,-3.12679 1.52454,-3.41377 -0.13151,0.65167 -0.38862,1.94903 -0.52015,2.6007 0.50222,1.41094 0.97452,2.8458 1.63815,4.19697 0.31088,-1.27943 0.32285,-2.6007 -0.37665,-3.77848 l 1.12397,0.63374 c 0.80113,-1.14192 1.24355,-2.42731 1.05224,-3.83826 0.20326,0.0897 0.60981,0.26305 0.81307,0.35273 0.0896,0.36471 0.26307,1.09408 0.34677,1.4528 1.98489,1.39899 2.97135,3.73064 3.51541,6.01447 2.08652,3.1507 4.73504,5.92477 6.95908,8.99777 -2.0387,0.87288 -2.06262,-2.07457 -3.53334,-2.71428 0.1913,0.75929 0.38859,1.51259 0.57393,2.27784 0.74732,0.63374 1.50063,1.26149 2.28383,1.85337 0.40654,-0.27501 0.81309,-0.55602 1.21365,-0.837 -0.0539,2.8757 3.49747,2.07457 5.1655,3.4317 2.00284,1.3691 4.44808,1.87728 6.37916,3.38388 1.24355,-0.26904 2.46915,0.13151 3.68281,0.38263 l -0.24513,0.75331 c 2.77407,-0.93864 5.13562,1.45878 7.82599,1.66802 4.11923,0.57993 8.31024,0.63374 12.41154,1.41096 1.77564,0.3886 3.55128,-0.23318 5.32692,-0.32285 6.45089,-0.3647 13.11105,-1.54248 18.62929,-5.10572 1.27343,-1.11799 2.91158,-1.59628 4.48992,-2.10445 2.71428,-0.8131 4.63341,-3.12083 7.29986,-4.03555 4.86657,-5.63184 11.34736,-9.91849 15.03017,-16.52483 0.60383,-1.11202 1.28539,-2.28381 1.23158,-3.59314 2.09251,-2.41534 4.6932,-4.6872 5.6976,-7.78411 0.20328,0.28697 0.60982,0.86091 0.81309,1.14789 -1.05822,-1.76369 0.37067,-3.55727 0.83102,-5.27312 0.48427,-0.98647 0.34676,-2.52894 1.55443,-2.94745 0.63374,0.91473 -0.0239,2.02077 -0.28697,2.9594 0.6995,-1.0044 1.01039,-2.28381 0.50818,-3.47953 0.32284,0.0957 0.96853,0.29295 1.29138,0.39458 -0.24513,1.39302 -0.19132,2.80994 -0.18534,4.21491 -0.26305,0.012 -0.79514,0.0299 -1.05821,0.0418 -0.76525,1.38105 -0.74134,2.93549 -0.84896,4.466 -1.95499,2.88766 -3.70074,6.00849 -6.42698,8.28632 -0.0239,0.31688 -0.0837,0.9506 -0.10761,1.26747 -0.33481,0.56796 -0.65765,1.15386 -0.96255,1.74574 -0.84897,1.48868 -2.20014,2.64254 -2.78005,4.29862 -0.14354,0.32881 -0.43046,0.99244 -0.57395,1.32125 -0.34676,0.0478 -1.03429,0.14355 -1.37508,0.19132 -0.99244,1.31529 -1.87727,2.73821 -3.22245,3.74858 -0.0539,2.30773 0.005,4.62145 0.0298,6.9292 0.25709,0.0119 0.75929,0.0298 1.01636,0.0418 0.17339,0.35871 0.52014,1.07017 0.69353,1.42291 0.10168,1.28539 0.21523,2.57078 0.28098,3.86216 0.20328,-0.13744 0.60385,-0.4185 0.80711,-0.55601 0.84897,1.00441 1.62619,2.28981 1.05224,3.62302 0.45437,2.25393 1.24355,4.4421 1.96097,6.63027 -0.33479,-1.83543 -0.64569,-3.68879 -1.3093,-5.44052 0.26305,-0.26306 0.53209,-0.52015 0.80711,-0.77722 0.20924,0.43046 0.6397,1.30332 0.85493,1.73378 0.54406,0.81908 0.38263,1.81152 0.44839,2.73821 l 0.80711,-0.0239 c 0.1615,2.55883 0.40654,5.11766 0.35872,7.68248 -1.23757,0.007 -2.47514,0.007 -3.7127,0.0119 -0.83103,-3.89206 -1.94903,-7.70641 -3.28225,-11.46096 -1.04027,-4.57362 -2.06859,-9.24291 -4.2149,-13.43389 -1.36313,0.87884 -2.56482,1.98489 -3.53933,3.29421 -0.64569,-0.22121 -1.39899,-0.38862 -1.70389,0.41849 l -0.35274,-0.0539 c 0.0658,1.82346 -2.36155,1.87131 -3.40182,2.98331 -0.38264,0.0298 -1.15985,0.0897 -1.54248,0.11965 v 0.49623 c -1.09408,-0.22121 -2.88167,0.38263 -2.51698,1.79357 -1.34519,0.43046 -2.74418,0.59188 -4.13718,0.73537 -0.44243,0.55601 -0.87288,1.12397 -1.29138,1.69792 l -0.54405,-0.13151 0.11964,0.78917 -0.79516,-0.23914 0.14948,0.84896 c -0.3109,-0.0539 -0.92671,-0.17348 -1.23759,-0.23327 l 0.0478,0.70547 c -0.35274,0.11965 -1.05821,0.35872 -1.41095,0.48427 -0.55002,0.26305 -1.10006,0.52014 -1.65606,0.77123 v 0.6696 c -0.30492,-0.0837 -0.90874,-0.24511 -1.21366,-0.32881 l 0.0239,0.92667 c -0.31088,-0.0897 -0.93864,-0.27501 -1.24952,-0.36468 l 0.0956,0.86091 c -0.82505,-0.03 -1.64411,-0.0658 -2.46318,-0.0956 l 0.13744,0.71743 c -1.8414,-0.0539 -3.67683,0.0298 -5.51226,-0.0778 l 0.10168,0.66362 c -3.61703,-0.0658 -7.24007,-0.0658 -10.85711,0.0119 l 0.0956,-0.65165 -1.30334,-0.0419 c -0.71743,2.64252 -0.40057,5.38669 -0.35871,8.08304 -1.5903,0.0419 -3.17463,0.0419 -4.75897,0.007 -0.03,-0.78918 0.1973,-1.47671 0.68156,-2.05066 0.0658,-2.89363 0.005,-5.78728 0.0478,-8.68091 -2.18817,0.26904 -4.71712,-0.67558 -6.64221,0.65167 0.0119,-0.31686 0.0239,-0.94461 0.03,-1.25551 -0.38263,-0.007 -1.1419,-0.0239 -1.52453,-0.03 -1.90121,-1.32127 -4.61548,-0.33479 -6.83951,-0.58589 0.0239,-0.31088 0.0717,-0.92668 0.0956,-1.23757 -0.31088,0.0119 -0.92669,0.0298 -1.23757,0.0359 -0.018,-0.28697 -0.0598,-0.87287 -0.0778,-1.15985 -1.27942,-0.0837 -2.66047,0.27502 -3.84423,-0.37067 -0.82505,-0.55002 -1.63216,-1.11799 -2.45122,-1.67401 -0.9267,-0.49023 -2.14034,-0.11355 -2.92352,-0.89678 -0.37665,-0.018 -1.13594,-0.0539 -1.51259,-0.0717 -0.007,-0.26904 -0.018,-0.80113 -0.0239,-1.07017 -0.89081,-0.31089 -1.77564,-0.63972 -2.6844,-0.87288 -0.5859,-0.34676 -1.21962,-0.51416 -1.90717,-0.51416 -0.53209,-0.57393 -1.06418,-1.1419 -1.58432,-1.72183 -0.84297,-0.0119 -1.68596,-0.0119 -2.53493,-0.0119 -2.17022,-2.12838 -3.91597,-4.61546 -5.79324,-6.98896 -0.89081,-0.93266 -1.24953,-2.4333 -2.64852,-2.75614 -1.171805,-2.99526 -3.939905,-4.96222 -5.452475,-7.79009 0.3587,-2.33165 -2.869733,-2.24198 -3.240402,-4.3285 -0.448388,-1.12995 -1.267463,-2.03273 -2.128379,-2.86375 -0.07779,-0.63971 -0.239142,-1.24952 -0.496214,-1.83541 -0.161506,-0.29297 -0.490248,-0.87887 -0.65167,-1.17182 0.02983,-0.7234 -0.203281,-1.32126 -0.699495,-1.78759 -0.02983,-0.31687 -0.09558,-0.9506 -0.125578,-1.26746 -0.544056,-1.26747 -1.118006,-2.4871 -1.901203,-3.63499 -0.514143,-1.04027 -1.189726,-1.98489 -1.841396,-2.93549 -0.615792,-1.10005 -0.304913,-2.40339 -0.424476,-3.5991 -0.735372,-0.59188 -0.4783,-1.59031 -0.639722,-2.39742 -0.741337,-0.5859 -0.424476,-1.596282 -0.579916,-2.397422 -0.992443,-0.89678 -0.352738,-2.41534 -0.561985,-3.58117 -1.38106,-1.17778 0.209247,-3.44965 -1.058216,-4.74102 -0.167438,-0.81309 0.125579,-1.8414 -0.663618,-2.40937 -0.143542,-3.39584 0.167439,-6.81559 -0.125578,-10.1935 l -0.448389,-0.55002 c 0.01186,-1.69793 -0.01796,-3.39585 -0.0068,-5.093761 0.699495,-1.584329 2.379469,-2.696347 2.493066,-4.519813 0.526109,-0.962556 1.034304,-1.92511 1.512587,-2.911577 0.227177,-0.735367 0.801127,-1.26148 1.315288,-1.80553 0.08965,-0.801133 -0.119647,-1.715857 0.460353,-2.385457 0.215229,-1.05821 0.68753,-2.032724 1.195708,-2.977338 0.532108,-1.381053 1.32127,-2.642538 2.516996,-3.551282 0.02389,-0.322844 0.07169,-0.968533 0.09575,-1.291377 0.80711,-0.657645 0.466319,-1.787598 0.615793,-2.678408 0.227177,0.0059 0.681565,0.01203 0.908742,0.01793 0.388615,-1.004404 1.052233,-1.853363 1.614219,-2.762109 1.656075,-0.783196 2.869715,-2.277842 3.246365,-4.071418 0.46634,-0.85494 0.77125,-1.775643 0.82506,-2.75613 0.3049,0.02989 0.91472,0.0837 1.21962,0.107614 -0.0359,-0.269036 -0.10761,-0.807109 -0.13744,-1.070167 1.47074,-0.418502 2.39742,-1.775641 3.718685,-2.493072 1.0343,-1.919128 2.67841,-3.401818 4.57362,-4.442092 2.30176,-1.261482 3.86218,-3.437688 5.69162,-5.25518 0.18534,0.04782 0.55003,0.155439 0.73536,0.203273 1.02832,-1.27344 2.05066,-2.642537 3.53335,-3.419753 0.92669,-0.436437 2.00285,-0.280995 2.92951,-0.71743 2.94147,-1.949021 6.19382,-3.56324 9.63151,-4.388285 -0.0478,-0.275015 -0.14354,-0.819067 -0.1973,-1.088103 0.33481,0.06577 0.99246,0.197294 1.32127,0.269036 l -0.30495,-0.920674 c 0.92669,-0.02391 1.90717,0.05979 2.72624,-0.472308 0.29894,-0.185336 0.89082,-0.550031 1.18975,-0.729383 0.81905,-0.02983 1.63215,-0.06576 2.45122,-0.113546 0.51416,-0.837004 1.5664,-0.466336 2.35556,-0.63374 1.19572,-0.944602 2.83386,-0.328809 4.22686,-0.520126 l 0.50818,-0.526125 c 2.40938,-0.275002 4.85462,0.125579 7.26398,-0.17337 l 0.5321,-0.472318 M 94.329775,50.349442 c 0.23914,0.17338 0.71144,0.520138 0.94462,0.693516 -0.21523,0.454372 -0.65167,1.363119 -0.87288,1.817492 0.90278,-0.771239 2.52894,-1.960977 2.30177,-3.108867 l -0.33481,-0.245123 c -0.40655,-1.972933 -1.3392,0.29893 -2.0387,0.842982 M 83.317083,75.632938 c -0.795145,-0.11958 -1.351165,1.36909 -0.328826,1.38105 0.717442,0.0299 1.303339,-1.32725 0.328826,-1.38105 m -1.620202,7.47921 c -0.107614,1.7876 1.070181,3.2942 1.895221,4.7769 -0.173387,-2.08653 -1.213656,-4.20893 -0.418494,-6.27154 0.239142,-0.72342 -0.0051,-1.96696 1.064181,-1.96696 0.143543,0.30491 0.424476,0.91472 0.567968,1.21365 l 0.567968,-0.28697 c -0.209247,-0.46035 -0.424476,-0.91472 -0.645688,-1.3691 -0.376651,0 -1.129953,-0.006 -1.506604,-0.012 l 0.04779,-1.46476 c -1.482692,1.40497 -1.375077,3.50345 -1.572376,5.38073 m 17.804228,-0.52013 c -0.22119,0.98049 -0.46033,1.96098 -0.73535,2.93548 0.60383,2.83385 2.493065,5.70358 5.291045,6.63624 -0.40654,0.31088 -0.80711,0.63373 -1.20169,0.95657 -3.144735,-1.2555 -4.448075,-4.5796 -5.470415,-7.539 -0.42448,2.18816 0.31686,4.43611 1.77564,6.09218 1.883265,3.06702 6.169915,2.98332 9.177145,1.85337 -1.62619,-0.27502 -3.28225,-0.23915 -4.92636,-0.23317 0.47828,-0.31687 0.96255,-0.62177 1.45279,-0.9207 1.21366,0.35273 3.00723,0.89081 3.75457,-0.52014 1.8115,-1.85934 3.24637,-4.18501 3.21049,-6.8694 -3.44367,-2.61264 -8.11294,-3.35997 -12.327865,-2.39143 m 16.704205,7.10256 c -0.0717,2.00283 1.79956,-0.80113 0,0 m -28.906492,4.57362 c 0.59188,-0.55601 0.759285,-1.22561 0.496213,-2.02674 -0.801127,-0.1973 -1.285392,1.76368 -0.496213,2.02674 m -1.24355,3.43171 c -0.197299,1.01038 0.04186,1.88326 0.735372,2.624602 -0.239142,-0.10761 -0.71146,-0.32284 -0.950601,-0.430462 l -0.02983,1.739772 1.171812,-0.47231 c -0.275019,0.1973 -0.819074,0.59786 -1.08811,0.80113 0.298931,0.51416 0.597862,1.04028 0.884829,1.5664 -0.621775,-0.56199 -1.853361,-1.68597 -2.469154,-2.24796 0.681565,1.54248 1.709869,2.88169 2.73819,4.20296 -1.058199,0.43643 -0.556003,1.20169 0.197299,1.60823 0.316862,1.31529 -0.316861,3.09691 0.908742,4.04153 0.621775,-2.37948 0.08965,-4.81277 -0.161337,-7.19822 l 1.082128,0.38263 c 0.23316,2.52296 -0.221211,5.09973 0.454371,7.58085 0.639705,2.50503 0.185335,5.49433 2.092503,7.50911 l 0.448403,-1.6501 c 1.29138,0.90278 -0.0119,2.33763 1.04027,3.33007 0.16151,0.71745 0.32285,1.43487 0.49025,2.1523 1.01037,-1.50661 0.51416,-3.38388 0.38262,-5.06386 -0.35871,-0.3348 -0.71743,-0.66961 -1.07615,-1.0044 0.26307,-2.236 1.14192,-6.1161 -1.817484,-6.89332 -0.257072,-3.18659 -0.173387,-6.9232 -2.528943,-9.3804 0.09575,1.11799 0.221211,2.23599 0.388616,3.34801 l -0.950602,-0.41253 c -0.538073,-1.99685 -0.346756,-4.071422 -0.155405,-6.092182 -0.448389,-0.012 -1.3392,-0.0299 -1.787606,-0.0418 m 24.799209,1.76368 c -0.43046,0.651662 -0.41851,1.309312 0.03,1.966962 0.86092,0.0957 0.81906,-2.044682 -0.03,-1.966962 M 94.036855,111.06205 c -0.0956,1.48867 -0.1973,2.9893 -0.0598,4.48394 0.80113,1.41693 2.07457,2.86973 1.59627,4.62145 -1.09407,3.18062 0.70548,6.57644 3.10888,8.64505 -0.62776,-1.67394 -1.63813,-3.37785 -1.24355,-5.24317 0.50818,-2.05064 0.65765,-4.14316 0.65167,-6.25359 -0.60981,-0.55601 -1.19571,-1.13594 -1.76966,-1.73379 0.33479,0.49024 0.66362,0.98646 0.99244,1.48268 -0.0537,0.69949 -0.1554,2.11045 -0.20924,2.80994 -1.49466,-1.57237 -2.21208,-3.8801 -2.30177,-6.03837 0.3946,0.1674 1.18974,0.51415 1.58433,0.68156 -0.43643,-0.31089 -0.90276,-0.57395 -1.39899,-0.78918 0.0598,-1.0044 -0.32285,-1.90717 -0.95059,-2.66645 m 4.65732,7.47324 c 0.46036,1.0881 0.93864,3.91597 2.499055,2.28979 -0.837,-0.75927 -1.668025,-1.52454 -2.499055,-2.28979 m 18.073285,7.96348 c 0.56797,0.32881 1.95499,0.44241 2.15229,-0.32882 -0.53808,-0.41851 -2.0626,-0.52613 -2.15229,0.32882 m -11.64629,8.69884 c 0.59188,0.38861 1.61421,2.31371 1.53649,-0.018 0.29295,0.77125 0.59787,1.5365 0.91473,2.29579 0.77721,-0.5859 2.13434,-0.36471 1.35116,1.07016 0.50817,0.57395 1.02234,1.15387 1.44682,1.79956 0.0239,-0.32883 -0.0598,-0.68155 -0.26306,-1.04626 0.0478,-0.2511 0.13745,-0.7533 0.18534,-1.0044 -0.23318,-0.46632 -0.47232,-0.93864 -0.70548,-1.40496 -1.26148,-0.51416 -1.75771,-1.81152 -2.50503,-2.83984 0.92071,-0.92667 0.35274,-1.75173 -0.38263,-2.51099 0.33481,1.1419 0.1554,2.30773 -0.0896,3.44963 l -0.62178,0.007 c -0.0419,-1.21962 -0.10168,-2.43328 -0.22118,-3.64694 -1.46477,0.75929 -0.65767,2.56483 -0.64569,3.85022 m 49.3951,21.02072 c 0.03,1.99684 1.7816,-0.90277 0,0 z"
       id="path4739" />
    <path
       inkscape:connector-curvature="0"
       style="opacity:1;fill:#040404;stroke-width:0.59785891"
       d="m 153.42836,30.877081 c 2.71429,-0.89081 5.29106,-2.397414 8.17274,-2.66645 -2.88766,1.960978 -6.79766,2.056635 -9.39834,4.513835 l -0.79515,-0.502202 c -0.018,0.424481 -0.0419,1.261482 -0.0539,1.679984 -0.22121,-0.185336 -0.66364,-0.556008 -0.89081,-0.741346 -0.83701,1.088104 -2.42133,0.651667 -3.55128,1.255505 -1.6501,0.914724 -3.53934,0.131527 -5.21335,1.01636 -2.69036,1.189739 -5.48236,-0.316865 -8.24446,0.05381 -3.03116,0.257078 -6.33732,0.926682 -9.11735,-0.687537 -3.12082,-0.615796 -6.41503,0.472308 -9.5239,-0.448395 2.63657,-0.06575 5.23725,-0.466329 7.84391,-0.825045 2.06859,-0.466331 3.95783,0.771237 5.97859,0.92668 4.57362,-0.233164 9.13528,-0.729386 13.71488,-0.657644 2.25393,-0.328822 4.62145,-0.346758 6.71397,-1.35714 0.67558,-0.328821 1.38702,-0.615794 2.15229,-0.526115 0.4723,-0.783195 1.46474,-0.71743 2.21206,-1.034297 z"
       id="path4741" />
    <path
       inkscape:connector-curvature="0"
       style="opacity:1;fill:#040404;stroke-width:0.59785891"
       d="m 134.42243,43.479947 c 3.25235,-1.877276 7.2042,-2.086526 10.87506,-1.907169 1.36311,0.08968 3.25235,-0.831024 4.2149,0.502201 -2.02675,-0.430459 -3.91597,0.544051 -5.94271,0.179358 -1.69793,0.567966 -3.78445,-0.05979 -5.21931,1.112017 -1.16583,0.17338 -2.36154,0.185337 -3.49748,0.478288 -1.60823,0.765259 -3.00126,1.937063 -4.69918,2.516985 -1.88922,0.723409 -3.08495,2.409372 -4.48394,3.77249 1.6501,-3.425732 5.20737,-5.584003 8.75266,-6.65417 z"
       id="path4743" />
    <path
       inkscape:connector-curvature="0"
       style="opacity:1;fill:#040404;stroke-width:0.59785891"
       d="m 129.98034,54.438701 c -0.1554,-1.703897 1.52454,-2.91755 2.84581,-3.676832 -0.36469,1.572368 -1.73379,2.606665 -2.84581,3.676832 z"
       id="path4747" />
    <path
       inkscape:connector-curvature="0"
       style="opacity:1;fill:#040404;stroke-width:0.59785891"
       d="m 173.57024,54.378916 c 0.65167,1.327248 1.21365,2.708301 1.60823,4.137185 0.11965,1.608237 -0.1554,3.270287 0.47829,4.806785 -0.4185,3.820318 -0.59785,7.760206 -1.75173,11.448992 -1.32126,1.97294 -2.53491,4.45405 -5.01005,5.14159 -1.45878,0.50818 -2.81593,1.23757 -4.12523,2.04468 -0.56198,0.14946 -1.12995,0.29893 -1.69792,0.43644 -0.41253,0.78917 -1.23757,1.51258 -1.01037,2.49307 0.43642,2.83983 -0.59188,5.62585 -0.26904,8.46568 0.0717,3.48552 -1.53053,7.000932 -4.43015,8.991802 -2.49904,1.63215 -5.61389,1.09408 -8.41785,1.10006 1.94305,-1.74575 4.85462,0.17935 6.98897,-1.23757 3.00126,-1.62618 5.17746,-4.884512 5.06387,-8.358072 0.30491,-2.43328 -1.72184,-4.44807 -0.99843,-6.88135 -0.73535,-1.56042 -2.31371,-2.39742 -3.93391,-2.76211 -0.98048,0.22719 -1.99087,0.26903 -2.97734,0.42448 1.74575,0.10761 3.46758,0.39459 5.14159,0.93266 -0.47828,0.38263 -0.96853,0.74732 -1.45878,1.11202 0.37665,0.0837 1.11801,0.25707 1.48868,0.34675 l -0.40655,0.89679 0.69351,-0.20925 -0.0837,1.06419 1.31528,-1.86532 c -1.00439,1.72781 0.11965,3.43769 0.0119,5.20735 -0.0359,2.49307 -0.26904,5.18942 -1.674,7.32378 -2.29578,2.618622 -6.06229,2.457192 -9.21899,2.116422 -3.61107,-0.95658 -7.29985,-3.640972 -7.44334,-7.700432 -0.72341,1.33921 -0.0239,2.75015 0.38264,4.05946 1.57235,1.82347 3.70672,2.971362 5.53616,4.483952 -2.22402,-0.72342 -4.16707,-2.08055 -5.94869,-3.563242 l -0.20925,0.0478 c 1.77564,3.467582 5.90086,3.814342 8.92603,5.619872 2.29578,1.39899 5.32692,0.68754 7.3716,-0.86091 1.9789,-1.16583 3.13279,-3.26431 5.07582,-4.483952 0.43045,-0.56796 0.98049,-0.81308 1.65009,-0.73536 -0.37665,-1.2854 1.21964,-1.96696 2.08056,-2.60069 2.42731,-0.99244 4.4959,-2.74417 7.12647,-3.23441 l -0.18533,1.41094 c 0.10168,-0.32882 0.29893,-0.98647 0.39458,-1.32126 1.04625,0.32882 2.29578,0.2511 3.19256,0.94461 0.76527,1.12995 1.34518,2.42133 1.5066,3.78445 0.46634,4.603512 -0.275,9.213002 -0.03,13.828472 l -0.60981,-0.006 c -0.32285,-2.6246 0.0897,-5.26116 0.0837,-7.89771 -0.48427,0.87287 -0.92071,1.76368 -1.31529,2.68438 -0.2272,-3.47954 2.33164,-7.072672 0.40057,-10.372852 -0.13744,-1.0343 -1.19571,-1.29138 -1.9251,-1.77564 -0.0717,0.31687 -0.20926,0.9506 -0.281,1.26746 -0.27502,-0.12554 -0.83102,-0.37067 -1.10604,-0.49025 -2.17022,0.93266 -4.36438,1.93707 -6.07424,3.61108 l 0.47828,-1.5664 c -0.56796,0.51416 -1.33321,0.95658 -1.26746,1.83543 -1.38702,-0.34078 -2.1224,1.18974 -3.00723,1.966952 -2.63057,2.44525 -4.98614,5.77532 -8.85429,6.16393 -1.73976,0.23914 -4.46002,0.6995 -5.31496,-1.24953 -0.0419,0.29893 -0.12557,0.89679 -0.16743,1.19572 -1.34519,-0.9207 -2.67842,-2.05065 -4.38829,-2.13435 0.24511,0.37665 0.73536,1.13593 0.98048,1.51258 -0.96255,-0.26306 -1.85934,-0.92668 -2.90559,-0.7533 -0.47829,-0.81309 -0.95657,-1.63216 -1.44084,-2.44524 -0.77721,-0.53808 -2.06262,-0.98647 -1.92511,-2.14034 -0.43643,0.71145 -0.90276,1.39899 -1.39899,2.06261 -0.007,-1.40497 -0.4185,-3.013202 -1.87727,-3.551282 -0.38264,0.26904 -1.14789,0.81309 -1.53052,1.088102 -0.59188,-1.554432 -1.29138,-3.078972 -2.34361,-4.382302 0.20925,-0.22719 0.62177,-0.67558 0.83102,-0.90277 -1.35116,0.53808 -1.33921,2.34959 -2.40936,3.24638 -0.56199,-0.21523 -1.12399,-0.42448 -1.68598,-0.62775 -0.14947,1.01635 -0.22119,2.05065 -0.11354,3.078972 -0.75929,-0.49025 -1.55443,-0.950602 -2.1224,-1.668032 -1.48269,0.0837 -2.94148,0.3647 -4.40023,0.62775 l -0.018,-0.80711 c 1.91315,0.13153 1.43485,-2.26588 1.97891,-3.48551 1.18376,-1.91315 2.2898,-3.91598 2.80994,-6.12806 0.37665,-1.85336 -1.0642,-3.24039 -2.33166,-4.31654 1.42889,0.012 2.86375,0.0897 4.29264,0.17338 -0.0419,0.72341 0.11965,1.38703 0.48426,1.99685 0.23316,-0.81309 -0.0419,-2.06859 1.15985,-2.22403 3.24637,-1.0642 6.05033,-3.43172 9.5777,-3.5752 5.01603,-0.40057 10.12772,0.55003 15.07203,-0.72341 0.0539,0.35273 0.1615,1.06419 0.21523,1.41692 -0.018,-0.40056 -0.0537,-1.20767 -0.0658,-1.61421 2.511,-0.28698 4.94429,-1.0343 7.46127,-1.3153 2.23599,-0.0956 3.86218,-1.76368 5.67966,-2.85178 1.4528,-0.80113 2.14034,-2.36753 2.89365,-3.754556 0.25109,0.2511 0.7533,0.759276 0.99841,1.010376 -0.17337,-0.24512 -0.51415,-0.741339 -0.68753,-0.992441 0.21522,-0.956571 0.25707,-1.919127 0.11964,-2.893634 0.80711,0.02389 1.47671,-0.0239 0.37067,-0.699495 0.44841,-2.636558 1.07615,-5.273115 1.56041,-7.921633 0.41851,-2.206099 -0.40654,-4.358391 -0.63372,-6.528618 m -10.20549,25.791601 c 0,1.97294 1.79357,-0.88483 0,0 m -15.99872,7.32976 c -1.0283,0.66362 -2.60666,0.95059 -3.0132,2.23001 -0.32285,0.0717 -0.96255,0.22121 -1.27941,0.29295 0.20924,0.31089 0.41849,0.62775 0.62775,0.94462 -2.15827,3.95782 1.11201,8.18469 4.58557,9.942392 2.59472,0.31089 5.34487,0.2511 7.79608,-0.75928 2.31969,-2.206102 3.37193,-5.584002 2.99528,-8.734722 -0.22122,-2.3436 -1.86533,-4.54373 -4.11327,-5.28507 -2.60068,-0.49025 -5.32094,0.0299 -7.5988,1.3691 z"
       id="path4749" />
    <path
       inkscape:connector-curvature="0"
       style="opacity:1;fill:#040404;stroke-width:0.59785891"
       d="m 179.07053,64.799597 c 2.32568,-2.206099 4.56765,-4.501878 6.91723,-6.684064 -1.39301,2.64254 -3.52139,4.764937 -5.17745,7.222137 -1.81152,2.79798 -0.7832,6.337302 0.77123,8.991798 2.21208,2.61264 4.2448,5.38671 6.64221,7.83793 l 0.26306,0.72341 c -2.94146,-2.11044 -4.8307,-5.36878 -7.47922,-7.83195 -1.27941,-1.90119 -3.19256,-3.503455 -3.64095,-5.85304 -0.29893,-1.644113 0.46632,-3.342034 1.70389,-4.406221 z"
       id="path4751" />
    <path
       inkscape:connector-curvature="0"
       style="opacity:1;fill:#040404;stroke-width:0.59785891"
       d="m 122.81201,66.0551 c 0.88483,0.496224 -0.56199,2.295779 -1.38703,2.074572 -0.40056,-0.878853 0.63971,-1.781623 1.38703,-2.074572 z"
       id="path4753" />
    <path
       inkscape:connector-curvature="0"
       style="opacity:1;fill:#040404;stroke-width:0.59785891"
       d="m 91.017865,83.626178 c 1.06418,-0.47232 1.79357,1.17778 1.65009,2.02674 -0.926683,-0.006 -1.231597,-1.35116 -1.65009,-2.02674 z"
       id="path4763" />
    <path
       inkscape:connector-curvature="0"
       style="opacity:1;fill:#040404;stroke-width:0.59785891"
       d="m 158.6417,86.860588 c 0.19728,0.19729 0.19728,0.19729 0,0 z"
       id="path4767" />
    <path
       inkscape:connector-curvature="0"
       style="opacity:1;fill:#040404;stroke-width:0.59785891"
       d="m 105.59366,87.589978 c 0.82506,-0.64569 1.99686,-0.21523 1.38705,0.94462 -0.1973,1.11202 -1.41096,-0.30491 -1.38705,-0.94462 z"
       id="path4769" />
    <path
       inkscape:connector-curvature="0"
       style="opacity:1;fill:#040404;stroke-width:0.59785891"
       d="m 151.68261,89.550958 c 4.36438,-0.82505 5.21335,7.48519 0.86092,7.49715 -4.16707,0.34676 -5.0818,-6.99495 -0.86092,-7.49715 m -1.54844,1.41094 c -0.45438,1.16583 -0.51416,2.39742 -0.40057,3.62901 0.68155,0.57394 1.08213,1.7876 2.11043,1.7577 1.47075,0.38861 2.18817,-1.06419 3.10888,-1.88325 -0.24512,-0.94462 -0.47828,-1.89521 -0.76527,-2.8219 -0.86091,-1.40496 -2.79199,-1.71585 -4.05347,-0.68156 z"
       id="path4771" />
    <path
       inkscape:connector-curvature="0"
       style="opacity:1;fill:#040404;stroke-width:0.59785891"
       d="m 151.50924,92.103818 c 1.70987,-0.52612 2.49905,1.18376 1.5365,2.46915 -0.59786,-0.17338 -1.18974,-0.35273 -1.78162,-0.53209 0.0598,-0.48427 0.18533,-1.4528 0.24512,-1.93706 z"
       id="path4779" />
    <path
       inkscape:connector-curvature="0"
       style="opacity:1;fill:#040404;stroke-width:0.59785891"
       d="m 116.63613,94.853968 c 0.556,-1.02832 1.10006,-2.38546 2.52296,-2.24795 -0.79514,0.68156 -1.56639,1.41094 -1.90717,2.43328 z"
       id="path4781" />
    <path
       inkscape:connector-curvature="0"
       style="opacity:1;fill:#040404;stroke-width:0.59785891"
       d="m 120.12164,93.933258 c -0.60383,1.02234 -1.33322,2.01479 -1.34518,3.27029 -1.13592,-1.23159 0.0359,-2.80396 1.34518,-3.27029 z"
       id="path4783" />
    <path
       inkscape:connector-curvature="0"
       style="opacity:1;fill:#040404;stroke-width:0.59785891"
       d="m 120.34883,97.956848 c -0.78319,-0.18533 -0.83102,-1.65009 -0.0239,-1.83542 0.92669,0.0777 0.99244,1.78759 0.0239,1.83542 z"
       id="path4785" />
    <path
       inkscape:connector-curvature="0"
       style="opacity:1;fill:#040404;stroke-width:0.59785891"
       d="m 120.02599,99.887938 c 1.82945,-0.81907 0,1.960972 0,0 z"
       id="path4791" />
    <path
       inkscape:connector-curvature="0"
       style="opacity:1;fill:#040404;stroke-width:0.59785891"
       d="m 148.08351,102.26144 c 1.27344,-0.85494 0.837,1.46475 -0.14948,0.53807 z"
       id="path4793" />
    <path
       inkscape:connector-curvature="0"
       style="opacity:1;fill:#040404;stroke-width:0.59785891"
       d="m 120.39666,104.34199 c -0.37665,-0.7832 0.72939,-1.76369 1.48269,-1.44084 0.39458,0.73536 -0.76527,1.78759 -1.48269,1.44084 z"
       id="path4795" />
    <path
       inkscape:connector-curvature="0"
       style="opacity:1;fill:#040404;stroke-width:0.59785891"
       d="m 138.7629,104.16263 c 0.40652,0.41252 0.40652,0.41252 0,0 z"
       id="path4797" />
    <path
       inkscape:connector-curvature="0"
       style="opacity:1;fill:#040404;stroke-width:0.59785891"
       d="m 91.059707,110.92441 0.681565,-0.39458 c -0.621775,2.56481 1.010393,5.31496 -0.107615,7.72433 -0.723407,-2.36752 -0.878846,-4.87852 -0.57395,-7.32975 z"
       id="path4799" />
    <path
       inkscape:connector-curvature="0"
       style="opacity:1;fill:#040404;stroke-width:0.59785891"
       d="m 164.93716,112.70603 c 0.46631,-0.65764 1.18974,-0.93864 1.98488,-0.95657 -1.84738,2.36752 -3.86216,4.62145 -6.15794,6.57047 -0.61579,0.57991 -1.08811,1.41692 -2.00284,1.54845 0.03,0.49024 0.0598,0.97451 0.0897,1.47074 -0.11354,-0.30491 -0.34077,-0.92071 -0.45437,-1.22562 -0.35274,0.22719 -1.04625,0.6696 -1.393,0.89679 0.68156,0.30492 0.97451,0.99843 0.17935,1.39899 -2.22403,1.78759 -4.39425,3.64097 -6.39111,5.67966 l 0.57992,-1.41693 c -1.30931,0.60982 -2.50503,1.76369 -4.05348,1.64411 v 0.74734 c -0.5022,-0.37665 -1.01039,-0.75929 -1.51259,-1.13594 -2.9594,0.33479 -5.72748,1.55443 -8.69885,1.84738 0.13744,-0.67558 0.26903,-1.35116 0.39459,-2.02675 l 0.77722,0.16744 c 4.3823,-2.03869 9.20105,-2.83982 13.50563,-5.0519 l -0.0837,-0.35274 c 0.49025,-0.3049 0.90873,-0.69351 1.26148,-1.15387 0.68754,-0.33479 1.37508,-0.66361 2.07457,-0.98646 -0.54405,0.556 -1.25551,0.99245 -1.48868,1.77564 -0.25109,0.16151 -0.25109,0.16151 0,0 0.69353,-0.0897 1.36909,-0.007 2.03273,0.25109 -3.22844,1.89522 -6.89332,2.83984 -10.20546,4.53776 -0.32284,0.03 -0.96255,0.0897 -1.28539,0.11965 0.73537,0.28697 1.47671,0.556 2.23001,0.80113 3.65291,-0.99843 6.69003,-3.24039 9.70923,-5.42258 -0.25708,-0.39459 -0.57395,-0.73537 -0.95657,-1.02832 0.43046,-0.1973 1.29734,-0.59188 1.7278,-0.78918 -0.43643,-0.34077 -0.87287,-0.67558 -1.31529,-1.01037 0.46035,0.14354 1.38106,0.42448 1.84141,0.56797 l -0.47231,-0.95062 c 3.26431,-1.35115 5.84706,-3.85021 8.08305,-6.51666 z"
       id="path4803" />
    <path
       inkscape:connector-curvature="0"
       style="opacity:1;fill:#040404;stroke-width:0.59785891"
       d="m 173.45066,117.82968 c 0.37665,-0.52014 0.837,-0.96255 1.38106,-1.32126 -0.63373,1.28538 -1.42889,2.48709 -2.00284,3.80238 0.59188,-0.42448 1.78162,-1.26746 2.37949,-1.69194 0.0239,0.31088 0.0657,0.93265 0.0897,1.24355 -0.18534,0.41251 -0.56199,1.23159 -0.74732,1.6441 1.57236,-0.20925 1.68595,-1.90119 1.93108,-3.13876 0.21523,0.27502 0.65167,0.82504 0.87288,1.10006 0.22718,-0.35274 0.68753,-1.0582 0.92069,-1.41692 -0.018,1.30931 -0.31686,2.65449 -1.15387,3.68879 l -0.20326,-1.4229 c -1.65608,1.44083 -2.84581,3.28821 -4.11327,5.06385 0.50818,-0.42447 1.04027,-0.81906 1.59627,-1.17179 0.8131,-0.83701 1.67401,-1.6501 2.70233,-2.23002 -0.281,0.7832 -0.6696,1.50661 -1.16583,2.18219 0.30492,0.0239 0.90874,0.0717 1.21366,0.0956 -0.84895,1.72184 -1.18376,4.03555 -2.92951,5.09375 0.30492,-1.79357 0.9506,-3.49747 2.0088,-4.98017 -1.112,0.84299 -1.40495,2.36156 -2.46317,3.26432 -1.27943,1.0343 -1.61422,2.78601 -2.91158,3.80835 0.0239,-0.5859 0.0837,-1.75171 0.11355,-2.33762 -0.86092,2.3735 -3.16865,3.70075 -4.20295,5.92478 -0.26306,-0.41253 -0.52014,-0.82504 -0.77722,-1.23757 0.18534,-0.26305 0.55004,-0.78918 0.72939,-1.05223 -0.6397,0.51416 -1.07016,1.21365 -1.46476,1.92511 0.35872,0.69352 0.45437,1.47073 0.23914,2.24196 l 0.72939,0.21523 c -0.29295,0.10169 -0.88483,0.29893 -1.17777,0.3946 -1.22561,2.63656 -1.72782,5.65573 -3.71271,7.88576 0.38264,-2.06262 -0.75928,-4.21491 0.28697,-6.13403 1.76967,-4.33448 3.34802,-8.74668 5.3329,-12.99149 0.23914,0.34677 0.47232,0.6995 0.71745,1.04627 0.87286,-0.77125 1.46474,-1.76369 1.56041,-2.94147 -0.11965,0.9506 -1.10008,2.10447 -2.09252,1.41094 2.02076,-2.72025 4.38828,-5.17147 6.3134,-7.96348 m -2.95344,7.25203 c 0.80115,-0.3647 1.08811,-0.94462 0.85495,-1.7338 l 0.5859,0.26308 c 0.007,-1.40498 1.10006,-2.47514 1.59031,-3.71869 -1.38106,1.44681 -2.70831,3.16267 -3.03116,5.18941 m -7.13244,11.73598 c 0.28697,0.46632 0.28697,0.46632 0,0 z"
       id="path4805" />
    <path
       inkscape:connector-curvature="0"
       style="opacity:1;fill:#ffffff;stroke-width:0.59785891"
       d="m 153.54794,122.14623 c -0.25111,0.16151 -0.25111,0.16151 0,0 z"
       id="path4811" />
    <path
       inkscape:connector-curvature="0"
       style="opacity:1;fill:#040404;stroke-width:0.59785891"
       d="m 103.1544,123.2702 c 0.19132,-0.03 0.56797,-0.10168 0.75929,-0.13151 0.69949,2.30177 0.95058,4.71113 0.56797,7.09658 l -1.02234,-0.0359 c 0.16134,-2.31371 0.22718,-4.65732 -0.30492,-6.92917 z"
       id="path4813" />
    <path
       inkscape:connector-curvature="0"
       style="opacity:1;fill:#040404;stroke-width:0.59785891"
       d="m 111.40485,128.32809 c 1.6501,0.65763 3.1567,1.87727 3.94589,3.49747 1.39301,0.23914 2.80394,0.47828 4.1312,0.98048 0.9207,1.2316 1.66204,2.58873 2.5409,3.85619 l -1.10604,-0.24512 c 0.0478,1.79955 -0.29295,3.67086 0.34078,5.40464 0.57993,2.09252 1.93108,3.83229 2.7621,5.80523 -1.57834,-1.27943 -2.97733,-2.78604 -4.23283,-4.38232 -0.77722,-0.96854 -0.10762,-2.25393 0.0537,-3.31811 0.7832,-2.0387 -0.23317,-5.08778 -2.75614,-5.12964 -0.60382,-0.65764 -1.46474,-0.95657 -2.2061,-1.41692 0.005,0.38263 0.018,1.15387 0.0239,1.5365 -1.16581,-2.11642 -4.08337,-3.78444 -3.49747,-6.5884 z"
       id="path4817" />
    <path
       inkscape:connector-curvature="0"
       style="opacity:1;fill:#040404;stroke-width:0.59785891"
       d="m 139.25313,131.20977 c 1.10006,-0.1973 2.2061,-0.34676 3.30019,-0.56797 -0.93864,0.87885 -2.05664,1.53052 -3.21649,2.07457 -0.97451,1.48269 -3.25833,1.34518 -3.85618,3.05505 -0.40058,-0.29295 -0.79516,-0.58589 -1.19572,-0.87884 -0.71743,-0.005 -1.43487,-0.018 -2.14631,0 -0.56199,0.71742 -1.20171,1.38106 -1.86533,2.0088 -0.0658,-0.59787 -0.20326,-1.79357 -0.26904,-2.39144 2.63656,-2.28382 6.27155,-1.91315 9.24888,-3.30017 m -2.792,1.6202 c 0.24512,1.95499 1.7338,-1.04029 0,0 z"
       id="path4819" />
    <path
       inkscape:connector-curvature="0"
       style="opacity:1;fill:#040404;stroke-width:0.59785891"
       d="m 114.99201,135.23335 c 0.31687,0.3647 0.31687,0.3647 0,0 z"
       id="path4825" />
    <path
       inkscape:connector-curvature="0"
       style="opacity:1;fill:#040404;stroke-width:0.59785891"
       d="m 131.18203,136.93725 c 0.1973,0.22122 0.1973,0.22122 0,0 z"
       id="path4827" />
    <path
       inkscape:connector-curvature="0"
       style="opacity:1;fill:#ffffff;stroke-width:0.59785891"
       d="m 163.36478,136.81767 c 0.28698,0.46634 0.28698,0.46634 0,0 z"
       id="path4829" />
    <path
       inkscape:connector-curvature="0"
       style="opacity:1;fill:#040404;stroke-width:0.59785891"
       d="m 132.5033,138.2107 c 0.19132,-0.0717 0.57395,-0.21523 0.76527,-0.28698 -0.52014,1.8175 1.61421,2.16425 2.66047,3.05506 0.45437,0.81906 0.73537,1.72184 1.07016,2.5947 -0.4723,1.82945 -0.0537,4.4959 -2.18818,5.38073 0.10169,0.47232 0.30492,1.41694 0.40655,1.89522 -1.75768,-1.55443 -0.41848,-4.14914 -0.5859,-6.146 0.40057,-2.0925 -1.38106,-3.40779 -2.64254,-4.72906 0.56797,-0.47828 0.80711,-1.06418 0.51416,-1.76367 m 3.03116,5.42257 c -0.41253,0.46634 -0.14354,1.87131 0.68155,1.46476 0.70547,-0.43644 0.11354,-1.85934 -0.68155,-1.46476 z"
       id="path4831" />
    <g
       aria-label="der mobinger"
       style="font-style:normal;font-variant:normal;font-weight:normal;font-stretch:normal;font-size:36.94122696px;line-height:23.08826637px;font-family:'Broken 15';-inkscape-font-specification:'Broken 15, ';letter-spacing:0px;word-spacing:0px;fill:#000000;fill-opacity:1;stroke:none;stroke-width:0.9235307px;stroke-linecap:butt;stroke-linejoin:miter;stroke-opacity:1"
       id="text5568">
      <path
         d="m 59.45998,171.99686 q 0,0.48702 -0.378792,0.86581 v 5.9344 l -0.324679,0.30664 v 4.49139 l -0.198414,0.16234 q 0.198414,0.0361 0.198414,0.43291 0,0.64936 -0.685433,0.64936 -0.631319,0 -1.875921,-0.23449 -1.226564,-0.25253 -1.857884,-0.25253 -0.360754,0 -1.064225,0.16234 -0.703471,0.16234 -1.064225,0.16234 -1.984148,0 -3.210712,-1.55125 -1.136376,-1.44301 -1.136376,-3.48127 0,-2.63351 0.901886,-4.45532 1.172451,-2.36294 3.517353,-2.36294 0.523094,0 1.461054,0.32468 0.955999,0.32468 1.479093,0.32468 0.05411,-1.40694 0.126263,-2.02022 0.126264,-1.17245 0.432906,-1.96611 0.342716,0 1.010111,-0.018 0.685433,-0.018 1.02815,-0.018 1.479092,0 1.551242,0.39683 0.01804,0.19842 0.05411,0.61328 0.03607,0.39683 0.03607,1.53321 z m -10.948889,-2.50724 q 0,0.0361 -0.144302,0.36075 -0.288603,0.57721 -0.342716,1.33479 -0.144302,1.60536 -0.288603,3.21071 -0.16234,1.93004 -0.108227,3.22875 -0.162339,0.21646 -0.198415,0.63132 -0.01804,0.41487 -0.252527,0.68544 v -2.74174 q 0,-0.10822 0.216452,-1.83984 0.63132,-4.99645 0.63132,-5.53758 l 0.342716,-0.84777 q 0.144302,0.97404 0.144302,1.51517 z m -1.623394,17.64088 h -0.378792 q 0,-1.89396 0.378792,-2.94015 z m 8.171082,-8.6581 q 0,-2.27276 -1.461054,-2.27276 -0.721509,0 -1.298715,0.34272 -0.703471,0.41487 -0.703471,1.08226 v 2.59743 q 0,0.41487 0.793659,0.73955 0.667396,0.27056 1.172451,0.27056 0.63132,0 1.100301,-1.1003 0.396829,-0.91992 0.396829,-1.65946 z"
         style="font-style:normal;font-variant:normal;font-weight:normal;font-stretch:normal;font-family:'Broken 15';-inkscape-font-specification:'Broken 15, ';letter-spacing:5.84199858px;stroke-width:0.9235307px"
         id="path5589"
         inkscape:connector-curvature="0" />
      <path
         d="m 78.379317,170.40954 h -0.252528 v -0.1443 h 0.252528 z m 1.911997,10.11915 q -0.108227,0.19842 -0.270566,0.63132 -0.577207,2.00219 -2.976222,3.44521 -0.126264,0.0541 -0.252528,0.23449 -1.136375,0.4329 -2.128449,0.4329 -3.030335,0 -4.2569,-0.018 -0.883847,-0.018 -2.2006,-1.06422 -2.507241,-2.02022 -2.507241,-6.20497 0,-2.99426 2.020223,-4.96037 1.406941,-1.40694 4.022409,-2.3449 0.270565,-0.10823 0.793659,-0.27057 0.23449,-0.0541 0.739546,-0.1443 0.09019,0.0361 0.270566,0.1443 h 0.775621 q 1.010112,0 2.056299,-0.82974 1.046187,-0.82973 1.280677,-0.82973 0.721509,0 0.721509,0.64936 v 0.19841 q -1.587319,0 -1.587319,0.8117 v 0.32468 l 0.39683,-0.46898 q 0.595244,0.34271 1.659469,2.65154 1.082263,2.30883 1.443017,2.50724 v 3.24679 l -9.884665,0.70347 q 0.234491,1.62339 0.86581,2.3449 0.739546,0.84778 2.308827,0.84778 0.775622,0 1.406941,-0.75759 1.010112,-1.20853 1.082263,-1.28068 0.360754,0 1.677507,-0.19841 1.713582,-0.25253 1.73162,-0.25253 h 0.306641 q 0.108226,0.0721 0.505056,0.45094 z m -14.808959,7.14294 q -0.09019,-0.68544 -0.63132,-7.90052 l -0.450942,-6.06067 q -0.126264,-1.65947 -0.126264,-1.82181 v -5.77207 q 0.126264,0.91993 0.324678,3.44521 0.342717,4.50942 0.342717,6.51161 0.270565,0.4329 0.306641,1.20853 0.23449,5.30308 0.23449,8.53183 z m 0.216453,0.66739 h -0.216453 v -0.19841 h 0.216453 z m 11.453944,-18.74118 v -0.0722 q 0,-0.19841 -0.108226,-0.19841 -0.198415,0 -0.198415,0.21645 v 0.0541 q 0,0.19842 0.198415,0.19842 0.108226,0 0.108226,-0.19842 z m -1.984148,6.47554 v -0.50506 q 0,-0.73954 -0.739546,-1.17245 -0.739546,-0.45094 -0.721508,-0.61328 h -0.667395 q -2.59743,0 -2.59743,2.84996 2.543317,0 4.725879,-0.55917 z"
         style="font-style:normal;font-variant:normal;font-weight:normal;font-stretch:normal;font-family:'Broken 15';-inkscape-font-specification:'Broken 15, ';letter-spacing:5.84199858px;stroke-width:0.9235307px"
         id="path5591"
         inkscape:connector-curvature="0" />
      <path
         d="m 94.935735,167.01845 q -0.0722,0.018 -0.16234,0.018 h -0.0361 l -0.12627,-0.1443 h 0.12627 q 0.0902,0.0361 0.19841,0.12626 z m 1.53321,6.61984 q 0,0.0902 -0.90189,0.34272 -0.39683,0.10822 -1.1905,0.34271 -1.3348,0.45094 -1.74966,1.26264 -0.34272,0.63132 -0.34272,2.14649 0.2886,0.0721 0.2886,0.30664 0,0.0902 -0.018,0.2886 -0.018,0.19842 -0.018,0.30664 0,0.48702 0.16234,1.22657 0.21646,0.93796 0.25253,1.20853 l 0.91993,0.4329 q -0.8117,0.1443 -0.99208,0.956 -0.0902,0.73954 -0.19842,1.49713 -0.19841,0 -0.41487,0.21645 -0.216447,0.21645 -0.216447,0.43291 0,-0.41487 -0.45094,-0.41487 -0.126267,0 -0.378797,0.0902 -0.252527,0.0721 -0.396827,0.0721 -0.0902,0 -0.25253,-0.0721 -0.144297,-0.0902 -0.306637,-0.0902 -0.16234,0 -0.487017,0.0902 -0.32468,0.0721 -0.505057,0.0721 -0.811697,0 -1.208534,-0.64936 0,-1.46105 -0.414867,-2.43509 v -3.98633 q 0,-0.48702 -0.12626,-1.46106 -0.10823,-0.97403 -0.10823,-1.46105 0,-0.70347 -0.432901,-0.84777 v -2.23668 l 0.198415,-0.19842 q 0.360756,0 1.100303,-0.10822 0.757584,-0.12627 1.136374,-0.12627 0.144297,0 0.414867,-0.0902 0.288607,-0.0902 0.432907,-0.0902 0.667397,0 0.919924,0.41486 0.25252,0.39683 0.649357,0.43291 -0.23449,0.0902 -0.23449,0.88385 1.461057,-1.98415 3.914197,-1.98415 0.956,0 0.956,2.56135 z m -10.155254,-0.77562 h -0.23449 l 0.23449,-0.23449 z m 0.667395,1.74966 -0.270565,-0.25253 h 0.270565 z m -1.280677,-1.31676 q 0,0.41487 -0.07215,0.64936 l -0.01804,0.018 q -0.07215,-0.16234 -0.07215,-0.5231 0,-0.55916 0.09019,-0.81169 0.07215,0.23449 0.07215,0.66739 z m 0.198415,1.35283 q 0,0.41487 -0.108226,0.41487 -0.03608,-0.0902 -0.05411,-0.36076 v -0.18037 q 0.01804,-0.34272 0.07215,-0.34272 0.09019,0 0.09019,0.46898 z m 0.252528,2.75977 q 0,0.34272 -0.09019,0.34272 -0.05411,0 -0.05411,-0.30664 v -0.14431 q 0,-0.27056 0.05411,-0.27056 0.09019,0 0.09019,0.37879 z m 0.198415,1.17245 v 0.10823 q 0,0.19841 -0.03608,0.37879 l -0.01804,0.018 q -0.05411,0 -0.05411,-0.36076 v -0.10822 q 0,-0.30664 0.07215,-0.48702 0.03608,0.19841 0.03608,0.45094 z m -0.01804,1.19049 q 0,0.0721 -0.01804,0.19842 -0.01804,0 -0.01804,0 -0.05411,-0.0361 -0.05411,-0.18038 v -0.12627 q 0,-0.19841 0.05411,-0.19841 0.01804,0.018 0.01804,0.018 0.01804,0.10822 0.01804,0.18037 z m 0.378792,3.31894 q -0.23449,-0.43291 -0.23449,-1.29872 v -0.52309 q 0.23449,0.48702 0.23449,1.33479 z"
         style="font-style:normal;font-variant:normal;font-weight:normal;font-stretch:normal;font-family:'Broken 15';-inkscape-font-specification:'Broken 15, ';letter-spacing:5.84199858px;stroke-width:0.9235307px"
         id="path5593"
         inkscape:connector-curvature="0" />
      <path
         d="m 134.79466,173.67436 q -0.0541,0.0722 -0.1443,0.0722 l -0.0541,0.0361 q -0.018,-0.0361 -0.0361,-0.0902 l 0.018,-0.0361 q 0,-0.10823 0.0722,-0.18038 0.10823,0.12626 0.1443,0.19841 z m -1.28067,-1.22656 q 0,0.0902 -0.14431,0.12626 -0.0361,0.0361 -0.0902,0.0722 -0.0722,-0.0541 -0.0902,-0.16234 v -0.0541 q 0,-0.1443 0.1443,-0.1443 0.1443,0.0722 0.18038,0.16234 z m -0.34272,1.69555 -0.72151,-0.27057 0.68543,-0.0361 z m 0.0541,0.99207 h -0.36075 l 0.30664,-0.32468 z m -2.32686,5.32112 q -0.23449,0.32468 -0.8117,0.32468 l 0.18038,2.56136 -0.61328,0.32468 0.10822,2.84995 q -0.25253,0.19842 -0.72151,0.64936 -0.34271,0.0902 -1.5332,0.0902 -1.51517,0 -1.51517,-1.51517 0,-1.3889 0.48702,-4.13063 0.50505,-2.75977 0.50505,-4.14868 0,-0.19841 -0.0361,-0.5772 -0.018,-0.39683 -0.018,-0.57721 -0.18038,0.0541 -0.32468,0.0541 -0.34271,0 -0.32468,-0.2886 -0.16234,-0.018 -0.32467,0.0361 -0.54114,1.74965 -0.54114,2.21863 -0.0541,0.10823 -0.0541,0.27057 0,-0.12626 0.1443,0.8117 -0.0722,0.30664 -0.19841,1.35282 -0.45094,3.58951 -0.73955,5.69992 -0.19841,0 -0.63132,0.0361 -0.4329,0.018 -0.63132,0.018 -1.28067,0 -1.64143,-0.1443 -0.75758,-0.27056 -0.75758,-1.28068 0,-1.40694 0.61328,-4.16671 0.61328,-2.75977 0.61328,-4.16671 0,-1.06422 -0.70347,-1.06422 -0.82973,0 -1.01011,1.5332 0,1.11834 -0.0361,2.21864 -0.018,1.1003 -0.36075,1.20853 0,1.98415 -0.68543,5.08663 -0.3788,0 -1.13638,0.0541 -0.73955,0.0361 -1.1003,0.0361 -0.99207,0 -0.99207,-0.82973 0,-0.6674 0.64935,-6.13283 0.68544,-5.80814 0.93797,-6.16889 3.86006,0.72151 5.42935,0.72151 0.39682,0 0.79365,-0.0361 0.43291,0.73955 1.71359,0.73955 0.39683,0 1.19049,-0.0721 0.79365,-0.0722 1.19048,-0.0722 1.65947,0 2.32687,1.28067 0,0.70347 0.0902,2.12845 0.10822,1.42498 0.10822,2.12845 0.18038,0.36076 0.36076,0.93796 z m -15.99945,2.11042 q -0.018,0.0902 -0.18038,0.25252 -0.10822,0 -0.10822,-0.21645 0,-0.0902 0.0541,-0.16234 l 0.0541,0.0361 q 0.12627,0 0.18038,0.0902 z m -0.57721,4.14867 q 0,0.68543 -0.27056,1.46105 -0.0722,-0.55917 -0.0722,-1.40694 v -0.41487 q 0,-0.52309 0.27056,-1.28067 0,0.27056 0.0361,0.82973 0.0361,0.54113 0.0361,0.8117 z m -0.45094,4.05848 h -0.30664 l 0.23449,-1.58732 z"
         style="font-style:normal;font-variant:normal;font-weight:normal;font-stretch:normal;font-family:'Broken 15';-inkscape-font-specification:'Broken 15, ';letter-spacing:5.84199858px;stroke-width:0.9235307px"
         id="path5595"
         inkscape:connector-curvature="0" />
      <path
         d="m 137.93101,165.16057 v 1.5332 q 0,0.23449 -0.0361,0.30664 l -0.018,0.0902 q -0.0361,-0.52309 -0.0361,-1.13637 0,-0.28861 0.018,-0.75759 l 0.018,-0.39683 q 0.0541,0.0902 0.0541,0.36076 z m 10.51598,7.53976 q -0.37879,0 -0.59524,-0.16234 -0.19842,-0.18038 -0.46898,-0.18038 -0.39683,0 -0.39683,0.61328 0,0.39683 0.46898,0.86581 0.46898,0.45095 0.46898,0.77563 h 0.46898 q -0.18038,0 -0.18038,0.34271 0,0.23449 0.19842,0.21645 l -0.19842,0.16234 q 0.0361,0.55917 0.0361,1.08227 0,1.17245 -0.28861,2.4892 -0.37879,0.36075 -0.37879,0.77562 0.12627,0.0902 0.37879,0.23449 v 0.86581 l -0.0902,-0.018 q -0.25252,-0.018 -0.25252,0.73955 0,0.39683 -0.23449,0.37879 l -0.14431,-0.21645 h -1.35282 q -0.14431,0.41487 -0.50506,0.41487 -0.12626,0 -0.39683,-0.018 -0.25253,-0.018 -0.39683,-0.018 -0.34271,0 -1.08226,0.12627 -0.72151,0.10822 -1.08226,0.10822 -3.57147,0 -4.52747,-3.7338 0,2.6335 -0.0541,3.28286 -0.1443,2.6335 -0.1443,3.42716 h -0.18038 q -0.0902,-0.0721 -0.19841,-0.25252 l -0.0722,-5.24898 0.0541,-0.73954 0.16234,-2.88604 q 0.0541,-0.64935 0.0541,-1.17245 0,-0.25253 0.12626,-0.70347 0.18038,-0.57721 0.19842,-0.70347 v 1.26264 h 0.25253 q 0.10822,-1.1003 1.22656,-1.82181 1.01011,-0.54113 2.02022,-1.1003 h 3.1566 q 1.38891,0 1.71359,0.54113 0.12626,0.21646 0.32467,0.21646 0.45095,0 0.45095,-0.64936 0,-0.23449 -0.55917,-0.90189 -0.54113,-0.68543 -0.54113,-1.08226 0,-0.61328 0.37879,-0.61328 0.39683,0 0.55917,0.66739 0.16234,0.6674 0.48702,0.6674 0.19841,0 0.54113,-0.16234 0.34271,-0.16234 0.55917,-0.16234 0,0.1443 -0.10823,0.37879 -0.0902,0.23449 -0.0902,0.36076 0,0.27056 0.10823,0.77562 0.12626,0.50505 0.12626,0.77562 z m -4.1126,5.59169 v -2.56136 q 0,-0.45094 -0.48701,-0.86581 -0.46898,-0.41486 -0.91993,-0.41486 -0.77562,0 -1.02815,0.36075 -0.27056,0.46898 -0.55917,0.91992 v 2.45313 q 0.16234,0.10823 0.63132,0.86581 0.30664,0.5231 0.956,0.5231 0.46898,0 0.93796,-0.39683 0.46898,-0.41487 0.46898,-0.88385 z m 2.90407,2.86799 -0.25252,-0.12626 h -0.16234 q -0.19842,0.23449 -0.19842,0.36075 h 0.21646 q 0.30664,0 0.39682,-0.23449 z"
         style="font-style:normal;font-variant:normal;font-weight:normal;font-stretch:normal;font-family:'Broken 15';-inkscape-font-specification:'Broken 15, ';letter-spacing:5.84199858px;stroke-width:0.9235307px"
         id="path5597"
         inkscape:connector-curvature="0" />
      <path
         d="m 164.02935,179.48251 q 0,1.83984 -0.34272,2.74173 -0.55917,1.46105 -1.83984,1.96611 -0.27057,0.10823 -2.38098,0.21645 -2.16453,0.12627 -2.70566,0.12627 -0.2886,0 -0.34272,-0.34272 -0.0721,-0.64936 -0.48701,-6.42143 -0.39683,-5.69991 -0.39683,-7.46761 v -1.1003 l 0.34271,-0.37879 h 2.38098 l 0.61328,3.62558 q 0.30664,-0.30664 0.91993,-0.30664 0.16234,0 0.46898,0.018 0.30664,0 0.46898,0 2.09236,0 2.65154,1.55124 0.52309,1.46105 0.63132,4.23886 0.018,0.61328 0.018,1.53321 z m -3.19268,-1.69555 q 0,-3.53539 -1.35282,-3.53539 -0.61329,0 -0.61329,0.6674 0,2.09237 0.18038,4.65373 0.10823,1.69554 0.10823,1.31675 0,0.84777 0.34271,1.31675 0.1443,0.19842 0.34272,0.19842 h 0.21645 q 0.50506,0 0.50506,-0.32468 0,-0.32468 0.0721,-0.86581 0.0541,-0.63132 0.0721,-0.88385 0.12626,-2.70566 0.12626,-2.54332 z"
         style="font-style:normal;font-variant:normal;font-weight:normal;font-stretch:normal;font-family:'Broken 15';-inkscape-font-specification:'Broken 15, ';letter-spacing:5.84199858px;stroke-width:0.9235307px"
         id="path5599"
         inkscape:connector-curvature="0" />
      <path
         d="m 177.15859,171.07693 q -0.14431,0.70348 -0.8117,0.70348 -0.79366,0 -0.79366,-0.72151 0,-0.16234 0.0541,-0.36076 0.27057,0 0.77562,0.19842 0.50506,0.18037 0.77563,0.18037 z m 0.36075,5.05056 v 0.0361 q -0.018,0.0541 -0.0361,0.10822 -0.0721,-0.0361 -0.0902,-0.10822 v -0.018 q 0.018,-0.0721 0.0902,-0.10823 0.0361,0.0361 0.0361,0.0902 z m -1.47909,5.33916 -0.27057,0.50506 v 0.72151 l -0.16234,-0.2886 q -0.41486,0.97403 -0.41486,3.04837 h -3.06641 q -0.16234,0 -0.43291,-0.34272 -0.27057,-0.36075 -0.27057,-0.54113 0,-0.36075 0.10823,-1.08226 0.12626,-0.72151 0.12626,-1.08226 0,-0.0902 -0.0361,-0.28861 -0.0361,-0.19841 -0.0361,-0.2886 0,-0.50506 0.3788,-0.55917 l -0.54114,-0.73955 v -1.04618 q 0,-0.48702 0.27057,-1.44302 0.27057,-0.956 0.27057,-1.44302 v -0.0902 l -0.30665,-0.46898 v -0.21645 l 0.30665,-0.52309 -0.30665,-0.16234 q 0,-1.01011 1.4791,-1.22657 -1.4791,-0.50505 -1.4791,-1.37086 0,-0.34272 0.25253,-1.08226 0.25253,-0.84778 0.48702,-0.84778 h 2.16453 q 0.73954,0 0.73954,1.83985 0,0.54113 -0.30664,1.1003 h -1.40694 q -0.36075,0.18038 -0.36075,0.30664 0,0.12627 0.50505,0.18038 0.39683,0.0361 1.29872,0.0721 0.73954,3.37305 0.73954,5.5015 h -0.12626 q -0.0361,0.99207 -0.0361,1.17245 0,0.25253 0.16234,0.48702 z m 0.1443,2.27276 v 0.018 q 0,0.10823 -0.1443,0.10823 -0.0721,-0.0361 -0.0721,-0.10823 0,-0.10822 0.0721,-0.16234 0.1443,0 0.1443,0.14431 z m 0.32468,0.55917 q 0,0.10822 -0.10823,0.10822 h -0.0361 q -0.0902,0 -0.0902,-0.10822 0.018,-0.0541 0.0902,-0.0722 h 0.0361 q 0.10823,0.018 0.10823,0.0722 z m -6.63788,4.04044 q -0.0722,-1.08226 -0.57722,-6.09674 -0.39681,-3.71577 -0.39681,-6.09675 v -1.29871 l 0.2886,-0.28861 0.18038,0.28861 q 0.10822,0.77562 0.27056,2.36294 0.23449,2.90407 0.23449,8.135 z"
         style="font-style:normal;font-variant:normal;font-weight:normal;font-stretch:normal;font-family:'Broken 15';-inkscape-font-specification:'Broken 15, ';letter-spacing:5.84199858px;stroke-width:0.9235307px"
         id="path5601"
         inkscape:connector-curvature="0" />
      <path
         d="m 194.76117,176.34395 h -0.0721 v -5.80815 h 0.0721 z m 0.0541,-6.81826 q 0,0.64936 -0.18038,0.8117 v -0.54113 h -0.30664 q -0.73954,0 -2.2006,0.0902 -1.44302,0.0722 -2.16452,0.0722 h -0.99208 q -1.65947,0 -2.23667,-0.23449 l 0.10822,-0.12627 h 6.09675 q 0.30664,0 0.93796,-0.0361 0.63132,-0.0361 0.93796,-0.0361 z m -10.89478,-0.0721 h -0.39683 q -0.32467,0 -0.95599,-0.0902 -0.61329,-0.10822 -0.91993,-0.10822 -0.27056,0 -0.54113,0.10822 v -0.10822 q 0,-0.0902 0.0721,-0.18038 0.0541,-0.0902 0.0541,-0.19842 0.25252,-0.018 1.31675,0.21646 1.08226,0.23449 1.37086,0.36075 z m 5.24898,8.09893 h -0.0361 q -0.0721,0.10823 -0.16234,0.30664 h -0.1443 l 0.1443,-0.50505 q 0.19842,0 0.19842,0.1443 z m 0.4329,3.03034 q -0.18038,0 -0.25253,-0.21646 -0.0541,-0.21645 -0.1443,-0.2886 0.19842,-0.19841 0.27057,-0.36075 -0.018,0.16234 0.0541,0.45094 0.0722,0.2886 0.0722,0.41487 z m 5.33916,-2.84996 -0.0361,0.12626 q 0,0.8117 -0.0722,2.45313 -0.0721,1.64143 -0.0721,2.47117 -0.0721,0.018 -0.0721,0.4329 l -0.12628,0.0721 -0.0361,-0.19841 v 1.06422 q 0.0361,0.0722 0.10822,0.0722 0.0902,0 0.12627,-0.0361 -0.19842,0.34272 -0.19842,0.48702 v 0.0902 l 0.19842,-0.0902 v 2.36294 h -0.0721 q -0.0361,-0.19842 -0.12627,-0.5231 0,-0.50505 -0.16234,-0.66739 0.28861,-0.0902 0.28861,-0.72151 -0.0361,-0.0902 -0.12627,-0.19842 v 0.75759 q -0.19841,0 -0.59524,0.0902 -0.37879,0.0722 -0.57721,0.0722 -0.0721,0 -0.19841,-0.0361 -0.10823,-0.0361 -0.18038,-0.0361 -0.2886,0 -0.86581,0.0361 -0.57721,0.0361 -0.88385,0.0361 h -1.11834 l 0.0721,-0.16234 -0.30664,-6.11478 h -0.16234 q 0.0361,-0.10823 0.10823,-0.16234 0.018,-0.10823 0.0361,-0.30665 -0.018,-0.16233 -0.21646,-4.09455 -0.18037,-0.34272 -0.34271,-0.5231 h -1.01012 q -0.0361,0.0361 -0.21645,0.1443 -0.16234,0.0902 -0.16234,0.21646 v 2.74173 q 0,0.37879 0.0722,1.15441 0.18038,0.10823 0.21646,0.19842 h -0.21646 q 0.30664,6.40338 0.30664,6.18693 v 0.93796 q -0.23449,0 -0.66739,0.0902 -0.43291,0.0721 -0.64936,0.0721 0.018,0.48702 -0.12626,0.48702 0,-0.59525 -0.77562,-0.59525 -0.27057,0 -0.50506,0.10823 h -1.67751 q 0,-1.47909 -0.36075,-1.82181 v -0.10822 q 0.0902,-0.0722 0.1443,-0.10823 h -0.23449 q 0.37879,-0.48702 0.37879,-1.37087 0,-1.17245 -0.18037,-1.35283 v -1.42497 q -0.14431,-0.28861 -0.14431,-1.20853 0.018,-1.22656 0,-1.33479 -0.018,-0.16234 -0.0541,-0.2886 h -1.3889 q -0.0721,0.0721 -0.37879,0.10822 -0.21646,0.018 -0.21646,0.30664 v 0.0361 l 0.0902,0.0721 q -0.0361,0.12626 -0.0902,0.36075 l -0.10822,-0.0721 q 0,0.39683 0.39683,0.39683 0,0.25253 -0.0902,0.41487 h 0.0361 q 0.14431,0.18038 0.19842,0.27056 v 0.0361 q -0.0541,0.0721 -0.19842,0.34272 v 0.0902 q 0.0361,-0.0541 0.12627,-0.0902 h 0.0721 q -0.1443,0.46898 -0.23449,0.73954 0,-0.37879 -0.16234,-0.37879 h -0.0361 q 0,0.64936 -0.2886,0.64936 -0.12626,0 -0.19841,-0.10823 -0.10823,-0.18037 -0.14431,-0.19841 l -0.018,0.0361 0.0361,-0.54113 v 0.23449 q 0.23449,-0.23449 0.23449,-0.4329 -0.0361,-0.0541 -0.10822,-0.0722 0,-0.32468 0.21645,-0.32468 0.19841,-0.018 0.19841,-0.21646 0,-0.27056 -0.25253,-0.46898 -0.25252,-0.21645 -0.25252,-0.46898 0,-0.12626 0.0902,-0.27056 l -0.0902,-0.10823 v -0.10822 h 0.0902 q 0,-0.39683 0.37879,-0.39683 -0.018,0 1.98414,-0.12627 0.10823,-0.0902 0.10823,-0.25253 0,-0.32467 -0.0902,-0.50505 -0.16234,-0.23449 -0.18037,-0.34272 l 0.0541,-0.018 0.0541,-0.0722 q 0,-0.30664 -0.23449,-0.30664 0.018,-0.0541 0.10823,-0.0902 0.0902,-0.0361 0.0902,-0.10822 -0.0722,0 -0.23449,0.0541 -0.14431,0.0541 -0.21646,0.0541 v -0.10822 q 0.3788,0 0.3788,-0.21645 v -0.28861 l -0.0902,-0.16234 q 0.018,-0.12626 0.19841,-0.27056 l -0.0361,-0.21646 h -0.16234 q 0.0902,0.018 0.0902,0.10823 v 0.10823 l -0.3788,-0.21646 q 0,-0.77562 0.48702,-0.77562 v -1.37086 q 0.32468,-0.32468 1.83985,-0.32468 0.36075,0 1.08226,0.018 0.72151,0.018 1.06423,0.018 l 0.32467,0.99208 0.61329,-0.63132 v -0.1443 q 0.0722,-0.0541 0.21645,-0.12627 1.44302,-0.54113 2.27275,-0.54113 0.79366,0 1.98415,0.36076 0.39683,0.30664 1.08226,1.08226 0,1.46105 0.23449,3.96829 0.27057,2.90407 0.30664,3.98634 l 0.0902,0.10822 -0.0361,0.12627 q 0.0361,0.0902 0.14431,0.10822 -0.0541,-0.70347 0.16234,-1.89396 -0.0361,-0.10822 -0.12627,-0.19841 v -2.16453 q 0,-0.12626 0.12627,-0.12626 h 0.0721 q 0,0.39683 0.18037,1.19049 z m -0.18037,9.93878 h -0.19842 q 0,-0.46898 0.19842,-0.46898 z M 181.4854,174.64845 q -0.0361,0.0902 -0.16234,0.27057 -0.10822,-0.0361 -0.32467,-0.0721 0.0361,-0.12627 0.19841,-0.28861 -0.0721,-0.018 -0.19841,-0.0721 v -0.0361 q 0,-0.34272 0.19841,-0.46898 -0.0541,0.10822 -0.0541,0.18037 0,0.0721 0.18037,0.19842 0.16234,0.12626 0.16234,0.25253 z m 12.13938,12.08527 q 0,0.19841 -0.19841,0.59524 -0.14431,-0.2886 -0.14431,-0.93796 0.34272,0 0.34272,0.34272 z m 0.93796,3.22875 h -1.33479 q 0.19842,-0.0902 1.33479,-0.36076 z m -2.86799,-1.46106 q -0.0902,0.18038 -0.30664,0.18038 h -0.0722 q -0.0541,-0.0541 -0.12626,-0.18038 0.10823,-0.10823 0.19842,-0.2886 h 0.0902 q 0.21646,0 0.21646,0.2886 z m -10.37169,-9.70429 q -0.0361,0.0902 -0.32467,0.23449 -0.0902,-0.0721 -0.0902,-0.2886 0.0902,-0.0721 0.19841,-0.1443 h 0.0902 q 0.018,0.0541 0.12626,0.1443 z m 0.59525,2.39902 q -0.0902,-0.0541 -0.18038,-0.0721 -0.018,0.0361 -0.0902,0.0361 0,-0.0361 -0.10821,0.54114 0.018,0.0361 0.0361,0.0541 -0.018,0.0361 -0.0361,0.0721 l -0.018,0.0541 q -0.27057,0 -0.36076,0.23449 -0.12626,0.30664 -0.25252,0.36076 v -0.16234 q 0.0721,-0.1443 0.1984,-0.46898 -0.27055,0.0902 -0.27055,-0.48702 v -0.0541 l 0.0721,-0.19842 h 0.0902 q 0.0902,0.10823 0.10822,0.19842 0.0902,-0.0361 0.30664,-0.28861 0.19842,-0.19841 0.30663,-0.19841 0.19842,0 0.19842,0.2886 z m 9.52391,8.44165 q 0,0.2886 -0.12627,0.32468 -0.34271,0.0721 -0.99207,0.0721 h -3.4452 q -0.36076,0 -1.20853,-0.0721 l -0.0722,-0.0722 2.52529,-0.0902 q 0.10822,0 0.36075,0.0361 0.27056,0.0541 0.39682,0.0541 h 1.94809 q 0.0361,-0.12626 0.32466,-0.12626 v 0.0361 q 0.0361,-0.0721 0.28862,-0.16234 z m -9.63214,-5.97048 h -0.32468 q 0,-0.0902 -0.0902,-0.19842 -0.10822,-0.12626 -0.10822,-0.21645 l 0.0361,-0.0361 q 0,-0.12626 0.16234,-0.12626 0.32468,0 0.32468,0.57721 z m 0.32468,1.37086 h -0.45094 q 0.21645,-0.21645 0.32468,-0.36075 0.12626,0.12626 0.12626,0.36075 z m 1.78573,2.59743 q 0,0.1443 -0.25252,0.57721 -0.018,-0.30664 -0.19842,-0.88385 l -0.16234,0.0721 -0.10822,-0.61328 q 0.10822,0 0.10822,-0.12627 0,-0.16233 -0.10822,-0.46898 -0.0902,-0.32467 -0.0902,-0.50505 v -0.10823 l 0.0902,-0.16234 -0.0902,-0.0721 0.0902,-0.1443 q 0.2886,0.10823 0.2886,0.32468 0,0.0541 -0.0361,0.18038 -0.018,0.12626 -0.018,0.19841 0,0.25253 0.1443,0.45094 0.27056,0.18038 0.27056,0.43291 0,-0.12627 -0.1443,0.37879 0.12627,0.10823 0.21645,0.16234 l -0.0361,0.018 -0.0361,0.0541 v 0.12626 l 0.0721,0.0361 z m -1.46105,-0.46898 h -0.10823 q -0.34271,0 -0.34271,-0.64936 l 0.0721,-0.19841 q 0,-0.1443 -0.0721,-0.16234 v -0.18038 q 0,-0.2886 0.25252,-0.2886 0.16234,0 0.16234,0.46898 0,0.0902 -0.0541,0.23449 -0.0721,0.1443 -0.0721,0.23449 0.0361,0.16234 0.16234,0.54113 z m 1.82181,1.51517 -0.16234,0.10822 -0.41487,-0.37879 q 0.12627,-0.0541 0.34272,-0.10822 h 0.0721 v 0.23449 l 0.0902,-0.0361 0.0541,0.0721 z m 1.01011,1.28068 h -1.08226 v -0.16234 h 0.36075 q -0.1443,-0.21646 -0.19841,-0.3788 v -0.10822 l 0.37879,0.21645 -0.0902,0.0721 q 0.0902,0.16234 0.34272,0.18038 0.25252,0.018 0.2886,0.18038 z m -1.2446,-0.0722 q -0.12627,0.10823 -0.57721,0.10823 -0.39683,0 -0.54113,-0.10823 z m -2.2006,0 q -0.0361,0.0361 -0.12627,0.0722 l -0.0361,-0.0722 h -0.84777 q 0.0541,-0.1443 0.16234,-0.19841 h 0.21645 q 0.34271,0 0.63132,0.10823 z m 12.915,-9.091 q -0.0361,-0.0361 -0.0721,-0.0721 l -0.0902,0.0902 0.018,0.018 q 0.10822,0 0.1443,-0.0361 z m -0.12627,0.23449 q -0.018,-0.0902 -0.0721,-0.10823 l -0.0361,0.10823 0.0361,0.0722 q 0.0541,-0.018 0.0721,-0.0722 z m 0.0902,0.27057 q -0.16234,0 -0.19841,-0.10823 l 0.0361,1.74966 v -1.4791 q 0.12627,-0.0541 0.16234,-0.16233 z m -13.27575,-12.13938 q -0.0361,-0.0902 -0.0722,-0.0902 l -0.0541,0.0902 0.0541,0.0902 q 0.0541,-0.0361 0.0722,-0.0902 z m 8.45968,9.86662 -0.018,0.0721 v 0 z m -6.6018,-5.48346 H 183.199 v 0.0902 z m 0.0541,0.36075 -0.0541,-0.0721 -0.0721,0.0721 0.0721,0.0722 z m -1.98414,0.73955 -0.0541,-0.0902 q -0.0721,0.0361 -0.0902,0.0902 0.0361,0.0721 0.0902,0.0721 z m 0,3.21071 q -0.018,-0.0721 -0.0541,-0.12626 -0.0902,0 -0.0902,0.10823 v 0.018 q 0.018,0.0721 0.0902,0.0721 z m 0.30664,1.33479 v -0.0902 l -0.10823,-0.0721 v 0.0721 q 0.0361,0.0722 0.10823,0.0902 z m -0.30664,0.21646 v -0.0902 h -0.0541 v 0.0902 z m 2.54331,4.34708 -0.0721,-0.0902 q -0.0902,0.0361 -0.0902,0.0902 0.018,0.0721 0.0902,0.0721 z m -2.38097,-2.05629 q -0.018,-0.018 -0.0541,-0.0361 l -0.0721,0.0902 q 0.018,0.0721 0.0721,0.0902 0.0361,0 0.0541,-0.018 0,-0.0721 0,-0.12626 z m -0.25253,-0.2345 q -0.0361,-0.0541 -0.0902,-0.0721 -0.0902,0.0361 -0.0902,0.10823 l 0.0902,0.0902 q 0.0541,-0.0361 0.0902,-0.12627 z m -0.19842,0.12627 q -0.0361,-0.0902 -0.0902,-0.12627 -0.0361,0.0361 -0.0361,0.10823 v 0.0361 q 0,0.0541 0.0361,0.0541 0.0541,-0.018 0.0902,-0.0721 z"
         style="font-style:normal;font-variant:normal;font-weight:normal;font-stretch:normal;font-family:'Broken 15';-inkscape-font-specification:'Broken 15, ';letter-spacing:5.84199858px;stroke-width:0.9235307px"
         id="path5603"
         inkscape:connector-curvature="0" />
      <path
         d="m 212.83274,185.88589 q 0,2.14649 -1.94808,3.17464 -1.49712,0.79366 -3.82399,0.79366 -0.4329,0 -2.72369,-0.25253 l -0.0361,-1.74966 q -0.018,-0.10822 0.99207,-0.21645 1.74965,-0.16234 2.32687,-0.32468 1.51517,-0.41486 1.64143,-1.37086 -0.27056,-0.41487 -0.82973,-0.41487 -0.43291,0 -1.29872,0.1443 -0.84777,0.12626 -1.28068,0.12626 -2.12845,0 -3.21071,-3.69773 -0.75758,-2.59743 -0.75758,-5.42935 0,-2.2006 0.61328,-3.28286 0.77562,-1.35283 2.75977,-1.60535 0.68543,-0.0541 1.96611,-0.23449 0,0 0.73955,-0.30665 0.25252,0 0.79366,-0.0541 0.54113,-0.0721 0.81169,-0.0721 0.64936,0 0.95599,0.0721 0.59525,0.48702 1.49713,6.96256 0.8117,5.91636 0.8117,7.73817 z m -4.63569,-3.37305 -1.01012,-7.75621 q -0.018,-0.10823 -0.37879,-0.46898 -0.1443,-0.018 -0.25253,-0.018 -0.36075,0 -0.39682,0.16234 -0.23449,1.06422 -0.23449,2.03826 0,1.82181 0.91992,5.84422 0.2886,0.2886 0.16234,0.93796 0.23449,0.0541 0.41486,0.0541 0.88385,0 0.77563,-0.79366 z"
         style="font-style:normal;font-variant:normal;font-weight:normal;font-stretch:normal;font-family:'Broken 15';-inkscape-font-specification:'Broken 15, ';letter-spacing:5.84199858px;stroke-width:0.9235307px"
         id="path5605"
         inkscape:connector-curvature="0" />
      <path
         d="m 232.36535,170.40954 h -0.25253 v -0.1443 h 0.25253 z m 1.91199,10.11915 q -0.10822,0.19842 -0.27056,0.63132 -0.57721,2.00219 -2.97622,3.44521 -0.12627,0.0541 -0.25253,0.23449 -1.13638,0.4329 -2.12845,0.4329 -3.03034,0 -4.2569,-0.018 -0.88385,-0.018 -2.2006,-1.06422 -2.50724,-2.02022 -2.50724,-6.20497 0,-2.99426 2.02022,-4.96037 1.40694,-1.40694 4.02241,-2.3449 0.27057,-0.10823 0.79366,-0.27057 0.23449,-0.0541 0.73955,-0.1443 0.0902,0.0361 0.27056,0.1443 h 0.77562 q 1.01011,0 2.0563,-0.82974 1.04619,-0.82973 1.28068,-0.82973 0.72151,0 0.72151,0.64936 v 0.19841 q -1.58732,0 -1.58732,0.8117 v 0.32468 l 0.39682,-0.46898 q 0.59524,0.34271 1.65947,2.65154 1.08226,2.30883 1.44301,2.50724 v 3.24679 l -9.88466,0.70347 q 0.23449,1.62339 0.86581,2.3449 0.73956,0.84778 2.30883,0.84778 0.77562,0 1.40694,-0.75759 1.01011,-1.20853 1.08226,-1.28068 0.36076,0 1.67751,-0.19841 1.71358,-0.25253 1.73162,-0.25253 h 0.30664 q 0.10823,0.0721 0.50505,0.45094 z m -14.80895,7.14294 q -0.0902,-0.68544 -0.63132,-7.90052 l -0.45095,-6.06067 q -0.12626,-1.65947 -0.12626,-1.82181 v -5.77207 q 0.12626,0.91993 0.32468,3.44521 0.34271,4.50942 0.34271,6.51161 0.27057,0.4329 0.30665,1.20853 0.23449,5.30308 0.23449,8.53183 z m 0.21645,0.66739 h -0.21645 v -0.19841 h 0.21645 z m 11.45394,-18.74118 v -0.0722 q 0,-0.19841 -0.10822,-0.19841 -0.19842,0 -0.19842,0.21645 v 0.0541 q 0,0.19842 0.19842,0.19842 0.10822,0 0.10822,-0.19842 z m -1.98414,6.47554 v -0.50506 q 0,-0.73954 -0.73955,-1.17245 -0.73955,-0.45094 -0.72151,-0.61328 h -0.66739 q -2.59743,0 -2.59743,2.84996 2.54331,0 4.72588,-0.55917 z"
         style="font-style:normal;font-variant:normal;font-weight:normal;font-stretch:normal;font-family:'Broken 15';-inkscape-font-specification:'Broken 15, ';letter-spacing:5.84199858px;stroke-width:0.9235307px"
         id="path5607"
         inkscape:connector-curvature="0" />
      <path
         d="m 248.95782,167.01845 q -0.0721,0.018 -0.16234,0.018 h -0.0361 l -0.12626,-0.1443 h 0.12626 q 0.0902,0.0361 0.19842,0.12626 z m 1.5332,6.61984 q 0,0.0902 -0.90188,0.34272 -0.39683,0.10822 -1.19049,0.34271 -1.33479,0.45094 -1.74966,1.26264 -0.34271,0.63132 -0.34271,2.14649 0.2886,0.0721 0.2886,0.30664 0,0.0902 -0.018,0.2886 -0.018,0.19842 -0.018,0.30664 0,0.48702 0.16234,1.22657 0.21646,0.93796 0.25253,1.20853 l 0.91992,0.4329 q -0.81169,0.1443 -0.99207,0.956 -0.0902,0.73954 -0.19841,1.49713 -0.19842,0 -0.41488,0.21645 -0.21645,0.21645 -0.21645,0.43291 0,-0.41487 -0.45095,-0.41487 -0.12626,0 -0.37879,0.0902 -0.25253,0.0721 -0.39683,0.0721 -0.0902,0 -0.25253,-0.0721 -0.1443,-0.0902 -0.30664,-0.0902 -0.16234,0 -0.48702,0.0902 -0.32467,0.0721 -0.50505,0.0721 -0.8117,0 -1.20853,-0.64936 0,-1.46105 -0.41487,-2.43509 v -3.98633 q 0,-0.48702 -0.12626,-1.46106 -0.10823,-0.97403 -0.10823,-1.46105 0,-0.70347 -0.4329,-0.84777 v -2.23668 l 0.19841,-0.19842 q 0.36076,0 1.1003,-0.10822 0.75759,-0.12627 1.13638,-0.12627 0.1443,0 0.41487,-0.0902 0.2886,-0.0902 0.4329,-0.0902 0.6674,0 0.91993,0.41486 0.25252,0.39683 0.64935,0.43291 -0.23449,0.0902 -0.23449,0.88385 1.46106,-1.98415 3.91419,-1.98415 0.95599,0 0.95599,2.56135 z m -10.15523,-0.77562 h -0.23449 l 0.23449,-0.23449 z m 0.6674,1.74966 -0.27057,-0.25253 h 0.27057 z m -1.28068,-1.31676 q 0,0.41487 -0.0721,0.64936 l -0.018,0.018 q -0.0721,-0.16234 -0.0721,-0.5231 0,-0.55916 0.0902,-0.81169 0.0721,0.23449 0.0721,0.66739 z m 0.19842,1.35283 q 0,0.41487 -0.10823,0.41487 -0.0361,-0.0902 -0.0541,-0.36076 v -0.18037 q 0.018,-0.34272 0.0721,-0.34272 0.0902,0 0.0902,0.46898 z m 0.25252,2.75977 q 0,0.34272 -0.0902,0.34272 -0.0541,0 -0.0541,-0.30664 v -0.14431 q 0,-0.27056 0.0541,-0.27056 0.0902,0 0.0902,0.37879 z m 0.19842,1.17245 v 0.10823 q 0,0.19841 -0.0361,0.37879 l -0.018,0.018 q -0.0541,0 -0.0541,-0.36076 v -0.10822 q 0,-0.30664 0.0721,-0.48702 0.0361,0.19841 0.0361,0.45094 z m -0.018,1.19049 q 0,0.0721 -0.018,0.19842 -0.018,0 -0.018,0 -0.0541,-0.0361 -0.0541,-0.18038 v -0.12627 q 0,-0.19841 0.0541,-0.19841 0.018,0.018 0.018,0.018 0.018,0.10822 0.018,0.18037 z m 0.37879,3.31894 q -0.23449,-0.43291 -0.23449,-1.29872 v -0.52309 q 0.23449,0.48702 0.23449,1.33479 z"
         style="font-style:normal;font-variant:normal;font-weight:normal;font-stretch:normal;font-family:'Broken 15';-inkscape-font-specification:'Broken 15, ';letter-spacing:5.84199858px;stroke-width:0.9235307px"
         id="path5609"
         inkscape:connector-curvature="0" />
    </g>
  </g>
</svg>
