<?xml version="1.0" encoding="UTF-8" standalone="no"?>
<!-- Generator: Adobe Illustrator 16.0.0, SVG Export Plug-In . SVG Version: 6.00 Build 0)  -->

<svg
   xmlns:osb="http://www.openswatchbook.org/uri/2009/osb"
   xmlns:dc="http://purl.org/dc/elements/1.1/"
   xmlns:cc="http://creativecommons.org/ns#"
   xmlns:rdf="http://www.w3.org/1999/02/22-rdf-syntax-ns#"
   xmlns:svg="http://www.w3.org/2000/svg"
   xmlns="http://www.w3.org/2000/svg"
   xmlns:xlink="http://www.w3.org/1999/xlink"
   xmlns:sodipodi="http://sodipodi.sourceforge.net/DTD/sodipodi-0.dtd"
   xmlns:inkscape="http://www.inkscape.org/namespaces/inkscape"
   version="1.1"
   id="root"
   x="0px"
   y="0px"
   width="1920px"
   height="1200px"
   viewBox="0 0 1920 1200"
   enable-background="new 0 0 1920 1200"
   xml:space="preserve"
   sodipodi:docname="NewLogosvg2cuba.svg"
   inkscape:version="0.92.1 r15371"
   inkscape:export-filename="/home/ticho/images/wallpapers/skyPng.png"
   inkscape:export-xdpi="96"
   inkscape:export-ydpi="96"><metadata
     id="metadata5557"><rdf:RDF><cc:Work
         rdf:about=""><dc:format>image/svg+xml</dc:format><dc:type
           rdf:resource="http://purl.org/dc/dcmitype/StillImage" /><dc:title /></cc:Work></rdf:RDF></metadata><defs
     id="defs5555"><linearGradient
       id="linearGradient8457"
       osb:paint="solid"><stop
         style="stop-color:#ffffff;stop-opacity:1;"
         offset="0"
         id="stop8455" /></linearGradient><filter
       inkscape:label="Eroded Metal"
       inkscape:menu="Materials"
       inkscape:menu-tooltip="Eroded metal texture with ridges, grooves, holes and bumps"
       style="color-interpolation-filters:sRGB;"
       id="filter4516"><feGaussianBlur
         result="result0"
         in="SourceGraphic"
         stdDeviation="1"
         id="feGaussianBlur4492" /><feTurbulence
         type="turbulence"
         baseFrequency="0.057"
         seed="4"
         numOctaves="4"
         result="result1"
         id="feTurbulence4494" /><feDisplacementMap
         xChannelSelector="R"
         in2="result1"
         result="result91"
         id="feDisplacementMap4496" /><feComposite
         result="result2"
         operator="out"
         in="result0"
         in2="result91"
         id="feComposite4498" /><feComposite
         k1="0.1"
         k3="1.2"
         in2="result2"
         in="SourceAlpha"
         operator="arithmetic"
         result="result5"
         id="feComposite4500" /><feBlend
         result="fbSourceGraphic"
         mode="multiply"
         in2="result5"
         id="feBlend4502" /><feGaussianBlur
         stdDeviation="3"
         in="fbSourceGraphic"
         result="result0"
         id="feGaussianBlur4504" /><feSpecularLighting
         in="result0"
         result="result1"
         lighting-color="rgb(254,230,93)"
         surfaceScale="3"
         specularConstant="0.4"
         specularExponent="15"
         id="feSpecularLighting4508"><fePointLight
           x="-5000"
           y="-10000"
           z="20000"
           id="fePointLight4506" /></feSpecularLighting><feComposite
         in2="fbSourceGraphic"
         in="result1"
         result="result2"
         operator="in"
         id="feComposite4510" /><feComposite
         k1="-1"
         in="fbSourceGraphic"
         result="result4"
         operator="arithmetic"
         k2="2.5"
         k3="3.5"
         in2="result2"
         id="feComposite4512" /><feBlend
         mode="multiply"
         in2="result4"
         id="feBlend4514" /></filter><filter
       inkscape:label="Age"
       inkscape:menu="Image Effects"
       inkscape:menu-tooltip="Imitate aged photograph"
       style="color-interpolation-filters:sRGB;"
       id="filter4550"><feColorMatrix
         type="saturate"
         in="SourceGraphic"
         values="0"
         id="feColorMatrix4538" /><feColorMatrix
         values="3 0 0 0 -0.3 0 3 0 0 -0.3 0 0 3 0 -0.3 0 0 0 1 0"
         result="result0"
         id="feColorMatrix4540" /><feTurbulence
         baseFrequency="0.111"
         numOctaves="2"
         type="fractalNoise"
         id="feTurbulence4542" /><feColorMatrix
         values="0 0 0 0 0 0 0 0 0 0 0 0 0 0 0 0 0 0 255 -200"
         id="feColorMatrix4544" /><feGaussianBlur
         stdDeviation="1"
         id="feGaussianBlur4546" /><feComposite
         in2="result0"
         operator="atop"
         id="feComposite4548" /></filter><filter
       inkscape:label="Film Grain"
       inkscape:menu="Image Effects"
       inkscape:menu-tooltip="Adds a small scale graininess"
       style="color-interpolation-filters:sRGB;"
       id="filter4590"><feTurbulence
         type="turbulence"
         numOctaves="10"
         baseFrequency="0.56100000000000005"
         seed="0"
         result="result0"
         id="feTurbulence4580" /><feColorMatrix
         result="result4"
         values="0"
         type="saturate"
         id="feColorMatrix4582" /><feComposite
         in="SourceGraphic"
         in2="result4"
         operator="arithmetic"
         k1="0.15000000000001065"
         k2="0.5"
         k3="0.5"
         result="result2"
         id="feComposite4584" /><feBlend
         result="result5"
         mode="normal"
         in="result2"
         in2="SourceGraphic"
         id="feBlend4586" /><feComposite
         in="result5"
         in2="SourceGraphic"
         operator="in"
         result="result3"
         id="feComposite4588" /></filter><linearGradient
       id="linearGradient7542"
       inkscape:collect="always"><stop
         id="stop7544"
         offset="0"
         style="stop-color:#a7e0ee;stop-opacity:1;" /><stop
         id="stop7546"
         offset="1"
         style="stop-color:#a7e0ee;stop-opacity:0;" /></linearGradient><linearGradient
       id="linearGradient7175"
       inkscape:collect="always"><stop
         id="stop7177"
         offset="0"
         style="stop-color:#92fff9;stop-opacity:1;" /><stop
         id="stop7179"
         offset="1"
         style="stop-color:#92fff9;stop-opacity:0;" /></linearGradient><linearGradient
       osb:paint="solid"
       id="linearGradient7163"><stop
         id="stop7165"
         offset="0"
         style="stop-color:#92fff9;stop-opacity:1;" /></linearGradient><linearGradient
       gradientUnits="userSpaceOnUse"
       y2="540"
       x2="1909.7681"
       y1="540"
       x1="10.231934"
       id="linearGradient7181"
       xlink:href="#linearGradient7175"
       inkscape:collect="always" /><linearGradient
       gradientUnits="userSpaceOnUse"
       y2="540"
       x2="1188.0228"
       y1="540"
       x1="731.97723"
       id="linearGradient7548"
       xlink:href="#linearGradient7542"
       inkscape:collect="always" /><filter
       id="filter7665"
       inkscape:label="Drop Shadow"
       style="color-interpolation-filters:sRGB"><feFlood
         id="feFlood7667"
         result="flood"
         flood-color="rgb(0,0,14)"
         flood-opacity="0.541176" /><feComposite
         id="feComposite7669"
         result="composite1"
         operator="in"
         in2="SourceGraphic"
         in="flood" /><feGaussianBlur
         id="feGaussianBlur7671"
         result="blur"
         stdDeviation="5.4"
         in="composite1" /><feOffset
         id="feOffset7673"
         result="offset"
         dy="1.38778e-16"
         dx="8.32667e-17" /><feComposite
         id="feComposite7675"
         result="composite2"
         operator="over"
         in2="offset"
         in="SourceGraphic" /></filter><filter
       inkscape:label="Film Grain"
       inkscape:menu="Image Effects"
       inkscape:menu-tooltip="Adds a small scale graininess"
       style="color-interpolation-filters:sRGB;"
       id="filter4577"><feTurbulence
         type="fractalNoise"
         numOctaves="1"
         baseFrequency="0.74199999999999999"
         seed="609"
         result="result0"
         id="feTurbulence4567" /><feColorMatrix
         result="result4"
         values="0"
         type="saturate"
         id="feColorMatrix4569" /><feComposite
         in="SourceGraphic"
         in2="result4"
         operator="arithmetic"
         k1="0.090000000000000246"
         k2="0.5"
         k3="0.5"
         result="result2"
         id="feComposite4571" /><feBlend
         result="result5"
         mode="normal"
         in="result2"
         in2="SourceGraphic"
         id="feBlend4573" /><feComposite
         in="result5"
         in2="SourceGraphic"
         operator="in"
         result="result3"
         id="feComposite4575" /></filter><filter
       inkscape:label="Film Grain"
       inkscape:menu="Image Effects"
       inkscape:menu-tooltip="Adds a small scale graininess"
       style="color-interpolation-filters:sRGB"
       id="filter4577-7"><feTurbulence
         type="fractalNoise"
         numOctaves="1"
         baseFrequency="0.74199999999999999"
         seed="609"
         result="result0"
         id="feTurbulence4567-9" /><feColorMatrix
         result="result4"
         values="0"
         type="saturate"
         id="feColorMatrix4569-7" /><feComposite
         k4="0"
         in="SourceGraphic"
         in2="result4"
         operator="arithmetic"
         k1="-1.31"
         k2="0.5"
         k3="0.5"
         result="result2"
         id="feComposite4571-4" /><feBlend
         result="result5"
         mode="normal"
         in="result2"
         in2="SourceGraphic"
         id="feBlend4573-9" /><feComposite
         in="result5"
         in2="SourceGraphic"
         operator="in"
         result="result3"
         id="feComposite4575-1" /></filter><filter
       y="-0.15000001"
       height="1.3"
       x="-0.15000001"
       width="1.3"
       inkscape:menu-tooltip="Aquarelle paper effect which can be used for pictures as for objects"
       inkscape:menu="Textures"
       inkscape:label="Rough Paper"
       style="color-interpolation-filters:sRGB"
       id="filter5365"><feTurbulence
         type="fractalNoise"
         baseFrequency="0.056000000000000015"
         numOctaves="5"
         seed="0"
         result="result4"
         id="feTurbulence5351" /><feDisplacementMap
         in="SourceGraphic"
         in2="result4"
         yChannelSelector="G"
         xChannelSelector="R"
         scale="5"
         result="result3"
         id="feDisplacementMap5353" /><feDiffuseLighting
         lighting-color="#e9e6d7"
         diffuseConstant="1"
         surfaceScale="-3.75399995"
         result="result1"
         in="result4"
         id="feDiffuseLighting5357"><feDistantLight
           azimuth="235"
           elevation="40"
           id="feDistantLight5355" /></feDiffuseLighting><feComposite
         operator="in"
         in="result3"
         in2="result1"
         result="result2"
         id="feComposite5359" /><feComposite
         k4="0"
         k3="0"
         k2="0"
         in2="result1"
         result="result5"
         operator="arithmetic"
         k1="1.7"
         id="feComposite5361" /><feBlend
         in="result5"
         in2="result3"
         mode="normal"
         id="feBlend5363" /></filter></defs><sodipodi:namedview
     pagecolor="#ffffff"
     bordercolor="#b4bd0f"
     borderopacity="1"
     objecttolerance="10"
     gridtolerance="10"
     guidetolerance="10"
     inkscape:pageopacity="0"
     inkscape:pageshadow="2"
     inkscape:window-width="1908"
     inkscape:window-height="1083"
     id="namedview5553"
     showgrid="false"
     showguides="true"
     inkscape:zoom="0.7071068"
     inkscape:cx="476.77769"
     inkscape:cy="737.45087"
     inkscape:window-x="6"
     inkscape:window-y="46"
     inkscape:window-maximized="1"
     inkscape:current-layer="root"
     inkscape:showpageshadow="false"
     borderlayer="true"><inkscape:grid
       type="xygrid"
       id="grid6792" /></sodipodi:namedview><rect
     style="display:inline;opacity:1;fill:#15344b;fill-opacity:1;fill-rule:nonzero;stroke:none;stroke-width:6.4609189;stroke-linecap:butt;stroke-linejoin:miter;stroke-miterlimit:0;stroke-dasharray:12.92183756, 6.4609188, 3.23045939, 6.4609188;stroke-dashoffset:0;stroke-opacity:1;paint-order:normal"
     id="rect8713-7"
     width="1986.4392"
     height="1258.74"
     x="-1969.2197"
     y="-1245.37"
     transform="scale(-1)"
     inkscape:label="back rect" /><rect
     style="display:inline;opacity:0.61627909;fill:#071f04;fill-opacity:1;fill-rule:nonzero;stroke:none;stroke-width:6.24815035;stroke-linecap:butt;stroke-linejoin:miter;stroke-miterlimit:0;stroke-dasharray:12.49630089, 6.24815045999999974, 3.12407521999999993, 6.24815045999999974;stroke-dashoffset:0;stroke-opacity:1;paint-order:normal;filter:url(#filter4577)"
     id="rect8713"
     width="1927.0422"
     height="1213.4851"
     x="-1928.9159"
     y="-1207.4669"
     transform="matrix(-1.0220682,0,0,-1.0212836,-29.848714,-19.229199)"
     inkscape:label="grain rect" /><g
     inkscape:groupmode="layer"
     id="layer4"
     inkscape:label="back" /><g
     inkscape:groupmode="layer"
     id="layer2"
     inkscape:label="stuff" /><path
     style="display:inline;opacity:1;fill:#090909;fill-opacity:1;stroke:none;stroke-width:1.5;stroke-miterlimit:4;stroke-dasharray:1.5, 1.5;stroke-dashoffset:0;stroke-opacity:1;filter:url(#filter5365)"
     d="m 958.26623,708.28616 c -0.1628,-0.42426 -0.1411,-1.80464 0.048,-3.06752 0.3534,-2.35698 1.0726,-3.204 9.2747,-10.92317 3.2506,-3.05926 11.4083,-20.58091 11.4083,-24.50361 0,-2.12236 -2.3413,-3.84735 -6.4906,-4.78204 -8.9876,-2.02458 -20.20297,-3.39711 -27.61137,-3.37904 -6.5279,0.0159 -13.5919,2.75505 -17.4385,6.76186 -3.8819,4.04369 -10.5393,15.86809 -11.0413,19.61099 -0.4606,3.43425 0.038,4.33663 3.8239,6.92359 3.7539,2.56489 4.6893,3.92955 4.6893,6.84102 0,2.11438 -2.7066,6.77923 -3.9334,6.77923 -0.4216,0 -0.6541,-0.29281 -0.5168,-0.6507 0.8458,-2.20418 1.423,-6.60082 0.9425,-7.17975 -0.9383,-1.13057 -4.9513,-2.87165 -7.3889,-3.20577 -2.2322,-0.30595 -2.4671,-0.22057 -4.0703,1.47937 -0.9358,0.99223 -2.1429,3.03198 -2.6824,4.53277 -1.3556,3.7712 -2.5592,3.73157 -2.3304,-0.0767 0.1398,-2.32708 0.053,-2.6925 -0.5094,-2.14303 -0.3955,0.38642 -0.6413,1.60841 -0.59,2.93296 0.1085,2.80459 -0.8192,3.01791 -2.0351,0.46797 -1.8605,-3.90143 -0.5256,-7.19156 3.8679,-9.53328 3.5584,-1.89657 4.2767,-3.00112 8.2187,-12.63794 1.5493,-3.78735 3.6313,-8.4631 4.6268,-10.39054 3.0999,-6.00183 2.6927,-7.58791 -3.5903,-13.98282 l -3.1049,-3.16029 -5.5664,3.34229 c -8.4466,5.0716 -8.8283,5.62752 -6.8529,9.98092 1.1281,2.48614 1.2827,4.86881 0.4989,7.69107 -0.6579,2.36877 -2.8131,4.98913 -4.1036,4.98913 -1.1747,0 -1.1933,-0.27253 -0.2097,-3.06048 1.1695,-3.31457 0.9973,-5.72506 -0.5101,-7.14114 l -1.2752,-1.19799 v 1.83248 c 0,4.27779 -1.4563,4.59305 -3.0523,0.66076 -0.6218,-1.53198 -1.4439,-3.04546 -1.8268,-3.36331 -1.1122,-0.92298 -8.5454,1.75853 -10.4621,3.77414 -1.4375,1.51169 -1.5725,1.55379 -2.2221,0.6931 -0.9115,-1.20764 -0.4719,-2.76365 1.3982,-4.94958 2.0437,-2.38877 3.0101,-2.84853 7.4152,-3.52753 4.6836,-0.72193 5.9573,-1.37423 11.0969,-5.68327 2.2727,-1.90546 5.8841,-4.54558 8.0252,-5.86695 l 3.893,-2.40248 -2.4143,-1.5237 c -3.2435,-2.04699 -10.7976,-9.47786 -14.1973,-13.96587 -1.5166,-2.00208 -3.702,-4.49344 -4.8564,-5.53636 l -2.0989,-1.8962 -3.3829,0.36153 c -1.8605,0.19885 -7.6293,1.24001 -12.8194,2.3137 -5.19,1.07369 -13.4533,2.77154 -18.3629,3.77301 -14.3149,2.92002 -16.2721,3.41693 -17.9728,4.563 -2.2354,1.50645 -3.3618,3.6636 -4.1942,8.0319 -0.8208,4.30778 -1.8968,5.55062 -4.7962,5.53975 -2.8017,-0.0105 -4.1517,-0.51231 -4.1517,-1.54322 0,-0.6008 0.6222,-1.12645 1.7892,-1.5116 2.2304,-0.73609 2.8015,-1.77636 2.8015,-5.10267 0,-1.90741 0.3639,-3.24161 1.3372,-4.90234 0.7354,-1.25495 1.239,-2.3799 1.119,-2.49989 -0.4481,-0.44809 -3.8342,0.80826 -5.5093,2.04412 -2.923,2.15652 -4.4639,1.47466 -4.9558,-2.19304 l -0.2661,-1.98342 -3.2974,1.0065 c -2.4876,0.75929 -3.4417,0.86223 -3.8848,0.41913 -0.8643,-0.86424 0.026,-2.02684 3.2541,-4.24959 4.8917,-3.3683 8.6326,-3.6094 8.6326,-0.55638 0,1.29285 0.068,1.3203 2.5313,1.02851 1.3922,-0.16489 3.154,-0.62607 3.9151,-1.02486 l 1.3838,-0.72507 -1.3061,-1.3061 c -1.403,-1.40309 -4.9001,-2.59687 -6.1746,-2.1078 -1.1597,0.44502 -2.8999,-0.68515 -2.8999,-1.88331 0,-0.57639 0.5164,-1.50205 1.1476,-2.05704 0.6842,-0.60154 0.3274,-0.48006 -0.8835,0.3008 -2.3939,1.54377 -3.3246,1.65282 -3.3246,0.38956 0,-1.26058 2.7598,-5.51394 4.0128,-6.18456 2.3871,-1.27751 3.7679,-0.47264 4.9154,2.86507 0.5155,1.49964 1.0544,2.03084 2.6043,2.56743 2.3685,0.82 4.5505,2.81035 5.8496,5.33584 0.5314,1.033 1.2026,2.02427 1.4914,2.2028 0.9849,0.6087 9.4251,0.28408 13.7716,-0.52968 7.6055,-1.42388 12.899,-2.86925 28.3095,-7.72978 9.0626,-2.85836 9.7871,-4.31676 7.2065,-14.5068 -1.6139,-6.37256 -4.9109,-15.70733 -6.0554,-17.1444 -0.2778,-0.34875 -1.1378,-1.97214 -1.9112,-3.60754 -1.2656,-2.67597 -1.6806,-3.09062 -4.1487,-4.14467 -5.3965,-2.30473 -14.1055,-6.34241 -22.6355,-10.49436 -23.3374,-11.35929 -29.144,-14.14309 -32.0478,-15.36423 -1.7313,-0.72807 -4.7401,-2.12508 -6.6863,-3.10449 l -3.5384,-1.78072 -3.7686,4.00758 c -16.2891,17.32194 -23.8507,23.67456 -35.4223,29.75877 -9.9627,5.23833 -19.2276,5.64388 -26.0341,1.13957 -1.9829,-1.31224 -2.0059,-1.31468 -3.7135,-0.39507 -2.4396,1.31381 -3.5064,3.82221 -3.0991,7.28715 0.493,4.19491 -0.3434,6.42589 -3.7054,9.88297 -1.6081,1.65363 -3.2896,3.00659 -3.7368,3.00659 -1.5568,0 -1.4808,-1.6203 0.1986,-4.23754 1.28,-1.99464 1.6545,-3.13922 1.6677,-5.09633 0.023,-3.46523 -0.7435,-3.88997 -4.8034,-2.66072 -2.8309,0.85712 -3.2054,0.87188 -3.9227,0.15459 -1.158,-1.15793 -0.253,-2.47468 2.8682,-4.17344 1.6842,-0.91669 3.4165,-1.43445 4.8728,-1.45646 1.6988,-0.0257 2.3312,-0.25934 2.5476,-0.94139 0.3629,-1.14315 4.8265,-5.86025 5.8506,-6.18279 0.6454,-0.20326 0.5789,-0.62836 -0.4248,-2.71642 -2.4765,-5.15181 -3.6558,-9.01043 -3.6558,-11.96105 0,-6.3761 3.927,-17.52915 8.5539,-24.29413 2.1707,-3.17371 11.2756,-12.36367 13.3044,-13.42862 1.1246,-0.59032 0.7877,-0.81529 -5.3558,-3.57684 -11.317,-5.08702 -21.6033,-10.17129 -21.6033,-10.67798 0,-1.1517 -3.0724,-3.92912 -9.5979,-8.67641 -8.9204,-6.4896 -15.9062,-12.92156 -15.9062,-14.64526 0,-0.68727 0.3193,-1.3721 0.7095,-1.52184 0.3902,-0.14973 5.8417,2.37173 12.1144,5.60326 13.2507,6.82636 17.4438,8.5445 19.8974,8.15307 0.9401,-0.14996 4.8079,0.09 8.5953,0.53319 11.6096,1.35864 18.3987,0.9859 40.5514,-2.22638 5.8914,-0.85429 11.9742,-1.73163 13.5172,-1.94964 1.5429,-0.218 5.6811,-0.24539 9.1959,-0.0609 5.4548,0.28637 7.2052,0.6081 11.954,2.19715 11.7208,3.92204 26.1469,12.54223 47.4559,28.35691 10.9629,8.1362 14.0182,9.68549 19.1001,9.68549 4.0758,0 8.4501,-0.97808 18.0423,-4.03421 16.039,-5.1101 22.675,-5.38593 31.2084,-1.29717 4.4713,2.14239 7.5404,4.65413 10.8975,8.91841 1.4427,1.83258 4.057,4.74187 5.8094,6.46506 l 3.1863,3.13308 3.8256,-0.71125 c 10.86187,-2.01942 14.59067,-3.33327 18.02967,-6.35272 1.0536,-0.92505 2.2481,-2.32504 2.6546,-3.1111 1.4049,-2.71672 0.9884,-3.92695 -2.5521,-7.41554 -3.8498,-3.79347 -4.6884,-5.84858 -3.6346,-8.90739 1.3945,-4.04735 5.3747,-8.1617 11.2417,-11.62041 4.0504,-2.38778 12.8224,-5.70678 17.0468,-6.44987 5.46857,-0.96193 17.46767,-0.972 25.07407,-0.021 7.8938,0.9869 23.3348,4.82112 33.901,8.4181 8.2512,2.80893 28.4513,11.36261 33.043,13.992 1.9402,1.11098 5.1246,2.55717 19.2403,8.73785 6.0589,2.65296 26.6261,10.9679 27.1293,10.9679 0.7917,0 0.41,-3.7691 -0.5912,-5.8373 -0.5535,-1.14331 -2.5454,-3.76506 -4.4265,-5.8261 -2.7615,-3.0257 -3.3186,-3.90829 -2.8929,-4.58312 0.2899,-0.45967 3.1426,-2.71935 6.3392,-5.0215 6.7596,-4.86811 11.3046,-9.51323 16.6222,-16.98804 7.0381,-9.89339 15.7531,-18.36292 18.8953,-18.36292 1.9437,0 1.4065,1.94711 -2.3896,8.66072 -4.9464,8.74804 -5.8684,12.58227 -5.8291,24.2395 0.024,7.01766 0.2937,10.2113 1.4156,16.74604 0.7625,4.44106 1.3155,8.68748 1.2289,9.4365 -0.1471,1.27241 -0.3081,1.35368 -2.4528,1.23778 -9.379,-0.50686 -12.5087,-0.37806 -13.9107,0.57248 l -1.4137,0.95852 4.134,2.33483 c 4.632,2.61607 11.924,8.5229 16.5621,13.41598 1.6921,1.78501 5.8801,6.59949 9.3067,10.69883 3.4267,4.09936 8.9326,10.29684 12.2355,13.77219 8.7312,9.18737 12.2694,14.10967 17.2468,23.99349 7.2697,14.43557 12.9415,37.89419 11.4643,47.41545 -0.6436,4.14829 -1.5221,6.1308 -3.7814,8.53375 -3.3244,3.53593 -9.1613,5.18436 -19.7085,5.56605 -12.3477,0.44685 -14.1407,-2.08521 -5.1492,-7.2715 4.0482,-2.33502 6.346,-4.32937 5.3807,-4.67011 -0.2935,-0.1036 -1.7131,-0.96511 -3.1546,-1.91447 -3.9092,-2.57454 -10.7996,-6.38903 -18.2452,-10.10057 l -6.6311,-3.30545 -8.7385,-0.606 c -15.0036,-1.04046 -18.8059,-2.03118 -18.8059,-4.90007 0,-1.30738 0.5661,-1.95166 3.9532,-4.49951 2.1742,-1.63551 3.9377,-3.24424 3.9188,-3.57495 -0.019,-0.33072 -1.5154,-1.86375 -3.3256,-3.40674 -1.8102,-1.543 -5.0657,-4.34842 -7.2344,-6.23427 -2.1686,-1.88585 -4.0788,-3.43523 -4.2448,-3.44305 -0.166,-0.008 -0.5738,0.89358 -0.9063,2.00311 -0.8217,2.74263 -2.9031,5.1238 -4.4787,5.1238 -1.7174,0 -6.0496,-4.17898 -9.427,-9.09362 -6.6407,-9.6633 -13.0121,-17.64009 -18.6126,-23.3025 -3.333,-3.36983 -6.6823,-6.44525 -7.443,-6.83427 -1.3026,-0.66612 -1.7482,-0.52662 -7.6513,2.39496 -3.4474,1.70625 -7.4157,3.86762 -8.8185,4.80305 -5.1249,3.41765 -15.2826,8.98152 -27.7994,15.22708 -4.3484,2.16977 -9.102,4.75099 -10.5635,5.73606 -1.4615,0.98506 -5.3831,3.40399 -8.7146,5.37541 -3.3315,1.97141 -7.0707,4.35685 -8.3094,5.30097 -1.2387,0.94413 -3.7267,2.71685 -5.5289,3.93939 -4.1198,2.79478 -9.5939,8.22922 -10.0269,9.95427 -0.4996,1.9907 3.6889,8.49427 9.733,15.1127 5.7039,6.24584 8.725,8.66574 15.8573,12.70175 5.8293,3.29873 10.4119,7.80208 10.4119,10.232 0,1.97556 -0.6611,1.89487 -3.7823,-0.46167 -1.4298,-1.07955 -3.3566,-2.35421 -4.2816,-2.83257 l -1.6819,-0.86974 0.7922,1.53204 c 1.8894,3.65355 0.1429,5.43422 -2.3561,2.40241 -1.8532,-2.24821 -4.8687,-3.88118 -7.1604,-3.87751 -2.5754,0.004 -4.4766,1.48643 -6.2195,4.84917 -0.8688,1.67621 -1.9813,3.12338 -2.4722,3.21595 -0.7682,0.14483 -0.8911,-0.24583 -0.8815,-2.80208 0.013,-3.33023 1.0404,-5.9885 3.4928,-9.03395 2.5654,-3.18563 2.8706,-2.57339 -7.0783,-14.19815 -2.9478,-3.44436 -6.1127,-7.22467 -7.0331,-8.40071 -1.6275,-2.07971 -4.49607,-4.23777 -5.63287,-4.23777 -1.0235,0 -8.6897,9.29998 -10.4803,12.71378 -0.9675,1.84457 -2.4641,5.13201 -3.3259,7.30541 -0.8617,2.17341 -2.6026,6.01405 -3.8686,8.53477 -1.266,2.52072 -2.8881,6.32964 -3.6046,8.46428 -1.1956,3.56167 -1.2387,3.97914 -0.5232,5.07122 0.4289,0.65452 1.2489,1.33893 1.8222,1.5209 1.2537,0.3979 4.0583,6.79794 4.0801,9.31053 0.012,1.41471 -1.6293,0.49445 -3.3228,-1.86281 -2.5878,-3.60194 -3.1436,-3.62542 -2.9265,-0.12356 0.2972,4.79482 -1.753,5.79866 -2.8604,1.40054 -0.7058,-2.80303 -2.3197,-4.09183 -4.4755,-3.57402 -2.5916,0.6225 -4.2267,1.71829 -5.0783,3.40337 -0.9456,1.87105 -2.7167,3.94449 -3.3694,3.94449 -0.2405,0 -0.5704,-0.34713 -0.7332,-0.77139 z m 93.94827,-111.71437 c 2.4808,-0.63491 20.6379,-9.21929 20.6379,-9.75726 0,-0.2387 -3.8689,-3.73563 -8.6714,-7.83766 -6.2575,-5.34485 -11.2618,-10.22426 -10.97,-10.69629 0.2224,-0.35982 1.5214,-0.18479 5.7417,0.77361 3.1598,0.71757 -0.3201,-5.37744 -6.7239,-11.77693 -7.4506,-7.44555 -11.4249,-9.88102 -22.2189,-13.61582 -5.2092,-1.80244 -6.4446,-2.03871 -10.971,-2.0983 -4.6625,-0.0614 -5.2982,0.0489 -7.3968,1.28269 -4.5865,2.69651 -5.6103,5.12006 -5.6103,13.28139 0,6.47413 0.7282,11.82512 2.1146,15.53894 0.9006,2.41258 1.4789,2.99252 7.1214,7.14114 3.3777,2.48342 6.6409,4.95091 7.2515,5.48331 0.6107,0.5324 3.4554,2.48346 6.3217,4.33569 13.4303,8.6788 16.4703,9.71219 23.3735,7.94549 z"
     id="path6168-3"
     inkscape:connector-curvature="0"
     inkscape:label="logo" /></svg>