<?xml version="1.0" encoding="UTF-8" standalone="no"?>
<!-- Created with Inkscape (http://www.inkscape.org/) -->

<svg
   xmlns:dc="http://purl.org/dc/elements/1.1/"
   xmlns:cc="http://creativecommons.org/ns#"
   xmlns:rdf="http://www.w3.org/1999/02/22-rdf-syntax-ns#"
   xmlns:svg="http://www.w3.org/2000/svg"
   xmlns="http://www.w3.org/2000/svg"
   xmlns:sodipodi="http://sodipodi.sourceforge.net/DTD/sodipodi-0.dtd"
   xmlns:inkscape="http://www.inkscape.org/namespaces/inkscape"
   width="1920"
   height="1200"
   viewBox="0 0 508.00001 317.50001"
   version="1.1"
   id="svg8"
   inkscape:version="0.92.1 r15371"
   sodipodi:docname="NewLogosvgJustLogo.svg">
  <title
     id="title4490">1920x1080</title>
  <defs
     id="defs2" />
  <sodipodi:namedview
     id="base"
     pagecolor="#636363"
     bordercolor="#666666"
     borderopacity="1.0"
     inkscape:pageopacity="0"
     inkscape:pageshadow="2"
     inkscape:zoom="0.49497475"
     inkscape:cx="929.85691"
     inkscape:cy="510.55484"
     inkscape:document-units="px"
     inkscape:current-layer="layer1"
     showgrid="false"
     inkscape:showpageshadow="false"
     inkscape:pagecheckerboard="true"
     units="px"
     inkscape:window-width="1914"
     inkscape:window-height="1088"
     inkscape:window-x="6"
     inkscape:window-y="46"
     inkscape:window-maximized="1"
     showguides="true"
     inkscape:guide-bbox="true"
     guidecolor="#05157e"
     guideopacity="0.13333333">
    <sodipodi:guide
       position="25.400001,0"
       orientation="1,0"
       id="guide4483"
       inkscape:locked="false"
       inkscape:label=""
       inkscape:color="rgb(4,102,16)" />
    <sodipodi:guide
       position="482.60001,0"
       orientation="1,0"
       id="guide4485"
       inkscape:locked="false"
       inkscape:label=""
       inkscape:color="rgb(3,73,12)" />
    <sodipodi:guide
       position="510.64585,14.2875"
       orientation="0,1"
       id="guide4487"
       inkscape:locked="false"
       inkscape:label="1920x1080, HDTV 10% title safe"
       inkscape:color="rgb(3,73,12)" />
    <sodipodi:guide
       position="0,271.46251"
       orientation="0,1"
       id="guide4489"
       inkscape:locked="false"
       inkscape:label=""
       inkscape:color="rgb(3,73,12)" />
  </sodipodi:namedview>
  <metadata
     id="metadata5">
    <rdf:RDF>
      <cc:Work
         rdf:about="">
        <dc:format>image/svg+xml</dc:format>
        <dc:type
           rdf:resource="http://purl.org/dc/dcmitype/StillImage" />
        <dc:title>1920x1080</dc:title>
        <cc:license
           rdf:resource="http://artlibre.org/licence/lal" />
        <dc:publisher>
          <cc:Agent>
            <dc:title>brontosaurusrex</dc:title>
          </cc:Agent>
        </dc:publisher>
      </cc:Work>
      <cc:License
         rdf:about="http://artlibre.org/licence/lal">
        <cc:permits
           rdf:resource="http://creativecommons.org/ns#Reproduction" />
        <cc:permits
           rdf:resource="http://creativecommons.org/ns#Distribution" />
        <cc:permits
           rdf:resource="http://creativecommons.org/ns#DerivativeWorks" />
        <cc:requires
           rdf:resource="http://creativecommons.org/ns#ShareAlike" />
        <cc:requires
           rdf:resource="http://creativecommons.org/ns#Notice" />
        <cc:requires
           rdf:resource="http://creativecommons.org/ns#Attribution" />
      </cc:License>
    </rdf:RDF>
  </metadata>
  <g
     inkscape:label="Layer 1"
     inkscape:groupmode="layer"
     id="layer1"
     transform="translate(0,20.500022)">
    <path
       style="display:inline;opacity:0.55800003;fill:#000000;fill-opacity:1;stroke-width:0.1454657"
       d="m 253.5056,169.13113 c -0.0464,-0.12099 -0.0402,-0.51465 0.0137,-0.8748 0.10078,-0.67217 0.30588,-0.91372 2.64497,-3.11508 0.92702,-0.87245 3.25345,-5.86931 3.25345,-6.98799 0,-0.60525 -0.6677,-1.09719 -1.85101,-1.36375 -2.5631,-0.57737 -5.76152,-0.96879 -7.87426,-0.96364 -1.86164,0.004 -3.87616,0.78569 -4.97314,1.92836 -1.10705,1.15318 -3.00561,4.52529 -3.14877,5.59269 -0.13136,0.97939 0.0109,1.23673 1.09051,1.97449 1.07054,0.73145 1.3373,1.12063 1.3373,1.95093 0,0.60298 -0.77187,1.93331 -1.12173,1.93331 -0.12024,0 -0.18655,-0.0835 -0.14739,-0.18557 0.2412,-0.62858 0.40581,-1.88243 0.26878,-2.04753 -0.26758,-0.32242 -1.41201,-0.81894 -2.10717,-0.91423 -0.63658,-0.0873 -0.70358,-0.0629 -1.16079,0.4219 -0.26686,0.28295 -0.61111,0.86466 -0.76496,1.29265 -0.38659,1.07548 -0.72984,1.06418 -0.66459,-0.0219 0.0399,-0.66364 0.0151,-0.76785 -0.14527,-0.61115 -0.11279,0.1102 -0.18288,0.45869 -0.16826,0.83642 0.0309,0.79982 -0.23362,0.86066 -0.58037,0.13346 -0.53058,-1.11261 -0.14989,-2.0509 1.10306,-2.71872 1.01478,-0.54086 1.21963,-0.85585 2.34382,-3.60409 0.44183,-1.08009 1.03558,-2.41353 1.31947,-2.9632 0.88403,-1.71161 0.76792,-2.16393 -1.02388,-3.98764 l -0.88547,-0.90126 -1.58743,0.95316 c -2.40881,1.44633 -2.51766,1.60486 -1.95432,2.84638 0.32171,0.709 0.36581,1.38849 0.14227,2.19335 -0.18761,0.67553 -0.80223,1.42281 -1.17026,1.42281 -0.33501,0 -0.34032,-0.0777 -0.0598,-0.87279 0.33352,-0.94526 0.28442,-1.63269 -0.14546,-2.03653 l -0.36367,-0.34165 v 0.52259 c 0,1.21994 -0.41532,1.30986 -0.87046,0.18844 -0.17733,-0.4369 -0.41177,-0.86851 -0.52097,-0.95916 -0.31718,-0.26321 -2.43699,0.5015 -2.9836,1.07632 -0.40995,0.43111 -0.44845,0.44311 -0.6337,0.19766 -0.25995,-0.3444 -0.13458,-0.78815 0.39874,-1.41153 0.58282,-0.68124 0.85842,-0.81235 2.11468,-1.00599 1.33567,-0.20588 1.69891,-0.3919 3.16462,-1.62076 0.64814,-0.5434 1.67805,-1.29632 2.28865,-1.67315 l 1.11021,-0.68514 -0.68851,-0.43453 c -0.92499,-0.58377 -3.07928,-2.70291 -4.04881,-3.98281 -0.43251,-0.57095 -1.05575,-1.28145 -1.38495,-1.57887 l -0.59858,-0.54076 -0.96474,0.10315 c -0.53057,0.0567 -2.17573,0.35363 -3.65586,0.65983 -1.48008,0.30619 -3.83663,0.79038 -5.23675,1.07598 -4.08235,0.83274 -4.64051,0.97446 -5.12552,1.30129 -0.6375,0.42961 -0.95872,1.0448 -1.1961,2.29055 -0.23408,1.2285 -0.54093,1.58294 -1.3678,1.57984 -0.79899,-0.003 -1.18398,-0.14611 -1.18398,-0.4401 0,-0.17134 0.17744,-0.32124 0.51024,-0.43108 0.63607,-0.20992 0.79894,-0.50659 0.79894,-1.45519 0,-0.54395 0.10379,-0.92445 0.38135,-1.39805 0.20972,-0.35789 0.35333,-0.67872 0.31911,-0.71293 -0.12779,-0.12779 -1.09344,0.2305 -1.57115,0.58295 -0.83358,0.615 -1.27302,0.42054 -1.4133,-0.62541 l -0.0759,-0.56564 -0.94035,0.28703 c -0.70942,0.21653 -0.98152,0.24589 -1.10788,0.11953 -0.24649,-0.24647 0.008,-0.57801 0.928,-1.21191 1.39502,-0.96057 2.46186,-1.02933 2.46186,-0.15867 0,0.3687 0.0194,0.37653 0.72188,0.29332 0.39704,-0.047 0.89947,-0.17855 1.11651,-0.29227 l 0.39464,-0.20678 -0.37247,-0.37247 c -0.40011,-0.40014 -1.39742,-0.74058 -1.76088,-0.60111 -0.33073,0.12691 -0.827,-0.19539 -0.827,-0.53709 0,-0.16438 0.14726,-0.42835 0.32728,-0.58662 0.19511,-0.17155 0.0933,-0.13691 -0.25196,0.0858 -0.6827,0.44025 -0.94812,0.47135 -0.94812,0.1111 0,-0.3595 0.78704,-1.57248 1.14437,-1.76372 0.68076,-0.36433 1.07454,-0.1348 1.40179,0.81706 0.14701,0.42767 0.30069,0.57915 0.74269,0.73218 0.67546,0.23385 1.29773,0.80147 1.66821,1.52169 0.15154,0.29458 0.34296,0.57728 0.42532,0.62819 0.28087,0.1736 2.68786,0.0811 3.9274,-0.15105 2.16895,-0.40607 3.67855,-0.81826 8.07335,-2.20439 2.58449,-0.81516 2.7911,-1.23107 2.05517,-4.13708 -0.46027,-1.81733 -1.40051,-4.47944 -1.7269,-4.88926 -0.0792,-0.0995 -0.32448,-0.56242 -0.54503,-1.02881 -0.36093,-0.76313 -0.47928,-0.88138 -1.18314,-1.18198 -1.53899,-0.65727 -4.02263,-1.80873 -6.45523,-2.9928 -6.6554,-3.23947 -8.31134,-4.03336 -9.13945,-4.38161 -0.49373,-0.20762 -1.35179,-0.60603 -1.90681,-0.88533 l -1.00908,-0.50783 -1.07474,1.14289 c -4.64534,4.93989 -6.80178,6.75154 -10.10178,8.48665 -2.84119,1.49388 -5.48336,1.60953 -7.42445,0.32498 -0.56549,-0.37423 -0.57205,-0.37492 -1.05902,-0.11267 -0.69574,0.37467 -0.99997,1.09003 -0.88381,2.07816 0.1406,1.19631 -0.098,1.83255 -1.05671,2.81845 -0.4586,0.47158 -0.93813,0.85742 -1.06567,0.85742 -0.44397,0 -0.4223,-0.46208 0.0566,-1.20847 0.36504,-0.56884 0.47184,-0.89524 0.4756,-1.45337 0.006,-0.98822 -0.21203,-1.10935 -1.36984,-0.75879 -0.80732,0.24442 -0.91412,0.24864 -1.11868,0.0441 -0.33024,-0.33022 -0.0721,-0.70573 0.81796,-1.19019 0.4803,-0.26143 0.97431,-0.40908 1.38963,-0.41535 0.48446,-0.008 0.66481,-0.0739 0.72653,-0.26847 0.10347,-0.32601 1.37643,-1.67123 1.66848,-1.76322 0.18405,-0.058 0.16509,-0.1792 -0.12114,-0.77467 -0.70625,-1.4692 -1.04257,-2.56961 -1.04257,-3.41108 0,-1.81835 1.11991,-4.99899 2.43941,-6.92824 0.61905,-0.90508 3.2156,-3.52589 3.79418,-3.82959 0.32072,-0.16835 0.22464,-0.23251 -1.52738,-1.02005 -3.2274,-1.45072 -6.16086,-2.90066 -6.16086,-3.04516 0,-0.32845 -0.8762,-1.12052 -2.73715,-2.47436 -2.54394,-1.85071 -4.53615,-3.68499 -4.53615,-4.17655 0,-0.196 0.0911,-0.3913 0.20233,-0.43401 0.11128,-0.0427 1.66594,0.67638 3.45481,1.59795 3.77885,1.94675 4.97465,2.43674 5.67437,2.32511 0.2681,-0.0428 1.37113,0.0257 2.45122,0.15205 3.31085,0.38746 5.24697,0.28116 11.56452,-0.63492 1.68011,-0.24363 3.41482,-0.49383 3.85485,-0.556 0.44001,-0.0622 1.62015,-0.07 2.6225,-0.0174 1.55561,0.0817 2.05479,0.17342 3.40906,0.62658 3.34256,1.1185 7.45662,3.57682 13.53355,8.08688 3.12641,2.32029 3.99774,2.76212 5.447,2.76212 1.16234,0 2.40981,-0.27894 5.14533,-1.15049 4.57403,-1.45731 6.46649,-1.53597 8.90007,-0.36993 1.27513,0.61097 2.15037,1.32728 3.10775,2.54337 0.41144,0.52262 1.15699,1.35229 1.65674,1.84372 l 0.90868,0.89349 1.09099,-0.20283 c 3.09761,-0.5759 4.16099,-0.95059 5.14173,-1.81168 0.30047,-0.26381 0.64112,-0.66305 0.75705,-0.88723 0.40065,-0.77476 0.28187,-1.11989 -0.72782,-2.11477 -1.09789,-1.08183 -1.33704,-1.66791 -1.03651,-2.54023 0.39768,-1.15423 1.53276,-2.32756 3.20593,-3.31392 1.15509,-0.68095 3.65671,-1.62747 4.86142,-1.83939 1.55954,-0.27432 4.98146,-0.27719 7.15067,-0.006 2.25116,0.28145 6.65466,1.3749 9.66794,2.40069 2.35309,0.80105 8.11379,3.24041 9.42326,3.99027 0.55331,0.31682 1.46144,0.72925 5.48698,2.49187 1.72788,0.75658 7.59327,3.12784 7.73678,3.12784 0.22577,0 0.11692,-1.07488 -0.1686,-1.66469 -0.15785,-0.32605 -0.7259,-1.07372 -1.26236,-1.66149 -0.78753,-0.86288 -0.94641,-1.11458 -0.825,-1.30703 0.0827,-0.13109 0.89621,-0.7755 1.80782,-1.43203 1.92771,-1.3883 3.22386,-2.71301 4.74035,-4.84469 2.00714,-2.82141 4.49249,-5.23676 5.38859,-5.23676 0.5543,0 0.40111,0.55528 -0.68148,2.46987 -1.41061,2.49478 -1.67355,3.58824 -1.66235,6.91267 0.006,2.00131 0.0838,2.91207 0.40371,4.77565 0.21745,1.26651 0.37516,2.47752 0.35046,2.69112 -0.0419,0.36287 -0.0879,0.38605 -0.6995,0.353 -2.67471,-0.14455 -3.56724,-0.10782 -3.96707,0.16326 l -0.40316,0.27335 1.17894,0.66586 c 1.32096,0.74604 3.4005,2.43056 4.7232,3.82598 0.48257,0.50905 1.6769,1.88205 2.6541,3.05111 0.97724,1.16906 2.54742,2.93647 3.48934,3.92757 2.48998,2.62008 3.49901,4.02383 4.91848,6.84251 2.07318,4.11675 3.69067,10.80672 3.2694,13.52201 -0.18355,1.18302 -0.43407,1.7484 -1.07838,2.43367 -0.94807,1.00839 -2.61264,1.47848 -5.62051,1.58733 -3.52133,0.12744 -4.03266,-0.59466 -1.46845,-2.0737 1.15447,-0.66589 1.80976,-1.23464 1.53448,-1.33182 -0.0838,-0.0295 -0.48855,-0.27523 -0.89964,-0.54598 -1.11483,-0.73421 -3.07984,-1.82203 -5.2032,-2.88049 l -1.89106,-0.94266 -2.49207,-0.17281 c -4.27874,-0.29672 -5.36308,-0.57926 -5.36308,-1.39741 0,-0.37284 0.16144,-0.55658 1.12737,-1.28318 0.62004,-0.46641 1.12296,-0.9252 1.11757,-1.01951 -0.005,-0.0943 -0.43216,-0.5315 -0.9484,-0.97154 -0.51623,-0.44004 -1.44464,-1.24009 -2.06311,-1.7779 -0.61845,-0.53781 -1.16321,-0.97966 -1.21055,-0.98189 -0.0473,-0.002 -0.16363,0.25482 -0.25846,0.57125 -0.23433,0.78214 -0.82791,1.46121 -1.27724,1.46121 -0.48977,0 -1.72523,-1.19177 -2.6884,-2.59333 -1.89381,-2.7558 -3.71082,-5.03063 -5.30798,-6.64544 -0.95051,-0.96102 -1.90566,-1.83808 -2.1226,-1.94902 -0.37148,-0.18996 -0.49856,-0.15018 -2.18201,0.683 -0.98313,0.48659 -2.11482,1.10298 -2.51488,1.36975 -1.46152,0.97465 -4.35831,2.56136 -7.92788,4.34248 -1.24008,0.61877 -2.59572,1.35489 -3.01252,1.63581 -0.41678,0.28092 -1.53515,0.97076 -2.48523,1.53298 -0.95009,0.5622 -2.01644,1.24249 -2.36969,1.51174 -0.35326,0.26924 -1.06279,0.77479 -1.57675,1.12343 -1.17489,0.79703 -2.736,2.34683 -2.85949,2.83878 -0.14247,0.56771 1.05201,2.42241 2.77568,4.30987 1.62665,1.78119 2.48821,2.47131 4.52221,3.6223 1.66241,0.94074 2.96928,2.22501 2.96928,2.91797 0,0.5634 -0.18853,0.54038 -1.07864,-0.13166 -0.40775,-0.30786 -0.95724,-0.67137 -1.22104,-0.80779 l -0.47964,-0.24804 0.22592,0.43692 c 0.53883,1.04192 0.0407,1.54973 -0.67191,0.68511 -0.52851,-0.64113 -1.38847,-1.10683 -2.04202,-1.10578 -0.73445,10e-4 -1.27664,0.42389 -1.77369,1.38289 -0.24776,0.47803 -0.56503,0.89073 -0.70502,0.91713 -0.21908,0.0413 -0.25413,-0.0701 -0.2514,-0.79911 0.003,-0.94971 0.29671,-1.70781 0.99609,-2.57631 0.7316,-0.90849 0.81864,-0.73389 -2.0186,-4.04905 -0.84066,-0.98226 -1.74323,-2.06034 -2.00571,-2.39573 -0.46413,-0.59309 -1.28219,-1.20854 -1.60639,-1.20854 -0.29188,0 -2.47814,2.65219 -2.98879,3.62574 -0.27591,0.52604 -0.70272,1.46355 -0.94848,2.08337 -0.24575,0.61982 -0.74222,1.7151 -1.10326,2.43397 -0.36103,0.71886 -0.82363,1.80508 -1.02797,2.41384 -0.34095,1.01573 -0.35325,1.13479 -0.1492,1.44622 0.12231,0.18666 0.35616,0.38184 0.51966,0.43374 0.35752,0.11348 1.15734,1.93865 1.16356,2.65519 0.003,0.40345 -0.46464,0.14101 -0.9476,-0.53124 -0.73798,-1.0272 -0.89649,-1.0339 -0.83458,-0.0352 0.0847,1.3674 -0.49992,1.65368 -0.81573,0.39941 -0.20129,-0.79936 -0.66154,-1.16691 -1.27634,-1.01923 -0.73907,0.17752 -1.20537,0.49002 -1.44823,0.97057 -0.26967,0.53359 -0.77475,1.1249 -0.9609,1.1249 -0.0685,0 -0.16265,-0.0991 -0.20909,-0.21999 z m 26.79232,-31.85888 c 0.70748,-0.18107 5.88555,-2.62917 5.88555,-2.7826 0,-0.0681 -1.10333,-1.06532 -2.47293,-2.23515 -1.78452,-1.52425 -3.21165,-2.91577 -3.12843,-3.05038 0.0634,-0.10261 0.43387,-0.0527 1.63742,0.22061 0.90111,0.20464 -0.0913,-1.53354 -1.91753,-3.35856 -2.12477,-2.12334 -3.25818,-2.81788 -6.33642,-3.88298 -1.48557,-0.51402 -1.83788,-0.58141 -3.12873,-0.59839 -1.32966,-0.0175 -1.51095,0.0139 -2.10943,0.3658 -1.30798,0.76899 -1.59996,1.46014 -1.59996,3.7876 0,1.84631 0.20767,3.37231 0.60305,4.43141 0.25684,0.68803 0.42176,0.85343 2.0309,2.03653 0.96325,0.70822 1.89386,1.41191 2.06798,1.56374 0.17416,0.15183 0.98542,0.70824 1.80284,1.23645 3.83007,2.47504 4.69703,2.76975 6.66569,2.26592 z"
       id="path6168"
       inkscape:connector-curvature="0"
       inkscape:label="logo" />
  </g>
</svg>
