<?xml version="1.0" encoding="UTF-8"?>
<svg id="root" version="1.1" viewBox="0 0 1950.8 1228.4" xmlns="http://www.w3.org/2000/svg">
 <defs>
  <style>.cls-1{fill:#65717c;}.cls-2{opacity:0.7;}.cls-3{opacity:0.97;}.cls-4{opacity:0.22;}.cls-5{opacity:0.21;}.cls-6{opacity:0.14;}.cls-7{opacity:0.35;}.cls-8{opacity:0.25;}.cls-9{opacity:0.93;}.cls-10{fill:none;stroke:#280000;stroke-linecap:round;stroke-linejoin:round;stroke-width:2px;}</style>
 </defs>
 <rect class="cls-1" width="1950.8" height="1228.4"/>
 <g class="cls-9" transform="matrix(.49961 0 0 .49961 488.32 275.09)" fill="none" opacity=".93104" stroke="#000" stroke-width="2.4719">
  <path class="cls-10" d="m948.61 502.35c40.091-26.273 79.044-54.894 122.85-74.854-28.535 31.86-72.942 45.547-102.31 75.288 38.745-21.524 76.883-44.282 115.4-66.274-40.743 25.763-81.487 51.527-122.23 77.29 41.765-24.126 83.466-48.362 125.31-72.35-39.016 26.035-83.408 43.279-120.67 72.058 45.172-10.03 73.727-51.632 116.69-66.476-37.316 25.117-78.109 45.117-112.95 73.842 43.027-16.873 78.341-48.042 120.19-67.223-37.327 26.773-81.414 43.184-116.27 73.549 43.082-12.128 71.969-50.658 113.99-65.037-16.456 26.204-50.261 31.573-73.219 50.447-11.521 5.645-43.292 29.951-13.723 14.191 33.819-17.017 64.081-40.432 98.729-55.894-35.183 27.554-76.824 44.928-113.79 69.743 42.065-12.59 71.183-49.055 111.97-64.286-27.849 28.532-65.844 43.086-99.316 63.481 34.862-21.242 67.295-46.997 105.28-62.689-36.217 26.852-78.793 43.822-114.11 72.006 40.656-18.792 74.677-49.244 115.7-67.343-38.33 23.228-78.889 43.408-113.39 72.388 40.791-15.263 72.808-46.677 112.74-63.643-34.907 25.077-71.107 48.276-106.5 72.645 36.827-23.328 71.627-50.764 112.53-66.839-32.598 25.356-70.04 43.416-103.65 67.293 35.308-20.069 70.354-40.595 105.56-60.834-31.701 28.924-71.736 45.693-108.35 67.185 35.759-21.896 69.665-47.354 108.47-63.821-34.46 25.203-75.552 40.259-107.9 68.517 39.787-13.618 71.984-41.719 108.38-61.825-31.48 27.271-71.831 41.237-104.17 67.298 34.932-20.18 67.187-45.245 104.55-61.014-30.49 25.05-65.819 43.093-98.242 65.364 35.051-19.662 69.644-40.123 104.52-60.095-35.028 25.328-74.015 44.514-109.27 69.5 35.766-20.895 70.495-43.672 107.63-62.14-34.356 23.88-74.291 39.109-106.34 66.41 39.109-11.895 69.54-40.605 105.02-59.607-31.892 23.742-66.913 42.732-100.79 63.397 38.477-15.868 71.96-41.034 107.58-62.11-29.811 30.312-73.952 38.733-106.3 65.492 36.503-14.042 66.713-39.71 101.01-57.909-27.52 23.883-60.626 39.717-91.32 58.919 31.538-16.083 56.942-45.083 93.123-51.205-28.805 27.085-64.61 44.661-97.343 66.283 34.817-17.223 63.658-44.81 99.93-59.333-23.365 30.452-61.113 43.217-90.646 66.158 31.608-17.98 62.897-36.515 94.505-54.494-28.386 29.483-71.456 38.676-99.282 68.851 36.24-17.315 66.961-44.556 104.4-59.571-31.749 25.445-70.764 39.412-103.39 63.546 34.772-8.5441 60.445-35.257 91.323-51.651-30.315 18.318-62.142 34.548-89.724 57.01 36.074-9.8326 60.873-40.848 95.244-54.242-30.712 22.066-63.308 41.312-94.684 62.388 34.464-17.593 63.794-44.099 99.704-59.034-27.946 25.282-66.412 34.349-94.731 59.106 30.928-17.214 58.094-41.272 91.603-53.705-22.191 30.851-62.11 39.39-88.98 64.797 31.267-12.214 55.215-37.865 86.481-49.81-30.276 20.771-64.499 35.312-93.508 58.006 35.692-15.567 67.39-38.49 100.79-58.2-26.082 26.254-64.116 34.837-91.749 58.994 32.693-6.436 53.711-36.074 84.053-47.208-29.096 18.011-60.235 33.415-85.683 56.68 32.463-12.793 56.161-42.249 90.932-50.021-31.526 21.084-67.183 36.202-95.433 61.995 33.491-15.697 61.186-41.714 95.78-55.3-30.821 21.217-63.284 40.225-92 64.36 32.68-15.944 62.92-36.264 94.33-54.47l-98.31 64.71c32.179-19.095 62.234-42.302 97.27-56.16-25.711 26.651-62.238 38.736-89.335 63.652 29.956-11.074 53.122-34.774 82.523-46.756-22.479 21.197-69.135 38.198-82.543 53.14 31.109-14.796 59.458-34.537 89.215-51.747-25.483 27.33-62.445 38.383-92.345 59.597 32.916-13.551 60.297-36.97 91.345-53.927-22.312 22.253-51.63 35.134-77.281 52.817 17.876-9.9435 56.991-39.89 62.748-33.767-23.221 17.279-53.114 26.297-72.268 48.407 22.25-10.437 52.558-39.575 69.866-38.045-14.436 18.029-53.886 34.9-62.654 41.648 18.884-9.1867 50.232-38.735 63.034-33.234-16.132 19.489-66.675 43.166-68.909 49.287 25.296-14.492 49.915-30.162 75.634-43.912-27.337 18.302-57.385 33.168-81.924 55.247 21.992-12.142 64.611-42.887 74.392-41.725-18.218 13.919-63.373 29.39-64.506 43.604 15.257-4.3385 54.308-38.935 54.152-29.938-17.618 13.796-60.784 33.198-63.425 41.599 19.877-5.2308 55.93-36.494 62.091-34.49-15.382 12.131-58.044 30.407-56.586 39.918 16.142-8.146 48.685-37.577 56.601-29.648-9.8301 10.225-64.734 40.554-52.682 33.355 12.328-8.4523 46.307-31.022 46.982-25.79-18.354 12.244-62.152 32.05-60.984 45.27 17.919-6.4349 49.428-36.482 56.788-33.397-14.209 11.063-48.491 26.944-48.904 37.487 15.429-6.93 31.793-29.256 48.079-24.495-16.651 12.415-55.515 31.456-57.615 40.265 14.602-7.3901 53.914-33.508 56.925-31.248-15.973 12.71-53.356 30.681-57.173 39.28 14.811-6.8558 42.838-31.735 49.749-26.193-15.238 12.318-35.646 17.685-49.041 32.081 13.342-4.5571 38.443-32.368 44.407-24.669-6.9504 6.906-48.038 27.9-37.273 24.438 7.8282-7.1904 52.344-30.619 24.474-10.264-9.2794 6.5106-44.23 25.347-18.369 8.5282 8.628-6.4569 35.773-18.027 12.831-3.5802-12.477 3.1779-47.816 37.265-17.225 18.004 8.2192-6.2227 36.703-19.476 14.006-3.9326-11.355 5.3145-46.298 36.798-16.183 17.163 16.658-11.711 18.456-5.3418 1.9724 3.4756-13.45 9.1785-28.067 24.204-3.4765 8.4682 21.289-7.2931-40.719 33.772-11.204 14.433 16.699-11.743 20.51-1.098 4.0119 6.7073-11.119 7.7617-26.48 21.056-4.6656 8.5548-9.7147 10.689-29.558 21.719-6.7192 9.9952-7.4723 9.1047-24.283 24.199-10.167 19.269-3.623 5.4751-12.809 7.0827-13.23 14.606"/>
  <path class="cls-10" d="m994.85 222.97c-5.254 12.535-40.96 26.153-34.268 30.48 9.2319-9.8347 49.451-26.328 19.124-6.5838-10.264 5.823-56.408 34.379-25.757 14.743 9.5513-9.3368 55.917-32.08 26.284-11.023-24.345 17.894-49.899 34.065-74.312 51.864 33.787-15.232 64.165-36.697 96-55.44-36.844 23.717-75.77 44.711-109 73.579 37.078-15.75 67.685-43.283 104.76-59.042-36.104 24.611-78.738 38.743-112.19 67.394 41.489-10.995 69.883-47.013 109.84-61.316-39.645 27.374-80.126 53.507-120.09 80.415 41.127-24.895 80.963-52.208 124.47-72.927-31.345 36.067-84.049 40.824-118.18 72.468 41.366-20.675 78.306-50.72 121.04-69.482-38.801 32.908-86.158 52.823-129.05 79.486 45.142-22.135 86.963-50.205 130.17-75.756-47.874 29.68-99.053 54.397-143.38 89.526 39.345-13.285 70.26-42.724 105.59-63.275 11.423-10.579 43.045-17.01 15.115 0.11947-38.074 25.949-81.415 43.412-117.97 71.699 49.558-27.277 97.477-57.43 147.26-84.31-52.078 31.216-107.33 57.715-155.17 95.538 35.054 2.8188 56.705-33.458 87.839-44.36 21.8-13.789 43.689-27.508 66.569-39.458-52.053 38.725-110.58 67.505-163.6 104.79 56.755-31.004 109.68-68.863 168.4-96.283-52.202 41.713-113.61 69.342-168.91 106.4 51.963-17.754 95.259-53.038 141.91-80.946 7.9055-5.3171 42.29-26.618 17.984-11.69-55.6 33.456-114.38 61.717-167.48 99.244 59.852-33.337 113.04-78.749 177.44-103.71-25.778 30.27-66.955 38.403-98.702 60.363-24.52 12.955-66.46 34.188-77.151 47.237 39.946-11.106 70.979-40.557 107.66-58.591 24.548-14.963 48.998-30.086 73.625-44.92-56.569 39.016-120.8 65.157-177.56 103.85 30.185-5.0715 51.929-29.667 78.974-42.3 32.033-19.939 63.965-40.105 97.122-58.149-28.42 33.142-71.175 47.705-106.01 72.52-28.373 16.707-56.927 33.136-84.619 50.966 66.223-38.258 132.35-76.689 198.7-114.72-29.803 33.308-74.718 45.291-111.64 68.424-29.188 14.744-58.566 29.643-84.737 49.435 56.696-26.003 107.9-62.191 162.95-91.325 11.604-6.6603 50.147-28.65 19.509-12.167-59.29 31.056-119.3 61.419-174.01 100.25-2.2502 25.119 37.028-5.9717 47.416-12.628 49.045-29.562 95.366-63.437 144.92-92.181-25.513 34.535-69.569 45.374-103.26 69.506-33.643 18.668-67.66 36.656-101.23 55.458 48.507-9.964 85.768-45.288 128.51-67.884 27.442-17.445 54.599-35.334 81.623-53.416-33.389 33.362-80.618 45.645-120.26 69.452-30.788 15.079-61.656 30.503-89.444 50.754 38.061-9.2408 64.306-41.363 99.225-57.257 33.857-21.599 68.076-42.942 104.73-59.539-16.541 35.136-60.532 37.884-87.234 61.987-40.542 23.021-81.624 45.073-122.78 66.962 73.223-32.004 138.1-79.485 207.19-119.07 19.185-12.375-30.347 16.038-40.658 21.089-53.233 28.766-106.44 57.943-156.03 92.752 22.747 11.805 43.274-25.184 65.6-31.607 43.075-28.949 85.117-59.885 131.65-83.2-18.833 28.664-57.636 34.237-82.928 56.234-42.727 25.239-85.702 50.159-126.8 78.019 52.318-15.079 94.47-51.43 141.79-76.81 28.737-17.9 57.261-36.14 85.693-54.52-76.214 46.452-152.98 92.002-228.5 139.59 72.643-45.818 143.8-94.533 221.06-132.45-22.244 25.804-59.315 31.853-86.519 51.556-42.271 22.415-84.485 45.296-123.54 73.065 26.746 15.278 50.07-26.343 75.9-33.124 47.681-30.689 93.949-63.83 144.27-90.191-74.551 48.49-153.88 89.136-228.52 137.53 78.53-40.121 152.53-88.287 229.09-131.9-23.966 30.416-63.595 40.235-94.629 61.303-44.533 23.624-89.803 46.054-132.4 73.114 38.874-15.303 72.193-41.508 109.39-60.271 42.219-24.369 84.438-48.739 126.66-73.108-80.191 41.49-162.65 79.919-235.88 133.33 33.462 18.495 59.36-30.247 90.744-38.165 46.777-29.877 92.221-61.931 140.64-89.171-21.783 38.357-68.546 47.877-101.46 73.437-43.995 25.261-88.707 49.249-133.61 72.843 83.526-41.634 158.03-98.956 241.38-140.91-35.432 35.742-83.883 53.476-124.46 82.228-39.702 23.701-79.619 47.04-119.61 70.241 79.09-45.349 151-102.79 233.49-142.26 3.4747 25.04-40.389 25.924-54.471 43.414-57.871 34.123-117.29 65.646-173.91 101.87 66.019-32.378 125.38-76.398 189.43-112.34 13.454-7.5923 51.523-29.429 49.803-25.796-40.955 31.064-88.953 50.853-132.11 78.486-37.22 20.971-74.408 42.157-109.58 66.474 84.074-47.25 162.42-104.71 250.27-145.14-32.093 33.725-78.076 47.945-115.31 74.663-45.101 26.165-90.463 51.877-135.9 77.448 87.643-40.668 166.15-97.776 250.52-144.39-78.922 50.485-166.26 86.721-242.9 140.93 27.698 3.7051 50.005-27.147 75.244-37.235 56.588-33.565 111.48-70.664 170.03-100.53-7.024 19.245-32.233 31.262-49.937 42.67-54.424 30.305-107.68 62.647-163.37 90.709-11.825 5.7343-59.805 32.67-28.149 12.631 33.282-22.309 66.384-45.395 103.01-61.989-17.57 35.499-61.876 41.58-90.318 65.495-30.707 20.38 16.247-6.9082 23.945-13.445 12.037-8.8362 57.313-36.713 50.76-29.952-32.398 24.163-67.49 44.353-100.79 67.198 31.138-8.4717 52.539-36.435 82.541-46.41-20.649 16.881-65.158 38.653-72.412 50.24 17.613-4.743 50.684-37.488 57.978-30.301-15.854 14.153-39.032 19.809-51.584 37.382 11.719-6.2638 36.246-28.908 41.279-21.935-10.295 7.4774-42.748 26.298-36.1 25.98 9.2311-7.3258 52.25-29.233 23.592-10.337-10.546 2.7973-47.456 34.859-19.02 17.099 7.8421-6.1792 30.862-17.112 11.363-2.693-11.89 6.4126-26.731 23.185-5.7303 7.7177 33.809-16.704-37.948 30.076-1.1643 9.0628 29.963-16.585-10.44 3.8293-8.88 9.7808 9.1075-10.135 33.353-15.453 10.512-0.0504-16.031 12.623-6.7982 10.833 6.4507 1.7197-12.103 9.0213-29.006 22.515-4.0666 7.6758 13.923-6.9128-26.029 23.783-2.9344 10.622 21.818-12.393-26.134 29.841 4.2774 10.102-4.2064 10.02-15.409 20.298 1.3983 10.606-0.0611 4.4822-12.098 17.244-0.55565 8.9808-10.264 8.6951 3.8336 4.2484-2.8723 11.195 1.6209 11.451 3.507 5.6202 1.661 17.922 12.863 4.9882-3.175 18.43 9.2255 23.802" data-name="path39508"/>
 </g>
</svg>
