<?xml version="1.0" encoding="UTF-8"?>
<svg id="root" width="1920px" height="1200px" enable-background="new 0 0 1920 1200" version="1.1" viewBox="0 0 1920 1200" xml:space="preserve" xmlns="http://www.w3.org/2000/svg" xmlns:cc="http://creativecommons.org/ns#" xmlns:dc="http://purl.org/dc/elements/1.1/" xmlns:rdf="http://www.w3.org/1999/02/22-rdf-syntax-ns#"><metadata><rdf:RDF><cc:Work rdf:about=""><dc:format>image/svg+xml</dc:format><dc:type rdf:resource="http://purl.org/dc/dcmitype/StillImage"/><dc:title/></cc:Work></rdf:RDF></metadata><g transform="translate(-1.8511,1.5071)" fill="#5d8292"><rect x="-13.525" y="-15.715" width="1950.8" height="1228.4" fill="#5d8292" style="paint-order:normal"/></g><g transform="matrix(.82444 0 0 .82444 168.54 105.33)" fill="#da612d" opacity=".69767"><g transform="matrix(3.7795,0,0,3.7795,563.15,38.74)"><g transform="matrix(.43663 0 0 .43663 -1272.1 401.88)" fill="#ff2a2a" opacity=".97"><g transform="matrix(2.3484,0,0,2.3484,905.59,-1856.5)" opacity=".219"><g transform="matrix(.9255 0 0 .9255 1184 255.75)" fill="#ff2a2a"/></g><g transform="matrix(2.1735,0,0,2.1735,3687.2,-1238.9)" opacity=".206"/><g transform="matrix(2.2834 -.54877 .54877 2.2834 668.28 -1251.3)" opacity=".144"><g transform="matrix(.9255 0 0 .9255 1184 255.75)" fill="#ff2a2a"/></g><g transform="matrix(2.3484,0,0,2.3484,887.05,-1842.9)" opacity=".348"><g transform="matrix(.9255 0 0 .9255 1184 255.75)" fill="#ff2a2a"/></g><g transform="matrix(2.3029 .46047 -.46047 2.3029 1191.2 -2231.2)" opacity=".253"><g transform="matrix(.9255 0 0 .9255 1184 255.75)" fill="#ff2a2a"/></g><g transform="matrix(2.244,0,0,2.244,997.52,-1787.4)"><g transform="matrix(.9255 0 0 .9255 1184 255.75)" fill="#ff2a2a"/></g></g></g></g><g transform="matrix(1.5522,0,0,1.5522,-142.91,258.05)" fill="#222bbc" opacity=".55738" style="mix-blend-mode:soft-light"><path d="m663 254.36c-29.534-60.597-19.234-147.84 52.836-192.92-2.834 8.2918-1.9053 22.119 2.1228 32.444 11.048 25.483 32.994 47.118 41.029 88.23 11.123 57.541-9.9456 112.5-47.504 155.77 18.822-61.221 28.342-135.89-16.749-172.57-31.558 28.306-32.757 54.662-31.735 89.043z"/></g><g transform="matrix(1.5522,0,0,1.5522,-97.193,227.58)" fill="#c4593b" opacity=".3347" style="mix-blend-mode:soft-light"><path d="m663 254.36c-29.534-60.597-19.234-147.84 52.836-192.92-2.834 8.2918-1.9053 22.119 2.1228 32.444 11.048 25.483 32.994 47.118 41.029 88.23 11.123 57.541-9.9456 112.5-47.504 155.77 18.822-61.221 28.342-135.89-16.749-172.57-31.558 28.306-32.757 54.662-31.735 89.043z"/></g><g transform="matrix(1.5522,0,0,1.5522,-120.74,223.42)" fill="#a169ff" opacity=".34836" style="mix-blend-mode:soft-light"><path d="m663 254.36c-29.534-60.597-19.234-147.84 52.836-192.92-2.834 8.2918-1.9053 22.119 2.1228 32.444 11.048 25.483 32.994 47.118 41.029 88.23 11.123 57.541-9.9456 112.5-47.504 155.77 18.822-61.221 28.342-135.89-16.749-172.57-31.558 28.306-32.757 54.662-31.735 89.043z"/></g><g transform="matrix(1.6599,0,0,1.6599,-209.83,228.58)" fill="#ef0e0e" opacity=".63661" stroke="#ee9e1e" style="mix-blend-mode:hard-light"><path d="m663 254.36c-29.534-60.597-19.234-147.84 52.836-192.92-2.834 8.2918-1.9053 22.119 2.1228 32.444 11.048 25.483 32.994 47.118 41.029 88.23 11.123 57.541-9.9456 112.5-47.504 155.77 18.822-61.221 28.342-135.89-16.749-172.57-31.558 28.306-32.757 54.662-31.735 89.043z" stroke-linecap="round" stroke-linejoin="round" stroke-width=".21688"/></g></svg>
