<?xml version="1.0" encoding="UTF-8"?>
<svg id="root" width="1920px" height="1200px" enable-background="new 0 0 1920 1200" version="1.1" viewBox="0 0 1920 1200" xml:space="preserve" xmlns="http://www.w3.org/2000/svg" xmlns:cc="http://creativecommons.org/ns#" xmlns:dc="http://purl.org/dc/elements/1.1/" xmlns:rdf="http://www.w3.org/1999/02/22-rdf-syntax-ns#" xmlns:xlink="http://www.w3.org/1999/xlink"><metadata><rdf:RDF><cc:Work rdf:about=""><dc:format>image/svg+xml</dc:format><dc:type rdf:resource="http://purl.org/dc/dcmitype/StillImage"/><dc:title/></cc:Work></rdf:RDF></metadata><g><g transform="translate(-1.8511 3.5136)" fill="#2e4852"><rect x="-13.525" y="-15.715" width="1950.8" height="1228.4" fill="#2e4852" style="paint-order:normal"/></g><g transform="matrix(.82444 0 0 .82444 168.54 105.33)" fill="#da612d" opacity=".69767"><g transform="matrix(3.7795 0 0 3.7795 563.15 38.74)"><g transform="matrix(.43663 0 0 .43663 -1272.1 401.88)" fill="#ff2a2a" opacity=".97"><g transform="matrix(2.3484 0 0 2.3484 905.59 -1856.5)" opacity=".219"><g transform="matrix(.9255 0 0 .9255 1184 255.75)" fill="#ff2a2a"><g transform="matrix(-1.3233 1.1633 1.1633 1.3233 -308.61 194.01)"/><g transform="matrix(1.1872 1.572 -1.5364 1.2147 -148.8 143.55)"/><g transform="matrix(1.3089 .70009 -.70009 1.3089 -296.02 221.67)"/><g transform="matrix(1.4624 -.25462 .25462 1.4624 -289.18 231.27)"/><g transform="rotate(168.66 -119.29 176)"/><g transform="matrix(-1.3233 1.1633 1.1633 1.3233 -307.3 180.37)"/><g transform="rotate(212.25 -53.937 217.29)"/><g transform="matrix(3.1551 -.037406 .037406 3.1551 -471.53 167.95)"/><g transform="matrix(2.343 2.1135 -2.1135 2.343 144.66 88.556)"/><g transform="matrix(-2.5039 -.12375 -.12375 2.5039 -242.78 170.86)"/><g transform="matrix(2.4158 2.0298 -2.0298 2.4158 -87.766 54.809)"/><g transform="matrix(-1.6445 2.6929 -2.6929 -1.6445 -35.823 378.33)"/><g transform="matrix(-2.5353 2.2869 2.2869 2.5353 -137.05 182.03)"/><g transform="matrix(.31519 -.91401 -.91401 -.31519 -150.59 297.4)"/></g></g><g transform="matrix(2.1735 0 0 2.1735 3687.2 -1238.9)" opacity=".206"><g transform="matrix(-1.3233 1.1633 1.1633 1.3233 -308.61 194.01)"/><g transform="matrix(1.1872 1.572 -1.5364 1.2147 -148.8 143.55)"/><g transform="matrix(1.3089 .70009 -.70009 1.3089 -296.02 221.67)"/><g transform="matrix(1.4624 -.25462 .25462 1.4624 -289.18 231.27)"/><g transform="rotate(168.66 -119.29 176)"/><g transform="matrix(-1.3233 1.1633 1.1633 1.3233 -307.3 180.37)"/><g transform="rotate(212.25 -53.937 217.29)"/><g transform="matrix(3.1551 -.037406 .037406 3.1551 -471.53 167.95)"/><g transform="matrix(2.343 2.1135 -2.1135 2.343 144.66 88.556)"/><g transform="matrix(-2.5039 -.12375 -.12375 2.5039 -242.78 170.86)"/><g transform="matrix(2.4158 2.0298 -2.0298 2.4158 -87.766 54.809)"/><g transform="matrix(-1.6445 2.6929 -2.6929 -1.6445 -35.823 378.33)"/><g transform="matrix(-2.5353 2.2869 2.2869 2.5353 -137.05 182.03)"/><g transform="matrix(.31519 -.91401 -.91401 -.31519 -150.59 297.4)"/></g><g transform="matrix(2.2834 -.54877 .54877 2.2834 668.28 -1251.3)" opacity=".144"><g transform="matrix(.9255 0 0 .9255 1184 255.75)" fill="#ff2a2a"><g transform="matrix(-1.3233 1.1633 1.1633 1.3233 -308.61 194.01)"/><g transform="matrix(1.1872 1.572 -1.5364 1.2147 -148.8 143.55)"/><g transform="matrix(1.3089 .70009 -.70009 1.3089 -296.02 221.67)"/><g transform="matrix(1.4624 -.25462 .25462 1.4624 -289.18 231.27)"/><g transform="rotate(168.66 -119.29 176)"/><g transform="matrix(-1.3233 1.1633 1.1633 1.3233 -307.3 180.37)"/><g transform="rotate(212.25 -53.937 217.29)"/><g transform="matrix(3.1551 -.037406 .037406 3.1551 -471.53 167.95)"/><g transform="matrix(2.343 2.1135 -2.1135 2.343 144.66 88.556)"/><g transform="matrix(-2.5039 -.12375 -.12375 2.5039 -242.78 170.86)"/><g transform="matrix(2.4158 2.0298 -2.0298 2.4158 -87.766 54.809)"/><g transform="matrix(-1.6445 2.6929 -2.6929 -1.6445 -35.823 378.33)"/><g transform="matrix(-2.5353 2.2869 2.2869 2.5353 -137.05 182.03)"/><g transform="matrix(.31519 -.91401 -.91401 -.31519 -150.59 297.4)"/></g></g><g transform="matrix(2.3484 0 0 2.3484 887.05 -1842.9)" opacity=".348"><g transform="matrix(.9255 0 0 .9255 1184 255.75)" fill="#ff2a2a"><g transform="matrix(-1.3233 1.1633 1.1633 1.3233 -308.61 194.01)"/><g transform="matrix(1.1872 1.572 -1.5364 1.2147 -148.8 143.55)"/><g transform="matrix(1.3089 .70009 -.70009 1.3089 -296.02 221.67)"/><g transform="matrix(1.4624 -.25462 .25462 1.4624 -289.18 231.27)"/><g transform="rotate(168.66 -119.29 176)"/><g transform="matrix(-1.3233 1.1633 1.1633 1.3233 -307.3 180.37)"/><g transform="rotate(212.25 -53.937 217.29)"/><g transform="matrix(3.1551 -.037406 .037406 3.1551 -471.53 167.95)"/><g transform="matrix(2.343 2.1135 -2.1135 2.343 144.66 88.556)"/><g transform="matrix(-2.5039 -.12375 -.12375 2.5039 -242.78 170.86)"/><g transform="matrix(2.4158 2.0298 -2.0298 2.4158 -87.766 54.809)"/><g transform="matrix(-1.6445 2.6929 -2.6929 -1.6445 -35.823 378.33)"/><g transform="matrix(-2.5353 2.2869 2.2869 2.5353 -137.05 182.03)"/><g transform="matrix(.31519 -.91401 -.91401 -.31519 -150.59 297.4)"/></g></g><g transform="matrix(2.3029 .46047 -.46047 2.3029 1191.2 -2231.2)" opacity=".253"><g transform="matrix(.9255 0 0 .9255 1184 255.75)" fill="#ff2a2a"><g transform="matrix(-1.3233 1.1633 1.1633 1.3233 -308.61 194.01)"/><g transform="matrix(1.1872 1.572 -1.5364 1.2147 -148.8 143.55)"/><g transform="matrix(1.3089 .70009 -.70009 1.3089 -296.02 221.67)"/><g transform="matrix(1.4624 -.25462 .25462 1.4624 -289.18 231.27)"/><g transform="rotate(168.66 -119.29 176)"/><g transform="matrix(-1.3233 1.1633 1.1633 1.3233 -307.3 180.37)"/><g transform="rotate(212.25 -53.937 217.29)"/><g transform="matrix(3.1551 -.037406 .037406 3.1551 -471.53 167.95)"/><g transform="matrix(2.343 2.1135 -2.1135 2.343 144.66 88.556)"/><g transform="matrix(-2.5039 -.12375 -.12375 2.5039 -242.78 170.86)"/><g transform="matrix(2.4158 2.0298 -2.0298 2.4158 -87.766 54.809)"/><g transform="matrix(-1.6445 2.6929 -2.6929 -1.6445 -35.823 378.33)"/><g transform="matrix(-2.5353 2.2869 2.2869 2.5353 -137.05 182.03)"/><g transform="matrix(.31519 -.91401 -.91401 -.31519 -150.59 297.4)"/></g></g><g transform="matrix(2.244 0 0 2.244 997.52 -1787.4)"><g transform="matrix(.9255 0 0 .9255 1184 255.75)" fill="#ff2a2a"><g transform="matrix(-1.3233 1.1633 1.1633 1.3233 -308.61 194.01)"/><g transform="matrix(1.1872 1.572 -1.5364 1.2147 -148.8 143.55)"/><g transform="matrix(1.3089 .70009 -.70009 1.3089 -296.02 221.67)"/><g transform="matrix(1.4624 -.25462 .25462 1.4624 -289.18 231.27)"/><g transform="rotate(168.66 -119.29 176)"/><g transform="matrix(-1.3233 1.1633 1.1633 1.3233 -307.3 180.37)"/><g transform="rotate(212.25 -53.937 217.29)"/><g transform="matrix(3.1551 -.037406 .037406 3.1551 -471.53 167.95)"/><g transform="matrix(2.343 2.1135 -2.1135 2.343 144.66 88.556)"/><g transform="matrix(-2.5039 -.12375 -.12375 2.5039 -242.78 170.86)"/><g transform="matrix(2.4158 2.0298 -2.0298 2.4158 -87.766 54.809)"/><g transform="matrix(-1.6445 2.6929 -2.6929 -1.6445 -35.823 378.33)"/><g transform="matrix(-2.5353 2.2869 2.2869 2.5353 -137.05 182.03)"/><g transform="matrix(.31519 -.91401 -.91401 -.31519 -150.59 297.4)"/></g></g></g></g></g><g transform="matrix(1.5522 0 0 1.5522 -133.91 257.47)" fill="#e6e6e6" opacity=".75841" style="mix-blend-mode:soft-light"><path d="m663 254.36c-29.534-60.597-19.234-147.84 52.836-192.92-2.834 8.2918-1.9053 22.119 2.1228 32.444 11.048 25.483 32.994 47.118 41.029 88.23 11.123 57.541-9.9456 112.5-47.504 155.77 18.822-61.221 28.342-135.89-16.749-172.57-31.558 28.306-32.757 54.662-31.735 89.043z"/><g transform="matrix(1.7605 0 0 1.7605 1254.2 322.68)"/></g><g transform="translate(0 -24.891)" fill="#e7e6e6" style="mix-blend-mode:soft-light" aria-label="NOT A CULT"><path d="m885.73 850.39 2.5793-0.0162c0-0.85976 0.0162-1.7844 0.0162-2.7091 0-3.731-0.0649-7.8514-0.0649-11.518 0-2.6442 0.0325-5.0612 0.12978-6.8943h-2.4982c-0.146 2.774-0.19466 5.7426-0.19466 8.7598 0 2.1737 0.0162 4.3799 0.0487 6.4888-1.898-4.023-6.3752-12.215-8.4192-15.2l-2.5793-0.0649v21.105h2.5793c0-2.4657-0.0162-8.2245-0.0162-12.978v-3.3093c3.2768 5.7264 5.775 10.544 8.4192 16.335z"/><path d="m900.57 828.78c-2.5306 0.0487-4.3475 1.2166-5.4181 2.6766-1.1355 1.5411-2.3684 3.9582-2.3684 9.5547 0 2.92 0.77866 5.3857 2.2386 7.1701 1.314 1.6222 3.3742 2.3197 5.3532 2.3197 2.6766 0 4.7855-1.3464 6.0021-3.6824 0.77865-1.5086 1.4924-3.9906 1.4924-6.651v-0.17845c-0.0811-10.009-5.2884-11.209-7.2999-11.209zm-3.8608 17.536c-0.90843-1.1842-1.3626-3.6824-1.3626-5.3694 0-4.2502 0.79488-6.5537 1.9142-7.9974 0.94087-1.2329 1.8655-1.6871 3.4066-1.6871 1.4275 0 2.5631 0.68132 3.5039 2.5306 0.85976 1.6709 1.1355 4.1528 1.1355 6.0183v0.30822c-0.0162 1.7358-0.48666 4.4286-1.1355 5.4668-0.72998 1.3464-1.9142 2.4333-3.7959 2.4333-1.752 0-2.8713-0.64888-3.6662-1.7033z"/><path d="m916.12 850.44h2.5955v-18.704h3.8122c0.8111 0 1.8169 0.19466 1.8169 0.19466l0.53532-2.4657c-0.29199-0.0487-1.0869-0.24333-2.2711-0.24333-3.0497 0-10.414 0.0162-12.394 0.0162v2.5144c1.2329 0 2.6928-0.0162 5.9048-0.0162z"/><path d="m955.59 842.1-2.9362 0.0487c-1.3464 0.0649-2.2548 0.0649-3.2282 0.27577l3.0173-9.8467zm-4.5746-12.913-5.8399 18.525c-0.21088 0.69754-0.50288 2.1251-0.5191 2.5793h2.628c0-0.45422 0.2271-1.4924 0.38933-1.9629l0.95709-2.9037c1.8006-0.43799 5.3857-0.47044 7.673-0.5191l1.1355 3.4066c0.12978 0.43799 0.32444 1.606 0.32444 1.9791h2.6604c-0.0325-0.87599-0.32444-2.19-0.50288-2.7902l-6.1319-18.315z"/><path d="m987.6 831.6c1.3951 0 2.628 0.8111 3.6175 2.7577l2.2062-1.314c-1.4275-2.5793-3.504-3.9419-5.775-3.9419-2.8388 0-5.045 1.4762-6.213 3.1957-0.84354 1.2329-2.1575 3.7635-2.1575 7.8839 0 3.6175 0.95709 6.2779 2.9037 8.257 1.5249 1.4924 3.6662 1.898 5.4668 1.898h0.0487c3.0822 0 5.2559-1.8493 6.4563-4.3637l-2.2548-1.2329c-0.82732 1.8168-2.2224 3.0173-4.607 3.0984h-0.22711c-1.3302 0-2.1088-0.24333-3.1146-1.1842-1.5897-1.4762-2.0926-3.8446-2.0926-6.505 0-3.4715 0.92465-5.3532 1.6546-6.4077 0.77865-1.0869 2.2224-2.1413 4.0879-2.1413z"/><path d="m1008.2 828.99c-0.1622 1.0058-0.2109 1.6384-0.2109 2.7902 0 2.7577 0.081 5.1261 0.081 7.1214 0 3.1957-0.1784 6.5374-1.2652 7.7378-0.876 0.90843-1.7195 1.2815-3.4391 1.3626-2.4657 0-3.7959-1.4275-4.0879-4.8341-0.0814-0.97332-0.11354-2.6928-0.11354-4.6881 0-3.0011 0.0648-6.6348 0.12973-9.3114h-2.563c-0.0973 2.5631-0.14601 5.6939-0.14601 8.4841 0 2.19 0.0324 4.169 0.11353 5.3857 0.29203 4.7206 1.8818 7.4134 6.8781 7.4134 2.0926-0.0811 3.8446-0.55155 5.1748-2.0926 1.8168-2.0926 1.8818-5.6939 1.8818-9.4574v-0.94087c0-1.8006-0.032-3.8608-0.032-6.213 0-0.87599 0-1.5735 0.146-2.5468z"/><path d="m1015 850.34h11.096c1.2167 0 1.8331-0.22711 2.5955-0.48666l-0.6651-2.3684c-0.7137 0.24333-1.0057 0.30822-1.9628 0.35689h-8.4516v-18.607h-2.6118z"/><path d="m1036.5 850.44h2.5955v-18.704h3.8121c0.8111 0 1.8168 0.19466 1.8168 0.19466l0.5353-2.4657c-0.2919-0.0487-1.0868-0.24333-2.271-0.24333-3.0497 0-10.414 0.0162-12.394 0.0162v2.5144c1.2328 0 2.6928-0.0162 5.9048-0.0162z"/></g></g></svg>
