<?xml version="1.0" encoding="UTF-8" standalone="no"?>
<!-- Created with Inkscape (http://www.inkscape.org/) -->

<svg
   xmlns:dc="http://purl.org/dc/elements/1.1/"
   xmlns:cc="http://creativecommons.org/ns#"
   xmlns:rdf="http://www.w3.org/1999/02/22-rdf-syntax-ns#"
   xmlns:svg="http://www.w3.org/2000/svg"
   xmlns="http://www.w3.org/2000/svg"
   xmlns:sodipodi="http://sodipodi.sourceforge.net/DTD/sodipodi-0.dtd"
   xmlns:inkscape="http://www.inkscape.org/namespaces/inkscape"
   width="1920"
   height="1080"
   viewBox="0 0 508.00001 285.75001"
   version="1.1"
   id="svg8"
   inkscape:version="0.92.1 r15371"
   sodipodi:docname="noto.svg">
  <title
     id="title4490">1920x1080</title>
  <defs
     id="defs2" />
  <sodipodi:namedview
     id="base"
     pagecolor="#636363"
     bordercolor="#666666"
     borderopacity="1.0"
     inkscape:pageopacity="0"
     inkscape:pageshadow="2"
     inkscape:zoom="0.7"
     inkscape:cx="985.872"
     inkscape:cy="522.06302"
     inkscape:document-units="px"
     inkscape:current-layer="layer1"
     showgrid="false"
     inkscape:showpageshadow="false"
     inkscape:pagecheckerboard="true"
     units="px"
     inkscape:window-width="1908"
     inkscape:window-height="1090"
     inkscape:window-x="6"
     inkscape:window-y="46"
     inkscape:window-maximized="1"
     showguides="true"
     inkscape:guide-bbox="true"
     guidecolor="#05157e"
     guideopacity="0.13333333">
    <sodipodi:guide
       position="25.400001,0"
       orientation="1,0"
       id="guide4483"
       inkscape:locked="false"
       inkscape:label=""
       inkscape:color="rgb(4,102,16)" />
    <sodipodi:guide
       position="482.60001,0"
       orientation="1,0"
       id="guide4485"
       inkscape:locked="false"
       inkscape:label=""
       inkscape:color="rgb(3,73,12)" />
    <sodipodi:guide
       position="510.64585,14.2875"
       orientation="0,1"
       id="guide4487"
       inkscape:locked="false"
       inkscape:label="1920x1080, HDTV 10% title safe"
       inkscape:color="rgb(3,73,12)" />
    <sodipodi:guide
       position="0,271.46251"
       orientation="0,1"
       id="guide4489"
       inkscape:locked="false"
       inkscape:label=""
       inkscape:color="rgb(3,73,12)" />
  </sodipodi:namedview>
  <metadata
     id="metadata5">
    <rdf:RDF>
      <cc:Work
         rdf:about="">
        <dc:format>image/svg+xml</dc:format>
        <dc:type
           rdf:resource="http://purl.org/dc/dcmitype/StillImage" />
        <dc:title>1920x1080</dc:title>
        <cc:license
           rdf:resource="http://artlibre.org/licence/lal" />
        <dc:publisher>
          <cc:Agent>
            <dc:title>brontosaurusrex</dc:title>
          </cc:Agent>
        </dc:publisher>
      </cc:Work>
      <cc:License
         rdf:about="http://artlibre.org/licence/lal">
        <cc:permits
           rdf:resource="http://creativecommons.org/ns#Reproduction" />
        <cc:permits
           rdf:resource="http://creativecommons.org/ns#Distribution" />
        <cc:permits
           rdf:resource="http://creativecommons.org/ns#DerivativeWorks" />
        <cc:requires
           rdf:resource="http://creativecommons.org/ns#ShareAlike" />
        <cc:requires
           rdf:resource="http://creativecommons.org/ns#Notice" />
        <cc:requires
           rdf:resource="http://creativecommons.org/ns#Attribution" />
      </cc:License>
    </rdf:RDF>
  </metadata>
  <g
     inkscape:label="Layer 1"
     inkscape:groupmode="layer"
     id="layer1"
     transform="translate(0,-11.249979)">
    <g
       aria-label="yes Noto Sans AVIH"
       style="font-style:normal;font-weight:normal;font-size:50.80000305px;line-height:6.61458349px;font-family:sans-serif;letter-spacing:0px;word-spacing:0px;fill:#1a1a1a;fill-opacity:1;stroke:none;stroke-width:0.26458335px;stroke-linecap:butt;stroke-linejoin:miter;stroke-opacity:1"
       id="text4489">
      <path
         d="m 23.57685,123.08736 h 4.787305 l 5.878711,15.50293 q 1.860352,5.06016 2.282032,7.4166 h 0.198437 q 0.223242,-0.91777 1.016993,-3.42305 0.79375,-2.53007 1.339453,-4.04316 l 5.531445,-15.45332 h 4.81211 l -11.732618,31.00586 q -1.711523,4.51445 -4.067969,6.47402 -2.356445,1.95957 -5.829102,1.95957 -1.860351,0 -3.695898,-0.42168 v -3.54707 q 1.240234,0.29766 2.976562,0.29766 2.133204,0 3.621485,-1.19063 1.488281,-1.16582 2.430859,-3.62148 l 1.413868,-3.62148 z"
         style="font-style:normal;font-variant:normal;font-weight:normal;font-stretch:normal;font-family:'Noto Sans';-inkscape-font-specification:'Noto Sans';fill:#1a1a1a;stroke-width:0.26458335px"
         id="path4509"
         inkscape:connector-curvature="0" />
      <path
         d="m 65.323142,150.819 q -6.126759,0 -9.62422,-3.6959 -3.472656,-3.7207 -3.472656,-10.21953 0,-6.54844 3.249414,-10.41797 3.249414,-3.89434 8.78086,-3.89434 5.134571,0 8.185547,3.32383 3.050977,3.29903 3.050977,8.9545 v 2.70371 H 56.839938 q 0.124023,4.63847 2.356445,7.04453 2.232423,2.40605 6.325196,2.40605 2.182813,0 4.142383,-0.37207 1.959571,-0.39687 4.588868,-1.51308 v 3.91914 q -2.257227,0.96738 -4.241602,1.36426 -1.984375,0.39687 -4.688086,0.39687 z m -1.116211,-24.58145 q -3.199805,0 -5.060157,2.05879 -1.860352,2.05879 -2.207617,5.72989 h 13.865821 q -0.04961,-3.81993 -1.761133,-5.8043 -1.711524,-1.98438 -4.836914,-1.98438 z"
         style="font-style:normal;font-variant:normal;font-weight:normal;font-stretch:normal;font-family:'Noto Sans';-inkscape-font-specification:'Noto Sans';fill:#1a1a1a;stroke-width:0.26458335px"
         id="path4511"
         inkscape:connector-curvature="0" />
      <path
         d="m 100.14893,142.80709 q 0,3.81992 -2.852544,5.92832 -2.852539,2.08359 -8.011914,2.08359 -5.382618,0 -8.557618,-1.71152 v -4.06797 q 4.489649,2.18281 8.656837,2.18281 3.373437,0 4.911328,-1.09141 1.537891,-1.0914 1.537891,-2.92695 0,-1.6123 -1.488282,-2.72852 -1.463476,-1.11621 -5.233789,-2.55488 -3.844727,-1.48828 -5.407422,-2.53008 -1.562696,-1.0666 -2.306836,-2.38125 -0.719336,-1.31464 -0.719336,-3.1998 0,-3.34863 2.728516,-5.2834 2.728515,-1.93477 7.491016,-1.93477 4.638476,0 8.681641,1.83555 l -1.513086,3.54707 q -4.142383,-1.73633 -7.466212,-1.73633 -2.778125,0 -4.216797,0.89297 -1.438672,0.86817 -1.438672,2.40606 0,1.48828 1.240235,2.48047 1.240234,0.96738 5.779492,2.70371 3.398243,1.26504 5.010547,2.35644 1.63711,1.09141 2.406055,2.45567 0.76895,1.36425 0.76895,3.27422 z"
         style="font-style:normal;font-variant:normal;font-weight:normal;font-stretch:normal;font-family:'Noto Sans';-inkscape-font-specification:'Noto Sans';fill:#1a1a1a;stroke-width:0.26458335px"
         id="path4513"
         inkscape:connector-curvature="0" />
      <path
         d="M 149.28701,150.32291 H 143.954 l -19.42207,-30.1129 h -0.19843 l 0.12402,2.00918 q 0.29766,4.51446 0.29766,7.83829 v 20.26543 h -4.2168 v -36.26446 h 5.2834 l 1.11621,1.76113 11.90625,18.40508 6.32519,9.84746 h 0.19844 q -0.0496,-0.59531 -0.19844,-4.2416 -0.14882,-3.67109 -0.14882,-5.3082 v -20.46387 h 4.2664 z"
         style="font-style:normal;font-variant:normal;font-weight:normal;font-stretch:normal;font-family:'Noto Sans';-inkscape-font-specification:'Noto Sans';fill:#1a1a1a;stroke-width:0.26458335px"
         id="path4515"
         inkscape:connector-curvature="0" />
      <path
         d="m 182.17803,136.65552 q 0,6.67246 -3.37344,10.41797 -3.37344,3.74551 -9.32656,3.74551 -3.6959,0 -6.54844,-1.71152 -2.85254,-1.73633 -4.39043,-4.96094 -1.53789,-3.22461 -1.53789,-7.49102 0,-6.64765 3.32383,-10.34355 3.32382,-3.72071 9.32656,-3.72071 5.75469,0 9.12812,3.79512 3.39825,3.77031 3.39825,10.26914 z m -20.56309,0 q 0,5.13457 2.00918,7.81348 2.03398,2.6541 5.97793,2.6541 3.89434,0 5.92832,-2.6541 2.03398,-2.67891 2.03398,-7.81348 0,-5.13457 -2.05878,-7.71426 -2.03399,-2.60449 -5.97793,-2.60449 -7.9127,0 -7.9127,10.31875 z"
         style="font-style:normal;font-variant:normal;font-weight:normal;font-stretch:normal;font-family:'Noto Sans';-inkscape-font-specification:'Noto Sans';fill:#1a1a1a;stroke-width:0.26458335px"
         id="path4517"
         inkscape:connector-curvature="0" />
      <path
         d="m 198.3755,147.17271 q 0.86817,0 2.03399,-0.17363 1.16582,-0.17363 1.76113,-0.39688 v 3.42305 q -0.62012,0.27285 -1.93477,0.5209 -1.28984,0.27285 -2.62929,0.27285 -7.98711,0 -7.98711,-8.40879 v -15.8502 h -3.84473 v -2.1332 l 3.89434,-1.78594 1.78593,-5.80429 h 2.65411 v 6.25078 h 7.86308 v 3.47265 h -7.86308 v 15.72618 q 0,2.35644 1.11621,3.62148 1.14101,1.26504 3.15019,1.26504 z"
         style="font-style:normal;font-variant:normal;font-weight:normal;font-stretch:normal;font-family:'Noto Sans';-inkscape-font-specification:'Noto Sans';fill:#1a1a1a;stroke-width:0.26458335px"
         id="path4519"
         inkscape:connector-curvature="0" />
      <path
         d="m 231.29132,136.65552 q 0,6.67246 -3.37343,10.41797 -3.37344,3.74551 -9.32657,3.74551 -3.6959,0 -6.54844,-1.71152 -2.85253,-1.73633 -4.39043,-4.96094 -1.53789,-3.22461 -1.53789,-7.49102 0,-6.64765 3.32383,-10.34355 3.32383,-3.72071 9.32657,-3.72071 5.75468,0 9.12812,3.79512 3.39824,3.77031 3.39824,10.26914 z m -20.56308,0 q 0,5.13457 2.00918,7.81348 2.03398,2.6541 5.97793,2.6541 3.89433,0 5.92832,-2.6541 2.03398,-2.67891 2.03398,-7.81348 0,-5.13457 -2.05879,-7.71426 -2.03398,-2.60449 -5.97793,-2.60449 -7.91269,0 -7.91269,10.31875 z"
         style="font-style:normal;font-variant:normal;font-weight:normal;font-stretch:normal;font-family:'Noto Sans';-inkscape-font-specification:'Noto Sans';fill:#1a1a1a;stroke-width:0.26458335px"
         id="path4521"
         inkscape:connector-curvature="0" />
      <path
         d="m 272.76476,140.62427 q 0,4.7377 -3.42305,7.46621 -3.42305,2.72852 -9.525,2.72852 -6.44922,0 -9.97149,-1.71152 v -4.36563 q 2.30684,0.99219 5.03536,1.5627 2.75332,0.5705 5.13457,0.5705 4.06797,0 6.12676,-1.56269 2.05878,-1.5627 2.05878,-4.29121 0,-1.81074 -0.74414,-2.97656 -0.74414,-1.16582 -2.50527,-2.18282 -1.73633,-1.01699 -5.2834,-2.30683 -5.03535,-1.83555 -7.19336,-4.31602 -2.15801,-2.50527 -2.15801,-6.44922 0,-4.2416 3.175,-6.74687 3.19981,-2.50528 8.40879,-2.50528 5.43223,0 9.99629,2.03399 l -1.41386,3.91914 q -4.66329,-1.93477 -8.68164,-1.93477 -3.22461,0 -5.06016,1.38906 -1.81074,1.38907 -1.81074,3.89434 0,1.78594 0.69453,2.97656 0.71933,1.16582 2.28203,2.13321 1.5875,0.96738 4.96094,2.20761 4.04316,1.48829 6.02754,2.90215 1.98437,1.38907 2.92695,3.22461 0.94258,1.81074 0.94258,4.34082 z"
         style="font-style:normal;font-variant:normal;font-weight:normal;font-stretch:normal;font-family:'Noto Sans';-inkscape-font-specification:'Noto Sans';fill:#1a1a1a;stroke-width:0.26458335px"
         id="path4523"
         inkscape:connector-curvature="0" />
      <path
         d="m 296.27961,150.32291 -0.86816,-3.86953 h -0.19844 q -2.03399,2.55488 -4.06797,3.47265 -2.00918,0.89297 -5.08496,0.89297 -4.01836,0 -6.30039,-2.1084 -2.28203,-2.1084 -2.28203,-5.95312 0,-8.28477 13.07207,-8.68164 l 4.61367,-0.17364 v -1.6123 q 0,-3.10059 -1.33945,-4.56407 -1.33946,-1.48828 -4.29122,-1.48828 -2.158,0 -4.09277,0.64493 -1.90996,0.64492 -3.59668,1.43867 l -1.36426,-3.34864 q 2.05879,-1.0914 4.48965,-1.71152 2.43086,-0.62012 4.81211,-0.62012 4.93613,0 7.34219,2.18282 2.40605,2.18281 2.40605,6.94531 v 18.55391 z m -9.20254,-3.10059 q 3.74551,0 5.87871,-2.00918 2.15801,-2.03398 2.15801,-5.75469 v -2.45566 l -4.01836,0.17363 q -4.68809,0.17363 -6.84609,1.48828 -2.13321,1.31465 -2.13321,4.14239 0,2.1332 1.28985,3.27421 1.31465,1.14102 3.67109,1.14102 z"
         style="font-style:normal;font-variant:normal;font-weight:normal;font-stretch:normal;font-family:'Noto Sans';-inkscape-font-specification:'Noto Sans';fill:#1a1a1a;stroke-width:0.26458335px"
         id="path4525"
         inkscape:connector-curvature="0" />
      <path
         d="m 326.49171,150.32291 v -17.4129 q 0,-3.32382 -1.48828,-4.93613 -1.46348,-1.63711 -4.61368,-1.63711 -4.19199,0 -6.10195,2.33164 -1.88516,2.30684 -1.88516,7.54063 v 14.11387 h -4.46484 v -27.23555 h 3.59668 l 0.66973,3.7207 h 0.24804 q 1.26504,-2.00918 3.54707,-3.10058 2.28204,-1.11622 5.03536,-1.11622 5.01054,0 7.4414,2.43086 2.43086,2.43086 2.43086,7.56543 v 17.73536 z"
         style="font-style:normal;font-variant:normal;font-weight:normal;font-stretch:normal;font-family:'Noto Sans';-inkscape-font-specification:'Noto Sans';fill:#1a1a1a;stroke-width:0.26458335px"
         id="path4527"
         inkscape:connector-curvature="0" />
      <path
         d="m 357.12551,142.80709 q 0,3.81992 -2.85253,5.92832 -2.85254,2.08359 -8.01192,2.08359 -5.38262,0 -8.55762,-1.71152 v -4.06797 q 4.48965,2.18281 8.65684,2.18281 3.37344,0 4.91133,-1.09141 1.53789,-1.0914 1.53789,-2.92695 0,-1.6123 -1.48828,-2.72852 -1.46348,-1.11621 -5.23379,-2.55488 -3.84473,-1.48828 -5.40742,-2.53008 -1.5627,-1.0666 -2.30684,-2.38125 -0.71934,-1.31464 -0.71934,-3.1998 0,-3.34863 2.72852,-5.2834 2.72852,-1.93477 7.49102,-1.93477 4.63847,0 8.68164,1.83555 l -1.51309,3.54707 q -4.14238,-1.73633 -7.46621,-1.73633 -2.77813,0 -4.2168,0.89297 -1.43867,0.86817 -1.43867,2.40606 0,1.48828 1.24023,2.48047 1.24024,0.96738 5.7795,2.70371 3.39824,1.26504 5.01054,2.35644 1.63711,1.09141 2.40606,2.45567 0.76894,1.36425 0.76894,3.27422 z"
         style="font-style:normal;font-variant:normal;font-weight:normal;font-stretch:normal;font-family:'Noto Sans';-inkscape-font-specification:'Noto Sans';fill:#1a1a1a;stroke-width:0.26458335px"
         id="path4529"
         inkscape:connector-curvature="0" />
      <path
         d="m 400.26085,150.32291 -4.36563,-11.23653 H 381.5085 l -4.31601,11.23653 h -4.61367 l 14.16347,-36.41329 h 4.11758 l 14.13867,36.41329 z m -5.72988,-15.27969 -4.06797,-10.98848 -1.73633,-5.43223 q -0.74414,2.97657 -1.5627,5.43223 l -4.11758,10.98848 z"
         style="font-style:normal;font-variant:normal;font-weight:normal;font-stretch:normal;font-family:'Noto Sans';-inkscape-font-specification:'Noto Sans';fill:#1a1a1a;stroke-width:0.26458335px"
         id="path4531"
         inkscape:connector-curvature="0" />
      <path
         d="m 404.03118,114.05845 h 4.7873 l 8.16075,23.2668 q 1.56269,4.41523 2.28203,7.9127 0.62011,-3.1254 2.30683,-8.01192 l 8.11114,-23.16758 h 4.83691 l -12.94805,36.26446 h -4.58886 z"
         style="font-style:normal;font-variant:normal;font-weight:normal;font-stretch:normal;font-family:'Noto Sans';-inkscape-font-specification:'Noto Sans';fill:#1a1a1a;stroke-width:0.26458335px"
         id="path4533"
         inkscape:connector-curvature="0" />
      <path
         d="m 449.62218,150.32291 h -13.09687 v -2.6293 l 4.2664,-0.96738 v -29.02149 l -4.2664,-1.01699 v -2.6293 h 13.09687 v 2.6293 l -4.2664,1.01699 v 29.02149 l 4.2664,0.96738 z"
         style="font-style:normal;font-variant:normal;font-weight:normal;font-stretch:normal;font-family:'Noto Sans';-inkscape-font-specification:'Noto Sans';fill:#1a1a1a;stroke-width:0.26458335px"
         id="path4535"
         inkscape:connector-curvature="0" />
      <path
         d="m 484.42317,150.32291 h -4.56407 v -16.9168 h -18.60351 v 16.9168 h -4.56407 v -36.26446 h 4.56407 v 15.3293 h 18.60351 v -15.3293 h 4.56407 z"
         style="font-style:normal;font-variant:normal;font-weight:normal;font-stretch:normal;font-family:'Noto Sans';-inkscape-font-specification:'Noto Sans';fill:#1a1a1a;stroke-width:0.26458335px"
         id="path4537"
         inkscape:connector-curvature="0" />
    </g>
    <g
       aria-label="not Noto Sans AVIH"
       style="font-style:normal;font-weight:normal;font-size:50.80000687px;line-height:6.61458349px;font-family:sans-serif;letter-spacing:0px;word-spacing:0px;fill:#1a1a1a;fill-opacity:1;stroke:none;stroke-width:0.26458335px;stroke-linecap:butt;stroke-linejoin:miter;stroke-opacity:1"
       id="text4489-3">
      <path
         d="m 55.388488,194.21632 v -17.01601 q 0,-2.65411 -0.520899,-4.11758 -0.520898,-1.46348 -1.661914,-2.1084 -1.141016,-0.64492 -3.348633,-0.64492 -3.22461,0 -5.084962,2.20761 -1.860352,2.20762 -1.860352,6.12676 v 15.55254 h -4.464844 v -21.10879 q 0,-4.68808 -0.148828,-5.72988 h 4.216797 q 0.02481,0.12402 0.04961,0.66973 0.0248,0.5457 0.04961,1.26503 0.04961,0.69454 0.09922,2.65411 h 0.07441 q 1.537891,-2.77813 3.547071,-3.91914 2.033984,-1.16583 5.035352,-1.16583 4.415235,0 6.449219,2.20762 2.05879,2.18281 2.05879,7.24297 v 17.88418 z"
         style="font-style:normal;font-variant:normal;font-weight:normal;font-stretch:normal;font-family:'Liberation Sans';-inkscape-font-specification:'Liberation Sans';fill:#1a1a1a;stroke-width:0.26458335px"
         id="path4540"
         inkscape:connector-curvature="0" />
      <path
         d="m 89.321305,180.77218 q 0,7.04453 -3.100587,10.49239 -3.100586,3.44785 -9.004102,3.44785 -5.878712,0 -8.88008,-3.57188 -3.001367,-3.59668 -3.001367,-10.36836 0,-13.89063 12.030275,-13.89063 6.151563,0 9.053712,3.39825 2.902149,3.37344 2.902149,10.49238 z m -4.688087,0 q 0,-5.55625 -1.661914,-8.06152 -1.63711,-2.53008 -5.531446,-2.53008 -3.919141,0 -5.680274,2.57969 -1.736329,2.55488 -1.736329,8.01191 0,5.30821 1.711524,7.98711 1.736328,2.6541 5.432227,2.6541 4.01836,0 5.729884,-2.57968 1.736328,-2.57969 1.736328,-8.06153 z"
         style="font-style:normal;font-variant:normal;font-weight:normal;font-stretch:normal;font-family:'Liberation Sans';-inkscape-font-specification:'Liberation Sans';fill:#1a1a1a;stroke-width:0.26458335px"
         id="path4542"
         inkscape:connector-curvature="0" />
      <path
         d="m 105.22111,194.01789 q -2.20762,0.59531 -4.51445,0.59531 -5.357815,0 -5.357815,-6.07715 v -17.90899 h -3.100587 v -3.24941 h 3.27422 l 1.314648,-6.00274 h 2.976563 v 6.00274 h 4.960941 v 3.24941 h -4.960941 v 16.94161 q 0,1.93476 0.620121,2.72851 0.64492,0.76895 2.20761,0.76895 0.89297,0 2.57969,-0.34727 z"
         style="font-style:normal;font-variant:normal;font-weight:normal;font-stretch:normal;font-family:'Liberation Sans';-inkscape-font-specification:'Liberation Sans';fill:#1a1a1a;stroke-width:0.26458335px"
         id="path4544"
         inkscape:connector-curvature="0" />
      <path
         d="m 146.49612,194.21632 -18.70274,-29.76563 0.12403,2.40606 0.12402,4.14238 v 23.21719 h -4.2168 v -34.94981 h 5.50664 l 18.90118,29.96407 q -0.29766,-4.86172 -0.29766,-7.04453 v -22.91954 h 4.26641 v 34.94981 z"
         style="font-style:normal;font-variant:normal;font-weight:normal;font-stretch:normal;font-family:'Liberation Sans';-inkscape-font-specification:'Liberation Sans';fill:#1a1a1a;stroke-width:0.26458335px"
         id="path4546"
         inkscape:connector-curvature="0" />
      <path
         d="m 182.48772,180.77218 q 0,7.04453 -3.10059,10.49239 -3.10058,3.44785 -9.0041,3.44785 -5.87871,0 -8.88008,-3.57188 -3.00137,-3.59668 -3.00137,-10.36836 0,-13.89063 12.03028,-13.89063 6.15156,0 9.05371,3.39825 2.90215,3.37344 2.90215,10.49238 z m -4.68809,0 q 0,-5.55625 -1.66191,-8.06152 -1.63711,-2.53008 -5.53145,-2.53008 -3.91914,0 -5.68027,2.57969 -1.73633,2.55488 -1.73633,8.01191 0,5.30821 1.71153,7.98711 1.73632,2.6541 5.43222,2.6541 4.01836,0 5.72989,-2.57968 1.73632,-2.57969 1.73632,-8.06153 z"
         style="font-style:normal;font-variant:normal;font-weight:normal;font-stretch:normal;font-family:'Liberation Sans';-inkscape-font-specification:'Liberation Sans';fill:#1a1a1a;stroke-width:0.26458335px"
         id="path4548"
         inkscape:connector-curvature="0" />
      <path
         d="m 198.38753,194.01789 q -2.20762,0.59531 -4.51445,0.59531 -5.35782,0 -5.35782,-6.07715 v -17.90899 h -3.10058 v -3.24941 h 3.27422 l 1.31465,-6.00274 h 2.97656 v 6.00274 h 4.96094 v 3.24941 h -4.96094 v 16.94161 q 0,1.93476 0.62012,2.72851 0.64492,0.76895 2.20761,0.76895 0.89297,0 2.57969,-0.34727 z"
         style="font-style:normal;font-variant:normal;font-weight:normal;font-stretch:normal;font-family:'Liberation Sans';-inkscape-font-specification:'Liberation Sans';fill:#1a1a1a;stroke-width:0.26458335px"
         id="path4550"
         inkscape:connector-curvature="0" />
      <path
         d="m 224.85414,180.77218 q 0,7.04453 -3.10059,10.49239 -3.10058,3.44785 -9.0041,3.44785 -5.87871,0 -8.88008,-3.57188 -3.00137,-3.59668 -3.00137,-10.36836 0,-13.89063 12.03028,-13.89063 6.15156,0 9.05371,3.39825 2.90215,3.37344 2.90215,10.49238 z m -4.68809,0 q 0,-5.55625 -1.66191,-8.06152 -1.63711,-2.53008 -5.53145,-2.53008 -3.91914,0 -5.68027,2.57969 -1.73633,2.55488 -1.73633,8.01191 0,5.30821 1.71152,7.98711 1.73633,2.6541 5.43223,2.6541 4.01836,0 5.72988,-2.57968 1.73633,-2.57969 1.73633,-8.06153 z"
         style="font-style:normal;font-variant:normal;font-weight:normal;font-stretch:normal;font-family:'Liberation Sans';-inkscape-font-specification:'Liberation Sans';fill:#1a1a1a;stroke-width:0.26458335px"
         id="path4552"
         inkscape:connector-curvature="0" />
      <path
         d="m 272.65277,184.5673 q 0,4.83691 -3.79511,7.49102 -3.77032,2.6541 -10.64122,2.6541 -12.77441,0 -14.8084,-8.88008 l 4.58887,-0.91778 q 0.79375,3.1502 3.37344,4.63848 2.57969,1.46348 7.01973,1.46348 4.58887,0 7.06933,-1.5627 2.50528,-1.5875 2.50528,-4.63847 0,-1.71153 -0.79375,-2.77813 -0.76895,-1.0666 -2.18281,-1.76113 -1.41387,-0.69453 -3.37344,-1.16582 -1.95957,-0.47129 -4.34082,-1.017 -4.14239,-0.91777 -6.3004,-1.83554 -2.1332,-0.91778 -3.37343,-2.03399 -1.24024,-1.14101 -1.90996,-2.6541 -0.64493,-1.51309 -0.64493,-3.47266 0,-4.48964 3.42305,-6.9205 3.44785,-2.43086 9.84746,-2.43086 5.95313,0 9.10332,1.83554 3.1502,1.81075 4.41524,6.20118 l -4.66328,0.81855 q -0.76895,-2.77812 -2.92696,-4.01836 -2.158,-1.26504 -5.97793,-1.26504 -4.19199,0 -6.39961,1.38906 -2.20761,1.38907 -2.20761,4.14239 0,1.6123 0.84336,2.6789 0.86816,1.0418 2.48046,1.78594 1.61231,0.71934 6.42442,1.78594 1.6123,0.37207 3.1998,0.76894 1.61231,0.37208 3.07579,0.91778 1.46347,0.5209 2.72851,1.24023 1.28985,0.71934 2.23242,1.76114 0.94258,1.04179 1.46348,2.45566 0.5457,1.41387 0.5457,3.32383 z"
         style="font-style:normal;font-variant:normal;font-weight:normal;font-stretch:normal;font-family:'Liberation Sans';-inkscape-font-specification:'Liberation Sans';fill:#1a1a1a;stroke-width:0.26458335px"
         id="path4554"
         inkscape:connector-curvature="0" />
      <path
         d="m 285.30317,194.71242 q -4.04317,0 -6.07715,-2.13321 -2.03399,-2.1332 -2.03399,-5.8539 0,-4.16719 2.72852,-6.39961 2.75332,-2.23243 8.85527,-2.38125 l 6.02754,-0.0992 v -1.46348 q 0,-3.27422 -1.38906,-4.68809 -1.38906,-1.41386 -4.36563,-1.41386 -3.00136,0 -4.36562,1.01699 -1.36426,1.01699 -1.63711,3.24941 l -4.66328,-0.42168 q 1.14101,-7.24297 10.76523,-7.24297 5.06016,0 7.61504,2.33165 2.55489,2.30683 2.55489,6.69726 v 11.55899 q 0,1.98437 0.52089,3.00137 0.5209,0.99218 1.98438,0.99218 0.64492,0 1.46348,-0.17363 v 2.77813 q -1.68672,0.39687 -3.44786,0.39687 -2.48046,0 -3.62148,-1.28984 -1.11621,-1.31465 -1.26504,-4.09278 h -0.14883 q -1.71152,3.07578 -3.99355,4.36563 -2.25723,1.26504 -5.50664,1.26504 z m 1.01699,-3.34864 q 2.45566,0 4.36562,-1.11621 1.90996,-1.11621 3.00137,-3.05097 1.11621,-1.95957 1.11621,-4.01836 v -2.20762 l -4.88652,0.0992 q -3.1502,0.0496 -4.78731,0.64492 -1.6123,0.59531 -2.48047,1.83555 -0.86816,1.24023 -0.86816,3.24941 0,2.18281 1.16582,3.37344 1.19062,1.19062 3.37344,1.19062 z"
         style="font-style:normal;font-variant:normal;font-weight:normal;font-stretch:normal;font-family:'Liberation Sans';-inkscape-font-specification:'Liberation Sans';fill:#1a1a1a;stroke-width:0.26458335px"
         id="path4556"
         inkscape:connector-curvature="0" />
      <path
         d="m 323.77524,194.21632 v -17.01601 q 0,-2.65411 -0.5209,-4.11758 -0.5209,-1.46348 -1.66192,-2.1084 -1.14101,-0.64492 -3.34863,-0.64492 -3.22461,0 -5.08496,2.20761 -1.86035,2.20762 -1.86035,6.12676 v 15.55254 h -4.46485 v -21.10879 q 0,-4.68808 -0.14883,-5.72988 h 4.2168 q 0.0248,0.12402 0.0496,0.66973 0.0248,0.5457 0.0496,1.26503 0.0496,0.69454 0.0992,2.65411 h 0.0744 q 1.53789,-2.77813 3.54707,-3.91914 2.03399,-1.16583 5.03536,-1.16583 4.41523,0 6.44922,2.20762 2.05879,2.18281 2.05879,7.24297 v 17.88418 z"
         style="font-style:normal;font-variant:normal;font-weight:normal;font-stretch:normal;font-family:'Liberation Sans';-inkscape-font-specification:'Liberation Sans';fill:#1a1a1a;stroke-width:0.26458335px"
         id="path4558"
         inkscape:connector-curvature="0" />
      <path
         d="m 355.15317,186.79972 q 0,3.79512 -2.87735,5.85391 -2.85254,2.05879 -8.01191,2.05879 -5.01055,0 -7.73907,-1.63711 -2.70371,-1.66192 -3.52226,-5.15938 l 3.94394,-0.76894 q 0.57051,2.15801 2.35645,3.175 1.78594,0.99219 4.96094,0.99219 3.39824,0 4.96094,-1.0418 1.5875,-1.0418 1.5875,-3.12539 0,-1.5875 -1.09141,-2.57969 -1.09141,-0.99219 -3.52227,-1.63711 l -3.1998,-0.84336 q -3.84473,-0.99219 -5.48184,-1.93477 -1.6123,-0.96738 -2.53008,-2.33164 -0.91777,-1.36425 -0.91777,-3.34863 0,-3.67109 2.60449,-5.58106 2.6293,-1.93476 7.63985,-1.93476 4.44004,0 7.04453,1.56269 2.6293,1.5627 3.32383,5.01055 l -4.01836,0.4961 q -0.37207,-1.78594 -2.00918,-2.72852 -1.61231,-0.96738 -4.34082,-0.96738 -3.02618,0 -4.46485,0.91777 -1.43867,0.91777 -1.43867,2.77813 0,1.14101 0.59531,1.88515 0.59532,0.74414 1.76114,1.26504 1.16582,0.5209 4.91133,1.43867 3.54707,0.89297 5.10976,1.66192 1.5627,0.74414 2.45567,1.66191 0.91777,0.91778 1.41386,2.13321 0.4961,1.19062 0.4961,2.72851 z"
         style="font-style:normal;font-variant:normal;font-weight:normal;font-stretch:normal;font-family:'Liberation Sans';-inkscape-font-specification:'Liberation Sans';fill:#1a1a1a;stroke-width:0.26458335px"
         id="path4560"
         inkscape:connector-curvature="0" />
      <path
         d="m 397.24672,194.21632 -3.99355,-10.21953 h -15.92461 l -4.01836,10.21953 h -4.91133 l 14.26269,-34.94981 h 5.38262 l 14.03946,34.94981 z m -11.95586,-31.37793 -0.22324,0.69453 q -0.62012,2.05879 -1.83555,5.2834 l -4.46484,11.48457 h 13.07207 l -4.48965,-11.53418 q -0.69453,-1.71152 -1.38906,-3.86953 z"
         style="font-style:normal;font-variant:normal;font-weight:normal;font-stretch:normal;font-family:'Liberation Sans';-inkscape-font-specification:'Liberation Sans';fill:#1a1a1a;stroke-width:0.26458335px"
         id="path4562"
         inkscape:connector-curvature="0" />
      <path
         d="m 417.85942,194.21632 h -4.91133 L 398.6854,159.26651 h 4.98574 l 9.67383,24.60626 2.08359,6.17637 2.0836,-6.17637 9.62422,-24.60626 h 4.98574 z"
         style="font-style:normal;font-variant:normal;font-weight:normal;font-stretch:normal;font-family:'Liberation Sans';-inkscape-font-specification:'Liberation Sans';fill:#1a1a1a;stroke-width:0.26458335px"
         id="path4564"
         inkscape:connector-curvature="0" />
      <path
         d="m 437.08307,194.21632 v -34.94981 h 4.7377 v 34.94981 z"
         style="font-style:normal;font-variant:normal;font-weight:normal;font-stretch:normal;font-family:'Liberation Sans';-inkscape-font-specification:'Liberation Sans';fill:#1a1a1a;stroke-width:0.26458335px"
         id="path4566"
         inkscape:connector-curvature="0" />
      <path
         d="m 474.29009,194.21632 v -16.19746 h -18.90117 v 16.19746 h -4.7377 v -34.94981 h 4.7377 v 14.7836 h 18.90117 v -14.7836 h 4.7377 v 34.94981 z"
         style="font-style:normal;font-variant:normal;font-weight:normal;font-stretch:normal;font-family:'Liberation Sans';-inkscape-font-specification:'Liberation Sans';fill:#1a1a1a;stroke-width:0.26458335px"
         id="path4568"
         inkscape:connector-curvature="0" />
    </g>
  </g>
</svg>
