<?xml version="1.0" encoding="UTF-8" standalone="no"?>
<!-- Created with Inkscape (http://www.inkscape.org/) -->

<svg
   xmlns:dc="http://purl.org/dc/elements/1.1/"
   xmlns:cc="http://creativecommons.org/ns#"
   xmlns:rdf="http://www.w3.org/1999/02/22-rdf-syntax-ns#"
   xmlns:svg="http://www.w3.org/2000/svg"
   xmlns="http://www.w3.org/2000/svg"
   xmlns:sodipodi="http://sodipodi.sourceforge.net/DTD/sodipodi-0.dtd"
   xmlns:inkscape="http://www.inkscape.org/namespaces/inkscape"
   version="1.1"
   id="svg2"
   xml:space="preserve"
   width="894.10315"
   height="707.00629"
   viewBox="0 0 894.10318 707.00626"
   sodipodi:docname="spaceInvaders.svg"
   inkscape:version="0.92.2pre0 650254f, 2017-08-06"><metadata
     id="metadata8"><rdf:RDF><cc:Work
         rdf:about=""><dc:format>image/svg+xml</dc:format><dc:type
           rdf:resource="http://purl.org/dc/dcmitype/StillImage" /><dc:title></dc:title></cc:Work></rdf:RDF></metadata><defs
     id="defs6"><clipPath
       clipPathUnits="userSpaceOnUse"
       id="clipPath20"><path
         d="M 0,900 H 1024 V 0 H 0 Z"
         id="path18"
         inkscape:connector-curvature="0" /></clipPath><clipPath
       clipPathUnits="userSpaceOnUse"
       id="clipPath36"><path
         d="M 0,900 H 1024 V 0 H 0 Z"
         id="path34"
         inkscape:connector-curvature="0" /></clipPath></defs><sodipodi:namedview
     pagecolor="#ffffff"
     bordercolor="#666666"
     borderopacity="1"
     objecttolerance="10"
     gridtolerance="10"
     guidetolerance="10"
     inkscape:pageopacity="0"
     inkscape:pageshadow="2"
     inkscape:window-width="1914"
     inkscape:window-height="1095"
     id="namedview4"
     showgrid="false"
     inkscape:pagecheckerboard="true"
     fit-margin-top="0"
     fit-margin-left="0"
     fit-margin-right="0"
     fit-margin-bottom="0"
     inkscape:zoom="0.55625733"
     inkscape:cx="1075.3539"
     inkscape:cy="156.27"
     inkscape:window-x="6"
     inkscape:window-y="42"
     inkscape:window-maximized="1"
     inkscape:current-layer="g10" /><g
     id="g10"
     inkscape:groupmode="layer"
     inkscape:label="f_spaceInvaders"
     transform="matrix(1.3333333,0,0,-1.3333333,-71.642665,1161.914)"><path
       d="m 191.87659,735.32447 h -23.021 v 18.287 h 23.021 z m -67.347,0 h -23.023 v 18.287 h 23.023 z m 88.435,38.7 v -19.491 h -21.947 v 19.491 h -21.625 v 17.456 h 21.303 v 20.229 h -22.594 v -19.675 h -43.572 v 19.675 h -22.593 v -20.229 h 21.948 v -17.456 h -21.948 v -19.491 H 79.990594 v 19.491 h -23.562 v -115.549 h 46.152996 v 19.674 H 79.990594 v 36.484 h 22.590996 v -18.749 h 21.303 v -18.843 h 45.508 v 18.843 h 22.27 v 18.749 h 21.302 v -36.484 h -21.947 v -19.674 h 45.508 v 115.549 z"
       style="fill:#666666;fill-opacity:1;fill-rule:nonzero;stroke:none"
       id="path42"
       inkscape:connector-curvature="0" /><path
       d="m 667.56239,755.46822 h -19.404 v 19.77 h 19.404 z m -75.419,0 h -19.403 v 19.77 h 19.403 z m 113.129,-37.344 v 18.306 h 19.037 v 76.882 h -19.769 v -38.074 h -17.94 v 19.402 h -18.673 v 17.207 h 18.673 v 20.136 h -19.404 v -18.671 h -19.038 v -18.672 h -56.015 v 18.672 h -19.036 v 18.671 h -19.404 v -20.136 h 18.67 v -17.207 h -19.037 v -19.402 h -18.305 v 38.074 h -19.77 v -76.882 h 19.036 v -18.306 h 19.406 v -17.94 h -19.404 v -20.136 h 20.5 v 18.306 h 18.308 v 19.77 h 94.089 v -19.038 h 17.939 v -19.038 h 20.503 v 20.136 h -19.038 v 17.94 z"
       style="fill:#666666;fill-opacity:1;fill-rule:nonzero;stroke:none"
       id="path44"
       inkscape:connector-curvature="0" /><path
       d="m 418.88273,785.82153 h -19.145 v 32.252 h 19.145 z m -68.071,0 h -19.145 v 32.252 h 19.145 z m 107.425,12.315 v 19.351 h -19.145 v 13.488 h -18.081 v 19.35 h 14.093 v 21.11 h -19.677 v -21.11 h -14.093 v -19.35 h -47.065 v 19.35 h -14.094 v 21.11 h -19.677 v -21.11 h 14.093 v -19.35 h -18.347 v -13.488 h -16.486 v -19.351 h -15.422 v -69.194 h 20.208 v 39.875 h 11.7 v -35.771 h 10.636 v -15.246 h 35.632 v 21.696 h -24.464 v 17.593 h 79.24 v -17.593 h -23.399 v -21.696 h 35.631 v 15.246 h 9.572 v 35.771 h 14.89 v -39.875 h 20.211 v 69.194 z"
       style="fill:#666666;fill-opacity:1;fill-rule:nonzero;stroke:none"
       id="path46"
       inkscape:connector-curvature="0" /><path
       d="m 658.56874,595.25294 h -50.541 v 16.937 h 50.541 z m 33.858,-12.511 v 45.139 h -10.207 v 6.015 h -12.96 v -6.015 h -9.611 v 27.252 h -16.417 v 17.965 h -19.868 v -17.965 h -16.414 v -27.252 h -9.613 v 6.015 h -12.96 v -6.015 h -10.207 v -45.139 h -15.461 v -62.995 h 24.736 v 28.085 h 23.505 v -11.238 h 52.699 v 11.238 h 23.501 v -28.085 h 24.738 v 62.995 z"
       style="fill:#666666;fill-opacity:1;fill-rule:nonzero;stroke:none"
       id="path48"
       inkscape:connector-curvature="0" /><path
       d="m 432.03616,426.63878 h -16.25 v 34.182 h 16.25 z m -68.366,0 h -16.25 v 34.182 h 16.25 z m 102.269,-10e-4 v 18.213 h -16.057 v 34.183 h -17.285 v 16.249 h 16.251 v 17.371 h -17.653 v -17.091 h -16.809 v -16.529 h -49.875 v 16.81 h -17.092 v 16.81 h -17.651 v -17.371 h 16.533 v -16.249 h -16.158 v -34.183 h -17.185 v -18.213 h -16.532 v -51.553 h 17.091 v 34.462 h 16.812 v -34.462 h 15.972 v -17.092 h 17.931 v -16.812 h 17.372 v 17.372 h -17.093 v 16.811 h -17.092 v 16.251 h 84.897 v -16.251 h -17.93 v -16.811 h -16.532 v -17.372 h 17.373 v 16.812 h 17.37 v 17.092 h 16.81 v 34.462 h 16.532 v -34.462 h 17.091 v 51.553 z"
       style="fill:#666666;fill-opacity:1;fill-rule:nonzero;stroke:none"
       id="path50"
       inkscape:connector-curvature="0" /><path
       d="m 53.732,417.329 h 32.689 v 22.59 H 53.732 Z m 166.095,0 h 32.689 v 22.59 h -32.689 z m -17.668,88.038 h -32.691 v 22.587 h 32.691 z m -65.379,0 h -32.689 v 22.587 h 32.689 z m 98.95,44.016 v 21.432 h -50.357 v 20.851 H 120.877 V 570.815 H 71.843 V 549.383 H 55.057 v -65.445 h 49.034 v -21.433 h -17.23 v -22.586 h 32.691 v 22.586 h 16.786 v -22.586 h 32.688 v 22.586 H 136.78 v 21.433 h 32.686 v -21.433 h 16.788 v -22.586 h 32.69 v 22.586 h -16.788 v 21.433 h 50.36 v 65.445 z"
       style="fill:#666666;fill-opacity:1;fill-rule:nonzero;stroke:none"
       id="path52"
       inkscape:connector-curvature="0" /><path
       d="m 464.79125,602.69388 h -17.191 v 14.229 h 17.191 z m -41.796,0 h -17.192 v 14.229 h 17.192 z m -41.796,0 h -17.191 v 14.229 h 17.191 z m -41.795,0 h -17.192 v 14.229 h 17.192 z m 151.77,5.336 v 14.824 h -11.266 v 13.633 h -15.413 v 14.228 h -26.678 v 10.672 h -84.779 v -10.672 h -29.047 v -14.228 h -14.823 v -13.633 h -13.634 v -14.824 h -14.823 v -22.527 h 26.084 v -18.38 h 16.008 v -13.634 h 16.005 v 13.634 h 15.417 v 18.38 h 27.269 v -18.38 h 29.645 v 18.38 h 24.897 v -18.38 h 14.227 v -13.634 h 16.008 v 13.634 h 17.194 v 18.38 h 24.9 v 22.527 z"
       style="fill:#666666;fill-opacity:1;fill-rule:nonzero;stroke:none"
       id="path54"
       inkscape:connector-curvature="0" /><g
       id="g142"
       transform="translate(686.79694,433.86491)"><path
         d="M 0,0 V 13.074 H -50.981 V 35.558 H -65.889 V 49.155 H -80.528 V 35.558 H -95.43 V 13.074 h -50.984 V 0 h -10.981 V -60.655 H 10.981 V 0 Z"
         style="fill:#666666;fill-opacity:1;fill-rule:nonzero;stroke:none"
         id="path144"
         inkscape:connector-curvature="0" /></g></g></svg>