<svg xmlns="http://www.w3.org/2000/svg" viewBox="0 0 762.68 542.5"><defs><style>.a{isolation:isolate;}.b{fill:#ed2224;opacity:0.9;mix-blend-mode:darken;}</style></defs><title>veloci</title><g class="a"><path d="M114.34,354.39a2.17,2.17,0,0,0,1.09.06c1.53-1.06,3-.72,4.46.09a3,3,0,0,0,3,0c0.67-.34,1.37-0.65,2-1a2.44,2.44,0,0,1,2.75-.25,1.54,1.54,0,0,0,1.72,0c1.76-1.16,3.75-1,5.7-1a4.44,4.44,0,0,0,3.69-1.62,22.37,22.37,0,0,1,10.67-6.1c1.18-.32.19,0.43,0.28,0.65a0.41,0.41,0,0,0,.56.2,7.07,7.07,0,0,0,1.29-.39A127.42,127.42,0,0,0,165,337.9c1-.63,1.77-1.64,2.94-2.08a1.42,1.42,0,0,0,.8-1.05,5.22,5.22,0,0,1,1.28-2.11,11.67,11.67,0,0,0,2.52-7.22,4.46,4.46,0,0,1,2-3.84c0.19-.12.66-0.43,0.64,0.11,0,1,.63,1,1.19.9,1-.2,2.22.24,2.9-0.84a3.89,3.89,0,0,1,2.15-1.56,2.87,2.87,0,0,0,1.35-1.12,5.15,5.15,0,0,1,6-1.91,17.83,17.83,0,0,1,3.83,1.36c0.84,0.47,1.42.16,1.62-.85a4.82,4.82,0,0,0,.11-2.24,53.92,53.92,0,0,0-1.55-5.44,9.2,9.2,0,0,1-.35-6,28.37,28.37,0,0,1,1.48-4.75,6.93,6.93,0,0,1,4.48-3.56c1.53-.5,2.2,0,2.57,1.59,0.22,0.95-.2,1.42-1,1.17-1.25-.37-2.19.33-3.24,0.66a0.86,0.86,0,0,0-.65.84,0.81,0.81,0,0,0,.74.76c1.48,0.13,3.1.52,4.13-1,2-2.84,5.38-2.3,8-3.53a0.87,0.87,0,0,1,.85.18,1,1,0,0,0,1.51-.42,4.25,4.25,0,0,1,3.33-2.06,3.14,3.14,0,0,0,2.34-1.62c0.77-1.23,1.39-2.06,3.32-1.85a4.37,4.37,0,0,0,4.31-2.8c1-2.86,3.09-4.76,5.34-6.58,0.76-.61,1.48-1.1,1.3-2.38-0.13-.89.85-1.57,1.62-2,1.15-.72,2.36-1.34,3.58-1.94,4.39-2.18,8.65-4.56,12.07-8.22a4.07,4.07,0,0,0-3.25.34,9.5,9.5,0,0,1-1.89.77,18.37,18.37,0,0,0-9.09,6c-1.73,2.12-2.41,2.1-4.92.93a2.7,2.7,0,0,0-2.57-.06c-1.48.72-2.44,0.46-3.55-.84a15.74,15.74,0,0,0-1.72-1.79c-1.39-1.19-1.52-2.64-.17-3.87a10.52,10.52,0,0,0,2.53-3.67,5.7,5.7,0,0,1,3.85-3.28c2.72-.63,4-2.65,5.09-4.74a10.82,10.82,0,0,1,4.72-5c1.36-.69,2-2.11,2.53-3.39a9,9,0,0,1,3.32-3.89,14.15,14.15,0,0,0,4.07-4.2,11.92,11.92,0,0,1,3.15-3.53,8.24,8.24,0,0,0,3-4.67A4.71,4.71,0,0,1,257.2,228a10.48,10.48,0,0,0,5.07-3.64,19.54,19.54,0,0,1,3.63-4c1-.7,1-1.36,0-2.12a8,8,0,0,1-1.19-1.36c-1.17-1.44-2.6-1.48-3.92-.09a9.23,9.23,0,0,1-1.13,1.1c-1.1.82-1.6,0.74-2.47-.31a5.55,5.55,0,0,1-.38-0.56,1.29,1.29,0,0,0-2-.49c-2.44,1.32-3.41,1.09-5.4-.82-1.15-1.11-1.64-1.1-2.71.09-0.35.39-.64,0.85-1,1.26-1.35,1.66-2.72,1.75-4.15.12a4.82,4.82,0,0,0-2.6-2,2.68,2.68,0,0,1-1.39-1.42,1.7,1.7,0,0,0-2.54-.51c-2.1,1.14-2.5,1-4-.78-1.05-1.31-2.07-2.07-4-1.61-2.31.55-4.29-.69-5.6-2.63-1.05-1.55-1.8-3.29-3.5-4.34a2.55,2.55,0,0,1-.92-1.52c-0.59-2.65-2.42-4.86-2.76-7.58a1.84,1.84,0,0,0-1.51-1.71,22.36,22.36,0,0,1-4.43-1.71,5.35,5.35,0,0,1-1.28-.91,1.54,1.54,0,0,1-.23-2.07,1.39,1.39,0,0,1,1.82-.37c0.85,0.31,1.63,1.15,2.85.43a6,6,0,0,0-2.21-1.93,1.37,1.37,0,0,1-.83-1.47,1.35,1.35,0,0,1,1.3-1.08,1.54,1.54,0,0,1,1.72.79,6,6,0,0,0,.45,1,1.49,1.49,0,0,0,1.63.54,1.51,1.51,0,0,0,1-1.37,1.14,1.14,0,0,0-.89-1.37c-0.63-.25-1.29-0.43-1.92-0.67s-1.31-.7-1-1.51c0.37-1,1.23-.62,1.92-0.39a6.08,6.08,0,0,1,1.18.66c0.8,0.49,1.24.21,1.51-.63s0.06-1.32-.87-1.39c-0.76-.06-1.75-0.14-1.57-1.14,0.2-1.16,1.14-.91,2-0.59a4.09,4.09,0,0,0,1.11.18,1.68,1.68,0,0,0,2-1c0.36-1-.48-1.34-1.13-1.65s-1.46-.71-1.2-1.64a1.64,1.64,0,0,1,1.94-1.18,1.85,1.85,0,0,0,1.62-.32c0.15-.7-0.46-0.81-0.68-1.16-0.39-.61-0.65-1.49-0.16-1.9,1.83-1.56,1.27-4.06,2.51-5.88a24.38,24.38,0,0,0,2.63-5.75,5.66,5.66,0,0,1,1.1-1.69,1.1,1.1,0,0,1,1.25-.28,0.93,0.93,0,0,1,.37,1,2.29,2.29,0,0,1-.66,2.08c-2.13,2-2.59,4.91-4,7.29a0.75,0.75,0,0,0-.05.85c0.85,1.08.83,1.85-.63,2.33-0.38.13-.39,0.56-0.16,1,1.28,2.21,1.28,2.21-.38,4.06,2,1.31,1.94,1.31,2.81-.73a7.86,7.86,0,0,1,2.12-3c0.77,0.18.55,1,1.08,1.22a0.82,0.82,0,0,0,.41-0.1c1.11-1.61,2.18-3.25,3.41-4.79,1-1.3.92-1.92-.44-2.9-0.66-.47-0.76-0.87-0.27-1.46a3.17,3.17,0,0,0,.61-1.44c0.2-1,.22-1.73-1.08-2-1-.22-1-0.85-0.47-1.67a1.88,1.88,0,0,1,1.26-.91,5,5,0,0,0,3.24-1.85c0.09,1.73.3,3-.53,4.41-0.64,1.11-.51,2.79-0.39,4.19a18.34,18.34,0,0,1-.06,3.81,8.93,8.93,0,0,0,.13,2.7,2.79,2.79,0,0,1-.93,3.05c-0.83.62-.67,1.13-0.21,1.89,1,1.58.93,1.61-.65,2.53-0.13.08-.28,0.12-0.41,0.2a1.34,1.34,0,0,0-.89,1.42,0.72,0.72,0,0,0,.55.64,1.19,1.19,0,0,0,1.39-.88,4.32,4.32,0,0,1,2.58-2,1.67,1.67,0,0,1,2.23.55c0.71,1.48,2.09,1.59,3.35,2,2.19,0.64,2.1.61,2.22,2.92a6,6,0,0,1-1.5,4.08c-0.52-.62.31-1.54-0.49-2a5.34,5.34,0,0,0-2-.51c-1.49-.15-2,0.18-2.58,1.6a3.31,3.31,0,0,1-.75,1.51c-0.28-1.41-1.11-1.53-2.44-1.73-3-.46-4.11,1.65-5.57,3.26a1.81,1.81,0,0,0,.06,2.8,2.29,2.29,0,0,0,3.29-.71,27.51,27.51,0,0,1,3.11-3.67,14,14,0,0,1-.51,1.59c-0.37.82-.94,1.58-0.42,2.55a0.49,0.49,0,0,1,0,.43c-2.16,2.46.86,3,1.71,4.14s2.67,0.56,4.05.37a1.26,1.26,0,0,0,.81-1.23,1.29,1.29,0,0,0-.3-0.32c-0.57-.27-1.46.39-1.79-0.53a2.1,2.1,0,0,1,.67-2.06l1.37-1.68a2.25,2.25,0,0,1-.09,1.52c0,0.37-.13.75-0.12,1.12,0,1.17,1.25.89,1.72,1.39s-0.68,1.5.39,2.07a1.12,1.12,0,0,0,.61.22c0.53-.1,1-1.08,1.58.09a1.54,1.54,0,0,1-.54,2.15,1.41,1.41,0,0,0-.11.42c1.74-.34,3-1.49,4.47-2.1,0.75-.32.62-1.57-0.16-2.07a5.08,5.08,0,0,0-1.27-.46c-1.73-.53-2.4-1.61-1.63-3.25a40.49,40.49,0,0,0,2.68-7.43,4.55,4.55,0,0,1,2.41-2.61c1-.6,1.61-1.3,1.29-2.56a4.05,4.05,0,0,1,.89-3.41,13.16,13.16,0,0,1,5-4.48c1.69-.76,2.72-2.35,4.28-3.29a6.56,6.56,0,0,1,4-1.3c4,0.43,7.76-.87,11.61-1.51,3.42-.57,6.65-1.94,10.11-2.36a0.6,0.6,0,0,0,.22,0c2.67-1.53,5.62-1.38,8.56-1.52a80.65,80.65,0,0,0,9.88-.89c3.86-.67,7.44.49,11.15,0.69a6.26,6.26,0,0,0,2,.13c3.31-1,6.39.41,9.55,0.89,1.56,0.24,3.06.81,4.59,1.19a29.1,29.1,0,0,0,5.73,1c2.8,0.11,5.53.68,8.32,0.77a29.38,29.38,0,0,1,9.85,2.3c3.74,1.5,3.63,1.75,6.89,1.72a5.92,5.92,0,0,1,1.79.18c0.77,0.24,2-.2,2.25.66,0.37,1.21-1.19.76-1.68,1.38A26,26,0,0,0,362,173a2.72,2.72,0,0,1-3.15,1.53c-1.27-.2-2.64.21-3.9-0.49a0.83,0.83,0,0,0-.66,0c-2.14,1.07-4.67,1-6.72,2.29-1,.61-1.92,1.3-3.12.52-1-.62-1.25.7-1.71,0.7-1.51,0-3,.63-4.49.27l-1.26-.29a7.77,7.77,0,0,1,2.14-2.06c0.66-.53,1.35-1,1.16-2a1,1,0,0,1,.69-1,2.48,2.48,0,0,0,1.37-1.13c0.18-.54,1.31-0.91.39-1.69a1.79,1.79,0,0,0-2.44,0,5.17,5.17,0,0,0-.9,1,2.55,2.55,0,0,1-3.15,1.08,1.53,1.53,0,0,0-1.3-.17c-1.87,1.36-4,.89-6,0.79a2.41,2.41,0,0,0-2,1.24c-0.93,1.33-1.93,1.72-3.45,1a2.24,2.24,0,0,0-2.89.5,1.79,1.79,0,0,1-1.49.39c-0.89,0-2,.32-2.43-0.65s0.74-1.35,1.3-1.92a16.3,16.3,0,0,1,1.38-1.14c-0.37-.77-1,0.34-1.43-0.52,0.23-1.12,2-.73,2.5-2.06-1,.14-1.73.52-2.56-0.22s-1.73-.11-2.42.54a10.73,10.73,0,0,0-.54,1c-0.56.68-1.1,0.59-1.58-.14a3.45,3.45,0,0,1-.32-2.61c0.16-1-.34-1.42-1.34-1.18l0,0c-1.14-.51-1.81.44-2.66,0.83-0.69.32-1.34,0.77-1.68-.51-0.24-.88-1-0.4-1.46-0.07-0.82.62-1.46,1.5-2.58,1.67-0.31-.41.33-1-0.16-1.25s-0.8.23-1.06,0.55a3.81,3.81,0,0,1-5.19,1.17,12.21,12.21,0,0,0-4.4-1c-2-.15-2-0.23-2.39-2-0.62-2.94-1.47-3.27-3.82-1.22-2.84,2.48-5.58,5.08-8.31,7.69a3.68,3.68,0,0,1-3,1.25c-3.94-.24-7.78.87-11.7,0.94-1.08,0-1.22,1-1.8,1.68a3,3,0,0,0,2.41.2,11.11,11.11,0,0,1,5.16.09,2.92,2.92,0,0,0,1.77-.12c2.09-.72,2.64-0.38,3.25,1.89a2.48,2.48,0,0,0,.26.46c1.46-.17,2.94-0.3,4-1.64a1.47,1.47,0,0,1,1.43-.51,2.25,2.25,0,0,0,1.72-.39,1.3,1.3,0,0,1,1.83.24,2.19,2.19,0,0,0,2.52.41,3.58,3.58,0,0,1,4.09,1.11,7.48,7.48,0,0,1,2.25,3.29,14.77,14.77,0,0,0,2,3.81,3.07,3.07,0,0,0,2.71,1.72,5,5,0,0,0-.61,4.23,10.38,10.38,0,0,1-.91,6.58c-1.42,3.25-3.42,6.22-4.62,9.57a2.21,2.21,0,0,1-2.08,1.49c-1.73.15-3.45,0.34-5.18,0.52-2.27.23-3.41,1.16-4,3.24,0.69,0.44,1.31,0,1.94-.17s1.06-.18,1.53-0.33c1-.32.48,1.83,1.58,0.88a1.75,1.75,0,0,1,1.85-.26,1.29,1.29,0,0,0,1.64-1.15c0.24-1.26,1.07-1.29,2.05-1.06a5.55,5.55,0,0,0,3.12.14,0.82,0.82,0,0,0,.76-0.7,0.84,0.84,0,0,0-.56-0.65c-0.66-.45-1.74-0.4-1.9-1.42a3.63,3.63,0,0,1,1.17-2.85c1.36-1.6,3-2.92,4.29-4.64,0.69-.93,2.1-1,3.12-1.1a8.17,8.17,0,0,1,5.25.58c1.81,1,3.49,2.44,5.67,2.65,1,0.1.57,1.37,1.34,1.58,0.71,0,.47-0.72.94-1.1,1.08,0.6,2.14,1.55,3.5,1.57a14.94,14.94,0,0,1,4.13.43c-0.18-1.54-.22-2.85-1.27-3.9a28.91,28.91,0,0,1-1.85-2.28c-1.32-1.63-1.32-2.15,0-3.94a1.29,1.29,0,0,0,1.29-.23c3.56-1.24,7.29-1.83,10.91-2.8a17.55,17.55,0,0,1,4.23-.66c2.47,0,4.94,0,7.38,0a10.51,10.51,0,0,1-3.42,1c-1.24.2-2.55,0.16-3.64,0.94a2.71,2.71,0,0,0-2.79.82l2.76-.85a2.62,2.62,0,0,1,1.44.28c-2.53,1.55-5.41,2.33-8,4.3a3.32,3.32,0,0,0,2-.54c2.17-1.24,4.57-2,6.75-3.12a23,23,0,0,1,10-2.68c5.15-.23,10.27-0.1,15,2.27,1,0.5,2,1.11,3,1.66a2.53,2.53,0,0,1,1,.92c0.61,1,.26,1.8-0.93,1.85a11.52,11.52,0,0,1-2.25-.21,86.73,86.73,0,0,0-15.78-1,21.12,21.12,0,0,0-11.76,4l-0.85.12c-0.22,0-.49.16-0.43,0.38,0.12,0.4.46,0.26,0.68,0.09a4.11,4.11,0,0,0,.56-0.63,19.46,19.46,0,0,0,5.78-1.91,15.85,15.85,0,0,1,5.93-1.28c5.44-.11,10.88-0.11,16.19,1.39,1.23,0.35,2.47.67,3.85,1a5,5,0,0,1-4.22.72,23.23,23.23,0,0,0-8.55.31c-3.49.62-7.07,0.71-10.5,1.68-2.24.63-4.57,1-6.64,2.16a8.21,8.21,0,0,0-3.85,1.53c1.29-.47,2.77-0.47,3.81-1.57a36.24,36.24,0,0,0,8-1.45,27.57,27.57,0,0,1,5.12-.83c0.53,0,1.15-.34,1.54.5,0.27,0.58.94,0.14,1.09-.15a2,2,0,0,1,2-1c1.54,1.43,3.07.25,4.56,0.17,1.72-.09,3.43-0.53,5.15-0.67s3.47,0,5.19-.14a34.92,34.92,0,0,1,8.74,1,2.22,2.22,0,0,1,1.68,1c-0.18.83-1,.88-1.52,1.2-2.42,1.37-5.11,1.6-7.79,1.88a2.37,2.37,0,0,0-1.48.45c-1.29,0-2.65-.38-3.74.63,1.23-.23,2.57.08,3.71-0.66a2.55,2.55,0,0,0,2.7.59c1.64-.47,3.12-0.36,4.24,1.18a3.38,3.38,0,0,0,1.74,1,2.7,2.7,0,0,1,2.05,3.41,1.46,1.46,0,0,0,.86,1.85c2.38,1,3.83,3.43,6.48,3.94,0.37,1.7,2.31,2.09,3,3.53a2.08,2.08,0,0,0,.55.95,4.1,4.1,0,0,1,1.65,4.58,1.66,1.66,0,0,0,.3.67,23.29,23.29,0,0,1,2.45-1.15,1.21,1.21,0,0,1,1.62.34c0.29,0.58-.32.94-0.65,1.31-0.63.71-1.43,1.19-1.27,2.45,0.13,1,0,1.73,1.11,2.32,0.79,0.42,1,1.58,1.42,2.46s0.83,2.35,2.45,2.15a0.5,0.5,0,0,1,.59.51c0.35,2.2.36,2.2,2.46,2a1,1,0,0,1,.23,0c0.27,0.31-.26.58-0.12,0.77,1.07,1.48,1.54,3.48,3.43,4.25a4.3,4.3,0,0,1,1.39,1.1,19.42,19.42,0,0,0,2,1.85c1.38,1,2,.64,2.23-1a5.09,5.09,0,0,0-.91-3.84,1.43,1.43,0,0,0-2.1-.68,19.18,19.18,0,0,1,.9-4,1.21,1.21,0,0,1,.8-1c1.47,0,1.29-1.13,1.13-1.93a30.69,30.69,0,0,0-3.08-8,0.92,0.92,0,0,0-1.64-.27,1.29,1.29,0,0,1-1.65.33,7,7,0,0,0-4.35-.83,1.11,1.11,0,0,1-1.08-.49c0.38-.69,1.15-0.47,1.73-0.61a49.28,49.28,0,0,1,5.09-1.09c1.19-.16,1.34-0.78,1.19-1.7a2.5,2.5,0,0,0-.38-1,1.35,1.35,0,0,1-.06-1.85c0.58-.64,1.3-0.27,1.89,0,2.56,1.11,5.11,2.25,7.64,3.44a9,9,0,0,1,2.84,2.23,21.36,21.36,0,0,0,7.65,5.12c0.48,0.21,1,.43,1.44.66,2.4,1.16,3.36.68,4.3-2.24a4.11,4.11,0,0,0-3,.58,2.54,2.54,0,0,1-3.14,0,48.16,48.16,0,0,1-7.37-5.21,28.54,28.54,0,0,0-11.83-5.87,3,3,0,0,1-2.18-1.69c-1.27-2.54-2.14-5.31-4.39-7.42,1.21-.77,2,0.26,3.22,0,0.3-.32-0.42-1.12.24-1.6a1.92,1.92,0,0,1,1.73-.14c0.87,0.19,1.61-.29,2.43-0.41,2-.29,2.6.18,2.27,2.25-0.12.74-.27,1.48-0.42,2.22a1.67,1.67,0,0,0,.79,1.89,20,20,0,0,0,4.68,2.7c1.9,0.69,3.59,1.89,5.46,2.73,1.24,0.56,2.37,1.31,3.78.85,0.2,0.85-.6,1-0.71,1.63l2,1.29c0.61,0.4.89,1.27,1.79,1.25,0.37-1.79.37-1.79,2.08-1.55,2,0.28,2,.28,2.72,1.63-3.59.07-3.77,0.16-4.16,2.29a11,11,0,0,0,2.51-1c0.91-.36,1.46-0.15,2.24.72a37.28,37.28,0,0,1,3,4.12c0.51,0.75,1,1.08,1.85.61s1.06,0.08,1.28.71a4.51,4.51,0,0,1-.39,3.29c-0.69,1.73-.39,2.15,1.47,2.1a3.36,3.36,0,0,1,1.56,0c0.46,0.2,1.09.15,1.13,0.9a0.86,0.86,0,0,0,.22.61,2.75,2.75,0,0,1,1.55,2.56,7.53,7.53,0,0,1-1.21,4.07c-0.25.37-.54,0.72-0.83,1.07-1.57,1.91-1.21,3.71,1,5.09a0.56,0.56,0,0,0-.61.68,0.45,0.45,0,0,0,.21.33c0.36,0,.45-0.24.5-0.53l2,4.44c0.13,0.27.29,0.53,0.4,0.81,0.31,0.83.92,1.79,0.07,2.5s-1.52-.15-2.19-0.62a3.3,3.3,0,0,0-.73-0.26c-0.26,1.5.57,2.47,1.37,3.44,0.31,0.37.54,0.28,0.95,0.08a2.78,2.78,0,0,1,3.58.82,34.43,34.43,0,0,0,3.86,4.13,1.88,1.88,0,0,1,.72,2.4,2.26,2.26,0,0,1-2.27.62,4.39,4.39,0,0,0-3.26.43c3.13,0.55,4.88,2.48,6.79,4.25s4.26,2.55,6.63,3.35a6,6,0,0,1,3.86,5.71,1.26,1.26,0,0,1-1.59,1.39,7.23,7.23,0,0,0-3.64.24c0.22,0.6.42,1.12,0.6,1.66a1,1,0,0,0,.73.8c1.69,0.22,3.33,1.13,5.1.4a3.94,3.94,0,0,1,1.75-.38c0.66,0,1.94.72,1.26-1a0.26,0.26,0,0,1,.08-0.2,20.13,20.13,0,0,1,3.81-.43,8.58,8.58,0,0,1,.75.5c1.84,1.39,3.85,1.31,5.93.69,1.08-.32,2.21-0.52,3.29-0.84,0.73-.21,1.56-0.58,1.5-1.46s-1.19-.13-1.63-0.67a3,3,0,0,1,3.66-.89c1.54,0.55,3.22.7,4.08,2.45a4.7,4.7,0,0,0,1.51,1.34c1.39,1,1.61,1,3.21.09s3.22-1.89,5.1-1.43c2.21,0.54,3.8-.34,5.3-1.75A6.56,6.56,0,0,0,509,282.8a1.93,1.93,0,0,0-.51-0.2c-1,0-1.87,1.5-2.61,1-1.28-.88-2.48-1.92-3.7-2.91a0.75,0.75,0,0,1-.21-1,0.84,0.84,0,0,1,1-.12c1.39,0.37,2.78.72,4.17,1,1,0.23,1.94.58,2.83-.58a1.41,1.41,0,0,1,2.37.35,1.61,1.61,0,0,0,1.43.55c3.54,0.15,7.1.42,10.49-1.09a3.75,3.75,0,0,0,1.94-1.46,0.82,0.82,0,0,0,0-1,0.69,0.69,0,0,0-1,0c-2.51,1.86-5.31,1.16-8.05.91a1.11,1.11,0,0,1-1.21-.81,1.24,1.24,0,0,1,.81-1.46,10.22,10.22,0,0,1,7.91-.36c1.51,0.51,1.67.54,2.46-.85,0.62-1.09.81-2.43,2-3.19a0.88,0.88,0,0,0,0-1.23,20.17,20.17,0,0,1-1.15-2.2c-0.53-1.43-.17-2,1.37-2.35a1.35,1.35,0,0,0,.44-0.08c1.5-1.08,2.72-.88,4.13.4,1.09,1,2.75.62,3.91-.49,2.61-2.48,5.65-2.41,8.8-1.51a4,4,0,0,1,2.64,3.17c0.18,0.64.33,1.19,1.09,1.2a1.72,1.72,0,0,0,1.83-1.37c0.2-.67.49-1.28-0.35-1.75a5,5,0,0,1-1.69-2.09,4.26,4.26,0,0,0-1.54-1.9,2.62,2.62,0,0,1-1.06-1.92,0.59,0.59,0,0,1,.49-0.85c1.85,0.16,3.67-.92,5.54-0.1,0.55,0.24,1.32.29,1.55,0.83,0.54,1.29,1.61,1.14,2.65,1.23,1.84,0.16,3.69.82,5.42-.36,0.37,0.82-.77.8-0.46,1.58a5,5,0,0,1,3.25.74c1.15,0.78,2.78-.3,3.6-2.05a1.06,1.06,0,0,0-1.17-.44,1.79,1.79,0,0,1-1.56-1.15c-0.39-.88.52-1,0.92-1.28a1.39,1.39,0,0,0,.35-2c-1.55-3.15-.06-4,3-4.09,0.38,0,.76,0,1.13,0,0.86,0,1.3-.44,1-1.3a1.39,1.39,0,0,1,.62-1.93c1-.42,1.84-1.36,3.14-0.82a4.52,4.52,0,0,1,2.68,2.56c0.88,2.19,1.63,2.45,3.85,1.65a26.4,26.4,0,0,0,4.57-2,1.23,1.23,0,0,1,2,.61c0.33,0.76.75,1.48,1.07,2.25,0.58,1.38.2,2-1.31,1.95a29.41,29.41,0,0,1-3.34-.59,0.64,0.64,0,0,0-.9.43,0.76,0.76,0,0,0,.48.69c2.2,1.59,6.37.61,7.75-1.85,0.22-.39.36-0.83,0.59-1.23a4.74,4.74,0,0,1,.77-1.1,1.39,1.39,0,0,1,1-.48c1.78,0.59,3.11-2,5-.65a2.61,2.61,0,0,0,1.06.37c1,0.19,1.48-.14,1.35-1.2-0.2-1.63.19-3.27-.56-4.9-0.6-1.31.42-2.65,2.06-2.83,1.88-.21,3.75-0.29,5.12,1.57a6.32,6.32,0,0,0,3,1.91,2.81,2.81,0,0,1,1.88,1.82c0.79,2.46,2.47,4.48,3.4,7.14a18.35,18.35,0,0,0-4.76-.43,1.86,1.86,0,0,1-1.1-.18c-1.41-1.12-3.09-1-4.73-1.15a2.34,2.34,0,0,0-1.88-.84,2.66,2.66,0,0,0-.18-0.39c-0.12-.18-0.34-0.39-0.5-0.19s0.11,0.34.3,0.42a4.08,4.08,0,0,0,.42.12,2,2,0,0,0,1.88.85c0.76,1.76,2.64,1.91,4,2.59s2.94,1.15,4.42,1.7a5.22,5.22,0,0,0,5.33-.49,31.46,31.46,0,0,1,5.53-2.56c0.34-.15.72-0.23,1.07-0.38,1.75-.79,1.71-0.76,3,0.75a3.63,3.63,0,0,0,3.75,1,47.7,47.7,0,0,0,7-1.91,8.85,8.85,0,0,1,3-.55c3.3-.12,6.58-0.94,9.91-0.16,1.15,0.27,2.42.38,3.29-.85a0.76,0.76,0,0,1,1-.2c1.55,1.14,3.22,0,4.83.27,0.79,0.15,1.32-.67,1.63-1.37s0.63-1.7.92-2.56a3.45,3.45,0,0,1,1.22-1.86c0.64-.44,1.37-0.28,1.37.46,0,2.58,1.81,2.85,3.65,3.09a29.86,29.86,0,0,1,5.84,1.78,3.85,3.85,0,0,1,1.91,1.55,2.17,2.17,0,0,0,2.34.94,7.3,7.3,0,0,1,5.5,1.56c1.37,1,3.05,1.64,4.43,2.72a3.22,3.22,0,0,0,2.18.44,2.68,2.68,0,0,1,2.73,1.22,2.19,2.19,0,0,0,1.71,1q6.74,1.51,13.48,3.05a14.87,14.87,0,0,1,2.15.7,11.84,11.84,0,0,0,4.14,1.1c2.71,0,5.11,1.23,7.66,1.86a5.59,5.59,0,0,1,3.69,2.44,3,3,0,0,0,1.7,1.07c5.38,1.8,10.39,4.48,15.67,6.51a7.82,7.82,0,0,0,2.62.66c1.52,0,2.64,1.22,4.18,1.39s3.25,0.61,4.91.77a6.72,6.72,0,0,0,3.74-.6c1.62-.79,1.65-0.74,2.82.77a1.15,1.15,0,0,0,1.09.68c1.53-.54,3.09.13,4.67-0.37a7.74,7.74,0,0,1,5.92.21c1.28,0.64,2.6,1.21,3.91,1.78a6.47,6.47,0,0,0,2.11.76c4.49,0.19,7.95,2.58,11.37,5.12a16.22,16.22,0,0,1,6.61,11.61,15.8,15.8,0,0,1-1,8.83,46.53,46.53,0,0,1-3.5,6.81c-1.23,1.85-2.48,4.12-5.45,3.51a1.88,1.88,0,0,0-1,.42c-3.44,2-7.25,1.88-11,1.91-4.53,0-9.05-.49-13.58,0a16.14,16.14,0,0,1-5.19-.27c-5.92-1.24-11.9-2-17.88-2.88-6.44-.9-12.79-2.22-19.15-3.54-3.48-.72-6.91-1.62-10.38-2.35a15.78,15.78,0,0,0-5.83-.39c-4,.63-8,0.36-12,0.69-1.35.11-2.7,0.31-4,.49-3,.37-6.07.57-8.72-0.63-4.3-1.93-8.73-1.14-13.09-1.47-3.68-.28-7.4-0.15-11.09-0.23a14,14,0,0,1-4.41-1c-3.39-1.22-7-1.81-10-4.14a3.91,3.91,0,0,0-2.33-.77,1.39,1.39,0,0,1-.23,0,25.1,25.1,0,0,0-8.94-.53,10.92,10.92,0,0,1-6.37-1.28,6.76,6.76,0,0,0-4.39-.52c-2.14.41-3.13-.71-2.52-2.83a3.37,3.37,0,0,0,0-2c-0.41-1.52-.27-1.71,1.16-2.47,1.67-.88,1.7-0.89,1.42-2.75a2.1,2.1,0,0,1,.61-2.06,5,5,0,0,0,1.52-2.21,1.06,1.06,0,0,1,1.64-.62,13.83,13.83,0,0,1,1.41.71,0.86,0.86,0,0,0,1.34-.38c0.65-2,2.39-3.46,2.34-5.76a2.94,2.94,0,0,0-.46-1.9c-1.31-1.63-2.76-3-5.13-2.66a1.67,1.67,0,0,1-.67.05c-2.32-.65-4.37-0.4-6,1.6a1,1,0,0,1-1.43,0,1,1,0,0,1,0-1.27c0.56-.81,1.2-1.55,1.77-2.35,1.15-1.59.61-3-1.3-3.45-0.15,0-.3,0-0.45-0.05-2.27-.55-2.55-1.18-1.34-3.38a2.89,2.89,0,0,0-1.79-.63c-5.13-.23-10.26-0.62-15.3.83a2.29,2.29,0,0,0-1.26.4c-2.68,2.86-6.41,4.24-9.44,6.61-2.19,1.71-4.63,3.11-6.9,4.73-5.54,3.95-11.4,7.4-17,11.23-0.67.46-1.68,1.61-2.3,0.66s0.77-1.58,1.51-2.07c2.88-1.94,5.81-3.81,8.73-5.69a95.18,95.18,0,0,0,13.82-11,10.85,10.85,0,0,0,3.24-4.51c-0.52-.56-0.9-0.18-1.21.1-1.43,1.26-3.26,1.88-4.78,3-1.19.87-2.27,0.54-4-.92a1.67,1.67,0,0,0-2.69,0,0.8,0.8,0,0,0,.13,1.46c0.64,0.39,1.38.64,2,1.07,1.18,0.82,1.23,1.54.25,2.6a6.64,6.64,0,0,1-.88.71c-5,3.79-10.08,7.46-14.94,11.41-4.28,3.47-9,6.35-13.19,9.89a23.36,23.36,0,0,1-2.43,1.66,1.24,1.24,0,0,1-1.24.37c-1.36-1-2.14.1-2.89,0.8-3.9,3.62-8.47,6.32-12.72,9.45-1,.72-1.93,1.45-2.88,2.19a6.73,6.73,0,0,1-1.06.84c-0.7.33-1.63,1.31-2.15,0.53s0.7-1.32,1.3-1.75c3.68-2.65,7.3-5.36,10.82-8.21a3.88,3.88,0,0,0,1.32-1.35,2.12,2.12,0,0,0-2.06.6,62.79,62.79,0,0,1-10,5.17,9.54,9.54,0,0,0-1.77,1,45.65,45.65,0,0,1-8.06,4.57,4.2,4.2,0,0,0-2.31,2.33c-0.73,1.67-1.86,3-4,3.12-1.08,0-2.11.77-3.2,1.09-4.83,1.46-9.65,3-14.56,4.13a72.74,72.74,0,0,0-7.34,2.28,35.34,35.34,0,0,1-7.89,1.94c-0.79.09-2,.39-2.18-0.57-0.26-1.19,1-1.21,1.85-1.47,0.5-.16,1-0.29,2.06-0.58-3-1.07-5.58-2.27-8.34-1.93-3.13.39-6.17-.25-9.25-0.36a1.21,1.21,0,0,1-1.44-.83c-0.24-1.29-1.36-1.56-2.31-1.88-3.73-1.24-7.38-2.67-11-4.14-0.65-.26-1.32-0.87-2.12-0.4-0.47.28-1.11,2.34-.7,2.94,1.09,1.61,0,2.49-.76,3.75-1.85,2.94-4.14,5.56-5.92,8.56-1.15,1.94-1.92,4-2.86,6a0.85,0.85,0,0,0,.39,1.3,2.62,2.62,0,0,0,2.18.31c3.16-1.16,6.51-1.18,9.8-1.57a4.73,4.73,0,0,0,2.16-.54c1.59-1,3.15-2,5.22-1.83,0.8,0,1.66-.75,2.64-0.29a0.71,0.71,0,0,0,.6-0.25c1.76-2.31,4.44-.73,6.56-1.55a1.54,1.54,0,0,1,1.26.41,13.67,13.67,0,0,0,5.37,2.16,16.12,16.12,0,0,1,2.34.82c1.85,0.65,3.68,1.43,5.72,1a0.35,0.35,0,0,1,.22,0c1.78,1.07,3.8,1,5.75,1.31a3.36,3.36,0,0,0,2.32-.15,18.26,18.26,0,0,1,10.14-1.62c1.79,0.15,3.18,1.22,4.83,1.68,1.12,0.32,1.38,1.69,1.17,2.91a7.25,7.25,0,0,1-1.17,2.82A3.76,3.76,0,0,1,503.7,348c0.32,3.1,1.88,5.73,3.33,8.36,2.06,3.71,3.58,7.66,5.47,11.44,0.81,1.62,1.49,3.3,2.33,4.9,2.51,4.73,4.43,9.74,6.71,14.58a28.85,28.85,0,0,1,2,6.22,27,27,0,0,0,2.07,6.2c0.37,0.75,1,1.44.37,2.49a1.14,1.14,0,0,0,1,1.49c0.89,0.25.93,0.61,0.51,1.47-0.61,1.24.44,3.62,1.72,4.12,1.61,0.62,1.37,2.34,2.22,3.4-1.78,1.06-.12,2.52-0.35,3.82-0.37,2,1,3.86,2.29,5.45a1.71,1.71,0,0,1,.74,1.13c-0.51.59-1.06,0.23-1.57,0-1.77-.86-2.85-2.42-4-3.91-0.34-.44-0.58-1.57-1.41-1-0.68.48,0,1.21,0.27,1.82,0.93,2.36,2.86,3.6,5,4.63a2.38,2.38,0,0,0,1.5.42,3.64,3.64,0,0,1,3,.76c0.66,0.44,1.31.84,1.67-.43,0.15-.53,2.67-0.72,3.09-0.35a1.12,1.12,0,0,1,.33.81,2.24,2.24,0,0,1-2.8,2.35,5.2,5.2,0,0,1-.81-0.39c-0.4-.19-0.81-0.53-1.19,0a1.16,1.16,0,0,0-.1,1.28,11.28,11.28,0,0,0,3.09,3.56c0.73,0.6,1.22,1.43,2.53.41s3.85,0.05,5,1.55a27.72,27.72,0,0,0,10.24,8.32,33.55,33.55,0,0,1,4.54,2.84,7.06,7.06,0,0,1-4.13-1.25,11.74,11.74,0,0,0-3.35-1.86c-0.35-.09-0.79-0.18-0.94.3a0.61,0.61,0,0,0,.41.72c3.28,1.51,6.35,3.63,10,4.2,3.14,0.49,6.08,1.73,9.24,2.14a8.55,8.55,0,0,0,5.62-.86c1.38-.8,2.85-0.4,4.19-0.14a37.94,37.94,0,0,1,9.33,2.71,12.81,12.81,0,0,0,4.13,1.11c2.32,0.28,4.67.29,7,.73a3.17,3.17,0,0,0,2-.33,7.93,7.93,0,0,1,2.87-.57A2.06,2.06,0,0,1,611.1,454c0.45,1.56,1.67,1.88,2.95,2a15.08,15.08,0,0,1,4.9,1.66,5.75,5.75,0,0,1,2.9,3.61,0.86,0.86,0,0,1-1,1.3c-0.83,0-1.66-.13-2.49-0.2a6.43,6.43,0,0,0-2.92-.48,3.67,3.67,0,0,0,3,.44c0.6,1.22,1.71,1.37,2.88,1.36a2,2,0,0,0,1.1-.17c1.07-.79,2.16,1.64,3.16,0,0.71-1.2,1.93-1,3-1.14a1.6,1.6,0,0,0,.57-0.58c0.68-.22,1.33-1,2.08.16,0.22,0.35,1.43.11,2.18,0.05,3.49-.26,6.48,1.21,9.45,2.72a4,4,0,0,1,1.78,2,2.21,2.21,0,0,1,.29,2.15c-0.46.7-1.22,0.16-1.87,0.11a22.25,22.25,0,0,0-11.28,1.68,19.23,19.23,0,0,0-3.82,1.9,3.11,3.11,0,0,1-3.44,0,6.79,6.79,0,0,0-4.21-1.38,1.36,1.36,0,0,1-1.36-1,2.38,2.38,0,0,0-1.63-1.45,40.65,40.65,0,0,0-8.17-1.68c-2-.18-2,0-2.28,2S606,473,606,475.14a1.2,1.2,0,0,1-1.82,1.28c-1.84-.68-3.76-1.5-4.19-3.72-0.68-3.46-3.37-5.23-5.82-7.18-1.3-1-3-1.41-4.54-2a3.7,3.7,0,0,0-2,0c-2.45.43-4.67,1.59-7,2.24a3.6,3.6,0,0,0-1.22,1,1.49,1.49,0,0,1-2.36-.18,8,8,0,0,1-2.13-4.66c-0.19-1.47-1.34-2.12-2-3.17a1.06,1.06,0,0,0-1.45,0,6.53,6.53,0,0,1-3.5.71,2.65,2.65,0,0,1-2.23-.9,1,1,0,0,0-.89-0.59,2.29,2.29,0,0,1-2.64-1.62,0.71,0.71,0,0,0-.49-0.43c-2.64.05-4.84-2.54-7.75-1.22a1.82,1.82,0,0,1-2.63-1,1.42,1.42,0,0,0-1.46-.82,4.7,4.7,0,0,1-3.66-2.71,7.9,7.9,0,0,0-6.1-4.46c-1.68-.23-2.48-1-2.44-2.73,0.05-2-1.46-2.64-2.56-3.68-0.46-.44-1,0-1.52,0-0.95,0-1.85,0-2.25-1.08a1.83,1.83,0,0,1,.57-2.42,0.85,0.85,0,0,0,.59-0.85c-0.13-.64-0.67-0.46-1.09-0.44-1.72.07-2.47-1.08-2.74-2.47a1.42,1.42,0,0,0-1.44-1.3,6.38,6.38,0,0,1-5.07-5.43c-0.28-5.37-2.46-10-4.83-14.7-2.15-4.23-4.19-8.52-6-12.95-2.2-5.53-4.66-11-7.3-16.33-2-4-3.65-8.13-5.55-12.15a72.21,72.21,0,0,0-4.64-8c-1.72-2.68-3.74-5.08-5.57-7.65a1.26,1.26,0,0,0-1.26-.67,7.88,7.88,0,0,1-6.84-2.85,2.26,2.26,0,0,0-1.78-.85,2.17,2.17,0,0,1-1.53-.29c-2.15-2.05-5.14-1.68-7.67-2.66-1.5-.58-3.38-1-4.75.77a1.71,1.71,0,0,1-2.27.37,5.58,5.58,0,0,0-3.54-.38,15.73,15.73,0,0,1-5.81-.39,44.76,44.76,0,0,0-10.35-1,10.88,10.88,0,0,0-4.69,1.55,41.52,41.52,0,0,0-11.27,7.88c-2,2.07-4.31,3.5-7.39,3.31a6.07,6.07,0,0,1-4-2.23,2.24,2.24,0,0,1-.32-2.15,9.13,9.13,0,0,1,1.44-3.55,30.81,30.81,0,0,1,3.12-4.39,5.73,5.73,0,0,0-8,.44c-2.86,2.77-4.69,6.28-6.81,9.57a3.72,3.72,0,0,0-.32,2.2,16.8,16.8,0,0,1,.12,3.61c-0.26,1.22-.94,1.63-1.91.91-2.12-1.57-4.64-2.52-6.65-4.24-4.54-3.89-7.06-8.2-5.48-14.77a30.1,30.1,0,0,1,2.55-6.27c0.25-.51.78-1,0.33-1.65-0.68,0-1,.62-1.57.78a2.21,2.21,0,0,1-1,.31c-1.62-1.17-3.16-.1-4.69.15a11.59,11.59,0,0,1-4.49,0,2.91,2.91,0,0,0-2.7.69c-2,1.69-4.38,3-6.2,4.92a2.58,2.58,0,0,1-.5.45,1.69,1.69,0,0,1-2.38-.49,1.49,1.49,0,0,1,.32-2.35c1.19-1,2.44-2,3.65-3a2.51,2.51,0,0,0,1.1-1.45c-1.19-.89-2.4-1.77-3.6-2.68a1.31,1.31,0,0,0-1.66,0c-4.82,3-10.06,5.21-14.7,8.49a3,3,0,0,1-.78.45c-2.7.86-3.89,2.76-4.11,5.53a15,15,0,0,1-1.63,4.93c-0.65,1.44-1.35,2.85-1.92,4.33-0.92,2.38-3.06,3.66-5.16,4.87a2.36,2.36,0,0,1-2.39-.24c-2.08-1.21-4.32-2.17-6.06-3.9a3.24,3.24,0,0,0-.86-0.72c-0.89-.4-1.58-1.4-2.58-1.29s-1,1.39-1.53,2.08c-0.7.89-1.33,1.84-2,2.75a4.32,4.32,0,0,1-3.11,2,3.35,3.35,0,0,0-3.21,2.84,7.21,7.21,0,0,1-6.15,5.62,6.47,6.47,0,0,1-4-.48,23.06,23.06,0,0,1-7.92-6.27,47.59,47.59,0,0,0-4.75-5.16,8.35,8.35,0,0,0-6.09-2.42,31.13,31.13,0,0,1-8.93-1.34,16.13,16.13,0,0,0-2-.52,1.53,1.53,0,0,0-1.67.33c-0.35.52,0.14,1,.41,1.43a3.91,3.91,0,0,1,.64,1.91,1.4,1.4,0,0,0,.56,1.19c1.37,0.86,1.87,2.33,2.59,3.65a13.86,13.86,0,0,0,2.36,3.28,5.36,5.36,0,0,1,1.53,5.37c-0.53,2.13-2,3.08-4,3.6-1.09.29-2.24,0.37-3.31,0.73-1.27.42-1.35,0.85-.63,2,0.12,0.19.27,0.37,0.39,0.55,1.46,2.17,1.1,3.1-1.47,3.87a15.26,15.26,0,0,1-7.35.76c-1-.18-1.37.3-0.89,1.14a4.24,4.24,0,0,1,.12,3.71c-1.08,3.2-2.58,6.13-5.76,7.78a4.87,4.87,0,0,0-2.72,4.82,12.43,12.43,0,0,1-1.5,6.47,21.54,21.54,0,0,0-2.51,8.17,12.93,12.93,0,0,1-1,3.93,4.59,4.59,0,0,0,.07,4.36,2.09,2.09,0,0,1-.32,2.66c-1.45,1.81-1.31,2.24.68,3.49a3.69,3.69,0,0,0,.78.45c2.07,0.66,3,1.91,2.45,4.17a1.2,1.2,0,0,0,1.16,1.7,2.13,2.13,0,0,1,1.5,2.51c-0.29,2.48.89,4,3,5.09a3.9,3.9,0,0,1,2.27,2.9c0.22,1.21,1.37,2,2.24,2.78a12.88,12.88,0,0,1,3.3,5.33,8.71,8.71,0,0,1,.5,5.1,10.09,10.09,0,0,0-.16,2,4.29,4.29,0,0,1-1.09,2.84,3.64,3.64,0,0,1-.8-2.3c-0.54-4.28-3.25-7-6.69-9.17-1.13-.7-1.82-0.25-1.54,1.07,0.87,4.19,1.32,8.52,3.62,12.31a2.69,2.69,0,0,0,2.11,1.46c5.48,0.67,9.6,3.83,13.31,7.55,5.26,5.26,7.55,11.88,8.25,19.13,0.08,0.79.39,1.81-.61,2.19-1.15.44-1.81-.48-2.35-1.31a10.6,10.6,0,0,1-.73-1.65,20,20,0,0,0-7.31-9.3,4.94,4.94,0,0,0-.94-0.62c-0.53-.19-1.08-0.78-1.63-0.3s0,1,.08,1.47c0.67,2.65,2,5,3,7.56a2.44,2.44,0,0,0,1.8,1.59,9.58,9.58,0,0,1,5.58,3.62c0.62,0.75,1.35,1.4,2,2.1-0.33.28-.79,0.57-0.43,1.06,0.5,0.7,1.53.79,2.61,0.27-0.8-.43-1.74-0.56-2.24-1.37a4.17,4.17,0,0,0,2.83,0c1.32-.66,1.94-0.35,2.77,1a2.75,2.75,0,0,0,1.94,1.31,20.47,20.47,0,0,1,6.61,3.29c0.9,0.6,1.19,1.7,2.1,3-3.94-1.8-7.76-1.65-11.4-2.45a108.13,108.13,0,0,1-11.14-2.8,8.64,8.64,0,0,0-3.11-.49,7.39,7.39,0,0,1-2.68-.33,1.18,1.18,0,0,1-1.07-1.24c0.14-1.21-.74-1.74-1.48-2.36s-1.53-1.23-2.28-1.86a6.92,6.92,0,0,1-2.29-3.56,9.57,9.57,0,0,0-.64-1.69,1.19,1.19,0,0,0-1.3-.7c-0.79.12-.82,0.79-0.94,1.37a3.43,3.43,0,0,0,.5,1.71c0.68,2.22,1.86,4.32,1.63,6.76-0.1,1-.26,2.08-0.4,3.09-0.73.25-.86-0.33-1-0.67-1.92-4.27-5.85-5.66-9.89-6.81-1.44-.41-3-0.41-4.1-1.64a2.19,2.19,0,0,0-2-.27c-0.75.09-1.48,0.28-2.23,0.35a1.41,1.41,0,0,1-1.69-.8,5.2,5.2,0,0,0-4-3.21,1.74,1.74,0,0,1-1-.49c0.07-1.6-1.38-1.69-2.19-2.44a2,2,0,0,1-.59-2.26c0.42-1-.13-1.55-0.89-2s-1.61-1.11-2.44-1.64-1.43-1.13-.79-2.21c0.35-.6-0.17-1-0.46-1.38a5.21,5.21,0,0,1-.19-5.9,1.86,1.86,0,0,0-.26-2.44c-0.4-.45-0.76-0.94-1.14-1.41a1.44,1.44,0,0,1-.18-1.87,1.25,1.25,0,0,0-.32-2c-1.08-.81-1.13-2-0.3-3.24s2-2.61,1.79-4.47a1.74,1.74,0,0,1,.65-1.15,9.19,9.19,0,0,0,1.8-7.77c-0.7-.21-1.11.34-1.59,0.66a38.74,38.74,0,0,1-6.68,3.32c-2.29.94-4.58,0.65-6.88,0.14a3.37,3.37,0,0,1-1.75-1,2.37,2.37,0,0,1-.69-2.66c0.4-1,1.06-1.78,2.16-1.64,3.3,0.42,5.3-2.31,8.06-3.17a0.64,0.64,0,0,0,.34-0.28c1.25-2.4,3.59-4.06,4.49-6.71a7,7,0,0,1,.93-1.8,6.9,6.9,0,0,0,.84-6.68c-0.87-2.42-1.59-4.87-2.28-7.34a23.83,23.83,0,0,0-1.82-3.89,1.8,1.8,0,0,0-2.22-1c-1.73.27-3,1.39-4.37,2.3a64,64,0,0,0-11.22,9.82,5.25,5.25,0,0,0-1.11,3.35,2.58,2.58,0,0,1-1.74,2.5c-8.37,3.7-15.4,9.37-22.08,15.52a29.05,29.05,0,0,1-4,3.32,5,5,0,0,0-2.18,2.79,4.43,4.43,0,0,1-3.4,3,6.52,6.52,0,0,0-2.37,1.21,39.65,39.65,0,0,1-8,4.27,65.46,65.46,0,0,1-9.93,3.76,3.14,3.14,0,0,1-1.77.18,1.48,1.48,0,0,1-.91-2.45,6.7,6.7,0,0,1,2.1-2,66.42,66.42,0,0,1,7.54-4.56,51.07,51.07,0,0,0,4.81-3,2.05,2.05,0,0,0,1-2.12c-0.09-1,.38-1.4,1.39-1.62,2.26-.5,4.55-1,6.37-2.61a3,3,0,0,0,.72-0.52c0.9-1.74,2.65-2.4,4.16-3.35a2.82,2.82,0,0,0,1.3-1.22,4,4,0,0,1,2.31-2,5.32,5.32,0,0,0,2.87-2.76,2.3,2.3,0,0,1,1-1.21c2.26-1.19,4-3.21,6.32-4.25a3.45,3.45,0,0,0,1.7-1.75,3.67,3.67,0,0,1,2-2.05,1.14,1.14,0,0,0,.66-1.81c-0.61-1.21,0-2,.82-2.76l0,0a1.08,1.08,0,0,0,1.39.81,4.51,4.51,0,0,0,.87-0.26c2.65-1.48,5.64-2.45,7.52-5.11a14,14,0,0,1,2.63-2.79c1.5-1.2,2.45-2.85,3.74-4.21a2,2,0,0,0,.6-1.4,4.39,4.39,0,0,1,3.31-4.39,3.75,3.75,0,0,0,2.71-1.81,4.51,4.51,0,0,1,2.33-1.7c0.67-.34,1.53-0.5,1.86-1.22,1.13-2.49,3.49-3.68,5.4-5.35s3.94-3.15,5.11-5.59c0.53-1.11,1.32-2.61,3.12-2.6a1.93,1.93,0,0,0,1.44-1,8.42,8.42,0,0,1,2.06-2.08,2.88,2.88,0,0,0,.82-1.06c0.52-1,.26-1.32-1.24-1.38l0,0.05a1.57,1.57,0,0,0-.06-1.32,3.25,3.25,0,0,0-1.34,1.78l0,0c-2.36,1.6-3.81,4.06-5.73,6.08-3,3.11-5.63,6.5-9.2,9a5.29,5.29,0,0,0-1.22,1.32,5.12,5.12,0,0,1-2.74,2.24,3.45,3.45,0,0,0-1.45,1.06,9.67,9.67,0,0,1-5.5,2.93,1.51,1.51,0,0,0-1.54,1.78,3.83,3.83,0,0,1-.6,1.92c-0.19.4-.54,0.83,0,1.21s0.78,0.62,0,.84c-0.44.12-.95,0.16-1-0.5,0-.22.08-0.45,0-0.67-0.1-.87-0.74-0.83-1.07-0.35a22.43,22.43,0,0,1-6,5.39,5.89,5.89,0,0,0-2,2.43,7.79,7.79,0,0,1-4.25,4.17,15.55,15.55,0,0,0-5.08,3.7c-2.62,2.71-5.7,4.92-8.32,7.64a14.12,14.12,0,0,0-2.41,3c-1.27,2.38-3.39,3.52-5.82,4.26a8,8,0,0,0-2,1,114.19,114.19,0,0,1-12.94,7,28.45,28.45,0,0,1-3.42,1.17,1.06,1.06,0,0,1-1.25-.23c-0.46-.56,0-1,0.3-1.4a6.66,6.66,0,0,1,.79-0.81,53.23,53.23,0,0,1,11-8.9,28.26,28.26,0,0,0,3.09-2.62c-0.22.27-.25,0.71,0.09,0.67a4.8,4.8,0,0,0,3.32-1.67,1.24,1.24,0,0,0,.06-1.65,1.92,1.92,0,0,1,.52-0.39c2.73-.8,4.63-2.74,6.53-4.68l0,0,0.79-1.24a0.47,0.47,0,0,0,.74-0.09,0.36,0.36,0,0,0,0-.18c-0.19.08-.38,0.15-0.56,0.24a0.6,0.6,0,0,0-.15.16,5.54,5.54,0,0,1,2.31-2.7,1,1,0,0,1,.57-0.31c1.66,1.06,2.29-.56,3.1-1.3a24.94,24.94,0,0,0,4.43-5.08c1-1.6,2.23-3.46,4.44-4,1-.22,1.33-1.2,1.93-1.85,1.35-1.46,3-2.74,3.12-5a2.77,2.77,0,0,1,.91-1.53c0.83-.82,1.77-1.53,2.9-2.49-0.36,1.41-1.77,1.58-2,2.66,2.34,0.87,5.26-.63,5.61-3a6.92,6.92,0,0,1,2-3.89c2.53-2.73,5.61-4.79,8.4-7.21,3.53-3.06,7.11-6.07,10.47-9.33a17.24,17.24,0,0,1,4.47-3.05c2.86-1.41,5.26-3.52,7.88-5.3a0.84,0.84,0,0,0,.32-0.93A5.57,5.57,0,0,0,245.8,376a58.08,58.08,0,0,1-8.56,7,47.47,47.47,0,0,0-7.68,7,43.91,43.91,0,0,1-6.42,5c-0.67.49-1.08,0.21-1.13-.66a0.63,0.63,0,0,1,0-.23c1-3-.25-5.59-1.34-8.26a15.57,15.57,0,0,1-.81-6.2c0-1-.2-1.33-1.14-1.42a10.73,10.73,0,0,1-2.43-.5,2.93,2.93,0,0,1-2.15-3.29c0.12-1.26.08-2.58,1.05-3.61a3.2,3.2,0,0,0,.43-1.72c0.73-3.29.93-6.78,3.55-9.36a14.84,14.84,0,0,1,1.62-1.57,5.5,5.5,0,0,0,2.31-3.52,8.75,8.75,0,0,1,2.15-4.16,7.14,7.14,0,0,0,1.56-3c0.37-1.55.25-1.82-1.35-2.21-4.18-1-8.36-2-12.56-2.93a78.17,78.17,0,0,1-8.28-2.33,23.44,23.44,0,0,0-14.46,0,7.85,7.85,0,0,1-2.91.35c-1-.08-1.62,0-1.91,1.25a2.54,2.54,0,0,1-2.59,2.13,1,1,0,0,0-1.17.49c-0.43,1.58-1.64,1.42-2.87,1.54a38.8,38.8,0,0,0-11.2,3.41c-0.69.3-1.38,0.63-2.09,0.87a30.25,30.25,0,0,0-9,5.12,179,179,0,0,1-17.38,11.88q-4.81,3-9.47,6.22a39.27,39.27,0,0,0-7.34,6.69,12.31,12.31,0,0,1-4,3,15.06,15.06,0,0,0-2.19,1.18,1.87,1.87,0,0,0-.18,3.22,10.7,10.7,0,0,1,3.39,6.93,21.95,21.95,0,0,1-8.44,20.79c-3.87,3.36-8.59,3.28-13.26,3.52a3,3,0,0,1-1.1-.22,0.73,0.73,0,0,1-.57-0.63,0.62,0.62,0,0,1,.52-0.63c0.8-.21,1.6-0.43,2.42-0.58a10.75,10.75,0,0,0,8.85-7.77,41.4,41.4,0,0,0,1.44-6.16,10.85,10.85,0,0,0-.43-4.23c-0.31-1.27-1.48-1.85-2.63-2.28-0.41-.16-0.9-0.12-1.34-0.23-1.85-.49-3.4-1.3-3.37-3.76a27.15,27.15,0,0,0-11.88,6.88,6.41,6.41,0,0,1-6,2.21,33.57,33.57,0,0,0-11.46.25,7.35,7.35,0,0,0-2.74.94,5.62,5.62,0,0,1-5.61.47,1.64,1.64,0,0,0-.62-0.26c-2.74.11-4.35-1.84-6.08-3.45-2-1.89-4.15-3.47-7-3.88-2.2-.32-4.06-1.12-4.41-3.68-2.26,1-2.79.77-3.69-1.54a34.24,34.24,0,0,1-2.17-15.56,5.77,5.77,0,0,1,1.52-3.63,7.61,7.61,0,0,1,.88,3.7,21.55,21.55,0,0,0,1.55,5.89,5.7,5.7,0,0,0,1.7,2.37,3,3,0,0,0,2.8.38,1.41,1.41,0,0,1,1.66.87,6.39,6.39,0,0,1,.82,1.84A2.38,2.38,0,0,0,52,387.92a4.08,4.08,0,0,1,2.27,3.19,2.82,2.82,0,0,0,2.14,2.36,9.27,9.27,0,0,0,4.69.36c1.72-.27,3.25-0.55,4.66,1.19,1.13,1.41,5.2,1.26,6.8.24,0.59-.38.69-0.88,0.12-1.25-2.24-1.49-4.35-3.5-7.29-3.17-2.54.28-3.9-1.52-5.61-2.71a1.75,1.75,0,0,1-.6-1.65c0.43-2.73-1.23-4.37-3.12-5.82-1-.8-2.14-1.46-2.23-2.93a1.07,1.07,0,0,0-.89-0.9,3.39,3.39,0,0,1-2-3.49c0-1.66,0-3.33.18-5A16.18,16.18,0,0,1,55,359.59a3.93,3.93,0,0,1,3.64-1.76,1.18,1.18,0,0,1-.09,1.27c-0.95,3-.79,5.88,1.16,8.39A5.61,5.61,0,0,1,60.77,373a1.92,1.92,0,0,0,.64,2.39,2.23,2.23,0,0,1,.72,1.13c0.64,2.44,2.82,4.13,3.21,6.7a1.38,1.38,0,0,0,1,.89,3.79,3.79,0,0,1,1.53,1.31,1.84,1.84,0,0,0,2.74.6,2.28,2.28,0,0,1,2.36-.12A1.06,1.06,0,0,0,74,386c1.38-1.08,2.34-.19,3.39.59a6.42,6.42,0,0,0,2.9,1.21c1.93,0.28,2.57.05,3.47-1.68a5.71,5.71,0,0,1,4.15-2.83,9.64,9.64,0,0,0,2.76-.87,3.75,3.75,0,0,1,3.86.21c0.39,0.22.74,0.52,1.13,0.74a2,2,0,0,0,2.35,0,1.72,1.72,0,0,0,.64-2.37,1.44,1.44,0,0,1,.09-1.48,5.27,5.27,0,0,0,.53-2.62c-0.11-1.5.09-1.62,1.59-1.78,1.71-.18,1.71-0.18,1.85-1.87a10.39,10.39,0,0,1,.06-1.13c0.28-1.42,1.16-1.86,2.47-1.23a17.12,17.12,0,0,0,1.6.84,3.78,3.78,0,0,0,4.21-.71,18.48,18.48,0,0,1,3.77-3.22,3.49,3.49,0,0,0,1.47-2.22c0.47-1.91,1.75-2.62,3.61-2.83,1.57-.18,3.14-0.44,4.73-0.47,1.76,0,2.6-1.38,3.53-2.54a0.6,0.6,0,0,0-.52-1c-1.75.62-3.35-.64-5.11-0.26a4.6,4.6,0,0,0-3,1.42,3.34,3.34,0,0,1-3,1.3,25,25,0,0,1-9.17-2.28,1.84,1.84,0,0,1-1.25-1.33c0.55-.65,1.37-0.3,2.06-0.37s1.68,0.07,2.49-.06c1-.17,1.87-0.43,1.82-1.84s0.86-1.36,1.84-.85a1.69,1.69,0,0,0-.93,2.39A2.25,2.25,0,0,0,114.34,354.39Zm256.4-136a2.71,2.71,0,0,0,1.7-.34,1.91,1.91,0,0,0-1.67.38,2,2,0,0,0-1.45.28A1.89,1.89,0,0,0,370.74,218.42ZM525,412.86c0,0.46-.16,1,0.47,1.29,0.33-.65-0.28-0.87-0.51-1.25-0.33-.64-0.38-1.48-1.26-1.94A2.34,2.34,0,0,0,525,412.86ZM646.44,275c0.86,0.38,1.5-.05,2.61-0.7-1.31-.07-2.27-0.77-2.57.75a4.62,4.62,0,0,0-2.42,1.16C645.4,276.31,646.1,276,646.44,275Zm-381,217.22a1.32,1.32,0,0,0,.73,1.55,1.5,1.5,0,0,0-.77-1.51,2.35,2.35,0,0,0-.06-0.44c-0.21-.63-0.4-1.29-1.25-1.28a0.43,0.43,0,0,0-.24.32,1.23,1.23,0,0,0,1.37,1.35h0.22ZM94.39,388.86c2.1-.28,3.28-1,4-2.72-1.44,1-3,1.37-3.92,2.77a4.9,4.9,0,0,0-.59.25,0.53,0.53,0,0,0-.34.68,0.24,0.24,0,0,0,.16.12,0.54,0.54,0,0,0,.61-0.47A4.21,4.21,0,0,0,94.39,388.86ZM224.2,176.71c-0.93-.13-1.84-0.08-2.25.92-0.34.83,0.24,1.33,0.91,1.87a5.2,5.2,0,0,0,1.3-2.83,2.88,2.88,0,0,0,.51-0.4,1.44,1.44,0,0,0,.25-0.52c-0.36-.22-0.51.08-0.62,0.33A2.49,2.49,0,0,0,224.2,176.71ZM424.11,235.2a2.77,2.77,0,0,0,2.78.54,4.57,4.57,0,0,0-2.82-.5c-0.68-.73-1.66-0.63-2.51-0.84-2.4-.6-4.81-1.14-7.21-1.7a1.07,1.07,0,0,0-1.34.17,25.65,25.65,0,0,0,2.73,1C418.48,234.54,421.21,235.45,424.11,235.2ZM587,261.39a5,5,0,0,0,3.23-.63c0.51-.27,1.29-0.44,1.24-1.12s-1-.77-1.54-1a1,1,0,0,0-1.36.4c-0.51.81-1.38,1.39-1.53,2.43-1.07.65-2.27,1.14-2.93,2.28C585.24,263.15,586.57,262.81,587,261.39Zm162.43,21.82c0.34,1.91,1.55.88,2.4,0.63s2.41-.33,2.44-1.23c0-1.17-1.58-.92-2.38-1.55-0.52,1.91-.52,1.91-2.51,2.19a2.13,2.13,0,0,1,0-1.53c0.66-1.69.59-1.65-.86-2.58-3.49-2.26-7.41-3.71-11-5.68-1-.56-2.12-1.39-3.44-1.28a0.59,0.59,0,0,0,.21.76c2.51,1.1,4.43,3.1,6.75,4.51a7.61,7.61,0,0,1,3.22,3.6c0.74,2.21,2,2.49,3.88,2.2A10.47,10.47,0,0,1,749.42,283.21Zm-406.16,25a9.33,9.33,0,0,0-2.58,1.8c-5.39,3.75-10.74,7.55-16.15,11.28a19.82,19.82,0,0,1-3.43,1.73,1.73,1.73,0,0,1-2.12-.89c-0.59-.81.21-1.22,0.7-1.63,1.33-1.12,2.81-2,4.25-3,6.17-4.2,12.17-8.65,17.93-13.42a2.46,2.46,0,0,0,1-2.14c-0.22-2.86-.5-5.71-0.76-8.56a1.46,1.46,0,0,0-.85-1.47,1.53,1.53,0,0,0-1.56.67c-0.9.8-1.8,1.62-2.73,2.39-2.56,2.11-5.21,4.12-7.68,6.33-3.38,3-7.23,5.39-10.76,8.2a6.15,6.15,0,0,1-1.42.7c-1.58.68-2.95,0.6-3.32-.18s0.28-2,1.51-2.81c2.88-1.93,5.94-3.59,8.5-6a10,10,0,0,1,1-.59,25,25,0,0,0,4.31-3.27,49.66,49.66,0,0,1,4.82-4.76,0.86,0.86,0,0,0,.37-1.15c-4.05.15-8.13-.52-12.23-1a4.15,4.15,0,0,0-2,.42,25.79,25.79,0,0,0-4,2.49c-2.69,1.67-5.51,3.14-8.29,4.64a2.76,2.76,0,0,1-2,.34,1,1,0,0,1-1-.81,0.81,0.81,0,0,1,.73-0.72,31.36,31.36,0,0,0,6.78-4.48,5.58,5.58,0,0,0,2.07-1.94c-0.54-.8-1.26-0.53-1.91-0.55-4.36-.1-8.77.49-13.05-0.88a2.17,2.17,0,0,0-.67-0.06c-2.42,0-4.84,0-7.25.12a44.88,44.88,0,0,0-9.34,1.56c-2.13.6-2.52,0.74-1.5,3a6,6,0,0,1,.27,1.1c0.71,3,.5,3.56-2.17,5.17a6.37,6.37,0,0,0-2.73,3.17,79.47,79.47,0,0,0-4.59,14.42,15.62,15.62,0,0,0-.27,6.28,17.52,17.52,0,0,1-.11,7.86,3.88,3.88,0,0,0,2.49,4.73,6.72,6.72,0,0,0,4,.45,5,5,0,0,1,1.79-.1q5.26,0.78,10.53,1.47a19,19,0,0,0,4.5.37,118.86,118.86,0,0,0,16-2.75,10.14,10.14,0,0,0,4.9-2.7,6.17,6.17,0,0,1,2-1.44,3.8,3.8,0,0,1,5,1.27c0.91,1.48,1.3,1.65,2.88.89a18.53,18.53,0,0,1,3.39-1.25,7.74,7.74,0,0,0,3.68-2.13c1.83-1.89,3.83-3.64,4.73-6.27a10.86,10.86,0,0,1,1.37-2.34,38.45,38.45,0,0,0,3.23-5.71C342.63,313.65,343.68,311.21,343.26,308.17Zm-23.38-30.52a2.71,2.71,0,0,0,1.56-1.15,8.54,8.54,0,0,1,2.38-2.69c2.37-2.1,4.7-4.26,7-6.41,0.54-.5,1.23-1,1-1.89-0.42-1.45-.76-2.93-1.28-4.34s-1-1.5-2.15-.51c-2,1.81-4,3.65-6,5.54a19.26,19.26,0,0,1-3.46,2.55c-0.82.5-1.71,0.88-2.51,0.15s-0.51-1.78-.07-2.71a10.91,10.91,0,0,1,4-4.24,29.14,29.14,0,0,0,4.73-3.86c0.62-.65,1.65-1,1.89-1.9,0.35-1.21-1.08-1.46-1.61-2.23a43.81,43.81,0,0,1-2.68-4.19c-0.31-.57-0.61-1.34-1.52-0.92-0.55.25-1.15,0.71-1.59,0s0.23-1.11.53-1.6a3.41,3.41,0,0,0,.46-0.77,1.43,1.43,0,0,0-.7-1.54c-0.49-.37-0.84.07-1.15,0.38a26.76,26.76,0,0,1-5,4.29c-2.2,1.32-4.43,2.6-6.57,4-2.39,1.57-5.14,2.6-7.23,4.61a12.64,12.64,0,0,1-3.9,2.66,2.93,2.93,0,0,0-1.6,1.18c-2,3.48-4.48,6.69-5.94,10.42a2.81,2.81,0,0,1-3.31,2c-4.15-.36-7.87,1.08-11.58,2.59a4,4,0,0,0-1.79,1.34,0.8,0.8,0,0,0,.15,1.2c0.39,0.3.71,0,.95-0.3,1-1.34,2.25-2,3.94-1.27a1.33,1.33,0,0,0,.89,0c2.4-.91,4.91-1.48,7.35-2.25a22.68,22.68,0,0,1,8-1.12,100.23,100.23,0,0,1,15,2.21,1.11,1.11,0,0,1,1,.39c0.64,1.49,2,1.18,3.11,1.18a36.6,36.6,0,0,1,5.41.28,25.35,25.35,0,0,0,8.11.26c1.4-.24,2.78.57,4.22,0.39,0.71,1.69,2,.76,3.06.61a9,9,0,0,1,3.81.13,2.91,2.91,0,0,0,2.42,0,1.34,1.34,0,0,1,2,.29,2.15,2.15,0,0,0,2,.78c3.4-.49,5.68,1.29,7.63,3.78a2.39,2.39,0,0,0,2.76,1,3.73,3.73,0,0,1,1.34-.22c1.3,0.09,2.4-1.06,3.54-.87,3.85,0.65,7.7,1.3,11.26,3.19A24,24,0,0,0,381.52,291c2.57,0,5.06-.79,7.64-0.67a5.55,5.55,0,0,0,3.12-.31c-1.92-1.28-3.65,0-5.33-.15s-3.7.18-5.43-.89c2.69-3.09,5.08-6.23,7.88-9a38.65,38.65,0,0,0,6.88-9.79c-0.77,0-1.22-.1-1.67-0.09-4.58,0-8.93,1.31-13.3,2.5-2.74.74-5.27,1.84-6.84,4.43a15.41,15.41,0,0,1-1.07,1.17c-1.63,2.14-3.65,4-4.72,6.58,0.91,1,2.32,1.11,3.06,2.22-2.16-1.13-4.58-1.42-6.78-2.41-0.88-.4-1.11-0.71-0.6-1.66a21,21,0,0,1,4.49-5.34c0.57-.53,1.15-1,0.81-1.89a2.61,2.61,0,0,1,1.38-3.27c2.34-1.41,3.83-3.61,5.45-5.63A95.39,95.39,0,0,0,386,253c0.81-1.48.72-1.84-.95-1.92a43.21,43.21,0,0,1-6.1-.34,2.64,2.64,0,0,0-2.78,1c-1,1.22-2,2.44-3.07,3.63-2.54,2.89-5.34,5.55-7.66,8.63a95.46,95.46,0,0,1-8.8,10.33c-0.64.64-1.26,1.3-1.89,2a1.89,1.89,0,0,0-.35,2.46,6.58,6.58,0,0,1,1.06,3.49c-3.47-.93-7-0.68-10.22-2.15s-6.59-2.63-10.29-1.85a3.92,3.92,0,0,1-2.67-.17,6.09,6.09,0,0,1,1.93-1.68c2.61-2.06,2.38-2.08.8-5-0.07-.13-0.17-0.25-0.25-0.38-0.45-.73-0.91-0.9-1.58-0.18-1.86,2-3.76,3.92-5.64,5.89a1,1,0,0,0-.52.94c0.06,0.25,1,.56-0.09.63-0.23,0-.45.06-0.68,0.06A20.4,20.4,0,0,1,319.88,277.66ZM245,301.34c-0.44-.73-1-0.37-1.47-0.1-6,3.12-12,6.23-18,9.38a38.11,38.11,0,0,0-3.87,2.34c-4.15,2.84-7,7-10.67,10.35-0.56.51-.14,1,0.43,1.18,1,0.29,2.08.42,3.07,0.75,5.71,1.91,11.75,2.82,17.1,5.8,0.91,0.51,1.5.4,1.8-.76a14.56,14.56,0,0,1,2.48-4.8,15,15,0,0,0,2-3.8l6.89-19.39C244.83,302,244.91,301.72,245,301.34Zm139.74,3c-1.59,1.51-2.9,2.74-4.3,3.88-4.5,3.68-9.15,7.18-13,11.61a85.86,85.86,0,0,1-7.38,7.65,63.93,63.93,0,0,1-5.83,4.66,6.65,6.65,0,0,0-2.8,5.38,1.08,1.08,0,0,0,.06,1.07c0.46,0.4.86,0,1.19-.25,2.58-2,5.64-3.21,8.38-4.93,1.28-.8,2.59-1.55,3.82-2.42,0.84-.6,2.05-1,2.33-2,0.23-.88-0.69-1.6-1-2.43-0.86-2.08-.25-3.34,2-3.83a27.45,27.45,0,0,1,3.58-.53c4.7-.38,8-3.06,10.53-6.69C384.52,312.36,385.21,308.65,384.77,304.37ZM367.6,236.53c-2.15.58-4,1.14-5.94,1.57a5.2,5.2,0,0,0-3.67,2.72,37.86,37.86,0,0,1-4.12,6.75c-3,3.48-5.52,7.36-8.7,10.71-2.77,2.92-2.69,3.39,0,6.27,1.34,1.44,1.62,1.42,3.05.05,2.79-2.66,5.09-5.79,8-8.36a1.6,1.6,0,0,0,.66-1.48,3,3,0,0,0-2,.78,9.72,9.72,0,0,1-3.2,1.09,1,1,0,0,1-1.18-.48,0.88,0.88,0,0,1,.59-1.08c2.51-1.8,4.92-3.78,7.86-4.89a5.64,5.64,0,0,0,2.78-2.23,118,118,0,0,0,5.81-10.5A3.25,3.25,0,0,0,367.6,236.53ZM254.91,255.78a1.88,1.88,0,0,0,2.37-.42,34.73,34.73,0,0,1,3-2.38,9.23,9.23,0,0,0,3.51-4.57c1.2-3,2.27-6.1,4.51-8.56a33,33,0,0,0,5.45-8.27c0.65-1.38,1.27-2.69,3.06-3-1.45-.94-1.42-0.94-0.31-1.71a7.6,7.6,0,0,0,3.12-3.4c0.5-1.26.7-1.28,1.86-.36,0.81,0.64,1.05.19,1.22-.5s0.11-1.57,1.05-1.81a1.91,1.91,0,0,0,1.63-2.11,2.28,2.28,0,0,1,.94-1.48c0.35-.43,1-0.74.76-1.56-1.71.13-3.31,1-5.06,0.71a0.9,0.9,0,0,0-.76.38c-0.75,2.09-3.2,3.16-3.29,5.69,0,0.71-.31,1.9-1.33,1.85-1.47-.07-2,1-2.61,1.84a56.84,56.84,0,0,1-4.48,5.95c-2.61,2.73-5,5.61-6.36,9.24a8.36,8.36,0,0,1-1.48,2.26c-1.7,2.12-2.89,4.58-4.4,6.83C256.28,251.94,256.39,254.14,254.91,255.78Zm0,230.62a3.27,3.27,0,0,1,4.59-1.22,1.05,1.05,0,0,0,1.55-.43c-1.49-.65-2.81-1.25-3.55-2.76a7.11,7.11,0,0,1-.45-5.88,12.86,12.86,0,0,0,.57-1.72,1.63,1.63,0,0,0-1.11-2.15,36.39,36.39,0,0,1-3.73-1.62,3.5,3.5,0,0,1-2.27-3.57,2.67,2.67,0,0,0-.21-1.54c-0.37-.71-0.12-1.78-1-2.17s-1.13.84-1.83,1a2.68,2.68,0,0,0-2.16,2.33,47.13,47.13,0,0,0-.81,7.17,2.31,2.31,0,0,0,1,2.14,5.45,5.45,0,0,1,2.21,3.31,14.3,14.3,0,0,0,.74,1.89,0.94,0.94,0,0,0,1.46.49c1.41-.61,2.2-0.46,3.08.61a4.89,4.89,0,0,1,1.19,2.4A2.61,2.61,0,0,0,254.86,486.4Zm99.19-173.52a2,2,0,0,0,1.63-.88c3.13-3.42,6.94-6,10.48-9,1.4-1.16,1.51-1.16.36-2.66a15.63,15.63,0,0,0-7-4.87c-0.76-.3-1.57-0.88-2.34-0.25a19.32,19.32,0,0,0-3.56,3.37,1.76,1.76,0,0,0,.07.88q0.19,2.26.39,4.51A45.66,45.66,0,0,1,354.05,312.88Zm29.23-46.1a5.53,5.53,0,0,0,2.88.08c3.72-.49,7.29-1.85,11.09-1.88a1,1,0,0,0,1-1.49c-0.21-.66-0.51-1.45,0-2,1.55-1.71.81-3.52,0.44-5.33a2.32,2.32,0,0,0-2.2-2.15,8.57,8.57,0,0,1-2.58-.81c-1-.44-1.44-0.17-2,0.7-1.5,2.34-3.11,4.62-4.73,6.89A40.54,40.54,0,0,0,383.28,266.78ZM486,321.36c0,0.56,0,.78,0,1,0,1.3.19,1.43,1.47,1s2.39-.92,3.58-1.39A25.92,25.92,0,0,0,503,313.36c1.14-1.54,1-2.28-.76-2.88-3.92-1.34-10.07.6-12.42,4-1,1.42-1.9,2.89-2.9,4.3A4,4,0,0,0,486,321.36Zm-131.71,4.47c7.24-5.75,13.2-12.58,19.8-18.79a6.12,6.12,0,0,0-1.68-1.07,2.17,2.17,0,0,0-2.86.15c-5.07,3.53-10.09,7.12-14.14,11.87a2,2,0,0,0-.71,1.36A38.23,38.23,0,0,1,354.31,325.82Zm173-26.58c-6.06.13-10,3.78-13.24,8.28a9.17,9.17,0,0,1-2.25,2.4c-1.16.79-1.23,1.29-.45,2.37,1,1.31,2.17,1.52,3.71.76,2.38-1.18,4.34-3,6.63-4.32,2.62-1.51,5.25-3,6.66-5.88a4.6,4.6,0,0,1,.74-0.85c1.36-1.58,1.25-2-.71-2.52C528,299.38,527.68,299.32,527.31,299.25ZM369.68,251.4c-2.82.28-5,.42-6.35,3a16.48,16.48,0,0,1-3.5,4.71c-3.28,2.91-6.11,6.26-9.31,9.24a2,2,0,0,0-.83,2.17,11.55,11.55,0,0,0,1.49,2.52c0.33,0.46.82,0.27,1.17-.09,1.46-1.52,3-3,4.35-4.59q4.57-5.46,9-11.07C367,255.49,368.2,253.58,369.68,251.4Zm404.39,32.53c-0.72-.16-1.1-0.18-1.3.24a0.86,0.86,0,0,0,.33,1c1.7,1.82,3.52,3.53,5.08,5.46,2.43,3,5.77,4.51,9.14,6,0.7,0.31,1.81.8,2.17-.25s-0.8-1.16-1.57-1.4c-1.18-.37-1.33-0.8-0.65-1.75,0.22-.3.53-0.54,0.75-0.84,1.15-1.57,1.14-2.63-.13-4a7,7,0,0,0-5.16-2.47,17.29,17.29,0,0,1-6.37-1.34A10.3,10.3,0,0,0,774.08,283.93ZM250.88,351.87a13.71,13.71,0,0,0-.28-1.51c-0.36-1.21-1.21-1.93-2-1.7-1.13.31-.85,1.29-0.83,2.07A95,95,0,0,1,247.9,362c-0.16,2,.3,4.05-0.22,6.07a1.41,1.41,0,0,0,.28,1.49c1,0.83,1.83,1.78,2.75,2.67a0.89,0.89,0,0,0,1.59-.43c0.28-.86.36-1.79,0.7-2.62,1.41-3.45.55-6.71-1.14-9.68a8.47,8.47,0,0,1-1.19-6C250.75,353,250.8,352.44,250.88,351.87Zm297.87-65c-1.83-.53-3.11.26-4.35,1.12-1.91,1.33-3.82,2.67-5.69,4.06-0.68.51-1.83,0.75-1.66,1.91s1.31,1.3,2.22,1.6c1.41,0.46,2.67,1,2.9,2.77,0.12,0.85.7,1,1.26,0.43,2.24-2.29,4.66-4.45,6.27-7.29C547.15,289.78,547.15,289.78,548.75,286.88ZM418.27,321.62c1.64-.27,3.39-0.28,4.74-1.25a27.43,27.43,0,0,1,6.07-3c1-.39,1.92-0.88,2.88-1.32a1,1,0,0,0,.61-1.49c-1.19-1.84-.91-4.49-3.28-5.81C425.81,313.14,422,317.28,418.27,321.62Zm-50-74.8a9.17,9.17,0,0,0,2.23.22c1.85,0.42,3-.48,4-1.89,1.13-1.69,2.28-3.36,3.4-5.05s1-1.63-.14-3.45a2.27,2.27,0,0,0-2.73-1.28,2.94,2.94,0,0,0-2.52,1.92c-0.55,1.4-1.17,2.77-1.77,4.15C370,243.2,368.82,244.82,368.31,246.82Zm203.74,29a42.44,42.44,0,0,0-4.51,3.2,29.14,29.14,0,0,0-3.59,4.33c-0.4.56-.79,1.23-1.58,1.05a1.78,1.78,0,0,1-1.22-1.5,5.51,5.51,0,0,0-.2-0.65c-0.92-2.35-.92-2.35-3.36-1.36a2.56,2.56,0,0,0-1,4.19c0.64,0.67,1.23,1.16,1,2.3s1.52,1.91,2.3,1.33c3.7-2.74,7.45-5.44,10.35-9.09A6,6,0,0,0,572,275.79ZM340.46,222.9a2.65,2.65,0,0,0-1,.16c-1.81,1.07-3.63,2.15-5.36,3.34-0.65.45-.22,0.86,0.39,1.09,1.33,0.49,2.83.71,3.82,1.83,0.8,0.91,1.38.62,2-.08a8.54,8.54,0,0,1,3-1.88c2.28-1,4.41-2.27,6.77-3.1a0.62,0.62,0,0,0,.48-0.86c-0.34-.84-3-2-3.68-1.45A6.4,6.4,0,0,1,340.46,222.9Zm0.61,19.67c3.19-2.4,9.23-10.79,10.06-13.7a2.87,2.87,0,0,0-.66,0c-3.67.91-6.47,3.42-9.63,5.27a1.59,1.59,0,0,0-.53,1.84A23.52,23.52,0,0,1,341.07,242.57ZM248,414.86c0.8-2.48,1.29-4.79.42-6.91a13.17,13.17,0,0,1-.7-6.41,2.48,2.48,0,0,1,1.4-2.37,7.18,7.18,0,0,0,2.76-2.61,22.25,22.25,0,0,0,3.09-6.19c-2.87,2.31-5.67,4.69-8.37,7.18a3.86,3.86,0,0,0-1,3.56C246.2,405.58,246.57,410.09,248,414.86Zm220.66-92.11c2.64-.47,5.07-0.86,7.49-1.34a2,2,0,0,0,1.4-1.36c1-2.48,1-2.48-1.12-4.13-0.42-.32-0.8-0.69-1.2-1a1.5,1.5,0,0,0-1.89-.21c-1,.73-2.2,1.3-2.79,2.55A18.6,18.6,0,0,0,468.69,322.75Zm80.09-53.67a1.23,1.23,0,0,0-1-.13c-3.92.43-7.79,0.44-11.53-1.13-2.37-1-2.39-.94-4.05,1.52,1.27,0.47,2.52,1,3.78,1.38a1.49,1.49,0,0,0,1.09,0c1.19-.74,2.11-0.32,3,0.5a4.57,4.57,0,0,0,2.1.76,5.4,5.4,0,0,1,3,1.38,1.32,1.32,0,0,0,1.84.22c0.53-.36,1.32-0.28,1.66-1a1,1,0,0,0-.85-0.21,1.19,1.19,0,0,1-1.24-.78,1.34,1.34,0,0,1,.64-1.12A6.6,6.6,0,0,0,548.77,269.09ZM423.91,309.26l-0.44-.35c-1.49,1.56-3,3.1-4.47,4.69-2.61,2.83-5.1,5.78-8.47,7.76a1.7,1.7,0,0,0-.82,1,6.52,6.52,0,0,1-2,3,20,20,0,0,1-2.51,2.58,0.55,0.55,0,0,0-.1.8,0.58,0.58,0,0,0,.8.17c0.75-.48,1.64-0.9,1.78-1.9,0.18-1.29,1.12-1.69,2.13-2.07,0.77-.29,1.74-0.33,2.22-1,1.38-2,3.42-3.41,4.84-5.35a48.8,48.8,0,0,1,3.92-4.68A19.36,19.36,0,0,0,423.91,309.26Zm-72.61-71c5.45-2.34,5.46-2.34,8.09-7.29,0.14-.27.27-0.54,0.4-0.81,1-1.88,1-1.88-.79-2.91-1.38-.81-2.26-0.58-2.79.9a35.1,35.1,0,0,1-4.22,7.94C351.62,236.71,350.94,237.25,351.3,238.3Zm-8.47,15.86,0.49,0.24c2.94-3.83,6.89-6.91,8.74-11.54a0.74,0.74,0,0,0-.86-0.25,30.63,30.63,0,0,0-7.76,5.73,2.72,2.72,0,0,0-.81,2C342.66,251.65,342.77,252.9,342.84,254.16Zm47.46-8.88c-1.85-.41-2.89-1.79-3.87-3.23a14.5,14.5,0,0,0-.93-1.28c-0.77-.91-1.31-0.92-1.93.09-0.91,1.47-1.78,3-2.8,4.38-0.6.83-.3,1.46,0.79,1.46a28.94,28.94,0,0,1,4.89.65C388.32,247.66,389.36,247,390.29,245.28Zm56.41,69.86a29.51,29.51,0,0,0,12.87,1.49c-1.64-1.52-3.39-2.27-4.22-3.94-0.46-.92-1-0.85-1.81-0.39a20,20,0,0,1-3.33,1.36A13.55,13.55,0,0,0,446.7,315.14ZM254.32,186.37c0-.7-0.63-1.21-1.53-1.59-1.44-.6-1.65-0.54-2,0.93a18.84,18.84,0,0,1-2.14,5.44,9.18,9.18,0,0,0-.86,1.84c-0.2.62-.51,1.41,0.3,1.79a1.41,1.41,0,0,0,1.93-.62c1.26-2.05,2.55-4.08,3.83-6.12A3,3,0,0,0,254.32,186.37Zm25.34,52.34a9,9,0,0,0,6.58-8.52,1.31,1.31,0,0,0-1-1.3,1,1,0,0,0-1.32.51,25.14,25.14,0,0,0-3.41,6.1C280.11,236.52,279.37,237.48,279.66,238.71Zm144.15,63c-1.08-1-1.85-1.85-2.71-2.57-1.48-1.23-1.65-1.15-2.75.42a2,2,0,0,0-.32,1.68,16,16,0,0,1-.13,4.26c-0.11,1.35-1,2.49-.87,3.92C419.49,307.16,420.5,303.67,423.82,301.76Zm-118.5-62.24c-5.68-.67-9.35,2.57-10.79,7.33a1,1,0,0,0,1.13-.49c1.33-1.26,2.68-2.42,4.7-2.29a2,2,0,0,0,1.53-.84C303,242.09,304,240.94,305.31,239.52ZM253.44,435.19a6,6,0,0,0,.08-0.85c0-1.53-.59-1.95-2.13-1.66a2.54,2.54,0,0,0-1.27,4.09,38.1,38.1,0,0,0,3.3,3.39,2.52,2.52,0,0,0,1.81.81c0.56,0,.89-0.31.56-0.86A19.12,19.12,0,0,0,254,437.5,2.32,2.32,0,0,1,253.44,435.19Zm2.64-237.86c2.7-.39,4.25-2.29,6-3.82,1-.9.89-2.2,0.48-3.36-0.53-1.5-1.5-1.67-2.46-.43s-2,2.81-3,4.24c-0.41.61-1.37,1.18,0,1.93,0.49,0.28-.19.32-0.33,0.42A1,1,0,0,0,256.07,197.32ZM188.4,322.64a25.09,25.09,0,0,1,5.09-.56,0.93,0.93,0,0,0,.61-1.65,1.79,1.79,0,0,0-1.35-.72,16.09,16.09,0,0,0-2.92-.08,2.43,2.43,0,0,1-2.82-1.3,1.07,1.07,0,0,0-1.4-.77,1.17,1.17,0,0,0-1,.86,1.23,1.23,0,0,0,.79,1.46,2,2,0,0,1,1.49,2C187,322.58,187.56,322.65,188.4,322.64ZM438,286.93c1.63,1.69,3.07,3.14,5.39,2a0.45,0.45,0,0,1,.22,0,25.05,25.05,0,0,1,4,.83c1.25,0.47,2.74-.85,3.8.62a1,1,0,0,0,.63-0.1c1.48-.66,2.84-1.68,4.62-1.36a0.72,0.72,0,0,0,.52-0.36,0.61,0.61,0,0,0-.26-0.78,1.89,1.89,0,0,0-2.31-.08,13.59,13.59,0,0,1-9.68.53C442.77,287.73,440.53,287.41,438,286.93Zm-185-90c1.43,0,3.61-2.41,3.45-3.74a0.5,0.5,0,0,0-.84-0.36,9.68,9.68,0,0,0-1.24,1c-0.52.43-1.12,1.11-1.75,0.81-1.63-.78-2.61.77-4,0.92a0.67,0.67,0,0,0-.39.49,0.54,0.54,0,0,0,.56.57C250.25,196.84,251.7,196.55,253,196.94ZM239.31,411.25a15.85,15.85,0,0,0-.37-2c-0.2-.63-0.46-1.37-1.3-1.31s-0.83.82-.89,1.37c-0.15,1.33,0,2.68-.74,3.94a1.19,1.19,0,0,0,.6,1.53,1.42,1.42,0,0,0,1.46-.33C239.2,413.72,239.09,412.44,239.31,411.25ZM486.46,298a0.71,0.71,0,0,0,.88.53,64.82,64.82,0,0,0,6.58-1.57,5.78,5.78,0,0,0,1.56-.86c1.89-1.38,2.89-3.4,4-5.38a0.53,0.53,0,0,0-.06-0.8,0.75,0.75,0,0,0-.84.11,3.56,3.56,0,0,0-1.09,1.92,6.83,6.83,0,0,1-5.41,4.55C490.16,296.78,488.34,297.43,486.46,298ZM361.21,287c0.18,1-.09,2,0.49,2.76s1.44,0,2.14.34a4.94,4.94,0,0,0,2.22.32,11.15,11.15,0,0,0,1.57,0,0.79,0.79,0,0,0,.77-0.69,0.76,0.76,0,0,0-.65-0.81A58.44,58.44,0,0,1,361.21,287ZM308,219.86c-1.1-1.57-2.4-1.67-3.61-2a3.54,3.54,0,0,0-3.2.61,1.1,1.1,0,0,0,.09,2,2.74,2.74,0,0,0,2.8,0A6.16,6.16,0,0,1,308,219.86Zm55.41,13.76c0.43-.19,1-0.44,1.52-0.66a1,1,0,0,1,1.19-.12c0.9,0.63,1.34.13,1.36-.82a5.32,5.32,0,0,0-.71-2.35,1.29,1.29,0,0,0-2.42-.22,29.68,29.68,0,0,0-1.62,3.21C362.53,233.16,362.7,233.53,363.46,233.62Zm159.68,54.47c1.42-.4,2-1.59,2.67-2.64a4.84,4.84,0,0,1,3.29-2.06c-1.08-.82-1.88-1.44-2.71-2a1.16,1.16,0,0,0-1.46-.1c-0.65.49-.23,0.88,0.2,1.25a0.49,0.49,0,0,1,.08.78C523.55,284.45,524.3,286.66,523.14,288.09ZM232.44,181.88a1.6,1.6,0,0,0,1.4-1.08,6.75,6.75,0,0,1,.94-2.25,0.81,0.81,0,0,0-.24-1.19,1,1,0,0,0-1.23.19c-0.72.75-1.42,1.53-2.12,2.3a1,1,0,0,0-.18,1.23A1.54,1.54,0,0,0,232.44,181.88ZM760.72,285a0.5,0.5,0,0,0,0,.24c1.8,2.52,4.49,3.26,7.34,3.66a0.48,0.48,0,0,0,.35-0.25,0.45,0.45,0,0,0-.16-0.59,2.16,2.16,0,0,0-.78-0.43,13.92,13.92,0,0,1-5.06-2.4A1.28,1.28,0,0,0,760.72,285Zm-288.54,5c-1.85-.5-3,0.82-4.35,1.61s-3.1,1.13-4.33,2.31A18.18,18.18,0,0,0,472.18,290Zm-83.06-4.07c2.68,1.14,4,.93,5-0.62a1,1,0,0,0,.18-1,0.81,0.81,0,0,0-1.17-.34C391.93,284.62,390.48,284.88,389.12,285.95ZM243.24,421.45c-0.84-.54-1.1-2.09-1.81-2-1.45.13-3.11-.21-4.38,1a0.65,0.65,0,0,0-.25.93,0.66,0.66,0,0,0,.94.34c1.61-1.23,3.22-.64,4.86-0.12A1.59,1.59,0,0,0,243.24,421.45Zm9.49-3.53a0.81,0.81,0,0,0,.57-1.05,7.26,7.26,0,0,1-.75-2.74c0-.53-0.59-0.63-1.07-0.38a2.14,2.14,0,0,0-.94,2.35A4.16,4.16,0,0,0,252.72,417.92ZM561.4,265.85l1.62,4a3,3,0,0,0,1.72-2.52c0-1.12-1.25-1.09-2-1.49A1.24,1.24,0,0,0,561.4,265.85ZM259.09,321.09a1.55,1.55,0,0,0-.49.3,0.48,0.48,0,0,0,.18.75c0.37,0.26,1.21.48,0.1,0.9a1.11,1.11,0,0,0-.72,1.24,0.66,0.66,0,0,0,.36.48A1.28,1.28,0,0,0,260,324a3.73,3.73,0,0,0,.55-1A1.69,1.69,0,0,0,259.09,321.09Zm291-46.09c-1.43-.23-2.55-0.77-3.6.24a1,1,0,0,0-.28,1.22,0.89,0.89,0,0,0,1,.3A5.38,5.38,0,0,0,550.05,275ZM215.41,295.48a7.27,7.27,0,0,0-4,3.5,0.67,0.67,0,0,0,.12.6,0.49,0.49,0,0,0,.78-0.05C213.29,298.13,214.78,297.16,215.41,295.48Zm439.66-12.72c-1.54,0-3.08,0-4.62,0a0.58,0.58,0,0,0-.68.45,0.69,0.69,0,0,0,.62.78A5.05,5.05,0,0,0,655.07,282.76ZM246.55,260.68c-0.63-.53-1-0.87-1.41-1.19-0.57-.46-1,0-1.33.32a1.17,1.17,0,0,0-.42,1.55,1.07,1.07,0,0,0,1.4.25C245.33,261.38,245.83,261.07,246.55,260.68Zm488.53,24.56c6,0.77,6,.77,7.38-0.56C739.9,285.38,737.5,285,735.08,285.24Zm-323.22-46.3a3.87,3.87,0,0,0-.18,3.74,0.68,0.68,0,0,0,.54.28,0.56,0.56,0,0,0,.52-0.62A5.09,5.09,0,0,0,411.86,238.95ZM223.24,185c-1.23,0-1.76.85-2.41,1.38a0.77,0.77,0,0,0,0,1.33,0.89,0.89,0,0,0,1.34-.39C222.51,186.63,222.82,185.89,223.24,185ZM253.8,295.6c0.84-.13,1.11-0.89,1.48-1.51s0.9-1.17.3-1.58-0.89.45-1.2,0.89a14.61,14.61,0,0,0-1,1.51A0.46,0.46,0,0,0,253.8,295.6Zm175.73-59.24c2.28,0.94,4.74.24,7.06,0.77C434.32,236.12,431.85,236.92,429.53,236.36ZM260.64,282a8.52,8.52,0,0,0,4.23-2.75A10.16,10.16,0,0,0,260.64,282ZM441.53,239.7a1.85,1.85,0,0,0-1.78-1.37,0.67,0.67,0,0,0-.73.66,2,2,0,0,0,2,1.36A0.58,0.58,0,0,0,441.53,239.7ZM613.92,461.12l-5.59-1.26A8,8,0,0,0,613.92,461.12ZM252.78,198.53c-1.14.45-2,1.4-3.34,1.46a0.39,0.39,0,0,0-.37.45,0.5,0.5,0,0,0,.66.42A4.77,4.77,0,0,0,252.78,198.53Zm-4.24,223.05a3.76,3.76,0,0,0,2.38-.31,0.65,0.65,0,0,0,.49-0.87,0.72,0.72,0,0,0-.95-0.37A2.17,2.17,0,0,0,248.53,421.58ZM380.24,230.65c-1.87-.06-3.74-0.15-5.39,1Zm269.88,68.81a1.68,1.68,0,0,0-.11-0.27,2.15,2.15,0,0,0-2.15-.92,0.54,0.54,0,0,0-.55.59c0.22,0.9,1.08.92,1.78,1.12a1,1,0,0,0,.66-0.06A1.43,1.43,0,0,0,650.12,299.46ZM218.81,369.8c2.19,0.2,2.29.13,2.68-1.72A3.37,3.37,0,0,0,218.81,369.8Zm10.73,75.68c-1.5.24-2.27,1.35-3,2.54A6.81,6.81,0,0,0,229.54,445.49ZM441.23,253.34a1,1,0,0,0-.88-0.78,0.88,0.88,0,0,0-1.06.6c-0.11.82,0.68,0.57,1.1,0.7A0.6,0.6,0,0,0,441.23,253.34Zm37.57,45v0.19H484v-0.19h-5.17ZM432,233.6a0.83,0.83,0,0,0,.5.78c0.38,0.26.76,1,1.25,0.35s-0.25-.87-0.65-1.14A0.86,0.86,0,0,0,432,233.6Zm-35.77,52.14c0.46-.23,1.2-0.26,1.07-1.09a0.62,0.62,0,0,0-.72-0.37,1,1,0,0,0-.94,1C395.6,285.69,395.89,285.78,396.25,285.74Zm76,10.34c0.43,0.06.85,0.15,1.27,0.17a0.5,0.5,0,0,0,.62-0.49,0.69,0.69,0,0,0-.55-0.63C472.9,294.89,472.49,295.2,472.29,296.08Zm-13.21-2a0.71,0.71,0,0,0-.06.26,0.24,0.24,0,0,0,.15.15,2.49,2.49,0,0,0,2.24-.46A3.31,3.31,0,0,0,459.08,294.05Zm174.71-9.91a1.43,1.43,0,0,0-2,.84A1.65,1.65,0,0,0,633.79,284.14ZM439.35,265l0.06-.49a4.61,4.61,0,0,0-2.85.13Zm-26.67,61.64c1.94-.06,1.94-0.06,2.84-1.1A4,4,0,0,0,412.68,326.61Zm135.6,115.22c0.34,1.14.87,1.55,2.09,1.25A2.59,2.59,0,0,0,548.28,441.83Zm88.55-144.14a0.82,0.82,0,0,0-.85,1,0.58,0.58,0,0,0,.59.54,1,1,0,0,0,1-1A0.59,0.59,0,0,0,636.84,297.69ZM730,285.21c1.18,0.25,1.89.56,2.56,0A2.84,2.84,0,0,0,730,285.21ZM223.74,361.92a0.45,0.45,0,0,0-.42-0.47,0.9,0.9,0,0,0-.93.78c-0.07.22,0,.5,0.21,0.52A1.09,1.09,0,0,0,223.74,361.92Zm-6.69-179.18a0.57,0.57,0,0,0-.6.72,0.69,0.69,0,0,0,.4.47,0.62,0.62,0,0,0,.74-0.63A0.51,0.51,0,0,0,217.05,182.74ZM759.4,284.4a1.08,1.08,0,0,0-.89-0.52,0.3,0.3,0,0,0-.35.41,0.86,0.86,0,0,0,.86.55A0.35,0.35,0,0,0,759.4,284.4ZM254.1,368.07c1.31-.42,1.31-0.42,2-1.69C255.35,367.13,254.63,367.16,254.1,368.07Zm75.44-173.86a3.54,3.54,0,0,0-2.65,1A5.2,5.2,0,0,0,329.54,194.21ZM402,248.45a0.57,0.57,0,0,0-.64-0.44,0.39,0.39,0,0,0-.4.41,0.54,0.54,0,0,0,.74.52A0.43,0.43,0,0,0,402,248.45Zm271,11.93a0.46,0.46,0,0,0-.55-0.18c-0.26,0-.62.08-0.43,0.48a0.77,0.77,0,0,0,.57.1A0.42,0.42,0,0,0,673,260.38ZM263.85,326.25c0-.38-0.14-0.53-0.38-0.52a0.41,0.41,0,0,0-.41.41,0.35,0.35,0,0,0,.39.39A0.38,0.38,0,0,0,263.85,326.25Zm432.89-43.61a0.36,0.36,0,0,0-.48.3,0.43,0.43,0,0,0,.4.45,0.37,0.37,0,0,0,.49-0.3A0.44,0.44,0,0,0,696.74,282.64ZM377.27,217.81a0.88,0.88,0,0,0-1,0h1ZM219.5,191.19a0.9,0.9,0,0,0-.7-1,0.44,0.44,0,0,0-.22.27A0.77,0.77,0,0,0,219.5,191.19Zm85.07,9.59c-0.35-.25-0.7-0.71-1.22-0.22A0.82,0.82,0,0,0,304.57,200.78ZM444,266.56a4,4,0,0,0,2.31-.37A2,2,0,0,0,444,266.56ZM270.32,244.24a0.91,0.91,0,0,0-.33.24c-0.12.28-.64,0.7-0.07,0.82C270.23,245.37,270.51,244.74,270.32,244.24Zm456.8,41a0.93,0.93,0,0,0,.34-0.27c0-.28-0.25-0.3-0.46-0.29s-0.5,0-.4.3A1.08,1.08,0,0,0,727.12,285.27Zm-348.31-38a1.06,1.06,0,0,0-1.26,0h1.26Zm-55.52-75.12a0.21,0.21,0,0,0-.1-0.34,0.41,0.41,0,0,0-.54.13,0.35,0.35,0,0,0,.1.33A0.41,0.41,0,0,0,323.29,172.18Zm331,128.48a0.82,0.82,0,0,0-.71-0.77,0.42,0.42,0,0,0-.37.15c-0.16.47,0.19,0.65,0.54,0.79A0.41,0.41,0,0,0,654.25,300.66ZM325.09,199.41c0.25-.29.92,0,0.92-0.79A1.22,1.22,0,0,0,325.09,199.41Zm47.46,32.43a0.83,0.83,0,0,0-.35-0.16c-0.23,0-.74-0.12-0.63.2S372.2,232,372.54,231.84Zm263.84,53.53a0.4,0.4,0,0,0-.55-0.2,0.38,0.38,0,0,0-.2.31,0.36,0.36,0,0,0,.53.22A0.81,0.81,0,0,0,636.38,285.36ZM205.69,307.51l-0.2.31a0.71,0.71,0,0,0,.34.13,0.67,0.67,0,0,0,.2-0.29ZM659.94,276c0.12-.15.09-0.27-0.1-0.33a0.3,0.3,0,0,0-.21,0c-0.16.08-.2,0.24-0.07,0.34A0.7,0.7,0,0,0,659.94,276ZM230,341.84a0.84,0.84,0,0,0,.24-0.35,0.25,0.25,0,0,0-.43-0.21,0.5,0.5,0,0,0-.13.39A0.2,0.2,0,0,0,230,341.84ZM210.91,189.91a0.47,0.47,0,0,0-.06-0.19,0.21,0.21,0,0,0-.36,0,0.23,0.23,0,0,0,0,.18A2.29,2.29,0,0,0,210.91,189.91Zm-85,163.8a0.72,0.72,0,0,0-.28.25c0,0.17.11,0.25,0.29,0.19a0.29,0.29,0,0,0,.16-0.13A0.2,0.2,0,0,0,125.91,353.71ZM220.7,183.63a0.66,0.66,0,0,0-.26.23c0,0.16.1,0.23,0.27,0.18a0.27,0.27,0,0,0,.15-0.12A0.19,0.19,0,0,0,220.7,183.63Zm-3.17-4.57a2.44,2.44,0,0,0-.31-0.21,0.3,0.3,0,0,0-.14.14c-0.07.17,0,.31,0.16,0.31A0.73,0.73,0,0,0,217.54,179.06Zm51.22,43.61c0-.19-0.15-0.26-0.31-0.15a0.55,0.55,0,0,0-.24.33c0,0.18.13,0.26,0.3,0.15A1.31,1.31,0,0,0,268.76,222.67ZM720.32,285c-0.18,0-.31.07-0.27,0.22a0.47,0.47,0,0,0,.31.21c0.17,0,.32-0.06.27-0.21A0.75,0.75,0,0,0,720.32,285Zm-4,0a0.21,0.21,0,0,0-.35,0,0.19,0.19,0,0,0,0,.18,0.2,0.2,0,0,0,.35,0A0.35,0.35,0,0,0,716.32,284.93Zm49.44-.27a0.19,0.19,0,0,0-.1-0.32,0.31,0.31,0,0,0-.18,0,2.13,2.13,0,0,0-.05.32h0.34Zm-318-20.9a0.74,0.74,0,0,0-.3-0.21c-0.17,0-.23.15-0.14,0.31a0.29,0.29,0,0,0,.17.12A0.2,0.2,0,0,0,447.74,263.76Zm12.65,72.63a0.44,0.44,0,0,0-.09-0.19,0.2,0.2,0,0,0-.33.13,0.22,0.22,0,0,0,.09.19A0.21,0.21,0,0,0,460.39,336.38ZM366.22,208.23c0.08-.16,0-0.23-0.17-0.23a1.43,1.43,0,0,0-.4,0c-0.22.06-.22,0.18,0,0.21A2.73,2.73,0,0,0,366.22,208.23ZM112,371.35a0.94,0.94,0,0,0,.24-0.35c0-.18-0.14-0.25-0.3-0.13a0.58,0.58,0,0,0-.24.34C111.68,371.4,111.82,371.45,112,371.35Z" transform="translate(-39.6 -26.39)"/><path d="M319,194.61a1.29,1.29,0,0,1-1.29.23c-1.85.41-2.42,0.31-2.86-1.14-1.18-3.85-3.54-7.16-4.9-10.92-0.42-1.15-.37-1.45.74-1.45a11.68,11.68,0,0,0,3.59-1c1.77-.57,3.8-0.3,5.35-1.57a0.75,0.75,0,0,1,1,.05c0.92,1.45,2.19,1,3.43.71a1.45,1.45,0,0,1,1.81.48,1.09,1.09,0,0,0,1.23.31c2.81-.28,4.54,1.1,5.6,3.58,0.7,1.64.73,1.66,2.49,1.33s3.25-.67,4.88-1c0.52-.11,1.22-0.29,1.15-0.89-0.18-1.43.63-1.36,1.48-1.06,1.32,0.47,2.57-.16,3.75-0.34a48.76,48.76,0,0,0,13.8-4.1,9.87,9.87,0,0,0,5-5.3,3.07,3.07,0,0,1,1.5-1.85,1.31,1.31,0,0,1,1.49,0,1.27,1.27,0,0,1,.32,1.46,7.27,7.27,0,0,1-3.52,4.52c-0.94.47-1.86,1-2.76,1.54a1,1,0,0,0-.66,1.07,0.88,0.88,0,0,0,.91.53,19.85,19.85,0,0,0,4.21.33c2.21,0,4.75,0,5.9,2.74,0.58,1.4,1.94,1.83,3.32,2.05,0.82,0.13,1.65.16,2.47,0.27,3.21,0.45,5.1,3.2,3.6,6.41a5.13,5.13,0,0,1-1,1.52,56.26,56.26,0,0,0-5.07,6.36,1.87,1.87,0,0,1-2.35.68c-1.28-.42-2.54-0.94-3.8-1.43a1.67,1.67,0,0,1-1.29-1.43c-0.05-2.06-1.73-2.73-3.11-3.49a41.37,41.37,0,0,0-4.8-2,15.93,15.93,0,0,0-6-1.09,18.16,18.16,0,0,1-4.47-.57,24.58,24.58,0,0,0-9-.17c-2.93.32-5.88,0.22-8.79,0.69C327.79,191.49,323.18,192.25,319,194.61Z" transform="translate(-39.6 -26.39)"/><path d="M230.94,142.12a8.18,8.18,0,0,1,1.82-5.88,4.35,4.35,0,0,0,.61-1.92,10,10,0,0,1,3.91-6.17,8.73,8.73,0,0,0,2.4-2.67,13.77,13.77,0,0,1,6.44-6.12,4.68,4.68,0,0,0,1.35-.82c2.41-2.26,5.41-3.55,8.3-5a13.17,13.17,0,0,0,4.66-3.48,10.78,10.78,0,0,1,5.92-3.54c7-1.85,14-3.62,20.57-6.83,2.78-1.36,5.63-2.58,8.39-4A19.1,19.1,0,0,1,303,94a8.31,8.31,0,0,0,3.71-.88c4.32-2.44,9-3.71,13.78-4.93,2-.52,4-1.46,6.14-1.45,0.79,0,1.85-.28,2.15.74s-0.52,1.51-1.16,2a7.13,7.13,0,0,1-2,1,27.36,27.36,0,0,0-7,3.68,5.05,5.05,0,0,1-2.42,1.18c-2.78.36-5.39,1.4-8.13,1.92a3.9,3.9,0,0,0-.88.19c-4.81,2.18-10.16,2.9-14.83,5.47a11.19,11.19,0,0,0-1.58.88c-3.08,2.43-6.76,3.13-10.49,3.81-3.41.62-6.78,1.41-10.16,2.19a6.48,6.48,0,0,0-2.06.89,60.93,60.93,0,0,0-7.25,5.39,29.38,29.38,0,0,1-9,6,15.54,15.54,0,0,0-2.5,1.53,27.06,27.06,0,0,0-6.33,5.24,6.55,6.55,0,0,0-2,3.85c-0.15,2.08-1.6,3.7-2,5.74-0.26,1.44-.56,3-1.88,4a1.68,1.68,0,0,0-.38,1.7c0.62,2.95-.95,5-2.78,7.27-0.32-1.07-.61-1.93.15-2.8a2.85,2.85,0,0,0,.51-1.93c0-2.05.86-4,.84-6a0.87,0.87,0,0,1,.18-0.63c1.79-1.2,1.79-3.34,2.67-5a3.65,3.65,0,0,0,.33-2.19,3.24,3.24,0,0,1,1.52-3.28c1.12-.76,2.07-1.75,3.12-2.62a2.61,2.61,0,0,0,1.29-2.46,2,2,0,0,1,.7-1.38,2.13,2.13,0,0,0,.77-1.88,1.84,1.84,0,0,0-1.75,1.12,32.26,32.26,0,0,1-4.26,4.33c-2.9,2.76-5.54,5.82-5.9,10.13a1.34,1.34,0,0,1-.21.85c-1.74,1-1.61,3.19-3,4.4Zm32.39-32.17a8.84,8.84,0,0,0-2.45,2.07,7.74,7.74,0,0,1-2.6,2.14c-2.43.87-4.45,2.52-6.86,3.45-1,.4-2.21,1-2.41,2.28a0.87,0.87,0,0,0,.95.28c2.55-.36,4.57-1.88,6.58-3.28,1.1-.77,2.08-1.71,3.27-2.38A8.72,8.72,0,0,0,263.33,109.95Z" transform="translate(-39.6 -26.39)"/><path d="M387.08,199.84a2.9,2.9,0,0,0-1.69,1.4,2.65,2.65,0,0,1-1.12,1.08c-1.61.78-2.69,0.44-3.64-1.16-1.25-2.09-1.2-2.56.5-4.19,0.86-.83,1.76-1.63,2.63-2.44-0.21.38-.21,0.81,0.28,0.79a0.82,0.82,0,0,0,.81-1.06c-0.1-.34-0.47-0.19-0.72,0,0.16-.33.34-0.66,0.48-1,1.07-2.54,1.07-2.54,3.74-2.06l0,0c0.12,1.33,1.24.79,1.93,1s1.65-.45,2.12.7a2.52,2.52,0,0,1-.4,2.93c-1.53,1.64-2.15,3.78-3.13,5.72-0.51,1-.41,1-2,0.77a7.08,7.08,0,0,0,.16-2.43,2.34,2.34,0,0,0,1.45-1.77C386.82,198.3,386.82,198.3,387.08,199.84Z" transform="translate(-39.6 -26.39)"/><path d="M399.52,207.32c-2.74-2.42-6.14-3.15-9.24-5a20.75,20.75,0,0,0,1.77-3.75,1.39,1.39,0,0,1,2-.92,5.55,5.55,0,0,1,1.64.73,10.38,10.38,0,0,0,3,1.58c1.51,0.52,1.87,1.11,1.6,2.75C400,204.12,400.36,205.59,399.52,207.32Z" transform="translate(-39.6 -26.39)"/><path d="M451.56,261c-1.35,0-3.49-1.56-3.7-2.89a1.34,1.34,0,0,1,.92-1.8,40.27,40.27,0,0,1,4.76-1c1.69-.35,2.54,1,2,2.71A4.25,4.25,0,0,1,451.56,261Z" transform="translate(-39.6 -26.39)"/><path d="M422.24,216c0.13,1-.57,1.5-1.17,2.05s-1.07-.07-1.58-0.3c-1.58-.7-3.18-1.35-4.76-2.06a1.72,1.72,0,0,1-1.34-1.36,2.69,2.69,0,0,1,2-1.59,32.54,32.54,0,0,1,6.08,1.74A1.43,1.43,0,0,1,422.24,216Z" transform="translate(-39.6 -26.39)"/><path d="M230.89,142.08a5.94,5.94,0,0,1-.74,2.35,4.6,4.6,0,0,0-.6,3.46,1.82,1.82,0,0,1-.47,1.89c-0.76.72-1.13,1.8-2.27,2.39a2.67,2.67,0,0,1-.41-2.87,17.46,17.46,0,0,1,4.53-7.17Z" transform="translate(-39.6 -26.39)"/><path d="M458.48,270.52a4.74,4.74,0,0,1,3,.69c1.43,0.77,1.55,1.61.45,2.83-0.54.6-1.41,0.88-1.69,1.76a0.58,0.58,0,0,1-.77.26A2.14,2.14,0,0,1,458.4,273C459.23,271.9,459.23,271.9,458.48,270.52Z" transform="translate(-39.6 -26.39)"/><path d="M382,207.35c2.61-1.17,2.64-1.2,1.52-2.53a5.09,5.09,0,0,1,3.66.62,6.07,6.07,0,0,0,3.51,1.28c0.39,0,.81.12,0.67,0.64a0.77,0.77,0,0,1-.84.61c-1.33-.22-2.65-0.48-4-0.74a1.1,1.1,0,0,0-1.39.38c-0.24.44-.21,1.08-0.87,1.19s-1.08-.45-1.61-0.69A1,1,0,0,1,382,207.35Z" transform="translate(-39.6 -26.39)"/><path d="M648.48,250c-2.65.77-5,.27-7.32-0.18-0.89-.17-0.77-0.94-0.57-1.66s0.47-1.27,1.37-1.14a6.35,6.35,0,0,1,2.52,1A19.85,19.85,0,0,0,648.48,250Zm-6.6-2.15a0.63,0.63,0,0,0-.17-0.29,0.76,0.76,0,0,0-.33.14,0.63,0.63,0,0,0,.17.29A0.74,0.74,0,0,0,641.88,247.85Z" transform="translate(-39.6 -26.39)"/><path d="M452.81,263.64c0-1.43.58-2.16,2.12-2.53,0.51-.12,1-0.3,1.51-0.42s0.65,0.19.7,0.61c0.1,0.95-1.94,4.35-2.82,4.67a0.75,0.75,0,0,1-.93-0.42A4.35,4.35,0,0,1,452.81,263.64Z" transform="translate(-39.6 -26.39)"/><path d="M468.95,284.17a12.18,12.18,0,0,1-3.87-6.63,5.69,5.69,0,0,1,1.74,0c0.94,0.29,1.7,1.06,1.3,2.05-0.64,1.56.06,2.58,1,3.63a3.07,3.07,0,0,1,.32.56Z" transform="translate(-39.6 -26.39)"/><path d="M312,172.1c-0.95.3-1.88,0.73-2.32-.44a0.82,0.82,0,0,1,.55-1.07C311.48,170.2,311.43,171.51,312,172.1Z" transform="translate(-39.6 -26.39)"/><path d="M471.36,285.57a2.46,2.46,0,0,1-1.69.8,0.83,0.83,0,0,1-.93-1,0.68,0.68,0,0,1,.94-0.63A2.68,2.68,0,0,1,471.36,285.57Z" transform="translate(-39.6 -26.39)"/><path d="M300.4,174.77c-1.52.63-2.76-.1-4,0.21C297.57,173.83,298.8,173.61,300.4,174.77Z" transform="translate(-39.6 -26.39)"/><path d="M456.54,274.32a3.34,3.34,0,0,1-2.09-1.47,0.6,0.6,0,0,1,0-1,0.71,0.71,0,0,1,1,.24A4.07,4.07,0,0,1,456.54,274.32Z" transform="translate(-39.6 -26.39)"/><path d="M393.32,213.26a1.42,1.42,0,0,1-1.57,1.09c-0.41,0-1,0-1-.59s0.56-.52,1-0.51S392.73,213.26,393.32,213.26Z" transform="translate(-39.6 -26.39)"/><path d="M358.25,166.68c1.29-.44,2.5.18,3.74,0.26A4.69,4.69,0,0,1,358.25,166.68Z" transform="translate(-39.6 -26.39)"/><path d="M410.63,245.9c0,0.33-.11.65-0.47,0.55a1.65,1.65,0,0,1-1.25-1.13c-0.09-.33.26-0.49,0.57-0.51A1,1,0,0,1,410.63,245.9Z" transform="translate(-39.6 -26.39)"/><path d="M167.29,333.63a5.71,5.71,0,0,1,2-2.32C168.89,332.88,168.89,332.88,167.29,333.63Z" transform="translate(-39.6 -26.39)"/><path d="M307.56,178.28a2.5,2.5,0,0,1,.53.1,1.53,1.53,0,0,1,.93,1.39,0.4,0.4,0,0,1-.32.24C307.76,179.88,307.61,179.21,307.56,178.28Z" transform="translate(-39.6 -26.39)"/><path d="M335.62,173.75a1.19,1.19,0,0,1-1.58.71,0.41,0.41,0,0,1-.1-0.38C334.31,173.44,334.86,173.42,335.62,173.75Z" transform="translate(-39.6 -26.39)"/><path d="M500.08,285.85a1.93,1.93,0,0,1,2.57-.37A2.67,2.67,0,0,1,500.08,285.85Z" transform="translate(-39.6 -26.39)"/><path d="M181.55,435.17l-3.23,2.54C178.54,435.78,179.83,435.2,181.55,435.17Z" transform="translate(-39.6 -26.39)"/><path d="M311.64,166.57a2.82,2.82,0,0,1-2.56,2.3l2.6-2.25Z" transform="translate(-39.6 -26.39)"/><path d="M297.51,172.72a2.2,2.2,0,0,1-2.12.51C296.08,172.44,296.08,172.44,297.51,172.72Z" transform="translate(-39.6 -26.39)"/><path d="M247.71,384.81a2,2,0,0,1-1.06,1.94c-0.53-.48-0.18-1-0.26-1.47l0,0,1.41-.46Z" transform="translate(-39.6 -26.39)"/><path d="M387.1,214.41a1,1,0,0,1-1.12.52c-0.3,0-.67-0.19-0.5-0.53a1,1,0,0,1,1.18-.46A0.46,0.46,0,0,1,387.1,214.41Z" transform="translate(-39.6 -26.39)"/><path d="M358.4,176.75a1.73,1.73,0,0,1-1.8,1.06A1.53,1.53,0,0,1,358.4,176.75Z" transform="translate(-39.6 -26.39)"/><path d="M344.28,178.28a0.42,0.42,0,0,1,.48.32c0,0.58-.42.68-0.87,0.68a0.33,0.33,0,0,1-.39-0.39A0.79,0.79,0,0,1,344.28,178.28Z" transform="translate(-39.6 -26.39)"/><path d="M233.89,188.76a0.82,0.82,0,0,1-.6.87,0.3,0.3,0,0,1-.29-0.44c0.13-.37.09-0.9,0.66-0.92A1.26,1.26,0,0,1,233.89,188.76Z" transform="translate(-39.6 -26.39)"/><path d="M498.44,286.09a0.65,0.65,0,0,1-.24-0.24,0.88,0.88,0,0,1,.58-0.81,0.26,0.26,0,0,1,.36.32A1,1,0,0,1,498.44,286.09Z" transform="translate(-39.6 -26.39)"/><path d="M204.09,426a1.93,1.93,0,0,1,2.31-.52,2.07,2.07,0,0,1-2.35.48Z" transform="translate(-39.6 -26.39)"/><path d="M188.59,430.07l0,0c-0.24.16-.51,0.38-0.76,0.14s0-.4.19-0.5C188.33,429.55,188.51,429.74,188.59,430.07Z" transform="translate(-39.6 -26.39)"/><path d="M302.2,175.37c0.2,0,.46.08,0.42,0.33a0.34,0.34,0,0,1-.49.22,0.47,0.47,0,0,1-.31-0.24C301.76,175.4,302,175.38,302.2,175.37Z" transform="translate(-39.6 -26.39)"/><path d="M581.65,448.11h1.56A1.3,1.3,0,0,1,581.65,448.11Z" transform="translate(-39.6 -26.39)"/><path d="M161,338c-0.21.7-.68,1.06-1.92,1.2l2-1.16Z" transform="translate(-39.6 -26.39)"/><path d="M472.6,284.42a0.7,0.7,0,0,1-.22.26,0.94,0.94,0,0,1-.78-0.61,0.41,0.41,0,0,1,.25-0.23A0.69,0.69,0,0,1,472.6,284.42Z" transform="translate(-39.6 -26.39)"/><path d="M503.4,284.27a0.43,0.43,0,0,1-.55.11c-0.18-.07-0.44-0.16-0.36-0.39a0.84,0.84,0,0,1,.56-0.11A0.31,0.31,0,0,1,503.4,284.27Z" transform="translate(-39.6 -26.39)"/><path d="M192.32,437.53a5.26,5.26,0,0,1-.42.45c-0.15.13-.36,0.06-0.31-0.07a1.48,1.48,0,0,1,.41-0.48C192.15,437.28,192.26,437.31,192.32,437.53Z" transform="translate(-39.6 -26.39)"/><path d="M388.35,191.18a1.37,1.37,0,0,1,.4-0.49,0.71,0.71,0,0,1,.58.12c0.09,0.54-.37.23-0.58,0.31a1.31,1.31,0,0,1-.44,0Z" transform="translate(-39.6 -26.39)"/><path d="M161,338.06a2.43,2.43,0,0,1,1.34-.57A1.2,1.2,0,0,1,161,338Z" transform="translate(-39.6 -26.39)"/><path d="M196,434.8c-0.26.11-.38,0-0.29-0.15a1.48,1.48,0,0,1,.45-0.48c0.16-.12.3,0,0.22,0.18A2.09,2.09,0,0,1,196,434.8Z" transform="translate(-39.6 -26.39)"/><path d="M224.73,165l-0.26.23a0.56,0.56,0,0,1-.1-0.16,2.25,2.25,0,0,1,.25-0.24Z" transform="translate(-39.6 -26.39)"/><path d="M331.22,175.68a0.19,0.19,0,0,1-.18.28,0.4,0.4,0,0,1-.17-0.08,2.47,2.47,0,0,1,.19-0.28A0.78,0.78,0,0,1,331.22,175.68Z" transform="translate(-39.6 -26.39)"/><path d="M602.46,452.19h0.4v0.1h-0.4S602.46,452.23,602.46,452.19Z" transform="translate(-39.6 -26.39)"/><path d="M299.06,273.92a1.13,1.13,0,0,1-1.1.12A1.37,1.37,0,0,1,299.06,273.92Z" transform="translate(-39.6 -26.39)"/><path d="M307.51,275.24c0.19,0,.27.13,0.2,0.3a0.28,0.28,0,0,1-.18.11,0.23,0.23,0,0,1-.33-0.2C307.2,275.28,307.33,275.21,307.51,275.24Z" transform="translate(-39.6 -26.39)"/><path class="b" d="M420.95,26.39c-149.81,0-271.25,121.44-271.25,271.25S271.14,568.89,420.95,568.89,692.2,447.45,692.2,297.64,570.75,26.39,420.95,26.39ZM286.38,124.22A219.58,219.58,0,0,1,420.95,78.06c121.27,0,219.58,98.31,219.58,219.58a219.58,219.58,0,0,1-46.17,134.57ZM555.51,471.06a219.58,219.58,0,0,1-134.57,46.17c-121.27,0-219.58-98.31-219.58-219.58a219.58,219.58,0,0,1,46.17-134.57Z" transform="translate(-39.6 -26.39)"/></g></svg>