<?xml version="1.0" encoding="utf-8"?>
<!-- Generator: Adobe Illustrator 19.0.0, SVG Export Plug-In . SVG Version: 6.00 Build 0)  -->
<svg version="1.1" id="Layer_1" xmlns="http://www.w3.org/2000/svg" xmlns:xlink="http://www.w3.org/1999/xlink" x="0px" y="0px"
	 viewBox="0 0 756.8 419.5" style="enable-background:new 0 0 756.8 419.5;" xml:space="preserve">
<style type="text/css">
	.st0{fill:#333333;}
</style>
<g id="XMLID_2_">
	<path id="XMLID_55_" class="st0" d="M79.2,265.1c0.3,0.1,0.7,0.1,1.1,0.1c1.5-1,2.9-0.7,4.4,0.1c0.9,0.5,2,0.5,2.9,0
		c0.7-0.3,1.3-0.6,2-1c0.8-0.6,1.8-0.7,2.7-0.2c0.5,0.3,1.2,0.3,1.7,0c1.7-1.1,3.7-1,5.6-1c1.4,0.1,2.7-0.5,3.6-1.6
		c2.9-2.9,6.5-5,10.4-6c1.2-0.3,0.2,0.4,0.3,0.6c0.1,0.2,0.3,0.3,0.5,0.2c0,0,0,0,0,0c0.4-0.1,0.9-0.2,1.3-0.4
		c4.5-2.1,8.9-4.4,13.2-7c1-0.6,1.7-1.6,2.9-2c0.4-0.2,0.7-0.6,0.8-1c0.2-0.8,0.7-1.5,1.3-2.1c1.6-2,2.5-4.5,2.5-7.1
		c0-1.5,0.7-2.9,2-3.8c0.2-0.1,0.6-0.4,0.6,0.1c0,1,0.6,1,1.2,0.9c1-0.2,2.2,0.2,2.8-0.8c0.5-0.7,1.2-1.3,2.1-1.5
		c0.5-0.2,1-0.6,1.3-1.1c1.3-1.9,3.7-2.7,5.9-1.9c1.3,0.3,2.6,0.7,3.7,1.3c0.8,0.5,1.4,0.2,1.6-0.8c0.2-0.7,0.2-1.5,0.1-2.2
		c-0.4-1.8-0.9-3.6-1.5-5.3c-0.8-1.9-0.9-3.9-0.3-5.9c0.3-1.6,0.8-3.1,1.4-4.6c0.9-1.7,2.5-3,4.4-3.5c1.5-0.5,2.2,0,2.5,1.6
		c0.2,0.9-0.2,1.4-1,1.1c-1.2-0.4-2.1,0.3-3.2,0.6c-0.4,0.1-0.6,0.4-0.6,0.8c0,0.4,0.3,0.7,0.7,0.7c1.4,0.1,3,0.5,4-1
		c2-2.8,5.3-2.2,7.8-3.5c0.3-0.1,0.6,0,0.8,0.2c0.4,0.3,1,0.2,1.4-0.2c0-0.1,0.1-0.1,0.1-0.2c0.7-1.2,1.9-1.9,3.3-2
		c1-0.1,1.8-0.7,2.3-1.6c0.8-1.2,1.4-2,3.2-1.8c1.9,0.1,3.6-1,4.2-2.7c1-2.8,3-4.7,5.2-6.4c0.7-0.6,1.4-1.1,1.3-2.3
		c-0.1-0.9,0.8-1.5,1.6-2c1.1-0.7,2.3-1.3,3.5-1.9c4.3-2.1,8.5-4.5,11.8-8c-1.1-0.3-2.2-0.2-3.2,0.3c-0.6,0.3-1.2,0.6-1.8,0.8
		c-3.5,1-6.6,3.1-8.9,5.9c-1.7,2.1-2.4,2.1-4.8,0.9c-0.8-0.4-1.7-0.5-2.5-0.1c-1.4,0.7-2.4,0.4-3.5-0.8c-0.5-0.6-1.1-1.2-1.7-1.8
		c-1.4-1.2-1.5-2.6-0.2-3.8c1.1-1,1.9-2.2,2.5-3.6c0.7-1.6,2.1-2.8,3.8-3.2c2.7-0.6,3.9-2.6,5-4.6c1-2.1,2.6-3.8,4.6-4.9
		c1.3-0.7,2-2.1,2.5-3.3c0.7-1.6,1.8-2.9,3.2-3.8c1.6-1.1,3-2.5,4-4.1c0.8-1.3,1.8-2.5,3.1-3.5c1.5-1.1,2.5-2.8,2.9-4.6
		c0.4-1.8,1.8-3.1,3.5-3.5c2-0.7,3.7-1.9,5-3.6c1-1.5,2.2-2.8,3.6-3.9c1-0.7,1-1.3,0-2.1c-0.4-0.4-0.8-0.8-1.2-1.3
		c-1.1-1.4-2.5-1.4-3.8-0.1c-0.3,0.4-0.7,0.7-1.1,1.1c-1.1,0.8-1.6,0.7-2.4-0.3c-0.1-0.2-0.3-0.4-0.4-0.5c-0.3-0.6-1-0.9-1.7-0.7
		c-0.1,0-0.2,0.1-0.3,0.2c-2.4,1.3-3.3,1.1-5.3-0.8c-1.1-1.1-1.6-1.1-2.7,0.1c-0.3,0.4-0.6,0.8-1,1.2c-1.3,1.6-2.7,1.7-4.1,0.1
		c-0.6-0.9-1.5-1.6-2.5-2c-0.6-0.3-1.1-0.8-1.4-1.4c-0.4-0.8-1.5-1.1-2.3-0.6c-0.1,0-0.2,0.1-0.2,0.1c-2.1,1.1-2.4,1-3.9-0.8
		c-1-1.3-2-2-3.9-1.6c-2.3,0.5-4.2-0.7-5.5-2.6c-1-1.5-1.8-3.2-3.4-4.2c-0.5-0.4-0.8-0.9-0.9-1.5c-0.6-2.6-2.4-4.8-2.7-7.4
		c0-0.8-0.7-1.5-1.5-1.7c-1.5-0.4-3-1-4.3-1.7c-0.5-0.2-0.9-0.5-1.3-0.9c-0.6-0.5-0.7-1.4-0.2-2c0.4-0.6,1.2-0.7,1.8-0.4
		c0.8,0.3,1.6,1.1,2.8,0.4c-0.6-0.8-1.3-1.4-2.2-1.9c-0.6-0.2-0.9-0.8-0.8-1.4c0.1-0.6,0.7-1,1.3-1.1c0.7-0.2,1.4,0.2,1.7,0.8
		c0.1,0.3,0.3,0.7,0.4,1c0.4,0.5,1,0.7,1.6,0.5c0.6-0.2,1-0.7,1-1.3c0.1-0.6-0.2-1.2-0.8-1.3c0,0,0,0,0,0c-0.6-0.2-1.3-0.4-1.9-0.7
		c-0.6-0.2-1.3-0.7-1-1.5c0.4-1,1.2-0.6,1.9-0.4c0.4,0.2,0.8,0.4,1.2,0.6c0.8,0.5,1.2,0.2,1.5-0.6c0.3-0.8,0.1-1.3-0.9-1.4
		c-0.7-0.1-1.7-0.1-1.5-1.1c0.2-1.1,1.1-0.9,2-0.6c0.4,0.1,0.7,0.2,1.1,0.2c0.8,0.2,1.6-0.2,2-1c0.4-1-0.5-1.3-1.1-1.6
		c-0.6-0.3-1.4-0.7-1.2-1.6c0.2-0.8,1.1-1.3,1.9-1.2c0.5,0.2,1.1,0,1.6-0.3c0.1-0.7-0.4-0.8-0.7-1.1c-0.4-0.6-0.6-1.5-0.2-1.9
		c1.8-1.5,1.2-4,2.5-5.8c1.1-1.8,2-3.6,2.6-5.6c0.3-0.6,0.6-1.2,1.1-1.7c0.3-0.3,0.8-0.5,1.2-0.3c0.3,0.2,0.5,0.6,0.4,1
		c0.1,0.7-0.1,1.5-0.6,2c-2.1,2-2.5,4.8-3.9,7.1c-0.2,0.2-0.2,0.6,0,0.8c0.8,1.1,0.8,1.8-0.6,2.3c-0.4,0.1-0.4,0.5-0.2,1
		c1.3,2.2,1.3,2.2-0.4,4c2,1.3,1.9,1.3,2.7-0.7c0.4-1.1,1.2-2.1,2.1-2.9c0.8,0.2,0.5,1,1.1,1.2c0.1,0,0.3,0,0.4-0.1
		c1.1-1.6,2.1-3.2,3.3-4.7c1-1.3,0.9-1.9-0.4-2.8c-0.6-0.5-0.7-0.9-0.3-1.4c0.3-0.4,0.5-0.9,0.6-1.4c0.2-1,0.2-1.7-1.1-2
		c-1-0.2-1-0.8-0.5-1.6c0.3-0.5,0.7-0.8,1.2-0.9c1.3-0.2,2.4-0.8,3.2-1.8c0.1,1.7,0.3,2.9-0.5,4.3c-0.6,1.1-0.5,2.7-0.4,4.1
		c0.1,1.2,0.1,2.5-0.1,3.7c-0.1,0.9,0,1.8,0.1,2.6c0.4,1.1,0,2.3-0.9,3c-0.8,0.6-0.7,1.1-0.2,1.8c1,1.5,0.9,1.6-0.6,2.5
		c-0.1,0.1-0.3,0.1-0.4,0.2c-0.6,0.2-0.9,0.8-0.9,1.4c0,0.3,0.2,0.6,0.5,0.6c0.6,0.1,1.2-0.3,1.4-0.9c0.6-1,1.5-1.7,2.5-2
		c0.8-0.4,1.7-0.2,2.2,0.5c0.7,1.4,2,1.6,3.3,2c2.1,0.6,2.1,0.6,2.2,2.9c0,1.5-0.5,2.9-1.5,4c-0.5-0.6,0.3-1.5-0.5-2
		c-0.6-0.3-1.3-0.5-2-0.5c-1.5-0.1-2,0.2-2.5,1.6c-0.1,0.5-0.4,1.1-0.7,1.5c-0.3-1.4-1.1-1.5-2.4-1.7c-2.9-0.4-4,1.6-5.4,3.2
		c-0.7,0.6-0.8,1.8-0.2,2.5c0.1,0.1,0.2,0.2,0.3,0.2c1,0.7,2.4,0.5,3.1-0.5c0,0,0.1-0.1,0.1-0.2c0.9-1.3,1.9-2.5,3-3.6
		c-0.1,0.5-0.3,1-0.5,1.6c-0.4,0.8-0.9,1.5-0.4,2.5c0.1,0.1,0.1,0.3,0,0.4c-2.1,2.4,0.8,2.9,1.7,4c0.8,1.1,2.6,0.5,4,0.4
		c0.5-0.2,0.8-0.7,0.8-1.2c-0.1-0.1-0.2-0.2-0.3-0.3c-0.6-0.3-1.4,0.4-1.8-0.5c-0.2-0.7,0.1-1.5,0.7-2l1.3-1.6
		c0.1,0.5,0.1,1-0.1,1.5c0,0.4-0.1,0.7-0.1,1.1c0,1.1,1.2,0.9,1.7,1.4s-0.7,1.5,0.4,2c0.2,0.1,0.4,0.2,0.6,0.2
		c0.5-0.1,1-1.1,1.5,0.1c0.4,0.7,0.2,1.6-0.5,2.1c0,0,0,0,0,0c-0.1,0.1-0.1,0.3-0.1,0.4c1.7-0.3,2.9-1.5,4.4-2.1
		c0.7-0.3,0.6-1.5-0.2-2c-0.4-0.2-0.8-0.4-1.2-0.4c-1.7-0.5-2.3-1.6-1.6-3.2c1.1-2.3,2-4.8,2.6-7.3c0.4-1.1,1.3-2.1,2.4-2.6
		c1-0.6,1.6-1.3,1.3-2.5c-0.2-1.2,0.1-2.4,0.9-3.3c1.2-1.9,2.9-3.4,4.9-4.4c1.7-0.7,2.7-2.3,4.2-3.2c1.1-0.8,2.5-1.3,3.9-1.3
		c3.9,0.4,7.6-0.9,11.4-1.5c3.3-0.6,6.5-1.9,9.9-2.3c0.1,0,0.1,0,0.2,0c2.6-1.5,5.5-1.3,8.4-1.5c3.2-0.1,6.5-0.4,9.7-0.9
		c3.8-0.7,7.3,0.5,10.9,0.7c0.6,0.1,1.3,0.2,2,0.1c3.2-1,6.3,0.4,9.3,0.9c1.5,0.2,3,0.8,4.5,1.2c1.8,0.5,3.7,0.8,5.6,1
		c2.7,0.1,5.4,0.7,8.1,0.8c3.3,0.2,6.6,0.9,9.6,2.2c3.7,1.5,3.6,1.7,6.7,1.7c0.6,0,1.2,0,1.8,0.2c0.8,0.2,2-0.2,2.2,0.6
		c0.4,1.2-1.2,0.7-1.6,1.3c-0.8,0.7-1.6,1.5-2.3,2.4c-0.5,1.2-1.8,1.8-3.1,1.5c-1.2-0.2-2.6,0.2-3.8-0.5c-0.2-0.1-0.4-0.1-0.6,0
		c-2.1,1-4.6,1-6.6,2.2c-1,0.6-1.9,1.3-3.1,0.5c-1-0.6-1.2,0.7-1.7,0.7c-1.5,0-2.9,0.6-4.4,0.3l-1.2-0.3c0.6-0.8,1.3-1.5,2.1-2
		c0.6-0.5,1.3-1,1.1-2c0-0.4,0.3-0.8,0.7-1c0.6-0.2,1-0.6,1.3-1.1c0.2-0.5,1.3-0.9,0.4-1.7c-0.7-0.6-1.7-0.6-2.4,0
		c-0.3,0.3-0.6,0.6-0.9,1c-0.6,1.1-1.9,1.5-3.1,1.1c-0.4-0.2-0.8-0.3-1.3-0.2c-1.8,1.3-3.9,0.9-5.9,0.8c-0.8,0-1.6,0.5-2,1.2
		c-0.9,1.3-1.9,1.7-3.4,1c-0.9-0.6-2.1-0.4-2.8,0.5c-0.4,0.3-0.9,0.5-1.5,0.4c-0.9,0-2,0.3-2.4-0.6c-0.4-0.9,0.7-1.3,1.3-1.9
		c0.4-0.4,0.9-0.8,1.3-1.1c-0.4-0.8-1,0.3-1.4-0.5c0.2-1.1,2-0.7,2.4-2c-1,0.1-1.7,0.5-2.5-0.2s-1.7-0.1-2.4,0.5
		c-0.2,0.3-0.4,0.6-0.5,1c-0.5,0.7-1.1,0.6-1.5-0.1c-0.4-0.8-0.5-1.7-0.3-2.6c0.2-1-0.3-1.4-1.3-1.2l0,0c-1.1-0.5-1.8,0.4-2.6,0.8
		c-0.7,0.3-1.3,0.8-1.6-0.5c-0.2-0.9-1-0.4-1.4-0.1c-0.8,0.6-1.4,1.5-2.5,1.6c-0.3-0.4,0.3-1-0.2-1.2c-0.5-0.2-0.8,0.2-1,0.5
		c-1.1,1.7-3.4,2.2-5.1,1.1c-1.4-0.6-2.8-0.9-4.3-1c-2-0.1-2-0.2-2.3-2c-0.6-2.9-1.4-3.2-3.7-1.2c-2.8,2.4-5.5,5-8.1,7.5
		c-0.7,0.8-1.8,1.3-2.9,1.2c-3.9-0.2-7.6,0.9-11.4,0.9c-1.1,0-1.2,1-1.8,1.6c0.7,0.4,1.6,0.5,2.4,0.2c1.7-0.4,3.4-0.3,5,0.1
		c0.6,0.1,1.2,0.1,1.7-0.1c2-0.7,2.6-0.4,3.2,1.8c0.1,0.2,0.2,0.3,0.3,0.4c1.4-0.2,2.9-0.3,3.9-1.6c0.3-0.4,0.9-0.6,1.4-0.5
		c0.6,0.1,1.2,0,1.7-0.4c0.6-0.4,1.4-0.3,1.8,0.2c0,0,0,0,0,0c0.7,0.6,1.6,0.8,2.5,0.4c1.4-0.6,3-0.1,4,1.1c1,0.9,1.8,2,2.2,3.2
		c0.5,1.3,1.1,2.6,2,3.7c0.5,1,1.5,1.7,2.7,1.7c-0.8,1.2-1,2.7-0.6,4.1c0.4,2.2,0.1,4.4-0.9,6.4c-1.4,3.2-3.3,6.1-4.5,9.4
		c-0.3,0.9-1.1,1.5-2,1.5c-1.7,0.1-3.4,0.3-5.1,0.5c-2.2,0.2-3.3,1.1-3.9,3.2c0.7,0.4,1.3,0,1.9-0.2c0.6-0.2,1-0.2,1.5-0.3
		c1-0.3,0.5,1.8,1.5,0.9c0.5-0.4,1.2-0.5,1.8-0.3c0.7,0.2,1.4-0.2,1.6-0.9c0-0.1,0-0.2,0-0.3c0.2-1.2,1-1.3,2-1c1,0.3,2,0.4,3.1,0.1
		c0.4,0,0.7-0.3,0.7-0.7c-0.1-0.3-0.3-0.5-0.5-0.6c-0.6-0.4-1.7-0.4-1.9-1.4c-0.1-1.1,0.4-2.1,1.1-2.8c1.3-1.6,2.9-2.9,4.2-4.5
		c0.7-0.9,2.1-1,3.1-1.1c1.7-0.4,3.5-0.2,5.1,0.6c1.8,1,3.4,2.4,5.5,2.6c1,0.1,0.6,1.3,1.3,1.5c0.7,0,0.5-0.7,0.9-1.1
		c1.1,0.6,2.1,1.5,3.4,1.5c1.4,0,2.7,0.1,4,0.4c-0.2-1.5-0.2-2.8-1.2-3.8c-0.6-0.7-1.2-1.5-1.8-2.2c-1.3-1.6-1.3-2.1,0-3.9
		c0.4,0.2,0.9,0.1,1.3-0.2c3.5-1.2,7.1-1.8,10.7-2.7c1.3-0.4,2.7-0.6,4.1-0.6c2.4,0,4.8,0,7.2,0c-1.1,0.5-2.2,0.8-3.3,1
		c-1.2,0.2-2.5,0.2-3.6,0.9c-1-0.3-2.1,0-2.7,0.8l2.7-0.8c0.5,0,1,0.1,1.4,0.3c-2.5,1.5-5.3,2.3-7.8,4.2c0.7,0,1.4-0.1,2-0.5
		c2.1-1.2,4.5-2,6.6-3.1c3-1.6,6.4-2.5,9.8-2.6c5-0.2,10-0.1,14.7,2.2c1,0.5,2,1.1,2.9,1.6c0.4,0.2,0.7,0.5,1,0.9
		c0.6,1,0.3,1.8-0.9,1.8c-0.7,0-1.5-0.1-2.2-0.2c-5.1-0.8-10.3-1.1-15.4-1c-4.1,0.1-8.1,1.5-11.5,3.9l-0.8,0.1
		c-0.2,0-0.5,0.2-0.4,0.4c0.1,0.4,0.4,0.3,0.7,0.1c0.2-0.2,0.4-0.4,0.5-0.6c2-0.3,3.9-1,5.7-1.9c1.8-0.8,3.8-1.2,5.8-1.3
		c5.3-0.1,10.6-0.1,15.8,1.4c1.2,0.3,2.4,0.7,3.8,1c-1.2,0.8-2.7,1.1-4.1,0.7c-2.8-0.4-5.6-0.3-8.4,0.3c-3.4,0.6-6.9,0.7-10.3,1.6
		c-2.2,0.6-4.5,1-6.5,2.1c-1.4,0.2-2.7,0.7-3.8,1.5c1.3-0.5,2.7-0.5,3.7-1.5c2.7-0.2,5.3-0.7,7.8-1.4c1.6-0.4,3.3-0.7,5-0.8
		c0.5,0,1.1-0.3,1.5,0.5c0.3,0.6,0.9,0.1,1.1-0.1c0.4-0.7,1.2-1.1,2-1c1.5,1.4,3,0.2,4.5,0.2c1.7-0.1,3.4-0.5,5-0.7
		c1.7-0.1,3.4,0,5.1-0.1c2.9,0,5.8,0.3,8.5,1c0.7,0.1,1.3,0.4,1.6,1c-0.2,0.8-1,0.9-1.5,1.2c-2.4,1.3-5,1.6-7.6,1.8
		c-0.5,0-1,0.1-1.4,0.4c-1.3,0-2.6-0.4-3.7,0.6c1.2-0.2,2.5,0.1,3.6-0.6c0.7,0.7,1.7,0.9,2.6,0.6c1.6-0.5,3.1-0.4,4.1,1.2
		c0.5,0.5,1,0.8,1.7,1c1.4,0.3,2.4,1.7,2.1,3.1c0,0.1,0,0.1-0.1,0.2c-0.3,0.7,0.1,1.5,0.8,1.8c2.3,1,3.7,3.4,6.3,3.9
		c0.4,1.7,2.3,2,2.9,3.5c0.1,0.4,0.3,0.7,0.5,0.9c1.5,1,2.1,2.8,1.6,4.5c0,0.2,0.1,0.5,0.3,0.7c0.8-0.4,1.6-0.8,2.4-1.1
		c0.5-0.3,1.2-0.2,1.6,0.3c0.3,0.6-0.3,0.9-0.6,1.3c-0.6,0.7-1.4,1.2-1.2,2.4c0.1,1,0,1.7,1.1,2.3c0.8,0.4,1,1.5,1.4,2.4
		c0.4,0.9,0.8,2.3,2.4,2.1c0.3,0,0.5,0.1,0.6,0.4c0,0,0,0.1,0,0.1c0.3,2.2,0.4,2.2,2.4,2c0.1,0,0.2,0,0.2,0c0.3,0.3-0.3,0.6-0.1,0.8
		c1,1.4,1.5,3.4,3.4,4.2c0.5,0.3,1,0.6,1.4,1.1c0.6,0.6,1.3,1.3,2,1.8c1.3,1,2,0.6,2.2-1c0.2-1.3-0.1-2.7-0.9-3.8
		c-0.3-0.7-1.1-1.1-1.8-0.8c-0.1,0-0.2,0.1-0.2,0.1c0.2-1.3,0.4-2.6,0.9-3.9c0.1-0.4,0.4-0.8,0.8-1c1.4,0,1.3-1.1,1.1-1.9
		c-0.6-2.7-1.6-5.4-3-7.8c-0.1-0.5-0.6-0.8-1.1-0.6c-0.2,0.1-0.4,0.2-0.5,0.4c-0.4,0.5-1.1,0.6-1.6,0.3c-1.3-0.7-2.8-1-4.3-0.8
		c-0.4,0.1-0.8-0.1-1.1-0.5c0.4-0.7,1.1-0.5,1.7-0.6c1.6-0.4,3.3-0.8,5-1.1c1.2-0.2,1.3-0.8,1.2-1.7c-0.1-0.3-0.2-0.7-0.4-1
		c-0.5-0.5-0.5-1.3-0.1-1.8c0.6-0.6,1.3-0.3,1.8,0c2.5,1.1,5,2.2,7.5,3.4c1.1,0.5,2,1.3,2.8,2.2c2.1,2.2,4.7,3.9,7.5,5
		c0.5,0.2,1,0.4,1.4,0.6c2.3,1.1,3.3,0.7,4.2-2.2c-1-0.2-2.1,0-2.9,0.6c-0.9,0.7-2.2,0.7-3.1,0c-2.6-1.5-5-3.2-7.2-5.1
		c-3.4-2.8-7.3-4.8-11.6-5.7c-0.9-0.2-1.7-0.8-2.1-1.7c-1.2-2.5-2.1-5.2-4.3-7.3c1.2-0.8,2,0.3,3.1,0c0.3-0.3-0.4-1.1,0.2-1.6
		c0.5-0.3,1.1-0.4,1.7-0.1c0.9,0.2,1.6-0.3,2.4-0.4c2-0.3,2.5,0.2,2.2,2.2c-0.1,0.7-0.3,1.4-0.4,2.2c-0.2,0.7,0.1,1.5,0.8,1.8
		c1.4,1.1,2.9,2,4.6,2.6c1.9,0.7,3.5,1.8,5.3,2.7c1.2,0.5,2.3,1.3,3.7,0.8c0.2,0.8-0.6,1-0.7,1.6l2,1.3c0.6,0.4,0.9,1.2,1.8,1.2
		c0.4-1.8,0.4-1.8,2-1.5c2,0.3,2,0.3,2.7,1.6c-3.5,0.1-3.7,0.2-4.1,2.2c0.9-0.2,1.7-0.6,2.5-1c0.9-0.4,1.4-0.1,2.2,0.7
		c1.1,1.3,2,2.6,2.9,4c0.5,0.7,1,1.1,1.8,0.6c0.8-0.5,1,0.1,1.3,0.7c0.3,1.1,0.1,2.2-0.4,3.2c-0.7,1.7-0.4,2.1,1.4,2.1
		c0.5-0.1,1-0.1,1.5,0c0.4,0.2,1.1,0.1,1.1,0.9c0,0.2,0.1,0.4,0.2,0.6c1,0.5,1.5,1.4,1.5,2.5c0,1.4-0.4,2.8-1.2,4
		c-0.2,0.4-0.5,0.7-0.8,1c-1.5,1.9-1.2,3.6,1,5c-0.3,0-0.6,0.2-0.6,0.5c0,0.1,0,0.1,0,0.2c0,0.1,0.1,0.3,0.2,0.3
		c0.4,0,0.4-0.2,0.5-0.5l2,4.3c0.1,0.3,0.3,0.5,0.4,0.8c0.3,0.8,0.9,1.8,0.1,2.4s-1.5-0.1-2.1-0.6c-0.2-0.1-0.5-0.2-0.7-0.3
		c-0.3,1.5,0.6,2.4,1.3,3.4c0.3,0.4,0.5,0.3,0.9,0.1c1.2-0.7,2.7-0.3,3.5,0.8c1.1,1.4,2.4,2.8,3.8,4c0.8,0.5,1.1,1.5,0.7,2.3
		c-0.6,0.6-1.4,0.8-2.2,0.6c-1.1-0.3-2.2-0.1-3.2,0.4c3.1,0.5,4.8,2.4,6.6,4.2c1.9,1.7,4.2,2.5,6.5,3.3c2.3,0.9,3.8,3.1,3.8,5.6
		c0.1,0.7-0.4,1.3-1,1.4c-0.2,0-0.3,0-0.5,0c-1.2-0.2-2.4-0.1-3.6,0.2c0.2,0.6,0.4,1.1,0.6,1.6c0.1,0.4,0.3,0.7,0.7,0.8
		c1.7,0.2,3.3,1.1,5,0.4c0.5-0.3,1.1-0.4,1.7-0.4c0.6,0,1.9,0.7,1.2-1c0-0.1,0-0.1,0.1-0.2c1.2-0.3,2.5-0.4,3.7-0.4
		c0.3,0.2,0.5,0.3,0.7,0.5c1.8,1.4,3.8,1.3,5.8,0.7c1.1-0.3,2.2-0.5,3.2-0.8c0.7-0.2,1.5-0.6,1.5-1.4c-0.1-0.9-1.2-0.1-1.6-0.7
		c0.8-1.1,2.3-1.5,3.6-0.9c1.5,0.5,3.1,0.7,4,2.4c0.4,0.5,0.9,1,1.5,1.3c1.4,1,1.6,1,3.1,0.1c1.6-0.9,3.1-1.8,5-1.4
		c2.2,0.5,3.7-0.3,5.2-1.7c0.7-0.7,1.3-1.5,1.7-2.5c-0.2-0.1-0.3-0.2-0.5-0.2c-1,0-1.8,1.5-2.6,1c-1.3-0.9-2.4-1.9-3.6-2.8
		c-0.3-0.2-0.4-0.6-0.2-1c0.3-0.3,0.7-0.3,1-0.1c1.4,0.4,2.7,0.7,4.1,1c1,0.2,1.9,0.6,2.8-0.6c0.5-0.6,1.4-0.7,1.9-0.2
		c0.2,0.1,0.3,0.3,0.4,0.5c0.3,0.4,0.9,0.6,1.4,0.5c3.5,0.1,6.9,0.4,10.3-1.1c0.8-0.3,1.4-0.8,1.9-1.4c0.2-0.3,0.2-0.7,0-1
		c-0.3-0.3-0.7-0.3-1,0c0,0,0,0,0,0c-2.5,1.8-5.2,1.1-7.9,0.9c-0.5,0.1-1-0.3-1.2-0.8c-0.1-0.6,0.2-1.2,0.8-1.4
		c2.4-1.2,5.2-1.3,7.7-0.4c1.5,0.5,1.6,0.5,2.4-0.8c0.6-1.1,0.8-2.4,2-3.1c0.3-0.3,0.3-0.9,0-1.2c-0.4-0.7-0.8-1.4-1.1-2.2
		c-0.5-1.4-0.2-2,1.3-2.3c0.1,0,0.3,0,0.4-0.1c1.5-1.1,2.7-0.9,4,0.4c1.1,1,2.7,0.6,3.8-0.5c2.6-2.4,5.5-2.4,8.6-1.5
		c1.4,0.5,2.4,1.7,2.6,3.1c0.2,0.6,0.3,1.2,1.1,1.2c0.9,0.1,1.6-0.5,1.8-1.3c0.2-0.7,0.5-1.3-0.3-1.7c-0.7-0.5-1.3-1.2-1.7-2
		c-0.3-0.8-0.8-1.4-1.5-1.9c-0.6-0.4-1-1.1-1-1.9c-0.1-0.3,0-0.6,0.3-0.8c0.1,0,0.1-0.1,0.2-0.1c1.8,0.2,3.6-0.9,5.4-0.1
		c0.5,0.2,1.3,0.3,1.5,0.8c0.5,1.3,1.6,1.1,2.6,1.2c1.8,0.2,3.6,0.8,5.3-0.4c0.4,0.8-0.8,0.8-0.4,1.5c1.1-0.1,2.2,0.1,3.2,0.7
		c1.1,0.8,2.7-0.3,3.5-2c-0.2-0.4-0.7-0.6-1.1-0.4c-0.7,0-1.3-0.5-1.5-1.1c-0.4-0.9,0.5-1,0.9-1.3c0.6-0.4,0.8-1.3,0.4-1.9
		c0,0,0-0.1-0.1-0.1c-1.5-3.1-0.1-3.9,2.9-4c0.4,0,0.7,0,1.1,0c0.8,0,1.3-0.4,1-1.3c-0.4-0.7-0.1-1.5,0.5-1.8c0,0,0.1,0,0.1,0
		c1-0.4,1.8-1.3,3.1-0.8c1.2,0.4,2.1,1.3,2.6,2.5c0.9,2.1,1.6,2.4,3.8,1.6c1.5-0.5,3-1.2,4.5-2c0.5-0.4,1.3-0.4,1.7,0.1
		c0.1,0.1,0.2,0.3,0.3,0.5c0.3,0.7,0.7,1.4,1,2.2c0.6,1.3,0.2,2-1.3,1.9c-1.1-0.1-2.2-0.3-3.3-0.6c-0.3-0.1-0.7,0-0.8,0.3
		c0,0,0,0.1,0,0.1c0,0.3,0.2,0.6,0.5,0.7c2.2,1.6,6.2,0.6,7.6-1.8c0.2-0.4,0.4-0.8,0.6-1.2c0.2-0.4,0.5-0.8,0.8-1.1
		c0.2-0.3,0.6-0.5,1-0.5c1.7,0.6,3-2,4.9-0.6c0.3,0.2,0.7,0.3,1,0.4c1,0.2,1.4-0.1,1.3-1.2c-0.2-1.6,0.2-3.2-0.5-4.8
		c-0.6-1.3,0.4-2.6,2-2.8c1.8-0.2,3.7-0.3,5,1.5c0.8,0.9,1.8,1.5,2.9,1.9c0.9,0.3,1.6,0.9,1.8,1.8c0.8,2.4,2.4,4.4,3.3,7
		c-1.5-0.3-3.1-0.5-4.7-0.4c-0.4,0.1-0.7,0-1.1-0.2c-1.4-1.1-3-1-4.6-1.1c-0.5-0.5-1.1-0.8-1.8-0.8c0-0.1-0.1-0.3-0.2-0.4
		c-0.1-0.2-0.3-0.4-0.5-0.2s0.1,0.3,0.3,0.4c0.1,0,0.3,0.1,0.4,0.1c0.4,0.6,1.1,0.9,1.8,0.8c0.7,1.7,2.6,1.9,3.9,2.5
		c1.3,0.7,2.9,1.1,4.3,1.7c1.7,0.8,3.7,0.6,5.2-0.5c1.7-1,3.5-1.8,5.4-2.5c0.3-0.1,0.7-0.2,1-0.4c1.7-0.8,1.7-0.7,2.9,0.7
		c0.9,1,2.4,1.4,3.7,1c2.3-0.4,4.6-1.1,6.8-1.9c0.9-0.3,1.9-0.5,2.9-0.5c3.2-0.1,6.4-0.9,9.7-0.2c1.1,0.3,2.4,0.4,3.2-0.8
		c0.2-0.3,0.7-0.4,1-0.2c1.5,1.1,3.1,0,4.7,0.3c0.8,0.1,1.3-0.7,1.6-1.3s0.6-1.7,0.9-2.5c0.2-0.7,0.6-1.4,1.2-1.8
		c0.6-0.4,1.3-0.3,1.3,0.4c0,2.5,1.8,2.8,3.6,3c2,0.4,3.9,1,5.7,1.7c0.8,0.3,1.4,0.8,1.9,1.5c0.5,0.8,1.4,1.1,2.3,0.9
		c1.9-0.2,3.9,0.3,5.4,1.5c1.3,1,3,1.6,4.3,2.7c0.6,0.4,1.4,0.5,2.1,0.4c1-0.2,2.1,0.3,2.7,1.2c0.4,0.6,1,0.9,1.7,1
		c4.4,1,8.8,2,13.2,3c0.7,0.2,1.4,0.4,2.1,0.7c1.3,0.6,2.6,1,4,1.1c2.7,0,5,1.2,7.5,1.8c1.5,0.3,2.8,1.1,3.6,2.4
		c0.4,0.5,1,0.9,1.7,1c5.3,1.8,10.2,4.4,15.3,6.4c0.8,0.4,1.7,0.6,2.6,0.6c1.5,0,2.6,1.2,4.1,1.4s3.2,0.6,4.8,0.8
		c1.3,0.2,2.5,0,3.7-0.6c1.6-0.8,1.6-0.7,2.8,0.8c0.2,0.4,0.6,0.7,1.1,0.7c1.5-0.5,3,0.1,4.6-0.4c1.9-0.7,4-0.6,5.8,0.2
		c1.3,0.6,2.5,1.2,3.8,1.7c0.6,0.4,1.3,0.6,2.1,0.7c4.4,0.2,7.8,2.5,11.1,5c3.7,2.7,6,6.8,6.5,11.4c0.5,2.9,0.2,5.9-1,8.6
		c-1,2.3-2.1,4.5-3.4,6.7c-1.2,1.8-2.4,4-5.3,3.4c-0.4,0-0.7,0.2-1,0.4c-3.4,2-7.1,1.8-10.8,1.9c-4.4,0-8.9-0.5-13.3,0
		c-1.7,0.2-3.4,0.1-5.1-0.3c-5.8-1.2-11.6-2-17.5-2.8c-6.3-0.9-12.5-2.2-18.7-3.5c-3.4-0.7-6.8-1.6-10.2-2.3
		c-1.9-0.5-3.8-0.6-5.7-0.4c-3.9,0.6-7.8,0.4-11.7,0.7c-1.3,0.1-2.6,0.3-3.9,0.5c-2.9,0.4-5.9,0.6-8.5-0.6
		c-4.2-1.9-8.5-1.1-12.8-1.4c-3.6-0.3-7.2-0.1-10.8-0.2c-1.5-0.1-2.9-0.4-4.3-1c-3.3-1.2-6.8-1.8-9.8-4c-0.7-0.5-1.5-0.8-2.3-0.8
		c-0.1,0-0.2,0-0.2,0c-2.9-0.7-5.8-0.9-8.7-0.5c-2.2,0.2-4.3-0.2-6.2-1.3c-1.3-0.6-2.8-0.8-4.3-0.5c-2.1,0.4-3.1-0.7-2.5-2.8
		c0.2-0.6,0.2-1.3,0-2c-0.4-1.5-0.3-1.7,1.1-2.4c1.6-0.9,1.7-0.9,1.4-2.7c-0.2-0.7,0-1.5,0.6-2c0.7-0.6,1.2-1.3,1.5-2.2
		c0.1-0.6,0.7-0.9,1.3-0.8c0.1,0,0.2,0.1,0.4,0.2c0.5,0.2,0.9,0.4,1.4,0.7c0.4,0.3,0.9,0.2,1.2-0.1c0.1-0.1,0.1-0.1,0.1-0.2
		c0.6-2,2.3-3.4,2.3-5.6c0.1-0.7-0.1-1.3-0.4-1.9c-1.3-1.6-2.7-2.9-5-2.6c-0.2,0.1-0.4,0.1-0.7,0c-2.3-0.6-4.3-0.4-5.9,1.6
		c-0.4,0.4-1,0.4-1.4,0c0,0,0,0,0,0c-0.3-0.4-0.3-0.9,0-1.2c0.5-0.8,1.2-1.5,1.7-2.3c1.1-1.6,0.6-2.9-1.3-3.4c-0.1,0-0.3,0-0.4,0
		c-2.2-0.5-2.5-1.2-1.3-3.3c-0.5-0.4-1.1-0.6-1.8-0.6c-5-0.2-10-0.6-15,0.8c-0.4,0-0.9,0.1-1.2,0.4c-2.6,2.8-6.3,4.1-9.2,6.5
		c-2.1,1.7-4.5,3-6.7,4.6c-5.4,3.9-11.2,7.2-16.6,11c-0.7,0.4-1.6,1.6-2.2,0.6c-0.6-0.9,0.8-1.5,1.5-2c2.8-1.9,5.7-3.7,8.5-5.6
		c4.8-3.2,9.4-6.8,13.5-10.8c1.4-1.2,2.5-2.7,3.2-4.4c-0.5-0.5-0.9-0.2-1.2,0.1c-1.4,1.2-3.2,1.8-4.7,2.9c-1.2,0.9-2.2,0.5-3.9-0.9
		c-0.5-0.7-1.6-0.9-2.3-0.3c-0.1,0.1-0.2,0.2-0.3,0.3c-0.4,0.2-0.5,0.7-0.3,1.1c0.1,0.2,0.3,0.3,0.4,0.4c0.6,0.4,1.3,0.6,2,1
		c1.2,0.8,1.2,1.5,0.2,2.5c-0.3,0.3-0.6,0.5-0.9,0.7c-4.9,3.7-9.9,7.3-14.6,11.2c-4.2,3.4-8.8,6.2-12.9,9.7
		c-0.8,0.6-1.6,1.1-2.4,1.6c-0.3,0.3-0.8,0.5-1.2,0.4c-1.3-1-2.1,0.1-2.8,0.8c-3.8,3.5-8.3,6.2-12.4,9.2c-1,0.7-1.9,1.4-2.8,2.1
		c-0.3,0.3-0.7,0.6-1,0.8c-0.7,0.3-1.6,1.3-2.1,0.5c-0.5-0.8,0.7-1.3,1.3-1.7c3.6-2.6,7.1-5.2,10.6-8c0.5-0.3,1-0.8,1.3-1.3
		c-0.7-0.2-1.5,0-2,0.6c-3.1,2-6.4,3.7-9.8,5.1c-0.6,0.3-1.2,0.6-1.7,1c-2.5,1.8-5.1,3.3-7.9,4.5c-1,0.4-1.8,1.2-2.3,2.3
		c-0.7,1.6-1.8,2.9-3.9,3.1c-1.1,0-2.1,0.8-3.1,1.1c-4.7,1.4-9.4,2.9-14.2,4c-2.4,0.6-4.8,1.4-7.2,2.2c-2.5,0.9-5.1,1.6-7.7,1.9
		c-0.8,0.1-2,0.4-2.1-0.6c-0.3-1.2,1-1.2,1.8-1.4c0.5-0.2,1-0.3,2-0.6c-2.9-1-5.5-2.2-8.2-1.9c-3.1,0.4-6-0.2-9-0.4
		c-0.6,0.1-1.2-0.2-1.4-0.8c-0.2-1.3-1.3-1.5-2.3-1.8c-3.6-1.2-7.2-2.6-10.8-4c-0.6-0.3-1.3-0.9-2.1-0.4c-0.5,0.3-1.1,2.3-0.7,2.9
		c1.1,1.6,0,2.4-0.7,3.7c-1.8,2.9-4,5.4-5.8,8.4c-1.1,1.9-1.9,3.9-2.8,5.9c-0.3,0.4-0.2,0.9,0.2,1.2c0.1,0,0.1,0.1,0.2,0.1
		c0.6,0.4,1.4,0.5,2.1,0.3c3.1-1.1,6.4-1.2,9.6-1.5c0.7,0,1.5-0.2,2.1-0.5c1.6-1,3.1-2,5.1-1.8c0.8,0,1.6-0.7,2.6-0.3
		c0.2,0,0.4-0.1,0.6-0.2c1.7-2.3,4.3-0.7,6.4-1.5c0.5-0.1,0.9,0.1,1.2,0.4c1.6,1.1,3.4,1.8,5.3,2.1c0.8,0.2,1.5,0.5,2.3,0.8
		c1.8,0.6,3.6,1.4,5.6,1c0.1,0,0.1,0,0.2,0c1.7,1,3.7,1,5.6,1.3c0.7,0.2,1.6,0.2,2.3-0.1c3.1-1.5,6.5-2,9.9-1.6
		c1.8,0.1,3.1,1.2,4.7,1.6c1.1,0.3,1.3,1.7,1.1,2.8c-0.2,1-0.6,1.9-1.1,2.8c1.1,0.6,1.8,1.7,1.9,2.9c0.3,3,1.8,5.6,3.3,8.2
		c2,3.6,3.5,7.5,5.4,11.2c0.8,1.6,1.5,3.2,2.3,4.8c2.5,4.6,4.3,9.5,6.6,14.3c0.9,1.9,1.5,4,2,6.1c0.4,2.1,1.1,4.1,2,6.1
		c0.4,0.7,1,1.4,0.4,2.4c-0.2,0.6,0.1,1.2,0.7,1.4c0.1,0,0.2,0,0.3,0.1c0.9,0.2,0.9,0.6,0.5,1.4c-0.6,1.2,0.4,3.5,1.7,4
		c1.6,0.6,1.3,2.3,2.2,3.3c-1.7,1-0.1,2.5-0.3,3.7c-0.4,2,1,3.8,2.2,5.3c0.4,0.3,0.6,0.7,0.7,1.1c-0.5,0.6-1,0.2-1.5,0
		c-1.7-0.8-2.8-2.4-3.9-3.8c-0.3-0.4-0.6-1.5-1.4-1c-0.7,0.5,0,1.2,0.3,1.8c0.9,2.3,2.8,3.5,4.9,4.5c0.4,0.3,0.9,0.4,1.5,0.4
		c1-0.2,2.1,0.1,2.9,0.7c0.6,0.4,1.3,0.8,1.6-0.4c0.1-0.5,2.6-0.7,3-0.3c0.2,0.2,0.3,0.5,0.3,0.8c0.1,1.2-0.8,2.3-2,2.4
		c-0.2,0-0.5,0-0.7-0.1c-0.3-0.1-0.5-0.2-0.8-0.4c-0.4-0.2-0.8-0.5-1.2,0c-0.3,0.4-0.3,0.9-0.1,1.3c0.8,1.4,1.8,2.5,3,3.5
		c0.7,0.6,1.2,1.4,2.5,0.4c1.3-1,3.8,0,4.9,1.5c2.6,3.5,6.1,6.3,10,8.1c1.6,0.8,3,1.7,4.4,2.8c-1.4,0-2.9-0.4-4-1.2
		c-1-0.8-2.1-1.4-3.3-1.8c-0.3-0.1-0.8-0.2-0.9,0.3c-0.1,0.3,0.1,0.6,0.4,0.7c3.2,1.5,6.2,3.6,9.8,4.1c3.1,0.5,5.9,1.7,9,2.1
		c1.9,0.4,3.8,0.1,5.5-0.8c1.3-0.8,2.8-0.4,4.1-0.1c3.1,0.5,6.2,1.4,9.1,2.7c1.3,0.6,2.6,1,4,1.1c2.3,0.3,4.6,0.3,6.8,0.7
		c0.7,0.1,1.4,0,2-0.3c0.9-0.4,1.8-0.5,2.8-0.6c1-0.1,1.9,0.4,2.2,1.3c0.4,1.5,1.6,1.8,2.9,2c1.7,0.3,3.3,0.8,4.8,1.6
		c1.4,0.7,2.4,2,2.8,3.5c0.3,0.4,0.2,0.9-0.2,1.2c-0.2,0.2-0.5,0.2-0.8,0.1c-0.8,0-1.6-0.1-2.4-0.2c-0.9-0.4-1.9-0.5-2.9-0.5
		c0.9,0.6,1.9,0.7,2.9,0.4c0.6,1.2,1.7,1.3,2.8,1.3c0.4,0,0.7,0,1.1-0.2c1-0.8,2.1,1.6,3.1,0c0.7-1.2,1.9-1,2.9-1.1
		c0.2-0.1,0.4-0.3,0.6-0.6c0.7-0.2,1.3-1,2,0.2c0.2,0.3,1.4,0.1,2.1,0c3.4-0.3,6.3,1.2,9.2,2.7c0.8,0.4,1.4,1.1,1.7,2
		c0.5,0.6,0.6,1.4,0.3,2.1c-0.4,0.7-1.2,0.2-1.8,0.1c-3.8-0.4-7.6,0.1-11,1.6c-1.3,0.5-2.6,1.1-3.7,1.9c-1,0.7-2.3,0.7-3.4,0
		c-1.2-0.9-2.6-1.4-4.1-1.3c-0.6,0-1.2-0.4-1.3-1c-0.3-0.7-0.9-1.2-1.6-1.4c-2.6-0.8-5.3-1.4-8-1.6c-2-0.2-2,0-2.2,2
		c-0.3,2-0.9,3.9-0.9,5.9c0.1,0.6-0.2,1.3-0.9,1.4c-0.3,0.1-0.6,0-0.9-0.2c-1.8-0.7-3.7-1.5-4.1-3.6c-0.7-3.4-3.3-5.1-5.7-7
		c-1.3-1-2.9-1.4-4.4-2c-0.6-0.2-1.3-0.2-2,0c-2.4,0.4-4.6,1.6-6.8,2.2c-0.5,0.2-0.9,0.6-1.2,1c-0.5,0.6-1.5,0.7-2.1,0.1
		c-0.1-0.1-0.2-0.2-0.3-0.3c-1.2-1.2-1.9-2.9-2.1-4.6c-0.2-1.4-1.3-2.1-2-3.1c-0.4-0.4-1-0.4-1.4,0c-1.1,0.5-2.2,0.8-3.4,0.7
		c-0.8,0.1-1.6-0.3-2.2-0.9c-0.2-0.3-0.5-0.6-0.9-0.6c-1.1,0.2-2.3-0.5-2.6-1.6c-0.1-0.2-0.3-0.4-0.5-0.4c-2.6,0-4.7-2.5-7.6-1.2
		c-0.9,0.5-1.9,0.2-2.4-0.7c-0.1-0.1-0.1-0.2-0.1-0.3c-0.3-0.5-0.8-0.9-1.4-0.8c-1.6-0.2-2.9-1.2-3.6-2.7c-1.1-2.4-3.4-4-6-4.4
		c-1.6-0.2-2.4-1-2.4-2.7c0-2-1.4-2.6-2.5-3.6c-0.4-0.4-1,0-1.5,0c-0.9,0-1.8,0-2.2-1.1c-0.5-0.8-0.2-1.8,0.6-2.4
		c0.4-0.1,0.6-0.5,0.6-0.8c-0.1-0.6-0.7-0.4-1.1-0.4c-1.7,0.1-2.4-1.1-2.7-2.4c-0.1-0.7-0.7-1.3-1.4-1.3c-2.6-0.5-4.6-2.7-5-5.3
		c-0.3-5.3-2.4-9.8-4.7-14.4c-2.1-4.1-4.1-8.3-5.9-12.7c-2.2-5.4-4.6-10.8-7.1-16c-2-3.9-3.6-8-5.4-11.9c-1.3-2.7-2.9-5.3-4.5-7.8
		c-1.7-2.6-3.7-5-5.4-7.5c-0.2-0.5-0.7-0.7-1.2-0.7c-2.6,0.2-5.1-0.8-6.7-2.8c-0.4-0.5-1.1-0.8-1.7-0.8c-0.5,0.1-1.1,0-1.5-0.3
		c-2.1-2-5-1.6-7.5-2.6c-1.5-0.6-3.3-1-4.6,0.8c-0.5,0.7-1.5,0.8-2.2,0.4c-1.1-0.5-2.3-0.6-3.5-0.4c-1.9,0.2-3.8,0.1-5.7-0.4
		c-3.3-0.7-6.7-1-10.1-1c-1.6,0.1-3.2,0.7-4.6,1.5c-4.1,1.9-7.8,4.5-11,7.7c-2,2-4.2,3.4-7.2,3.2c-1.5-0.2-2.9-1-3.9-2.2
		c-0.5-0.6-0.6-1.4-0.3-2.1c0.2-1.2,0.7-2.4,1.4-3.5c0.9-1.5,1.9-3,3.1-4.3c-2.3-2-5.8-1.8-7.8,0.4c-2.8,2.7-4.6,6.1-6.7,9.4
		c-0.3,0.7-0.4,1.4-0.3,2.2c0.2,1.2,0.2,2.4,0.1,3.5c-0.3,1.2-0.9,1.6-1.9,0.9c-2.1-1.5-4.5-2.5-6.5-4.1c-4.4-3.8-6.9-8-5.4-14.4
		c0.6-2.1,1.4-4.2,2.5-6.1c0.2-0.5,0.8-1,0.3-1.6c-0.7,0-1,0.6-1.5,0.8c-0.3,0.2-0.6,0.3-1,0.3c-1.6-1.1-3.1-0.1-4.6,0.1
		c-1.5,0.3-2.9,0.3-4.4,0c-0.9-0.2-1.9,0-2.6,0.7c-2,1.7-4.3,2.9-6.1,4.8c-0.1,0.2-0.3,0.3-0.5,0.4c-0.8,0.5-1.8,0.3-2.3-0.4
		c0,0,0,0,0,0c-0.6-0.6-0.6-1.5,0-2.1c0.1-0.1,0.2-0.2,0.3-0.2c1.2-1,2.4-2,3.6-2.9c0.5-0.3,0.9-0.8,1.1-1.4
		c-1.2-0.9-2.3-1.7-3.5-2.6c-0.5-0.4-1.2-0.4-1.6,0c-4.7,2.9-9.8,5.1-14.4,8.3c-0.2,0.2-0.5,0.3-0.8,0.4c-2.6,0.8-3.8,2.7-4,5.4
		c-0.2,1.7-0.8,3.3-1.6,4.8c-0.6,1.4-1.3,2.8-1.9,4.2c-0.9,2.3-3,3.6-5,4.8c-0.8,0.4-1.7,0.3-2.3-0.2c-2-1.2-4.2-2.1-5.9-3.8
		c-0.2-0.3-0.5-0.5-0.8-0.7c-0.9-0.4-1.5-1.4-2.5-1.3c-1,0.1-1,1.4-1.5,2c-0.7,0.9-1.3,1.8-2,2.7c-0.7,1.1-1.8,1.8-3,2
		c-1.6,0-2.9,1.2-3.1,2.8c-0.6,2.9-3,5.1-6,5.5c-1.3,0.3-2.7,0.1-3.9-0.5c-3-1.4-5.6-3.5-7.7-6.1c-1.4-1.8-3-3.5-4.6-5
		c-1.6-1.6-3.7-2.4-6-2.4c-3,0-5.9-0.5-8.7-1.3c-0.6-0.2-1.3-0.4-2-0.5c-0.6-0.2-1.2-0.1-1.6,0.3c-0.3,0.5,0.1,1,0.4,1.4
		c0.4,0.6,0.6,1.2,0.6,1.9c0,0.5,0.2,0.9,0.5,1.2c1.3,0.8,1.8,2.3,2.5,3.6c0.6,1.2,1.4,2.3,2.3,3.2c1.4,1.3,2,3.4,1.5,5.3
		c-0.5,2.1-2,3-3.9,3.5c-1.1,0.3-2.2,0.4-3.2,0.7c-1.2,0.4-1.3,0.8-0.6,2c0.1,0.2,0.3,0.4,0.4,0.5c1.4,2.1,1.1,3-1.4,3.8
		c-2.3,0.8-4.8,1.1-7.2,0.7c-1-0.2-1.3,0.3-0.9,1.1c0.6,1.1,0.6,2.5,0.1,3.6c-1.1,3.1-2.5,6-5.6,7.6c-1.8,0.9-2.8,2.7-2.7,4.7
		c0.1,2.2-0.4,4.4-1.5,6.3c-1.3,2.5-2.2,5.2-2.5,8c-0.1,1.3-0.5,2.6-1,3.8c-0.7,1.3-0.7,2.9,0.1,4.3c0.5,0.8,0.4,1.9-0.3,2.6
		c-1.4,1.8-1.3,2.2,0.7,3.4c0.2,0.2,0.5,0.3,0.8,0.4c2,0.6,2.9,1.9,2.4,4.1c-0.3,0.6,0,1.3,0.6,1.6c0.2,0.1,0.4,0.1,0.6,0.1
		c1.1,0.3,1.7,1.4,1.5,2.5c-0.3,2.4,0.9,3.9,2.9,5c1.2,0.5,2,1.6,2.2,2.8c0.2,1.2,1.3,2,2.2,2.7c1.5,1.4,2.6,3.2,3.2,5.2
		c0.7,1.6,0.8,3.3,0.5,5c-0.1,0.6-0.2,1.3-0.2,2c0,1-0.4,2-1.1,2.8c-0.5-0.6-0.8-1.4-0.8-2.2c-0.5-4.2-3.2-6.8-6.5-9
		c-1.1-0.7-1.8-0.2-1.5,1c0.9,4.1,1.3,8.3,3.5,12c0.4,0.8,1.2,1.3,2.1,1.4c5.4,0.7,9.4,3.7,13,7.4c5.1,5.1,7.4,11.6,8.1,18.7
		c0.1,0.8,0.4,1.8-0.6,2.1c-1.1,0.4-1.8-0.5-2.3-1.3c-0.3-0.5-0.5-1.1-0.7-1.6c-1.4-3.7-3.9-6.9-7.2-9.1c-0.3-0.2-0.6-0.4-0.9-0.6
		c-0.5-0.2-1.1-0.8-1.6-0.3c-0.5,0.5,0,1,0.1,1.4c0.7,2.6,2,4.9,2.9,7.4c0.3,0.8,0.9,1.4,1.8,1.6c2.2,0.5,4.1,1.7,5.5,3.5
		c0.6,0.7,1.3,1.4,2,2.1c-0.3,0.3-0.8,0.6-0.4,1c0.5,0.7,1.5,0.8,2.6,0.3c-0.8-0.4-1.7-0.5-2.2-1.3c0.9,0.3,1.9,0.3,2.8,0
		c1.3-0.6,1.9-0.3,2.7,1c0.4,0.7,1.1,1.2,1.9,1.3c2.3,0.7,4.5,1.8,6.5,3.2c0.9,0.6,1.2,1.7,2.1,2.9c-3.9-1.8-7.6-1.6-11.2-2.4
		c-3.7-0.7-7.3-1.6-10.9-2.7c-1-0.3-2-0.5-3-0.5c-0.9,0.1-1.8-0.1-2.6-0.3c-0.6-0.1-1.1-0.6-1-1.2c0.1-1.2-0.7-1.7-1.4-2.3
		c-0.7-0.6-1.5-1.2-2.2-1.8c-1.1-0.9-1.9-2.1-2.2-3.5c-0.2-0.6-0.4-1.1-0.6-1.7c-0.2-0.5-0.7-0.8-1.3-0.7c-0.8,0.1-0.8,0.8-0.9,1.3
		c0,0.6,0.2,1.2,0.5,1.7c0.7,2.2,1.8,4.2,1.6,6.6c-0.1,1-0.3,2-0.4,3c-0.7,0.2-0.8-0.3-1-0.7c-1.9-4.2-5.7-5.5-9.7-6.7
		c-1.4-0.4-2.9-0.4-4-1.6c-0.6-0.4-1.3-0.5-2-0.3c-0.7,0.1-1.4,0.3-2.2,0.3c-0.7,0.2-1.4-0.1-1.7-0.8c-0.7-1.7-2.1-2.9-3.9-3.1
		c-0.4,0-0.7-0.2-1-0.5c0.1-1.6-1.3-1.7-2.1-2.4c-0.6-0.5-0.9-1.4-0.6-2.2c0.4-1-0.1-1.5-0.9-2s-1.6-1.1-2.4-1.6
		c-0.8-0.5-1.4-1.1-0.8-2.2c0.3-0.6-0.2-1-0.4-1.3c-1.3-1.7-1.3-4-0.2-5.8c0.5-0.7,0.4-1.8-0.3-2.4c-0.4-0.4-0.7-0.9-1.1-1.4
		c-0.5-0.5-0.6-1.3-0.2-1.8c0.5-0.5,0.5-1.3,0-1.7c-0.1-0.1-0.2-0.2-0.3-0.2c-1.1-0.8-1.1-2-0.3-3.2s2-2.6,1.8-4.4
		c0.1-0.4,0.3-0.8,0.6-1.1c1.7-2.1,2.4-4.9,1.8-7.6c-0.7-0.2-1.1,0.3-1.6,0.6c-2.1,1.3-4.3,2.4-6.5,3.2c-2.2,0.9-4.5,0.6-6.7,0.1
		c-0.7-0.1-1.3-0.5-1.7-1c-0.8-0.6-1-1.7-0.7-2.6c0.4-1,1-1.7,2.1-1.6c3.2,0.4,5.2-2.3,7.9-3.1c0.1,0,0.3-0.1,0.3-0.3
		c1.2-2.3,3.5-4,4.4-6.6c0.2-0.6,0.5-1.2,0.9-1.8c1.4-1.9,1.7-4.4,0.8-6.5c-0.9-2.4-1.6-4.8-2.2-7.2c-0.5-1.3-1.1-2.6-1.8-3.8
		c-0.4-0.8-1.3-1.3-2.2-1c-1.7,0.3-2.9,1.4-4.3,2.2c-4,2.8-7.7,6-11,9.6c-0.7,0.9-1.1,2.1-1.1,3.3c0,1.1-0.7,2.1-1.7,2.4
		c-8.2,3.6-15.1,9.2-21.6,15.2c-1.2,1.2-2.5,2.3-3.9,3.2c-1,0.6-1.8,1.6-2.1,2.7c-0.5,1.5-1.8,2.6-3.3,2.9c-0.8,0.2-1.6,0.6-2.3,1.2
		c-2.4,1.7-5.1,3.1-7.8,4.2c-3.1,1.5-6.4,2.7-9.7,3.7c-0.5,0.2-1.1,0.3-1.7,0.2c-0.8-0.1-1.3-0.8-1.2-1.6c0-0.3,0.2-0.6,0.4-0.8
		c0.5-0.8,1.2-1.5,2.1-2c2.4-1.6,4.8-3.1,7.4-4.5c1.6-0.9,3.2-1.9,4.7-2.9c0.7-0.4,1.1-1.2,1-2.1c-0.1-1,0.4-1.4,1.4-1.6
		c2.2-0.5,4.5-1,6.2-2.6c0.3-0.1,0.5-0.3,0.7-0.5c0.9-1.7,2.6-2.3,4.1-3.3c0.5-0.2,1-0.7,1.3-1.2c0.5-0.9,1.3-1.6,2.3-2
		c1.2-0.5,2.3-1.5,2.8-2.7c0.2-0.5,0.5-0.9,1-1.2c2.2-1.2,3.9-3.1,6.2-4.2c0.7-0.3,1.3-1,1.7-1.7c0.4-0.9,1.1-1.6,2-2
		c0.6-0.1,1-0.7,0.9-1.3c0-0.2-0.1-0.3-0.2-0.4c-0.6-1.2,0-2,0.8-2.7l0,0c0.1,0.6,0.7,0.9,1.2,0.8c0,0,0.1,0,0.1,0
		c0.3-0.1,0.6-0.1,0.9-0.3c2.6-1.4,5.5-2.4,7.4-5c0.7-1,1.6-1.9,2.6-2.7c1.5-1.2,2.4-2.8,3.7-4.1c0.4-0.4,0.6-0.9,0.6-1.4
		c-0.1-2,1.3-3.8,3.2-4.3c1.1-0.2,2.1-0.8,2.7-1.8c0.6-0.8,1.4-1.4,2.3-1.7c0.7-0.3,1.5-0.5,1.8-1.2c1.1-2.4,3.4-3.6,5.3-5.2
		c1.9-1.6,3.9-3.1,5-5.5c0.5-1.1,1.3-2.6,3.1-2.5c0.6-0.1,1.1-0.4,1.4-1c0.5-0.8,1.2-1.5,2-2c0.3-0.3,0.6-0.6,0.8-1
		c0.5-1,0.3-1.3-1.2-1.3v0c0.2-0.4,0.1-0.9-0.1-1.3c-0.6,0.4-1.1,1-1.3,1.7l0,0c-2.3,1.6-3.7,4-5.6,5.9c-2.9,3-5.5,6.4-9,8.8
		c-0.5,0.4-0.9,0.8-1.2,1.3c-0.6,1-1.6,1.8-2.7,2.2c-0.6,0.2-1,0.6-1.4,1c-1.4,1.5-3.3,2.5-5.4,2.9c-0.8,0-1.5,0.6-1.5,1.4
		c0,0.1,0,0.2,0,0.3c0,0.7-0.2,1.3-0.6,1.9c-0.2,0.4-0.5,0.8,0,1.2s0.8,0.6,0,0.8c-0.4,0.1-0.9,0.2-1-0.5c0-0.2,0.1-0.4,0-0.7
		c-0.1-0.9-0.7-0.8-1-0.3c-1.6,2.1-3.6,3.9-5.9,5.3c-0.9,0.6-1.5,1.4-2,2.4c-0.8,1.9-2.3,3.3-4.2,4.1c-1.9,0.9-3.6,2.1-5,3.6
		c-2.6,2.7-5.6,4.8-8.1,7.5c-0.9,0.9-1.7,1.9-2.4,2.9c-1.2,2.3-3.3,3.4-5.7,4.2c-0.7,0.2-1.4,0.6-2,1c-4.1,2.6-8.3,4.8-12.7,6.8
		c-1.1,0.5-2.2,0.8-3.3,1.1c-0.4,0.2-0.9,0.1-1.2-0.2c-0.4-0.5,0-1,0.3-1.4c0.2-0.3,0.5-0.6,0.8-0.8c3.2-3.4,6.8-6.3,10.8-8.7
		c1.1-0.8,2.1-1.6,3-2.6c-0.2,0.3-0.2,0.7,0.1,0.7c1.3-0.1,2.4-0.7,3.2-1.6c0.4-0.4,0.5-1.1,0.1-1.6c0.1-0.2,0.3-0.3,0.5-0.4
		c2.7-0.8,4.5-2.7,6.4-4.6l0,0l0.8-1.2c0.2,0.2,0.5,0.2,0.7,0c0,0,0.1-0.1,0.1-0.1c0-0.1,0-0.1,0-0.2c-0.2,0.1-0.4,0.1-0.5,0.2
		c-0.1,0-0.1,0.1-0.1,0.2c0.4-1.1,1.2-2,2.3-2.6c0.1-0.2,0.3-0.3,0.6-0.3c1.6,1,2.2-0.5,3-1.3c1.7-1.5,3.1-3.1,4.3-5
		c1-1.6,2.2-3.4,4.3-3.9c1-0.2,1.3-1.2,1.9-1.8c1.3-1.4,2.9-2.7,3.1-4.9c0.1-0.6,0.4-1.1,0.9-1.5c0.8-0.8,1.7-1.5,2.8-2.4
		c-0.4,1.4-1.7,1.5-2,2.6c2.3,0.9,5.1-0.6,5.5-2.9c0.2-1.4,0.9-2.8,2-3.8c2.5-2.7,5.5-4.7,8.2-7.1c3.5-3,7-5.9,10.2-9.1
		c1.3-1.2,2.8-2.2,4.4-3c2.8-1.4,5.1-3.4,7.7-5.2c0.3-0.2,0.4-0.6,0.3-0.9c-1.4-0.3-3-0.1-4.2,0.7c-2.6,2.5-5.4,4.8-8.4,6.8
		c-2.7,2-5.3,4.3-7.5,6.8c-1.9,1.8-4,3.5-6.3,4.9c-0.7,0.5-1.1,0.2-1.1-0.6c0-0.1,0-0.2,0-0.2c1-2.9-0.2-5.5-1.3-8.1
		c-0.7-1.9-0.9-4-0.8-6.1c0-1-0.2-1.3-1.1-1.4c-0.8-0.1-1.6-0.2-2.4-0.5c-1.4-0.4-2.3-1.8-2.1-3.2c0.1-1.2,0.1-2.5,1-3.5
		c0.3-0.5,0.4-1.1,0.4-1.7c0.7-3.2,0.9-6.6,3.5-9.2c0.5-0.6,1-1.1,1.6-1.5c1.2-0.8,2-2,2.3-3.4c0.3-1.5,1-2.9,2.1-4.1
		c0.7-0.8,1.3-1.8,1.5-2.9c0.4-1.5,0.2-1.8-1.3-2.2c-4.1-1-8.2-2-12.3-2.9c-2.7-0.6-5.4-1.4-8.1-2.3c-4.6-1.5-9.5-1.5-14.1,0
		c-0.9,0.3-1.9,0.4-2.8,0.3c-1-0.1-1.6,0-1.9,1.2c-0.2,1.2-1.3,2.1-2.5,2.1c-0.4-0.1-0.9,0.1-1.1,0.5c-0.4,1.5-1.6,1.4-2.8,1.5
		c-3.8,0.6-7.5,1.7-11,3.3c-0.7,0.3-1.3,0.6-2,0.9c-3.2,1.2-6.2,2.8-8.8,5c-5.4,4.2-11.1,8.1-17,11.6c-3.1,2-6.2,4-9.3,6.1
		c-2.7,1.9-5.1,4.1-7.2,6.5c-1.1,1.2-2.4,2.2-3.9,2.9c-0.7,0.3-1.5,0.7-2.1,1.2c-0.9,0.5-1.3,1.6-0.8,2.5c0.1,0.3,0.4,0.5,0.6,0.7
		c1.9,1.8,3.1,4.2,3.3,6.8c1.2,7.8-2,15.6-8.3,20.3c-3.8,3.3-8.4,3.2-13,3.4c-0.4,0-0.7-0.1-1.1-0.2c-0.3-0.1-0.5-0.3-0.6-0.6
		c0-0.3,0.2-0.6,0.5-0.6c0.8-0.2,1.6-0.4,2.4-0.6c4.1-0.6,7.5-3.6,8.7-7.6c0.6-2,1.1-4,1.4-6c0.1-1.4,0-2.8-0.4-4.1
		c-0.3-1.2-1.4-1.8-2.6-2.2c-0.4-0.2-0.9-0.1-1.3-0.2c-1.8-0.5-3.3-1.3-3.3-3.7c-4.4,1.2-8.4,3.5-11.6,6.7c-1.4,1.7-3.7,2.5-5.9,2.2
		c-3.7-0.6-7.5-0.5-11.2,0.2c-0.9,0.1-1.9,0.4-2.7,0.9c-1.6,1.1-3.7,1.3-5.5,0.5c-0.2-0.1-0.4-0.2-0.6-0.3c-2.7,0.1-4.3-1.8-5.9-3.4
		c-2-1.8-4.1-3.4-6.8-3.8c-2.2-0.3-4-1.1-4.3-3.6c-2.2,1-2.7,0.8-3.6-1.5c-1.9-4.8-2.6-10.1-2.1-15.2c0.1-1.3,0.6-2.6,1.5-3.6
		c0.6,1.1,0.9,2.4,0.9,3.6c0.2,2,0.7,3.9,1.5,5.8c0.3,0.9,0.9,1.7,1.7,2.3c0.8,0.6,1.8,0.7,2.7,0.4c0.7-0.2,1.4,0.2,1.6,0.9
		c0.4,0.6,0.6,1.2,0.8,1.8c0.1,0.8,0.6,1.6,1.4,1.9c1.2,0.6,2.1,1.8,2.2,3.1c0.2,1.1,1,2,2.1,2.3c1.5,0.5,3.1,0.6,4.6,0.4
		c1.7-0.3,3.2-0.5,4.6,1.2c1.1,1.4,5.1,1.2,6.7,0.2c0.6-0.4,0.7-0.9,0.1-1.2c-2.2-1.5-4.3-3.4-7.1-3.1c-2.5,0.3-3.8-1.5-5.5-2.7
		c-0.5-0.4-0.7-1-0.6-1.6c0.4-2.7-1.2-4.3-3.1-5.7c-1-0.8-2.1-1.4-2.2-2.9c-0.1-0.5-0.4-0.8-0.9-0.9c-1.3-0.6-2.1-2-2-3.4
		c0-1.6,0-3.3,0.2-4.9c0.4-3.2,1.7-6.2,3.8-8.6c0.8-1.2,2.1-1.8,3.6-1.7c0.2,0.4,0.2,0.9-0.1,1.2c-0.9,2.9-0.8,5.8,1.1,8.2
		c1.3,1.5,1.7,3.5,1,5.4c-0.4,0.8-0.1,1.8,0.6,2.3c0.3,0.3,0.6,0.7,0.7,1.1c0.6,2.4,2.8,4,3.1,6.6c0.2,0.4,0.5,0.8,1,0.9
		c0.6,0.3,1.1,0.7,1.5,1.3c0.5,0.9,1.6,1.2,2.4,0.7c0.1,0,0.2-0.1,0.2-0.2c0.7-0.5,1.6-0.5,2.3-0.1c0.3,0.2,0.7,0.2,1,0.1
		c1.3-1.1,2.3-0.2,3.3,0.6c0.8,0.6,1.8,1,2.8,1.2c1.9,0.3,2.5,0,3.4-1.6c0.9-1.5,2.4-2.5,4.1-2.8c0.9-0.1,1.8-0.4,2.7-0.9
		c1.2-0.6,2.7-0.6,3.8,0.2c0.4,0.2,0.7,0.5,1.1,0.7c0.7,0.5,1.6,0.5,2.3,0c0.8-0.5,1.1-1.5,0.6-2.3c0,0,0,0,0,0
		c-0.2-0.5-0.2-1,0.1-1.4c0.4-0.8,0.6-1.7,0.5-2.6c-0.1-1.5,0.1-1.6,1.6-1.7c1.7-0.2,1.7-0.2,1.8-1.8c0-0.4,0-0.7,0.1-1.1
		c0.3-1.4,1.1-1.8,2.4-1.2c0.5,0.3,1,0.6,1.6,0.8c1.4,0.6,3,0.4,4.1-0.7c1.1-1.2,2.3-2.3,3.7-3.1c0.7-0.5,1.3-1.3,1.4-2.2
		c0.5-1.9,1.7-2.6,3.5-2.8c1.5-0.2,3.1-0.4,4.6-0.5c1.7,0,2.5-1.3,3.5-2.5c0.2-0.2,0.2-0.6,0-0.8c-0.1-0.1-0.3-0.2-0.5-0.1
		c-1.7,0.6-3.3-0.6-5-0.3c-1.1,0.1-2.2,0.6-2.9,1.4c-0.7,0.9-1.8,1.4-2.9,1.3c-3.1-0.2-6.1-0.9-9-2.2c-0.6-0.2-1.1-0.7-1.2-1.3
		c0.5-0.6,1.3-0.3,2-0.4s1.6,0.1,2.4-0.1c1-0.2,1.8-0.4,1.8-1.8S78.2,264.7,79.2,265.1c-0.9,0.4-1.3,1.3-1,2.2
		c0,0.1,0.1,0.2,0.1,0.2C79,267,79.4,266,79.2,265.1z M330,132.1c0.6,0.1,1.2,0,1.7-0.3C331.1,131.6,330.5,131.8,330,132.1
		c-0.5-0.1-1,0-1.4,0.3C329.1,132.5,329.6,132.4,330,132.1L330,132.1z M480.9,322.3c0,0.4-0.2,1,0.5,1.3
		C481.6,322.9,481.1,322.7,480.9,322.3c-0.4-0.6-0.4-1.4-1.3-1.9C479.7,321.3,480.1,322,480.9,322.3z M599.7,187.5
		c0.8,0.4,1.5,0,2.6-0.7C600.9,186.7,600,186,599.7,187.5c-0.8,0.2-1.7,0.6-2.3,1.2C598.6,188.7,599.3,188.4,599.7,187.5z
		 M227,399.9c-0.2,0.6,0.1,1.3,0.7,1.5C227.8,400.9,227.5,400.3,227,399.9c0-0.1-0.1-0.2-0.1-0.4c-0.2-0.6-0.4-1.3-1.2-1.3
		c-0.1,0.1-0.2,0.2-0.2,0.3c-0.1,0.7,0.4,1.3,1.1,1.3c0.1,0,0.2,0,0.3,0L227,399.9L227,399.9z M59.7,298.8c2.1-0.3,3.2-1,3.9-2.7
		C62.2,297.2,60.6,297.5,59.7,298.8c-0.1,0.1-0.3,0.2-0.5,0.3c-0.3,0.1-0.4,0.4-0.3,0.7c0,0,0,0,0,0c0,0.1,0.1,0.1,0.2,0.1
		c0.3,0,0.6-0.2,0.6-0.5c0,0,0,0,0,0C59.6,299.2,59.6,299,59.7,298.8z M186.6,91.3c-0.9-0.1-1.8-0.1-2.2,0.9
		c-0.3,0.8,0.2,1.3,0.9,1.8C186,93.3,186.5,92.3,186.6,91.3c0.1-0.2,0.3-0.3,0.5-0.4c0.1-0.2,0.2-0.3,0.2-0.5
		c-0.4-0.2-0.5,0.1-0.6,0.3C186.7,90.9,186.6,91.1,186.6,91.3z M382.2,148.5c0.7,0.7,1.8,0.9,2.7,0.5
		C384.1,148.6,383.1,148.4,382.2,148.5c-0.7-0.7-1.7-0.6-2.5-0.8c-2.3-0.6-4.7-1.1-7.1-1.7c-0.4-0.3-1-0.2-1.3,0.2
		c0.9,0.4,1.8,0.7,2.7,1C376.7,147.9,379.3,148.8,382.2,148.5z M541.5,174.2c1.1,0.2,2.2-0.1,3.2-0.6c0.5-0.3,1.3-0.4,1.2-1.1
		s-1-0.8-1.5-1c-0.5-0.3-1.1-0.1-1.3,0.4c0,0,0,0,0,0C542.5,172.6,541.7,173.2,541.5,174.2c-1,0.7-2.2,1.2-2.8,2.3
		C539.8,175.9,541.1,175.5,541.5,174.2z M700.4,195.5c0.3,1.9,1.5,0.9,2.3,0.6c0.8-0.2,2.4-0.3,2.4-1.2c0-1.1-1.5-0.9-2.3-1.5
		C702.3,195.3,702.3,195.3,700.4,195.5c-0.2-0.4-0.2-1,0-1.5c0.6-1.7,0.6-1.6-0.8-2.5c-3.4-2.2-7.2-3.6-10.8-5.6
		c-1-0.5-2.1-1.4-3.4-1.3c-0.1,0.3,0,0.6,0.2,0.7c2.5,1.1,4.3,3,6.6,4.4c1.4,0.8,2.5,2,3.1,3.5c0.7,2.2,2,2.4,3.8,2.2
		C699.5,195.5,700,195.5,700.4,195.5L700.4,195.5z M303.1,219.9c-0.9,0.4-1.8,1-2.5,1.8c-5.3,3.7-10.5,7.4-15.8,11
		c-1.1,0.7-2.2,1.2-3.4,1.7c-0.8,0.3-1.7-0.1-2.1-0.9c-0.6-0.8,0.2-1.2,0.7-1.6c1.3-1.1,2.7-2,4.2-2.9c6-4.1,11.9-8.5,17.5-13.1
		c0.7-0.5,1-1.3,1-2.1c-0.2-2.8-0.5-5.6-0.7-8.4c0.1-0.6-0.3-1.2-0.8-1.4c-0.6-0.1-1.2,0.1-1.5,0.7c-0.9,0.8-1.8,1.6-2.7,2.3
		c-2.5,2.1-5.1,4-7.5,6.2c-3.3,2.9-7.1,5.3-10.5,8c-0.4,0.3-0.9,0.5-1.4,0.7c-1.5,0.7-2.9,0.6-3.2-0.2c-0.4-0.8,0.3-2,1.5-2.7
		c2.8-1.9,5.8-3.5,8.3-5.9c0.3-0.2,0.6-0.4,1-0.6c1.5-0.9,2.9-2,4.2-3.2c1.5-1.7,3-3.2,4.7-4.7c0.4-0.2,0.6-0.7,0.4-1.1
		c-4,0.1-8-0.5-12-1c-0.7,0-1.3,0.1-2,0.4c-1.4,0.7-2.7,1.5-3.9,2.4c-2.6,1.6-5.4,3.1-8.1,4.5c-0.6,0.4-1.3,0.5-2,0.3
		c-0.5,0-0.9-0.3-1-0.8c0-0.4,0.3-0.7,0.7-0.7c2.4-1.2,4.6-2.6,6.6-4.4c0.8-0.4,1.5-1.1,2-1.9c-0.5-0.8-1.2-0.5-1.9-0.5
		c-4.3-0.1-8.6,0.5-12.8-0.9c-0.2-0.1-0.4-0.1-0.7-0.1c-2.4,0-4.7,0-7.1,0.1c-3.1,0.2-6.2,0.7-9.1,1.5c-2.1,0.6-2.5,0.7-1.5,2.9
		c0.1,0.3,0.2,0.7,0.3,1.1c0.7,2.9,0.5,3.5-2.1,5.1c-1.2,0.7-2.2,1.8-2.7,3.1c-1.9,4.5-3.4,9.3-4.5,14.1c-0.5,2-0.6,4.1-0.3,6.1
		c0.5,2.5,0.5,5.2-0.1,7.7c-0.5,1.9,0.5,4,2.4,4.6c1.2,0.5,2.6,0.7,3.9,0.4c0.6-0.1,1.2-0.2,1.8-0.1c3.4,0.5,6.9,1,10.3,1.4
		c1.4,0.3,2.9,0.4,4.4,0.4c5.3-0.5,10.5-1.4,15.7-2.7c1.8-0.4,3.5-1.3,4.8-2.6c0.6-0.6,1.2-1.1,2-1.4c1.7-0.9,3.8-0.4,4.9,1.2
		c0.9,1.4,1.3,1.6,2.8,0.9c1.1-0.5,2.2-0.9,3.3-1.2c1.4-0.3,2.6-1.1,3.6-2.1c1.8-1.8,3.7-3.6,4.6-6.1c0.3-0.8,0.8-1.6,1.3-2.3
		c1.2-1.8,2.3-3.6,3.2-5.6C302.5,225.3,303.5,222.9,303.1,219.9L303.1,219.9z M280.2,190.1c0.6-0.2,1.2-0.6,1.5-1.1
		c0.6-1,1.4-1.9,2.3-2.6c2.3-2.1,4.6-4.2,6.8-6.3c0.5-0.5,1.2-1,1-1.8c-0.4-1.4-0.7-2.9-1.3-4.2s-1-1.5-2.1-0.5
		c-2,1.8-3.9,3.6-5.9,5.4c-1,1-2.2,1.8-3.4,2.5c-0.8,0.5-1.7,0.9-2.5,0.1c-0.8-0.7-0.5-1.7-0.1-2.7c0.9-1.7,2.3-3.1,3.9-4.1
		c1.7-1.1,3.2-2.4,4.6-3.8c0.6-0.6,1.6-1,1.8-1.9c0.3-1.2-1.1-1.4-1.6-2.2c-1-1.3-1.8-2.7-2.6-4.1c-0.3-0.6-0.6-1.3-1.5-0.9
		c-0.5,0.2-1.1,0.7-1.6,0c-0.4-0.7,0.2-1.1,0.5-1.6c0.2-0.2,0.3-0.5,0.4-0.8c0.1-0.6-0.2-1.2-0.7-1.5c-0.5-0.4-0.8,0.1-1.1,0.4
		c-1.5,1.6-3.1,3-4.9,4.2c-2.2,1.3-4.3,2.5-6.4,3.9c-2.3,1.5-5,2.5-7.1,4.5c-1.1,1.1-2.4,2-3.8,2.6c-0.6,0.2-1.2,0.6-1.6,1.2
		c-2,3.4-4.4,6.5-5.8,10.2c-0.4,1.4-1.8,2.3-3.2,2c-4.1-0.4-7.7,1.1-11.3,2.5c-0.7,0.3-1.3,0.7-1.8,1.3c-0.3,0.3-0.3,0.8,0.1,1.1
		c0,0,0.1,0,0.1,0.1c0.4,0.3,0.7,0,0.9-0.3c1-1.3,2.2-2,3.9-1.2c0.3,0.1,0.6,0.1,0.9,0c2.3-0.9,4.8-1.4,7.2-2.2
		c2.5-0.8,5.2-1.2,7.8-1.1c4.9,0.3,9.8,1.1,14.7,2.2c0.4,0,0.7,0.1,1,0.4c0.6,1.5,2,1.2,3,1.2c1.8,0,3.5,0.1,5.3,0.3
		c2.6,0.5,5.3,0.6,7.9,0.3c1.4-0.2,2.7,0.6,4.1,0.4c0.7,1.7,2,0.7,3,0.6c1.2-0.2,2.5-0.2,3.7,0.1c0.8,0.3,1.6,0.3,2.4,0
		c0.5-0.5,1.4-0.4,1.8,0.1c0,0,0.1,0.1,0.1,0.1c0.5,0.6,1.2,0.9,2,0.8c3.3-0.5,5.6,1.3,7.5,3.7c0.6,0.9,1.7,1.3,2.7,1
		c0.4-0.2,0.9-0.2,1.3-0.2c1.3,0.1,2.3-1,3.5-0.9c3.8,0.6,7.5,1.3,11,3.1c3.5,1.9,7.5,2.9,11.5,2.8c2.5,0,4.9-0.8,7.5-0.7
		c1,0.2,2.1,0.1,3.1-0.3c-1.9-1.3-3.6,0-5.2-0.1s-3.6,0.2-5.3-0.9c2.6-3,5-6.1,7.7-8.8c2.7-2.8,5-6.1,6.7-9.6
		c-0.8,0-1.2-0.1-1.6-0.1c-4.5,0-8.7,1.3-13,2.4c-2.7,0.7-5.2,1.8-6.7,4.3c-0.3,0.4-0.7,0.8-1,1.1c-1.6,2.1-3.6,3.9-4.6,6.4
		c0.9,1,2.3,1.1,3,2.2c-2.1-1.1-4.5-1.4-6.6-2.4c-0.9-0.4-1.1-0.7-0.6-1.6c1.2-2,2.6-3.7,4.4-5.2c0.6-0.5,1.1-1,0.8-1.8
		c-0.5-1.3,0.1-2.6,1.3-3.2c2.3-1.4,3.7-3.5,5.3-5.5c3.5-4.2,6.6-8.7,9.3-13.5c0.8-1.4,0.7-1.8-0.9-1.9c-2,0-4-0.1-6-0.3
		c-1-0.3-2.1,0.1-2.7,1c-1,1.2-2,2.4-3,3.6c-2.5,2.8-5.2,5.4-7.5,8.4c-2.6,3.6-5.5,6.9-8.6,10.1c-0.6,0.6-1.2,1.3-1.8,2
		c-0.7,0.6-0.8,1.6-0.3,2.4c0.7,1,1,2.2,1,3.4c-3.4-0.9-6.8-0.7-10-2.1c-3.1-1.4-6.4-2.6-10.1-1.8c-0.9,0.3-1.8,0.2-2.6-0.2
		c0.5-0.7,1.1-1.2,1.9-1.6c2.6-2,2.3-2,0.8-4.9c-0.1-0.1-0.2-0.2-0.2-0.4c-0.4-0.7-0.9-0.9-1.5-0.2c-1.8,2-3.7,3.8-5.5,5.8
		c-0.3,0.2-0.5,0.5-0.5,0.9c0.1,0.2,1,0.5-0.1,0.6c-0.2,0-0.4,0.1-0.7,0.1C284.4,190.9,282.3,190.6,280.2,190.1L280.2,190.1z
		 M207,213.2c-0.4-0.7-1-0.4-1.4-0.1c-5.9,3.1-11.7,6.1-17.6,9.2c-1.3,0.7-2.6,1.5-3.8,2.3c-4.1,2.8-6.8,6.8-10.4,10.1
		c-0.5,0.5-0.1,1,0.4,1.2c1,0.3,2,0.4,3,0.7c5.6,1.9,11.5,2.8,16.7,5.7c0.9,0.5,1.5,0.4,1.8-0.7c0.5-1.7,1.3-3.3,2.4-4.7
		c0.8-1.1,1.5-2.4,2-3.7l6.7-19C206.8,213.9,206.9,213.6,207,213.2z M343.7,216.2c-1.6,1.5-2.8,2.7-4.2,3.8c-4.4,3.6-9,7-12.7,11.4
		c-2.2,2.6-4.7,5.1-7.2,7.5c-1.8,1.6-3.7,3.2-5.7,4.6c-1.7,1.2-2.7,3.2-2.7,5.3c-0.2,0.3-0.1,0.7,0.1,1c0.4,0.4,0.8,0,1.2-0.2
		c2.5-2,5.5-3.1,8.2-4.8c1.3-0.8,2.5-1.5,3.7-2.4c0.8-0.6,2-1,2.3-2c0.2-0.9-0.7-1.6-1-2.4c-0.8-2-0.2-3.3,2-3.7
		c1.2-0.2,2.3-0.4,3.5-0.5c4.6-0.4,7.8-3,10.3-6.5C343.5,224,344.1,220.4,343.7,216.2L343.7,216.2z M326.9,149.8
		c-2.1,0.6-3.9,1.1-5.8,1.5c-1.5,0.3-2.9,1.3-3.6,2.7c-1.1,2.3-2.5,4.5-4,6.6c-2.9,3.4-5.4,7.2-8.5,10.5c-2.7,2.9-2.6,3.3,0,6.1
		c1.3,1.4,1.6,1.4,3,0c2.7-2.6,5-5.7,7.8-8.2c0.5-0.3,0.7-0.9,0.6-1.4c-0.7,0-1.4,0.3-2,0.8c-1,0.5-2,0.9-3.1,1.1
		c-0.4,0.1-0.9-0.1-1.2-0.5c-0.1-0.5,0.1-0.9,0.6-1.1c2.5-1.8,4.8-3.7,7.7-4.8c1.1-0.4,2.1-1.2,2.7-2.2c2.1-3.3,4-6.8,5.7-10.3
		C326.9,150.4,326.9,150.1,326.9,149.8z M216.7,168.7c0.8,0.4,1.7,0.3,2.3-0.4c0.9-0.8,1.9-1.6,2.9-2.3c1.6-1.1,2.8-2.7,3.4-4.5
		c1.2-2.9,2.2-6,4.4-8.4c2.2-2.4,4-5.1,5.3-8.1c0.6-1.3,1.2-2.6,3-2.9c-1.4-0.9-1.4-0.9-0.3-1.7c1.3-0.8,2.4-1.9,3.1-3.3
		c0.5-1.2,0.7-1.3,1.8-0.4c0.8,0.6,1,0.2,1.2-0.5c0.2-0.7,0.1-1.5,1-1.8c1-0.1,1.7-1.1,1.6-2.1c0.1-0.6,0.4-1.1,0.9-1.4
		c0.3-0.4,1-0.7,0.7-1.5c-1.7,0.1-3.2,1-4.9,0.7c-0.3,0-0.6,0.1-0.7,0.4c-0.7,2-3.1,3.1-3.2,5.6c0,0.7-0.3,1.9-1.3,1.8
		c-1.4-0.1-2,1-2.6,1.8c-1.3,2-2.8,4-4.4,5.8c-2.6,2.7-4.9,5.5-6.2,9c-0.4,0.8-0.8,1.6-1.4,2.2c-1.7,2.1-2.8,4.5-4.3,6.7
		C218,164.9,218.1,167.1,216.7,168.7z M216.7,394.2c0.8-1.6,2.8-2.1,4.3-1.3c0.1,0,0.1,0.1,0.2,0.1c0.5,0.3,1.1,0.2,1.4-0.3
		c0,0,0.1-0.1,0.1-0.2c-1.5-0.6-2.7-1.2-3.5-2.7c-1-1.8-1.1-3.9-0.4-5.8c0.2-0.5,0.4-1.1,0.6-1.7c0.3-0.8-0.1-1.7-0.9-2.1
		c-0.1,0-0.1,0-0.2,0c-1.2-0.5-2.5-1-3.6-1.6c-1.4-0.5-2.3-2-2.2-3.5c0.1-0.5,0-1-0.2-1.5c-0.4-0.7-0.1-1.7-1-2.1
		c-0.9-0.4-1.1,0.8-1.8,1c-1.1,0.2-2,1.1-2.1,2.3c-0.4,2.3-0.7,4.7-0.8,7c-0.1,0.8,0.3,1.6,1,2.1c1.1,0.8,1.9,1.9,2.2,3.2
		c0.2,0.6,0.4,1.3,0.7,1.8c0.1,0.5,0.7,0.8,1.1,0.6c0.1,0,0.2-0.1,0.3-0.1c1.4-0.6,2.2-0.4,3,0.6c0.6,0.7,1,1.5,1.2,2.3
		C216,393.2,216.2,393.8,216.7,394.2L216.7,394.2z M313.7,224.5c0.6,0,1.2-0.3,1.6-0.9c3.1-3.3,6.8-5.9,10.3-8.8
		c1.4-1.1,1.5-1.1,0.4-2.6c-1.8-2.2-4.2-3.8-6.8-4.8c-0.7-0.3-1.5-0.9-2.3-0.2c-1.3,0.9-2.5,2.1-3.5,3.3c-0.1,0.3,0,0.6,0.1,0.9
		c0.1,1.5,0.3,2.9,0.4,4.4C314,218.7,314,221.6,313.7,224.5L313.7,224.5z M342.3,179.4c0.9,0.3,1.9,0.3,2.8,0.1
		c3.6-0.5,7.1-1.8,10.8-1.8c0.5,0.1,1-0.3,1.1-0.8c0-0.2,0-0.4-0.1-0.6c-0.2-0.6-0.5-1.4,0-2c1.5-1.7,0.8-3.4,0.4-5.2
		c-0.1-1.1-1-2-2.2-2.1c-0.9-0.1-1.7-0.4-2.5-0.8c-1-0.4-1.4-0.2-2,0.7c-1.5,2.3-3,4.5-4.6,6.7C344.6,175.4,343.4,177.4,342.3,179.4
		L342.3,179.4z M442.7,232.8c0,0.5,0,0.8,0,1c0,1.3,0.2,1.4,1.4,1c1.3-0.4,2.3-0.9,3.5-1.4c4.6-1.6,8.7-4.5,11.7-8.4
		c1.1-1.5,1-2.2-0.7-2.8c-3.8-1.3-9.9,0.6-12.1,3.9c-1,1.4-1.9,2.8-2.8,4.2C443,231,442.7,231.9,442.7,232.8z M313.9,237.2
		c7.1-5.6,12.9-12.3,19.4-18.4c-0.5-0.4-1-0.8-1.6-1c-0.8-0.7-2-0.6-2.8,0.1c-5,3.5-9.9,7-13.8,11.6c-0.4,0.3-0.6,0.8-0.7,1.3
		C314.3,233,314.2,235.1,313.9,237.2L313.9,237.2z M483.1,211.2c-5.9,0.1-9.8,3.7-13,8.1c-0.6,0.9-1.3,1.7-2.2,2.3
		c-1.1,0.8-1.2,1.3-0.4,2.3c1,1.3,2.1,1.5,3.6,0.7c2.3-1.2,4.2-2.9,6.5-4.2c2.6-1.5,5.1-2.9,6.5-5.8c0.2-0.3,0.4-0.6,0.7-0.8
		c1.3-1.5,1.2-2-0.7-2.5C483.8,211.3,483.5,211.3,483.1,211.2L483.1,211.2z M328.9,164.4c-2.8,0.3-4.9,0.4-6.2,2.9
		c-0.9,1.7-2,3.3-3.4,4.6c-3.2,2.8-6,6.1-9.1,9c-0.7,0.5-1,1.3-0.8,2.1c0.4,0.9,0.9,1.7,1.5,2.5c0.3,0.4,0.8,0.3,1.1-0.1
		c1.4-1.5,2.9-2.9,4.3-4.5c3-3.6,5.9-7.2,8.8-10.8C326.3,168.4,327.5,166.5,328.9,164.4z M724.5,196.2c-0.7-0.2-1.1-0.2-1.3,0.2
		c-0.1,0.4,0,0.8,0.3,1c1.7,1.8,3.4,3.5,5,5.3c2.4,2.9,5.6,4.4,8.9,5.9c0.7,0.3,1.8,0.8,2.1-0.2c0.4-1-0.8-1.1-1.5-1.4
		c-1.2-0.4-1.3-0.8-0.6-1.7c0.2-0.3,0.5-0.5,0.7-0.8c1.1-1.5,1.1-2.6-0.1-3.9c-1.3-1.5-3.1-2.4-5-2.4c-2.1,0-4.3-0.5-6.2-1.3
		C726,196.5,725.3,196.3,724.5,196.2L724.5,196.2z M212.7,262.7c-0.1-0.5-0.2-1-0.3-1.5c-0.4-1.2-1.2-1.9-2-1.7
		c-1.1,0.3-0.8,1.3-0.8,2c0.3,3.7,0.3,7.4,0.1,11c-0.2,2,0.3,4-0.2,5.9c-0.2,0.5-0.1,1.1,0.3,1.5c1,0.8,1.8,1.7,2.7,2.6
		c0.3,0.4,0.8,0.5,1.2,0.2c0.2-0.1,0.3-0.4,0.3-0.6c0.3-0.8,0.4-1.8,0.7-2.6c1.4-3.4,0.5-6.6-1.1-9.5c-1.1-1.7-1.5-3.8-1.2-5.9
		C212.6,263.8,212.7,263.2,212.7,262.7z M504.1,199.1c-1.8-0.5-3,0.3-4.3,1.1c-1.9,1.3-3.7,2.6-5.6,4c-0.7,0.5-1.8,0.7-1.6,1.9
		c0.2,1.1,1.3,1.3,2.2,1.6c1.4,0.4,2.6,1,2.8,2.7c0.1,0.8,0.7,1,1.2,0.4c2.2-2.2,4.6-4.4,6.1-7.1
		C502.5,201.9,502.5,201.9,504.1,199.1L504.1,199.1z M376.5,233.1c1.6-0.3,3.3-0.3,4.6-1.2c1.9-1.2,3.8-2.2,5.9-2.9
		c1-0.4,1.9-0.9,2.8-1.3c0.5-0.1,0.8-0.7,0.7-1.2c0-0.1-0.1-0.2-0.1-0.3c-1.2-1.8-0.9-4.4-3.2-5.7
		C383.8,224.8,380.1,228.8,376.5,233.1z M327.6,159.9c0.7,0.2,1.4,0.2,2.2,0.2c1.8,0.4,2.9-0.5,3.9-1.8c1.1-1.7,2.2-3.3,3.3-4.9
		c1.1-1.7,1-1.6-0.1-3.4c-0.4-1-1.6-1.6-2.7-1.3c-1.1,0.1-2.1,0.8-2.5,1.9c-0.5,1.4-1.1,2.7-1.7,4.1
		C329.3,156.4,328.1,157.9,327.6,159.9L327.6,159.9z M526.8,188.3c-1.5,0.9-3,2-4.4,3.1c-1.3,1.3-2.5,2.7-3.5,4.2
		c-0.4,0.5-0.8,1.2-1.5,1c-0.7-0.2-1.1-0.8-1.2-1.5c-0.1-0.2-0.1-0.4-0.2-0.6c-0.9-2.3-0.9-2.3-3.3-1.3c-1.3,0.5-2,1.9-1.5,3.2
		c0.1,0.3,0.3,0.6,0.6,0.9c0.6,0.7,1.2,1.1,1,2.2c-0.2,1.1,1.5,1.9,2.2,1.3c3.6-2.7,7.3-5.3,10.1-8.9
		C526.1,191,526.7,189.7,526.8,188.3L526.8,188.3z M300.4,136.5c-0.3,0-0.7,0-1,0.2c-1.8,1-3.6,2.1-5.2,3.3
		c-0.6,0.4-0.2,0.8,0.4,1.1c1.3,0.5,2.8,0.7,3.7,1.8c0.8,0.9,1.3,0.6,2-0.1c0.8-0.8,1.8-1.4,2.9-1.8c2.2-1,4.3-2.2,6.6-3
		c0.3,0,0.6-0.4,0.5-0.7c0-0.1,0-0.1,0-0.2c-0.3-0.8-2.9-2-3.6-1.4C304.9,137,302.5,137.4,300.4,136.5z M301,155.7
		c3.1-2.3,9-10.6,9.8-13.4c-0.2,0-0.4,0-0.6,0c-3.6,0.9-6.3,3.3-9.4,5.2c-0.6,0.4-0.8,1.2-0.5,1.8C300.8,151.4,301,153.6,301,155.7
		L301,155.7z M209.9,324.3c0.8-2.4,1.3-4.7,0.4-6.8c-0.7-2-1-4.2-0.7-6.3c-0.1-1,0.5-1.9,1.4-2.3c1.1-0.6,2-1.5,2.7-2.6
		c1.3-1.8,2.3-3.9,3-6.1c-2.8,2.3-5.5,4.6-8.2,7c-0.9,0.9-1.3,2.2-1,3.5C208.2,315.2,208.5,319.6,209.9,324.3z M425.8,234.2
		c2.6-0.5,5-0.8,7.3-1.3c0.7-0.2,1.2-0.7,1.4-1.3c1-2.4,1-2.4-1.1-4c-0.4-0.3-0.8-0.7-1.2-1c-0.5-0.5-1.3-0.6-1.8-0.2
		c-1,0.7-2.2,1.3-2.7,2.5C426.7,230.5,426.1,232.3,425.8,234.2L425.8,234.2z M504.1,181.7c-0.3-0.2-0.6-0.2-1-0.1
		c-3.8,0.4-7.6,0.4-11.3-1.1c-2.3-1-2.3-0.9-4,1.5c1.2,0.5,2.5,1,3.7,1.3c0.3,0.1,0.7,0.1,1.1,0c1.2-0.7,2.1-0.3,2.9,0.5
		c0.6,0.4,1.3,0.7,2.1,0.7c1.1,0.1,2.1,0.6,2.9,1.3c0.4,0.6,1.2,0.6,1.8,0.2c0.5-0.4,1.3-0.3,1.6-1c-0.2-0.2-0.5-0.3-0.8-0.2
		c-0.5,0.1-1-0.3-1.2-0.8c0-0.4,0.2-0.9,0.6-1.1C503.2,182.7,503.7,182.2,504.1,181.7L504.1,181.7z M382,221l-0.4-0.3
		c-1.5,1.5-2.9,3-4.4,4.6c-2.6,2.8-5,5.7-8.3,7.6c-0.4,0.2-0.7,0.6-0.8,1c-0.4,1.1-1,2.2-2,2.9c-0.7,0.9-1.6,1.8-2.5,2.5
		c-0.2,0.2-0.3,0.5-0.1,0.8c0,0,0,0,0,0c0.2,0.3,0.5,0.3,0.8,0.2c0.7-0.5,1.6-0.9,1.7-1.9c0.2-1.3,1.1-1.7,2.1-2
		c0.8-0.3,1.7-0.3,2.2-1c1.3-2,3.3-3.3,4.7-5.2c1.2-1.6,2.5-3.1,3.8-4.6C380.2,224.2,381.2,222.6,382,221z M311,151.5
		c5.3-2.3,5.3-2.3,7.9-7.1c0.1-0.3,0.3-0.5,0.4-0.8c1-1.8,1-1.8-0.8-2.8c-1.3-0.8-2.2-0.6-2.7,0.9c-1,2.8-2.4,5.4-4.1,7.8
		C311.3,150,310.6,150.5,311,151.5L311,151.5z M302.7,167l0.5,0.2c2.9-3.7,6.7-6.8,8.5-11.3c-0.2-0.3-0.5-0.4-0.8-0.2
		c-2.8,1.5-5.4,3.3-7.6,5.6c-0.5,0.5-0.8,1.2-0.8,2C302.5,164.6,302.6,165.8,302.7,167L302.7,167z M349.1,158.4
		c-1.8-0.4-2.8-1.8-3.8-3.2c-0.3-0.4-0.6-0.9-0.9-1.3c-0.8-0.9-1.3-0.9-1.9,0.1c-0.9,1.4-1.7,2.9-2.7,4.3c-0.6,0.8-0.3,1.4,0.8,1.4
		c1.6,0.1,3.2,0.3,4.8,0.6C347.2,160.7,348.2,160.1,349.1,158.4L349.1,158.4z M404.3,226.7c4,1.4,8.3,1.9,12.6,1.5
		c-1.6-1.5-3.3-2.2-4.1-3.9c-0.4-0.9-1-0.8-1.8-0.4c-1,0.5-2.1,1-3.3,1.3C406.5,225.6,405.3,226.1,404.3,226.7L404.3,226.7z
		 M216.1,100.8c0-0.7-0.6-1.2-1.5-1.6c-1.4-0.6-1.6-0.5-2,0.9c-0.4,1.9-1.1,3.7-2.1,5.3c-0.3,0.6-0.6,1.2-0.8,1.8
		c-0.2,0.6-0.5,1.4,0.3,1.8c0.7,0.4,1.5,0.1,1.9-0.6c0,0,0,0,0,0c1.2-2,2.5-4,3.7-6C215.9,101.9,216.1,101.3,216.1,100.8z
		 M240.9,152c3.8-1,6.4-4.4,6.4-8.3c0-0.6-0.4-1.1-1-1.3c-0.5-0.2-1.1,0-1.3,0.5c0,0,0,0,0,0c-1.4,1.8-2.5,3.8-3.3,6
		C241.3,149.8,240.6,150.8,240.9,152L240.9,152z M381.9,213.6c-1.1-1-1.8-1.8-2.7-2.5c-1.4-1.2-1.6-1.1-2.7,0.4
		c-0.3,0.5-0.5,1.1-0.3,1.6c0.1,1.4,0.1,2.8-0.1,4.2c-0.1,1.3-1,2.4-0.9,3.8C377.7,218.9,378.6,215.5,381.9,213.6L381.9,213.6z
		 M266,152.7c-5.6-0.7-9.1,2.5-10.6,7.2c0.4,0.1,0.9-0.1,1.1-0.5c1.3-1.2,2.6-2.4,4.6-2.2c0.6,0,1.1-0.3,1.5-0.8
		C263.7,155.3,264.7,154.1,266,152.7L266,152.7z M215.2,344.2c0-0.3,0.1-0.6,0.1-0.8c0-1.5-0.6-1.9-2.1-1.6
		c-1.3,0.4-2.1,1.7-1.7,3.1c0.1,0.3,0.3,0.7,0.5,0.9c1,1.2,2.1,2.3,3.2,3.3c0.5,0.5,1.1,0.8,1.8,0.8c0.5,0,0.9-0.3,0.5-0.8
		c-0.5-0.9-1.1-1.8-1.8-2.6C215.2,345.8,215,345,215.2,344.2z M217.8,111.5c2.6-0.4,4.2-2.2,5.9-3.7c1-0.9,0.9-2.2,0.5-3.3
		c-0.5-1.5-1.5-1.6-2.4-0.4c-0.9,1.2-2,2.7-2.9,4.1c-0.4,0.6-1.3,1.2,0,1.9c0.5,0.3-0.2,0.3-0.3,0.4
		C218.1,110.6,217.8,111,217.8,111.5L217.8,111.5z M151.6,234.1c1.6-0.4,3.3-0.5,5-0.5c0.5,0,0.9-0.4,0.9-0.9c0-0.3-0.1-0.5-0.3-0.7
		c-0.3-0.4-0.8-0.7-1.3-0.7c-0.9-0.1-1.9-0.1-2.9-0.1c-1.1,0.3-2.3-0.2-2.8-1.3c-0.1-0.6-0.7-0.9-1.3-0.8c0,0-0.1,0-0.1,0
		c-0.5,0.1-0.9,0.4-1,0.8c-0.2,0.6,0.2,1.2,0.8,1.4c0.9,0.2,1.5,1,1.5,2C150.2,234,150.8,234.1,151.6,234.1z M395.8,199.1
		c1.6,1.7,3,3.1,5.3,2c0.1,0,0.1,0,0.2,0c1.3,0.2,2.6,0.4,3.9,0.8c1.2,0.5,2.7-0.8,3.7,0.6c0.2,0,0.4,0,0.6-0.1
		c1.4-0.6,2.8-1.6,4.5-1.3c0.2,0,0.4-0.2,0.5-0.4c0.1-0.3,0-0.6-0.3-0.8c-0.6-0.5-1.6-0.6-2.3-0.1c-3,1.3-6.4,1.5-9.5,0.5
		C400.4,199.9,398.2,199.6,395.8,199.1z M214.8,111.1c1.4,0,3.5-2.4,3.4-3.7c0-0.3-0.2-0.5-0.5-0.5c-0.1,0-0.2,0-0.3,0.1
		c-0.4,0.3-0.8,0.6-1.2,1c-0.5,0.4-1.1,1.1-1.7,0.8c-1.6-0.8-2.6,0.8-3.9,0.9c-0.2,0.1-0.3,0.3-0.4,0.5c0,0.3,0.2,0.5,0.5,0.6
		c0,0,0,0,0.1,0C212.1,111,213.5,110.7,214.8,111.1L214.8,111.1z M201.4,320.7c-0.1-0.7-0.2-1.3-0.4-2c-0.2-0.6-0.4-1.3-1.3-1.3
		s-0.8,0.8-0.9,1.3c-0.1,1.3,0,2.6-0.7,3.9c-0.2,0.6,0,1.2,0.6,1.5c0.5,0.2,1.1,0,1.4-0.3C201.3,323.2,201.2,321.9,201.4,320.7z
		 M443.2,210c0.1,0.4,0.5,0.6,0.8,0.5c0,0,0,0,0,0c2.2-0.4,4.3-0.9,6.4-1.5c0.5-0.2,1.1-0.5,1.5-0.8c1.8-1.3,2.8-3.3,3.9-5.3
		c0.2-0.2,0.2-0.5,0-0.7c0,0,0,0-0.1,0c-0.3-0.1-0.6-0.1-0.8,0.1c-0.5,0.5-0.9,1.2-1.1,1.9c-0.8,2.4-2.8,4.1-5.3,4.5
		C446.8,208.8,445,209.4,443.2,210z M320.7,199.2c0.2,1-0.1,2,0.5,2.7c0.6,0.7,1.4,0,2.1,0.3c0.7,0.3,1.4,0.4,2.2,0.3
		c0.5,0,1,0,1.5,0c0.4,0,0.7-0.3,0.8-0.7c0-0.4-0.2-0.7-0.6-0.8C324.9,200.6,322.7,200,320.7,199.2z M268.6,133.5
		c-1.1-1.5-2.3-1.6-3.5-2c-1.1-0.3-2.2-0.1-3.1,0.6c-0.5,0.3-0.7,0.9-0.5,1.4c0.1,0.2,0.3,0.4,0.6,0.5c0.8,0.5,1.9,0.5,2.7,0
		C265.9,133.5,267.3,133.3,268.6,133.5z M322.8,147c0.4-0.2,1-0.4,1.5-0.6c0.3-0.3,0.8-0.3,1.2-0.1c0.9,0.6,1.3,0.1,1.3-0.8
		c0-0.8-0.3-1.6-0.7-2.3c-0.2-0.7-0.9-1.1-1.5-0.9c-0.4,0.1-0.7,0.3-0.8,0.7c-0.6,1-1.1,2.1-1.6,3.1
		C321.9,146.5,322.1,146.9,322.8,147L322.8,147z M479,200.3c1.4-0.4,2-1.6,2.6-2.6c0.7-1.1,1.9-1.8,3.2-2c-1.1-0.8-1.8-1.4-2.7-2
		c-0.4-0.4-1-0.4-1.4-0.1c-0.6,0.5-0.2,0.9,0.2,1.2c0.2,0.1,0.3,0.4,0.2,0.7c0,0-0.1,0.1-0.1,0.1C479.4,196.7,480.2,198.9,479,200.3
		L479,200.3z M194.7,96.4c0.6,0,1.2-0.5,1.4-1.1c0.2-0.8,0.5-1.5,0.9-2.2c0.3-0.3,0.2-0.8-0.2-1.1c0,0-0.1,0-0.1-0.1
		c-0.4-0.2-0.9-0.1-1.2,0.2c-0.7,0.7-1.4,1.5-2.1,2.2c-0.3,0.3-0.4,0.8-0.2,1.2C193.6,96.1,194.1,96.4,194.7,96.4z M711.4,197.2
		c0,0.1,0,0.2,0,0.2c1.8,2.5,4.4,3.2,7.2,3.6c0.1,0,0.3-0.1,0.3-0.2c0.1-0.2,0-0.5-0.2-0.6c-0.2-0.2-0.5-0.3-0.8-0.4
		c-1.8-0.4-3.5-1.2-4.9-2.3C712.7,197,712,196.9,711.4,197.2z M429.2,202.1c-1.8-0.5-2.9,0.8-4.3,1.6c-1.3,0.8-3,1.1-4.2,2.3
		C423.8,205.5,426.8,204.1,429.2,202.1L429.2,202.1z M348,198.2c2.6,1.1,3.9,0.9,4.9-0.6c0.2-0.3,0.3-0.6,0.2-1
		c-0.2-0.4-0.7-0.6-1.1-0.4c0,0-0.1,0-0.1,0.1C350.7,196.9,349.3,197.1,348,198.2L348,198.2z M205.3,330.7c-0.8-0.5-1.1-2-1.8-2
		c-1.4,0.1-3-0.2-4.3,1c-0.3,0.2-0.4,0.5-0.3,0.9c0,0,0,0,0,0.1c0.1,0.3,0.5,0.5,0.8,0.4c0,0,0.1,0,0.1,0c1.6-1.2,3.1-0.6,4.8-0.1
		C204.8,330.9,205.1,330.8,205.3,330.7z M214.5,327.3c0.4-0.1,0.7-0.5,0.6-1c0,0,0,0,0-0.1c-0.4-0.8-0.7-1.7-0.7-2.7
		c0-0.5-0.6-0.6-1-0.4c-0.8,0.5-1.1,1.4-0.9,2.3C212.9,326.3,213.6,326.9,214.5,327.3L214.5,327.3z M516.5,178.5l1.6,3.9
		c1-0.5,1.6-1.4,1.7-2.5c0-1.1-1.2-1.1-2-1.5C517.4,178.2,516.9,178.3,516.5,178.5z M220.8,232.5c-0.2,0.1-0.3,0.2-0.5,0.3
		c-0.2,0.2-0.1,0.5,0.1,0.7c0,0,0.1,0.1,0.1,0.1c0.4,0.3,1.2,0.5,0.1,0.9c-0.5,0.2-0.8,0.7-0.7,1.2c0,0.2,0.2,0.4,0.4,0.5
		c0.6,0.1,1.2-0.2,1.4-0.7c0.2-0.3,0.4-0.6,0.5-1C222.3,233.5,221.7,232.7,220.8,232.5C220.8,232.5,220.8,232.5,220.8,232.5z
		 M505.4,187.5c-1.4-0.2-2.5-0.8-3.5,0.2c-0.4,0.3-0.5,0.8-0.3,1.2c0.2,0.3,0.6,0.4,1,0.3C503.7,188.9,504.6,188.3,505.4,187.5
		L505.4,187.5z M178,207.5c-1.7,0.6-3.1,1.8-3.9,3.4c-0.1,0.2,0,0.4,0.1,0.6c0.2,0.2,0.5,0.2,0.7,0c0,0,0.1-0.1,0.1-0.1
		C176,210.1,177.4,209.1,178,207.5z M608.1,195.1c-1.5,0-3,0-4.5,0c-0.3-0.1-0.6,0.1-0.7,0.4c-0.1,0.4,0.2,0.7,0.6,0.8c0,0,0,0,0,0
		C605.1,196.7,606.9,196.2,608.1,195.1z M208.5,173.5c-0.6-0.5-1-0.9-1.4-1.2c-0.6-0.4-1,0-1.3,0.3c-0.5,0.3-0.7,1-0.4,1.5
		c0.3,0.4,0.9,0.5,1.4,0.2C207.3,174.1,207.8,173.8,208.5,173.5z M686.4,197.5c5.9,0.8,5.9,0.8,7.2-0.5
		C691.1,197.6,688.7,197.2,686.4,197.5z M370.2,152.2c-0.7,1.1-0.8,2.5-0.2,3.7c0.1,0.2,0.3,0.3,0.5,0.3c0.3,0,0.5-0.3,0.5-0.6
		c0,0,0,0,0,0C371.2,154.3,370.9,153.2,370.2,152.2L370.2,152.2z M185.7,99.4c-1.2,0-1.7,0.8-2.4,1.3c-0.4,0.2-0.5,0.7-0.3,1
		c0.1,0.1,0.2,0.2,0.3,0.3c0.4,0.3,0.9,0.2,1.2-0.2c0-0.1,0.1-0.1,0.1-0.2C185,101,185.3,100.3,185.7,99.4z M215.6,207.6
		c0.8-0.1,1.1-0.9,1.4-1.5c0.4-0.6,0.9-1.1,0.3-1.5c-0.6-0.4-0.9,0.4-1.2,0.9c-0.4,0.5-0.7,1-1,1.5c-0.1,0.2-0.1,0.5,0.2,0.6
		C215.4,207.6,215.5,207.6,215.6,207.6z M387.5,149.7c2.2,0.9,4.6,0.2,6.9,0.8C392.2,149.4,389.7,150.2,387.5,149.7z M222.3,194.3
		c1.6-0.5,3.1-1.4,4.1-2.7C224.8,192.2,223.4,193.1,222.3,194.3z M399.2,152.9c-0.2-0.8-0.9-1.3-1.7-1.3c-0.4,0-0.7,0.2-0.7,0.6
		c0,0,0,0,0,0.1c0.3,0.8,1.1,1.4,2,1.3C399,153.5,399.3,153.3,399.2,152.9C399.2,152.9,399.2,152.9,399.2,152.9z M567.8,369.5
		l-5.5-1.2C564,369.4,565.9,369.8,567.8,369.5z M214.6,112.7c-1.1,0.4-2,1.4-3.3,1.4c-0.2,0-0.4,0.2-0.4,0.4c0,0,0,0,0,0
		c0,0.3,0.3,0.5,0.5,0.4c0,0,0.1,0,0.1,0C212.9,114.6,214,113.8,214.6,112.7z M210.4,330.8c0.8,0.2,1.6,0,2.3-0.3
		c0.3-0.1,0.6-0.4,0.5-0.7c0,0,0-0.1,0-0.1c-0.2-0.4-0.6-0.5-0.9-0.4c0,0,0,0,0,0C211.4,329.4,210.7,330,210.4,330.8L210.4,330.8z
		 M339.3,144.1c-1.8-0.1-3.7-0.1-5.3,1L339.3,144.1z M603.3,211.4c0-0.1-0.1-0.2-0.1-0.3c-0.5-0.7-1.3-1-2.1-0.9
		c-0.3,0-0.5,0.2-0.5,0.5c0,0,0,0,0,0.1c0.2,0.9,1.1,0.9,1.7,1.1c0.2,0.1,0.4,0,0.6-0.1C603,211.7,603.2,211.6,603.3,211.4z
		 M181.4,280.2c2.1,0.2,2.2,0.1,2.6-1.7C182.9,278.6,181.9,279.2,181.4,280.2z M191.9,354.2c-1.5,0.2-2.2,1.3-2.9,2.5
		C190.1,356.2,191.1,355.3,191.9,354.2L191.9,354.2z M398.9,166.3c-0.1-0.4-0.4-0.7-0.9-0.8c-0.4-0.1-0.9,0.1-1,0.6
		c-0.1,0.8,0.7,0.6,1.1,0.7c0.3,0.1,0.6,0,0.8-0.3C398.9,166.4,398.9,166.3,398.9,166.3z M435.7,210.3v0.2h5.1v-0.2H435.7
		L435.7,210.3z M389.9,147c0,0.3,0.2,0.6,0.5,0.8c0.4,0.3,0.7,1,1.2,0.3c0.5-0.6-0.2-0.9-0.6-1.1C390.7,146.7,390.2,146.7,389.9,147
		z M354.9,198c0.4-0.2,1.2-0.3,1-1.1c-0.1-0.3-0.4-0.4-0.7-0.4c-0.5,0-0.9,0.5-0.9,1C354.3,197.9,354.6,198,354.9,198L354.9,198z
		 M429.2,208.1c0.4,0.1,0.8,0.1,1.2,0.2c0.3,0.1,0.5-0.1,0.6-0.4c0,0,0-0.1,0-0.1c0-0.3-0.2-0.6-0.5-0.6
		C429.9,206.9,429.5,207.2,429.2,208.1L429.2,208.1z M416.3,206.1c0,0.1-0.1,0.2-0.1,0.3c0,0.1,0.1,0.1,0.1,0.1
		c0.8,0.2,1.6,0,2.2-0.4C417.9,205.8,417.1,205.8,416.3,206.1L416.3,206.1z M587.2,196.4c-0.7-0.3-1.5-0.1-1.9,0.6
		c0,0.1-0.1,0.1-0.1,0.2C586.1,197.5,586.9,197.2,587.2,196.4L587.2,196.4z M397.1,177.7l0.1-0.5c-0.9-0.3-1.9-0.2-2.8,0.1
		L397.1,177.7z M371,238c1.9-0.1,1.9-0.1,2.8-1.1C372.7,236.9,371.8,237.2,371,238L371,238z M503.6,350.7c0.3,1.1,0.9,1.5,2,1.2
		C505.3,351.2,504.5,350.7,503.6,350.7L503.6,350.7z M590.3,209.7c-0.4,0-0.8,0.3-0.8,0.8c0,0.1,0,0.2,0,0.2c0,0.3,0.3,0.5,0.6,0.5
		c0.5,0,1-0.4,1-1c0-0.3-0.3-0.6-0.6-0.6C590.4,209.6,590.3,209.6,590.3,209.7L590.3,209.7z M681.4,197.5c1.2,0.2,1.8,0.5,2.5,0
		C683.1,197.1,682.2,197.1,681.4,197.5z M186.2,272.5c0-0.2-0.2-0.4-0.4-0.5c-0.5,0-0.8,0.3-0.9,0.8c-0.1,0.2,0,0.5,0.2,0.5
		C185.6,273.3,186.1,273,186.2,272.5z M179.6,97.2c-0.3,0-0.6,0.2-0.6,0.5c0,0.1,0,0.1,0,0.2c0.1,0.2,0.2,0.4,0.4,0.5
		c0.3,0.1,0.6-0.1,0.7-0.5c0,0,0-0.1,0-0.1C180.2,97.5,180,97.2,179.6,97.2C179.7,97.2,179.7,97.2,179.6,97.2L179.6,97.2z
		 M710.1,196.7c-0.2-0.3-0.5-0.5-0.9-0.5c-0.2,0-0.3,0.1-0.4,0.2c0,0.1,0,0.1,0,0.2c0.1,0.3,0.5,0.6,0.8,0.5c0.2,0,0.4-0.1,0.4-0.3
		C710.2,196.7,710.2,196.7,710.1,196.7z M215.9,278.5c1.3-0.4,1.3-0.4,2-1.7C217.1,277.6,216.4,277.6,215.9,278.5z M289.7,108.4
		c-1,0-1.9,0.3-2.6,1C288,109.3,288.9,109,289.7,108.4z M360.6,161.5c-0.1-0.3-0.3-0.5-0.6-0.4c-0.2,0-0.4,0.2-0.4,0.4c0,0,0,0,0,0
		c0,0.3,0.2,0.5,0.5,0.5c0.1,0,0.1,0,0.2,0C360.5,161.9,360.6,161.7,360.6,161.5z M625.6,173.2c-0.1-0.2-0.3-0.3-0.5-0.2
		c-0.3,0-0.6,0.1-0.4,0.5c0.2,0.1,0.4,0.1,0.6,0.1C625.4,173.5,625.6,173.4,625.6,173.2z M225.4,237.6c0-0.4-0.1-0.5-0.4-0.5
		c-0.2,0-0.4,0.2-0.4,0.4l0,0c0,0.2,0.1,0.4,0.3,0.4c0,0,0.1,0,0.1,0C225.2,237.9,225.4,237.8,225.4,237.6z M648.9,194.9
		c-0.2-0.1-0.4,0-0.5,0.2c0,0,0,0.1,0,0.1c0,0.2,0.2,0.4,0.4,0.4c0.2,0.1,0.4,0,0.5-0.2c0,0,0,0,0-0.1
		C649.3,195.1,649.1,195,648.9,194.9z M336.4,131.5c-0.3-0.2-0.7-0.2-1,0H336.4z M182,105.5c0.1-0.5-0.2-0.9-0.7-1
		c-0.1,0.1-0.2,0.2-0.2,0.3c0,0.4,0.4,0.7,0.8,0.7C182,105.5,182,105.5,182,105.5z M265.2,114.9c-0.3-0.2-0.7-0.7-1.2-0.2
		C264.3,115,264.8,115.2,265.2,114.9C265.2,114.9,265.2,114.9,265.2,114.9z M401.6,179.2c0.8,0.1,1.6,0,2.3-0.4
		C403.1,178.5,402.2,178.6,401.6,179.2z M231.7,157.4c-0.1,0.1-0.2,0.1-0.3,0.2c-0.1,0.3-0.6,0.7-0.1,0.8
		C231.7,158.5,231.9,157.9,231.7,157.4z M678.6,197.5c0.1-0.1,0.2-0.2,0.3-0.3c0-0.3-0.2-0.3-0.4-0.3c-0.2,0-0.5,0-0.4,0.3
		C678.2,197.4,678.4,197.5,678.6,197.5L678.6,197.5z M337.9,160.3c-0.4-0.3-0.9-0.3-1.2,0H337.9z M283.6,86.8c0.1-0.1,0.1-0.2,0-0.3
		c0,0,0,0-0.1,0c-0.2-0.1-0.4,0-0.5,0.1c0,0.1,0,0.2,0.1,0.3C283.2,87.1,283.4,87,283.6,86.8L283.6,86.8z M607.3,212.5
		c0-0.4-0.3-0.7-0.7-0.8c-0.1,0-0.3,0-0.4,0.1c-0.2,0.5,0.2,0.6,0.5,0.8C607,212.8,607.2,212.7,607.3,212.5L607.3,212.5z
		 M285.3,113.5c0.2-0.3,0.9,0,0.9-0.8C285.8,112.8,285.5,113.1,285.3,113.5z M331.7,145.2c-0.1-0.1-0.2-0.1-0.3-0.2
		c-0.2,0-0.7-0.1-0.6,0.2S331.4,145.4,331.7,145.2L331.7,145.2z M589.8,197.6c-0.1-0.2-0.3-0.3-0.5-0.2c0,0,0,0,0,0
		c-0.1,0.1-0.2,0.2-0.2,0.3c0,0.2,0.2,0.3,0.4,0.3c0,0,0.1,0,0.1,0C589.7,197.8,589.8,197.7,589.8,197.6L589.8,197.6z M168.5,219.3
		l-0.2,0.3c0.1,0.1,0.2,0.1,0.3,0.1c0.1-0.1,0.2-0.2,0.2-0.3L168.5,219.3z M612.9,188.4c0.1-0.1,0.1-0.3-0.1-0.3c-0.1,0-0.1,0-0.2,0
		c-0.2,0.1-0.2,0.2-0.1,0.3C612.6,188.5,612.7,188.5,612.9,188.4z M192.3,252.8c0.1-0.1,0.2-0.2,0.2-0.3c0-0.1-0.1-0.3-0.2-0.3
		c-0.1,0-0.2,0-0.2,0.1c-0.1,0.1-0.1,0.2-0.1,0.4c0,0.1,0.1,0.2,0.2,0.2C192.2,252.9,192.3,252.9,192.3,252.8z M173.6,104.2
		c0-0.1,0-0.1-0.1-0.2c-0.1-0.1-0.2-0.1-0.3-0.1c0,0-0.1,0-0.1,0.1c0,0.1,0,0.1,0,0.2C173.4,104.2,173.5,104.2,173.6,104.2z
		 M90.5,264.5c-0.1,0.1-0.2,0.1-0.3,0.2c0,0.2,0.1,0.2,0.3,0.2c0.1,0,0.1-0.1,0.2-0.1c0.1-0.1,0-0.2-0.1-0.3
		C90.6,264.5,90.5,264.5,90.5,264.5L90.5,264.5z M183.2,98.1c-0.1,0.1-0.2,0.1-0.3,0.2c0,0.2,0.1,0.2,0.3,0.2c0.1,0,0.1-0.1,0.1-0.1
		C183.4,98.3,183.4,98.2,183.2,98.1C183.3,98.1,183.2,98.1,183.2,98.1z M180.1,93.6c-0.1-0.1-0.2-0.1-0.3-0.2
		c-0.1,0-0.1,0.1-0.1,0.1c-0.1,0.2,0,0.3,0.2,0.3C179.9,93.8,180,93.7,180.1,93.6L180.1,93.6z M230.2,136.3c0-0.2-0.1-0.3-0.3-0.1
		c-0.1,0.1-0.2,0.2-0.2,0.3c0,0.2,0.1,0.3,0.3,0.1C230.1,136.5,230.2,136.4,230.2,136.3L230.2,136.3z M671.9,197.2
		c-0.2,0-0.3,0.1-0.3,0.2c0.1,0.1,0.2,0.2,0.3,0.2c0.2,0,0.3-0.1,0.3-0.2C672.1,197.4,672,197.3,671.9,197.2z M668,197.2
		c-0.1-0.1-0.2-0.1-0.3-0.1c0,0,0,0-0.1,0.1c0,0.1,0,0.1,0,0.2c0.1,0.1,0.2,0.1,0.3,0.1c0,0,0.1,0,0.1-0.1
		C668,197.3,668,197.3,668,197.2L668,197.2z M716.4,197c0.1-0.1,0.1-0.2,0-0.3c0,0-0.1,0-0.1-0.1c-0.1,0-0.1,0-0.2,0
		c0,0.1,0,0.2,0,0.3H716.4L716.4,197z M405.3,176.5c-0.1-0.1-0.2-0.2-0.3-0.2c-0.2,0-0.2,0.1-0.1,0.3c0,0.1,0.1,0.1,0.2,0.1
		c0.1,0,0.2,0,0.3-0.1C405.3,176.6,405.3,176.5,405.3,176.5L405.3,176.5z M417.7,247.6c0-0.1,0-0.1-0.1-0.2c-0.1-0.1-0.2-0.1-0.3,0
		c0,0,0,0.1,0,0.1c0,0.1,0,0.1,0.1,0.2C417.5,247.8,417.6,247.7,417.7,247.6C417.7,247.6,417.7,247.5,417.7,247.6L417.7,247.6z
		 M325.6,122.2c0.1-0.2,0-0.2-0.2-0.2c-0.1,0-0.3,0-0.4,0c-0.2,0.1-0.2,0.2,0,0.2C325.2,122.2,325.4,122.2,325.6,122.2z M76.9,281.7
		c0.1-0.1,0.2-0.2,0.2-0.3c0-0.2-0.1-0.2-0.3-0.1c-0.1,0.1-0.2,0.2-0.2,0.3C76.6,281.8,76.7,281.8,76.9,281.7z"/>
	<path id="XMLID_54_" class="st0" d="M279.4,108.8c-0.3,0.3-0.8,0.4-1.3,0.2c-1.8,0.4-2.4,0.3-2.8-1.1c-1.2-3.8-3.5-7-4.8-10.7
		c-0.4-1.1-0.4-1.4,0.7-1.4c1.2-0.1,2.4-0.5,3.5-1c1.7-0.6,3.7-0.3,5.2-1.5c0.3-0.2,0.7-0.2,1,0c0.9,1.4,2.1,1,3.4,0.7
		c0.6-0.3,1.4-0.1,1.8,0.5c0.3,0.3,0.8,0.5,1.2,0.3c2.7-0.3,4.4,1.1,5.5,3.5c0.7,1.6,0.7,1.6,2.4,1.3c1.7-0.3,3.2-0.7,4.8-1
		c0.5-0.1,1.2-0.3,1.1-0.9c-0.2-1.4,0.6-1.3,1.4-1c1.3,0.5,2.5-0.2,3.7-0.3c4.7-0.7,9.2-2,13.5-4c2.2-1,4-2.9,4.9-5.2
		c0.2-0.8,0.8-1.4,1.5-1.8c0.4-0.3,1-0.3,1.5,0c0.4,0.4,0.5,0.9,0.3,1.4c-0.5,1.9-1.7,3.5-3.4,4.4c-0.9,0.5-1.8,1-2.7,1.5
		c-0.4,0.2-0.7,0.6-0.6,1c0.1,0.4,0.5,0.6,0.9,0.5c1.4,0.3,2.7,0.4,4.1,0.3c2.2,0,4.6,0,5.8,2.7c0.6,1.4,1.9,1.8,3.2,2
		c0.8,0.1,1.6,0.2,2.4,0.3c3.1,0.4,5,3.1,3.5,6.3c-0.2,0.5-0.6,1.1-1,1.5c-1.8,2-3.5,4-5,6.2c-0.5,0.8-1.5,1-2.3,0.7
		c-1.3-0.4-2.5-0.9-3.7-1.4c-0.7-0.2-1.2-0.7-1.3-1.4c0-2-1.7-2.7-3-3.4c-1.5-0.7-3.1-1.4-4.7-2c-1.9-0.7-3.9-1.1-5.9-1.1
		c-1.5,0-2.9-0.2-4.4-0.6c-2.9-0.6-5.9-0.7-8.8-0.2c-2.9,0.3-5.8,0.2-8.6,0.7C288,105.8,283.5,106.5,279.4,108.8z"/>
	<path id="XMLID_51_" class="st0" d="M193.2,57.5c-0.2-2.1,0.5-4.1,1.8-5.8c0.3-0.6,0.5-1.2,0.6-1.9c0.5-2.4,1.8-4.6,3.8-6
		c1-0.7,1.8-1.6,2.3-2.6c1.4-2.6,3.6-4.7,6.3-6c0.5-0.2,0.9-0.5,1.3-0.8c2.4-2.2,5.3-3.5,8.1-4.9c1.8-0.8,3.3-1.9,4.6-3.4
		c1.5-1.8,3.5-3,5.8-3.5c6.8-1.8,13.7-3.5,20.1-6.7c2.7-1.3,5.5-2.5,8.2-3.9c2.4-1.1,4.9-1.6,7.5-1.7c1.3,0,2.5-0.3,3.6-0.9
		c4.2-2.4,8.8-3.6,13.5-4.8c2-0.5,3.9-1.4,6-1.4c0.8,0,1.8-0.3,2.1,0.7s-0.5,1.5-1.1,2c-0.6,0.4-1.3,0.8-2,1
		c-2.4,0.9-4.8,2.1-6.8,3.6c-0.7,0.6-1.5,1-2.4,1.2c-2.7,0.4-5.3,1.4-8,1.9c-0.3,0-0.6,0.1-0.9,0.2c-4.7,2.1-9.9,2.8-14.5,5.4
		c-0.5,0.2-1.1,0.5-1.5,0.9c-3,2.4-6.6,3.1-10.3,3.7c-3.3,0.6-6.6,1.4-9.9,2.1c-0.7,0.2-1.4,0.5-2,0.9c-2.5,1.6-4.9,3.3-7.1,5.3
		c-2.5,2.5-5.5,4.5-8.8,5.9c-0.9,0.4-1.7,0.9-2.4,1.5c-2.3,1.4-4.4,3.1-6.2,5.1c-1.1,1-1.8,2.3-2,3.8c-0.1,2-1.6,3.6-2,5.6
		c-0.3,1.4-0.5,2.9-1.8,3.9c-0.4,0.4-0.6,1.1-0.4,1.7c0.6,2.9-0.9,4.9-2.7,7.1c-0.3-1-0.6-1.9,0.1-2.7c0.4-0.5,0.6-1.2,0.5-1.9
		c0-2,0.8-3.9,0.8-5.9c0-0.2,0-0.4,0.2-0.6c1.8-1.2,1.8-3.3,2.6-4.9c0.3-0.7,0.4-1.4,0.3-2.1c-0.2-1.3,0.4-2.5,1.5-3.2
		c1.1-0.7,2-1.7,3.1-2.6c0.8-0.5,1.3-1.4,1.3-2.4c0-0.5,0.3-1,0.7-1.3c0.5-0.4,0.8-1.1,0.8-1.8c-0.7,0-1.4,0.4-1.7,1.1
		c-1.3,1.5-2.6,3-4.2,4.2c-2.8,2.7-5.4,5.7-5.8,9.9c0,0.3,0,0.6-0.2,0.8C194.4,54.1,194.6,56.3,193.2,57.5L193.2,57.5z M224.9,26
		c-0.9,0.5-1.7,1.2-2.4,2c-0.7,0.9-1.6,1.6-2.5,2.1c-2.4,0.9-4.4,2.5-6.7,3.4c-1,0.4-2.2,1-2.4,2.2c0.2,0.3,0.6,0.4,0.9,0.3
		c2.5-0.4,4.5-1.8,6.4-3.2c1.1-0.8,2-1.7,3.2-2.3C223.1,29.4,224.3,27.9,224.9,26L224.9,26z"/>
	<path id="XMLID_50_" class="st0" d="M346,113.9c-0.7,0.2-1.3,0.7-1.7,1.4c-0.3,0.5-0.6,0.8-1.1,1.1c-1.6,0.8-2.6,0.4-3.6-1.1
		c-1.2-2-1.2-2.5,0.5-4.1c0.8-0.8,1.7-1.6,2.6-2.4c-0.2,0.4-0.2,0.8,0.3,0.8c0.4,0,0.8-0.3,0.8-0.8c0-0.1,0-0.2,0-0.3
		c-0.1-0.3-0.5-0.2-0.7,0c0.2-0.3,0.3-0.6,0.5-1c1-2.5,1-2.5,3.7-2l0,0c0.1,1.3,1.2,0.8,1.9,1s1.6-0.4,2.1,0.7
		c0.5,0.9,0.3,2.1-0.4,2.9c-1.5,1.6-2.1,3.7-3.1,5.6c-0.5,1-0.4,1-2,0.8C345.9,115.6,346,114.8,346,113.9c0.7-0.2,1.2-0.9,1.4-1.7
		C345.7,112.4,345.7,112.4,346,113.9z"/>
	<path id="XMLID_49_" class="st0" d="M358.1,121.3c-2.7-2.4-6-3.1-9-4.9c0.7-1.2,1.3-2.4,1.7-3.7c0.2-0.7,0.9-1.2,1.6-1
		c0.1,0,0.2,0.1,0.3,0.1c0.6,0.1,1.1,0.4,1.6,0.7c0.9,0.7,1.9,1.2,2.9,1.5c1.5,0.5,1.8,1.1,1.6,2.7
		C358.6,118.1,358.9,119.6,358.1,121.3z"/>
	<path id="XMLID_48_" class="st0" d="M409,173.8c-1.3,0-3.4-1.5-3.6-2.8c-0.3-0.7,0.1-1.4,0.7-1.7c0.1,0,0.1,0,0.2-0.1
		c1.5-0.4,3.1-0.7,4.7-1c1.7-0.3,2.5,1,2,2.7C412.4,172.6,410.8,173.7,409,173.8z"/>
	<path id="XMLID_47_" class="st0" d="M380.3,129.8c0.1,1-0.6,1.5-1.1,2c-0.6,0.5-1-0.1-1.5-0.3c-1.5-0.7-3.1-1.3-4.7-2
		c-0.7-0.1-1.2-0.7-1.3-1.3c0.3-0.8,1.1-1.4,2-1.6c2,0.4,4,0.9,5.9,1.7C380.1,128.5,380.5,129.1,380.3,129.8z"/>
	<path id="XMLID_46_" class="st0" d="M193.2,57.4c-0.1,0.8-0.3,1.6-0.7,2.3c-0.6,1-0.8,2.2-0.6,3.4c0.2,0.7,0,1.4-0.5,1.8
		c-0.7,0.7-1.1,1.8-2.2,2.3c-0.7-0.8-0.8-1.9-0.4-2.8C189.7,61.8,191.2,59.4,193.2,57.4L193.2,57.4z"/>
	<path id="XMLID_45_" class="st0" d="M415.8,183.1c1-0.1,2.1,0.1,2.9,0.7c1.4,0.8,1.5,1.6,0.4,2.8c-0.5,0.6-1.4,0.9-1.7,1.7
		c-0.1,0.3-0.5,0.4-0.8,0.3c-1.1-0.4-1.6-1.6-1.2-2.7c0-0.1,0.1-0.2,0.1-0.3C416.5,184.4,416.5,184.4,415.8,183.1z"/>
	<path id="XMLID_44_" class="st0" d="M341,121.3c2.6-1.1,2.6-1.2,1.5-2.5c1.2-0.3,2.5,0,3.6,0.6c1,0.8,2.2,1.2,3.4,1.3
		c0.4,0,0.8,0.1,0.7,0.6c-0.1,0.4-0.4,0.6-0.8,0.6c-1.3-0.2-2.6-0.5-3.9-0.7c-0.5-0.2-1.1-0.1-1.4,0.4c-0.2,0.4-0.2,1.1-0.9,1.2
		s-1.1-0.4-1.6-0.7C341.3,121.9,341.1,121.6,341,121.3z"/>
	<path id="XMLID_41_" class="st0" d="M601.6,163c-2.6,0.8-4.9,0.3-7.2-0.2c-0.9-0.2-0.8-0.9-0.6-1.6c0.2-0.7,0.5-1.2,1.3-1.1
		c0.9,0.1,1.7,0.5,2.5,1C599,161.9,600.3,162.5,601.6,163z M595.2,160.9c0-0.1-0.1-0.2-0.2-0.3c-0.1,0-0.2,0.1-0.3,0.1
		c0,0.1,0.1,0.2,0.2,0.3C595,161,595.1,161,595.2,160.9z"/>
	<path id="XMLID_40_" class="st0" d="M410.3,176.4c0-1.4,0.6-2.1,2.1-2.5c0.5-0.1,1-0.3,1.5-0.4s0.6,0.2,0.7,0.6
		c0.1,0.9-1.9,4.3-2.8,4.6c-0.4,0.1-0.8-0.1-0.9-0.4C410.5,177.6,410.3,177,410.3,176.4z"/>
	<path id="XMLID_39_" class="st0" d="M426,196.4c-1.9-1.7-3.3-4-3.8-6.5c0.6-0.1,1.1-0.1,1.7,0c0.9,0.3,1.7,1,1.3,2
		c-0.6,1.5,0.1,2.5,1,3.6c0.1,0.2,0.2,0.4,0.3,0.5L426,196.4z"/>
	<path id="XMLID_38_" class="st0" d="M272.5,86.8c-0.9,0.3-1.8,0.7-2.3-0.4c-0.2-0.4,0.1-0.9,0.5-1c0,0,0,0,0.1,0
		C272,85,272,86.2,272.5,86.8z"/>
	<path id="XMLID_37_" class="st0" d="M428.4,197.8c-0.4,0.5-1,0.7-1.7,0.8c-0.4,0.1-0.9-0.2-0.9-0.7c0-0.1,0-0.2,0-0.3
		c0-0.4,0.3-0.7,0.7-0.7c0.1,0,0.2,0,0.3,0.1C427.4,197.1,428,197.3,428.4,197.8z"/>
	<path id="XMLID_36_" class="st0" d="M261.2,89.4c-1.5,0.6-2.7-0.1-3.9,0.2C258.4,88.5,259.6,88.3,261.2,89.4z"/>
	<path id="XMLID_35_" class="st0" d="M413.9,186.8c-0.8-0.2-1.6-0.7-2-1.4c-0.3-0.2-0.3-0.5-0.2-0.8c0-0.1,0.1-0.1,0.2-0.2
		c0.3-0.2,0.8-0.1,1,0.2c0,0,0,0,0,0C413.4,185.2,413.8,186,413.9,186.8z"/>
	<path id="XMLID_34_" class="st0" d="M352.1,127.1c-0.2,0.7-0.8,1.2-1.5,1.1c-0.4,0-1,0-1-0.6s0.5-0.5,1-0.5
		S351.5,127.1,352.1,127.1z"/>
	<path id="XMLID_33_" class="st0" d="M317.8,81.5c1.3-0.4,2.4,0.2,3.7,0.3C320.2,82.2,318.9,82.1,317.8,81.5z"/>
	<path id="XMLID_32_" class="st0" d="M369,159c0,0.3-0.1,0.6-0.5,0.5c-0.6-0.1-1-0.5-1.2-1.1c-0.1-0.3,0.3-0.5,0.6-0.5
		c0.5-0.1,1,0.3,1.1,0.8C369,158.8,369,158.9,369,159z"/>
	<path id="XMLID_31_" class="st0" d="M131,244.8c0.4-0.9,1.1-1.7,2-2.3C132.5,244.1,132.5,244.1,131,244.8z"/>
	<path id="XMLID_30_" class="st0" d="M268.2,92.9c0.2,0,0.3,0,0.5,0.1c0.5,0.2,0.9,0.8,0.9,1.4c-0.1,0.1-0.2,0.2-0.3,0.2
		C268.4,94.4,268.2,93.8,268.2,92.9z"/>
	<path id="XMLID_29_" class="st0" d="M295.6,88.4c-0.2,0.6-0.9,0.9-1.5,0.7c0,0,0,0-0.1,0c-0.1-0.1-0.1-0.2-0.1-0.4
		C294.3,88.1,294.9,88.1,295.6,88.4z"/>
	<path id="XMLID_28_" class="st0" d="M456.5,198.1c0.6-0.8,1.7-0.9,2.5-0.4C458.3,198.3,457.3,198.4,456.5,198.1z"/>
	<path id="XMLID_27_" class="st0" d="M144.9,344.1l-3.2,2.5C142,344.7,143.2,344.2,144.9,344.1z"/>
	<path id="XMLID_26_" class="st0" d="M272.2,81.4c-0.2,1.2-1.3,2.2-2.5,2.2L272.2,81.4L272.2,81.4z"/>
	<path id="XMLID_25_" class="st0" d="M258.3,87.4c-0.6,0.5-1.3,0.7-2.1,0.5C256.9,87.1,256.9,87.1,258.3,87.4z"/>
	<path id="XMLID_24_" class="st0" d="M209.6,294.9c0.1,0.8-0.3,1.5-1,1.9c-0.5-0.5-0.2-1-0.3-1.4l0,0L209.6,294.9L209.6,294.9z"/>
	<path id="XMLID_23_" class="st0" d="M346,128.2c-0.2,0.4-0.7,0.6-1.1,0.5c-0.3,0-0.7-0.2-0.5-0.5c0.2-0.4,0.7-0.6,1.2-0.4
		C345.8,127.7,346,128,346,128.2z"/>
	<path id="XMLID_22_" class="st0" d="M317.9,91.4c-0.3,0.7-1,1.1-1.8,1C316.4,91.6,317.1,91.2,317.9,91.4z"/>
	<path id="XMLID_21_" class="st0" d="M304.1,92.9c0.2,0,0.4,0.1,0.5,0.3c0,0.6-0.4,0.7-0.9,0.7c-0.2,0-0.3-0.1-0.4-0.3
		c0,0,0-0.1,0-0.1C303.4,93.1,303.7,92.9,304.1,92.9z"/>
	<path id="XMLID_20_" class="st0" d="M196.1,103.1c0,0.4-0.2,0.7-0.6,0.9c-0.2,0-0.3-0.1-0.3-0.3c0-0.1,0-0.1,0-0.2
		c0.1-0.4,0.1-0.9,0.6-0.9C196,102.8,196.1,102.9,196.1,103.1z"/>
	<path id="XMLID_19_" class="st0" d="M454.9,198.3c-0.1-0.1-0.2-0.1-0.2-0.2c0-0.4,0.2-0.7,0.6-0.8c0.1-0.1,0.3,0,0.3,0.1
		c0,0.1,0,0.1,0,0.2C455.5,197.9,455.2,198.2,454.9,198.3z"/>
	<path id="XMLID_18_" class="st0" d="M167,335.2c0.5-0.7,1.5-0.9,2.3-0.5C168.6,335.3,167.7,335.5,167,335.2L167,335.2z"/>
	<path id="XMLID_17_" class="st0" d="M151.8,339.1L151.8,339.1c-0.2,0.2-0.5,0.4-0.7,0.1c-0.2-0.2,0-0.4,0.2-0.5
		C151.5,338.6,151.7,338.8,151.8,339.1z"/>
	<path id="XMLID_16_" class="st0" d="M262.9,90c0.2,0,0.4,0.1,0.4,0.3c0,0.2-0.2,0.3-0.4,0.2c0,0-0.1,0-0.1,0
		c-0.1,0-0.2-0.1-0.3-0.2C262.5,90,262.7,90,262.9,90z"/>
	<path id="XMLID_15_" class="st0" d="M536.3,356.8h1.5C537.4,357.1,536.7,357.1,536.3,356.8z"/>
	<path id="XMLID_14_" class="st0" d="M124.8,249.1c-0.2,0.7-0.7,1-1.9,1.2L124.8,249.1L124.8,249.1z"/>
	<path id="XMLID_13_" class="st0" d="M429.6,196.7c0,0.1-0.1,0.2-0.2,0.3c-0.3,0-0.6-0.3-0.8-0.6c0-0.1,0.1-0.2,0.2-0.2
		C429.2,196.1,429.6,196.3,429.6,196.7z"/>
	<path id="XMLID_12_" class="st0" d="M459.7,196.5c-0.1,0.2-0.4,0.2-0.5,0.1c-0.2-0.1-0.4-0.2-0.4-0.4c0.2-0.1,0.4-0.1,0.5-0.1
		c0.2,0,0.3,0.1,0.3,0.2C459.8,196.4,459.7,196.5,459.7,196.5z"/>
	<path id="XMLID_11_" class="st0" d="M155.5,346.4c-0.1,0.2-0.3,0.3-0.4,0.4c-0.1,0.1-0.4,0.1-0.3-0.1c0.1-0.2,0.2-0.3,0.4-0.5
		C155.3,346.2,155.4,346.2,155.5,346.4z"/>
	<path id="XMLID_10_" class="st0" d="M347.2,105.5c0.1-0.2,0.2-0.4,0.4-0.5c0.2,0,0.4,0,0.6,0.1c0.1,0.5-0.4,0.2-0.6,0.3
		C347.4,105.4,347.3,105.4,347.2,105.5L347.2,105.5z"/>
	<path id="XMLID_9_" class="st0" d="M124.8,249.1c0.4-0.3,0.8-0.5,1.3-0.6C125.8,249,125.3,249.2,124.8,249.1L124.8,249.1z"/>
	<path id="XMLID_8_" class="st0" d="M159.1,343.8c-0.3,0.1-0.4,0-0.3-0.1c0.1-0.2,0.3-0.3,0.4-0.5c0.2-0.1,0.3,0,0.2,0.2
		C159.3,343.5,159.2,343.6,159.1,343.8z"/>
	<path id="XMLID_7_" class="st0" d="M187.2,79.9l-0.3,0.2c0,0-0.1-0.1-0.1-0.2c0.1-0.1,0.2-0.2,0.2-0.2L187.2,79.9z"/>
	<path id="XMLID_6_" class="st0" d="M291.3,90.3c0,0.1,0,0.2-0.1,0.3c0,0-0.1,0-0.1,0c-0.1,0-0.1,0-0.2-0.1c0.1-0.1,0.1-0.2,0.2-0.3
		C291.2,90.3,291.3,90.3,291.3,90.3z"/>
	<path id="XMLID_5_" class="st0" d="M556.6,360.8h0.4v0.1L556.6,360.8C556.6,360.9,556.6,360.8,556.6,360.8z"/>
	<path id="XMLID_4_" class="st0" d="M259.9,186.4c-0.3,0.2-0.7,0.3-1.1,0.1C259.1,186.3,259.5,186.3,259.9,186.4z"/>
	<path id="XMLID_3_" class="st0" d="M268.1,187.7c0.2,0,0.3,0.1,0.2,0.3c0,0.1-0.1,0.1-0.2,0.1c-0.1,0.1-0.2,0-0.3-0.1
		c0,0,0-0.1,0-0.1C267.8,187.7,267.9,187.7,268.1,187.7z"/>
</g>
</svg>
