<?xml version="1.0" encoding="UTF-8" standalone="no"?>
<!-- Created with Inkscape (http://www.inkscape.org/) -->

<svg
   xmlns:dc="http://purl.org/dc/elements/1.1/"
   xmlns:cc="http://creativecommons.org/ns#"
   xmlns:rdf="http://www.w3.org/1999/02/22-rdf-syntax-ns#"
   xmlns:svg="http://www.w3.org/2000/svg"
   xmlns="http://www.w3.org/2000/svg"
   xmlns:sodipodi="http://sodipodi.sourceforge.net/DTD/sodipodi-0.dtd"
   xmlns:inkscape="http://www.inkscape.org/namespaces/inkscape"
   width="1920"
   height="1080"
   viewBox="0 0 508.00001 285.75001"
   version="1.1"
   id="svg8"
   inkscape:version="0.92.1 r15371"
   sodipodi:docname="viewfinder.svg">
  <defs
     id="defs2">
    <clipPath
       id="clipPath3695"
       clipPathUnits="userSpaceOnUse">
      <path
         inkscape:connector-curvature="0"
         id="path3693"
         d="m 57.146,954.076 c -19.33,0 -35,-15.67 -35,-35 v 0 -731.923 c 0,-19.33 15.67,-35 35,-35 v 0 h 1287.692 c 19.33,0 35,15.67 35,35 v 0 731.923 c 0,19.33 -15.67,35 -35,35 v 0 z" />
    </clipPath>
    <radialGradient
       id="radialGradient3705"
       spreadMethod="pad"
       gradientTransform="matrix(1012.3812,0,0,-699.9588,700.99219,553.11426)"
       gradientUnits="userSpaceOnUse"
       r="1"
       cy="0"
       cx="0"
       fy="0"
       fx="0">
      <stop
         id="stop3701"
         offset="0"
         style="stop-opacity:1;stop-color:#ffffff" />
      <stop
         id="stop3703"
         offset="1"
         style="stop-opacity:1;stop-color:#d1d3d4" />
    </radialGradient>
    <clipPath
       id="clipPath3715"
       clipPathUnits="userSpaceOnUse">
      <path
         inkscape:connector-curvature="0"
         id="path3713"
         d="M 0,980 H 1400 V 0 H 0 Z" />
    </clipPath>
    <clipPath
       id="clipPath3781"
       clipPathUnits="userSpaceOnUse">
      <path
         inkscape:connector-curvature="0"
         id="path3779"
         d="M 0,980 H 1400 V 0 H 0 Z" />
    </clipPath>
    <clipPath
       id="clipPath3817"
       clipPathUnits="userSpaceOnUse">
      <path
         inkscape:connector-curvature="0"
         id="path3815"
         d="M 0,980 H 1400 V 0 H 0 Z" />
    </clipPath>
  </defs>
  <sodipodi:namedview
     id="base"
     pagecolor="#bcbcbc"
     bordercolor="#666666"
     borderopacity="1.0"
     inkscape:pageopacity="0"
     inkscape:pageshadow="2"
     inkscape:zoom="0.49497475"
     inkscape:cx="617.52264"
     inkscape:cy="509.83623"
     inkscape:document-units="mm"
     inkscape:current-layer="layer1"
     showgrid="false"
     inkscape:showpageshadow="false"
     inkscape:pagecheckerboard="true"
     units="px"
     inkscape:window-width="1908"
     inkscape:window-height="1088"
     inkscape:window-x="6"
     inkscape:window-y="46"
     inkscape:window-maximized="1" />
  <metadata
     id="metadata5">
    <rdf:RDF>
      <cc:Work
         rdf:about="">
        <dc:format>image/svg+xml</dc:format>
        <dc:type
           rdf:resource="http://purl.org/dc/dcmitype/StillImage" />
        <dc:title></dc:title>
      </cc:Work>
    </rdf:RDF>
  </metadata>
  <g
     inkscape:label="Layer 1"
     inkscape:groupmode="layer"
     id="layer1"
     transform="translate(0,-11.249979)">
    <g
       id="g3717"
       transform="matrix(0.36641415,0,0,-0.34381413,502.73878,279.94754)">
      <path
         d="m 0,0 c 0,-19.33 -15.67,-35 -35,-35 h -1287.692 c -19.33,0 -35,15.67 -35,35 v 731.922 c 0,19.33 15.67,35 35,35 H -35 c 19.33,0 35,-15.67 35,-35 z"
         style="fill:none;stroke:#231f20;stroke-width:3;stroke-linecap:butt;stroke-linejoin:miter;stroke-miterlimit:10;stroke-dasharray:none;stroke-opacity:1"
         id="path3719"
         inkscape:connector-curvature="0" />
    </g>
    <g
       id="g3721"
       transform="matrix(0.35277777,0,0,-0.35277777,475.74788,230.35213)"
       style="fill-opacity:0.45957446;fill:#000000">
      <path
         d="m 0,0 v -123.769 h -142.039 v -14 H 14 V 0 Z"
         style="fill:#000000;fill-opacity:0.45957446;fill-rule:nonzero;stroke:none"
         id="path3723"
         inkscape:connector-curvature="0" />
    </g>
    <g
       id="g3725"
       transform="matrix(0.35277777,0,0,-0.35277777,475.74788,73.149083)"
       style="fill:#000000;fill-opacity:0.45957446">
      <path
         d="m 0,0 h 14 v 124.308 h -156.039 v -14 H 0 Z"
         style="fill:#000000;fill-opacity:0.45957446;fill-rule:nonzero;stroke:none"
         id="path3727"
         inkscape:connector-curvature="0" />
    </g>
    <g
       id="g3729"
       transform="matrix(0.35277777,0,0,-0.35277777,32.252116,73.149083)"
       style="fill-opacity:0.45957446;fill:#000000">
      <path
         d="m 0,0 v 110.308 h 140.114 v 14 H -14 V 0 Z"
         style="fill:#000000;fill-opacity:0.45957446;fill-rule:nonzero;stroke:none"
         id="path3731"
         inkscape:connector-curvature="0" />
    </g>
    <g
       id="g3733"
       transform="matrix(0.35277777,0,0,-0.35277777,32.252116,230.35213)"
       style="fill-opacity:0.45957446;fill:#000000">
      <path
         d="m 0,0 h -14 v -137.769 h 154.114 v 14 H 0 Z"
         style="fill:#000000;fill-opacity:0.45957446;fill-rule:nonzero;stroke:none"
         id="path3735"
         inkscape:connector-curvature="0" />
    </g>
    <g
       id="g3737"
       transform="matrix(0.35277777,0,0,-0.35277777,346.06173,110.36671)"
       style="fill:#313131;fill-opacity:0.45957449">
      <path
         d="m 0,0 h 5 v 60.249 h -69.813 v -5 H 0 Z"
         style="fill:#313131;fill-opacity:0.45957449;fill-rule:nonzero;stroke:none"
         id="path3739"
         inkscape:connector-curvature="0" />
    </g>
    <g
       id="g3741"
       transform="matrix(0.35277777,0,0,-0.35277777,346.06173,196.52612)"
       style="fill:#313131;fill-opacity:0.45957449">
      <path
         d="m 0,0 v -59.096 h -64.813 v -5 H 5 V 0 Z"
         style="fill:#313131;fill-opacity:0.45957449;fill-rule:nonzero;stroke:none"
         id="path3743"
         inkscape:connector-curvature="0" />
    </g>
    <g
       id="g3745"
       transform="matrix(0.35277777,0,0,-0.35277777,161.93826,196.52612)"
       style="fill:#313131;fill-opacity:0.45957449">
      <path
         d="m 0,0 h -5 v -64.096 h 73.65 v 5 H 0 Z"
         style="fill:#313131;fill-opacity:0.45957449;fill-rule:nonzero;stroke:none"
         id="path3747"
         inkscape:connector-curvature="0" />
    </g>
    <g
       id="g3749"
       transform="matrix(0.35277777,0,0,-0.35277777,161.93826,110.36671)"
       style="fill:#313131;fill-opacity:0.45957449">
      <path
         d="m 0,0 v 55.249 h 68.65 v 5 H -5 V 0 Z"
         style="fill:#313131;fill-opacity:0.45957449;fill-rule:nonzero;stroke:none"
         id="path3751"
         inkscape:connector-curvature="0" />
    </g>
    <g
       id="g3753"
       transform="matrix(0.35277777,0,0,-0.35277777,250.34028,176.54665)"
       style="fill:#313131;fill-opacity:0.45957449">
      <path
         d="m 0,0 c -26.859,9.148 -46.241,34.604 -46.241,64.52 0,29.915 19.382,55.371 46.241,64.519 v 6.328 C -30.225,125.999 -52.241,97.783 -52.241,64.52 -52.241,31.256 -30.225,3.04 0,-6.328 Z"
         style="fill:#313131;fill-opacity:0.45957449;fill-rule:nonzero;stroke:none"
         id="path3755"
         inkscape:connector-curvature="0" />
    </g>
    <g
       id="g3757"
       transform="matrix(0.35277777,0,0,-0.35277777,265.80101,128.79229)"
       style="fill:#313131;fill-opacity:0.45957449">
      <path
         d="m 0,0 v -6.328 c 26.859,-9.148 46.241,-34.604 46.241,-64.519 0,-29.915 -19.382,-55.372 -46.241,-64.52 v -6.328 c 30.225,9.369 52.241,37.585 52.241,70.848 C 52.241,-37.584 30.225,-9.368 0,0"
         style="fill:#313131;fill-opacity:0.45957449;fill-rule:nonzero;stroke:none"
         id="path3759"
         inkscape:connector-curvature="0" />
    </g>
  </g>
</svg>
